<svg width="180" height="180" viewBox="0 0 180 180" fill="none" xmlns="http://www.w3.org/2000/svg">
<path d="M46.3901 97C46.3901 97 27.3901 94.81 24.3101 108C21.2301 121.19 23.0001 139.66 36.1701 140.39C44.5635 140.763 52.9693 140.026 61.1701 138.2L71.9301 96.83L46.3901 97Z" fill="#698EFD"/>
<path d="M59.9371 140.344C61.3042 137.259 59.5923 133.508 56.1133 131.967C52.6344 130.425 48.7058 131.676 47.3387 134.761C45.9716 137.846 47.6835 141.597 51.1625 143.139C54.6414 144.68 58.57 143.429 59.9371 140.344Z" fill="#BDC1E0"/>
<g opacity="0.7">
<path d="M59.9401 140.33C60.5257 138.95 60.5472 137.396 60.0001 136L55.8601 135.88C55.8601 135.88 54.7001 140.52 58.1701 142.55C58.9416 141.975 59.5514 141.21 59.9401 140.33Z" fill="#606EEC"/>
</g>
<path d="M82.3305 104C80.5262 109.828 78.3313 115.527 75.7605 121.06C71.7605 129.54 63.0805 140.85 54.3305 135.06C45.5805 129.27 54.3305 116.27 62.5405 109.06C70.7505 101.85 75.8605 97.51 75.8605 97.51" fill="#D298FF"/>
<path d="M60.6703 110.74C60.5997 113.874 61.3367 116.973 62.8103 119.74L58.4203 124.39C58.4203 124.39 57.2903 127.16 59.2303 132.66C59.2303 132.66 56.5003 131.82 55.2803 135.54C56.2683 136.026 57.3232 136.363 58.4103 136.54C60.4103 136.94 68.9903 127.64 68.9903 127.64L71.0003 115" fill="#252147"/>
<path d="M81.15 122C81.15 122 85.07 123.86 83.98 129.88C82.89 135.9 76.49 137 69.2 135.18C61.91 133.36 56.79 127.45 58.89 122C60.99 116.55 69.01 117.37 73.48 118.65C76.1721 119.427 78.7507 120.553 81.15 122Z" fill="#698EFD"/>
<path d="M76.2598 100.51C76.2598 100.51 80.0998 103.83 79.0298 106.92L82.3298 107.47L83.6998 103.53" fill="#252147"/>
<path d="M85.53 108.37C85.53 108.37 72.66 103.8 70.38 110.28C68.1 116.76 71.93 120.5 77.95 121.68C83.97 122.86 88.45 120.77 90.36 116.39C92.27 112.01 89.45 106.72 85.43 105.17L82.33 104L80.33 110.11" fill="#698EFD"/>
<path d="M86.2198 110.2C86.0204 110.199 85.8233 110.158 85.6398 110.08C82.7336 108.938 79.642 108.342 76.5198 108.32C76.122 108.329 75.7367 108.18 75.4489 107.905C75.161 107.631 74.9941 107.253 74.9848 106.855C74.9755 106.457 75.1246 106.072 75.3994 105.784C75.6741 105.496 76.052 105.329 76.4498 105.32C79.9995 105.315 83.517 105.994 86.8098 107.32C87.128 107.456 87.3896 107.697 87.5503 108.003C87.711 108.31 87.7608 108.662 87.6914 109.001C87.622 109.34 87.4375 109.644 87.1694 109.863C86.9012 110.081 86.5657 110.2 86.2198 110.2Z" fill="#5C65DF"/>
<path d="M89.85 104.434C91.1044 102.456 88.3294 98.4477 83.6518 95.4804C78.9742 92.513 74.1653 91.7105 72.9109 93.6879C71.6565 95.6652 74.4316 99.6737 79.1092 102.641C83.7868 105.608 88.5956 106.411 89.85 104.434Z" fill="#BDC1E0"/>
<mask id="mask0_4394_319042" style="mask-type:luminance" maskUnits="userSpaceOnUse" x="72" y="92" width="19" height="14">
<path d="M89.85 104.434C91.1044 102.456 88.3294 98.4478 83.6518 95.4804C78.9742 92.5131 74.1653 91.7105 72.9109 93.6879C71.6565 95.6653 74.4316 99.6738 79.1092 102.641C83.7868 105.608 88.5956 106.411 89.85 104.434Z" fill="white"/>
</mask>
<g mask="url(#mask0_4394_319042)">
<path opacity="0.5" fill-rule="evenodd" clip-rule="evenodd" d="M81.5898 96.19C81.5898 96.19 89.5898 101.7 89.8498 104.44C89.8498 104.44 91.3898 102.26 89.1798 99.33C86.9698 96.4 81.5898 96.19 81.5898 96.19Z" fill="#606EEC"/>
</g>
<path d="M139.68 110.93L126.54 116.016C123.635 117.141 122.192 120.407 123.316 123.312L128.402 136.452C129.527 139.357 132.793 140.8 135.698 139.676L148.838 134.59C151.743 133.465 153.186 130.199 152.062 127.294L146.976 114.154C145.851 111.249 142.585 109.806 139.68 110.93Z" fill="#00F479"/>
<path fill-rule="evenodd" clip-rule="evenodd" d="M136.27 95.24C135.766 95.8887 135.44 96.6576 135.324 97.4709C135.209 98.2842 135.307 99.1137 135.61 99.8773C135.913 100.641 136.41 101.312 137.052 101.825C137.694 102.337 138.459 102.673 139.27 102.8L151.54 104.8C152.349 104.932 153.178 104.851 153.946 104.565C154.714 104.279 155.395 103.798 155.92 103.169C156.446 102.541 156.799 101.786 156.945 100.98C157.09 100.173 157.023 99.3427 156.75 98.57L152.44 86.33C152.165 85.521 151.675 84.8022 151.022 84.2506C150.369 83.699 149.579 83.3353 148.735 83.1987C147.891 83.062 147.026 83.1575 146.233 83.4748C145.439 83.7921 144.747 84.3193 144.23 85L136.27 95.24Z" fill="#FF9900"/>
<path fill-rule="evenodd" clip-rule="evenodd" d="M135.09 62.44C137.09 63.05 138.17 65.68 137.61 68.23L136.52 73.23C136.318 74.0615 136.363 74.9339 136.65 75.74L138 79.28C138.237 80.0978 138.214 80.9691 137.935 81.7734C137.655 82.5777 137.133 83.2754 136.44 83.77L133.36 86C132.762 86.4338 132.292 87.0211 132 87.7L130.64 91C130.312 91.7321 129.771 92.3486 129.088 92.7695C128.405 93.1903 127.611 93.3961 126.81 93.36L123.24 93C122.467 92.9502 121.694 93.1054 121 93.45L117.09 95.36C115.21 96.27 112.81 95.98 111.71 94.61L109.07 91.32C108.411 90.5701 107.539 90.0397 106.57 89.8L100.38 88.04C97.1198 87.13 94.9998 84.42 95.9998 82L98.1898 76.56C98.4048 75.9584 98.4918 75.3186 98.4453 74.6815C98.3988 74.0444 98.2198 73.424 97.9198 72.86L94.2598 65.07C92.2598 60.86 94.2598 57.22 98.5898 57.32L107.04 57.52C107.718 57.5588 108.395 57.442 109.021 57.1786C109.647 56.9151 110.204 56.512 110.65 56L115.25 50.49C117.44 47.88 121.25 48.87 123.55 52.39L127.76 58.87C128.35 59.8632 129.27 60.6172 130.36 61L135.09 62.44Z" fill="#D298FF"/>
<path fill-rule="evenodd" clip-rule="evenodd" d="M120.78 105.53C120.675 104.641 120.302 103.806 119.711 103.134C119.119 102.463 118.338 101.987 117.47 101.77C116.602 101.553 115.688 101.605 114.851 101.919C114.013 102.234 113.291 102.795 112.78 103.53L109.78 107.92C109.186 108.78 108.415 109.501 107.517 110.036C106.62 110.571 105.618 110.907 104.58 111.02L99.2798 111.58C98.3881 111.68 97.5483 112.05 96.873 112.641C96.1977 113.232 95.7191 114.015 95.5015 114.885C95.2839 115.756 95.3376 116.672 95.6554 117.511C95.9733 118.35 96.54 119.072 97.2798 119.58L101.67 122.58C102.53 123.175 103.253 123.948 103.788 124.847C104.323 125.746 104.658 126.75 104.77 127.79L105.33 133.08C105.43 133.972 105.8 134.811 106.391 135.487C106.982 136.162 107.765 136.641 108.635 136.858C109.506 137.076 110.422 137.022 111.261 136.704C112.1 136.387 112.822 135.82 113.33 135.08L116.33 130.7C116.92 129.838 117.691 129.114 118.589 128.579C119.487 128.043 120.49 127.71 121.53 127.6L126.83 127.03C127.721 126.93 128.561 126.56 129.237 125.969C129.912 125.378 130.39 124.595 130.608 123.725C130.826 122.854 130.772 121.938 130.454 121.099C130.136 120.26 129.569 119.538 128.83 119.03L124.44 116.03C123.58 115.434 122.858 114.661 122.323 113.762C121.788 112.863 121.453 111.86 121.34 110.82L120.78 105.53Z" fill="#FFE535"/>
<path fill-rule="evenodd" clip-rule="evenodd" d="M92.5498 100.51C89.1728 100.402 85.8987 99.3218 83.1198 97.4C71.9998 89.65 72.7298 70.24 84.7098 53.22C93.4498 40.8 105.9 33.09 116.42 33.57C119.794 33.6878 123.063 34.7706 125.84 36.69C131.66 40.75 134.42 47.96 133.64 56.97C132.96 64.75 129.64 73.24 124.25 80.87C115.51 93.29 103.07 101 92.5498 100.51Z" fill="url(#paint0_linear_4394_319042)"/>
<path d="M118.118 76.538C127.644 61.5212 128.319 44.8772 119.626 39.3626C110.933 33.848 96.1638 41.5511 86.6375 56.5679C77.1113 71.5847 76.4357 88.2287 85.1287 93.7433C93.8217 99.2579 108.591 91.5549 118.118 76.538Z" fill="#606EEC"/>
<path fill-rule="evenodd" clip-rule="evenodd" d="M118.11 76.54C122.261 70.2426 124.839 63.0409 125.63 55.54L123.55 52.34C121.26 48.82 117.44 47.83 115.25 50.44L110.65 56C110.201 56.5211 109.639 56.9314 109.005 57.1986C108.372 57.4658 107.686 57.5826 107 57.54L98.5496 57.34C94.2196 57.24 92.2496 60.88 94.2196 65.09L97.8796 72.88C98.1796 73.444 98.3586 74.0644 98.4051 74.7015C98.4516 75.3386 98.3646 75.9784 98.1496 76.58L95.9996 82C94.9996 84.4 97.1296 87.11 100.39 88L106.23 89.66C110.934 86.0229 114.956 81.5809 118.11 76.54Z" fill="#D298FF"/>
<path fill-rule="evenodd" clip-rule="evenodd" d="M91.1701 59.16C99.7201 45.68 112.48 38.1 121.3 40.67C120.782 40.1869 120.223 39.7486 119.63 39.36C110.94 33.85 96.1701 41.56 86.6301 56.57C77.0901 71.58 76.4301 88.24 85.1201 93.75C86.0146 94.3037 86.9847 94.7248 88.0001 95C81.1001 88.52 82.3001 73.14 91.1701 59.16Z" fill="black"/>
<path fill-rule="evenodd" clip-rule="evenodd" d="M105.24 56.19C105.24 56.19 107.59 53.27 109.59 51.08C111.59 48.89 111.95 47.34 110.77 46.88C109.59 46.42 105.02 48.88 101.55 52.72C98.0803 56.56 96.5503 62.21 98.0003 63.3C99.4503 64.39 105.24 56.19 105.24 56.19Z" fill="white"/>
<path fill-rule="evenodd" clip-rule="evenodd" d="M102.38 83.46C100.114 85.2543 97.7137 86.8724 95.2003 88.3C92.5503 89.57 93.1003 91.76 96.4703 91.03C99.8403 90.3 106.4 84.83 106.36 83.46C106.32 82.09 105 81.53 102.38 83.46Z" fill="white"/>
<path d="M74.4902 134.18L68.3802 132.18C65.8202 130.81 59.7102 130.72 57.9802 134.18C56.2502 137.64 57.7902 143.76 64.3602 145.77C70.9302 147.78 74.8502 145.13 76.1302 140.5C77.4102 135.87 74.4902 134.18 74.4902 134.18Z" fill="#698EFD"/>
<path d="M81.1495 123.51H80.9995C80.5995 123.51 71.1495 122.57 64.8195 119.03C64.4809 118.832 64.2334 118.509 64.1301 118.13C64.0268 117.752 64.0759 117.348 64.2669 117.005C64.4578 116.663 64.7755 116.408 65.1517 116.297C65.528 116.186 65.9328 116.226 66.2795 116.41C72.0495 119.64 81.1795 120.51 81.2795 120.52C81.6774 120.537 82.052 120.712 82.3212 121.005C82.5903 121.299 82.7318 121.687 82.7145 122.085C82.6973 122.483 82.5227 122.858 82.2292 123.127C81.9357 123.396 81.5474 123.537 81.1495 123.52V123.51Z" fill="#5C65DF"/>
<path d="M75.9999 137.46H75.9099C75.5599 137.46 67.1399 136.91 61.1799 132.73C61.0045 132.623 60.8528 132.482 60.7342 132.314C60.6157 132.147 60.5328 131.956 60.4908 131.755C60.4487 131.554 60.4484 131.347 60.4898 131.146C60.5311 130.945 60.6133 130.754 60.7313 130.586C60.8493 130.418 61.0005 130.276 61.1756 130.169C61.3507 130.062 61.5459 129.992 61.7492 129.963C61.9525 129.934 62.1595 129.948 62.3574 130.002C62.5554 130.057 62.74 130.151 62.8999 130.28C68.1499 133.96 76.0099 134.46 76.0899 134.47C76.4877 134.482 76.8645 134.651 77.1374 134.941C77.4102 135.231 77.5568 135.617 77.5449 136.015C77.533 136.413 77.3635 136.79 77.0737 137.062C76.784 137.335 76.3977 137.482 75.9999 137.47V137.46Z" fill="#5C65DF"/>
<mask id="mask1_4394_319042" style="mask-type:luminance" maskUnits="userSpaceOnUse" x="69" y="103" width="22" height="20">
<path d="M80.3499 110.1L82.3499 103.99L85.4499 105.17C89.4499 106.72 92.2999 112.01 90.3799 116.39C88.4599 120.77 83.9999 122.87 77.9999 121.68C71.9999 120.49 68.1499 116.76 70.4299 110.28C72.7099 103.8 85.5799 108.37 85.5799 108.37" fill="white"/>
</mask>
<g mask="url(#mask1_4394_319042)">
<path d="M72.3902 103.53L70.6602 118.66C79.6602 120.16 81.2602 107.29 81.2602 107.29L72.3902 103.53Z" fill="#5C65DF"/>
</g>
<path d="M46.3896 97C46.3896 97 52.7797 83 62.9897 83.14C73.1997 83.28 75.9896 91.71 76.3096 101.75C76.6296 111.79 77.2197 118.33 70.6597 118.75C64.0997 119.17 60.7996 114.57 60.2596 108.18L59.7096 101.8L46.3896 97Z" fill="#698EFD"/>
<path d="M60.6699 112.24C60.3 112.24 59.9433 112.103 59.6683 111.855C59.3933 111.608 59.2193 111.268 59.1799 110.9L58.1799 101.9C58.1595 101.703 58.1781 101.504 58.2347 101.314C58.2913 101.124 58.3847 100.948 58.5096 100.794C58.6345 100.64 58.7884 100.513 58.9626 100.418C59.1368 100.324 59.3279 100.265 59.5249 100.245C59.7218 100.225 59.9209 100.243 60.1107 100.3C60.3005 100.356 60.4772 100.45 60.6309 100.575C60.7846 100.7 60.9122 100.854 61.0064 101.028C61.1006 101.202 61.1595 101.393 61.1799 101.59L62.1799 110.59C62.2219 110.985 62.1055 111.381 61.8561 111.69C61.6068 111.999 61.2449 112.197 60.8499 112.24H60.6699Z" fill="#5C65DF"/>
<defs>
<linearGradient id="paint0_linear_4394_319042" x1="128.3" y1="38.66" x2="80.6698" y2="95.42" gradientUnits="userSpaceOnUse">
<stop stop-color="#93A2FF"/>
<stop offset="0.27" stop-color="#A4AEF3"/>
<stop offset="0.74" stop-color="#BDC1E0"/>
</linearGradient>
</defs>
</svg>
