<svg width="279" height="175" viewBox="0 0 279 175" fill="none" xmlns="http://www.w3.org/2000/svg">
<g clip-path="url(#clip0_119_266)">
<mask id="mask0_119_266" style="mask-type:alpha" maskUnits="userSpaceOnUse" x="0" y="0" width="279" height="175">
<path d="M0 10C0 4.47715 4.47715 0 10 0H269C274.523 0 279 4.47715 279 10V165C279 170.523 274.523 175 269 175H10C4.47715 175 0 170.523 0 165V10Z" fill="url(#paint0_linear_119_266)"/>
</mask>
<g mask="url(#mask0_119_266)">
<rect x="-5" y="-122" width="297" height="298" fill="url(#paint1_linear_119_266)"/>
</g>
<g clip-path="url(#clip1_119_266)">
<path opacity="0.7" d="M135.669 91.384C134.638 91.608 134.188 92.3593 134.664 93.0673C135.139 93.7753 136.36 94.1654 137.388 93.9451L144.194 92.4785L144.04 92.157L143.836 91.7344C143.836 91.7344 143.836 91.7308 143.836 91.7272C143.803 91.6586 143.777 91.5899 143.755 91.5213C143.748 91.496 143.741 91.4707 143.733 91.4454C143.722 91.3985 143.711 91.3515 143.704 91.3082C143.7 91.2793 143.697 91.254 143.693 91.2251C143.689 91.1817 143.686 91.1384 143.686 91.0951C143.686 91.0698 143.686 91.0409 143.686 91.0156C143.686 90.9614 143.697 90.9036 143.708 90.8494C143.708 90.8386 143.708 90.8278 143.711 90.8133C143.788 90.4521 143.847 90.0872 143.879 89.7224L135.669 91.384Z" fill="url(#paint2_linear_119_266)"/>
<path d="M175.071 48.3845C173.279 48.3375 171.89 48.3339 170.101 48.4061C169.659 48.4242 169.315 48.7854 169.333 49.2044L170.138 68.1758C170.156 68.5948 170.529 68.9271 170.972 68.9091C172.76 68.8368 174.142 68.7176 175.927 68.5226C179.003 68.183 181.329 65.7339 181.435 62.7972C181.548 59.7341 181.42 56.6781 181.047 53.633C180.692 50.7143 178.165 48.4675 175.075 48.3809L175.071 48.3845Z" fill="#718CF6"/>
<path d="M175.038 51.6099C174.065 51.5593 173.736 51.5268 172.398 51.5738C171.911 51.5918 171.535 52.0506 171.557 52.5996L171.984 62.7428C172.006 63.2918 172.423 63.7181 172.906 63.6928C174.245 63.6314 174.57 63.5663 175.535 63.4363C176.6 63.2918 177.419 62.3815 177.477 61.2726C177.583 59.2353 177.434 55.6231 177.156 53.6002C177.006 52.5021 176.11 51.6605 175.038 51.6063V51.6099Z" fill="#BACAFA"/>
<path d="M113.738 59.7339C113.858 64.2889 114.078 66.2322 114.721 69.877C115.621 74.9594 119.326 78.7594 124.138 79.6408C128.037 80.3524 137.582 80.468 144.227 80.2982C150.872 80.1284 160.399 79.5288 164.257 78.6185C169.019 77.4951 172.519 73.5109 173.155 68.3887C173.612 64.7115 173.729 62.7645 173.608 58.2095C173.488 53.6545 173.268 51.7111 172.625 48.0664C171.725 42.984 168.02 39.184 163.208 38.3026C159.309 37.591 149.764 36.8216 143.119 36.9913C136.474 37.1611 126.947 38.4182 123.089 39.3284C118.327 40.4518 114.827 44.4361 114.191 49.5582C113.734 53.2355 113.617 55.1825 113.738 59.7375" fill="url(#paint3_linear_119_266)"/>
<path d="M112.33 50.9524C114.114 50.7646 115.497 50.6526 117.285 50.5876C117.728 50.5696 118.101 50.9019 118.115 51.3209L118.839 70.2959C118.854 70.7149 118.51 71.0725 118.068 71.0906C116.279 71.1556 114.89 71.1484 113.098 71.0906C110.008 70.993 107.491 68.7354 107.148 65.8167C106.789 62.7716 106.672 59.7157 106.797 56.6525C106.917 53.7158 109.254 51.2776 112.33 50.9488V50.9524Z" fill="#718CF6"/>
<path d="M111.942 54.7019C112.904 54.5718 113.233 54.5141 114.572 54.449C115.058 54.4274 115.471 54.8536 115.493 55.4027L115.921 65.5458C115.943 66.0948 115.566 66.5536 115.08 66.5716C113.741 66.6186 113.409 66.5825 112.44 66.5319C111.368 66.4777 110.472 65.6361 110.322 64.538C110.044 62.5151 109.891 58.9029 109.997 56.8656C110.055 55.7603 110.874 54.8464 111.939 54.7055L111.942 54.7019Z" fill="#BACAFA"/>
<path d="M139.699 74.5368L150.1 74.2406C156.548 73.8721 158.504 71.246 159.214 67.6049C159.887 64.1589 159.722 61.8181 159.243 58.0434C158.855 54.9983 156.482 53.7557 153.746 53.8279L136.104 54.3192C133.369 54.395 131.211 56.6491 131.288 59.351L131.493 66.2937C131.661 71.7987 134.568 74.674 139.703 74.5331L139.699 74.5368Z" fill="#BACAFA"/>
<path d="M150.418 66.3839L152.664 66.3225C153.86 66.2899 154.851 67.1171 154.88 68.1683C154.909 69.2195 153.966 70.1008 152.77 70.1334L150.524 70.1948C149.329 70.2273 148.337 69.4001 148.308 68.3489C148.279 67.2978 149.223 66.4164 150.418 66.3839Z" fill="#718CF6"/>
<path d="M139.89 66.6766L142.135 66.6152C143.331 66.5827 144.322 67.4099 144.351 68.461C144.381 69.5122 143.437 70.3936 142.241 70.4261L139.996 70.4875C138.8 70.52 137.809 69.6928 137.78 68.6416C137.75 67.5905 138.694 66.7091 139.89 66.6766Z" fill="#718CF6"/>
<path d="M128.865 60.0023C128.759 58.3738 127.337 57.139 125.689 57.2443C124.041 57.3495 122.792 58.755 122.898 60.3834L123.029 62.3841C123.136 64.0125 124.558 65.2474 126.206 65.1421C127.854 65.0369 129.103 63.6314 128.996 62.0029L128.865 60.0023Z" fill="black"/>
<path d="M166.667 57.5875C166.56 55.959 165.138 54.7242 163.49 54.8295C161.842 54.9347 160.593 56.3402 160.7 57.9687L160.831 59.9693C160.937 61.5977 162.359 62.8326 164.007 62.7273C165.655 62.6221 166.904 61.2166 166.798 59.5881L166.667 57.5875Z" fill="black"/>
<path d="M163.939 58.5706C164.382 58.2889 164.681 57.8337 164.758 57.3172L164.89 56.443C164.897 56.3997 164.934 56.3672 164.978 56.3672C165.022 56.3672 165.058 56.3997 165.065 56.443L165.197 57.3172C165.274 57.8301 165.574 58.2889 166.016 58.5706L166.13 58.6429C166.155 58.6573 166.17 58.6862 166.17 58.7151C166.17 58.7513 166.155 58.7801 166.13 58.7946L166.016 58.8668C165.574 59.1486 165.274 59.6037 165.197 60.1203L165.065 60.9944C165.058 61.0378 165.022 61.0703 164.978 61.0703C164.934 61.0703 164.897 61.0378 164.89 60.9944L164.758 60.1203C164.681 59.6073 164.382 59.1486 163.939 58.8668L163.826 58.7946C163.8 58.7801 163.785 58.7513 163.785 58.7224C163.785 58.6862 163.8 58.6573 163.826 58.6429L163.939 58.5706Z" fill="white"/>
<path d="M125.708 60.4237C126.15 60.1419 126.45 59.6868 126.527 59.1702L126.658 58.2961C126.666 58.2527 126.702 58.2202 126.746 58.2202C126.79 58.2202 126.827 58.2527 126.834 58.2961L126.966 59.1702C127.042 59.6832 127.342 60.1419 127.785 60.4237L127.898 60.4959C127.924 60.5104 127.938 60.5393 127.938 60.5682C127.938 60.6043 127.924 60.6332 127.898 60.6476L127.785 60.7199C127.342 61.0016 127.042 61.4568 126.966 61.9733L126.834 62.8475C126.827 62.8908 126.79 62.9233 126.746 62.9233C126.702 62.9233 126.666 62.8908 126.658 62.8475L126.527 61.9733C126.45 61.4604 126.15 61.0016 125.708 60.7199L125.594 60.6476C125.569 60.6332 125.554 60.6043 125.554 60.5754C125.554 60.5393 125.569 60.5104 125.594 60.4959L125.708 60.4237Z" fill="white"/>
<path d="M124.976 63.9059C125.344 63.9059 125.642 63.6116 125.642 63.2485C125.642 62.8854 125.344 62.5911 124.976 62.5911C124.608 62.5911 124.31 62.8854 124.31 63.2485C124.31 63.6116 124.608 63.9059 124.976 63.9059Z" fill="white"/>
<path d="M162.853 61.2797C163.22 61.2797 163.518 60.9854 163.518 60.6223C163.518 60.2592 163.22 59.9648 162.853 59.9648C162.485 59.9648 162.187 60.2592 162.187 60.6223C162.187 60.9854 162.485 61.2797 162.853 61.2797Z" fill="white"/>
<path d="M141.229 29.8284C141.656 30.2799 142.066 30.7097 142.465 31.1288C142.062 30.7097 141.653 30.2799 141.229 29.8284Z" fill="#62C780"/>
<path d="M142.468 31.1287C142.556 31.219 142.64 31.3093 142.728 31.3996C142.644 31.3093 142.556 31.219 142.468 31.1287Z" fill="#62C780"/>
<path d="M143.851 32.5627C143.781 32.4905 143.712 32.4219 143.642 32.3496C143.712 32.4182 143.785 32.4977 143.851 32.5663V32.5627Z" fill="#62C780"/>
<path d="M153.367 28.2606C152.58 28.1089 151.743 28.0728 150.88 28.1559C150.799 28.1631 150.719 28.1739 150.635 28.1848C147.358 28.5966 145.796 30.2149 143.851 32.5628C147.464 36.2725 149.684 38.299 149.684 38.299C149.684 38.299 150.69 39.3827 152.504 39.5488C153.714 39.1009 154.903 38.5518 156.047 37.8764C157.181 37.2045 158.077 36.1569 158.424 34.8999C158.435 34.8638 158.45 34.8277 158.457 34.7879C158.596 34.2208 158.637 33.632 158.56 33.0324C158.245 30.6122 156.117 28.7736 153.363 28.2606H153.367Z" fill="#83ED90"/>
<path d="M146.114 39.8703C145.741 39.9173 145.354 39.7728 145.105 39.4549C144.736 38.9817 144.827 38.3026 145.306 37.9378C149.592 34.6904 152.214 29.6189 152.5 24.0272C152.529 23.4311 153.045 22.9724 153.648 23.0013C154.251 23.0302 154.716 23.5395 154.687 24.1355C154.368 30.3666 151.435 36.0233 146.641 39.6536C146.484 39.7728 146.301 39.8451 146.114 39.8667V39.8703Z" fill="#3D8A46"/>
<path d="M144.195 40.9721C136.518 37.5658 133.779 33.0035 132.956 31.201C132.707 30.6556 132.06 30.4136 131.508 30.6592C130.956 30.9048 130.711 31.5442 130.959 32.0896C132.525 35.5249 135.728 38.747 139.967 41.2358C141.342 41.3008 142.882 41.3044 144.509 41.1888C144.418 41.1021 144.315 41.0263 144.195 40.9721Z" fill="#3D8A46"/>
<path d="M149.552 38.1797C148.97 37.6415 146.454 35.2827 142.724 31.3996C142.636 31.3093 142.552 31.219 142.464 31.1287C142.062 30.7097 141.652 30.2798 141.228 29.8283C138.917 27.3756 136.518 24.5183 131.705 25.0638C127.551 25.537 124.764 28.6832 124.972 32.0281C125.258 36.6084 128.205 39.0358 133.91 40.4807C133.91 40.4807 136.386 41.0659 139.967 41.2357C135.739 38.7541 132.543 35.5428 130.974 32.1184C130.751 31.6308 130.9 31.0275 131.358 30.7386C131.939 30.3665 132.685 30.6049 132.956 31.1973C133.779 32.9998 136.518 37.562 144.194 40.9684C144.315 41.0226 144.421 41.0984 144.509 41.1851C146.637 41.0334 148.912 40.683 151.157 40.0003L152.507 39.5488C152.507 39.5488 151.044 39.4043 149.556 38.1797H149.552Z" fill="#62C780"/>
<path d="M159.701 119.415C159.386 117.374 157.609 115.868 155.52 115.868H123.524C121.436 115.868 119.659 117.374 119.344 119.415L117.113 133.857C116.532 137.617 118.854 141.236 122.562 142.266C126.062 143.237 131.365 144.068 139.279 144.068H139.769C147.683 144.068 152.99 143.237 156.486 142.266C160.191 141.236 162.513 137.613 161.935 133.857L159.704 119.415H159.701Z" fill="#4D4D4D"/>
<path d="M151.943 119.91L150.59 120.119C143.258 121.261 135.79 121.261 128.457 120.119L127.104 119.91C125.586 119.91 124.354 118.692 124.354 117.193V111.432C124.354 109.265 126.285 107.589 128.461 107.867L132.327 108.358C137.103 108.968 141.941 108.968 146.717 108.358L150.583 107.867C152.759 107.589 154.69 109.265 154.69 111.432V117.193C154.69 118.692 153.457 119.91 151.94 119.91H151.943Z" fill="url(#paint4_linear_119_266)"/>
<path d="M147.84 124.743H136.097V137.31H147.84V124.743Z" fill="#747F8D"/>
<path d="M129.185 124.866V137.191C129.185 138.325 130.114 139.246 131.266 139.246H132.305V122.814H131.266C130.118 122.814 129.185 123.732 129.185 124.87V124.866Z" fill="#83ED90"/>
<path d="M147.903 122.81H134.386V139.242H147.903C149.051 139.242 149.984 138.321 149.984 137.187V124.862C149.984 123.728 149.051 122.807 147.903 122.807V122.81ZM146.864 133.08C146.864 134.214 145.931 135.135 144.783 135.135C143.635 135.135 142.702 134.214 142.702 133.08C142.702 131.946 143.635 131.025 144.783 131.025V128.341L140.625 129.71V134.106C140.625 135.24 139.692 136.161 138.544 136.161C137.396 136.161 136.463 135.24 136.463 134.106C136.463 132.972 137.396 132.051 138.544 132.051V128.969C138.544 128.525 138.829 128.135 139.254 127.994L145.493 125.939C145.811 125.834 146.158 125.884 146.429 126.08C146.699 126.271 146.86 126.582 146.86 126.914V133.076L146.864 133.08Z" fill="#83ED90"/>
<path d="M93.8866 42.2544C96.4648 40.6144 98.202 37.9558 98.6591 34.9577L99.4308 29.8572C99.4673 29.6044 99.6868 29.4202 99.9428 29.4202C100.199 29.4202 100.418 29.6044 100.455 29.8572L101.226 34.9577C101.68 37.9522 103.417 40.6108 105.999 42.2544L106.668 42.6806C106.818 42.7745 106.906 42.9371 106.906 43.1105V43.143C106.906 43.3164 106.815 43.4789 106.668 43.5728L105.999 43.9991C103.421 45.639 101.684 48.2976 101.226 51.2958L100.455 56.3962C100.418 56.6491 100.199 56.8333 99.9428 56.8333C99.6868 56.8333 99.4673 56.6491 99.4308 56.3962L98.6591 51.2958C98.2056 48.3012 96.4685 45.6426 93.8866 43.9991L93.2173 43.5728C93.071 43.4789 92.9796 43.3164 92.9796 43.143V43.1105C92.9796 42.9371 93.071 42.7745 93.2173 42.6806L93.8866 42.2544Z" fill="#FEDB5E"/>
<path d="M146.637 108.369C145.624 108.495 144.607 108.593 143.591 108.665C142.973 109.218 141.287 110.355 136.858 111.815C136.134 112.053 135.742 112.826 135.984 113.541C136.178 114.112 136.715 114.473 137.297 114.473C137.443 114.473 137.589 114.452 137.736 114.405C145.383 111.887 146.82 109.745 146.641 108.369H146.637Z" fill="#D8529B"/>
<path d="M143.728 96.6499C147.378 95.2594 148.685 89.8997 146.646 84.6787C144.607 79.4576 139.996 76.3523 136.345 77.7428C132.695 79.1333 131.389 84.493 133.427 89.7141C135.466 94.9351 140.078 98.0404 143.728 96.6499Z" fill="url(#paint5_linear_119_266)"/>
<path d="M139.659 82.7368C138.339 80.49 134.967 78.6441 131.57 77.9831C123.027 76.3215 115.478 79.428 115.478 79.428C110.724 81.2341 109.261 85.93 109.627 88.8197C110.131 92.804 111.631 95.0616 112.461 98.2043C112.951 100.068 113.697 102.282 114.473 104.403C116.59 110.204 121.937 115.398 130.11 113.744C132.349 113.289 137.79 112.299 141.426 110.316C145.836 107.91 146.374 102.766 144.739 98.9339L140.914 89.9287C140.76 89.6144 140.723 89.3002 140.786 89.0076C141.206 87.0714 141.027 85.0558 139.886 83.116L139.659 82.7331V82.7368Z" fill="#7393F9"/>
<path d="M199.147 50.3194C201.147 49.0481 202.494 46.9849 202.849 44.6599L203.449 40.704C203.478 40.5084 203.647 40.3665 203.849 40.3665C204.047 40.3665 204.216 40.5116 204.248 40.704L204.848 44.6599C205.2 46.9849 206.547 49.0449 208.55 50.3194L209.071 50.6506C209.186 50.7232 209.256 50.8494 209.256 50.985V51.0102C209.256 51.1459 209.186 51.2721 209.071 51.3446L208.55 51.6759C206.551 52.9472 205.203 55.0103 204.848 57.3353L204.248 61.2913C204.219 61.4868 204.05 61.6288 203.849 61.6288C203.651 61.6288 203.481 61.4837 203.449 61.2913L202.849 57.3353C202.498 55.0103 201.15 52.9504 199.147 51.6759L198.627 51.3446C198.512 51.2721 198.441 51.1459 198.441 51.0102V50.985C198.441 50.8494 198.512 50.7232 198.627 50.6506L199.147 50.3194Z" fill="#66BAFF"/>
<path d="M80.5555 68.7096C81.964 67.8137 82.9125 66.3625 83.1617 64.7253L83.5832 61.9397C83.6056 61.8041 83.7238 61.7 83.8643 61.7C84.0048 61.7 84.123 61.8009 84.1454 61.9397L84.567 64.7253C84.8161 66.3625 85.7647 67.8137 87.1732 68.7096L87.5405 68.943C87.6203 68.9935 87.6714 69.0818 87.6714 69.1796V69.1954C87.6714 69.29 87.6235 69.3784 87.5405 69.432L87.1732 69.6654C85.7647 70.5614 84.8161 72.0125 84.567 73.6498L84.1454 76.4353C84.123 76.571 84.0048 76.6751 83.8643 76.6751C83.7238 76.6751 83.6056 76.5741 83.5832 76.4353L83.1617 73.6498C82.9125 72.0125 81.964 70.5614 80.5555 69.6654L80.1882 69.432C80.1083 69.3815 80.0572 69.2932 80.0572 69.1954V69.1796C80.0572 69.085 80.1051 68.9967 80.1882 68.943L80.5555 68.7096Z" fill="#8FFFAB"/>
<path d="M193.845 75.9445C195.199 75.0297 195.729 73.3325 194.848 71.9665C194.832 71.9413 194.813 71.9129 194.797 71.8877C193.851 70.427 191.833 70.0958 190.466 71.181C184.921 75.5881 170.856 88.9796 160.977 105.642C160.977 105.642 180.504 84.9416 193.845 75.9445Z" fill="#83ED90"/>
<path d="M163.395 109.889C163.21 109.967 182.571 98.6737 198.269 93.1405C199.894 92.5663 201.629 93.6768 201.772 95.3771C201.881 96.6863 201.268 97.863 199.68 98.1374C199.68 98.1374 181.309 102.144 163.398 109.889H163.395Z" fill="#83ED90"/>
<path d="M186.637 120.842C187.972 121.289 189.412 120.595 189.709 119.233C189.981 117.99 189.16 116.778 187.898 116.532C176.566 114.318 164.791 114.182 164.676 114.169C164.676 114.169 173.04 116.267 186.637 120.842Z" fill="#83ED90"/>
<path d="M111.986 112.141C112.171 112.22 92.8097 100.926 77.1118 95.3927C75.4862 94.8185 73.7519 95.929 73.6082 97.6293C73.4996 98.9385 74.1128 100.115 75.7002 100.39C75.7002 100.39 94.0713 104.396 111.983 112.141H111.986Z" fill="#83ED90"/>
<path d="M88.7439 123.094C87.4088 123.542 85.9684 122.848 85.6713 121.485C85.3999 120.242 86.2207 119.031 87.4823 118.784C98.8141 116.57 110.59 116.434 110.705 116.422C110.705 116.422 102.34 118.519 88.7439 123.094Z" fill="#83ED90"/>
</g>
</g>
<defs>
<linearGradient id="paint0_linear_119_266" x1="11.6593" y1="190.586" x2="267.732" y2="84.72" gradientUnits="userSpaceOnUse">
<stop stop-color="#FFE75C"/>
<stop offset="0.32" stop-color="#FC78C0"/>
<stop offset="0.92" stop-color="#5221DB"/>
</linearGradient>
<linearGradient id="paint1_linear_119_266" x1="292" y1="-122" x2="211.451" y2="228.13" gradientUnits="userSpaceOnUse">
<stop stop-color="#3736BB"/>
<stop offset="0.339235" stop-color="#4670E8"/>
<stop offset="0.492065" stop-color="#8377EB"/>
<stop offset="0.823236" stop-color="#E782F1"/>
<stop offset="0.899558" stop-color="#DF90AF"/>
</linearGradient>
<linearGradient id="paint2_linear_119_266" x1="139.066" y1="94.2973" x2="139.819" y2="89.076" gradientUnits="userSpaceOnUse">
<stop stop-color="#718CF6"/>
<stop offset="1" stop-color="#4C70E0"/>
</linearGradient>
<linearGradient id="paint3_linear_119_266" x1="141.726" y1="36.948" x2="145.494" y2="80.5881" gradientUnits="userSpaceOnUse">
<stop offset="0.67" stop-color="#718CF6"/>
<stop offset="0.78" stop-color="#6885F1"/>
<stop offset="0.96" stop-color="#5274E3"/>
<stop offset="1" stop-color="#4C70E0"/>
</linearGradient>
<linearGradient id="paint4_linear_119_266" x1="138.163" y1="121.878" x2="140.927" y2="106.016" gradientUnits="userSpaceOnUse">
<stop offset="0.2" stop-color="#FF78B9"/>
<stop offset="0.45" stop-color="#F972B4"/>
<stop offset="0.79" stop-color="#E864A9"/>
<stop offset="1" stop-color="#DB58A0"/>
</linearGradient>
<linearGradient id="paint5_linear_119_266" x1="144.28" y1="79.9404" x2="135.959" y2="94.5377" gradientUnits="userSpaceOnUse">
<stop stop-color="#7393F9"/>
<stop offset="1" stop-color="#4C70E0"/>
</linearGradient>
<clipPath id="clip0_119_266">
<rect width="279" height="175" fill="white"/>
</clipPath>
<clipPath id="clip1_119_266">
<rect width="161" height="129" fill="white" transform="translate(59 23)"/>
</clipPath>
</defs>
</svg>
