<svg width="408" height="48" viewBox="0 0 408 48" fill="none" xmlns="http://www.w3.org/2000/svg">
<g clip-path="url(#clip0_231_355)">
<rect width="408" height="48" rx="4" fill="url(#paint0_radial_231_355)"/>
<g opacity="0.3">
<path d="M334.153 32.7414V36.205C334.153 36.2895 334.238 36.3489 334.329 36.3333L344.172 34.5999C344.328 34.5718 344.328 34.3684 344.172 34.3402L334.329 32.6069C334.238 32.5975 334.153 32.6601 334.153 32.7414Z" fill="#8CD9FF"/>
<path d="M339.15 23.9784V28.5026C339.15 28.6122 339.26 28.6935 339.379 28.6716L352.235 26.4095C352.441 26.3719 352.441 26.106 352.235 26.0716L339.379 23.8095C339.26 23.7907 339.15 23.872 339.15 23.9784Z" fill="#FFF2A6"/>
<path d="M331.05 15.7618V20.7741C331.05 20.893 331.159 20.9838 331.278 20.9618L344.134 18.4557C344.341 18.415 344.341 18.1209 344.134 18.0802L331.278 15.5741C331.159 15.5522 331.05 15.6429 331.05 15.7618Z" fill="#91FFAD"/>
<path d="M330.737 43.6547C330.477 43.6547 330.268 43.445 330.268 43.1854V15.2171C330.268 14.9574 330.477 14.7478 330.737 14.7478C330.997 14.7478 331.206 14.9574 331.206 15.2171V43.1854C331.206 43.445 330.997 43.6547 330.737 43.6547Z" fill="#2727AF"/>
<path d="M334.154 43.0134C333.894 43.0134 333.684 42.8038 333.684 42.5441V32.2973C333.684 32.0376 333.894 31.828 334.154 31.828C334.413 31.828 334.623 32.0376 334.623 32.2973V42.5441C334.623 42.8038 334.413 43.0134 334.154 43.0134Z" fill="#2727AF"/>
<path d="M339.1 51.8741C338.84 51.8741 338.631 51.6645 338.631 51.4048V23.4366C338.631 23.1769 338.84 22.9673 339.1 22.9673C339.36 22.9673 339.569 23.1769 339.569 23.4366V51.4048C339.569 51.6645 339.36 51.8741 339.1 51.8741Z" fill="#2727AF"/>
<path d="M360.36 14.2109C359.218 13.4694 358.448 12.2742 358.248 10.9257L357.92 8.62604C357.876 8.52905 357.788 8.46022 357.685 8.43832C357.572 8.43519 357.472 8.51654 357.45 8.62604L357.122 10.9257C356.9 12.2648 356.136 13.4538 355.01 14.2109L354.681 14.3987C354.622 14.4425 354.587 14.5113 354.587 14.5864C354.591 14.674 354.625 14.7553 354.681 14.821L355.01 15.0088C356.133 15.7472 356.9 16.9205 357.122 18.2471L357.45 20.5467C357.45 20.6875 357.544 20.7345 357.685 20.7345C357.798 20.7376 357.898 20.6562 357.92 20.5467L358.248 18.2471C358.448 16.9111 359.218 15.7315 360.36 15.0088L360.642 14.821C360.736 14.7804 360.792 14.6865 360.782 14.5864C360.782 14.4925 360.736 14.4456 360.642 14.3987L360.36 14.2109Z" fill="white"/>
<path d="M354.084 4.0383C353.208 3.47825 352.61 2.57403 352.441 1.55091L352.206 -0.185562C352.206 -0.288812 352.122 -0.373291 352.019 -0.373291C351.925 -0.373291 351.878 -0.279425 351.831 -0.185562L351.596 1.55091C351.443 2.58341 350.842 3.49389 349.954 4.0383L349.719 4.22603C349.672 4.22603 349.672 4.27296 349.672 4.36682C349.669 4.41688 349.685 4.47007 349.719 4.50762L349.954 4.64841C350.845 5.2116 351.446 6.13771 351.596 7.18273L351.831 8.91921C351.878 9.01307 351.925 9.06 352.019 9.06C352.113 9.06 352.206 9.01307 352.206 8.91921L352.441 7.18273C352.61 6.14397 353.205 5.22724 354.084 4.64841L354.318 4.50762C354.365 4.46069 354.412 4.41375 354.412 4.36682C354.412 4.27296 354.365 4.22603 354.318 4.22603L354.084 4.0383Z" fill="#EF913C"/>
<path d="M322.133 30.6989C321.241 30.1357 320.64 29.2096 320.49 28.1646L320.255 26.4281C320.208 26.3342 320.161 26.2404 320.068 26.2404C319.964 26.2404 319.88 26.3248 319.88 26.4281L319.645 28.1646C319.476 29.2033 318.882 30.1201 318.003 30.6989L317.768 30.8397C317.721 30.8397 317.674 30.9335 317.674 30.9805C317.674 31.0274 317.721 31.1213 317.768 31.1213L318.003 31.2621C318.882 31.8409 319.476 32.7576 319.645 33.7964L319.88 35.5329C319.88 35.6267 319.974 35.6736 320.068 35.6736C320.161 35.6736 320.208 35.6267 320.255 35.5329L320.49 33.7964C320.64 32.7514 321.241 31.8252 322.133 31.2621L322.367 31.1213C322.414 31.1213 322.414 31.0274 322.414 30.9805C322.414 30.9335 322.414 30.8397 322.367 30.8397L322.133 30.6989Z" fill="#FFF2A6"/>
<path d="M371.211 11.9355V15.5055C371.211 15.59 371.245 15.6557 371.286 15.64L375.503 13.8566C375.572 13.8284 375.572 13.6188 375.503 13.5907L371.286 11.8073C371.248 11.7854 371.211 11.8479 371.211 11.9355Z" fill="#91FFAD"/>
<path d="M371.08 23.9087C370.82 23.9087 370.61 23.6991 370.61 23.4394V11.6501C370.61 11.3904 370.82 11.1808 371.08 11.1808C371.339 11.1808 371.549 11.3904 371.549 11.6501V23.4394C371.549 23.6959 371.339 23.9087 371.08 23.9087Z" fill="#2727AF"/>
<mask id="mask0_231_355" style="mask-type:luminance" maskUnits="userSpaceOnUse" x="0" y="-51" width="432" height="108">
<path d="M10.4727 -50.2866H421.527C427.31 -50.2866 432 -45.8031 432 -40.2745V46.7058C432 52.2344 427.31 56.7179 421.527 56.7179H10.4727C4.68982 56.7179 0 52.2344 0 46.7058V-40.2745C0 -45.8031 4.68982 -50.2866 10.4727 -50.2866Z" fill="white"/>
</mask>
<g mask="url(#mask0_231_355)">
<path d="M430.091 29.2939V16.566C430.091 16.2781 429.857 16.0435 429.569 16.0435H427.294V-21.4144H429.372C429.622 -21.4144 429.854 -21.5552 429.976 -21.7742C432.322 -25.9949 430.633 -28.8327 429.988 -29.6775C429.86 -29.8464 429.66 -29.9403 429.45 -29.9403H427.294V-34.0202H428.249C428.324 -34.0202 428.386 -34.0828 428.38 -34.1579C428.308 -35.7035 427.031 -36.9363 425.467 -36.9363C423.903 -36.9363 422.626 -35.7035 422.554 -34.1579C422.551 -34.0828 422.614 -34.0202 422.686 -34.0202H423.64V-29.9372H421.484C421.275 -29.9372 421.074 -29.8402 420.946 -29.6744C420.301 -28.8296 418.612 -25.9918 420.958 -21.771C421.081 -21.552 421.309 -21.4112 421.562 -21.4112H423.64V16.0435H421.365C421.077 16.0435 420.843 16.2781 420.843 16.566V25.408H409.748C409.501 25.408 409.301 25.6082 409.301 25.8554V27.0881C409.301 27.4917 408.972 27.8203 408.569 27.8203H399.561C399.138 27.8203 398.747 28.0455 398.534 28.4116L394.514 35.3888C394.042 36.2085 393.169 36.7123 392.224 36.7123H381.855L380.563 31.603C380.516 31.4215 380.713 31.2776 380.872 31.3714L381.483 31.7281C381.648 31.8251 381.855 31.7062 381.855 31.5154V26.916C381.855 26.5593 381.686 26.2214 381.401 26.0087L371.076 18.2211L360.751 26.0087C360.467 26.2246 360.298 26.5593 360.298 26.916V31.5154C360.298 31.7062 360.504 31.8251 360.67 31.7281L361.28 31.3714C361.44 31.2776 361.634 31.4246 361.59 31.603L360.298 36.7123C359.156 36.7123 356.821 36.7123 353.937 36.7123C350.799 36.7123 348.615 39.0682 347.751 40.1915C347.47 40.5607 347.031 40.7734 346.568 40.7734H90C52.1886 40.7734 51.1753 33.6786 38 11.9993C24.8247 -9.68011 -4 -14.0007 -4 -14.0007V56.7177H419.078H420.846H430.091H432V29.2939H430.091Z" fill="#2727AF"/>
</g>
</g>
</g>
<defs>
<radialGradient id="paint0_radial_231_355" cx="0" cy="0" r="1" gradientUnits="userSpaceOnUse" gradientTransform="translate(202.882 -40.9053) scale(248.941 148.28)">
<stop stop-color="#3043E2"/>
<stop offset="0.3886" stop-color="#3243E2"/>
<stop offset="0.5286" stop-color="#3945E0"/>
<stop offset="0.6284" stop-color="#4447DE"/>
<stop offset="0.709" stop-color="#554BDB"/>
<stop offset="0.7781" stop-color="#6B4FD7"/>
<stop offset="0.8394" stop-color="#8755D2"/>
<stop offset="0.8948" stop-color="#A75BCC"/>
<stop offset="0.9457" stop-color="#CD63C4"/>
<stop offset="0.991" stop-color="#F66BBD"/>
<stop offset="1" stop-color="#FF6DBB"/>
</radialGradient>
<clipPath id="clip0_231_355">
<rect width="408" height="48" rx="4" fill="white"/>
</clipPath>
</defs>
</svg>
