<svg width="200" height="153" viewBox="0 0 200 153" fill="none" xmlns="http://www.w3.org/2000/svg">
<g clip-path="url(#clip0_1476_198764)">
<path d="M115.5 143.875C147.035 143.875 172.6 118.31 172.6 86.7748C172.6 55.2393 147.035 29.6748 115.5 29.6748C83.9644 29.6748 58.3999 55.2393 58.3999 86.7748C58.3999 118.31 83.9644 143.875 115.5 143.875Z" fill="url(#paint0_linear_1476_198764)"/>
<path d="M115.5 152.55C79.2249 152.55 49.7249 123.05 49.7249 86.775C49.7249 50.5 79.2249 21 115.5 21C151.775 21 181.275 50.5 181.275 86.775C181.275 123.05 151.775 152.55 115.5 152.55ZM115.5 25.1C81.4999 25.1 53.8249 52.775 53.8249 86.775C53.8249 120.775 81.4999 148.45 115.5 148.45C149.5 148.45 177.175 120.775 177.175 86.775C177.175 52.775 149.5 25.1 115.5 25.1Z" fill="#57F287"/>
<path d="M45.2749 73.2998C36.1249 78.2498 44.7749 92.9748 51.3999 103.725C58.0249 114.475 72.4249 121.125 87.4999 112.75L86.6999 90.3248C67.5499 75.3748 54.3999 68.3248 45.2749 73.2998Z" fill="url(#paint1_linear_1476_198764)"/>
<path d="M62.15 86.9749C62.3706 86.916 62.5594 86.7732 62.6761 86.5771C62.7929 86.3809 62.8284 86.1469 62.775 85.9249C62.7161 85.7043 62.5733 85.5155 62.3772 85.3988C62.181 85.282 61.947 85.2465 61.725 85.2999C61.65 85.3249 54.575 87.0249 43.625 89.5249C43.85 90.0499 44.1 90.5999 44.35 91.1249C55.1 88.6499 62.05 86.9749 62.15 86.9749Z" fill="#4199F0"/>
<path d="M70.1249 90.6499C70.0499 90.6999 63.3499 93.9749 50.0499 101.5L50.9249 102.95C64.1499 95.4749 70.7999 92.2249 70.8749 92.1999C70.9767 92.1507 71.0678 92.0819 71.143 91.9974C71.2181 91.913 71.276 91.8145 71.3131 91.7078C71.3502 91.601 71.366 91.4879 71.3594 91.375C71.3529 91.2622 71.3242 91.1517 71.2749 91.0499C71.2257 90.9481 71.1569 90.8571 71.0724 90.7819C70.988 90.7067 70.8896 90.6489 70.7828 90.6117C70.676 90.5746 70.5629 90.5589 70.4501 90.5654C70.3372 90.572 70.2267 90.6007 70.1249 90.6499Z" fill="#4199F0"/>
<path d="M59.2499 77.95C59.2638 77.7219 59.1879 77.4974 59.0384 77.3245C58.8889 77.1517 58.6777 77.0442 58.4499 77.025C58.3999 77.025 53.0499 76.575 42.6249 75.625C42.2714 76.1321 41.9935 76.6879 41.7999 77.275L58.3249 78.725H58.3999C58.6113 78.7203 58.8139 78.6393 58.9702 78.4968C59.1264 78.3543 59.2258 78.1601 59.2499 77.95Z" fill="#4199F0"/>
<path d="M41.3249 84.525C40.1967 84.525 39.0796 84.3024 38.0376 83.8699C36.9956 83.4374 36.0492 82.8035 35.2526 82.0046C34.456 81.2057 33.8249 80.2574 33.3955 79.2142C32.966 78.1709 32.7466 77.0532 32.7499 75.925V67.4C32.7499 66.9491 32.929 66.5167 33.2478 66.1979C33.5666 65.8791 33.999 65.7 34.4499 65.7C34.9008 65.7 35.3332 65.8791 35.652 66.1979C35.9708 66.5167 36.1499 66.9491 36.1499 67.4V75.925C36.1514 76.7091 36.3301 77.4827 36.6728 78.188C37.0155 78.8932 37.5132 79.5118 38.1288 79.9976C38.7443 80.4833 39.4618 80.8235 40.2274 80.9927C40.993 81.162 41.787 81.1559 42.5499 80.975L53.8999 78.275C55.7046 77.8465 57.3115 76.8206 58.4597 75.3638C59.6079 73.907 60.23 72.1049 60.2249 70.25V60.85C60.2756 60.4314 60.4778 60.0459 60.7933 59.7663C61.1088 59.4867 61.5158 59.3323 61.9374 59.3323C62.359 59.3323 62.766 59.4867 63.0815 59.7663C63.3971 60.0459 63.5993 60.4314 63.6499 60.85V70.25C63.6569 72.8777 62.7735 75.4304 61.1436 77.4916C59.5137 79.5528 57.2335 81.001 54.6749 81.6L43.3249 84.3C42.6689 84.4502 41.9979 84.5256 41.3249 84.525Z" fill="#1927BC"/>
<path d="M119.25 22.0748C116.15 22.4498 114.25 26.1248 119.3 38.4498L122.5 38.6248C125.725 25.7998 122.325 21.6998 119.25 22.0748Z" fill="white"/>
<path d="M136.35 33.1498C146.925 21.9498 143.4 16.4998 138.325 16.1748C132.025 15.7748 123.85 21.1998 121.3 35.6998L137.2 48.0998C143.1 47.1748 148.9 45.8998 152.925 43.2248C156.55 40.7748 156.075 35.1748 152.05 33.4248C148.475 31.8998 143.275 31.4498 136.35 33.1498Z" fill="white"/>
<path d="M138.675 94.875C138.675 94.875 140.65 90 146.65 71.675C151.675 56.325 144.4 37.7 121.15 35.975C106.225 34.85 96.3499 42.625 88.5749 71.05C86.1575 79.7489 81.5927 87.7007 75.2999 94.175C69.1749 100.475 66.3499 108.125 66.2749 115.725C71.8704 125.228 80.0972 132.909 89.9622 137.84C99.8271 142.77 110.908 144.74 121.868 143.51C132.828 142.281 143.198 137.906 151.725 130.913C160.253 123.919 166.574 114.607 169.925 104.1C170.025 103.525 170.05 103.225 170.05 103.225C170.05 103.225 155.825 98.85 138.675 94.875Z" fill="#66BCFF"/>
<path d="M118.325 69.5499C121.075 65.0249 120.625 58.6749 110.1 46.1999C99.175 33.2749 87.95 27.8249 80.525 33.5999C73.1 39.3749 82.125 51.7999 89.7 60.8499C77.225 68.1499 75.15 73.7499 77.125 79.4499C79.1 85.1499 87.65 86.1749 95.375 83.9999C103.1 81.8249 114.725 75.5249 118.325 69.5499Z" fill="#FFE75C"/>
<path d="M106.625 62.975C98.3999 50.175 90.2249 44.75 87.1749 43.45C84.1249 42.15 82.5999 44.075 83.9749 47.2C85.3499 50.325 90.5749 57.35 93.7749 61.5C87.3499 66.025 82.4999 68.95 82.4749 72.875C82.4249 76.375 89.3249 75.225 94.5749 71.825C98.7249 69.125 104.125 65.25 106.625 62.975Z" fill="#FF962A"/>
<path d="M133.85 94.15C181.725 67.6 190.925 64.525 196.825 79.25C202.725 93.975 201.225 109.35 185.45 121.775C169.675 134.2 163.625 128.8 147.35 121.7C127.475 113.05 125.25 98.925 133.85 94.15Z" fill="url(#paint2_linear_1476_198764)"/>
<path d="M78.7249 51.8999L29.3499 3.09988C27.6999 1.42488 25.7999 0.374882 23.7249 0.0748819C13.9499 -1.27512 3.67492 14.7249 0.774918 35.7999C-2.12508 56.8749 3.42492 75.0749 13.1999 76.4249C14.3113 76.5572 15.4374 76.4895 16.5249 76.2249L76.9749 61.8499C78.1499 61.5499 79.2749 59.5499 79.5999 57.0249C79.9249 54.4999 79.5249 52.7749 78.7249 51.8999Z" fill="white"/>
<path d="M32.3691 40.1406C35.0787 20.3602 30.6438 3.41662 22.4635 2.29607C14.2833 1.17551 5.45529 16.3023 2.74572 36.0827C0.0361437 55.863 4.47102 72.8066 12.6513 73.9271C20.8315 75.0477 29.6595 59.9209 32.3691 40.1406Z" fill="#7196FF"/>
<path d="M32.6749 20.1498L32.2499 20.0748C26.2499 19.2498 20.0249 28.2248 18.3999 40.1498C16.8249 51.5498 19.9999 61.4998 25.5749 63.0498C28.6749 57.0748 31.1499 49.0998 32.3999 40.1748C33.3999 32.8998 33.4249 25.9998 32.6749 20.1498Z" fill="black"/>
<path d="M127.175 57.9999C127.2 56.7999 128.2 55.8249 129.225 55.4249C130.203 55.0754 131.259 55.0061 132.275 55.2249C133.233 55.4046 134.139 55.7977 134.925 56.3749C135.712 56.9077 136.342 57.6414 136.75 58.4999C136.8 58.6048 136.829 58.7186 136.835 58.8348C136.841 58.951 136.824 59.0672 136.784 59.1767C136.745 59.2861 136.684 59.3865 136.605 59.472C136.526 59.5576 136.431 59.6266 136.325 59.6749C136.198 59.7353 136.058 59.7623 135.918 59.7536C135.778 59.7448 135.643 59.7006 135.525 59.6249L135.45 59.5749C134.35 58.9019 133.109 58.4913 131.825 58.3749C131.29 58.3292 130.75 58.3629 130.225 58.4749C129.701 58.5453 129.183 58.654 128.675 58.7999L128.325 58.8999C128.096 58.9633 127.852 58.9364 127.643 58.8247C127.433 58.713 127.275 58.5251 127.2 58.2999C127.179 58.2013 127.171 58.1006 127.175 57.9999Z" fill="black"/>
<path d="M133.85 65.6748C133.72 65.6758 133.592 65.6471 133.475 65.5907C133.358 65.5344 133.255 65.452 133.175 65.3498C131.4 63.0248 129.725 61.5498 126.05 60.3748C125.943 60.3404 125.844 60.2852 125.759 60.2125C125.674 60.1399 125.603 60.0511 125.552 59.9513C125.501 59.8514 125.47 59.7425 125.461 59.6308C125.452 59.519 125.465 59.4065 125.5 59.2998C125.534 59.1931 125.59 59.0943 125.662 59.0089C125.735 58.9235 125.824 58.8533 125.924 58.8022C126.023 58.7511 126.132 58.7202 126.244 58.7112C126.356 58.7023 126.468 58.7154 126.575 58.7498C130.675 60.0748 132.575 61.7748 134.525 64.2998C134.659 64.4807 134.719 64.7064 134.691 64.9299C134.663 65.1535 134.55 65.3576 134.375 65.4998C134.224 65.6134 134.039 65.6748 133.85 65.6748Z" fill="#339AFF"/>
<path d="M172.6 85.9245H172.775C172.875 85.8995 182.875 83.9245 197.75 81.8245C197.575 81.2995 197.375 80.7495 197.175 80.1995C182.425 82.2745 172.55 84.2245 172.425 84.2495C172.2 84.2727 171.993 84.3845 171.85 84.5603C171.707 84.7361 171.639 84.9615 171.663 85.187C171.686 85.4124 171.798 85.6194 171.974 85.7624C172.149 85.9054 172.375 85.9727 172.6 85.9495V85.9245Z" fill="#66BCFF"/>
<path d="M141.625 106.549C141.594 106.321 141.474 106.115 141.292 105.974C141.109 105.834 140.879 105.771 140.65 105.799C140.429 105.831 140.228 105.948 140.093 106.126C139.957 106.303 139.897 106.528 139.925 106.749C139.925 106.824 140.55 111.749 141.3 118.574L143.125 119.624C142.325 112.174 141.625 106.599 141.625 106.549Z" fill="#66BCFF"/>
<path d="M149.75 101.924C149.601 101.757 149.393 101.654 149.17 101.635C148.947 101.617 148.725 101.684 148.55 101.824C148.462 101.894 148.388 101.982 148.335 102.081C148.282 102.181 148.249 102.29 148.24 102.403C148.231 102.515 148.244 102.628 148.281 102.735C148.317 102.842 148.374 102.941 148.45 103.024C148.55 103.174 158.825 115.474 167.675 129.149C168.358 129.199 169.043 129.199 169.725 129.149C160.65 115.024 149.875 102.074 149.75 101.924Z" fill="#66BCFF"/>
<path d="M190.8 116.875C178.85 108.15 162.5 99.1995 162.325 99.0745C162.122 98.9673 161.886 98.9439 161.666 99.0093C161.446 99.0748 161.261 99.2239 161.15 99.4245C161.094 99.5222 161.059 99.6303 161.046 99.7422C161.033 99.8541 161.044 99.9674 161.077 100.075C161.109 100.183 161.164 100.283 161.237 100.369C161.309 100.455 161.399 100.525 161.5 100.575C161.675 100.7 177.775 109.5 189.6 118.125C190.025 117.7 190.425 117.3 190.8 116.875Z" fill="#66BCFF"/>
<path d="M168.475 93.2996C168.254 93.2995 168.042 93.3856 167.883 93.5396C167.724 93.6937 167.632 93.9035 167.625 94.1246C167.618 94.237 167.635 94.3497 167.673 94.4557C167.711 94.5616 167.771 94.6585 167.848 94.7405C167.926 94.8225 168.019 94.8878 168.122 94.9323C168.226 94.9769 168.337 94.9998 168.45 94.9996C168.625 94.9996 182.9 95.2746 199.925 96.6746L200 94.9496C182.925 93.5496 168.65 93.2996 168.475 93.2996Z" fill="#66BCFF"/>
<path d="M139.9 118.975C139.742 118.968 139.588 118.926 139.45 118.85C136.2 116.775 132.175 113.85 129.75 109.35C129.642 109.154 129.615 108.923 129.676 108.708C129.737 108.493 129.88 108.31 130.075 108.2C130.275 108.09 130.509 108.063 130.728 108.124C130.948 108.185 131.135 108.328 131.25 108.525C133.5 112.675 137.3 115.45 140.375 117.4C140.471 117.458 140.554 117.536 140.619 117.627C140.685 117.719 140.73 117.823 140.754 117.933C140.777 118.043 140.778 118.157 140.756 118.267C140.733 118.378 140.689 118.482 140.625 118.575C140.548 118.698 140.441 118.799 140.314 118.869C140.188 118.939 140.045 118.975 139.9 118.975Z" fill="black"/>
<path d="M86.4249 105.825C86.3305 105.832 86.2357 105.815 86.1499 105.775C86.0292 105.739 85.9187 105.675 85.8275 105.588C85.7363 105.501 85.6669 105.394 85.6249 105.275C85.1999 104.175 84.9999 102.5 85.0749 100.625C83.6874 101.136 82.3417 101.755 81.0499 102.475C80.9384 102.542 80.8132 102.584 80.6834 102.597C80.5536 102.61 80.4226 102.594 80.2999 102.55C80.1855 102.5 80.0823 102.429 79.9963 102.338C79.9104 102.248 79.8436 102.141 79.7999 102.025C79.3249 100.625 78.7999 97.5748 79.8249 95.0748C79.8676 94.9714 79.9302 94.8774 80.0092 94.7982C80.0882 94.7189 80.1821 94.6561 80.2854 94.6131C80.3887 94.5702 80.4994 94.548 80.6113 94.5479C80.7232 94.5477 80.834 94.5696 80.9374 94.6123C81.0408 94.655 81.1348 94.7176 81.214 94.7966C81.2933 94.8756 81.3561 94.9694 81.3991 95.0727C81.442 95.176 81.4642 95.2868 81.4643 95.3987C81.4645 95.5106 81.4426 95.6214 81.3999 95.7248C80.7749 97.2748 80.8999 99.1748 81.1499 100.475C82.6286 99.7164 84.1671 99.0809 85.7499 98.5748C85.8803 98.5253 86.0218 98.5131 86.1587 98.5396C86.2956 98.5661 86.4224 98.6302 86.5249 98.7248C86.6357 98.8085 86.7236 98.9188 86.7804 99.0456C86.8373 99.1723 86.8611 99.3113 86.8499 99.4498C86.7042 100.874 86.7462 102.311 86.9749 103.725C88.6037 102.889 90.3234 102.243 92.0999 101.8C92.21 101.774 92.324 101.77 92.4355 101.789C92.5469 101.808 92.6534 101.849 92.7489 101.91C92.8443 101.97 92.9267 102.049 92.9913 102.142C93.0559 102.235 93.1013 102.339 93.1249 102.45C93.1711 102.668 93.1321 102.896 93.0159 103.086C92.8997 103.277 92.7152 103.416 92.4999 103.475C90.5259 103.973 88.6262 104.73 86.8499 105.725C86.7198 105.796 86.573 105.83 86.4249 105.825Z" fill="#4FA8FF"/>
<path d="M106.5 101.825H106.4C106.28 101.814 106.165 101.776 106.061 101.716C105.958 101.656 105.868 101.573 105.8 101.475C104.755 99.8018 104.192 97.8724 104.175 95.8998C104.181 95.6721 104.276 95.4559 104.44 95.2972C104.603 95.1385 104.822 95.0497 105.05 95.0498C105.275 95.0498 105.492 95.1394 105.651 95.2988C105.81 95.4582 105.9 95.6744 105.9 95.8998C105.911 97.2151 106.21 98.512 106.775 99.6998C108.2 98.6998 109.95 97.8998 111.25 97.6498C111.362 97.6283 111.477 97.6294 111.588 97.6532C111.699 97.6769 111.805 97.7228 111.898 97.7881C111.991 97.8534 112.071 97.9368 112.131 98.0333C112.191 98.1297 112.232 98.2374 112.25 98.3498C112.287 98.5748 112.234 98.8052 112.103 98.992C111.972 99.1788 111.774 99.3072 111.55 99.3498C110.45 99.5248 108.55 100.4 107.05 101.65C106.892 101.769 106.698 101.83 106.5 101.825Z" fill="#4FA8FF"/>
<path d="M89.8 74.1499C91.4749 73.559 93.0769 72.7789 94.575 71.8249C98.725 69.1249 104.125 65.2499 106.625 62.9749C105.575 61.3499 104.55 59.8499 103.5 58.4749C101.706 59.2657 100.011 60.2642 98.45 61.4499C93.375 65.2499 89.2 70.9249 89.8 74.1499Z" fill="#FF5D12"/>
<path d="M21.65 2.2499C21.9349 2.25001 22.2194 2.27511 22.5 2.3249C30.7 3.4499 35.125 20.3999 32.4 40.1749C29.775 59.2499 21.45 73.9999 13.5 73.9999C13.215 73.9998 12.9305 73.9747 12.65 73.9249C4.47495 72.7999 0.0499501 55.8499 2.77495 36.0749C5.39995 16.9999 13.7249 2.2749 21.65 2.2499ZM21.65 0.899902C12.8499 0.899902 4.14995 15.9499 1.39995 35.8999C-1.45005 56.7249 3.39995 74.0499 12.45 75.2999L13.5 75.3499C22.2999 75.3499 31 60.2999 33.75 40.3499C36.625 19.5249 31.775 2.2249 22.7 0.974902C22.3522 0.925092 22.0013 0.900029 21.65 0.899902Z" fill="white"/>
</g>
<defs>
<linearGradient id="paint0_linear_1476_198764" x1="143.87" y1="111.907" x2="86.2574" y2="60.8798" gradientUnits="userSpaceOnUse">
<stop stop-color="#EB459F"/>
<stop offset="1" stop-color="#FF78B9"/>
</linearGradient>
<linearGradient id="paint1_linear_1476_198764" x1="53.6124" y1="74.2373" x2="74.0524" y2="104.41" gradientUnits="userSpaceOnUse">
<stop stop-color="#66BCFF"/>
<stop offset="0.3" stop-color="#60B7FD"/>
<stop offset="0.69" stop-color="#51A9F8"/>
<stop offset="1" stop-color="#3F99F2"/>
</linearGradient>
<linearGradient id="paint2_linear_1476_198764" x1="127.12" y1="99.835" x2="203.038" y2="99.835" gradientUnits="userSpaceOnUse">
<stop stop-color="#66BCFF"/>
<stop offset="1" stop-color="#8CD9FF"/>
</linearGradient>
<clipPath id="clip0_1476_198764">
<rect width="200" height="152.55" fill="white"/>
</clipPath>
</defs>
</svg>
