<svg width="25" height="25" viewBox="0 0 25 25" fill="none" xmlns="http://www.w3.org/2000/svg">
  <path d="M19.06 7.55999C18.92 7.24999 18.81 7.05999 18.81 7.05999C18.81 7.05999 19.11 5.22999 17.81 4.69999C17.4166 4.57682 16.9984 4.55533 16.5944 4.63752C16.1905 4.71971 15.814 4.9029 15.5 5.16999C15.436 5.22058 15.3599 5.25363 15.2792 5.26591C15.1986 5.27818 15.1161 5.26925 15.04 5.23999C13.8609 4.8912 12.6138 4.83967 11.41 5.08999C11.3392 5.10494 11.266 5.10464 11.1953 5.08913C11.1246 5.07361 11.058 5.04322 11 4.99999C10.7141 4.65654 10.3214 4.41872 9.88463 4.32447C9.44782 4.23022 8.99203 4.28497 8.58997 4.47999C8.27043 4.68543 8.01425 4.97563 7.85003 5.31819C7.68581 5.66075 7.62001 6.04221 7.65997 6.41999C7.65997 6.41999 6.36997 5.60999 4.09997 6.59999C1.82997 7.58999 2.09997 10.08 3.03997 10.67C3.97997 11.26 5.44997 8.89999 6.15997 9.20999C6.86997 9.51999 6.64997 9.58999 6.33997 11.04C5.84163 13.4779 6.03562 16.0066 6.89997 18.34C7.99997 21 9.58997 20.83 10.18 20.78C10.77 20.73 11.8 20 11.6 17.5H11.71C12.4879 17.5557 13.2697 17.5221 14.04 17.4C14.04 17.4 14.7 19.02 16.04 18.71C17.38 18.4 17.9 14.79 17.9 14.79L17.96 14.64L18.02 14.48L18.1 14.42C18.71 15.6 22.36 15.54 22.64 12.01C23 8.21999 19.06 7.55999 19.06 7.55999Z" fill="#CC846D"/>
  <path d="M13.51 17.46L14.02 17.39C14.1534 17.6967 14.3396 17.9776 14.57 18.22C15.2034 18.186 15.816 17.9824 16.3437 17.6306C16.8715 17.2787 17.295 16.7916 17.57 16.22C17.65 15.91 17.72 15.61 17.77 15.37C16.39 17 13.51 17.46 13.51 17.46Z" fill="#7B583C"/>
  <path d="M9.67999 13.28C9.67999 13.28 7.67999 12.17 7.53999 10.99C7.29173 9.81044 7.3748 8.5852 7.77999 7.44997L7.64999 6.71997C7.28422 7.00528 6.87591 7.23137 6.43999 7.38997C5.81259 7.71259 5.27879 8.19129 4.88999 8.77997C4.50999 9.23997 2.70999 10.65 2.37999 8.61997C2.27836 8.9853 2.28269 9.37199 2.39246 9.73495C2.50224 10.0979 2.71293 10.4222 2.99999 10.67C3.99999 11.25 5.40999 8.89997 6.11999 9.20997C6.61999 9.42997 6.65999 9.52997 6.52999 10.08C6.66503 10.4285 6.7427 10.7966 6.75999 11.17C6.85999 12.55 6.87999 14.43 7.56999 14.42C8.25999 14.41 9.89999 14.83 11.67 17.51C11.536 15.9068 10.8297 14.4053 9.67999 13.28Z" fill="#7B583C"/>
  <path d="M9.67999 13.28C10.8806 14.3694 11.5999 15.8908 11.68 17.51C11.68 17.51 15.58 17.76 16.96 16.14C18.34 14.52 18.03 14.14 18.03 14.14L18.11 13C17.5498 13.4823 16.8943 13.8411 16.1861 14.0531C15.4779 14.265 14.733 14.3253 14 14.23C12.5111 14.2045 11.0423 13.8815 9.67999 13.28Z" fill="#F0C8BB"/>
  <path d="M15 11.69C13.45 11.69 12.19 12.61 12.19 13.74C12.1754 13.8596 12.1754 13.9804 12.19 14.1C13.0468 14.2319 13.9161 14.2622 14.78 14.19C15.8056 14.1369 16.8035 13.8386 17.69 13.32C17.4645 12.8041 17.0849 12.3705 16.6033 12.0787C16.1218 11.7869 15.5617 11.6511 15 11.69Z" fill="#F0C8BB"/>
  <path d="M14.99 12.48C15.3711 12.48 15.68 12.2785 15.68 12.03C15.68 11.7815 15.3711 11.58 14.99 11.58C14.6089 11.58 14.3 11.7815 14.3 12.03C14.3 12.2785 14.6089 12.48 14.99 12.48Z" fill="#010100"/>
  <path d="M9.84997 5.54997C9.87282 5.53221 9.89131 5.50946 9.90402 5.48347C9.91674 5.45747 9.92335 5.42891 9.92335 5.39997C9.92335 5.37103 9.91674 5.34248 9.90402 5.31648C9.89131 5.29048 9.87282 5.26774 9.84997 5.24997C9.68997 5.12997 9.38997 5.02997 8.91997 5.32997C8.75223 5.40493 8.61836 5.53961 8.54443 5.70781C8.4705 5.87601 8.46178 6.0657 8.51997 6.23997C8.53114 6.26794 8.54847 6.29302 8.57068 6.31335C8.59289 6.33368 8.61941 6.34873 8.64825 6.35739C8.67709 6.36604 8.70751 6.36807 8.73725 6.36332C8.76698 6.35857 8.79526 6.34718 8.81997 6.32997L9.84997 5.54997Z" fill="#F0C8BB"/>
  <path d="M16.54 5.94001C16.509 5.92459 16.4821 5.90209 16.4615 5.87433C16.4408 5.84656 16.427 5.81433 16.4212 5.78023C16.4153 5.74613 16.4176 5.71114 16.4278 5.67809C16.4381 5.64503 16.4559 5.61486 16.48 5.59001C16.5964 5.46169 16.7536 5.37764 16.925 5.35212C17.0963 5.3266 17.2713 5.36118 17.42 5.45001C17.5744 5.52186 17.7037 5.63845 17.7911 5.78466C17.8785 5.93088 17.9199 6.09996 17.91 6.27001C17.9083 6.3058 17.8978 6.34063 17.8795 6.37147C17.8613 6.40231 17.8358 6.42822 17.8052 6.44695C17.7747 6.46567 17.74 6.47665 17.7042 6.47893C17.6685 6.48121 17.6327 6.47471 17.6 6.46001L16.54 5.94001Z" fill="#F0C8BB"/>
  <path d="M12.83 9.69999C12.83 9.4128 12.5972 9.17999 12.31 9.17999C12.0228 9.17999 11.79 9.4128 11.79 9.69999V10.29C11.79 10.5772 12.0228 10.81 12.31 10.81C12.5972 10.81 12.83 10.5772 12.83 10.29V9.69999Z" fill="#010100"/>
  <path d="M17.33 9.69999C17.33 9.4128 17.0972 9.17999 16.81 9.17999C16.5228 9.17999 16.29 9.4128 16.29 9.69999V10.29C16.29 10.5772 16.5228 10.81 16.81 10.81C17.0972 10.81 17.33 10.5772 17.33 10.29V9.69999Z" fill="#010100"/>
  <path d="M19.15 7.44C19.06 7.24 19 7.1 19 7C19 6.7 19.17 5.06 17.89 4.55C17.4761 4.4151 17.0346 4.38839 16.6075 4.47241C16.1804 4.55643 15.7819 4.74839 15.45 5.03C15.4016 5.06521 15.3454 5.08816 15.2862 5.09687C15.2269 5.10558 15.1665 5.09979 15.11 5.08C13.8897 4.74044 12.6037 4.71294 11.37 5C11.3157 5.00653 11.2606 5.00096 11.2088 4.98366C11.1569 4.96637 11.1095 4.9378 11.07 4.9C10.7664 4.52881 10.3455 4.27208 9.87654 4.1721C9.40757 4.07213 8.91854 4.13487 8.48999 4.35C8.17469 4.54248 7.91603 4.81509 7.74036 5.14006C7.5647 5.46504 7.47831 5.83077 7.48999 6.2C6.92331 6.01649 6.3252 5.95023 5.73209 6.00524C5.13898 6.06025 4.56326 6.23539 4.03999 6.52C3.52744 6.71289 3.08132 7.04938 2.755 7.4892C2.42868 7.92901 2.236 8.45353 2.19999 9C2.17022 9.34032 2.22811 9.6826 2.36816 9.9942C2.5082 10.3058 2.72573 10.5763 2.99999 10.78C3.62999 11.15 4.35999 10.53 4.99999 9.99C5.43999 9.62 5.88999 9.23 6.12999 9.34C6.57999 9.53 6.57999 9.53 6.39999 10.26C6.39999 10.46 6.28999 10.71 6.22999 11.02C5.71977 13.4812 5.9174 16.0365 6.79999 18.39C7.79999 20.65 9.02999 20.94 9.79999 20.94H10.19C10.85 20.89 11.9 20.13 11.75 17.68C12.5021 17.7182 13.2562 17.678 14 17.56C14.1494 17.9176 14.3911 18.2291 14.7003 18.4628C15.0095 18.6965 15.3752 18.8439 15.76 18.89C15.8796 18.9036 16.0004 18.9036 16.12 18.89C17.54 18.57 18.06 15.01 18.12 14.89C18.12 14.83 18.17 14.78 18.19 14.72C18.3891 14.924 18.6295 15.083 18.8951 15.1865C19.1607 15.29 19.4454 15.3355 19.73 15.32C20.4648 15.3266 21.1765 15.0633 21.73 14.58C22.0703 14.2428 22.3395 13.8407 22.5216 13.3975C22.7037 12.9543 22.7949 12.4791 22.79 12C23.08 8.43 19.68 7.55 19.15 7.44ZM8.61999 4.55C8.86859 4.41439 9.14682 4.34225 9.43 4.34C9.70529 4.3512 9.9753 4.41915 10.2231 4.53961C10.4709 4.66007 10.6911 4.83043 10.87 5.04C10.9386 5.11164 11.0236 5.16548 11.1177 5.19685C11.2118 5.22821 11.3121 5.23616 11.41 5.22C12.6006 4.97138 13.8343 5.02293 15 5.37C15.0968 5.40235 15.2 5.41106 15.3009 5.39541C15.4018 5.37975 15.4975 5.34018 15.58 5.28C15.8731 5.02237 16.2282 4.84542 16.6104 4.76653C16.9926 4.68763 17.3888 4.70951 17.76 4.83C18.97 5.31 18.7 7.02 18.7 7.03C18.6893 7.05904 18.6893 7.09096 18.7 7.12C19.1761 7.98584 19.4592 8.94443 19.53 9.93C19.5127 10.9552 19.0924 11.9324 18.36 12.65C17.3742 13.5092 16.1175 13.9942 14.81 14.02C10.99 14.34 8.2 12.69 7.70999 10.92C7.44287 9.78479 7.51237 8.59634 7.90999 7.5C7.9199 7.47082 7.9199 7.43918 7.90999 7.41C7.90999 7.41 7.29999 5.28 8.61999 4.55ZM16.02 18.55C15.7662 18.6049 15.5021 18.5871 15.258 18.4987C15.0139 18.4102 14.7997 18.2547 14.64 18.05C14.4786 17.8739 14.3439 17.6751 14.24 17.46C14.2932 17.4647 14.3468 17.4647 14.4 17.46C15.6771 17.2694 16.831 16.5921 17.62 15.57C17.36 16.76 16.83 18.41 16 18.59L16.02 18.55ZM17.9 14.4C16.78 17.86 11.67 17.33 11.62 17.33C11.6026 17.3226 11.5839 17.3187 11.565 17.3187C11.5461 17.3187 11.5274 17.3226 11.51 17.33C11.5012 17.347 11.4966 17.3659 11.4966 17.385C11.4966 17.4041 11.5012 17.423 11.51 17.44C11.75 20.44 10.27 20.57 10.21 20.57H10.16C9.55999 20.62 8.15999 20.75 7.05999 18.21C6.20302 15.9026 6.01243 13.4006 6.50999 10.99L6.68999 10.24C6.86999 9.5 6.91999 9.3 6.25999 9.01C5.85999 8.84 5.38999 9.24 4.83999 9.7C4.28999 10.16 3.60999 10.7 3.14999 10.47C2.92264 10.3015 2.74123 10.0786 2.62242 9.82177C2.50361 9.56493 2.4512 9.28236 2.46999 9C2.50294 8.49778 2.67984 8.01569 2.97955 7.61136C3.27925 7.20702 3.68907 6.89757 4.15999 6.72C4.66716 6.4447 5.22627 6.27847 5.80146 6.23198C6.37664 6.18548 6.9552 6.25974 7.49999 6.45C7.50487 6.78786 7.5519 7.12379 7.63999 7.45C7.21645 8.58509 7.13646 9.81975 7.40999 11C7.88999 12.73 10.41 14.34 13.84 14.34C14.15 14.34 14.47 14.34 14.79 14.34C15.9241 14.301 17.0265 13.9554 17.98 13.34C17.8784 13.6182 17.8509 13.918 17.9 14.21C17.901 14.286 17.918 14.361 17.95 14.43C17.95 14.43 17.91 14.41 17.9 14.44V14.4ZM22.52 12C22.5347 12.3853 22.4722 12.7697 22.336 13.1305C22.1999 13.4913 21.9929 13.8212 21.7273 14.1007C21.4618 14.3803 21.1429 14.6039 20.7896 14.7583C20.4362 14.9128 20.0556 14.9949 19.67 15C18.84 15 18.21 14.65 18.16 14.16C18.1288 13.9311 18.1474 13.6982 18.2148 13.4773C18.2821 13.2563 18.3964 13.0526 18.55 12.88C18.5547 12.8637 18.5547 12.8463 18.55 12.83C18.63 12.75 18.72 12.69 18.79 12.61C19.4308 11.8834 19.7862 10.9488 19.79 9.98C19.7571 9.229 19.5877 8.49028 19.29 7.8C19.864 7.95076 20.4084 8.19758 20.9 8.53C21.4666 8.89991 21.9186 9.42085 22.2048 10.034C22.4911 10.6471 22.6002 11.3281 22.52 12Z" fill="black"/>
</svg>