<svg fill="none" height="435" viewBox="0 0 815 435" width="815" xmlns="http://www.w3.org/2000/svg" xmlns:xlink="http://www.w3.org/1999/xlink"><linearGradient id="a" gradientUnits="userSpaceOnUse" x1="36.6205" x2="714.101" y1="-64.4997" y2="451.153"><stop offset="0" stop-color="#ff16a6"/><stop offset=".42" stop-color="#fe4b72"/><stop offset=".64" stop-color="#fe803f"/><stop offset=".82" stop-color="#feb44e"/><stop offset="1" stop-color="#fee75c"/></linearGradient><clipPath id="b"><path d="m0 0h815v435h-815z"/></clipPath><mask id="c" height="435" maskUnits="userSpaceOnUse" width="815" x="0" y="0"><path d="m0 0h815v435h-815z" fill="#fff"/></mask><g clip-path="url(#b)"><g mask="url(#c)"><g opacity=".99"><path d="m770.581 433.057h-726.9785c-22.961 0-41.74703-18.787-41.74703-41.748v-348.4487c0-22.961 18.78603-41.748 41.74703-41.748h726.9785c22.962 0 41.749 18.787 41.749 41.748v348.4487c0 22.961-18.787 41.748-41.749 41.748z" fill="url(#a)"/><path d="m458.025 350.102h-371.285c-4.3201 0-7.822-3.502-7.822-7.822v-19.458c0-4.32 3.5019-7.822 7.822-7.822h371.285c4.32 0 7.822 3.502 7.822 7.822v19.458c0 4.32-3.502 7.822-7.822 7.822z" fill="#d80090"/><path d="m430.466 325.701h-316.165v-199.43h316.165z" fill="#d80090"/><path d="m390.349 300.396h-235.931v-148.82h235.931z" fill="#7f005b"/><path d="m441.607 154.917h-338.447c-2.406 0-4.3553-1.949-4.3553-4.355v-21.274c0-2.406 1.9493-4.355 4.3553-4.355h338.447c2.406 0 4.355 1.949 4.355 4.355v21.274c0 2.406-1.949 4.355-4.355 4.355z" fill="#7f005b"/><path d="m458.025 136.694h-371.285c-4.3201 0-7.822-3.502-7.822-7.822v-19.459c0-4.32 3.5019-7.821 7.822-7.821h371.285c4.32 0 7.822 3.501 7.822 7.821v19.459c0 4.32-3.502 7.822-7.822 7.822z" fill="#d80090"/><path d="m364.343 201.374c-24.534-21.055-56.426-33.779-91.292-33.779-36.874 0-70.422 14.231-95.457 37.498" stroke="#e557c4" stroke-miterlimit="10" stroke-width=".974"/><path d="m364.307 298.454v-53.055c-19.786-29.513-53.446-48.941-91.647-48.941-40.112 0-75.218 21.421-94.512 53.445v50.11" stroke="#e557c4" stroke-miterlimit="10" stroke-width=".974"/><path d="m364.309 246.869v-89.805" opacity=".6" stroke="#e557c4" stroke-miterlimit="10" stroke-width=".974"/><path d="m178.176 204.26v-47.196" opacity=".6" stroke="#e557c4" stroke-miterlimit="10" stroke-width=".974"/><path d="m178.176 249.175v-44.914" opacity=".6" stroke="#e557c4" stroke-miterlimit="10" stroke-width=".974"/><path d="m114.297 156.209h316.202" stroke="#d80090" stroke-miterlimit="10" stroke-width="2.565"/><path d="m113.152 315.493h317.571" stroke="#7f005b" stroke-miterlimit="10" stroke-width="2.57"/><path d="m273.051 167.595v28.863" opacity=".6" stroke="#e557c4" stroke-miterlimit="10" stroke-width=".974"/><path d="m296.67 169.689-3.537 29.13" opacity=".6" stroke="#e557c4" stroke-miterlimit="10" stroke-width=".974"/><path d="m319.507 176.384-8.655 28.343" opacity=".6" stroke="#e557c4" stroke-miterlimit="10" stroke-width=".974"/><path d="m339.197 184.652-11.806 25.193" opacity=".6" stroke="#e557c4" stroke-miterlimit="10" stroke-width=".974"/><path d="m358.099 195.678-16.138 24.406" opacity=".6" stroke="#e557c4" stroke-miterlimit="10" stroke-width=".974"/><path d="m363.609 221.272-8.656 11.411" opacity=".6" stroke="#e557c4" stroke-miterlimit="10" stroke-width=".974"/><path d="m249.402 169.689 3.537 29.13" opacity=".6" stroke="#e557c4" stroke-miterlimit="10" stroke-width=".974"/><path d="m226.562 176.384 8.657 28.343" opacity=".6" stroke="#e557c4" stroke-miterlimit="10" stroke-width=".974"/><path d="m206.875 184.652 11.806 25.193" opacity=".6" stroke="#e557c4" stroke-miterlimit="10" stroke-width=".974"/><path d="m187.973 195.678 16.138 24.406" opacity=".6" stroke="#e557c4" stroke-miterlimit="10" stroke-width=".974"/><path d="m178.246 217.001 12.871 15.683" opacity=".6" stroke="#e557c4" stroke-miterlimit="10" stroke-width=".974"/><path d="m179.543 300.442h183.841zm184.097-1.936v-51.439-1.319c-12.884-19.163-31.181-33.441-52.11-41.369l-.246.805-.928-.283.262-.858c-11.958-4.408-24.753-6.76-37.882-6.76-6.461 0-12.883.584-19.195 1.705l.013.106-.965.116-.006-.048c-5.805 1.084-11.509 2.635-17.055 4.635l.338 1.104-.929.283-.324-1.06c-5.71 2.117-11.248 4.708-16.542 7.766-16.012 9.248-29.528 22.503-39.094 38.336v49.835" fill="#3f0331"/><path d="m221.066 300.312v-8.255" stroke="#000" stroke-miterlimit="10" stroke-width="3.896"/><path d="m318.414 300.312v-8.255" stroke="#000" stroke-miterlimit="10" stroke-width="3.896"/><path d="m213.844 292.4h111.796" stroke="#000" stroke-miterlimit="10" stroke-width="3.896"/><path d="m281.989 239.284c-5.014-3.728-8.508-8.304-10.733-11.893-.586-.945-1.08-1.813-1.493-2.587-.413.774-.908 1.642-1.494 2.587-2.225 3.589-5.719 8.165-10.733 11.893-9.806 7.292-22.879 12.823-20.868 29.669s15.337 21.371 15.337 21.371h17.412.691 17.412s13.326-4.525 15.337-21.371-11.062-22.377-20.868-29.669z" fill="#e557c4"/><path d="m277.638 249.842c-3.064-2.439-5.199-5.432-6.559-7.779-.358-.618-.66-1.187-.913-1.693-.253.506-.554 1.075-.912 1.693-1.36 2.347-3.495 5.34-6.559 7.779-5.992 4.77-13.981 8.387-12.752 19.406s9.372 13.98 9.372 13.98h10.64.422 10.641s8.143-2.961 9.372-13.98-6.76-14.636-12.752-19.406z" fill="#fff" opacity=".36"/><path d="m246.75 254.923c-3.484-2.591-5.912-5.77-7.458-8.264-.407-.657-.751-1.26-1.038-1.798-.287.538-.631 1.141-1.038 1.798-1.546 2.494-3.974 5.673-7.458 8.264-6.814 5.067-15.899 8.911-14.501 20.617s10.658 14.851 10.658 14.851h12.099.48 12.1s9.26-3.145 10.658-14.851-7.688-15.55-14.502-20.617z" fill="#e557c4"/><path d="m243.728 262.261c-2.129-1.695-3.613-3.775-4.558-5.406-.249-.43-.458-.824-.634-1.176-.176.352-.385.746-.634 1.176-.945 1.631-2.429 3.711-4.558 5.406-4.164 3.314-9.716 5.829-8.862 13.486s6.513 9.714 6.513 9.714h7.394.294 7.394s5.658-2.057 6.512-9.714-4.697-10.172-8.861-13.486z" fill="#fff" opacity=".36"/><path d="m311.25 254.923c-3.484-2.591-5.912-5.77-7.458-8.264-.407-.657-.751-1.26-1.038-1.798-.287.538-.631 1.141-1.038 1.798-1.546 2.494-3.974 5.673-7.458 8.264-6.814 5.067-15.899 8.911-14.501 20.617s10.657 14.851 10.657 14.851h12.1.48 12.1s9.26-3.145 10.658-14.851-7.688-15.55-14.502-20.617z" fill="#e557c4"/><path d="m308.228 262.261c-2.129-1.695-3.613-3.775-4.558-5.406-.249-.43-.458-.824-.634-1.176-.176.352-.386.746-.635 1.176-.945 1.631-2.428 3.711-4.557 5.406-4.164 3.314-9.716 5.829-8.862 13.486s6.513 9.714 6.513 9.714h7.394.293 7.394s5.659-2.057 6.513-9.714-4.697-10.172-8.861-13.486z" fill="#fff" opacity=".36"/><path d="m812.334 371.513h-810.54884v-20.284h810.54884z" fill="#7f005b" opacity=".32"/><g stroke-miterlimit="10"><path d="m36.6992 371.88v60.537" stroke="#fff"/><path d="m73.8984 371.88v60.537" stroke="#fff"/><path d="m111.098 371.88v60.537" stroke="#fff"/><path d="m148.293 371.88v60.537" stroke="#fff"/><path d="m185.492 371.88v60.537" stroke="#fff"/><path d="m222.691 371.88v60.537" stroke="#fff"/><path d="m259.891 371.88v60.537" stroke="#fff"/><path d="m297.09 371.88v60.537" stroke="#fff"/><path d="m334.289 371.88v60.537" stroke="#fff"/><path d="m371.484 371.88v60.537" stroke="#fff"/><path d="m408.684 371.88v60.537" stroke="#fff"/><path d="m445.883 371.88v60.537" stroke="#fff"/><path d="m483.082 371.88v60.537" stroke="#fff"/><path d="m520.281 371.88v60.537" stroke="#fff"/><path d="m557.48 371.88v60.537" stroke="#fff"/><path d="m594.68 371.88v60.537" stroke="#fff"/><path d="m631.875 371.88v60.537" stroke="#fff"/><path d="m669.074 371.88v60.537" stroke="#fff"/><path d="m706.273 371.88v60.537" stroke="#fff"/><path d="m743.473 371.88v60.537" stroke="#fff"/><path d="m780.672 371.88v60.537" stroke="#fff"/></g></g></g><path d="m606.612 267.703s-38.35 0-76.7 0c-14.431 0-24.42 4.637-31.265 10.421-9.051 7.649-14.057 19.06-14.057 30.91v79.777c0 22.648 18.359 41.008 41.007 41.008h121.523c22.648 0 41.007-18.36 41.007-41.008v-79.809c0-11.351-4.577-22.332-12.994-29.948-6.861-6.209-17.131-11.351-32.329-11.351-38.349 0-76.699 0-76.699 0" fill="#698eff"/><path d="m482.568 375.945s36.121-10.139 36.121-36.121 0-57.15 0-57.15h23.771v29.267s1.267 9.505 9.505 9.505h40.869l1.026 111.489h-69.188s-48.632 3.001-42.104-56.99z" fill="#fff"/><path d="m686.265 375.945s-36.122-10.139-36.122-36.121 0-57.15 0-57.15h-23.77v29.267s-1.268 9.505-9.506 9.505-40.868 0-40.868 0l-1.026 111.489h69.188s48.632 3.001 42.104-56.99z" fill="#fff"/><path d="m652.734 254.208c3.851 22.573-20.737 45.6-54.92 51.431-34.183 5.832-65.015-7.74-68.866-30.313-3.851-22.574 20.737-45.6 54.92-51.432s65.015 7.741 68.866 30.314z" fill="#4b67ec"/><path d="m621.017 56.8096h-74.267v60.5374h74.267z" fill="#56f186"/><path d="m621.955 50.5694c0 21.0256-17.044 38.0694-38.069 38.0694-21.026 0-38.07-17.0438-38.07-38.0694s17.044-38.0694 38.07-38.0694c21.025 0 38.069 17.0438 38.069 38.0694z" fill="#56f186"/><path d="m567.372 77.5961c0 15.06-13.285 27.2689-29.672 27.2689s-29.673-12.2089-29.673-27.2689c0-15.0599 13.286-27.269 29.673-27.269s29.672 12.2091 29.672 27.269z" fill="#56f186"/><path d="m659.739 77.5961c0 15.06-13.285 27.2689-29.672 27.2689-16.388 0-29.672-12.2089-29.672-27.2689 0-15.0599 13.284-27.269 29.672-27.269 16.387 0 29.672 12.2091 29.672 27.269z" fill="#56f186"/><path d="m621.957 50.5684c0 7.4556-2.144 14.4107-5.848 20.2826" stroke="#008b42" stroke-linecap="round" stroke-linejoin="round" stroke-width="6"/><path d="m547.289 50.5693c0 7.4556 2.143 14.4107 5.847 20.2827" stroke="#008b42" stroke-linecap="round" stroke-linejoin="round" stroke-width="6"/><path d="m567.043 116.794v-20.2217" stroke="#008b42" stroke-linecap="round" stroke-linejoin="round" stroke-width="6"/><path d="m600.746 116.794v-20.2217" stroke="#008b42" stroke-linecap="round" stroke-linejoin="round" stroke-width="6"/><path d="m712.366 243.099-13.395.169c-16.321.205-29.844-12.981-30.049-29.302l-.361-28.642c-.205-16.321 12.98-29.844 29.301-30.05l13.396-.168c16.321-.206 29.844 12.981 30.049 29.302l.361 28.641c.205 16.322-12.981 29.844-29.302 30.05z" fill="#698eff"/><path d="m713.243 222.899-15.738.198c-2.774.035-5.073-2.207-5.108-4.981l-.51-40.475c-.035-2.783 2.212-5.087 4.995-5.123l15.724-.198c6.506-.082 11.895 5.174 11.977 11.679l.34 26.922c.082 6.506-5.174 11.896-11.68 11.978z" fill="#b7cdff"/><path d="m446.589 244.166 13.397.061c16.323.074 29.738-13.22 29.813-29.543l.131-28.644c.075-16.323-13.22-29.738-29.543-29.813l-13.396-.061c-16.323-.074-29.738 13.219-29.813 29.542l-.131 28.644c-.075 16.323 13.219 29.739 29.542 29.814z" fill="#698eff"/><path d="m445.553 223.973 15.739.072c2.775.012 5.056-2.248 5.068-5.022l.185-40.478c.013-2.782-2.254-5.07-5.037-5.083l-15.724-.071c-6.507-.03-11.854 5.269-11.883 11.775l-.124 26.924c-.029 6.505 5.269 11.854 11.776 11.883z" fill="#b7cdff"/><path d="m643.032 279.165c-31.122 1.821-102.252 2.79-129.549-.004-27.15-2.778-56.753-25.097-56.194-56.621l-.851-48.963c.49-46.233 23.275-58.79 64.399-62.028 43.927-3.459 113.187-2.197 127.903-1.672 40.361 1.441 60.027 26.114 59.468 57.638l.129 55.966c-.617 34.804-26.498 53.414-65.305 55.684z" fill="#698eff"/><path d="m608.338 228.908-47.754.309c-17.95.116-32.731-14.475-32.847-32.424l-.174-26.929c-.068-10.549 8.507-19.236 19.056-19.304l70.068-.454c10.128-.066 18.468 8.167 18.533 18.295l.214 33.057c.097 15-12.096 27.353-27.096 27.45z" fill="#b7cdff"/><path d="m608.108 209.635-11.18.142c-3.835.048-7.012-3.05-7.06-6.886l-.004-.296c-.049-3.836 3.05-7.013 6.885-7.061l11.18-.141c3.836-.048 7.013 3.05 7.061 6.885l.004.297c.048 3.836-3.05 7.012-6.886 7.06z" fill="#698eff"/><path d="m567.323 210.15-11.18.14c-3.835.049-7.012-3.049-7.06-6.885l-.004-.297c-.049-3.835 3.049-7.011 6.885-7.06l11.18-.141c3.835-.049 7.012 3.05 7.06 6.885l.004.297c.049 3.835-3.049 7.012-6.885 7.061z" fill="#698eff"/><path d="m629.413 231.332c-3.343.951-15.04 5.341-20.377 8.727-4.691 2.976-8.169 5.597-4.201 11.727 3.969 6.13 16.745 11.921 28.145 8.343 11.401-3.577 17.098-14.636 17.128-21.389 0 0 .503-5.499-2.968-8.432-3.47-2.932-12.253-.532-17.727 1.024z" fill="#e9459c"/><path d="m611.73 257.736s13.944-17.641 38.395-20.82c0 0 2.178 12.239-12.219 21.209-12.398 7.725-26.176-.389-26.176-.389z" fill="#ffacd6"/><path d="m669.252 186.965c.087 6.937-5.466 12.632-12.403 12.719s-12.632-5.466-12.719-12.403 5.466-12.632 12.403-12.719c6.937-.088 12.632 5.466 12.719 12.403z" fill="#080201"/><path d="m518.694 187.568c.087 6.937-5.466 12.632-12.403 12.719-6.937.088-12.633-5.466-12.72-12.403s5.466-12.632 12.403-12.719 12.633 5.466 12.72 12.403z" fill="#080201"/><path d="m526.803 326.065s7.948-1.642 17.169-3.152 32.989-.315 39.426 23.215-10.521 38.133-34.198 43.852c-27.883 6.735-85.333-.102-101.884-29.309-33.545-59.197 48.978-78.941 48.978-78.941l14.72 46.148" fill="#698eff"/><path d="m644.779 326.065s-7.948-1.642-17.169-3.152-32.989-.315-39.426 23.215 10.521 38.133 34.198 43.852c27.883 6.735 85.333-.102 101.884-29.309 33.545-59.197-48.978-78.941-48.978-78.941l-14.72 46.148" fill="#698eff"/><path d="m528.666 266c7.167-.115 12.743-1.101 18.88-4.127l.351-.174c6.113-3.076 10.26-6.931 14.669-12.582 7.01-8.984 16.772-13.384 25.276-14.941l-7.179-14.416c-1.608-3.228-5.565-4.554-8.793-2.946l-78.653 39.17c-3.228 1.608-4.554 5.564-2.946 8.793l7.889 15.841c6.152-7.12 16.904-14.401 30.506-14.618z" fill="#fff"/><path d="m618.514 295.765-30.672-61.59c-8.504 1.557-18.266 5.957-25.276 14.941-4.41 5.651-8.556 9.506-14.669 12.582l-.351.175c-6.137 3.025-11.714 4.012-18.88 4.126-13.602.217-24.354 7.499-30.507 14.618l29.682 59.6c7.614-12.567 21.356-24.912 39.067-33.732 18.178-9.053 36.796-12.526 51.606-10.72z" fill="#ff78b9"/><path d="m552.546 375.113 78.652-39.17c3.229-1.608 4.554-5.565 2.946-8.793l-15.63-31.385c-14.81-1.806-33.428 1.667-51.605 10.72-17.712 8.821-31.454 21.166-39.068 33.733l15.911 31.948c1.608 3.229 5.565 4.555 8.794 2.947z" fill="#f3dc2c"/><path d="m666.225 276.641 1.966.751s4.362 1.666 5.818-2.142c1.455-3.809 2.44-6.389 2.44-6.389s1.127-2.949-3.235-4.615c-1.965-.751-6.459-2.468-10.805-4.129-5.3-2.024-10.378-3.965-10.378-3.965-4.346-1.66-8.84-3.377-10.806-4.128-4.362-1.667-5.488 1.282-5.488 1.282s-.986 2.58-2.441 6.389 2.907 5.475 2.907 5.475l1.965.751" fill="#e0e0e0"/><path d="m638.166 265.922c-2.495 1.37-1.477 3.836-1.477 3.836s-1.452 4.594-6.138 7.346c-4.686 2.753-18.277 10.582-23.73 24.854s-18.249 47.764-18.249 47.764-2.563 7.38 8.048 11.435c3.503 1.338 7.66 2.926 11.59 4.427 0 0 6.545 2.501 13.884 5.305 3.93 1.502 8.087 3.09 11.589 4.428 10.612 4.054 13.623-3.155 13.623-3.155s12.796-33.492 18.249-47.764c5.452-14.272.544-29.169-1.113-34.345-1.656-5.176.324-9.568.324-9.568s2.403-1.159 1.457-3.844" fill="#aad7f4"/><path d="m612.207 304.018c-4.452 11.653-16.887 44.2-16.887 44.2s-2.093 6.026 6.572 9.336c2.86 1.093 6.254 2.39 9.463 3.616 0 0 5.345 2.042 11.338 4.331 3.209 1.226 6.603 2.523 9.463 3.616 8.665 3.31 11.123-2.576 11.123-2.576s12.435-32.547 16.887-44.2z" fill="#fff"/><path d="m637.211 250.656 30.788 11.763" stroke="#6996af" stroke-linecap="round" stroke-linejoin="round" stroke-width="5"/><path d="m595.698 319.248c1.258 14.055-6.518 25.263-24.121 24.245-15.338-.886-24.548-13.178-21.166-26.863 3.613-14.622 14.109-27.682 24.302-27.381 10.962.323 19.595 14.467 20.985 29.999z" fill="#fff"/><path d="m595.698 319.248c1.258 14.055-6.518 25.263-24.121 24.245-15.338-.886-24.548-13.178-21.166-26.863 3.613-14.622 14.109-27.682 24.302-27.381 10.962.323 19.595 14.467 20.985 29.999z" stroke="#c1c1c1" stroke-linecap="round" stroke-linejoin="round" stroke-width="4"/><path d="m630.09 338.618c-.729 14.092-10.003 24.097-27.288 20.616-15.062-3.032-22.454-16.496-17.183-29.57 5.632-13.97 17.858-25.426 27.908-23.696 10.807 1.86 17.368 17.077 16.563 32.65z" fill="#fff"/><path d="m630.09 338.618c-.729 14.092-10.003 24.097-27.288 20.616-15.062-3.032-22.454-16.496-17.183-29.57 5.632-13.97 17.858-25.426 27.908-23.696 10.807 1.86 17.368 17.077 16.563 32.65z" stroke="#c1c1c1" stroke-linecap="round" stroke-linejoin="round" stroke-width="4"/><path d="m556.389 319.795c6.095 12.726 2.73 25.946-14.116 31.15-14.68 4.535-27.608-3.759-29.226-17.762-1.73-14.963 3.535-30.869 13.189-34.152 10.383-3.532 23.418 6.699 30.153 20.764z" fill="#fff"/><path d="m556.389 319.795c6.095 12.726 2.73 25.946-14.116 31.15-14.68 4.535-27.608-3.759-29.226-17.762-1.73-14.963 3.535-30.869 13.189-34.152 10.383-3.532 23.418 6.699 30.153 20.764z" stroke="#c1c1c1" stroke-linecap="round" stroke-linejoin="round" stroke-width="4"/><path d="m677.091 378.525c0 3.353-2.719 6.072-6.072 6.072s-6.071-2.719-6.071-6.072c0-1.034.259-2.007.716-2.859h-14.215c.456.852.716 1.825.716 2.859 0 3.353-2.719 6.072-6.072 6.072s-6.071-2.719-6.071-6.072c0-1.034.26-2.007.716-2.859h-14.944c.456.852.716 1.825.716 2.859 0 3.353-2.718 6.072-6.071 6.072s-6.071-2.719-6.071-6.072c0-1.034.259-2.007.715-2.859h-14.215c.456.852.716 1.825.716 2.859 0 3.353-2.718 6.072-6.071 6.072s-6.071-2.719-6.071-6.072c0-1.034.259-2.007.715-2.859h-14.943c.456.852.716 1.825.716 2.859 0 3.353-2.719 6.072-6.072 6.072s-6.071-2.719-6.071-6.072c0-1.034.26-2.007.716-2.859h-14.215c.456.852.716 1.825.716 2.859 0 3.353-2.719 6.072-6.072 6.072s-6.07-2.719-6.07-6.072c0-1.034.259-2.007.715-2.859h-14.944c.456.852.716 1.825.716 2.859 0 3.353-2.718 6.072-6.071 6.072-.862 0-1.68-.183-2.423-.506l4.46 3.694 11.63-9.635.7-.579.699.579 11.703 9.695 11.703-9.695.699-.579.699.579 11.632 9.635 11.63-9.635.699-.579.7.579 11.702 9.695 11.703-9.695.699-.579.699.579 11.631 9.635 11.631-9.635.7-.579.699.579 11.703 9.695 11.702-9.695.699-.579.699.579 11.631 9.635 8.28-6.858c.777-1.727 1.518-3.474 2.174-5.261h-3.787c.457.852.717 1.825.717 2.859z" fill="#fee75c"/><path d="m508.986 377.571.7.579 4.573 3.789c-.663-.973-1.051-2.147-1.051-3.414 0-1.034.26-2.007.716-2.859h-14.215c.456.852.716 1.825.716 2.859 0 3.234-2.53 5.87-5.718 6.054.578 1.124 1.173 2.238 1.798 3.332l11.782-9.761z" fill="#fee75c"/><path d="m577.348 390.561h11.517l-5.759-4.771z" fill="#fee75c"/><path d="m669.708 388.969-.713-.591-11.617-9.623-11.702 9.695-.699.579-.7-.579-11.702-9.695-11.617 9.623-.714.591-.713-.591-11.617-9.623-11.703 9.695-.699.579-.698-.579-11.703-9.695-11.617 9.623-.713.591-.714-.591-11.617-9.623-11.703 9.695-.699.579-.699-.579-11.703-9.695-11.616 9.623-.714.591-.713-.591-11.617-9.623-12.013 9.952c.362.618.711 1.245 1.089 1.853h3.736l6.489-5.374.699-.58.699.58 6.49 5.374h10.283l6.488-5.374.7-.58.699.58 6.489 5.374h10.429l6.488-5.374.699-.58.7.58 6.488 5.374h10.284l6.489-5.375.7-.58.699.58 6.488 5.375h10.429l6.488-5.375.699-.58.7.58 6.488 5.375h10.284l6.489-5.374.7-.58.699.58 6.488 5.374h10.429l6.488-5.374.699-.58.7.58 6.489 5.374h8.313c1.545-2.489 2.953-5.069 4.232-7.724l-6.69 5.542z" fill="#fee75c"/><path d="m527.887 390.561h11.517l-5.759-4.77z" fill="#fee75c"/><path d="m552.691 390.56h11.517l-5.758-4.77z" fill="#fee75c"/><path d="m503.227 390.561h11.517l-5.759-4.77z" fill="#fee75c"/><path d="m651.621 390.56h11.517l-5.758-4.77z" fill="#fee75c"/><path d="m626.816 390.56h11.517l-5.758-4.77z" fill="#fee75c"/><path d="m602.152 390.561h11.517l-5.758-4.771z" fill="#fee75c"/><path d="m674.346 336.94h-177.753c-5.926 0-10.773 4.848-10.773 10.774 0 3.27.201 6.495.58 9.667h198.14c.378-3.172.579-6.397.579-9.667 0-5.926-4.848-10.774-10.773-10.774z" fill="#eb459e"/><path d="m488.013 366.47 7.933-6.572.7-.579.699.579 11.631 9.635 11.63-9.635.7-.579.699.579 11.703 9.695 11.702-9.695.7-.579.699.579 11.631 9.635 11.63-9.635.7-.579.699.579 11.703 9.695 11.703-9.695.699-.579.699.579 11.631 9.635 11.63-9.635.7-.579.7.579 11.702 9.695 11.703-9.695.699-.579.699.579 11.631 9.635 11.63-9.635.7-.579.699.579 11.714 9.704c1.108-3.963 1.929-8.045 2.427-12.221h-198.14c.369 3.084.911 6.118 1.615 9.089z" fill="#fee75c"/><path d="m658.082 370.126-.714.591-.713-.591-11.617-9.623-11.702 9.695-.7.579-.699-.579-11.703-9.695-11.616 9.623-.714.591-.713-.591-11.617-9.624-11.702 9.696-.7.579-.699-.579-11.703-9.696-11.616 9.624-.714.591-.713-.591-11.617-9.623-11.703 9.695-.699.579-.699-.579-11.703-9.695-11.616 9.623-.714.591-.713-.591-11.617-9.623-8.388 6.949c.562 2.249 1.218 4.46 1.962 6.632 1.084-1.009 2.534-1.631 4.132-1.631 2.319 0 4.332 1.301 5.355 3.212h14.215c1.022-1.911 3.036-3.212 5.356-3.212 2.319 0 4.332 1.301 5.355 3.212h14.944c1.022-1.911 3.036-3.212 5.355-3.212s4.333 1.301 5.356 3.212h14.215c1.022-1.911 3.036-3.212 5.355-3.212s4.333 1.301 5.356 3.212h14.943c1.022-1.911 3.037-3.212 5.356-3.212s4.332 1.301 5.355 3.212h14.215c1.022-1.911 3.037-3.212 5.356-3.212s4.332 1.301 5.355 3.212h14.944c1.022-1.911 3.036-3.212 5.355-3.212s4.333 1.301 5.356 3.212h14.214c1.022-1.911 3.037-3.212 5.356-3.212s4.333 1.301 5.355 3.212h3.787c.615-1.676 1.17-3.381 1.676-5.106l-12.139-10.056z" fill="#fee75c"/><path d="m669.7 359.318-.699.58-11.631 9.635-11.63-9.635-.7-.58-.699.58-11.703 9.695-11.702-9.695-.7-.58-.699.58-11.631 9.635-11.63-9.635-.7-.58-.699.58-11.703 9.695-11.703-9.695-.699-.58-.699.58-11.631 9.635-11.63-9.635-.7-.58-.699.58-11.703 9.695-11.703-9.695-.699-.58-.7.58-11.63 9.635-11.631-9.635-.699-.58-.699.58-7.933 6.572c.078.329.162.655.244.982l8.388-6.949 11.617 9.622.713.592.714-.592 11.616-9.622 11.703 9.695.699.579.699-.579 11.703-9.695 11.617 9.623.713.591.714-.591 11.616-9.624 11.703 9.696.699.579.699-.579 11.703-9.696 11.617 9.624.713.591.713-.591 11.617-9.623 11.703 9.695.699.579.7-.579 11.702-9.695 11.617 9.622.713.592.714-.592 11.616-9.622 12.138 10.055c.093-.318.185-.636.275-.956l-11.714-9.704z" fill="#fff"/><path d="m669.7 359.318-.699.58-11.631 9.635-11.63-9.635-.7-.58-.699.58-11.703 9.695-11.702-9.695-.7-.58-.699.58-11.631 9.635-11.63-9.635-.7-.58-.699.58-11.703 9.695-11.703-9.695-.699-.58-.699.58-11.631 9.635-11.63-9.635-.7-.58-.699.58-11.703 9.695-11.703-9.695-.699-.58-.7.58-11.63 9.635-11.631-9.635-.699-.58-.699.58-7.933 6.572c.078.329.162.655.244.982l8.388-6.949 11.617 9.622.713.592.714-.592 11.616-9.622 11.703 9.695.699.579.699-.579 11.703-9.695 11.617 9.623.713.591.714-.591 11.616-9.624 11.703 9.696.699.579.699-.579 11.703-9.696 11.617 9.624.713.591.713-.591 11.617-9.623 11.703 9.695.699.579.7-.579 11.702-9.695 11.617 9.622.713.592.714-.592 11.616-9.622 12.138 10.055c.093-.318.185-.636.275-.956l-11.714-9.704z" stroke="#fff" stroke-miterlimit="10" stroke-width="1.077"/><path d="m658.077 378.15-.7-.58-.699.58-11.702 9.695-11.703-9.695-.699-.58-.7.58-11.631 9.635-11.63-9.635-.7-.58-.699.58-11.703 9.695-11.702-9.695-.699-.58-.7.58-11.63 9.635-11.632-9.635-.699-.58-.699.58-11.703 9.695-11.703-9.695-.699-.58-.7.58-11.63 9.635-4.459-3.695c-1.056-.46-1.956-1.21-2.598-2.152l-4.574-3.788-.699-.58-.699.58-11.782 9.761c.153.267.312.53.468.796l12.013-9.952 11.616 9.622.714.592.714-.592 11.616-9.622 11.703 9.695.699.579.699-.579 11.703-9.695 11.617 9.623.714.591.713-.591 11.617-9.623 11.702 9.695.699.579.699-.579 11.703-9.695 11.617 9.623.713.591.714-.591 11.617-9.623 11.702 9.695.7.579.699-.579 11.702-9.695 11.617 9.622.713.592.714-.592 6.69-5.541c.303-.631.588-1.272.876-1.91l-8.28 6.859z" fill="#fee75c"/><path d="m646.095 384.597c3.353 0 6.072-2.719 6.072-6.072 0-1.034-.26-2.007-.716-2.859h-10.711c-.456.852-.717 1.825-.717 2.859 0 3.353 2.719 6.072 6.072 6.072z" fill="#eb459e"/><path d="m646.093 372.453c-2.319 0-4.332 1.301-5.355 3.213h10.711c-1.022-1.912-3.037-3.213-5.356-3.213z" fill="#eb459e"/><path d="m671.021 384.597c3.353 0 6.072-2.719 6.072-6.072 0-1.034-.261-2.007-.717-2.859h-10.711c-.456.852-.716 1.825-.716 2.859 0 3.353 2.719 6.072 6.072 6.072z" fill="#fff"/><path d="m671.02 372.453c-2.319 0-4.334 1.301-5.356 3.213h10.711c-1.022-1.912-3.036-3.213-5.355-3.213z" fill="#fff"/><path d="m595.513 384.597c3.353 0 6.071-2.719 6.071-6.072 0-1.034-.26-2.007-.716-2.859h-10.711c-.456.852-.716 1.825-.716 2.859 0 3.353 2.719 6.072 6.072 6.072z" fill="#eb459e"/><path d="m595.516 372.453c-2.319 0-4.333 1.301-5.356 3.213h10.711c-1.022-1.912-3.036-3.213-5.355-3.213z" fill="#eb459e"/><path d="m620.439 384.597c3.353 0 6.071-2.719 6.071-6.072 0-1.034-.26-2.007-.716-2.859h-10.711c-.456.852-.716 1.825-.716 2.859 0 3.353 2.719 6.072 6.072 6.072z" fill="#fff"/><path d="m620.442 372.453c-2.319 0-4.334 1.301-5.356 3.213h10.711c-1.023-1.912-3.036-3.213-5.355-3.213z" fill="#fff"/><path d="m544.934 384.597c3.353 0 6.072-2.719 6.072-6.072 0-1.034-.26-2.007-.716-2.859h-10.711c-.456.852-.716 1.825-.716 2.859 0 3.353 2.718 6.072 6.071 6.072z" fill="#eb459e"/><path d="m544.929 372.453c-2.319 0-4.332 1.301-5.355 3.213h10.711c-1.022-1.912-3.037-3.213-5.356-3.213z" fill="#eb459e"/><path d="m569.861 384.597c3.353 0 6.071-2.719 6.071-6.072 0-1.034-.259-2.007-.715-2.859h-10.711c-.456.852-.717 1.825-.717 2.859 0 3.353 2.719 6.072 6.072 6.072z" fill="#fff"/><path d="m569.859 372.453c-2.319 0-4.333 1.301-5.355 3.213h10.711c-1.023-1.912-3.037-3.213-5.356-3.213z" fill="#fff"/><path d="m500.424 378.525c0-1.034-.261-2.007-.717-2.859h-8.93c1.125 3.065 2.449 6.035 3.929 8.913 3.188-.184 5.718-2.82 5.718-6.054z" fill="#eb459e"/><path d="m499.705 375.666c-1.022-1.912-3.036-3.213-5.355-3.213-1.598 0-3.047.622-4.131 1.631.181.53.364 1.058.556 1.582z" fill="#eb459e"/><path d="m514.258 381.939 2.598 2.152c.743.323 1.561.506 2.423.506 3.353 0 6.071-2.719 6.071-6.072 0-1.034-.26-2.007-.716-2.859h-10.711c-.456.852-.716 1.825-.716 2.859 0 1.267.388 2.441 1.051 3.414z" fill="#fff"/><path d="m519.278 372.453c-2.319 0-4.334 1.301-5.356 3.213h10.711c-1.023-1.912-3.036-3.213-5.355-3.213z" fill="#fff"/><path d="m516.856 384.09-2.598-2.152c.642.942 1.542 1.692 2.598 2.152z" fill="#fff"/><path d="m650.19 390.561h-10.428l5.214 4.319z" fill="#fee75c"/><path d="m498.062 390.561c.423.68.869 1.343 1.311 2.01l2.426-2.01z" fill="#fee75c"/><path d="m663.138 390.561h-11.517l-5.943 4.924-.7.579-.7-.579-5.943-4.924h-11.517l-5.858 4.853-.715.591-.713-.591-5.858-4.853h-11.517l-5.944 4.925-.7.579-.698-.579-5.944-4.925h-11.518l-5.857 4.853-.714.591-.714-.591-5.858-4.853h-11.517l-5.944 4.924-.7.579-.699-.579-5.944-4.924h-11.517l-5.858 4.852-.714.592-.713-.592-5.858-4.852h-11.517l-3.354 2.779c2.073 3.053 4.345 5.961 6.799 8.706h157.595c1.805-2.018 3.502-4.133 5.104-6.32l-.377-.313z" fill="#fee75c"/><path d="m669.708 394.821.77-.638c.828-1.187 1.636-2.39 2.401-3.622h-8.313z" fill="#fee75c"/><path d="m526.459 390.561h-10.283l5.141 4.26z" fill="#fee75c"/><path d="m625.386 390.561h-10.284l5.142 4.26z" fill="#fee75c"/><path d="m575.921 390.561h-10.284l5.143 4.26z" fill="#fee75c"/><path d="m551.26 390.561h-10.428l5.214 4.319z" fill="#fee75c"/><path d="m600.725 390.561h-10.428l5.214 4.32z" fill="#fee75c"/><path d="m567.498 429.391h35.944c24.105 0 45.843-10.595 60.825-27.345h-157.595c14.982 16.75 36.721 27.345 60.826 27.345z" fill="#eb459e"/><path d="m533.645 385.791 5.758 4.77h1.43l-6.489-5.375-.699-.58-.7.58-6.488 5.375h1.429z" fill="#fff"/><path d="m533.645 385.791 5.758 4.77h1.43l-6.489-5.375-.699-.58-.7.58-6.488 5.375h1.429z" stroke="#fff" stroke-miterlimit="10" stroke-width="1.077"/><path d="m583.11 385.79 5.759 4.77h1.429l-6.488-5.375-.7-.58-.699.58-6.489 5.375h1.43z" fill="#fff"/><path d="m583.11 385.79 5.759 4.77h1.429l-6.488-5.375-.7-.58-.699.58-6.489 5.375h1.43z" stroke="#fff" stroke-miterlimit="10" stroke-width="1.077"/><path d="m607.91 385.79 5.759 4.77h1.429l-6.488-5.375-.7-.58-.699.58-6.488 5.375h1.429z" fill="#fff"/><path d="m607.91 385.79 5.759 4.77h1.429l-6.488-5.375-.7-.58-.699.58-6.488 5.375h1.429z" stroke="#fff" stroke-miterlimit="10" stroke-width="1.077"/><path d="m558.449 385.791 5.759 4.77h1.429l-6.488-5.375-.7-.58-.699.58-6.488 5.375h1.429z" fill="#fff"/><path d="m558.449 385.791 5.759 4.77h1.429l-6.488-5.375-.7-.58-.699.58-6.488 5.375h1.429z" stroke="#fff" stroke-miterlimit="10" stroke-width="1.077"/><path d="m508.985 385.791 5.758 4.77h1.43l-6.489-5.375-.699-.58-.7.58-6.488 5.375h1.429z" fill="#fff"/><path d="m508.985 385.791 5.758 4.77h1.43l-6.489-5.375-.699-.58-.7.58-6.488 5.375h1.429z" stroke="#fff" stroke-miterlimit="10" stroke-width="1.077"/><path d="m657.379 385.791 5.759 4.77h1.43l-6.49-5.375-.699-.58-.699.58-6.489 5.375h1.43z" fill="#fff"/><path d="m657.379 385.791 5.759 4.77h1.43l-6.49-5.375-.699-.58-.699.58-6.489 5.375h1.43z" stroke="#fff" stroke-miterlimit="10" stroke-width="1.077"/><path d="m632.575 385.791 5.759 4.77h1.429l-6.488-5.375-.7-.58-.699.58-6.489 5.375h1.43z" fill="#fff"/><path d="m632.575 385.791 5.759 4.77h1.429l-6.488-5.375-.7-.58-.699.58-6.489 5.375h1.43z" stroke="#fff" stroke-miterlimit="10" stroke-width="1.077"/><path d="m545.347 395.485.699.579.699-.579 5.945-4.924h-1.43l-5.214 4.319-5.214-4.319h-1.43z" fill="#fff"/><path d="m545.347 395.485.699.579.699-.579 5.945-4.924h-1.43l-5.214 4.319-5.214-4.319h-1.43z" stroke="#fff" stroke-miterlimit="10" stroke-width="1.077"/><path d="m520.6 395.413.714.592.714-.592 5.857-4.852h-1.429l-5.142 4.26-5.142-4.26h-1.43z" fill="#fff"/><path d="m520.6 395.413.714.592.714-.592 5.857-4.852h-1.429l-5.142 4.26-5.142-4.26h-1.43z" stroke="#fff" stroke-miterlimit="10" stroke-width="1.077"/><path d="m501.797 390.561-2.426 2.01c.169.254.33.516.501.769l3.354-2.779z" fill="#fff"/><path d="m501.797 390.561-2.426 2.01c.169.254.33.516.501.769l3.354-2.779z" stroke="#fff" stroke-miterlimit="10" stroke-width="1.077"/><path d="m664.563 390.561h-1.43l5.858 4.852.377.313c.374-.511.744-1.023 1.106-1.543l-.77.638z" fill="#fff"/><path d="m664.563 390.561h-1.43l5.858 4.852.377.313c.374-.511.744-1.023 1.106-1.543l-.77.638z" stroke="#fff" stroke-miterlimit="10" stroke-width="1.077"/><path d="m644.275 395.485.701.579.699-.579 5.943-4.924h-1.429l-5.213 4.319-5.215-4.319h-1.429z" fill="#fff"/><path d="m644.275 395.485.701.579.699-.579 5.943-4.924h-1.429l-5.213 4.319-5.215-4.319h-1.429z" stroke="#fff" stroke-miterlimit="10" stroke-width="1.077"/><path d="m619.53 395.414.713.591.714-.591 5.858-4.853h-1.43l-5.142 4.26-5.142-4.26h-1.429z" fill="#fff"/><path d="m619.53 395.414.713.591.714-.591 5.858-4.853h-1.43l-5.142 4.26-5.142-4.26h-1.429z" stroke="#fff" stroke-miterlimit="10" stroke-width="1.077"/><path d="m570.069 395.414.714.591.713-.591 5.858-4.853h-1.43l-5.141 4.26-5.143-4.26h-1.429z" fill="#fff"/><path d="m570.069 395.414.714.591.713-.591 5.858-4.853h-1.43l-5.141 4.26-5.143-4.26h-1.429z" stroke="#fff" stroke-miterlimit="10" stroke-width="1.077"/><path d="m594.811 395.486.699.579.699-.579 5.945-4.925h-1.43l-5.214 4.32-5.214-4.32h-1.429z" fill="#fff"/><path d="m594.811 395.486.699.579.699-.579 5.945-4.925h-1.43l-5.214 4.32-5.214-4.32h-1.429z" stroke="#fff" stroke-miterlimit="10" stroke-width="1.077"/><path d="m417.687 329.884-16.553-5.687c-4.469-1.536-6.87-6.449-5.334-10.919l7.269-21.157c1.536-4.47 6.45-6.87 10.919-5.334l16.553 5.688c4.469 1.536 6.87 6.448 5.334 10.918l-7.269 21.157c-1.536 4.47-6.45 6.87-10.919 5.334z" fill="#fff"/><path d="m392.04 325.186-13.026 6.52c-3.518 1.76-7.837.323-9.597-3.195l-8.333-16.651c-1.76-3.517-.322-7.836 3.195-9.596l13.027-6.52c3.517-1.76 7.836-.323 9.596 3.195l8.334 16.651c1.76 3.517.322 7.836-3.196 9.596z" fill="#fff"/><path d="m432.036 419.74h-77.178c-1.808 0-3.288-1.479-3.288-3.287v-2.335c0-1.808 1.48-3.287 3.288-3.287h77.178c1.808 0 3.287 1.479 3.287 3.287v2.335c0 1.808-1.479 3.287-3.287 3.287z" fill="#e5cc4e"/><path d="m333.971 394.322c-15.699 0-28.471-15.049-28.471-33.546s12.772-33.546 28.471-33.546c15.698 0 28.47 15.049 28.47 33.546s-12.772 33.546-28.47 33.546zm0-57.391c-10.045 0-18.217 10.696-18.217 23.845 0 13.148 8.172 23.845 18.217 23.845 10.044 0 18.217-10.697 18.217-23.845 0-13.149-8.173-23.845-18.217-23.845z" fill="#fee75c"/><path d="m446.174 328.895c0-9.45-7.66-17.11-17.109-17.11h-73.573c-9.449 0-17.109 7.66-17.109 17.11v8.164h107.791z" fill="#fee75c"/><path d="m338.383 399.345c0 6.975 5.654 12.629 12.629 12.629h82.533c6.975 0 12.629-5.654 12.629-12.629v-16.799h-107.791z" fill="#fee75c"/><path d="m338.383 337.06v45.486h107.791v-45.486z" fill="#eb459e"/><g fill="#fff"><path d="m392.106 344.808c1.217-.022 2.224.869 2.249 1.99l.628 27.219c.025 1.121-.94 2.049-2.157 2.071-1.217.023-2.225-.868-2.25-1.989l-.626-27.22c-.026-1.121.939-2.049 2.156-2.071z"/><path d="m388.587 375.23c-.049-2.148 1.8-3.924 4.131-3.967 2.332-.042 4.261 1.664 4.311 3.812.049 2.148-1.8 3.924-4.132 3.967-2.331.043-4.261-1.663-4.31-3.812z"/><path d="m387.853 343.494c-.05-2.148 1.799-3.924 4.131-3.967 2.331-.043 4.261 1.664 4.31 3.813.05 2.148-1.799 3.923-4.131 3.966-2.331.042-4.261-1.664-4.31-3.812z"/><path d="m379.134 366.965c-.647-.951-.335-2.203.695-2.798l25.027-14.442c1.03-.595 2.391-.307 3.038.644s.335 2.203-.695 2.798l-25.027 14.442c-1.03.595-2.391.307-3.038-.644z"/><path d="m409.275 354.163c-1.975 1.139-4.581.586-5.82-1.235s-.643-4.222 1.331-5.361c1.975-1.14 4.582-.587 5.821 1.234 1.24 1.821.643 4.222-1.332 5.362z"/><path d="m380.099 371c-1.974 1.139-4.58.586-5.82-1.235-1.239-1.821-.643-4.221 1.332-5.361 1.974-1.139 4.58-.586 5.82 1.235 1.239 1.821.643 4.221-1.332 5.361z"/><path d="m378.671 352.295c.586-.982 1.926-1.34 2.992-.798l25.897 13.141c1.067.541 1.456 1.776.87 2.758s-1.925 1.339-2.992.798l-25.897-13.14c-1.066-.542-1.456-1.777-.87-2.759z"/><path d="m405.506 370.35c-2.044-1.037-2.79-3.402-1.667-5.284 1.122-1.882 3.689-2.566 5.733-1.529s2.79 3.402 1.667 5.284c-1.122 1.882-3.689 2.567-5.733 1.529z"/><path d="m375.315 355.029c-2.044-1.037-2.79-3.402-1.668-5.284 1.123-1.882 3.69-2.567 5.734-1.53 2.043 1.038 2.79 3.403 1.667 5.285s-3.689 2.566-5.733 1.529z"/><path d="m397.075 361.065c-1.314 2.246-4.356 3.086-6.797 1.873s-3.354-4.018-2.041-6.265 4.356-3.086 6.796-1.873c2.441 1.213 3.355 4.018 2.042 6.265z"/></g></g></svg>