<svg fill="none" height="144" viewBox="0 0 254 144" width="254" xmlns="http://www.w3.org/2000/svg" xmlns:xlink="http://www.w3.org/1999/xlink"><clipPath id="a"><path d="m97.6157 46h140.286v98h-140.286z"/></clipPath><path d="m0 8c0-4.41827 3.58172-8 8-8h238c4.418 0 8 3.58172 8 8v136h-254z" fill="#808aff"/><g clip-path="url(#a)"><path d="m120.412 76.515c-7.99-.1115-11.69-4.9763-11.69-4.9763 3.331 1.0973 5.26.2816 5.26.2816-2.735-2.1947-3.594-6.8717-3.594-6.8717 5.471 5.4927 10.445 5.968 10.445 5.968z" fill="#5960fa"/><path d="m120.927 70.0598s-1.754 13.585.397 26.2077" stroke="#373be1" stroke-linecap="round" stroke-miterlimit="10" stroke-width="1.87"/><path d="m133.903 135.784-3.279 8.216h11.48c.113-.454.108-.929-.012-1.38-.121-.452-.355-.865-.679-1.201s-.728-.584-1.173-.719c-.446-.136-.919-.155-1.374-.057-1.268.321-2.564.517-3.87.587l2.186-5.446z" fill="#66bcff"/><path d="m114.298 120.762-8.651-1.79 1.461 14.049c2.029.141 3.829-3.292 3.28-5.487-.404-1.632-1.21-4.108-1.275-4.724l5.764 1.174z" fill="#66bcff"/><path d="m138.451 96.2149c.374-.5223 2.56-5.4634-1.812-6.015-6.793-.8509-4.975 4.4423-13.444 3.3214-8.47-1.1208-9.633 4.9646-4.39 7.9577z" fill="#ffe734"/><path d="m111.644 86.491c-.534.2008-1.019.5143-1.422.9192-.404.4049-.716.8918-.916 1.4281 1.169 0 8.768 1.7605 9.353 10.5628l.584-.5868s-2.338-11.7365-7.599-12.3233z" fill="#22c774"/><path d="m118.857 100.516s-1.666-9.7118-8.733-14.6118c0 0-.818-5.2814 5.261-4.4599 0 0 6.161 11.3845 5.518 19.8167z" fill="#57eba0"/><path d="m119.758 100.663s-1.099-11.238 2.408-15.3458c0 0 4.091-.5868 4.308 3.1572-3.765 3.7204-5.01 8.9373-5.173 13.0156z" fill="#ff6cba"/><path d="m120.529 100.375s-.228-12.9099 4.559-16.8181c.43.3518.799.7721 1.093 1.2441.667 1.0171.904 2.2579.661 3.4505 0 0-3.045 1.9072-5.027 9.1721z" fill="#ff85c6"/><path d="m124.27 96.3731c-.858-.0878-1.725.0582-2.508.4225-1.94.9096-5.681 2.7112-6.926 3.6504-.67.439-1.216 1.044-1.587 1.756-.37.712-.553 1.507-.529 2.31v1.696l-1.409.851c-1.344.81-2.005 1.761-1.169 4.067.783 2.13 1.672 5.099 4.092 5.974 2.42.874 14.917-2.664 15.858-3.292l.549-2.747 3.215-13.7255z" fill="#ffe734"/><path d="m164.877 70.0011-3.683-1.1737c-.251-.0823-.525-.0678-.767.0406s-.435.3031-.542.5463c-.367.9668-.632 1.97-.789 2.9928-.362-.5868-.275-2.2886-.181-3.298.008-.0966-.005-.1937-.039-.2847-.033-.0909-.086-.1735-.154-.2417-.069-.0683-.151-.1206-.242-.1533-.091-.0328-.188-.0451-.284-.0362l-.912.0821c-.131.0077-.257.0548-.362.1354-.104.0807-.182.1909-.223.3165-.496 1.5258-.052 5.522-.052 5.522l-1.169-1.2206c-.057-.0536-.124-.0953-.197-.1227-.073-.0273-.151-.0397-.229-.0364-.077.0032-.154.0221-.224.0555-.071.0334-.134.0806-.186.1389l-.532.6337c-.08.1031-.124.2302-.124.3609 0 .1308.044.2578.124.3609l1.169 1.5258c.268.3606.429.7896.465 1.238.037.4484-.054.8979-.26 1.2971l-2.49 4.8119c-1.35 2.6157-3.253 4.904-5.575 6.7052-2.322 1.8011-5.008 3.0716-7.869 3.7227l-7.804 1.7605 3.8 5.4814 8.376-3.2866c4.474-1.7634 8.173-5.0721 10.434-9.3306l5.26-9.8587h.082l3.846-2.629 1.982-4.6946c.055-.1314.082-.2731.078-.4156-.003-.1426-.037-.2828-.098-.4114s-.149-.2428-.257-.3349c-.109-.0921-.236-.1601-.372-.1995z" fill="#1a9af5"/><path d="m143.372 92.6175c-1.235.5685-2.526 1.0051-3.852 1.3027l-5.202 1.1737 1.754 4.9821 1.496.293 6.354-2.4936c.707-.2782 1.398-.5975 2.069-.9565.485-3.4212-2.286-4.4481-2.619-4.3014z" fill="#373be1"/><path d="m134.523 110.24s5.938 3.568 8.13 7.412c1.438 2.523-2.613 14.324-3.957 18.068-.126.349-.338.66-.618.904-.279.243-.616.411-.978.487l-5.383.299c-3.285 0 3.279-13.72 5.465-17.018l-6.558-4.941-4.922-3.838z" fill="#0822a5"/><path d="m123.294 108.333c-1.856.794-3.807 1.342-5.804 1.631 0 0 5.734-4.612 7.657-7.687.83-1.327 1.169-2.424 1.093-3.2925-.082-1.1737-.544-2.7464-1.637-2.3767-2.075.6984-6.739 4.1082-11.147 12.1712-4.243 7.763 4.355 5.187 10.522 2.629" fill="#1a9af5"/><path d="m138.825 94.0435s-12.275 2.1536-14.029 2.5174h-.076-.128c-1.468.493-4.221 2.3473-7.26 6.2201 0 0 1.245 2.195 4.547 3.222.792-.753 1.543-1.549 2.251-2.383l1.555 7.946 8.82-1.373 3.045-4.343c1.416-2.006 2.168-4.407 2.152-6.8655-.106-1.675-.4-3.3326-.877-4.941z" fill="#373be1"/><path d="m127.888 106.93v-2.417c-.001-.255.056-.506.167-.735.11-.228.271-.429.47-.586l1.66-1.338c.272-.211.6-.334.943-.353.342-.019.682.068.975.248.641.386 1.145.965 1.439 1.655.295.69.366 1.456.203 2.188l-.245 1.127c-.137.615-.478 1.166-.968 1.56-.49.395-1.099.61-1.727.611h-1.625z" fill="#1a9af5"/><path d="m121.049 70.4414c.756 0 1.368-.6148 1.368-1.3732 0-.7583-.612-1.3731-1.368-1.3731-.755 0-1.367.6148-1.367 1.3731 0 .7584.612 1.3732 1.367 1.3732z" fill="#373be1"/><path d="m126.637 96.2148s3.8 2.1185 3.975 7.8342c-.001.123-.036.242-.101.346s-.157.187-.267.241c-.086.043-.18.067-.276.07-.095.003-.191-.015-.279-.053s-.167-.095-.23-.167c-.064-.072-.111-.157-.139-.249-.584-1.872-2.525-7.4764-6.085-6.9952 0 .0293.684-1.9483 3.402-1.027z" fill="#ffb800"/><path d="m137.013 94.3662c1.087.8803 4.045 3.6618 1.812 9.2248 0 0 5.196-4.3776.391-9.6884-.239-.2582-1.268-.9565-2.203.4636z" fill="#ffb800"/><path d="m123.989 111.408c3.069-1.274 5.536-2.541 5.536-2.541l-.544-3.292c-1.835 1.04-3.735 1.961-5.687 2.758" fill="#1a9af5"/><path d="m129.694 96.9425c.041.9448.38 2.0422 2.023 3.1395 0 0 2.186-1.0973 2.186-2.1947 0 0 1.093 1.649 2.736 1.649 0 0 .543-4.3953-3.25-4.7474-.419-.0314-.839-.0314-1.257 0-1.415.0704-2.502.7335-2.438 2.1536z" fill="#0822a5"/><path d="m131.927 94.8183c.521-.98 1.047-2.0715 1.532-3.1337s.935-2.1595 1.373-3.2569c.864-2.1904 1.617-4.4232 2.257-6.6898.339-1.1208.584-2.2652.882-3.3977.135-.5869.24-1.1385.363-1.7136l.175-.8509.14-.8626c.385-2.2732.629-4.5682.731-6.8717v-.1057c.042-.7276.37-1.4087.912-1.8934.542-.4848 1.254-.7336 1.979-.6915.724.042 1.403.3713 1.886.9155.482.5442.73 1.2587.688 1.9863v.1937c-.297 2.5206-.754 5.0197-1.367 7.482l-.217.9213-.257.9096c-.175.5868-.339 1.2089-.52 1.8074-.392 1.1737-.76 2.3826-1.204 3.521-.86 2.3473-1.818 4.6418-2.923 6.8717-.543 1.1209-1.105 2.2241-1.695 3.3156l-.403.7335c-.474.8451-.953 1.6666-1.497 2.5234-.233.3616-.596.6192-1.014.7194-.417.1002-.857.0354-1.228-.1811s-.645-.568-.766-.9818c-.12-.4137-.077-.858.121-1.2407z" fill="#1a9af5"/><path d="m124.147 103.667c.573-.8 1.092-1.637 1.555-2.505.544 2.194-1.099 4.823-1.099 4.823z" fill="#000"/><path d="m144.109 73.1347c.163-1.0504-3.069-2.1478-3.648-2.6935 0 0 1.099 3.8378 3.256 4.6946.129-.5692.269-1.2382.392-2.0011z" fill="#000"/><path d="m144.84 73.1818c3.018 0 5.465-2.4566 5.465-5.4868 0-3.0303-2.447-5.4869-5.465-5.4869-3.019 0-5.466 2.4566-5.466 5.4869 0 3.0302 2.447 5.4868 5.466 5.4868z" fill="#1a9af5"/><path d="m146.474 72.0149c1.202-.3523 1.829-1.8334 1.401-3.308-.429-1.4747-1.751-2.3846-2.954-2.0323-1.202.3523-1.829 1.8334-1.401 3.3081.429 1.4747 1.751 2.3845 2.954 2.0322z" fill="#99e4ff"/><path d="m152.769 68.9819c.369-1.3801-.13-2.7134-1.113-2.978s-2.079.6397-2.448 2.0198c-.368 1.3801.13 2.7134 1.114 2.978.983.2646 2.079-.6397 2.447-2.0198z" fill="#99e4ff"/><path d="m144.506 69.2325c.207-.148.445-.2446.696-.2817.265-.0341.535.0002.783.0998.238.1051.454.2544.637.4401.172.1782.322.3751.45.5868.043.0644.073.1366.088.2126.016.0759.016.1541.001.2302-.015.076-.045.1483-.088.2128-.042.0645-.097.1199-.161.163-.064.0432-.136.0733-.212.0885-.076.0153-.154.0154-.229.0004-.076-.015-.148-.0448-.212-.0877-.065-.043-.12-.0982-.163-.1625-.029-.0439-.052-.0912-.07-.1409-.046-.1503-.107-.2957-.181-.4342-.068-.1207-.155-.2296-.257-.3228-.104-.0817-.227-.1361-.357-.1584-.145-.0163-.293-.0024-.432.0411h-.059c-.062.0209-.129.0185-.189-.0068-.061-.0253-.11-.0718-.138-.1307-.029-.0589-.035-.1263-.018-.1896.017-.0632.057-.118.111-.1541z" fill="#000"/><path d="m151.789 68.3641c-.147-.0031-.292.027-.426.088-.123.0541-.228.1415-.304.2524-.076.1192-.131.25-.164.3873-.033.1563-.05.3155-.052.4753-.042.1183-.121.2201-.224.2904-.104.0703-.227.1054-.352.1001-.125-.0052-.245-.0505-.342-.1293-.098-.0787-.167-.1867-.199-.3081-.005-.0429-.005-.0863 0-.1291.063-.2303.147-.4542.251-.669.12-.2237.281-.4228.474-.5868.204-.1693.447-.2843.707-.3345.248-.041.503-.0229.743.0528.034.0094.066.0256.093.0477.028.0221.051.0496.068.0808s.027.0656.031.101c.003.0354-.001.0711-.011.105-.017.0573-.051.1078-.099.1438-.047.0359-.105.0555-.164.0557z" fill="#000"/><path d="m151.684 58.9102c-1.204 0-2.338.1115-3.016 1.0973l-1.368 1.6842c-1.005 1.2676-3.144 3.4036-4.138 4.3836 1.372-.4684 2.7-1.0575 3.969-1.7605.411-.2301.896-.2901 1.351-.1674s.845.4185 1.086.8247c1.412-.834 2.613-1.9849 3.507-3.3625.164-.2598.257-.558.27-.8651.014-.307-.053-.6122-.194-.8852s-.35-.5042-.607-.6708c-.258-.1665-.554-.2624-.86-.2783z" fill="#ff4dab"/><path d="m146.161 61.6622h-1.321c-2.73 0-4.986 2.5586-5.396 5.1876 1.193-.0911 2.37-.3255 3.507-.6983l.211-.0705c.994-.98 3.133-3.116 4.138-4.3836z" fill="#ff85c6"/><path d="m133.535 103.327c.041.454-.05.911-.263 1.314-.341.537-.865.931-1.473 1.109-.133.028-.251.105-.331.216-.079.111-.114.248-.098.384.016.135.082.26.185.349.104.089.236.136.372.131.043.006.086.006.129 0 .617-.173 1.18-.5 1.637-.95l.064-.294c.173-.757.095-1.55-.222-2.259z" fill="#0087e8"/><path d="m115.222 109.964c.356.05.715.073 1.075.071.399-.002.797-.026 1.193-.071.116-.094.841-.686 1.817-1.537-1.262.44-2.605.596-3.933.457-.071-.012-.144-.01-.214.006s-.136.046-.194.088-.108.095-.145.157c-.038.061-.062.13-.073.201-.011.073-.007.147.011.218s.051.137.095.196c.044.058.099.107.162.144s.133.061.206.07z" fill="#000"/><path d="m131.98 112.711s3.098 1.584 4.425 7.106l-5.781-4.366z" fill="#000"/><path d="m112.357 123.385c-.292-2.271-.713-4.618.766-4.618 1.643 0 9.844 1.097 14.216 2.746l-1.637-9.882 6.015.545c2.046 3.915 1.432 9.918.947 12.911-.404 2.47-2.145 3.438-5.068 2.728s-11.065-1.173-12.994-1.625-2.075-1.485-2.245-2.805z" fill="#0822a5"/><path d="m129.291 121.29c-.688-.433-1.414-.802-2.168-1.103l.216 1.291c.47.213.925.458 1.362.733.089.056.192.086.298.088.118.001.234-.036.329-.107.096-.071.165-.172.198-.286.033-.115.028-.237-.014-.348-.043-.111-.12-.205-.221-.268z" fill="#000"/><path d="m130.624 144h11.48c.09-.359.108-.732.053-1.097h-11.106z" fill="#b0eaff"/><path d="m107.108 133.021c.427.018.848-.099 1.204-.335l-1.297-13.432-1.368-.282z" fill="#b0eaff"/><path d="m140.835 69.1032c0 .798.141 2.6466 1.959 2.136.024-.0074.046-.0208.064-.039s.031-.0405.038-.065c.007-.0246.007-.0504.002-.0753-.006-.0249-.018-.048-.034-.0672-.368-.4225-1.31-1.4905-1.754-1.9893-.019-.0268-.047-.0466-.078-.0563-.032-.0098-.066-.009-.097.0023s-.057.0324-.075.0601-.027.0606-.025.0937z" fill="#000"/><path d="m141.286 70.4411c-.084-.009-.168-.009-.252 0 .096.3082.308.5669.59.7213.283.1544.614.1925.924.1062-.106-.2475-.282-.458-.507-.6052-.224-.1472-.487-.2245-.755-.2223z" fill="#ff85c6"/><path d="m134.721 141.336c-.584.052-.765-.587-.818-1.174-.082-.915.099-2.418 2.736-1.097 1.093.551 1.303.669-.883 2.065-.137.088-.294.141-.456.153z" fill="#b0eaff"/><path d="m109.125 122.962c-.14-.586.473-.851 1.04-.98.825-.193 2.181 0 1.094 1.761-.158.248-.233.539-.217.833.07.828-1.268 1.015-1.753-1.068z" fill="#b0eaff"/><path d="m115.935 71.9202c-.772.5868-2.444 1.4553-5.401 1.3438.538.4124 1.105.7869 1.695 1.1209 3.589-.3345 5.056-2.1009 5.132-2.2006l.438-.5458-.619-.3345c-1.342-.7239-2.415-1.8644-3.057-3.251-.538-.3638-1.099-.7746-1.672-1.2382.476 2.0831 1.721 3.9075 3.484 5.1054z" fill="#4950fa"/><path d="m203.461 116.266c.028-.171.018-.347-.03-.514s-.133-.321-.247-.451c-.115-.131-.257-.234-.416-.302-.159-.069-.332-.101-.505-.094l-5.57.065c-2.253.015-4.419.866-6.085 2.388-.246.229-.386.381-.386.381-1.264 1.515-2.228 3.258-2.841 5.135-.052.155-.076.318-.07.481.016.165.086.319.199.438.114.119.264.197.427.22.568.034 1.138.034 1.706 0 .585.035.895.645 1.573.469.119-.028.23-.086.322-.168.091-.082.162-.186.204-.301l.672-2.412.351 1.038c.03.103.093.194.178.259.085.066.188.102.295.105.213-.006.422-.061.611-.16.189-.1.353-.241.479-.414.126-.172.212-.372.25-.582.038-.211.027-.428-.031-.634l-.368-.845c-.086-.322-.102-.659-.049-.988.054-.329.177-.643.362-.921.184-.277.425-.512.707-.689.281-.177.597-.291.927-.336l6.178-.129c.286-.001.562-.107.775-.299.214-.191.35-.454.382-.74z" fill="#ff85c6"/><path d="m202.246 114.905-3.022.035c-.456.96-1.119 1.806-1.941 2.477l5.004-.106c.157-.003.312-.036.457-.099.144-.063.275-.154.384-.268.109-.113.195-.248.253-.395s.086-.303.083-.461c-.002-.158-.036-.314-.099-.459-.062-.145-.153-.276-.266-.386s-.247-.196-.393-.254c-.147-.058-.303-.087-.46-.084z" fill="#000"/><path d="m189.678 122.592s.544-2.2 1.637-3.298" stroke="#ff6cba" stroke-linecap="round" stroke-miterlimit="10" stroke-width="1.87"/><path d="m208.266 89.6541s12.579-3.8438 8.096 9.1896z" fill="#f6c649" stroke="#ffc42b" stroke-miterlimit="10" stroke-width=".94"/><path d="m213.352 92.0833c3.407 5.0702 7.967 11.5607 2.174 12.2647-3.18.381-7.599-.857-10.977-5.927-3.379-5.0702-4.524-8.7026-1.356-12.4407s6.768 1.0269 10.159 6.103z" fill="#ffe734"/><path d="m227.509 127.786c-.445.123-.917.108-1.354-.044-.436-.152-.816-.434-1.089-.807-1.205-1.614-3.695-.429-3.969-.446.093-.088 2.192-1.004 3.086-3.099 1.222-2.863.473-4.348-.059-4.964-.033-.039-.076-.068-.125-.086-.048-.017-.1-.021-.151-.012-.05.008-.098.03-.137.063-.04.033-.071.075-.089.123-.672 1.76-2.97 2.664-2.97 2.664-2.174.874-1.917 2.817-1.712 4.219.11.773-.047 1.56-.444 2.23-.351.587-4.379 4.531-5.846 5.968-.161.161-.365.27-.587.316s-.453.026-.664-.057l-2.414-.91c-.16-.056-.307-.146-.429-.265-.123-.118-.218-.262-.279-.421-.061-.16-.087-.33-.076-.501.012-.17.06-.336.141-.485.696-1.344 2.128-3.739 2.128-3.739s4.372-7.687 4.372-15.92c.55-13.726-4.921-22.5108-10.387-21.4134-2.922.5868-3.589 3.3918-3.565 5.8682v.4401.6866c0 .4108-.041.8216-.082 1.2324-.137 1.6421-.505 3.2561-1.093 4.7941-.442 1.096-.659 2.269-.637 3.451.02.825.18 1.64.473 2.412.681 1.678.96 3.493.813 5.3-.146 1.806-.713 3.552-1.655 5.098-.899 1.412-2.046 2.648-3.384 3.65-6.611 4.953-6.716 7.142-1.251 15.927h20.23s4.823-8.269 6.009-9.237c.398-.323.754-.44 1-.194 2.624 2.647 5.436.13 6.576-1.238.055-.06.089-.136.097-.217.007-.081-.012-.163-.056-.232-.043-.069-.108-.121-.184-.149-.076-.029-.16-.031-.237-.006z" fill="#ff85c6"/><path d="m210.458 127.533h-18.593c6.014 5.487 16.138 4.378 16.466 3.739.695-1.356 2.127-3.739 2.127-3.739z" fill="#000"/><path d="m195.302 123.133c-1.976 1.478-3.367 2.711-4.203 3.943 3.18 1.813 12.795 5.393 20.996 1.555.421-.722 2.613-8.573 2.73-16.678 0 0-15.005 5.769-16.139 7.529-.9 1.412-2.046 2.649-3.384 3.651z" fill="#ffc42b"/><path d="m207.232 104.771c.068 0 .135-.021.191-.062.055-.04.096-.097.117-.163.021-.065.02-.136-.001-.201-.022-.065-.064-.122-.12-.161-1.105-.622-1.555-1.831-1.958-2.77-.364-1.038-.644-2.1035-.836-3.1866-.257-1.068-.789-3.7498-2.479-3.3977-.853.1819-.988 1.338-1.315 2.9341 0 .2289 0 .4636-.047.6925-.128 1.4084 3.215 5.8157 6.448 6.3147z" fill="#000"/><path d="m210.408 99.8772c.118-1.19-.213-2.1975-.74-2.2504s-1.05.8689-1.168 2.0589c-.119 1.1903.212 2.1973.739 2.2503s1.05-.869 1.169-2.0588z" fill="#fff"/><path d="m209.465 99.712c.076-.8157-.129-1.5022-.474-1.6137-.28.4842-.448 1.0258-.491 1.5844-.073.4913-.087.9903-.041 1.4843.052.016.105.027.158.036.69.07.76-.628.848-1.491z" fill="#000"/><path d="m212.057 103.809c.101-1.016-.181-1.876-.631-1.921-.45-.046-.896.741-.997 1.757s.181 1.876.631 1.921c.449.045.896-.742.997-1.757z" fill="#fff"/><path d="m211.247 103.662c.071-.693-.111-1.28-.403-1.374-.239.415-.381.878-.415 1.356-.065.417-.077.841-.035 1.262.044.015.089.027.134.035.591.058.649-.54.719-1.279z" fill="#000"/><path d="m214.79 134.523c.051-.137.046-.289-.015-.422-.06-.133-.17-.237-.307-.289l-1.479-.557-.35.34c-.139.134-.309.232-.495.284s-.381.058-.569.016l2.507.944c.062.023.127.035.193.036.111 0 .22-.033.312-.096s.162-.152.203-.256z" fill="#000"/><g fill="#ffb800"><path d="m198.639 124.353c-1.603 1.193-3.027 2.612-4.226 4.214.345.129.707.252 1.081.375 1.11-1.402 2.397-2.653 3.829-3.72 3.04-2.377 3.794-6.356 3.981-8.433-.409.188-.801.376-1.169.587-.287 1.977-1.093 5.099-3.496 6.977z"/><path d="m210.897 118.209c-.071.013-.138.04-.198.08s-.112.092-.152.152c-.039.06-.067.128-.08.199s-.012.144.003.214c.713 3.592-1.847 8.539-3.507 11.273.473-.064.953-.152 1.432-.258 1.713-2.934 3.864-7.629 3.145-11.232-.014-.071-.042-.138-.082-.198-.04-.059-.091-.111-.151-.15-.06-.04-.127-.068-.197-.082-.071-.013-.143-.013-.213.002z"/><path d="m207.892 117.129c-.068-.023-.14-.032-.212-.026-.072.005-.142.025-.206.058-.064.032-.121.078-.168.133-.046.055-.082.119-.103.187 0 .059-1.959 6.098-3.227 8.11-.678 1.086-1.993 2.987-3.092 4.554.415.047.83.088 1.251.123 1.017-1.461 2.139-3.092 2.77-4.107 1.333-2.131 3.256-8.11 3.338-8.363.04-.135.026-.281-.039-.406-.066-.125-.178-.219-.312-.263z"/></g><path d="m215.924 121.495c-1.093-3.298-1.093-5.493-1.093-9.882.058-1.438.046-2.811 0-4.108-2.713-.81-8.184 7.969-14.736 3.439.149 1.506.149 3.024 0 4.53-.713 2.347-3.759 4.695-3.829 4.941 5.278 3.556 15.829 3.275 19.658 1.08z" fill="#2f33e1"/><path d="m214.831 112.118-2.415.281s.187 3.474 2.59 4.924c-.151-1.731-.21-3.468-.175-5.205z" fill="#000"/><path d="m212.416 112.4c.047.242.145.472.288.674.143.201.328.369.541.493.214.123.451.199.696.223.246.023.493-.007.726-.088l6.956-2.435c1.768-.614 3.385-1.601 4.743-2.893s2.425-2.861 3.13-4.601c.123-.305.187-.481.187-.481 1.052-3.146 1.597-6.4405 1.614-9.759 0-.2363-.041-.4708-.123-.6924-.102-.2145-.273-.3886-.484-.4949-.212-.1063-.453-.1387-.685-.092-.585.047-1.473.5869-2.309.804s-1.514-.4695-2.338.0763c-.148.096-.27.2259-.358.379-.087.1531-.137.3249-.145.5012l.129 4.8766c-.004.0665-.029.1302-.07.1825-.041.0524-.097.0911-.16.1108s-.131.0196-.195-.0003c-.063-.0199-.119-.0586-.16-.1111l-.818-1.3615c-.059-.0966-.151-.1678-.259-.1993-.109-.0315-.225-.0211-.326.0292-.291.1413-.55.3435-.757.5931-.208.2496-.36.5408-.446.8542-.086.3133-.105.6416-.055.9628.051.3208.169.6278.346.8998l1.14 1.76c.261.399.434.848.507 1.319.074.47.047.951-.079 1.41-.126.46-.349.887-.652 1.253-.304.366-.682.663-1.108.871l-8.347 3.005c-.382.14-.704.41-.909.762-.206.352-.284.765-.22 1.169z" fill="#ff85c6"/><path d="m227.965 94.5952c.297 2.3977.108 4.8309-.556 7.1538" stroke="#ff6cba" stroke-linecap="round" stroke-miterlimit="10" stroke-width="1.87"/><path d="m227.509 127.786c-.445.123-.917.108-1.354-.044-.436-.152-.816-.433-1.089-.807-.994-1.326-2.859-.763-3.642-.528-.053 0-.082-.059-.035-.088 1.221-.651 2.201-1.68 2.794-2.934 1.222-2.87.468-4.354-.059-4.965-.033-.038-.076-.068-.125-.085-.048-.017-.1-.022-.151-.013-.05.009-.098.031-.137.063-.04.033-.071.075-.089.123-.672 1.761-2.97 2.665-2.97 2.665-2.174.874-1.917 2.816-1.712 4.219.11.772-.047 1.559-.444 2.23-.14.208-.296.405-.468.587.587-.413 1.207-.778 1.853-1.092.059-.025.125-.034.189-.026s.125.033.177.072c.051.04.092.092.117.152s.034.125.025.189c-.134 1.092-1.402 3.386-1.262 3.791.337-.523.729-1.009 1.169-1.449.397-.323.754-.44.999-.194 2.625 2.647 5.436.129 6.576-1.238.065-.056.107-.133.121-.218s-.002-.172-.044-.246c-.043-.074-.11-.131-.19-.161s-.168-.031-.249-.003z" fill="#ff5eb3"/><path d="m205.753 108.163s1.917 1.244 2.712-1.174" stroke="#ff6cba" stroke-linecap="round" stroke-miterlimit="10" stroke-width="1.65"/><path d="m205.168 109.964s1.169.587 1.532-1.232" stroke="#ff6cba" stroke-linecap="round" stroke-miterlimit="10" stroke-width="1.65"/><path d="m201.842 99.4012s2.216-2.0832 1.31 1.3148z" fill="#fff"/><path d="m202.719 101.438s2.216-2.0836 1.31 1.314z" fill="#fff"/><path d="m207.723 104.477c-.07.663-2.186.546-4.922-4.395-1.795-3.2393-3.279-1.8134-3.057 0 .13.938.064 1.893-.193 2.805-.329 1.229-.496 2.495-.497 3.767 0 .552 7.599 0 7.599 0l2.706-1.649z" fill="#ff85c6"/><path d="m200.223 134.124s-1.438 2.588-3.635.328" stroke="#ff6cba" stroke-linecap="round" stroke-miterlimit="10" stroke-width="1.65"/><path d="m202.024 135.362s-1.392 1.215-2.403-.299" stroke="#ff6cba" stroke-linecap="round" stroke-miterlimit="10" stroke-width="1.65"/><path d="m208.383 114.072c0 1.132-1.829 3.227-4.091 3.227-.391.026-.782-.032-1.149-.17-.366-.138-.699-.354-.975-.631-.277-.278-.492-.612-.629-.98-.138-.368-.196-.761-.17-1.153.07-1.132.66 0 2.923 0 2.262 0 4.091-1.426 4.091-.293z" fill="#4247ff"/><path d="m173.662 63.3759c-.358-.2328-.664-.5394-.895-.8995-.232-.3602-.385-.7656-.449-1.1896l-.216-1.4612c-.007-.0348-.025-.0664-.051-.0898-.027-.0234-.06-.0372-.095-.0393-.036.0021-.069.0159-.096.0393-.026.0234-.044.055-.051.0898l-.216 1.4612c-.064.424-.217.8294-.449 1.1896-.231.3601-.537.6667-.895.8995l-.187.1233c-.023.0114-.041.0291-.054.051-.012.0219-.018.047-.016.0722-.001.0258.005.0513.017.074.013.0227.031.0417.053.0551l.187.1174c.359.2334.665.541.897.9022.231.3612.384.7678.447 1.1927l.216 1.4612c.007.0342.025.0651.052.0876.026.0224.06.035.095.0357.034-.0007.068-.0133.094-.0357.027-.0225.045-.0534.052-.0876l.216-1.4729c.063-.425.216-.8316.448-1.1928.231-.3612.537-.6687.896-.9022l.193-.1173c.02-.0149.037-.0344.048-.0568.011-.0225.017-.0472.017-.0723 0-.0244-.005-.0486-.016-.0702-.012-.0216-.028-.0399-.049-.0531z" fill="#ff6cba"/><path d="m203.169 74.4844c-.246-.1591-.456-.3692-.615-.616-.159-.2469-.264-.525-.308-.8158l-.152-1.0035c-.003-.0244-.015-.0468-.033-.0631-.019-.0162-.042-.0251-.067-.0249-.024.001-.047.0103-.065.0263s-.03.0378-.034.0617l-.146 1.0035c-.044.2907-.15.5686-.309.8154-.159.2469-.369.457-.615.6164l-.128.0822c-.015.0096-.027.0227-.035.0381-.008.0153-.012.0325-.012.0499 0 .0166.004.033.012.0474.008.0145.02.0264.035.0348l.128.088c.247.1589.457.3688.616.6157.159.247.264.5252.308.8161l.146 1.0035c.004.0233.016.0444.035.0594.018.0151.041.0231.064.0228.024.0016.048-.0059.066-.0212.019-.0153.031-.0371.034-.061l.152-1.0035c.042-.2905.146-.5686.304-.8156.159-.2469.368-.457.613-.6162l.135-.088c.014-.0084.026-.0203.034-.0348.008-.0144.013-.0308.013-.0474 0-.0174-.005-.0346-.013-.0499-.008-.0154-.02-.0285-.034-.0381z" fill="#73daff"/><path d="m149.054 81.4738c-.2-.1299-.369-.3024-.496-.5052-.126-.2028-.206-.431-.235-.6685l-.123-.798c-.002-.0188-.011-.036-.025-.0488-.014-.0129-.032-.0205-.051-.0217-.019-.0002-.039.0069-.054.0198-.015.013-.025.031-.027.0507l-.117.798c-.031.2375-.113.4655-.24.6681s-.297.3751-.497.5056l-.105.0646c-.011.0078-.02.0184-.026.0307-.007.0123-.01.0259-.009.0397-.001.0137.002.0274.009.0397.006.0123.015.0228.026.0307l.105.0645c.2.1305.37.303.497.5057.127.2026.209.4305.24.668l.117.7981c.002.0197.012.0377.027.0506.015.013.035.02.054.0198.019-.0012.037-.0088.051-.0216.014-.0129.023-.0301.025-.0488l.123-.7981c.029-.2374.109-.4657.235-.6685.127-.2028.296-.3753.496-.5052l.105-.0645c.011-.0079.02-.0184.027-.0307.006-.0123.009-.026.008-.0397.001-.0138-.002-.0274-.008-.0397-.007-.0123-.016-.0229-.027-.0307z" fill="#fbe573"/><path d="m222.95 87.512c-.259-.1679-.48-.3892-.647-.6493-.167-.26-.278-.5527-.324-.8588l-.158-1.0563c-.004-.0249-.017-.0474-.036-.0635-.019-.0162-.044-.0249-.069-.0245-.025-.0017-.05.0065-.07.0229s-.032.0397-.035.0651l-.158 1.0563c-.046.3061-.156.5988-.323.8588-.168.2601-.388.4814-.647.6493l-.135.0881c-.014.0096-.026.0227-.034.0381-.008.0153-.012.0325-.012.0499 0 .0174.004.0345.012.0499.008.0153.02.0284.034.0381l.135.088c.259.168.479.3893.647.6493.167.26.277.5528.323.8589l.158 1.0563c.003.0254.015.0487.035.0651s.045.0246.07.0229c.025.0003.05-.0083.069-.0245.019-.0161.032-.0387.036-.0635l.158-1.0563c.046-.3061.157-.5989.324-.8589s.388-.4813.647-.6493l.134-.088c.014-.0097.026-.0228.034-.0381.009-.0154.013-.0325.013-.0499s-.004-.0346-.013-.0499c-.008-.0154-.02-.0285-.034-.0381z" fill="#8086ff"/><path d="m158.991 113.808-2.338 6.455c-.552 1.551-.683 3.222-.38 4.841l2.467 13.427h10.609c-.205-.951-.515-2.347-.854-3.908-1.303-5.927-2.922-11.467.374-17.505z" fill="#0822a5"/><path d="m166.163 116.419.497 5.487c.098 2.675.77 5.297 1.97 7.687l5.26 8.95h11.79l-6.57-10.387c-1.365-2.333-1.977-5.033-1.753-7.729l.152-1.837z" fill="#0822a5"/><path d="m159.575 116.419s5.302 6.749 19.155 10.563l2.186-4.319s-20.803-3.691-21.341-6.244z" fill="#000"/><path d="m156.068 115.246c7.317 5.152 15.934 8.126 24.86 8.579l.503-2.265-22.376-8.849z" fill="#4247ff"/><path d="m168.343 98.4329s-1.093-10.4279.772-16.2198c1.629-.8067 3.467-1.0855 5.261-.7981 0 0-.544 3.2979 0 4.3953 0 0 2.747-6.3612 7.423-8.7085 0 0 7.891 1.5727 10.077 8.7085 0 0-3.279 1.0974-4.372 4.3895 0 0 2.73-2.1948 6.015-2.1948 1.636 1.0974 3.279 4.3895 2.729 8.8024-1.894-.3483-3.85.0443-5.465 1.0974 0 0 3.279 0 4.922 1.0974-.396 2.1188-1.135 4.1588-2.186 6.0388 0 0-5.179-2.195-10.522 0z" fill="#40e991"/><path d="m178.192 122.041s-13.414-3.274-20.37-8.139c-.445-.308-.805-.724-1.045-1.21s-.352-1.025-.327-1.567c.026-.542.189-1.068.474-1.529s.683-.841 1.155-1.105c2.923-1.567 6.377-3.65 9.721-10.0579l17.494 10.4339s0 5.487-7.102 13.174z" fill="#2f33e1"/><path d="m187.048 119.353c.814-1.225 1.345-2.618 1.554-4.076.208-1.458.089-2.945-.35-4.351l-.035-.123c-.719-2.32-2.151-4.352-4.092-5.804-4.091-3.034-7.487-5.9677-17.588-8.3326-.615-.1454-1.17-.4785-1.589-.9535-.418-.475-.68-1.0685-.749-1.699-.248-3.0968-.138-6.2121.327-9.2836.544-4.9411 5.466-7.6874 5.466-7.6874-.544-3.8437-6.015-4.9411-6.015-4.9411-1.643 1.649-3.32 5.4927-3.32 5.4927-.544-1.0974 0-3.298 0-3.298l-2.145.5517s-3.829 19.2126-2.192 24.1537c1.864 5.6101 8.767 4.9411 8.767 4.9411s18.594 8.802 18.436 8.949c-5.71 5.921-7.376 10.833-7.856 13.362-.102.545-.019 1.109.235 1.602.254.492.666.885 1.168 1.115 4.998 2.295 7.704-.874 7.704-.874-.082-.106-.158-.217-.228-.329-.433-.727-.649-1.564-.622-2.411.026-.847.295-1.668.774-2.366z" fill="#2f33e1"/><path d="m164.526 84.7306c.544-4.941 5.466-7.6874 5.466-7.6874-.544-3.8437-6.015-5.4868-6.015-5.4868-2.736 2.1947-3.32 6.0384-3.32 6.0384-.544-1.0973 0-3.2979 0-3.2979l-2.145.5516c-.993 2.1457-1.41 4.5145-1.21 6.8717 5.032-.2875 7.213 3.0867 7.213 3.0867z" fill="#40e991"/><path d="m176.345 94.2783c-.584 2.9752-.584 5.4868-1.268 5.346s-1.83-2.8813-1.228-5.8683c.603-2.9869 2.713-5.0525 3.402-4.9117.69.1408-.309 2.4647-.906 5.434z" fill="#fff"/><path d="m175.942 89.8947c-.057-.0271-.118-.0431-.181-.0469-.86 1.004-1.48 2.1924-1.812 3.474.063.1258.166.2269.292.2875.538.2524 1.362-.3814 1.83-1.4025.467-1.0211.421-2.0656-.129-2.3121z" fill="#000"/><path d="m180.998 96.4668c-1.975 2.2886-3.185 4.4892-3.717 4.0252-.532-.463-.182-3.409 1.794-5.6976 1.976-2.2887 4.84-3.0574 5.372-2.5938s-1.491 1.9776-3.449 4.2662z" fill="#fff"/><path d="m181.688 92.9461c-.048-.0493-.103-.0908-.164-.1232-.927.5004-1.756 1.1644-2.449 1.96-.351.4032-.662.8395-.929 1.3027-.001.0157-.001.0313 0 .047.462.5164 1.625.223 2.595-.6573.97-.8802 1.415-2.001.947-2.5292z" fill="#000"/><path d="m180.928 100.199s3.244-4.1078 5.448-2.0421c2.203 2.0661-2.508 4.3951-5.448 2.0421z" fill="#000"/><path d="m182.635 101.039c1.753.44 3.612-.217 4.15-1.174-.468-.2058-.974-.3098-1.485-.3052-1.303-.0234-2.39.6162-2.665 1.4792z" fill="#ff85c6"/><path d="m168.343 98.4329 14.613 6.5901c1.31-.534 2.865 0 3.817-.916-1.502-5.1225-4.781-2.347-6.967-5.1225-4.858-6.0913-8.768-5.4868-11.773-5.2286-.459 1.5457-.349 3.206.31 4.677z" fill="#2f33e1"/><path d="m188.001 97.3239c.344.3711.569.8371.648 1.338.078.5009.005 1.0139-.21 1.4731" stroke="#22c774" stroke-linecap="round" stroke-miterlimit="10" stroke-width="1.87"/><path d="m185.347 104.683c-1.232-1.201-2.652-2.192-4.203-2.934-.13-.043-.272-.036-.397.021s-.224.158-.278.285c-.055.126-.06.269-.015.399s.137.238.258.304c1.125.536 2.176 1.216 3.127 2.024.509-.052 1.023-.052 1.508-.099z" fill="#000"/><path d="m167.905 97.0539c.62.1644 1.212.4237 1.753.7687.09.0617.196.0945.304.0939.091-.0003.18-.0229.259-.0659.08-.043.147-.105.197-.1805.041-.0595.069-.1264.083-.197.014-.0705.014-.1431 0-.2136-.014-.0706-.042-.1375-.083-.197-.04-.0595-.092-.1103-.152-.1494-.772-.483-1.62-.8322-2.507-1.0329.017.3945.066.787.146 1.1737z" fill="#000"/><path d="m166.835 118.332c-.349-.337-.669-.702-.958-1.091-.458-.666-.712-1.451-.731-2.26-.013-.376.05-.752.187-1.103.356-.868 1.251-1.391 2.198-1.942.374-.217.754-.44 1.11-.693 1.602-1.123 2.699-2.835 3.052-4.765.08-.505.133-1.014.157-1.525.035-.446.065-.863.129-1.28.081-.8.451-1.543 1.04-2.089.202-.145.415-.273.638-.381.495-.214.93-.547 1.268-.969.288-.4661.461-.9954.503-1.5429 0-.1408.035-.2758.064-.4108.179-.9164.663-1.7444 1.374-2.3473-.304-.2465-.585-.4636-.906-.6631-.796.746-1.337 1.7259-1.544 2.7992 0 .1467-.052.2992-.076.4518-.021.3761-.124.7429-.304 1.0739-.247.2727-.55.4892-.888.6342-.276.135-.54.294-.789.475-.829.71-1.351 1.716-1.456 2.805-.076.464-.111.927-.14 1.379-.026.472-.077.942-.152 1.408-.298 1.643-1.228 3.102-2.589 4.061-.322.223-.672.429-1.041.64-1.058.622-2.157 1.262-2.659 2.47-.194.493-.285 1.02-.269 1.55.022.927.293 1.831.783 2.617.719.305 1.444.587 2.169.88z" fill="#4247ff"/><path d="m180.373 116.026c.94-1.402 2.255-2.511 3.793-3.198" stroke="#000" stroke-linecap="round" stroke-miterlimit="10" stroke-width="1.87"/><path d="m181.478 114.354c-1.099-2.195-.246-5.112-.246-5.112" stroke="#000" stroke-linecap="round" stroke-miterlimit="10" stroke-width="1.87"/><path d="m184.675 122.986.403-.587s-.953-4.196-5.956-4.108c0 0-.9 1.426-1.263 2.089-.407.767-.947 1.455-1.595 2.031-.94.791-2.051 1.352-3.245 1.637l1.345 2.382c.446-.102.887-.227 1.321-.375 0 .123-.047.24-.064.352-.091.486-.02.988.201 1.43.22.442.579.799 1.02 1.017 5.132 2.482 7.915-.775 7.915-.775-.074-.094-.142-.192-.205-.293-.445-.726-.67-1.566-.648-2.418.022-.853.29-1.68.771-2.382z" fill="#40e991"/><path d="m178.683 125.58c.033-.065.052-.135.057-.206.005-.072-.005-.144-.027-.212-.023-.069-.059-.131-.106-.186-.047-.054-.105-.098-.169-.13-.064-.033-.134-.053-.205-.058-.072-.006-.144.004-.212.026-.068.023-.131.06-.185.108-.054.047-.098.106-.129.171-.041.07-.666 1.384-.52 3.92.367.164.744.305 1.128.422-.234-2.529.357-3.826.368-3.855z" fill="#22c774"/><path d="m182.009 126.542c.015-.071.015-.143.001-.214s-.041-.138-.081-.198c-.039-.06-.09-.111-.15-.151-.059-.04-.126-.069-.196-.083-.142-.029-.29 0-.41.081-.121.08-.205.205-.233.348-.209 1.14-.209 2.31 0 3.45.362-.022.722-.077 1.075-.164-.181-1.015-.183-2.054-.006-3.069z" fill="#22c774"/><path d="m171.634 138.513s1.97-5.076 7.108-2.201c2.023 1.149 4.248 1.896 6.552 2.201z" fill="#1a9af5"/><path d="m167.127 73.0703c-.346-.2308-.685-.4362-1.017-.6162-1.076.8934-1.968 1.9899-2.624 3.2275-.056.1321-.063.2803-.017.4166.045.1362.138.2511.262.3228.077.0362.161.0561.246.0587.101-.0038.199-.0339.285-.0874.087-.0535.157-.1285.206-.2177.654-1.2148 1.561-2.2736 2.659-3.1043z" fill="#22c774"/><path d="m169.425 75.4235c-.181-.323-.392-.6276-.632-.9096-1.09.5497-2.032 1.3548-2.747 2.3473-.054.0833-.084.1796-.087.2787-.004.0991.019.1974.066.2845s.117.1598.202.2104c.085.0507.182.0774.281.0773.091-.0004.18-.0237.26-.0678s.147-.1075.196-.1845c.637-.8755 1.483-1.5758 2.461-2.0363z" fill="#22c774"/><path d="m164.094 103.943 1.905-2.464s-2.022 1.349-6.394 1.349c1.368.772 2.92 1.157 4.489 1.115z" fill="#000"/><path d="m154.133 138.513s1.935-5.076 7.108-2.201c2.03 1.143 4.258 1.89 6.564 2.201z" fill="#1a9af5"/><path d="m158.494 144c1.207 0 2.186-.982 2.186-2.195 0-1.212-.979-2.194-2.186-2.194s-2.186.982-2.186 2.194c0 1.213.979 2.195 2.186 2.195z" fill="#000"/><path d="m197.499 144c1.208 0 2.186-.982 2.186-2.195 0-1.212-.978-2.194-2.186-2.194-1.207 0-2.186.982-2.186 2.194 0 1.213.979 2.195 2.186 2.195z" fill="#000"/><path d="m228.684 131.923h-3.461c-.501 0-.993.132-1.428.382-.434.25-.796.61-1.05 1.044l-.754 1.297c-.683 1.176-1.66 2.152-2.836 2.831-1.175.678-2.507 1.036-3.863 1.036h-55.267c-1.356 0-2.689-.357-3.866-1.036-1.176-.678-2.155-1.654-2.838-2.831l-.894-1.543c-.21-.358-.509-.654-.868-.86s-.765-.314-1.178-.314h-3.747c-.409 0-.812.104-1.17.303-.358.2-.66.488-.876.836-.217.349-.341.748-.362 1.158-.02.411.064.82.245 1.189 1.304 2.67 4.004 6.009 6.968 6.009h72.434c1.841 0 3.577-1.291 4.945-2.905.798-.948 1.477-1.99 2.023-3.104.182-.369.267-.778.248-1.189-.02-.411-.143-.81-.359-1.159-.216-.35-.518-.639-.876-.839s-.76-.305-1.17-.305z" fill="#40e991"/><path d="m178 144c1.207 0 2.186-.982 2.186-2.195 0-1.212-.979-2.194-2.186-2.194-1.208 0-2.187.982-2.187 2.194 0 1.213.979 2.195 2.187 2.195z" fill="#000"/><path d="m178 142.686c.484 0 .876-.395.876-.881s-.392-.88-.876-.88c-.485 0-.877.394-.877.88s.392.881.877.881z" fill="#40e991"/><path d="m216.824 144c1.207 0 2.186-.982 2.186-2.195 0-1.212-.979-2.194-2.186-2.194-1.208 0-2.186.982-2.186 2.194 0 1.213.978 2.195 2.186 2.195z" fill="#000"/><path d="m216.824 142.686c.484 0 .877-.395.877-.881s-.393-.88-.877-.88-.877.394-.877.88.393.881.877.881z" fill="#40e991"/></g></svg>