<svg xmlns="http://www.w3.org/2000/svg" viewBox="0 0 262 100">
  <defs>
    <linearGradient id="line-gradient" x1="0" x2="1" y1="0" y2="1">
      <stop style="fill: var(--secondary-1, #ed1c24); stop-color: var(--secondary-1, #ed1c24);" offset="0%"/>
      <stop style="fill: var(--primary-0, #0f0); stop-color: var(--primary-0, #0f0);" offset="50%"/>
      <stop style="fill: var(--primary-0, #0f0); stop-color: var(--primary-0, #0f0);" offset="80%"/>
      <stop style="fill: var(--secondary-1, #ed1c24); stop-color: var(--secondary-1, #ed1c24);" offset="100%"/>
    </linearGradient>
    <style>
      .heightmap-line{fill:url(#line-gradient)}
    </style>
  </defs>
  <g id="wrapper-layer" data-name="Layer 6">
    <path d="M0 0h262v100H0z" id="Layer_3" data-name="Layer 3" style="fill: var(--secondary-0, #000000)"/>
    <g>
      <polygon style="fill: var(--secondary-1, #ed1c24); stop-color: var(--secondary-1, #ed1c24);" points="197.83 9.52 197.83 7.52 195.71 7.52 195.71 5.4 193.71 5.4 193.71 7.52 191.58 7.52 191.58 9.52 193.71 9.52 193.71 11.65 195.71 11.65 195.71 9.52 197.83 9.52"/>
      <polygon style="fill: var(--secondary-1, #ed1c24); stop-color: var(--secondary-1, #ed1c24);" points="208.94 12.7 205.38 12.7 205.38 9.13 203.38 9.13 203.38 12.7 199.81 12.7 199.81 14.7 203.38 14.7 203.38 18.27 205.38 18.27 205.38 14.7 208.94 14.7 208.94 12.7"/>
      <polygon style="fill: var(--secondary-1, #ed1c24); stop-color: var(--secondary-1, #ed1c24);" points="21.55 84.52 19.55 84.52 19.55 88.09 15.98 88.09 15.98 90.09 19.55 90.09 19.55 93.66 21.55 93.66 21.55 90.09 25.12 90.09 25.12 88.09 21.55 88.09 21.55 84.52"/>
    </g>
  </g>
  <g class="heightmap-line">
      <path id="heightmap-lines-0" d="M0 95.65v1A6.69 6.69 0 0 1 4.37 100h1.08C4.36 97.12 1.54 96 0 95.65ZM8.71 92.63c-.57-.57-1.11-1.12-1.64-1.63A8.36 8.36 0 0 0 0 88.93v1a7.44 7.44 0 0 1 6.39 1.81c.52.49 1.05 1 1.61 1.58 2.39 2.42 5.24 5.29 10.11 6.67h6.51a9.62 9.62 0 0 0-1.4-.2c-7.78-.35-11.51-4.13-14.51-7.16ZM17 79.46c-.85.12-1.76.24-2.75.35-6.07.65-11.69 1.13-14.25 1.34v1c2.53-.21 8.21-.7 14.37-1.36 1-.1 1.92-.23 2.78-.35 6.31-.86 8.92-1.22 14.5 10.1a66.19 66.19 0 0 0 5.51 9.46h1.25a62.28 62.28 0 0 1-5.87-9.89C26.65 78.14 23.42 78.58 17 79.46ZM199.05 68.31c-3.83-6.05-8-6.19-12.38-6.34-1 0-2.12-.08-3.22-.19a24.39 24.39 0 0 1-8.31-2.7 53.21 53.21 0 0 0-7.57-3c-7.41-2.24-11.29.73-16.82 5.89A204.46 204.46 0 0 1 130 78.55c-6.13 4.19-14.83.26-14.93.22-.25-.11-24.87-10.63-35.57-14.83-10.25-4-16-7-20.84-13.32-3.74-4.84-6.89-6-10.86-7.58-1.22-.46-2.48-.95-3.89-1.58-6.06-2.7-14-20.29-18.75-30.8-2.57-5.72-5.5-8.9-7.82-10.66h-1.81c2.29 1.41 5.75 4.48 8.74 11.08 5.11 11.32 12.84 28.44 19.25 31.3C45 43 46.23 43.51 47.46 44c4 1.53 6.86 2.63 10.43 7.26 5 6.45 10.84 9.54 21.27 13.63 10.68 4.19 35.29 14.71 35.52 14.81s9.3 4.21 15.9-.31a205.51 205.51 0 0 0 20.86-16.69c5.24-4.9 8.81-7.79 15.84-5.66a50.94 50.94 0 0 1 7.44 3 25.16 25.16 0 0 0 8.63 2.78c1.13.12 2.23.16 3.29.2 4.3.14 8 .27 11.57 5.87a83.14 83.14 0 0 1 9.12 19.52 53 53 0 0 0 5.61 11.59h1.19a52.5 52.5 0 0 1-5.86-12 83.39 83.39 0 0 0-9.22-19.69Z"/>
    </g>
    <g class="heightmap-line">
      <path id="heightmap-lines-1" d="M184.7 69.18c-5.06 1-8.55.37-13.81-2.38-4.31-2.25-8.93-4.36-13.53-4.61-4.18-.2-9.11 4.17-14.64 9.49a101.31 101.31 0 0 1-16.24 12.43c-3.31 2-5.34 1.46-6.14 1.06l-.37-.23a12.32 12.32 0 0 0-6.62-2 12.72 12.72 0 0 0-2.12.24L67.1 64.72c-3.6-1.51-7.17-4-11.29-6.85l-2.27-1.56A35.3 35.3 0 0 0 49 53.73c-2.94-1.46-5.73-2.84-10.67-8.08S29.38 33 25.18 25.29c-2-3.66-4-7.45-6.26-11.15A46.37 46.37 0 0 0 5.67 0H3.86a44.84 44.84 0 0 1 14.2 14.66c2.22 3.67 4.27 7.45 6.24 11.11 4.23 7.81 8.22 15.23 13.3 20.57s8.06 6.85 11 8.29a33.61 33.61 0 0 1 4.4 2.5l2.26 1.57c4.17 2.89 7.77 5.39 11.48 6.94l42.92 18a13.35 13.35 0 0 0-4.45 2.61c-2.43-1-48.5-20-58.78-24.86-9.19-4.34-13.58-11.89-16.49-16.88-.42-.73-.82-1.41-1.2-2-3-5-4.25-6.67-11-16.12-5.2-7.26-14-15-17.73-18.15v1.28c4 3.41 12.06 10.63 16.92 17.42 6.74 9.42 8 11.13 11 16.06.37.62.77 1.29 1.19 2 3 5.1 7.45 12.81 16.91 17.27C55.93 67 99.26 84.88 104.41 87c-.28.29-.46.52-.58.66a28.18 28.18 0 0 0-6.2 1.79l.05-.12c-.46-.19-46.47-18.68-56.11-23.7C33 61.14 27.42 51.55 24.75 47c-.34-.58-.63-1.1-.89-1.52a70.45 70.45 0 0 0-8.14-10.78 25.7 25.7 0 0 0-2.87-3c-.64-.56-1.53-1.34-3.93-3.82A114.88 114.88 0 0 0 0 19.74V21c2.24 1.87 5.41 4.63 8.2 7.5 2.43 2.51 3.33 3.31 4 3.88a25 25 0 0 1 2.8 2.93 70 70 0 0 1 8 10.63c.26.43.55.93.88 1.51 2.72 4.69 8.38 14.44 17.23 19.06s49.14 20.9 55.38 23.42a55.26 55.26 0 0 0-5.33 2.68c-6.37-2.65-35.68-14.84-41-16.7-6.08-2.14-13.64-5.89-16.64-10a30.07 30.07 0 0 0-5.52-6c-.63-.55-1.33-1.16-2.17-1.94-3.28-3-4.39-4.07-11.38-16.15A42.31 42.31 0 0 0 0 26.89v1.18a41.15 41.15 0 0 1 13.61 14.27C20.38 54 21.69 55.48 25.18 58.71c.85.79 1.56 1.41 2.19 2a29.19 29.19 0 0 1 5.37 5.85c3.95 5.39 14.1 9.27 17.12 10.33 4.74 1.67 29 11.71 38.39 15.63a37.75 37.75 0 0 0-5 .12c-1.72.11-3.62.24-6.09.19-2.79-.06-6.67-2.94-7.2-3.34a27.92 27.92 0 0 0-7-6.69c-4.91-3-11.26-2-12.29-1.82a29.83 29.83 0 0 0-4.15-1c-9.93-2.89-12.74-8-15-12.06a20.91 20.91 0 0 0-2.29-3.59c-3.19-3.72-8.78-3.64-9.9-3.58-4.93-4.9-7.77-12-10.31-18.33-.37-.93-.73-1.84-1.09-2.73-2.26-5.47-5.74-7.84-7.93-8.84V32a15.14 15.14 0 0 1 7 8.08l1.1 2.72c2.36 5.9 5 12.42 9.29 17.35-1-.6-1.91-1.11-2.6-1.5-1.81-1.38-3.24-4.35-5.84-9.72-.8-1.66-1.71-3.54-2.78-5.69C4 38.89 1.79 36.67 0 35.55v1.24c1.54 1.12 3.4 3.21 5.25 6.87 1.07 2.15 2 4 2.78 5.68 1.12 2.32 2 4.2 2.86 5.72a72.08 72.08 0 0 1-5.8-7.54A20.36 20.36 0 0 0 0 42v1.27a19.91 19.91 0 0 1 4.25 4.8 70.7 70.7 0 0 0 5.15 6.8C6 52.55 2.34 50.45 0 49.17v1.15c3.92 2.17 10.9 6.26 14.31 9.76a157.78 157.78 0 0 1 10.47 12.47 9 9 0 0 0-1.64 0c-.87-1.38-4.21-3.46-5.29-4.11 0 0-7.34-4.81-10.47-6.83-2.24-1.44-5.52-1.9-7.38-2v1a16.32 16.32 0 0 1 6.84 1.89c3.12 2 10.46 6.82 10.48 6.83a28.44 28.44 0 0 1 4.68 3.4 14.22 14.22 0 0 0-4.34 1.72 21 21 0 0 1-2.58 1.25c-1.83.37-4.71.47-8.75-2.68A50.58 50.58 0 0 0 0 68.87V70a48.68 48.68 0 0 1 5.76 3.79 13.69 13.69 0 0 0 6 2.92A26.8 26.8 0 0 1 0 76.45v1a26 26 0 0 0 15.34-.82 22.51 22.51 0 0 0 2.82-1.34c8.07-4.67 12.74.68 17.26 5.86.41.47.81.93 1.21 1.37a15.17 15.17 0 0 0 7.75 4.62 14.73 14.73 0 0 1 6.09 3.15l1.65 1.52c3.78 3.5 6.51 6 10.92 6.17a11.62 11.62 0 0 1 5.62 2h1.78a13.74 13.74 0 0 0-7.36-3c-4-.13-6.66-2.56-10.28-5.91-.53-.49-1.08-1-1.66-1.53a15.6 15.6 0 0 0-6.46-3.36 14.16 14.16 0 0 1-7.3-4.33l-1.2-1.37a2.2 2.2 0 0 1-.2-.23c3.31-.07 13.68 0 18.63 3.65 1.39 1 2.59 2 3.75 3 3.87 3.24 7.21 6 14.66 6.64 1.54.13 2.88.18 4.09.2h.16c2.43 0 4.3-.09 6-.2a28.26 28.26 0 0 1 7.58.19c3.83.66 8.4 4 11.08 6.21h1.56c-2.25-1.94-6.87-5.6-11.14-6.87h-.06c2.66-1.47 9.62-5 14.27-4.56s12 8.32 14.71 11.46h1.32c-2.19-2.58-10.48-11.93-15.93-12.45a9.27 9.27 0 0 0-1.4 0 12 12 0 0 1 8-3.56 11.1 11.1 0 0 1 6 1.76 2.82 2.82 0 0 0 .57.35c1 .6 2 1.27 3 2a40.38 40.38 0 0 0 7.41 4.35l1.31.55c5.36 2.24 8.9 3.72 11.74 7h1.29c-3.11-4-7-5.62-12.64-8l-1.32-.55a34 34 0 0 1-6-3.42 47.51 47.51 0 0 0 11.61-1.47c6.62-1.73 13.08.62 16.07 5.83 2 3.42 3.23 6.1 3.9 7.58h1.09a86.38 86.38 0 0 0-4.13-8.07c-3.21-5.62-10.12-8.15-17.18-6.31-.53.14-1 .26-1.55.37 1.28-.61 2.84-1.36 4.52-2.21 4.58-2.31 13.57-4.38 18.24 2.49a94.59 94.59 0 0 1 7.5 13.73h1.1a97.37 97.37 0 0 0-7.77-14.29c-2.74-4-6.81-5.23-10.74-5.11a18.14 18.14 0 0 1 5.76-1.16c3.48.14 10.48 3.07 13.1 7.16 2.11 3.29 5.8 10.45 7.3 13.4h1.12c-1.31-2.6-5.33-10.43-7.58-13.94-2.05-3.21-6.45-5.68-10.15-6.86a15.14 15.14 0 0 1 2.83.5l1.65.43c4.14 1.07 9.82 2.54 12.9 5.4S184 97.05 186.18 100h1.25c-1.58-2.11-9.16-12.15-12.46-15.21s-9.09-4.53-13.33-5.63l-1.64-.43c-3.77-1-5.86-.43-6.37-.25h-.47c-3.61-.15-9.59 2.53-10.24 2.82a22.4 22.4 0 0 0-4.34 1.63c-4.05 2-7.37 3.53-7.89 3.77l-1 .12a106.08 106.08 0 0 1 16.73-7.55c8.78-2.8 12.44-2.39 16.66-1.52a59 59 0 0 0 11.4 1h1.61c4.62.12 8.68 3.78 11.43 10.31a67.52 67.52 0 0 0 6 11h1.21a66.48 66.48 0 0 1-6.29-11.34c-2.91-6.91-7.28-10.79-12.32-10.92h-1.62a58.42 58.42 0 0 1-11.22-1c-4.22-.87-8.17-1.32-17.16 1.54-8.12 2.5-17.76 8-18.88 8.66 2.6-1.83 8.43-5.91 13.92-9.65 6.62-4.51 13.19-6.35 18.51-5.18l.38.09c4.88 1.06 11.52 2.52 17.77 2.52h.46c6.61 0 10.19 2.3 13.17 8.44a45.79 45.79 0 0 0 6.83 10.73l.86 1a22.28 22.28 0 0 1 2.85 5H203a23.93 23.93 0 0 0-3.16-5.64L199 93.3a44.94 44.94 0 0 1-6.7-10.53c-3.17-6.52-7.12-9-14.27-9-6.2 0-12.92-1.43-17.81-2.5l-.39-.09c-5.59-1.22-12.43.67-19.28 5.33s-14.17 9.82-15.2 10.55h-2.16l-.73-.5A9.65 9.65 0 0 0 127 85a103.15 103.15 0 0 0 16.41-12.6c5.16-5 10.09-9.43 13.9-9.21 3.56.19 7.36 1.5 13.11 4.5 5.5 2.87 9.15 3.5 14.47 2.47 4.94-1 8 1 11.92 7.59 3 5 9.55 17.54 12 22.25h1.13c-2.23-4.3-9.14-17.53-12.27-22.77-3.59-5.99-6.86-9.23-12.97-8.05ZM26.21 72.76c-.84-1.1-5.72-7.52-10-12.18 1.52.89 3.39 2 5.19 3.22 2.9 1.94 5.93 7.23 7.32 9.89a10.75 10.75 0 0 0-2.51-.93Zm4.09 1.94a46.78 46.78 0 0 0-6.3-9.83 13.19 13.19 0 0 1 5.63 5.41c.88 1.64 1.52 2.93 2.08 4.07s1 2.11 1.55 3a22.19 22.19 0 0 0-2.96-2.65Zm5.83 4.59c-1.58-1.5-2.26-2.88-3.49-5.38-.54-1.09-1.21-2.45-2.1-4.11a14.5 14.5 0 0 0-8.7-6.88c-.51-.37-1-.77-1.46-1.18 1.94.07 5.77.55 8.07 3.23a19.82 19.82 0 0 1 2.17 3.42c1.89 3.43 4.4 7.94 11.49 11a77.87 77.87 0 0 0-5.98-.1Zm22.92 6.89c-1.18-1-2.39-2-3.81-3.05a13.28 13.28 0 0 0-2.55-1.43c2.38-.18 6.45-.1 9.72 1.91 3.94 2.41 7.16 6.9 8.36 8.7-5.5-.91-8.29-3.25-11.72-6.13Zm13 6.31c-.08-.13-.23-.37-.46-.71.46.27 1 .55 1.48.81Z"/>
    </g>
    <g class="heightmap-line">
      <path id="heightmap-lines-2" d="M242.81 94.56a32.91 32.91 0 0 0-7.41-4 43.44 43.44 0 0 0-7.63-1.56c-1.07-.15-2.26-.31-3.65-.53-4.62-.72-5.91-2.43-5.93-2.45-.67-1.62-1.31-3.28-1.92-4.91 5.66 3.59 10.61 1.53 14 .13.59-.24 1.14-.47 1.66-.66h.12c3.65-1.31 8.2-2.94 12.29.82a25.09 25.09 0 0 0 7.19 4.6 26.49 26.49 0 0 1 4.23 2.29c2.6 1.82 5.1 5.34 6.24 7.08v-1.79a26.37 26.37 0 0 0-5.67-6.11A27.26 27.26 0 0 0 252 85.1a24.39 24.39 0 0 1-7-4.41c-4.54-4.17-9.61-2.35-13.31-1h-.12c-.53.19-1.1.43-1.7.68-3.59 1.5-8.49 3.53-14.2-.86-.68-1.88-1.32-3.71-1.88-5.4a13.44 13.44 0 0 0 10.36 2.64c3.49-.49 6.56-2.15 9.52-3.76 3.52-1.91 6.83-3.68 10.81-3.68 3.64 0 4.61.4 5.64.78s2.3.86 6.5.93a10.57 10.57 0 0 1 5.38 1.49v-1.13a11.53 11.53 0 0 0-5.41-1.38c-4-.06-5.11-.47-6.15-.86s-2.18-.82-6-.85c-4.18 0-7.82 1.92-11.29 3.8-2.89 1.57-5.88 3.19-9.19 3.65a12.34 12.34 0 0 1-10.86-3.6l-.48-1.52c-.21-1.09-.42-2.1-.61-3a12.13 12.13 0 0 0 7.33 2.48h.52c3-.13 6.49-2.28 10.13-4.56 3-1.85 6-3.77 8.91-4.57 6-1.65 17.77-3 23.09-1.88v-1c-5.72-1.15-17.4.3-23.36 1.94-3 .83-6.15 2.79-9.17 4.68-3.52 2.21-6.85 4.29-9.64 4.41a11.34 11.34 0 0 1-8.16-3.12 22.13 22.13 0 0 0-1-3.34 8.52 8.52 0 0 0-1.22-2 15.24 15.24 0 0 0 7.24 4 11.3 11.3 0 0 0 3.11.45c4.62 0 8.15-3 11.08-5.59.47-.41.93-.8 1.38-1.16a22.17 22.17 0 0 0 1.85-1.39c3.17-2.1 6.61-3 13.57-4.17a40.37 40.37 0 0 1 14.29.33v-1a41 41 0 0 0-14.46-.28c-2.15.36-4 .7-5.56 1.06a33.51 33.51 0 0 1 8.82-3.13c3.77-.6 8.49.25 11.2.87v-1c-1.05-.24-2.36-.5-3.8-.7l3.8-.62v-1l-7.91 1.29a20.45 20.45 0 0 0-3.44.21c-5.67.9-12.45 5-13.08 5.37a19 19 0 0 0-5.53 3.2c-1.87.86-6.21-.55-7.77-1.19-.11 0-10.48-3.53-13-6.48-2.1-2.46-2.67-6.24-3.4-11-.14-.95-.29-1.93-.46-2.94-.11-.66-.21-1.33-.32-2-.88-5.79-1.89-12.34-7.38-12.91a19.3 19.3 0 0 0-11 2.5c-1.06.39-2.11.84-3.13 1.27l-1.53.64a15 15 0 0 1-2.87.81 15.1 15.1 0 0 1-5.32-.75c-2.57-.69-5.09-.76-10.93-.61a34.84 34.84 0 0 0-4.62.49c-3.57.55-6.64 1-11.66-1.39-6.73-3.21-9.84-7.94-13.13-12.94l-.55-.83c-3.34-5.06-6.87-9-16.17-5.51-8.62 3.2-11.49 2.66-18.12.17A65.61 65.61 0 0 1 91.25 0h-2a73.76 73.76 0 0 0 11 5.65c6.76 2.54 9.92 3.13 18.81-.17 8.63-3.21 11.78.26 15 5.12l.54.83c3.23 4.89 6.56 10 13.54 13.3 5.3 2.53 8.67 2 12.24 1.47a35.32 35.32 0 0 1 4.49-.48c5.73-.15 8.2-.08 10.65.58l1 .26c-2.14.07-3.9 0-4.45-.06-2.52-.25-5.18.13-9.33 2.14-11.14 3.55-16.35 2.06-25.42-3.92a74.91 74.91 0 0 1-6.31-4.64c-2.92-2.37-4.13-3.34-9.67-3.89-7.43-.73-13.17-3-23.59-7.19l-2.38-.95A83 83 0 0 1 79.91 0h-1.75a81.09 81.09 0 0 0 16.9 9l2.38.95c10.5 4.2 16.29 6.51 23.86 7.26 5.24.51 6.22 1.31 9.15 3.67a75.72 75.72 0 0 0 6.38 4.7c5.81 3.83 10.22 6 15.81 6a28.24 28.24 0 0 0 6.26-.77c-9.14 5.3-11.6 4.3-20.46.67l-5.11-2.08c-7.57-3.09-13.55-5.52-17.81-7.53-2.16-1-3.78-1.92-5.21-2.72a34.31 34.31 0 0 0-5.56-2.67c-1.18-.42-2.46-.78-3.82-1.16a62.35 62.35 0 0 1-10.14-3.58l-.89-.41C84.39 8.8 81.35 7.4 78.66 3.2L76.64 0h-1.19l2.37 3.68c2.85 4.45 6.17 6 11.66 8.5l.89.41a63.56 63.56 0 0 0 10.29 3.63c1.34.38 2.6.74 3.76 1.15a33.11 33.11 0 0 1 5.41 2.6c1.44.8 3.08 1.71 5.26 2.74 4.29 2 10.28 4.46 17.86 7.55l5.11 2.09c8.85 3.63 11.83 4.85 21.66-.92 6-3.51 9.14-4.21 12.13-3.95h.23a29.51 29.51 0 0 1 3.52.63c.74.16 1.53.33 2.39.49 5 .94 6.4.45 8.7-.36.58-.2 1.23-.43 2.08-.68 3.71-1.08 4.48-1.3 7.56 2.26 2.83 3.28 6.25 14.11 8.3 20.58.28.9.54 1.73.77 2.44a21.34 21.34 0 0 0 3.6 7.3 11.18 11.18 0 0 0-3.87-2.56 84.08 84.08 0 0 1-6.77-11.84c-.65-1.43-1.15-2.66-1.59-3.74-1.56-3.79-2.34-5.69-5.66-6.6-2.14-.59-3.79-.1-5.7.47a18 18 0 0 1-6.75 1 8.61 8.61 0 0 1-5-1.78c-1.6-1.09-3.25-2.22-7.85-2.13-4.2.08-7 1.79-9.77 3.45-2.58 1.56-5 3-8.35 2.87-5.92-.28-15-4.35-21-7-1-.46-1.94-.87-2.73-1.21-3.42-1.49-11.82-5.25-15.87-8.22-.53-.38-1-.73-1.4-1.05-2.4-1.82-3.39-2.58-8.11-3.2l-1.1-.14C92.1 17.72 84.74 16.8 79.15 9a80 80 0 0 1-5.67-9h-1.12a73.62 73.62 0 0 0 6 9.52c5.84 8.22 13.77 9.2 19 9.85l1.1.14c4.45.59 5.31 1.25 7.63 3l1.41 1.06c4.13 3 12.61 6.83 16.06 8.32.79.34 1.7.76 2.72 1.21 6.06 2.73 15.22 6.84 21.33 7.13 3.65.17 6.21-1.38 8.91-3s5.34-3.23 9.27-3.31c4.28-.08 5.74.91 7.28 2a9.53 9.53 0 0 0 5.51 1.95 18.83 18.83 0 0 0 7.1-1c1.83-.55 3.28-1 5.15-.46 2.85.78 3.47 2.31 5 6 .45 1.1 1 2.33 1.61 3.78A85.09 85.09 0 0 0 203.53 57c-.47-.14-1-.24-1.46-.34-3.29-1-4.39-3-7.93-9.37-3.85-7-7.93-6.71-13.28-5.59-5 1-8.43 1.45-11.52.49a15.52 15.52 0 0 0-10.7 1 20.68 20.68 0 0 1-14.81 1.17c-6.29-2-21.38-9.06-26.13-11.67a39.35 39.35 0 0 1-6-4.28 36.6 36.6 0 0 0-6.1-4.27c-2.58-1.36-5.66-1.6-9.23-1.89a45.86 45.86 0 0 1-10.13-1.62c-7.24-2.15-10.7-8.4-13.35-14.09A70.87 70.87 0 0 0 69.39 0h-1.17A72.24 72.24 0 0 1 72 7c2.73 5.88 6.29 12.36 13.91 14.68a47.08 47.08 0 0 0 10.33 1.62c3.46.28 6.45.51 8.84 1.78a34.94 34.94 0 0 1 5.92 4.15 39.56 39.56 0 0 0 6.2 4.39c4.78 2.63 20 9.72 26.31 11.74a21.71 21.71 0 0 0 15.53-1.21 14.67 14.67 0 0 1 10-1c3.29 1 6.9.6 12-.47s8.68-1.28 12.21 5.09c2.59 4.69 4 7.15 5.9 8.58a23 23 0 0 0-2.33.06 45.52 45.52 0 0 1-5.61-4.34 13.27 13.27 0 0 0-6.2-3.24c-.78-.22-1.59-.45-2.52-.79a18.18 18.18 0 0 1-3.06-1.52 14.31 14.31 0 0 0-7.63-2.4 17.94 17.94 0 0 0-8.34 1.35c-2.87-1.1-5.83 1.45-6.52 2.1-2.27 0-4.61 1.66-7.34 3.91-3.23.16-14.05-3.53-18-7S125.31 40 120.9 38l-.41-.18c-4.67-2.05-5.42-2.46-9.5-6.21-3.66-3.36-8-3.79-13.59-4.34-1.05-.1-2.15-.21-3.31-.34-6.89-.77-12.37-1.93-16.72-4.86-3.85-2.63-4.85-4.83-7.81-11.38l-.8-1.76A269.67 269.67 0 0 0 64.55 0h-1.11c1 2 2.47 5.08 4.41 9.34l.8 1.77c3 6.55 4.08 9 8.16 11.78C81.32 26 86.94 27.14 94 27.94c1.16.14 2.26.25 3.32.35 5.57.54 9.6.94 13 4.07 4.24 3.9 5.13 4.35 9.77 6.4l.42.18c4.31 1.89 6.69 2.94 10.5 6.32 3.52 3.13 13 6.72 17.48 7.2l-.86.74c-.82.69-1.68 1.42-2.59 2.17-7.24-.31-14.76-5.62-17.58-9.15-2.64-3.28-6.57-4.36-10.37-5.39a80.8 80.8 0 0 1-2.22-.63c-2.31-.69-2.92-.92-4-1.33s-2.5-.94-6.09-2.16a56.51 56.51 0 0 0-6-1.81c-1.77-.44-4.45-1.1-12.89-3.67-13.47-4.09-15.31-9-18.35-17C67 13 66.52 11.65 66 10.27A31.53 31.53 0 0 0 59.58 0h-1.45C60 1.72 62.68 4.93 65 10.65c.56 1.37 1 2.67 1.52 3.91 3 8.06 5 13.39 19 17.63 8.48 2.58 11.18 3.24 12.96 3.68a55.12 55.12 0 0 1 6 1.78c3.58 1.22 5 1.76 6 2.15s1.75.66 4.09 1.36c.74.22 1.5.43 2.25.63 3.65 1 7.42 2 9.85 5.06 2.78 3.48 10 8.63 17.14 9.43-6.14 4.15-11.93.64-17.07-2.49-.71-.43-1.4-.85-2.07-1.24-3.75-2.16-17-7.09-28.62-11.44-6.49-2.42-12.05-4.51-14.87-5.68a27.1 27.1 0 0 1-13.3-11.22 36.16 36.16 0 0 1-2.45-4.67C63.79 16 61.93 12 58.26 9a41.31 41.31 0 0 1-7.62-9h-1.2a43.13 43.13 0 0 0 8.18 9.79c3.5 2.88 5.31 6.75 6.91 10.17a37 37 0 0 0 2.52 4.8c2.84 4.25 6 8.33 13.74 11.59 2.8 1.18 8.41 3.27 14.91 5.7 11 4.12 24.79 9.25 28.47 11.37.66.38 1.35.8 2 1.23 3.46 2.1 7.45 4.53 11.73 4.53a11.69 11.69 0 0 0 7.56-2.91q1.45-1.2 2.76-2.31c3.73-3.17 6.68-5.68 9.25-5.34 1.33.18 2.61 1.14 3.91 2.91a31.74 31.74 0 0 0-4.6 2.93c-4-2.6-7.3-.5-12.65 2.94-1 .63-2 1.3-3.16 2a14.66 14.66 0 0 1-14.06.65c-.29-.11-29.23-11.9-35.78-14.81a86.1 86.1 0 0 1-28.28-21.11C55.14 15.44 50 4.69 47.89 0H46.8c2 4.52 7.28 15.76 15.3 24.8a87 87 0 0 0 28.68 21.35c6.56 2.92 35.51 14.71 35.75 14.8a15.68 15.68 0 0 0 7 1.6 15.13 15.13 0 0 0 8-2.3c1.14-.7 2.19-1.38 3.17-2 5-3.23 7.92-5.08 11.26-3.13-1.87 1.47-3.67 3.1-5.4 4.71-.32-.09-3-.52-11.15 4.09a17.26 17.26 0 0 1-15.24 1s-13.53-5.75-26.67-11.37C85.41 48.4 84.46 47.68 78.28 43l-1.6-1.2a98.37 98.37 0 0 1-19.16-18.63C53.3 17.77 46.68 5.64 43.68 0h-1.13c2.88 5.43 9.8 18.17 14.19 23.78a98.58 98.58 0 0 0 19.34 18.84l1.6 1.2c6.27 4.73 7.23 5.45 19.45 10.67 13.12 5.61 26.64 11.36 26.64 11.36a16.74 16.74 0 0 0 6.93 1.42 18.68 18.68 0 0 0 9.23-2.49c5.42-3.06 8.3-3.8 9.57-4-.74.69-1.46 1.37-2.18 2-.28.19-3.51 2.35-10.88 6.43s-14.86.44-15 .39c-.25-.11-25.44-10.87-40.2-17-12.67-5.21-15.69-10-19.19-15.5-.58-.9-1.16-1.82-1.79-2.76a41.63 41.63 0 0 0-7.53-9c-1-.92-2.12-2-3.64-3.54C44.33 17.17 38.19 5.51 35.43 0h-1.12c2.65 5.34 9 17.58 14.12 22.63 1.52 1.51 2.69 2.63 3.65 3.55A40.29 40.29 0 0 1 59.47 35c.63.93 1.21 1.84 1.77 2.74 3.44 5.43 6.69 10.55 19.66 15.89 14.76 6.07 39.93 16.83 40.15 16.92a18.11 18.11 0 0 0 7.69 1.69 16.72 16.72 0 0 0 8.19-2.11c2.16-1.2 4-2.22 5.44-3.09a73 73 0 0 1-10.91 7c-6 3.3-13.48 0-13.57 0-.29-.12-29.12-12.25-41.31-17.34-10.91-4.55-13.23-8.41-15.7-12.5L60 42.67a22.16 22.16 0 0 0-10.2-8.86l-.73-.35c-3.11-1.45-5-2.32-10-10C35 17.17 29.92 5.46 27.62 0h-1.08C28.76 5.3 34 17.5 38.23 24c5.16 8 7.14 8.88 10.42 10.41l.72.34a21.1 21.1 0 0 1 9.75 8.49c.31.5.61 1 .9 1.48 2.56 4.23 5 8.23 16.17 12.9 12.2 5.09 41 17.22 41.3 17.33s8 3.53 14.45 0a72.1 72.1 0 0 0 16-11.31c.76-.69 1.54-1.42 2.34-2.16 5.23-4.86 11.16-10.37 17.47-10.73 7.87-.46 13.5.85 17.22 4l1.61 1.35c3 2.43 5 3.66 11.14 5.65 6.44 2.07 8.29 10.41 9.51 15.94l.16.73c.18.78.36 1.68.56 2.66 1.12 5.56 2.79 13.81 6.88 18.94h1.3c-4.32-4.86-6.05-13.44-7.2-19.13-.2-1-.38-1.9-.56-2.68l-.16-.74c-1.2-5.4-3.2-14.42-10.18-16.67a64.56 64.56 0 0 1-4.37-1.56 41 41 0 0 0 4.59.08c5-.16 7.5 1.55 8.63 6 .29 1.13.64 3.22 1.08 5.87 1.47 8.86 3.86 23.29 8.58 28.87H218c-4.92-4.68-7.44-19.87-9-29-.45-2.68-.8-4.79-1.1-6-1.59-6.19-6-6.84-9.63-6.7a34.5 34.5 0 0 1-7.4-.46c-.5-.29-1-.58-1.43-.9a23.51 23.51 0 0 0 7.3.49c6.09-.52 11.34 1.74 13 5.63.77 1.78 2 8.22 3.22 15 2 10.74 3.56 18.84 5 21.89h1.11c-1.48-2.51-3.48-13.3-5.1-22.07v-.08c2.55 7.2 6.76 18 10.54 22.15h1.39c-1.51-1.3-3.22-4.08-4.91-7.54a31.51 31.51 0 0 1 3.08 2.38 19.64 19.64 0 0 0 7.29 3.92l.72.25 1.48.5c.53.18 1 .33 1.4.49h2.11a10.31 10.31 0 0 0-3.19-1.44c-.44-.14-.93-.3-1.46-.49l-.73-.26a18.65 18.65 0 0 1-7-3.72 25.13 25.13 0 0 0-4.53-3.28c-.44-1-.87-1.93-1.3-2.93A14.49 14.49 0 0 0 224 89.5c1.4.22 2.6.38 3.68.53a42.19 42.19 0 0 1 7.47 1.48 32 32 0 0 1 7.15 3.89 33.77 33.77 0 0 0 4.3 2.53c1.3.56 3.54 1.36 5.6 2.07h3.12c-2.38-.79-6.43-2.18-8.33-3a32 32 0 0 1-4.18-2.44ZM167.73 49.7a15.26 15.26 0 0 0-5.38 1.4 8 8 0 0 0-4-3.33c1.1-.85 3.17-2.11 5-1.27a18.28 18.28 0 0 1 4.55 3.19Zm19.43 5.51c-.47-.39-1-.8-1.51-1.27-3.68-3.11-9.07-4.5-16.4-4.29a21 21 0 0 0-4.55-3.56 18.76 18.76 0 0 1 7.08-.94 13.38 13.38 0 0 1 7.22 2.26 19 19 0 0 0 3.22 1.6c1 .35 1.82.6 2.58.81a12.27 12.27 0 0 1 5.81 3 49.26 49.26 0 0 0 4.62 3.69 20.72 20.72 0 0 1-8.07-1.3Zm12.39-33.36c4.73.49 5.67 6.64 6.5 12.07.11.69.21 1.36.32 2 .17 1 .32 2 .46 2.93.72 4.74 1.35 8.83 3.62 11.51 2.68 3.16 13 6.64 13.4 6.77a21.46 21.46 0 0 0 6.36 1.51l-.31.22c-4.1 2.84-6.83 1.85-14.13-.81l-.35-.13c-6.62-2.4-7.45-7.15-8.82-15-.16-.91-.33-1.87-.51-2.86-1.76-9.49-3.2-13.91-7.55-16.73a7.59 7.59 0 0 0-3.85-1.19 15.74 15.74 0 0 1 4.86-.29Zm6.8 30.71c-.23-.72-.49-1.54-.77-2.44-2.07-6.54-5.53-17.5-8.5-20.94-3.35-3.88-4.55-3.73-8.64-2.54-.82.23-1.49.47-2.09.68-2.21.78-3.42 1.2-8.18.32l-.61-.12a31 31 0 0 0 3.89-.47 7.88 7.88 0 0 0 1.77-.43c.41-.13.81-.26 1.19-.42s1-.42 1.54-.64c4.2-1.78 8.55-3.63 12.05-1.37 4 2.58 5.32 6.46 7.1 16.07.19 1 .35 1.94.51 2.85 1.39 7.94 2.31 13.18 9.46 15.78l.36.13c4.27 1.56 7.11 2.59 9.61 2.59a8 8 0 0 0 2.23-.32c-2.81 2.08-6.15 3.68-10.28 2.5-6.57-1.89-8.67-5.13-10.64-11.23Z"/>
    </g>
</svg>
