<svg fill="none" height="435" viewBox="0 0 815 435" width="815" xmlns="http://www.w3.org/2000/svg" xmlns:xlink="http://www.w3.org/1999/xlink"><linearGradient id="a" gradientUnits="userSpaceOnUse" x1="6.43799" x2="804.389" y1="29.4812" y2="388.941"><stop offset="0" stop-color="#66bcff"/><stop offset=".26" stop-color="#4d7fec"/><stop offset=".77" stop-color="#3442d9"/></linearGradient><clipPath id="b"><rect height="430" rx="44" width="810.5" x="2" y="3"/></clipPath><mask id="c" height="600" maskUnits="userSpaceOnUse" width="900" x="-44" y="-167"><path d="m856-167h-900v600h900z" fill="#fff"/></mask><mask id="d" height="600" maskUnits="userSpaceOnUse" width="900" x="-44" y="-167"><path d="m-44-167h900v600h-900z" fill="#fff"/></mask><g clip-path="url(#b)"><rect fill="#fff" height="430" rx="44" width="810.5" x="2" y="3"/><g mask="url(#c)"><path d="m43.737 2.66016c-22.961 0-41.74701 18.78704-41.74701 41.74804v348.4488c0 22.961 18.78601 41.748 41.74701 41.748h726.979c22.961 0 41.748-18.787 41.748-41.748v-348.4488c0-22.961-18.787-41.74804-41.748-41.74804z" fill="url(#a)"/><path d="m206.876 144.43h111.412c.762 0 1.409-.565 1.5-1.322.478-3.989.437-16.495-15.289-30.371-16.324-14.404-50.416-8.068-60.681 16.386-.275.656-.975 1.023-1.673.891-5.257-.996-26.256-3.82-36.53 12.067-.655 1.013.055 2.349 1.261 2.349z" fill="#fff" opacity=".2"/><path d="m42.155 434.372h726.978c22.962 0 41.748-18.786 41.748-41.748v-99.153c-122.852-1.182-182.821 107.042-182.821 107.042s-76.25-121.706-200.89-123.172c-124.639-1.467-161.298 63.051-161.298 63.051s-107.043-149.567-167.163-167.163-98.245011 24.929-98.245011 24.929v196.628c1.134001 21.967 19.455011 39.586 41.691011 39.586z" fill="#fff" opacity=".2"/><path d="m1.98402 395.523s-3.372-23.607 19.58598-31.151c20.289-6.667 35.217 7.657 35.217 7.657s-6.687-46.806 27.581-62.745c41.434-19.271 78.049 6.745 77.523 60.788 0 0 35.3-15.682 68.719 7.471 26.101 18.082 24.384 48.22 21.201 56.546" stroke="#3b47d9" stroke-miterlimit="10" stroke-width="1.245"/><path d="m262.782 213.932c.269 2.33 2.179 15.838 10.163 17.05-7.989 1.202-9.894 14.733-10.163 17.048-.274-2.315-2.18-15.846-10.169-17.048 7.984-1.212 9.895-14.72 10.169-17.05z" fill="#4eadf4"/><path d="m786.603 125.65c.2 1.727 1.615 11.739 7.533 12.638-5.921.891-7.333 10.92-7.533 12.636-.203-1.716-1.616-11.745-7.537-12.636 5.918-.899 7.334-10.911 7.537-12.638z" fill="#d3e3ef"/><path d="m148.393 126.45c.373 3.232 3.023 21.973 14.101 23.655-11.085 1.668-13.728 20.44-14.101 23.653-.38-3.213-3.023-21.985-14.107-23.653 11.078-1.682 13.727-20.423 14.107-23.655z" fill="#97ffba"/><path d="m693.553 130.978c0 39.16-31.745 70.905-70.905 70.905-39.16-.001-70.905-31.746-70.905-70.906 0-39.1597 31.745-70.9046 70.905-70.9045 39.16.0002 70.905 31.7453 70.905 70.9055z" fill="#57f287"/><path d="m619.889 83.1375c0 36.5625-29.639 66.2015-66.201 66.2015-36.563 0-66.203-29.639-66.203-66.202s29.819-65.1379 66.382-65.1377c36.562.0001 66.022 28.5752 66.022 65.1382z" fill="#57f287"/><path d="m537.747 133.37c0 37.139-30.107 67.246-67.246 67.246s-67.246-30.107-67.246-67.246c0-37.1395 30.107-67.2464 67.246-67.2462 37.139.0001 67.246 30.1072 67.246 67.2462z" fill="#57f287"/><path d="m784.782 183.305-350.417-.046-139.948-.185 1.29-26.241 366.253-.007 123.097.774z" fill="#000"/><path d="m294.899 183.842v-53.732l368.521.002v53.732z" fill="#ea449e"/><path d="m643.417 142.211c7.836 0 14.391-5.414 16.176-12.7h-32.352c1.784 7.286 8.34 12.7 16.176 12.7z" fill="#e5aad8"/><path d="m595.133 163.974c-11.797 0-21.838 7.503-25.622 17.996h51.244c-3.784-10.493-13.825-17.996-25.622-17.996z" fill="#e5aad8"/><path d="m552.077 142.211c7.836 0 14.392-5.414 16.176-12.7h-32.352c1.784 7.286 8.34 12.7 16.176 12.7z" fill="#e5aad8"/><path d="m412.001 142.211c7.836 0 14.392-5.414 16.176-12.7h-32.352c1.784 7.286 8.34 12.7 16.176 12.7z" fill="#e5aad8"/><path d="m343.698 163.973c-11.797 0-21.838 7.503-25.622 17.996h51.244c-3.784-10.493-13.825-17.996-25.622-17.996z" fill="#e5aad8"/><path d="m518.138 129.26h-72.098v52.654h72.098z" fill="#56f186"/><path d="m785.344 182.984h-123.344v-53.507h123.344z" fill="#d01482"/><path d="m689.341 168.617c-7.268 0-15.465 6.186-15.785 14.252h31.57c-1-8.679-8.517-14.252-15.785-14.252z" fill="#e5aad8"/><path d="m768.116 172.319c-5.38 0-11.448 4.579-11.685 10.55h23.371c-.741-6.425-6.306-10.55-11.686-10.55z" fill="#e5aad8"/><path d="m750.556 142.977c6.709.001 15.07-5.257 14.57-13.484h-29.141c.016 8.718 7.862 13.484 14.571 13.484z" fill="#e5aad8"/><path d="m742.001 129.63h-31.25v53.37h31.25z" fill="#28cb79"/><path d="m304.479 183.178 357.522.001 113.343.001" stroke="#8e286f" stroke-linecap="round" stroke-linejoin="round" stroke-width="5"/><path d="m773.532 225.629-469.032 2.936-.357-50.333 130.572-21.136 339.918-.347z" fill="#000"/><path d="m462.67 400.379s-73.641 81.341-68.319 89.205c12.721 18.795 8.748-4.005 50.87-6.199" stroke="#688dff" stroke-linecap="round" stroke-width="80.0023"/><path d="m688.276 402.546c2.378 21.473 8.978 39.877 13.053 54.644" stroke="#3c57d8" stroke-linecap="round" stroke-width="85.0024"/><path d="m688.276 409.69c2.803 25.316 11.476 46.365 14.959 62.219 2.275 10.356-6.935-32.235-26.347-89.231" stroke="#688dff" stroke-linecap="round" stroke-width="85.0024"/><path d="m579.391 367.75h-93.328c-17.561 0-29.715 5.643-38.044 12.681-11.015 9.307-17.106 23.192-17.106 37.612v97.073c0 27.557 22.34 49.898 49.898 49.898h147.87c27.558 0 49.898-22.341 49.898-49.898v-97.112c0-13.812-5.571-27.174-15.812-36.441-8.348-7.555-20.844-13.813-39.337-13.813h-93.328" fill="#698eff"/><path d="m674.957 405.91c-1.998 19.308-54.175 29.73-116.543 23.277-62.367-6.453-111.307-27.337-109.309-46.645s54.177-29.73 116.543-23.277c62.368 6.453 111.307 27.337 109.309 46.645z" fill="#4b67ec"/><path d="m396.671 305.857 15.517 3.316c18.908 4.038 37.682-8.129 41.72-27.037l7.087-33.178c4.037-18.907-8.128-37.683-27.036-41.721l-15.518-3.313c-18.908-4.039-37.681 8.126-41.719 27.034l-7.087 33.18c-4.038 18.908 8.128 37.681 27.036 41.719z" fill="#698eff"/><path d="m400.811 279.984 18.233 3.895c3.213.686 6.405-1.383 7.091-4.597l10.014-46.888c.689-3.223-1.385-6.424-4.609-7.112l-18.216-3.89c-7.536-1.609-15.019 3.239-16.628 10.775l-6.661 31.188c-1.61 7.537 3.24 15.02 10.776 16.629z" fill="#b7cdff"/><path d="m727.988 364.301-15.639-2.679c-19.057-3.265-31.978-21.527-28.713-40.584l5.729-33.441c3.264-19.056 21.527-31.976 40.584-28.712l15.639 2.68c19.057 3.264 31.978 21.527 28.713 40.583l-5.729 33.44c-3.264 19.056-21.527 31.977-40.584 28.713z" fill="#698eff"/><path d="m733.743 338.737-18.377-3.147c-3.239-.555-5.435-3.659-4.88-6.898l8.095-47.257c.556-3.249 3.67-5.452 6.919-4.895l18.359 3.144c7.595 1.301 12.746 8.582 11.445 16.177l-5.386 31.433c-1.301 7.596-8.579 12.744-16.175 11.443z" fill="#b7cdff"/><path d="m627.14 415.472c-36.712-3.977-134.967-19.248-166.305-27.864-31.169-8.569-61.371-40.446-54.536-77.161l12.216-56.771c9.64-53.91 38.72-64.108 87.393-59.827 51.989 4.575 144.01 21.492 161.099 24.993 46.863 9.598 64.997 42.275 58.162 78.99l-10.826 65.4c-7.546 40.535-41.426 57.198-87.203 52.24z" fill="#698eff"/><path d="m591.985 424.205c-5.138 2.501-12.419 8.813-.207 18.404 5.109 4.011 41.089-7.343 42.269-14.187 0 0 1.19-4.896-1.753-7.619-8.273-7.653-33.907.286-40.309 3.402z" fill="#e9459c"/><path d="m591.707 442.594s16.969-15.118 42.31-14.179c0 0-3.196 17.806-20.956 21.202-11.184 2.14-21.354-7.023-21.354-7.023z" fill="#ffacd6"/><path d="m651.434 356.386c-1.067 6.867-7.498 11.577-14.377 10.508-6.869-1.056-11.577-7.497-10.51-14.365 1.058-6.881 7.499-11.589 14.367-10.521 6.879 1.068 11.589 7.499 10.52 14.378zm-175.336-27.046c-1.081 6.982-7.623 11.76-14.605 10.679-6.983-1.08-11.762-7.611-10.68-14.605 1.081-6.982 7.612-11.761 14.605-10.679 6.982 1.08 11.76 7.623 10.68 14.605z" stroke="#070100" stroke-width="5.75839"/><path d="m651.437 356.38c-1.066 6.875-7.501 11.585-14.376 10.519-6.874-1.066-11.585-7.502-10.519-14.377 1.066-6.874 7.502-11.583 14.377-10.518 6.875 1.066 11.584 7.501 10.518 14.376z" fill="#080201"/><path d="m476.099 329.338c-1.083 6.983-7.62 11.768-14.603 10.685s-11.769-7.62-10.686-14.603 7.621-11.769 14.604-10.686 11.768 7.621 10.685 14.604z" fill="#080201"/><path d="m568.462 407.772-55.844-9.005c-20.99-3.385-35.394-23.327-32.01-44.317l5.077-31.491c1.989-12.335 13.711-20.802 26.048-18.813l81.935 13.212c11.844 1.91 19.971 13.162 18.062 25.006l-6.233 38.657c-2.829 17.541-19.493 29.579-37.035 26.751z" fill="#b7cdff"/><path d="m562.729 383.774-13.086-2.028c-4.49-.696-7.594-4.938-6.899-9.428l.054-.348c.696-4.488 4.938-7.592 9.428-6.897l13.087 2.028c4.49.696 7.594 4.938 6.898 9.428l-.054.348c-.696 4.488-4.938 7.592-9.428 6.897z" fill="#698eff"/><path d="m514.98 376.375-13.087-2.028c-4.49-.695-7.593-4.938-6.898-9.428l.054-.347c.695-4.489 4.938-7.593 9.428-6.897l13.087 2.028c4.49.695 7.593 4.938 6.898 9.428l-.054.347c-.697 4.489-4.938 7.593-9.428 6.897z" fill="#698eff"/><path d="m665.492 433.914-360.864-.001.001-254.394 357.749-.145z" fill="#eb459f"/><path d="m775.626 433.732h-113.245l.001-254.394 113.22-22.5z" fill="#d11583"/><path d="m525.804 252.937c-14.354 0-25.99 11.636-25.99 25.99s11.636 25.99 25.99 25.99 25.99-11.636 25.99-25.99-11.636-25.99-25.99-25.99z" fill="#e5aad8"/><path d="m743.241 285.568c14.346-.489 25.579-12.514 25.09-26.86s-12.514-25.579-26.86-25.09c-7.198.245-13.611 3.396-18.154 8.286l1.248 36.633c4.865 4.569 11.478 7.276 18.676 7.031z" fill="#ea449e"/><g fill="#e5aad8"><path d="m388.507 245.136c-17.913 0-32.435 14.521-32.435 32.434 0 17.914 14.521 32.435 32.435 32.435 17.913 0 32.434-14.521 32.434-32.434s-14.521-32.435-32.434-32.435z"/><path d="m619.353 269.509c-16.576 0-30.012 13.436-30.012 30.011 0 16.576 13.436 30.012 30.011 30.012 16.576 0 30.012-13.436 30.012-30.011s-13.436-30.012-30.011-30.012z"/><path d="m519.387 197.607c11.723 0 21.63-7.763 24.869-18.428h-49.738c3.239 10.665 13.146 18.428 24.869 18.428z"/><path d="m399.191 197.607c11.723 0 21.63-7.763 24.869-18.428h-49.738c3.239 10.665 13.146 18.428 24.869 18.428z"/><path d="m566.277 337.542c-8.788 0-15.912 7.124-15.912 15.912 0 8.787 7.124 15.911 15.912 15.911s15.912-7.124 15.912-15.911c0-8.788-7.124-15.912-15.912-15.912z"/><path d="m446.478 306.457c-8.788 0-15.912 7.124-15.913 15.912 0 8.787 7.124 15.911 15.912 15.911s15.912-7.124 15.912-15.911c.001-8.788-7.123-15.912-15.911-15.912z"/><path d="m339.223 332.013c-8.788 0-15.912 7.124-15.912 15.912 0 8.787 7.124 15.911 15.912 15.911s15.912-7.124 15.912-15.911c0-8.788-7.124-15.912-15.912-15.912z"/></g><path d="m683.671 322.963c-8.788 0-15.912 7.124-15.912 15.912 0 8.787 7.124 15.911 15.912 15.911s15.912-7.124 15.912-15.911c0-8.788-7.124-15.912-15.912-15.912z" fill="#ea449e"/><path d="m584.767 217.303c-8.788 0-15.912 7.125-15.912 15.913 0 8.787 7.124 15.911 15.912 15.911s15.912-7.124 15.912-15.911c0-8.788-7.124-15.913-15.912-15.913z" fill="#e5aad8"/><path d="m351.262 201.311c-8.788 0-15.912 7.125-15.912 15.913 0 8.787 7.124 15.911 15.912 15.911s15.912-7.124 15.912-15.911c0-8.788-7.124-15.913-15.912-15.913z" fill="#e5aad8"/><path d="m706.672 195.307c-8.788 0-15.912 7.125-15.912 15.913 0 8.787 7.124 15.911 15.912 15.911s15.912-7.124 15.912-15.911c0-8.788-7.124-15.913-15.912-15.913z" fill="#ea449e"/><path d="m505.705 362.426c-18.368 0-33.258 14.89-33.258 33.258s14.89 33.259 33.258 33.259 33.258-14.89 33.259-33.259c0-18.368-14.89-33.258-33.259-33.258z" fill="#e5aad8"/><path d="m756.917 348.019c-14.354 0-25.99 11.636-25.99 25.99s11.636 25.99 25.99 25.99c7.202 0 13.719-2.931 18.426-7.663v-36.654c-4.707-4.732-11.224-7.663-18.426-7.663z" fill="#ea449e"/><path d="m383.386 373.8c-14.354 0-25.99 11.636-25.99 25.99s11.636 25.99 25.99 25.99 25.99-11.636 25.99-25.99-11.636-25.99-25.99-25.99z" fill="#e5aad8"/><path d="m623.346 373.001c-11.043 0-19.994 8.952-19.994 19.995 0 11.042 8.951 19.994 19.994 19.994s19.995-8.951 19.995-19.994-8.952-19.995-19.995-19.995z" fill="#e5aad8"/><path d="m515.346 433.573h-66.372l.001-254.394h66.372z" fill="#57f287"/><path d="m742.097 433.574h-30.94l.009-264.581 30.88-5.938z" fill="#29cc7a"/><path d="m294.479 183.207v-53.732l368.521.001v53.732z" fill="#ea449e"/><path d="m643.417 142.211c7.836 0 14.391-5.414 16.176-12.7h-32.352c1.784 7.286 8.34 12.7 16.176 12.7z" fill="#e5aad8"/><path d="m595.133 163.974c-11.797 0-21.838 7.503-25.622 17.996h51.244c-3.784-10.493-13.825-17.996-25.622-17.996z" fill="#e5aad8"/><path d="m552.077 142.211c7.836 0 14.392-5.414 16.176-12.7h-32.352c1.784 7.286 8.34 12.7 16.176 12.7z" fill="#e5aad8"/><path d="m412.001 142.211c7.836 0 14.392-5.414 16.176-12.7h-32.352c1.784 7.286 8.34 12.7 16.176 12.7z" fill="#e5aad8"/><path d="m343.698 163.973c-11.797 0-21.838 7.503-25.622 17.996h51.244c-3.784-10.493-13.825-17.996-25.622-17.996z" fill="#e5aad8"/><path d="m518.138 129.26h-72.098v52.654h72.098z" fill="#57f287"/><path d="m785.344 182.984h-123.344v-53.507h123.344z" fill="#d01482"/><path d="m689.341 168.617c-7.268 0-15.465 6.186-15.785 14.252h31.57c-1-8.679-8.517-14.252-15.785-14.252z" fill="#ea449e"/><path d="m768.116 172.319c-5.38 0-11.448 4.579-11.685 10.55h23.371c-.741-6.425-6.306-10.55-11.686-10.55z" fill="#ea449e"/><path d="m750.556 142.977c6.709.001 15.07-5.257 14.57-13.484h-29.141c.016 8.718 7.862 13.484 14.571 13.484z" fill="#ea449e"/><path d="m742.001 129.63h-31.25v53.37h31.25z" fill="#29cc7a"/><path d="m304.479 183.178 357.522.001 113.343.001" stroke="#8e286f" stroke-linecap="round" stroke-linejoin="round" stroke-width="5"/><g fill="#fff" mask="url(#d)"><path d="m104.91 38.0098h12.294c2.964 0 5.495.4126 7.515 1.3249 1.879.771 3.475 2.1177 4.626 3.801 1.01 1.6833 1.586 3.5729 1.51 5.4734 0 1.9657-.5 3.8662-1.586 5.5495-1.151 1.7593-2.889 3.0842-4.843 3.9313-2.172.9883-4.909 1.4661-8.091 1.4661h-11.425zm11.349 16.0076c2.02 0 3.54-.4887 4.626-1.477 1.086-1.0534 1.662-2.4652 1.586-4.0073.076-1.4009-.435-2.7259-1.445-3.7141-.944-.9123-2.378-1.4118-4.333-1.4118h-3.833v10.5342h3.399z"/><path d="m149.361 59.4802c-1.586-.4235-3.182-1.0426-4.627-1.8896v-5.126c1.228.9123 2.672 1.5422 4.116 1.8897 1.662.4887 3.323.7059 5.061.771.576 0 1.162-.0651 1.738-.2715.358-.2063.575-.4235.575-.7059 0-.2823-.076-.5647-.293-.771-.358-.2824-.793-.4236-1.227-.4887l-3.758-.8471c-2.172-.4887-3.681-1.1946-4.626-2.0417-.945-.9122-1.444-2.172-1.368-3.4317 0-1.1186.434-2.2481 1.227-3.0951.945-.9883 2.096-1.6833 3.399-2.0309 1.662-.4887 3.399-.771 5.202-.7059 1.661 0 3.258.1412 4.843.5648 1.304.2823 2.52.771 3.682 1.4009v4.8436c-1.086-.6299-2.237-1.0535-3.388-1.3358-1.304-.3475-2.683-.4887-3.986-.4887-1.955 0-2.954.3584-2.954.9882 0 .2824.13.5539.424.6951.51.2063 1.097.3584 1.672.4995l3.171.5539c2.02.3475 3.617.9774 4.627 1.8245s1.52 2.1828 1.52 3.8661c0 1.8245-.945 3.5078-2.53 4.4201-1.662 1.0534-4.051 1.6181-7.157 1.6181-1.803-.0652-3.606-.2824-5.343-.7059z"/><path d="m171.775 58.8611c-1.661-.7711-3.116-1.9657-4.126-3.5078-.945-1.4769-1.369-3.2363-1.369-4.9956s.435-3.4317 1.445-4.9087c1.01-1.5421 2.454-2.6716 4.192-3.4426 2.096-.8471 4.344-1.3249 6.581-1.2598 3.182 0 5.777.6299 7.873 1.9657v5.6146c-.793-.4887-1.65-.9122-2.595-1.1946-1.01-.2824-2.096-.4887-3.182-.4887-1.955 0-3.465.3475-4.627 1.0534-1.585.8471-2.096 2.7367-1.227 4.2789.293.4887.717.9122 1.227 1.1946 1.086.7059 2.596 1.0534 4.692 1.0534 1.086 0 2.107-.1412 3.117-.4236.945-.2823 1.802-.6298 2.595-1.1185v5.4082c-2.454 1.401-5.202 2.096-8.025 2.0309-2.237.0651-4.551-.3476-6.571-1.2598z"/><path d="m194.255 58.8502c-1.737-.771-3.181-1.9656-4.191-3.5078-.945-1.4769-1.445-3.2254-1.445-4.9847s.435-3.4426 1.445-4.9196c1.01-1.4769 2.454-2.6607 4.191-3.3666 4.116-1.6181 8.819-1.6181 12.935 0 1.661.7059 3.106 1.8897 4.116 3.3666.945 1.477 1.444 3.2363 1.444 4.9196 0 1.7593-.499 3.5078-1.444 4.9847-1.01 1.5422-2.455 2.7368-4.116 3.5078-4.192 1.6833-8.819 1.6833-12.935 0zm9.536-5.4734c.792-.7711 1.238-1.9005 1.162-2.9539.076-1.1186-.37-2.172-1.162-2.9431-.869-.7711-2.02-1.1294-3.182-1.1294-1.162-.0652-2.303.3583-3.172 1.1294-.792.7711-1.238 1.8245-1.162 2.9431-.076 1.1185.37 2.1828 1.162 2.9539.869.771 2.01 1.1837 3.172 1.1186 1.227.0651 2.389-.3476 3.182-1.1186z"/><path d="m231.69 41.8544v6.6789c-.945-.5648-2.02-.8363-3.106-.7711-1.662 0-2.954.4778-3.899 1.4661-.869.9883-1.379 2.5304-1.379 4.6372v5.6146h-7.732v-17.9733h7.591v5.6907c.434-2.1069 1.075-3.649 2.02-4.6372.945-.9883 2.248-1.5422 3.616-1.477 1.01 0 2.02.2824 2.889.7711z"/><path d="m257.407 37.3691v22.1219h-7.733v-4.0074c-.575 1.401-1.661 2.6716-2.964 3.4426-1.521.8471-3.172 1.2598-4.909 1.1946-1.586.0652-3.182-.4126-4.551-1.2597-1.303-.8471-2.389-2.0417-3.04-3.4426-.717-1.5422-1.086-3.2363-1.086-4.9196-.076-1.7593.369-3.5078 1.086-5.0499.727-1.477 1.889-2.6607 3.258-3.5078 1.444-.8471 3.106-1.2706 4.767-1.2706 3.682 0 6.136 1.553 7.439 4.6372v-7.9387zm-8.884 15.8665c.793-.7711 1.227-1.8245 1.151-2.8779 0-1.0534-.434-2.096-1.151-2.8019-1.803-1.4769-4.409-1.4769-6.288 0-.793.7711-1.238 1.7485-1.162 2.8019-.076 1.0534.369 2.1068 1.162 2.8779.869.7711 1.944 1.1294 3.106 1.1294 1.227.0652 2.313-.3583 3.182-1.1294z"/><path d="m76.4465 32.667c-3.7576-1.6182-7.7432-2.8019-11.8591-3.5078-.5756.9882-1.0752 1.9656-1.5096 3.0191-4.3331-.6299-8.8292-.6299-13.1623 0-.4344-1.0535-.934-2.0309-1.5095-3.0191-4.0508.7059-8.0256 1.9005-11.8592 3.5838-7.4391 10.7405-9.4699 21.1987-8.4599 31.5917 4.4092 3.1603 9.3287 5.5495 14.5307 7.0916 1.1511-1.5421 2.2371-3.1603 3.1059-4.8436-1.6615-.6298-3.3231-1.4009-4.9087-2.248.4344-.2823.7928-.5647 1.2272-.8471 9.1767 4.2137 19.7978 4.2137 29.0505 0 .3584.2824.7928.6408 1.2272.8471-1.5856.9123-3.1711 1.6833-4.9087 2.248.8688 1.6833 1.9548 3.3015 3.1059 4.8436 5.202-1.5421 10.1215-3.9313 14.5307-7.0916 1.1512-12.0111-2.096-22.4042-8.6011-31.6677zm-29.4958 25.282c-2.8236 0-5.2019-2.5303-5.2019-5.5494s2.248-5.6146 5.1368-5.6146c2.8887 0 5.2019 2.5303 5.2019 5.6146 0 3.0842-2.248 5.5494-5.1368 5.5494zm19.081 0c-2.8236 0-5.1259-2.5303-5.1259-5.5494s2.2372-5.6146 5.1259-5.6146c2.8888 0 5.2128 2.5303 5.1368 5.6146 0 3.0842-2.248 5.5494-5.1368 5.5494z"/><path d="m137.436 43.4725c2.118 0 3.834-1.5096 3.834-3.3666 0-1.8571-1.716-3.3666-3.834-3.3666s-3.833 1.5095-3.833 3.3666c0 1.857 1.715 3.3666 3.833 3.3666z"/><path d="m133.614 45.7969c2.454.9882 5.278.9882 7.732 0v13.8356h-7.732z"/></g></g></g></svg>