<svg width="25" height="25" viewBox="0 0 25 25" fill="none" xmlns="http://www.w3.org/2000/svg">
  <path d="M1.25 18.72C1.25 18.72 1.82 16.39 3.72 16.22C5.62 16.05 6.33 16.79 7.99 14.22C9.65 11.65 10.57 7.92002 11.79 6.60002C12.4983 5.67656 13.479 4.99915 14.5934 4.66357C15.7078 4.328 16.8995 4.35124 18 4.73002C21.12 5.64002 20.78 9.64002 20.14 11.34C19.5 13.04 19.66 13.64 20.41 13.51C21.16 13.38 23.29 11.81 23.63 12.12C23.97 12.43 24.03 13.23 21.76 14.86C19.49 16.49 13.29 20.62 10.58 20.55C9.79259 20.5659 9.01287 20.3926 8.30638 20.0446C7.59988 19.6965 6.98726 19.184 6.52 18.55C5.97 18.05 5.77 18.11 5.3 18.25C5.00691 18.3438 4.69253 18.3483 4.3969 18.2628C4.10128 18.1773 3.83779 18.0058 3.64 17.77C3 17.16 1.89 17.64 1.25 18.72Z" fill="white"/>
  <path d="M10.6 20.69H10.53C9.78865 20.7144 9.05156 20.5684 8.37544 20.2633C7.69933 19.9582 7.10221 19.502 6.63002 18.93C6.55081 18.83 6.46387 18.7364 6.37002 18.65C5.89002 18.2 5.75002 18.25 5.30002 18.37C4.98239 18.4732 4.6411 18.4789 4.32023 18.3862C3.99936 18.2935 3.71365 18.1067 3.50002 17.85C3.42312 17.7675 3.32768 17.7045 3.2216 17.6663C3.11553 17.628 3.00186 17.6156 2.89002 17.63C2.5705 17.702 2.27023 17.8419 2.00966 18.0404C1.7491 18.2388 1.53434 18.4911 1.38002 18.78C1.3651 18.8076 1.34068 18.8289 1.31126 18.84C1.28185 18.851 1.24944 18.851 1.22002 18.84C1.18874 18.8286 1.16301 18.8057 1.14812 18.7759C1.13324 18.7462 1.13034 18.7118 1.14002 18.68C1.25615 18.2448 1.43826 17.83 1.68002 17.45C1.88656 17.0729 2.18049 16.7507 2.53717 16.5106C2.89386 16.2705 3.3029 16.1194 3.73002 16.07C4.10296 16.0458 4.47708 16.0458 4.85002 16.07C5.97002 16.07 6.65002 16.07 7.90002 14.19C8.6881 12.872 9.3574 11.4865 9.90002 10.05C10.322 8.79812 10.9324 7.6179 11.71 6.54998C12.4279 5.61411 13.4184 4.92397 14.5449 4.57472C15.6715 4.22546 16.8787 4.23429 18 4.59998C18.4681 4.72741 18.9034 4.95412 19.2761 5.26472C19.6488 5.57531 19.9503 5.9625 20.16 6.39998C20.8006 8.00129 20.822 9.78375 20.22 11.4C19.73 12.69 19.79 13.15 19.93 13.31C20.07 13.47 20.04 13.45 20.34 13.39C20.8455 13.2217 21.3289 12.9934 21.78 12.71C22.78 12.13 23.42 11.81 23.68 12.04C23.757 12.1082 23.817 12.1934 23.8552 12.2889C23.8934 12.3844 23.9087 12.4875 23.9 12.59C23.9 13.21 23.16 14.02 21.8 14.99C20.0465 16.2441 18.2309 17.4089 16.36 18.48C13.74 19.94 11.8 20.69 10.6 20.69ZM5.73002 18C5.89071 18.0143 6.04692 18.0606 6.18946 18.1361C6.332 18.2117 6.45799 18.315 6.56002 18.44L6.84002 18.73C7.28486 19.2738 7.84935 19.7075 8.48943 19.9971C9.12951 20.2868 9.82787 20.4247 10.53 20.4C11.67 20.4 13.63 19.67 16.22 18.2C18.0801 17.1343 19.8857 15.9762 21.63 14.73C23.32 13.52 23.63 12.84 23.63 12.54C23.6339 12.4773 23.6243 12.4145 23.6018 12.3559C23.5794 12.2973 23.5447 12.2441 23.5 12.2C23.34 12.1 22.41 12.62 21.91 12.9C21.4356 13.2028 20.9249 13.4447 20.39 13.62C20.2727 13.6563 20.1476 13.6587 20.029 13.6268C19.9104 13.595 19.8033 13.5302 19.72 13.44C19.45 13.12 19.53 12.44 19.97 11.27C20.5416 9.72744 20.5202 8.02765 19.91 6.49998C19.7167 6.09501 19.4377 5.73685 19.0924 5.45025C18.7471 5.16364 18.3437 4.95542 17.91 4.83998C16.84 4.49602 15.69 4.49003 14.6164 4.82284C13.5428 5.15564 12.5979 5.81107 11.91 6.69998C11.1687 7.75198 10.5796 8.90334 10.16 10.12C9.62103 11.5709 8.95163 12.9699 8.16002 14.3C6.83002 16.35 6.06002 16.3 4.89002 16.3C4.52375 16.2758 4.15629 16.2758 3.79002 16.3C3.34788 16.3778 2.93261 16.5662 2.58291 16.8477C2.23321 17.1292 1.96044 17.4946 1.79002 17.91C2.09891 17.5951 2.50322 17.3912 2.94002 17.33C3.09529 17.31 3.2531 17.3267 3.40074 17.3788C3.54837 17.4309 3.68171 17.5169 3.79002 17.63C3.96944 17.8481 4.21062 18.0068 4.48189 18.0853C4.75316 18.1639 5.04184 18.1585 5.31002 18.07C5.44713 18.0318 5.58793 18.0083 5.73002 18Z" fill="black" stroke="black" stroke-width="0.2"/>
  <path d="M11.36 18.05C10.26 18.05 9.68001 16.05 9.66001 15.95C9.64915 15.9318 9.64257 15.9113 9.64077 15.8902C9.63896 15.8691 9.64198 15.8478 9.6496 15.828C9.65721 15.8082 9.66923 15.7904 9.68473 15.7759C9.70023 15.7615 9.71882 15.7507 9.73909 15.7445C9.75936 15.7382 9.78078 15.7367 9.80173 15.7399C9.82269 15.7432 9.84263 15.7512 9.86006 15.7632C9.87748 15.7753 9.89193 15.7912 9.90232 15.8097C9.91271 15.8282 9.91876 15.8488 9.92001 15.87C9.92001 15.87 10.54 18.02 11.55 17.75C12.31 17.55 12.35 14.75 12.19 13.08C12.1887 13.0616 12.1909 13.0431 12.1967 13.0256C12.2025 13.0081 12.2118 12.9919 12.2238 12.978C12.2359 12.964 12.2506 12.9526 12.2671 12.9444C12.2836 12.9361 12.3016 12.9312 12.32 12.93C12.3371 12.9286 12.3543 12.9306 12.3706 12.9359C12.3869 12.9412 12.402 12.9497 12.415 12.9609C12.428 12.972 12.4387 12.9856 12.4464 13.0009C12.4541 13.0162 12.4587 13.0329 12.46 13.05C12.46 13.53 12.84 17.68 11.62 18.05C11.534 18.0645 11.4461 18.0645 11.36 18.05Z" fill="black"/>
  <path d="M15 10C15.5523 10 16 9.32843 16 8.5C16 7.67157 15.5523 7 15 7C14.4477 7 14 7.67157 14 8.5C14 9.32843 14.4477 10 15 10Z" fill="black"/>
  <path d="M18 11C18.5523 11 19 10.3284 19 9.5C19 8.67157 18.5523 8 18 8C17.4477 8 17 8.67157 17 9.5C17 10.3284 17.4477 11 18 11Z" fill="black"/>
  <path d="M16.22 12.49C16.4796 12.49 16.69 12.2258 16.69 11.9C16.69 11.5741 16.4796 11.31 16.22 11.31C15.9604 11.31 15.75 11.5741 15.75 11.9C15.75 12.2258 15.9604 12.49 16.22 12.49Z" fill="black"/>
</svg>