<svg width="251" height="153" viewBox="0 0 251 153" fill="none" xmlns="http://www.w3.org/2000/svg">
<g clip-path="url(#clip0_9264_268880)">
<path d="M28.869 94.949C27.045 93.7671 25.8183 91.8647 25.4955 89.7114L24.9467 86.0442C24.9224 85.8661 24.7691 85.7285 24.5835 85.7285C24.3978 85.7285 24.2445 85.858 24.2203 86.0442L23.6715 89.7114C23.3487 91.8647 22.1219 93.7752 20.2979 94.949L19.8217 95.2566C19.7168 95.3214 19.6523 95.4428 19.6523 95.5642V95.5885C19.6523 95.7099 19.7168 95.8314 19.8217 95.8961L20.2979 96.2037C22.1219 97.3857 23.3487 99.288 23.6715 101.441L24.2203 105.109C24.2445 105.287 24.3978 105.424 24.5835 105.424C24.7691 105.424 24.9224 105.295 24.9467 105.109L25.4955 101.441C25.8183 99.288 27.045 97.3776 28.869 96.2037L29.3452 95.8961C29.4501 95.8314 29.5147 95.7099 29.5147 95.5885V95.5642C29.5147 95.4428 29.4501 95.3214 29.3452 95.2566L28.869 94.949Z" fill="#E44598"/>
<path d="M239.58 108.241C237.756 107.059 236.529 105.157 236.206 103.003L235.658 99.3362C235.633 99.1581 235.48 99.0205 235.294 99.0205C235.109 99.0205 234.955 99.15 234.931 99.3362L234.382 103.003C234.06 105.157 232.833 107.067 231.009 108.241L230.533 108.549C230.428 108.613 230.363 108.735 230.363 108.856V108.881C230.363 109.002 230.428 109.123 230.533 109.188L231.009 109.496C232.833 110.678 234.06 112.58 234.382 114.733L234.931 118.401C234.955 118.579 235.109 118.716 235.294 118.716C235.48 118.716 235.633 118.587 235.658 118.401L236.206 114.733C236.529 112.58 237.756 110.67 239.58 109.496L240.056 109.188C240.161 109.123 240.226 109.002 240.226 108.881V108.856C240.226 108.735 240.161 108.613 240.056 108.549L239.58 108.241Z" fill="#FFE05C"/>
<path d="M8.14338 110.541C6.75522 109.642 5.81094 108.185 5.56882 106.542L5.14914 103.749C5.12493 103.611 5.01194 103.506 4.87473 103.506C4.73753 103.506 4.61647 103.611 4.60033 103.749L4.18065 106.542C3.93853 108.185 2.99425 109.642 1.60608 110.541L1.2429 110.775C1.16219 110.824 1.11377 110.913 1.11377 111.01V111.026C1.11377 111.123 1.16219 111.213 1.2429 111.261L1.60608 111.496C2.99425 112.394 3.93853 113.852 4.18065 115.495L4.60033 118.288C4.62454 118.425 4.73753 118.531 4.87473 118.531C5.01194 118.531 5.133 118.425 5.14914 118.288L5.56882 115.495C5.81094 113.852 6.75522 112.394 8.14338 111.496L8.50657 111.261C8.58727 111.213 8.6357 111.123 8.6357 111.026V111.01C8.6357 110.913 8.58727 110.824 8.50657 110.775L8.14338 110.541Z" fill="#29CC7A"/>
<path d="M249.523 89.8326C248.135 88.934 247.191 87.4769 246.948 85.8336L246.529 83.0407C246.505 82.9031 246.392 82.7979 246.254 82.7979C246.117 82.7979 245.996 82.9031 245.98 83.0407L245.56 85.8336C245.318 87.4769 244.374 88.934 242.986 89.8326L242.623 90.0674C242.542 90.1159 242.493 90.205 242.493 90.3021V90.3183C242.493 90.4155 242.542 90.5045 242.623 90.5531L242.986 90.7879C244.374 91.6864 245.318 93.1436 245.56 94.7869L245.98 97.5798C246.004 97.7174 246.117 97.8226 246.254 97.8226C246.392 97.8226 246.513 97.7174 246.529 97.5798L246.948 94.7869C247.191 93.1436 248.135 91.6864 249.523 90.7879L249.886 90.5531C249.967 90.5045 250.015 90.4155 250.015 90.3183V90.3021C250.015 90.205 249.967 90.1159 249.886 90.0674L249.523 89.8326Z" fill="#E44598"/>
<path d="M162.246 26.5846C160.858 25.686 159.914 24.2289 159.672 22.5855L159.252 19.7927C159.228 19.655 159.115 19.5498 158.977 19.5498C158.84 19.5498 158.719 19.655 158.703 19.7927L158.283 22.5855C158.041 24.2289 157.097 25.686 155.709 26.5846L155.346 26.8193C155.265 26.8679 155.216 26.9569 155.216 27.0541V27.0703C155.216 27.1674 155.265 27.2565 155.346 27.305L155.709 27.5398C157.097 28.4384 158.041 29.8955 158.283 31.5389L158.703 34.3317C158.727 34.4693 158.84 34.5746 158.977 34.5746C159.115 34.5746 159.236 34.4693 159.252 34.3317L159.672 31.5389C159.914 29.8955 160.858 28.4384 162.246 27.5398L162.609 27.305C162.69 27.2565 162.738 27.1674 162.738 27.0703V27.0541C162.738 26.9569 162.69 26.8679 162.609 26.8193L162.246 26.5846Z" fill="#85D2FF"/>
<path d="M126.073 67.6688C123.66 61.2897 121.796 56.7969 121.796 56.7969L80.3765 71.8459L75.0175 72.1373C75.0175 72.1373 67.5198 78.3221 63.9122 85.5512C62.0236 89.3316 61.3457 93.2173 63.0567 97.0464C64.7757 100.875 69.021 101.863 73.7988 101.555C73.7262 110.404 75.9295 117.681 83.1125 120.814C81.5952 128.027 80.8123 135.483 80.6912 142.064C80.6105 146.322 83.0721 150.216 87.0106 151.981L87.2366 152.078C93.7981 155.024 101.28 150.548 101.82 143.359C102.402 135.661 103.063 129.282 104.185 123.016C105.557 122.911 106.921 122.773 108.269 122.595C109.81 131.014 112.555 139.546 115.605 146.605C117.3 150.515 121.15 153.033 125.46 153.001H125.71C132.893 152.944 137.848 145.755 135.371 138.996C132.312 130.658 130.068 123.866 128.414 116.702C134.265 113.617 136.073 108.226 135.758 101.685C136.654 101.717 137.751 101.79 138.502 101.798C142.303 101.839 145.717 99.9445 147.703 96.6821C150.979 91.2988 149.672 81.034 126.065 67.6688H126.073Z" fill="#698EFF"/>
<path opacity="0.5" d="M77.9068 70.4537C77.9068 70.4537 83.1286 98.7627 125.871 65.5723L77.9068 70.4537Z" fill="#2E62E8"/>
<path d="M116.848 21.186C118.164 19.5993 118.817 17.6403 118.527 15.6246C118.051 12.3622 115.226 9.90934 111.634 9.23744C110.609 9.04315 109.52 8.99458 108.406 9.11601C108.301 9.1241 108.196 9.14029 108.091 9.15648C102.966 9.85267 101.126 12.8803 97.7366 17.1708C95.6786 19.7774 92.523 22.7646 89.9887 25.007L116.856 21.1941L116.848 21.186Z" fill="#57F287"/>
<path d="M98.8343 28.3339C98.4469 28.3339 98.0676 28.1477 97.8335 27.7996C97.4622 27.2491 97.5995 26.4882 98.1563 26.1158C98.2774 26.0349 110.416 17.6077 109.73 4.51772C109.697 3.84581 110.206 3.27914 110.876 3.23867C111.521 3.22248 112.111 3.71629 112.151 4.38819C112.91 18.8625 100.061 27.751 99.5122 28.1234C99.3024 28.261 99.0683 28.3339 98.8343 28.3339Z" fill="#232145"/>
<path d="M105.573 21.6875L83.0398 24.958C75.5018 24.1242 70.7562 19.2266 70.3607 12.4751C70.0702 7.57752 73.9845 2.96323 79.8277 2.23466C86.6071 1.39276 90.0291 5.56181 93.3381 9.148C100.763 17.1866 105.573 21.6794 105.573 21.6794V21.6875Z" fill="#29CC7A"/>
<path d="M94.7989 27.524C94.6698 27.524 94.5406 27.5079 94.4196 27.4593C84.4199 24.1159 78.6655 14.3774 78.4234 13.9645C78.0844 13.3898 78.2781 12.645 78.8592 12.305C79.4403 11.965 80.1747 12.1593 80.5137 12.7421C80.5702 12.8393 86.0664 22.1083 95.1863 25.1521C95.8239 25.3626 96.1629 26.0507 95.953 26.6902C95.7835 27.2002 95.3154 27.524 94.807 27.524H94.7989Z" fill="#232145"/>
<path d="M60.6193 34.8096C49.3849 36.38 45.753 35.6677 47.9725 52.4491C49.8691 67.4496 52.6858 66.211 64.7435 64.511L60.6193 34.8096Z" fill="#698EFF"/>
<path d="M59.4733 41.335L62.1043 60.3669C53.0328 61.4597 53.3718 60.7878 51.7819 50.5716C50.4905 42.2578 52.3307 42.1607 59.4733 41.335Z" fill="#B5CAFF"/>
<path d="M133.296 42.0388C132.57 36.3316 132.053 33.9273 130.778 29.4507C129.019 23.2578 123.894 18.9592 117.744 18.3602C115.533 18.1416 111.941 18.1821 107.906 18.3683C107.575 18.3845 107.244 18.4007 106.905 18.4169C102.151 18.6597 96.9054 19.0888 92.6521 19.534C84.4603 20.3921 72.7981 22.0435 68.1493 23.5169C62.411 25.3383 58.416 30.5031 57.9963 36.8173C57.6977 41.375 57.6897 43.7873 58.1497 49.4216C58.6178 55.0883 59.0294 57.5007 60.0947 62.034C61.5878 68.3888 66.519 72.9221 72.6528 73.6507C77.6405 74.2416 89.7628 73.5859 98.2209 72.8088C106.711 72.0316 118.898 70.445 123.773 68.9311C129.794 67.0692 133.821 61.6212 133.99 54.9992C134.111 50.2716 134.015 47.7864 133.28 42.0469L133.296 42.0388Z" fill="#698EFF"/>
<path d="M77.7858 38.2746C85.6951 36.4936 94.2582 35.5303 101.635 36.1698C106.3 36.5746 110.158 39.7641 111.053 44.1112C111.473 46.135 111.788 48.1993 111.973 50.3041C112.635 58.0755 106.655 64.9888 98.5034 66.2031C94.6456 66.7779 90.5618 67.2717 86.5587 67.5874C77.8584 68.2674 70.2477 62.1312 69.7231 53.8984C69.594 51.826 69.5456 49.7536 69.602 47.7541C69.7231 43.2207 73.1209 39.3269 77.7858 38.2746Z" fill="#B5CAFF"/>
<path d="M87.0187 60.7305L82.4507 61.2486" stroke="#698EFF" stroke-width="4.2" stroke-miterlimit="10" stroke-linecap="round"/>
<path d="M97.7124 59.5244L92.9668 60.0587" stroke="#698EFF" stroke-width="4.2" stroke-miterlimit="10" stroke-linecap="round"/>
<path d="M128.292 27.1115C139.487 25.2577 142.739 23.4929 145.604 40.1772C148.251 55.0644 145.193 54.7244 133.175 56.6996L128.292 27.1115Z" fill="#698EFF"/>
<path d="M130.593 33.6441L133.716 52.6032C142.699 50.9437 142.182 50.4013 140.665 40.1689C139.438 31.847 137.646 32.3003 130.585 33.6441H130.593Z" fill="#B5CAFF"/>
<path d="M119.328 49.3777C120.9 49.2409 122.018 47.3245 121.825 45.0975C121.632 42.8704 120.202 41.1759 118.63 41.3128C117.058 41.4496 115.94 43.3659 116.132 45.593C116.325 47.8201 117.756 49.5145 119.328 49.3777Z" fill="#232145"/>
<path d="M64.4464 55.0388C66.0184 54.902 67.1365 52.9857 66.9438 50.7586C66.7511 48.5315 65.3206 46.8371 63.7486 46.9739C62.1766 47.1107 61.0584 49.0271 61.2511 51.2541C61.4438 53.4812 62.8744 55.1757 64.4464 55.0388Z" fill="#232145"/>
<path d="M118.713 64.2363C118.261 64.2363 117.833 63.9854 117.623 63.5563C117.332 62.9492 117.583 62.2287 118.18 61.9373C120.076 61.0144 121.505 59.8325 122.441 58.4321C122.812 57.8735 123.563 57.7197 124.12 58.0921C124.677 58.4644 124.83 59.2173 124.459 59.7759C123.281 61.5406 121.529 63.0059 119.245 64.123C119.076 64.204 118.89 64.2444 118.713 64.2444V64.2363Z" fill="#232145"/>
<path d="M135.766 101.676C136.662 101.709 137.759 101.782 138.51 101.79C138.179 101.814 138.841 101.79 138.51 101.79C141.948 101.531 145.903 99.6444 147.711 96.6735C150.987 91.2902 149.68 81.0254 126.073 67.6602L129.188 78.6049L123.442 83.373L135.758 101.668L135.766 101.676Z" fill="#698EFF"/>
<path d="M52.7826 130.349L153.522 57.1199C154.603 56.3347 156.12 56.5776 156.903 57.6623C157.686 58.7471 157.444 60.269 156.362 61.0542C156.362 61.0542 54.4936 132.746 54.4936 132.754C52.9602 133.798 51.2169 131.564 52.7826 130.349Z" fill="#FF8B18"/>
<path d="M78.6574 92.2863C78.5283 92.2863 78.3991 92.2701 78.2781 92.2215C77.6405 92.011 77.3015 91.3229 77.5114 90.6834L79.9326 83.3977C80.1424 82.7582 80.8284 82.4182 81.466 82.6286C82.1036 82.8391 82.4426 83.5272 82.2327 84.1667L79.8115 91.4525C79.642 91.9625 79.1739 92.2863 78.6655 92.2863H78.6574Z" fill="#4777F6"/>
<path d="M64.2189 134.818C68.0605 130.236 65.8895 122.983 60.0624 121.696C59.8445 121.647 59.6185 121.607 59.3926 121.574C55.3653 121.008 51.2815 121.971 47.9725 124.327C46.9152 125.08 45.866 125.921 45.0024 126.642L62.9356 136.364L64.2269 134.818H64.2189Z" fill="#FFC518"/>
<path d="M43.0412 128.342C42.9928 128.382 42.9686 128.415 42.9686 128.415C42.9686 128.415 31.9763 126.723 22.6788 136.049C17.6749 141.068 11.6945 139.7 7.23137 137.368C4.73751 136.065 1.85625 138.299 2.44542 141.06C2.81667 142.8 3.47847 144.419 4.37433 145.86C7.27979 147.301 10.6856 148.402 14.0996 148.192C17.7798 147.957 20.992 146.184 23.6472 142.922C31.1853 133.677 38.0212 133.572 38.3037 133.572C38.9736 133.572 39.5143 134.114 39.5143 134.786C39.5143 135.458 38.9736 136 38.3037 136C38.2553 136 32.2668 136.186 25.5197 144.46C22.4124 148.264 18.6192 150.337 14.2368 150.612C13.8978 150.636 13.5588 150.644 13.2199 150.644C11.4524 150.644 9.70908 150.361 8.03844 149.9C10.5888 151.851 13.7606 153 17.1584 153H26.6334C27.9086 149.033 30.9028 144.362 37.8679 141.748C38.4974 141.513 39.1915 141.829 39.4255 142.46C39.6596 143.092 39.3448 143.788 38.7153 144.022C33.0255 146.168 30.3621 149.778 29.1354 153.008H37.5047C39.3126 149.301 42.7507 145.366 48.9894 141.829C49.5705 141.497 50.313 141.707 50.6358 142.29C50.9667 142.873 50.7569 143.618 50.1758 143.942C45.0347 146.856 41.984 149.997 40.2246 152.984C47.7384 152.846 59.8284 151.502 61.2085 138.388L61.3134 138.267L43.017 128.35L43.0412 128.342Z" fill="#FFC518"/>
<path d="M14.2368 150.612C18.6192 150.337 22.4124 148.264 25.5197 144.459C32.2668 136.186 38.2553 136 38.3037 136C38.9736 136 39.5143 135.457 39.5143 134.786C39.5143 134.114 38.9736 133.571 38.3037 133.571C38.0132 133.571 31.1853 133.677 23.6473 142.921C20.9839 146.184 17.7718 147.957 14.0996 148.191C10.6856 148.41 7.27979 147.301 4.37433 145.86C5.34282 147.43 6.60185 148.79 8.04652 149.899C9.70909 150.361 11.4524 150.644 13.2279 150.644C13.5669 150.644 13.9059 150.636 14.2448 150.612H14.2368Z" fill="#FF8B18"/>
<path d="M38.7315 144.014C39.361 143.78 39.6757 143.075 39.4417 142.452C39.2076 141.821 38.5055 141.505 37.884 141.74C30.919 144.363 27.9167 149.025 26.6496 152.992H29.1596C30.3863 149.77 33.0416 146.152 38.7395 144.006L38.7315 144.014Z" fill="#FF8B18"/>
<path d="M50.2 143.941C50.7811 143.609 50.9909 142.873 50.66 142.29C50.3291 141.707 49.5947 141.497 49.0136 141.828C42.7749 145.366 39.3368 149.292 37.5289 153.008H37.884C38.6023 153.008 39.4013 153.008 40.2568 152.992C42.0163 150.005 45.067 146.864 50.2081 143.949L50.2 143.941Z" fill="#FF8B18"/>
<path d="M62.9275 136.364L44.9943 126.642C44.0016 127.467 43.2672 128.139 43.0412 128.342L61.3376 138.258L62.9275 136.364Z" fill="#EC5F00"/>
<path d="M143.675 90.2944C146.936 94.5282 143.159 101.498 138.51 101.79C129.64 102.348 106.736 100.017 108.116 89.3958C109.326 80.0863 125.879 80.4667 135.153 84.1339C139.688 85.9229 142.102 88.2544 143.675 90.2944Z" fill="url(#paint0_linear_9264_268880)"/>
<path d="M63.9202 85.5508C59.0778 96.0746 65.1873 101.142 67.092 102.567C74.2266 107.886 91.1671 118.766 98.81 108.703C108.632 95.7751 81.1593 89.2017 81.1593 89.2017L63.9202 85.5589V85.5508Z" fill="url(#paint1_linear_9264_268880)"/>
<path d="M195.82 65.2078C195.82 65.2078 187.056 65.8959 181.406 63.3783C172.835 59.5574 169.082 54.3764 166.281 55.5421C163.303 56.7888 164.498 61.5164 171.269 66.3574C166.895 66.1631 164.643 69.9193 170.252 72.9631C175.619 75.8773 180.898 75.4807 180.898 75.4807C176.507 77.0107 173.61 78.3707 176.717 80.864C180.002 83.495 194.15 79.6578 194.15 79.6578L195.82 65.1997V65.2078Z" fill="#20C57A"/>
<path d="M224.302 102.049C223.907 98.487 218.854 92.8204 214.415 88.4651C217.434 80.7828 220.815 67.377 209.524 63.8475C209.726 63.1028 209.839 62.3256 209.839 61.5161C209.839 56.5942 205.868 52.6113 200.961 52.6113C196.054 52.6113 192.084 56.5942 192.084 61.5161C192.084 63.4589 192.713 65.2561 193.77 66.7213C191.543 69.247 190.122 73.3028 193.351 79.3823C195.885 84.1585 199.299 87.4209 202.503 89.639C199.097 94.8847 195.328 101.628 195.732 105.23C196.45 111.674 203.423 116.183 211.308 115.301C219.193 114.418 225.012 108.485 224.302 102.041V102.049Z" fill="#7BE897"/>
<path d="M206.183 61.1109C207.329 60.6981 207.596 59.1438 206.603 58.4314C205.295 57.4924 203.568 57.1848 201.938 57.7676C200.308 58.3505 199.218 59.6133 198.766 61.119C198.403 62.3414 199.549 63.4747 200.744 63.0457L206.183 61.1109Z" fill="white"/>
<path d="M201.3 58.0518C200.041 58.6994 199.154 59.8246 198.766 61.1199C198.403 62.3422 199.549 63.4756 200.744 63.0465L204.19 61.8241C203.786 60.278 202.793 58.9018 201.3 58.0518Z" fill="#232145"/>
<path d="M194.537 58.5209C191.486 56.6347 184.11 56.918 182.415 59.209C182.415 59.2171 182.407 59.2252 182.399 59.2333C184.271 60.488 187.217 60.7309 190.938 59.9294C191.591 59.7918 192.237 60.2047 192.374 60.8604C192.511 61.5161 192.1 62.1637 191.446 62.3013C189.816 62.6494 188.323 62.8275 186.951 62.8275C185.094 62.8275 183.48 62.5037 182.116 61.8642C182.471 63.1675 183.383 64.6004 184.739 65.7661C185.288 66.2356 185.885 66.6404 186.515 66.948C186.773 67.0775 187.031 67.1909 187.29 67.3042C191.486 69.1904 193.787 69.2633 195.667 66.778C197.547 64.2928 197.58 60.4152 194.529 58.529L194.537 58.5209Z" fill="#FFC518"/>
<path d="M191.454 62.3093C192.108 62.1717 192.527 61.5241 192.382 60.8684C192.245 60.2126 191.599 59.7917 190.946 59.9374C187.217 60.7388 184.271 60.496 182.407 59.2412C181.923 59.9131 181.85 60.8522 182.124 61.8722C183.488 62.5117 185.102 62.8355 186.959 62.8355C188.323 62.8355 189.824 62.6574 191.454 62.3093Z" fill="#FF8B18"/>
<path d="M227.022 86.887C224.052 87.2351 221.445 85.0979 220.783 84.4908C220.775 84.4827 220.767 84.4665 220.751 84.4584C220.662 84.3775 220.614 84.337 220.614 84.337C220.614 84.337 220.025 84.5151 219.234 84.6041C218.41 84.6932 217.369 84.7013 216.562 84.3127C215.465 83.7865 214.383 82.3051 214.383 82.3051C214.383 82.3051 211.098 83.0822 208.621 80.2732C206.684 78.0794 198.984 60.2617 212.115 63.9855C216.699 65.2808 220.63 69.2475 223.818 74.0884C228.902 81.8275 230.121 86.5308 227.03 86.8951L227.022 86.887Z" fill="#20C57A"/>
<path d="M204.408 144.905C204.246 133.378 203.851 104.162 203.697 93.0389C203.447 90.8289 205.077 88.6513 207.321 88.457C210.848 88.3599 217.966 88.3113 221.55 88.2385C222.89 88.2223 223.987 89.2908 224.003 90.6347C224.028 92.0027 222.906 93.1199 221.55 93.0956L212.93 92.9742C212.341 92.958 208.112 92.9256 207.773 92.9013C207.951 92.877 208.088 92.707 208.08 92.5289L208.072 93.0389C207.918 104.048 207.515 133.531 207.361 144.905C207.305 146.791 204.496 146.848 204.424 144.905H204.408Z" fill="#FF8B18"/>
<path d="M141.311 153L143.595 149.341C144.684 147.593 146.597 146.524 148.655 146.524H150.995L157.751 141.1C158.598 140.42 159.655 140.048 160.745 140.048H211.607C213.011 140.048 214.27 140.922 214.762 142.242L216.974 148.143C217.853 150.491 216.118 153 213.616 153H141.303H141.311Z" fill="#242145"/>
<path d="M210.719 140.048H194.577V142.476H210.719V140.048Z" fill="#8083FF"/>
<path d="M191.147 153.001H157.985C156.613 153.001 155.685 151.592 156.225 150.329L162.512 135.555C162.811 134.851 163.505 134.39 164.272 134.39H197.435C198.807 134.39 199.735 135.798 199.194 137.061L192.907 151.835C192.608 152.539 191.914 153.001 191.147 153.001Z" fill="#85D2FF"/>
<path d="M170.995 148.654L199.331 136.341C199.347 135.394 198.661 134.544 197.677 134.414L171.834 145.65L163.86 134.446C163.263 134.576 162.755 134.973 162.512 135.555L162.198 136.292L171.003 148.662L170.995 148.654Z" fill="#3F92EB"/>
<path d="M184.085 153L186.37 149.341C187.459 147.593 189.372 146.524 191.43 146.524H199.42L207.491 140.048H211.615C213.019 140.048 214.278 140.922 214.77 142.242L216.982 148.143C217.862 150.491 216.126 153 213.624 153H184.085Z" fill="#8083FF"/>
</g>
<defs>
<linearGradient id="paint0_linear_9264_268880" x1="141.722" y1="99.8305" x2="106.06" y2="81.3163" gradientUnits="userSpaceOnUse">
<stop offset="0.23" stop-color="#698EFF"/>
<stop offset="1" stop-color="#4C6AF7"/>
</linearGradient>
<linearGradient id="paint1_linear_9264_268880" x1="58.3999" y1="84.126" x2="98.7692" y2="110.202" gradientUnits="userSpaceOnUse">
<stop offset="0.26" stop-color="#698EFF"/>
<stop offset="1" stop-color="#4C6AF7"/>
</linearGradient>
<clipPath id="clip0_9264_268880">
<rect width="251" height="153" fill="white"/>
</clipPath>
</defs>
</svg>
