<svg width="180" height="127" viewBox="0 0 180 127" fill="none" xmlns="http://www.w3.org/2000/svg">
<rect x="0.666748" y="0.40332" width="179" height="125.907" rx="4" fill="url(#paint0_linear_834_12715)" fill-opacity="0.5"/>
<path opacity="0.7" d="M52.3161 70.9615C51.5306 71.1341 51.1855 71.7112 51.5485 72.2586C51.8002 72.5497 52.1268 72.7662 52.4929 72.8847C52.859 73.0033 53.2506 73.0193 53.6252 72.931L58.808 71.8005L58.689 71.5565L58.5343 71.2293C58.5343 71.1757 58.4926 71.1222 58.4748 71.0686V71.0151C58.4719 70.9794 58.4719 70.9436 58.4748 70.908C58.4719 70.8862 58.4719 70.8642 58.4748 70.8425C58.4748 70.8068 58.4748 70.7771 58.4748 70.7414V70.6819V70.551C58.5343 70.2723 58.576 69.9901 58.5997 69.7061L52.3161 70.9615Z" fill="url(#paint1_linear_834_12715)"/>
<path d="M82.318 37.8079C80.9553 37.7722 79.8962 37.7662 78.5335 37.8079C78.3757 37.8079 78.2244 37.8705 78.1128 37.9821C78.0012 38.0937 77.9385 38.2451 77.9385 38.4029L78.5335 53.0339C78.538 53.1126 78.5582 53.1897 78.5927 53.2605C78.6273 53.3314 78.6756 53.3947 78.7348 53.4467C78.7941 53.4988 78.8631 53.5385 78.9378 53.5637C79.0126 53.5888 79.0916 53.5989 79.1702 53.5932C80.5329 53.5397 81.5861 53.4504 82.9428 53.2957C84.0501 53.1789 85.079 52.6694 85.8431 51.8596C86.6071 51.0497 87.0559 49.993 87.1081 48.8808C87.1953 46.5226 87.0978 44.1612 86.8165 41.8182C86.6621 40.7257 86.1254 39.7234 85.3018 38.9892C84.4782 38.2549 83.421 37.8364 82.318 37.8079Z" fill="#718CF6"/>
<path d="M82.2943 40.2951C81.6245 40.2539 80.9528 40.2539 80.283 40.2951C80.0938 40.3161 79.9207 40.4111 79.8013 40.5594C79.682 40.7077 79.6263 40.8972 79.6463 41.0864L79.9677 48.9047C79.9644 49.0953 80.0363 49.2794 80.1676 49.4174C80.299 49.5555 80.4794 49.6363 80.6698 49.6425C81.3414 49.6153 82.0109 49.5497 82.6751 49.4462C83.0744 49.3764 83.438 49.1729 83.7062 48.869C83.9744 48.5651 84.1312 48.179 84.1508 47.7742C84.2184 45.7995 84.1368 43.8224 83.9068 41.8599C83.8646 41.4513 83.6799 41.0705 83.385 40.7844C83.0902 40.4983 82.704 40.3251 82.2943 40.2951Z" fill="#BACAFA"/>
<path d="M35.6072 46.5543C35.6266 49.1797 35.8795 51.7981 36.3629 54.3786C36.6345 56.2152 37.4658 57.9233 38.7437 59.2703C40.0215 60.6172 41.6836 61.5374 43.5034 61.9054C46.4786 62.4528 53.7441 62.542 58.8019 62.4111C63.8598 62.2802 71.1193 61.8161 74.0588 61.114C75.8628 60.6586 77.4818 59.6566 78.6941 58.2452C79.9064 56.8339 80.6525 55.0822 80.8303 53.2303C81.1837 50.6302 81.2992 48.0033 81.1755 45.3822C81.1785 42.7585 80.9455 40.1399 80.4793 37.558C80.2077 35.7214 79.3763 34.0132 78.0985 32.6663C76.8207 31.3193 75.1586 30.3992 73.3388 30.0312C68.2747 29.2841 63.1586 28.9458 58.0403 29.0197C52.915 29.2043 47.8129 29.8012 42.7834 30.8047C40.9668 31.2515 39.3341 32.2521 38.1113 33.6677C36.8885 35.0834 36.1361 36.8442 35.9583 38.7063C35.6057 41.3065 35.4882 43.9331 35.6072 46.5543Z" fill="url(#paint2_linear_834_12715)"/>
<path d="M34.5362 39.7892C35.8929 39.6404 36.9521 39.5571 38.3147 39.5036C38.3934 39.4987 38.4722 39.5096 38.5466 39.5355C38.6211 39.5614 38.6896 39.6018 38.7483 39.6544C38.8069 39.7069 38.8546 39.7707 38.8884 39.8418C38.9223 39.9129 38.9417 39.9901 38.9455 40.0688L39.4989 54.6999C39.4989 54.8577 39.4362 55.009 39.3246 55.1206C39.213 55.2322 39.0616 55.2949 38.9038 55.2949C37.5412 55.3484 36.482 55.3425 35.1194 55.2949C34.0018 55.274 32.9289 54.8521 32.0965 54.106C31.2641 53.36 30.7277 52.3396 30.5852 51.231C30.3116 48.8874 30.2221 46.526 30.3174 44.1684C30.3807 43.0546 30.8412 42.0004 31.6152 41.197C32.3892 40.3935 33.4255 39.8941 34.5362 39.7892Z" fill="#718CF6"/>
<path d="M34.2386 42.6749C34.9024 42.569 35.5721 42.5035 36.2439 42.4785C36.4338 42.4832 36.6142 42.5627 36.7457 42.6998C36.8772 42.8369 36.9492 43.0204 36.946 43.2104L37.2733 51.0346C37.2831 51.1285 37.2743 51.2233 37.2473 51.3137C37.2202 51.4042 37.1755 51.4883 37.1158 51.5613C37.056 51.6344 36.9824 51.6948 36.8991 51.7392C36.8158 51.7836 36.7246 51.8111 36.6306 51.82C35.9609 51.8611 35.2892 51.8611 34.6194 51.82C34.2148 51.791 33.8331 51.6218 33.5398 51.3416C33.2466 51.0614 33.0602 50.6877 33.0128 50.2849C32.7808 48.3226 32.6972 46.3455 32.7629 44.3706C32.7692 43.9593 32.9208 43.5635 33.1909 43.2532C33.461 42.9428 33.8321 42.738 34.2386 42.6749Z" fill="#BACAFA"/>
<path d="M55.3805 57.9665L63.3005 57.7404C68.2096 57.4548 69.7031 55.4318 70.2446 52.6234C70.7564 49.9697 70.6314 48.1609 70.2446 45.2513C69.9531 42.907 68.1441 41.9491 66.0793 42.0026L52.6433 42.3834C51.6453 42.4115 50.6989 42.8333 50.011 43.5569C49.3231 44.2805 48.9495 45.2469 48.9719 46.245L49.1266 51.6C49.2575 55.8602 51.4711 58.0795 55.3805 57.9665Z" fill="#BACAFA"/>
<path d="M63.5445 51.6833L65.2523 51.6357C65.4599 51.6039 65.6718 51.6166 65.8741 51.673C66.0764 51.7293 66.2645 51.828 66.4257 51.9625C66.587 52.097 66.7178 52.2643 66.8095 52.4532C66.9012 52.6421 66.9517 52.8483 66.9577 53.0582C66.9636 53.2681 66.9249 53.4769 66.844 53.6707C66.7631 53.8645 66.642 54.0389 66.4886 54.1823C66.3352 54.3257 66.1531 54.4349 65.9543 54.5026C65.7556 54.5703 65.5447 54.595 65.3356 54.575L63.6278 54.6226C63.4203 54.6544 63.2083 54.6417 63.006 54.5854C62.8037 54.529 62.6157 54.4303 62.4544 54.2958C62.2932 54.1613 62.1623 53.9941 62.0706 53.8052C61.9789 53.6163 61.9284 53.41 61.9225 53.2001C61.9165 52.9902 61.9553 52.7815 62.0361 52.5877C62.117 52.3939 62.2381 52.2195 62.3915 52.0761C62.5449 51.9326 62.727 51.8234 62.9258 51.7557C63.1246 51.688 63.3355 51.6633 63.5445 51.6833Z" fill="#718CF6"/>
<path d="M55.5294 51.9094L57.2371 51.8618C57.4447 51.83 57.6567 51.8427 57.859 51.899C58.0613 51.9554 58.2493 52.0541 58.4106 52.1886C58.5718 52.3231 58.7026 52.4904 58.7943 52.6793C58.8861 52.8682 58.9366 53.0744 58.9425 53.2843C58.9485 53.4942 58.9097 53.703 58.8288 53.8968C58.748 54.0906 58.6268 54.265 58.4735 54.4084C58.3201 54.5518 58.138 54.661 57.9392 54.7287C57.7404 54.7964 57.5295 54.8211 57.3204 54.8011L55.6067 54.8487C55.399 54.8802 55.187 54.8671 54.9848 54.8104C54.7825 54.7537 54.5946 54.6547 54.4336 54.5198C54.2725 54.385 54.142 54.2175 54.0506 54.0283C53.9592 53.8392 53.9091 53.6328 53.9036 53.4229C53.8981 53.2129 53.9373 53.0041 54.0185 52.8105C54.0998 52.6168 54.2214 52.4426 54.3751 52.2995C54.5289 52.1564 54.7113 52.0476 54.9103 51.9803C55.1093 51.9131 55.3203 51.8889 55.5294 51.9094Z" fill="#718CF6"/>
<path d="M47.1342 46.765C47.053 45.5091 45.9703 44.5567 44.7159 44.6378C43.4615 44.7189 42.5104 45.8028 42.5916 47.0588L42.6911 48.5966C42.7723 49.8526 43.8551 50.805 45.1095 50.7238C46.3639 50.6427 47.3149 49.5588 47.2337 48.3029L47.1342 46.765Z" fill="black"/>
<path d="M75.9147 44.9061C75.8335 43.6502 74.7508 42.6978 73.4964 42.7789C72.242 42.86 71.2909 43.9439 71.3722 45.1999L71.4716 46.7377C71.5528 47.9937 72.6356 48.9461 73.89 48.865C75.1444 48.7838 76.0954 47.6999 76.0142 46.444L75.9147 44.9061Z" fill="black"/>
<path d="M73.8447 45.6499C74.0058 45.5385 74.1419 45.3947 74.2443 45.2277C74.3468 45.0607 74.4133 44.8742 74.4397 44.6801L74.5408 44.0077C74.5437 43.9909 74.5524 43.9757 74.5655 43.9648C74.5786 43.9539 74.5952 43.948 74.6123 43.9482C74.6283 43.9494 74.6434 43.9558 74.6553 43.9666C74.6672 43.9774 74.6751 43.9919 74.6777 44.0077L74.7789 44.6801C74.8108 44.8789 74.8852 45.0685 74.9972 45.2359C75.1091 45.4033 75.2559 45.5445 75.4275 45.6499L75.5167 45.7035C75.521 45.7128 75.5232 45.723 75.5232 45.7332C75.5232 45.7435 75.521 45.7537 75.5167 45.763C75.521 45.7723 75.5232 45.7825 75.5232 45.7927C75.5232 45.803 75.521 45.8132 75.5167 45.8225L75.4275 45.882C75.2606 45.9875 75.1185 46.1276 75.0107 46.2929C74.9029 46.4582 74.8319 46.6448 74.8027 46.8399L74.7015 47.5123C74.6989 47.5281 74.691 47.5426 74.6791 47.5534C74.6672 47.5642 74.6521 47.5707 74.6361 47.5718C74.619 47.572 74.6024 47.5662 74.5893 47.5553C74.5763 47.5443 74.5675 47.5291 74.5647 47.5123L74.4635 46.8399C74.4378 46.6464 74.3715 46.4606 74.2689 46.2945C74.1664 46.1284 74.0299 45.9858 73.8685 45.876L73.7792 45.8165C73.7749 45.8072 73.7727 45.7971 73.7727 45.7868C73.7727 45.7765 73.7749 45.7664 73.7792 45.757C73.7749 45.7477 73.7727 45.7376 73.7727 45.7273C73.7727 45.717 73.7749 45.7069 73.7792 45.6976L73.8447 45.6499Z" fill="white"/>
<path d="M44.7234 47.0899C44.895 46.9845 45.0417 46.8432 45.1537 46.6758C45.2656 46.5085 45.3401 46.3189 45.372 46.12L45.4731 45.4477C45.476 45.4309 45.4847 45.4156 45.4978 45.4047C45.5109 45.3938 45.5275 45.388 45.5445 45.3882C45.5606 45.3893 45.5757 45.3958 45.5876 45.4066C45.5995 45.4174 45.6074 45.4319 45.61 45.4477L45.7112 46.12C45.7368 46.3144 45.803 46.5011 45.9056 46.6682C46.0081 46.8353 46.1446 46.979 46.3062 47.0899L46.3895 47.1434C46.4004 47.149 46.4096 47.1575 46.4159 47.1681C46.4222 47.1786 46.4254 47.1907 46.4252 47.2029C46.4254 47.2152 46.4222 47.2273 46.4159 47.2378C46.4096 47.2483 46.4004 47.2569 46.3895 47.2624L46.3062 47.3219C46.1442 47.4311 46.0074 47.5735 45.9048 47.7397C45.8022 47.906 45.7362 48.0921 45.7112 48.2858L45.61 48.9582C45.6074 48.974 45.5995 48.9885 45.5876 48.9993C45.5757 49.0101 45.5606 49.0166 45.5445 49.0177C45.5275 49.0179 45.5109 49.0121 45.4978 49.0011C45.4847 48.9902 45.476 48.975 45.4731 48.9582L45.372 48.2858C45.3435 48.0896 45.273 47.9019 45.1651 47.7355C45.0573 47.5691 44.9147 47.428 44.7472 47.3219L44.6639 47.2624C44.653 47.2569 44.6438 47.2483 44.6375 47.2378C44.6312 47.2273 44.628 47.2152 44.6282 47.2029C44.628 47.1907 44.6312 47.1786 44.6375 47.1681C44.6438 47.1575 44.653 47.149 44.6639 47.1434L44.7234 47.0899Z" fill="white"/>
<path d="M44.1698 49.7732C44.4492 49.7732 44.6756 49.5468 44.6756 49.2675C44.6756 48.9881 44.4492 48.7617 44.1698 48.7617C43.8905 48.7617 43.6641 48.9881 43.6641 49.2675C43.6641 49.5468 43.8905 49.7732 44.1698 49.7732Z" fill="white"/>
<path d="M73.0175 47.7503C73.2968 47.7503 73.5233 47.5238 73.5233 47.2445C73.5233 46.9652 73.2968 46.7388 73.0175 46.7388C72.7382 46.7388 72.5117 46.9652 72.5117 47.2445C72.5117 47.5238 72.7382 47.7503 73.0175 47.7503Z" fill="white"/>
<path d="M65.7878 22.2903C65.164 22.1742 64.5268 22.1481 63.8956 22.2129H63.7111C61.2119 22.5342 60.0218 23.7837 58.5461 25.5925C61.2952 28.4545 62.9851 30.0134 62.9851 30.0134C63.5683 30.5732 64.3274 30.9138 65.1332 30.9773C66.071 30.6297 66.9753 30.1976 67.8347 29.6861C68.6998 29.1778 69.3383 28.3585 69.6199 27.3954C69.6199 27.3656 69.6199 27.3359 69.6199 27.3061C69.7509 26.8748 69.8013 26.423 69.7686 25.9733C69.5068 24.105 67.8883 22.6889 65.7878 22.2903Z" fill="#83ED90"/>
<path d="M60.2479 31.2451C60.1031 31.2624 59.9563 31.2418 59.8218 31.1855C59.6873 31.1292 59.5696 31.0391 59.4803 30.9238C59.4103 30.8364 59.3586 30.7357 59.3284 30.6278C59.2982 30.5199 59.2901 30.407 59.3046 30.2959C59.319 30.1848 59.3557 30.0778 59.4125 29.9812C59.4693 29.8846 59.5449 29.8005 59.635 29.7338C61.2697 28.4521 62.6065 26.8305 63.5527 24.9813C64.499 23.1321 65.0321 21.0994 65.1153 19.0238C65.1264 18.8029 65.2247 18.5954 65.3888 18.447C65.5528 18.2986 65.7691 18.2214 65.99 18.2325C66.211 18.2435 66.4185 18.3419 66.5669 18.5059C66.7153 18.6699 66.7925 18.8862 66.7814 19.1071C66.6887 21.4267 66.0926 23.6983 65.0342 25.7645C63.9759 27.8307 62.4808 29.6419 60.6525 31.0726C60.5341 31.163 60.395 31.2223 60.2479 31.2451Z" fill="#3D8A46"/>
<path d="M58.8019 32.09C52.9586 29.466 50.87 25.9496 50.2452 24.5573C50.1485 24.3657 49.9816 24.2188 49.7792 24.1473C49.5769 24.0757 49.3547 24.085 49.159 24.1733C48.9634 24.2615 48.8093 24.4218 48.729 24.6208C48.6487 24.8199 48.6483 25.0422 48.7279 25.2415C49.9179 27.8893 52.3576 30.3764 55.5827 32.2982C56.7409 32.3522 57.9012 32.3383 59.0578 32.2566C58.9828 32.1867 58.8962 32.1303 58.8019 32.09Z" fill="#3D8A46"/>
<path d="M62.884 29.942C62.4436 29.5255 60.5038 27.7048 57.6833 24.7119L57.4869 24.5037L56.5468 23.4981C54.7616 21.612 52.9765 19.4045 49.2932 19.827C46.1276 20.1899 44.0092 22.6175 44.164 25.182C44.3841 28.7163 46.6274 30.5905 50.9772 31.727C52.4928 32.0554 54.0335 32.2544 55.5828 32.322C52.3696 30.4061 49.9359 27.9309 48.7339 25.2891C48.6495 25.1065 48.6325 24.9 48.6858 24.7061C48.7392 24.5123 48.8595 24.3436 49.0254 24.23C49.125 24.1684 49.2365 24.1286 49.3525 24.1131C49.4686 24.0975 49.5866 24.1066 49.6989 24.1397C49.8112 24.1729 49.9152 24.2293 50.0042 24.3053C50.0933 24.3813 50.1653 24.4753 50.2155 24.581C50.8403 25.9733 52.9289 29.4898 58.7722 32.1137C58.8623 32.1552 58.9448 32.2115 59.0162 32.2803C60.7411 32.1712 62.448 31.8658 64.1038 31.37L65.1332 31.0189C64.2991 30.8724 63.5211 30.4999 62.884 29.942Z" fill="#62C780"/>
<path d="M70.6135 92.5715C70.4982 91.8099 70.1136 91.1148 69.5294 90.6126C68.9453 90.1104 68.2004 89.8343 67.4301 89.8345H43.0631C42.2928 89.8343 41.5479 90.1104 40.9638 90.6126C40.3797 91.1148 39.995 91.8099 39.8797 92.5715L38.1778 103.704C37.9615 105.107 38.2655 106.541 39.0327 107.735C39.7998 108.93 40.9772 109.802 42.3431 110.189C45.003 110.939 49.0433 111.576 55.0711 111.576H55.4459C61.4737 111.576 65.514 110.939 68.1798 110.189C69.5458 109.802 70.7231 108.93 71.4903 107.735C72.2574 106.541 72.5615 105.107 72.3451 103.704L70.6135 92.5715Z" fill="#747F8D"/>
<path d="M64.7048 92.9524L63.6753 93.1131C58.0907 93.9937 52.4025 93.9937 46.8178 93.1131L45.7884 92.9524C45.2354 92.9509 44.7054 92.7314 44.3132 92.3415C43.9211 91.9516 43.6985 91.4229 43.6938 90.8699V86.4253C43.694 86.0311 43.7781 85.6415 43.9407 85.2823C44.1033 84.9232 44.3407 84.6029 44.6369 84.3428C44.9331 84.0826 45.2813 83.8886 45.6584 83.7737C46.0355 83.6588 46.4328 83.6256 46.8238 83.6764L49.799 84.0572C53.4374 84.5272 57.1212 84.5272 60.7596 84.0572L63.6991 83.6764C64.0863 83.6312 64.4787 83.6682 64.8507 83.7849C65.2226 83.9016 65.5658 84.0954 65.8578 84.3537C66.1497 84.6119 66.384 84.9289 66.5452 85.2838C66.7064 85.6387 66.791 86.0236 66.7934 86.4134V90.8699C66.7887 91.4218 66.5669 91.9497 66.1761 92.3394C65.7852 92.7291 65.2567 92.9493 64.7048 92.9524Z" fill="url(#paint3_linear_834_12715)"/>
<path d="M61.5809 96.6772H52.6375V106.364H61.5809V96.6772Z" fill="#747F8D"/>
<path d="M47.3713 96.7722V106.292C47.3775 106.706 47.5452 107.102 47.8386 107.394C48.1321 107.686 48.5281 107.852 48.9422 107.857H49.7337V95.1895H48.9422C48.525 95.1941 48.1264 95.3628 47.8324 95.6589C47.5385 95.955 47.3729 96.3549 47.3713 96.7722Z" fill="#83ED90"/>
<path d="M61.6284 95.1895H51.3223V107.857H61.6165C61.8263 107.86 62.0347 107.822 62.2295 107.743C62.4243 107.665 62.6016 107.549 62.7511 107.402C62.9006 107.255 63.0193 107.079 63.1004 106.886C63.1814 106.692 63.2231 106.484 63.2231 106.274V96.7544C63.2184 96.3356 63.0479 95.9358 62.749 95.6425C62.4501 95.3492 62.0472 95.1863 61.6284 95.1895ZM60.8429 103.103C60.8441 103.418 60.7518 103.726 60.5777 103.988C60.4035 104.25 60.1555 104.455 59.8649 104.576C59.5744 104.696 59.2544 104.728 58.9457 104.667C58.6369 104.606 58.3533 104.455 58.1308 104.232C57.9082 104.01 57.7568 103.726 57.6957 103.417C57.6345 103.109 57.6665 102.789 57.7875 102.498C57.9085 102.208 58.113 101.96 58.3752 101.786C58.6374 101.611 58.9454 101.519 59.2601 101.52V99.4497L56.0826 100.509V103.894C56.0826 104.207 55.9898 104.513 55.8158 104.774C55.6419 105.034 55.3947 105.237 55.1055 105.357C54.8163 105.476 54.498 105.508 54.191 105.447C53.884 105.386 53.6019 105.235 53.3806 105.013C53.1592 104.792 53.0085 104.51 52.9474 104.203C52.8863 103.896 52.9177 103.578 53.0375 103.289C53.1573 102.999 53.3601 102.752 53.6204 102.578C53.8807 102.404 54.1867 102.312 54.4998 102.312V99.9316C54.5 99.7657 54.5524 99.604 54.6496 99.4695C54.7468 99.3349 54.8838 99.2344 55.0413 99.182L59.8016 97.5993C59.9205 97.5587 60.0474 97.5473 60.1717 97.5659C60.2959 97.5845 60.4139 97.6327 60.5157 97.7064C60.6165 97.7806 60.6986 97.8773 60.7555 97.9889C60.8123 98.1004 60.8422 98.2238 60.8429 98.349V103.103Z" fill="#83ED90"/>
<path d="M20.4933 33.0779C21.4637 32.4523 22.2898 31.6274 22.9166 30.6579C23.5435 29.6885 23.9568 28.5967 24.129 27.4551L24.7241 23.5222C24.7371 23.4291 24.7835 23.344 24.8547 23.2827C24.9258 23.2214 25.0169 23.1881 25.1108 23.189C25.2051 23.1891 25.2963 23.2227 25.3682 23.2837C25.4401 23.3447 25.4881 23.4292 25.5036 23.5222L26.0986 27.4551C26.2697 28.597 26.6826 29.6893 27.3095 30.6589C27.9365 31.6285 28.7632 32.4532 29.7343 33.0779L30.2401 33.4111C30.2966 33.4464 30.3432 33.4955 30.3754 33.5538C30.4077 33.6121 30.4246 33.6777 30.4246 33.7443C30.4236 33.8099 30.4062 33.8742 30.374 33.9314C30.3418 33.9886 30.2957 34.0367 30.2401 34.0715L29.7343 34.4047C28.7632 35.0294 27.9365 35.8541 27.3095 36.8237C26.6826 37.7934 26.2697 38.8856 26.0986 40.0275L25.5036 43.9604C25.4881 44.0534 25.4401 44.138 25.3682 44.199C25.2963 44.26 25.2051 44.2935 25.1108 44.2936C25.0169 44.2945 24.9258 44.2612 24.8547 44.1999C24.7835 44.1386 24.7371 44.0535 24.7241 43.9604L24.129 40.0275C23.9568 38.8859 23.5435 37.7941 22.9166 36.8247C22.2898 35.8552 21.4637 35.0303 20.4933 34.4047L19.9816 34.0715C19.9242 34.0391 19.876 33.9926 19.8417 33.9364C19.8073 33.8802 19.7879 33.8161 19.7852 33.7502C19.784 33.6841 19.7997 33.6187 19.831 33.5603C19.8623 33.502 19.908 33.4527 19.9637 33.417L20.4933 33.0779Z" fill="#FEDB5E"/>
<path d="M60.6645 84.0513C59.891 84.1524 59.1174 84.2238 58.3439 84.2833C57.8738 84.7117 56.5587 85.5864 53.2206 86.7109C53.0857 86.7513 52.9603 86.8183 52.8517 86.908C52.7432 86.9977 52.6538 87.1083 52.5887 87.2331C52.5236 87.358 52.4843 87.4946 52.4729 87.635C52.4616 87.7753 52.4785 87.9165 52.5226 88.0502C52.5668 88.1838 52.6373 88.3073 52.7301 88.4133C52.8228 88.5192 52.9358 88.6055 53.0624 88.6671C53.1891 88.7286 53.3268 88.7641 53.4674 88.7715C53.608 88.7789 53.7487 88.758 53.8811 88.7101C59.7065 86.7645 60.8014 85.1163 60.6645 84.0513Z" fill="#D8529B"/>
<path d="M58.4529 75.0226C61.2309 73.9513 62.2242 69.8194 60.6716 65.7938C59.1189 61.7682 55.6082 59.3732 52.8303 60.4445C50.0523 61.5158 49.059 65.6477 50.6116 69.6733C52.1643 73.699 55.675 76.0939 58.4529 75.0226Z" fill="url(#paint4_linear_834_12715)"/>
<path d="M55.3507 64.2915C54.345 62.56 51.7804 61.138 49.192 60.6263C45.0838 59.8944 40.8548 60.2703 36.9401 61.7151C35.5098 62.2719 34.3004 63.2805 33.496 64.5875C32.6915 65.8946 32.3359 67.4286 32.4832 68.9563C32.8641 72.0324 34.0065 73.7698 34.6373 76.1915C35.0122 77.6314 35.5774 79.339 36.1665 80.9515C37.7791 85.4259 41.8551 89.4302 48.0674 88.1569C49.7692 87.8059 53.9166 87.0383 56.6836 85.5151C60.0396 83.6587 60.4502 79.6901 59.2065 76.7389L56.2908 69.7952C56.1821 69.5761 56.1487 69.3272 56.1956 69.0872C56.5579 67.5402 56.313 65.9132 55.5113 64.5414L55.3507 64.2915Z" fill="#7393F9"/>
<path d="M114.444 63.994C117.116 62.8575 119.895 62.0007 122.626 61.019C123.394 60.7453 123.953 60.537 123.858 59.466C123.769 58.4902 124.512 57.8357 125.441 57.5323C125.879 57.3563 126.364 57.3359 126.816 57.4745C127.268 57.6131 127.658 57.9023 127.922 58.2939C128.517 59.1745 129.112 58.5676 129.707 58.4545C130.302 58.3415 130.505 58.0261 130.463 57.3657C130.465 56.8803 130.62 56.408 130.907 56.0161C131.193 55.6243 131.596 55.333 132.058 55.1839C132.52 55.0347 133.017 55.0354 133.479 55.1857C133.94 55.3361 134.343 55.6284 134.628 56.021C134.949 56.5089 135.253 56.5743 135.675 56.3066C136.098 56.0388 137.115 56.2649 137.068 55.1701C137.006 54.6517 137.13 54.1282 137.417 53.6924C137.705 53.2567 138.138 52.937 138.639 52.7901C139.686 52.451 140.531 52.7187 141.316 53.7243C141.56 54.0396 141.757 54.1705 142.155 54.0218C143.941 53.3554 145.779 52.7663 147.552 52.0464C150.355 50.9099 151.771 48.5478 152.795 45.8762C153.015 45.2812 153.217 44.6862 153.491 44.1626C153.551 43.9808 153.663 43.8209 153.814 43.7029C153.965 43.5848 154.147 43.5141 154.338 43.4994C154.529 43.4848 154.72 43.527 154.887 43.6206C155.054 43.7143 155.189 43.8553 155.276 44.0258C155.431 44.2562 155.549 44.5091 155.627 44.7755C157.099 48.881 158.565 52.9865 160.024 57.092C160.186 57.4286 160.25 57.8038 160.209 58.1749C160.048 58.9186 159.424 59.1983 158.626 58.8532C157.043 58.157 155.55 57.2705 153.866 56.7588C152.469 56.2744 150.97 56.1617 149.516 56.4315C149.914 57.1084 150.264 57.8123 150.563 58.5378C151.123 60.1121 151.094 61.8355 150.483 63.3904C149.872 64.9453 148.719 66.2268 147.237 66.9987C146.963 67.08 146.728 67.257 146.574 67.4973C146.42 67.7376 146.358 68.0252 146.398 68.3077C146.41 68.7929 146.258 69.268 145.965 69.655C145.672 70.042 145.256 70.318 144.785 70.4378C144.35 70.618 143.865 70.6418 143.414 70.5051C142.963 70.3684 142.573 70.0798 142.31 69.6881C141.715 68.7064 141.12 69.4085 140.525 69.5215C139.93 69.6346 139.781 69.9499 139.823 70.5628C139.861 71.0475 139.731 71.5305 139.455 71.9305C139.178 72.3305 138.772 72.6229 138.305 72.7583C137.863 72.9597 137.365 72.9998 136.896 72.8715C136.427 72.7432 136.019 72.4547 135.741 72.0562C135.146 71.0923 134.551 71.7528 133.914 71.8718C133.277 71.9908 133.158 72.2883 133.206 72.9071C133.215 73.3863 133.075 73.8565 132.805 74.2521C132.534 74.6478 132.147 74.9491 131.697 75.1142C131.247 75.2792 130.756 75.2998 130.294 75.1729C129.832 75.046 129.421 74.7781 129.118 74.4065C128.984 74.1902 128.779 74.0273 128.538 73.9459C128.297 73.8645 128.035 73.8695 127.797 73.9602C126.85 74.1766 125.868 74.1907 124.916 74.0016C123.963 73.8125 123.061 73.4244 122.268 72.8628C121.476 72.3012 120.811 71.5787 120.317 70.7425C119.823 69.9063 119.511 68.9753 119.401 68.0102C119.288 67.1653 119.02 67.1772 118.372 67.4152C117.609 67.7617 116.811 68.0231 115.991 68.1947C116.777 66.3442 116.277 64.946 114.444 63.994ZM140.275 64.7199C140.233 64.497 140.18 64.2766 140.114 64.0594C139.841 63.274 139.561 62.4886 139.281 61.6794C138.74 60.1503 138.746 60.1741 137.24 60.7036C136.693 60.894 136.508 61.1023 136.752 61.6854C137.127 62.5957 137.401 63.5418 137.764 64.4581C137.883 64.7556 137.818 65.3387 138.317 65.2613C138.982 65.1295 139.637 64.9485 140.275 64.7199ZM132.135 62.7266C132.034 62.7266 131.968 62.6612 131.921 62.6731C131.297 62.8173 130.696 63.0476 130.136 63.3573C129.755 63.637 130.243 64.1308 130.35 64.5176C130.51 65.1126 130.754 65.7076 130.945 66.2609C131.492 67.796 131.486 67.7722 133.004 67.2367C133.509 67.0582 133.7 66.8857 133.474 66.3264C133.051 65.297 132.718 64.2439 132.343 63.1967C132.284 63.0301 132.2 62.8694 132.135 62.7266ZM144.833 58.6925C144.674 58.6325 144.511 58.5828 144.345 58.5438C143.316 58.3534 143.119 58.5854 143.465 59.5612C143.81 60.537 144.173 61.4593 144.476 62.4291C144.672 63.0598 144.94 63.0241 145.381 62.6671C145.685 62.408 145.919 62.0764 146.062 61.7029C146.204 61.3293 146.25 60.9259 146.196 60.5298C146.141 60.1338 145.988 59.7578 145.75 59.4367C145.512 59.1156 145.196 58.8597 144.833 58.6925ZM125.31 69.2835C125.53 69.3371 125.762 69.4144 126.006 69.4501C126.916 69.5751 127.077 69.3847 126.78 68.5457C126.423 67.5283 126.042 66.5108 125.697 65.4874C125.524 64.9757 125.262 64.9638 124.881 65.2613C124.555 65.5008 124.299 65.8225 124.138 66.1936C123.977 66.5647 123.917 66.9719 123.965 67.3736C124.013 67.7785 124.161 68.1651 124.396 68.4985C124.631 68.832 124.945 69.1017 125.31 69.2835Z" fill="#FBAB42"/>
<path d="M114.444 63.994C116.277 64.946 116.771 66.374 115.956 68.2423C115.432 69.1467 114.367 69.5335 113.921 70.5688C113.659 71.1638 112.469 70.9139 112.183 70.188C111.499 68.4327 110.886 66.6537 110.285 64.8687C110.209 64.6636 110.204 64.4389 110.271 64.2307C110.338 64.0224 110.472 63.8427 110.654 63.7203C110.807 63.5646 111.009 63.4665 111.225 63.4427C111.442 63.4188 111.661 63.4707 111.844 63.5894C112.653 64.1666 113.623 63.5597 114.444 63.994Z" fill="#CCD6DC"/>
<path d="M135.663 50.505C135.707 50.3706 135.779 50.2474 135.876 50.1445C135.973 50.0416 136.091 49.9615 136.223 49.91C136.979 49.6423 137.728 49.3507 138.49 49.1068C138.633 49.0397 138.789 49.0051 138.947 49.0054C139.105 49.0057 139.261 49.041 139.404 49.1086C139.546 49.1763 139.672 49.2747 139.773 49.3968C139.873 49.5189 139.945 49.6616 139.983 49.8148C140.04 49.9597 140.067 50.1148 140.061 50.2703C140.055 50.4258 140.017 50.5785 139.949 50.7187C139.882 50.8589 139.786 50.9836 139.668 51.0851C139.55 51.1865 139.412 51.2625 139.263 51.3083C138.52 51.6117 137.758 51.8735 136.99 52.1056C136.784 52.1906 136.556 52.2052 136.341 52.1471C136.126 52.089 135.936 51.9615 135.8 51.7843C135.657 51.6066 135.568 51.3915 135.544 51.1647C135.52 50.9379 135.561 50.7089 135.663 50.505Z" fill="#CCD6DC"/>
<path d="M122.894 56.7109C122.707 56.6099 122.55 56.4606 122.44 56.2785C122.33 56.0965 122.271 55.8883 122.269 55.6756C122.257 55.4569 122.318 55.2403 122.441 55.0595C122.565 54.8787 122.745 54.7439 122.953 54.676C123.747 54.33 124.565 54.0398 125.399 53.8073C125.671 53.7288 125.963 53.7594 126.213 53.8928C126.463 54.0261 126.651 54.2515 126.738 54.5213C126.804 54.6462 126.843 54.7836 126.853 54.9246C126.863 55.0656 126.843 55.2071 126.795 55.3399C126.747 55.4728 126.671 55.5941 126.573 55.696C126.475 55.7978 126.357 55.8781 126.226 55.9315C125.381 56.3004 124.495 56.58 123.62 56.8835C123.406 56.9549 123.197 56.8537 122.894 56.7109Z" fill="#CCD6DC"/>
<path d="M129.654 54.3788C128.713 53.9266 128.6 52.8973 129.463 52.4034C130.295 51.9351 131.2 51.6131 132.141 51.4514C132.409 51.43 132.677 51.503 132.897 51.6578C133.117 51.8126 133.276 52.0396 133.347 52.2994C133.417 52.5592 133.395 52.8354 133.283 53.0804C133.172 53.3254 132.978 53.5237 132.736 53.641C131.992 53.9326 131.236 54.1825 130.487 54.4621C130.35 54.5118 130.205 54.5301 130.061 54.5156C129.916 54.5012 129.777 54.4545 129.654 54.3788Z" fill="#CCD6DC"/>
<path d="M133.98 38.5516L133.831 39.218C132.86 40.1111 131.795 40.8952 130.653 41.5564C128.511 42.9308 126.339 44.2577 124.257 45.7214C123.732 46.1537 123.099 46.4329 122.426 46.5285C121.753 46.624 121.066 46.5321 120.442 46.2628C119.749 45.7705 119.094 45.2255 118.485 44.6325C117.928 44.1058 117.255 43.7166 116.521 43.4961C113.887 42.7935 111.591 41.1729 110.047 38.9265C106.768 33.9761 103.579 28.99 100.354 23.9979C100.161 23.7314 100.029 23.4263 99.9667 23.1037C99.904 22.7811 99.9122 22.4487 99.9907 22.1296C100.056 21.725 100.383 21.4573 100.586 21.1003C101.58 20.5053 102.591 20.0531 103.615 21.011C103.921 21.3072 104.19 21.6387 104.418 21.9987C106.06 24.5215 107.691 27.0503 109.333 29.5731C109.476 29.7932 109.613 30.1681 109.976 29.9301C110.126 29.8472 110.238 29.7079 110.286 29.5428C110.334 29.3776 110.314 29.2002 110.231 29.0495C110.111 28.8238 109.978 28.6053 109.833 28.395C107.548 24.8666 105.275 21.3323 102.972 17.8159C102.472 17.1192 102.184 16.2925 102.145 15.4359L102.74 14.3827C102.848 14.349 102.95 14.2988 103.043 14.234C104.346 13.0975 105.721 13.6747 106.584 15.0551C108.089 17.4351 109.702 19.8151 111.267 22.1951C112.017 23.3315 112.748 24.4799 113.492 25.6223C113.611 25.8067 113.718 26.0745 114.004 25.9555C114.218 25.8844 114.405 25.7494 114.54 25.5687C114.706 25.2653 114.409 25.0451 114.266 24.819C111.632 20.7373 108.992 16.6616 106.346 12.5918C105.926 12.0179 105.686 11.3326 105.656 10.6223C105.829 10.045 106.165 9.53029 106.625 9.14078C108.268 8.43273 109.16 8.69453 110.142 10.2058L118.05 22.4212C118.449 23.0162 118.871 23.0935 119.211 22.5937C119.478 22.201 119.145 21.9511 118.973 21.6893C116.592 18.0519 114.212 14.4244 111.832 10.8068C111.328 10.1124 111.043 9.28398 111.011 8.42678C111.128 8.01371 111.344 7.63569 111.642 7.32603C112.832 6.16578 114.331 6.35618 115.331 7.81393C116.581 9.64653 117.669 11.5803 119.002 13.3534C120.752 16.2808 122.644 19.1189 124.548 21.9452C124.933 22.5447 125.414 23.0773 125.97 23.5219C126.099 23.6624 126.262 23.7669 126.444 23.8253C126.625 23.8837 126.819 23.894 127.006 23.8551C126.797 23.516 126.643 23.2601 126.47 22.9924C125.143 20.9396 123.822 18.8809 122.483 16.8401C122.226 16.4811 122.047 16.0721 121.958 15.6396C121.869 15.2071 121.871 14.7606 121.966 14.3292C123.507 12.3776 125.048 12.449 126.417 14.5434C127.053 15.5132 127.678 16.495 128.315 17.4708C129.469 19.2558 130.588 21.0408 131.802 22.8258C134.212 26.2827 134.932 30.0134 133.736 34.0594C133.283 35.5386 133.37 37.1301 133.98 38.5516Z" fill="#FEDB5E"/>
<path d="M120.442 46.245C119.252 47.078 117.979 47.0363 116.575 46.0784C116.087 45.7392 115.664 45.3108 115.206 44.936C114.569 44.4216 113.825 44.0557 113.028 43.865C110.379 43.2201 108.054 41.6367 106.483 39.4084C103.111 34.6484 99.7746 29.8884 96.4741 25.1284C95.3375 23.4922 96.2539 21.5584 98.1521 21.4275C98.9137 21.374 99.4195 21.844 99.9967 22.1832C99.9182 22.5023 99.91 22.8347 99.9726 23.1573C100.035 23.4799 100.167 23.785 100.36 24.0515C103.585 29.0316 106.774 34.0296 110.053 38.98C111.597 41.2264 113.893 42.8471 116.527 43.5496C117.261 43.7701 117.934 44.1593 118.491 44.6861C119.101 45.2542 119.753 45.7753 120.442 46.245Z" fill="#EE9845"/>
<path d="M100.556 21.1004C99.9314 20.2198 99.3007 19.3511 98.6878 18.4646C97.7119 17.0544 97.7417 15.9358 98.777 15.0612C99.8124 14.1865 100.878 14.2698 102.145 15.442C102.185 16.2986 102.472 17.1253 102.972 17.822C105.275 21.3384 107.548 24.8727 109.833 28.4011C109.978 28.6113 110.111 28.8299 110.232 29.0556C110.271 29.132 110.296 29.2156 110.303 29.3014C110.31 29.3873 110.3 29.4738 110.274 29.5558C110.247 29.6378 110.204 29.7137 110.148 29.779C110.092 29.8443 110.023 29.8977 109.946 29.9362C109.583 30.1682 109.446 29.7993 109.303 29.5792C107.661 27.0564 106.031 24.5276 104.388 22.0048C104.161 21.6448 103.891 21.3132 103.585 21.0171C102.562 20.0651 101.55 20.5114 100.556 21.1004Z" fill="#EE9845"/>
<path d="M102.71 14.3888C102.407 13.9545 102.079 13.5261 101.794 13.0739C101.002 11.8839 101.151 10.6939 102.186 9.92634C103.222 9.15879 104.341 9.23614 105.34 10.2893L105.626 10.5987C105.656 11.3089 105.897 11.9942 106.316 12.5681C108.97 16.6379 111.61 20.7236 114.236 24.8251C114.379 25.0512 114.676 25.2714 114.51 25.5748C114.375 25.7555 114.188 25.8905 113.974 25.9616C113.689 26.0806 113.582 25.8128 113.462 25.6284C112.719 24.486 111.987 23.3376 111.237 22.2012C109.672 19.8212 108.06 17.4947 106.554 15.0909C105.691 13.7105 104.317 13.1334 103.014 14.2698C102.919 14.3243 102.817 14.3644 102.71 14.3888Z" fill="#EE9845"/>
<path d="M106.596 9.11705C106.635 8.66425 106.818 8.23565 107.116 7.89258C107.414 7.54951 107.813 7.30957 108.256 7.2071C108.661 7.07246 109.099 7.06836 109.506 7.19538C109.914 7.32241 110.272 7.57415 110.529 7.91515C110.684 8.0758 110.826 8.24835 110.975 8.41495C111.007 9.27215 111.293 10.1006 111.796 10.7949C114.177 14.4165 116.557 18.044 118.937 21.6775C119.109 21.9393 119.443 22.1892 119.175 22.5819C118.836 23.0817 118.413 23.0222 118.015 22.4093L110.112 10.1821C109.131 8.6708 108.238 8.409 106.596 9.11705Z" fill="#EE9845"/>
<path d="M118.967 13.3416C120.21 12.8537 120.865 13.0739 121.942 14.3174C121.848 14.7489 121.845 15.1953 121.934 15.6278C122.023 16.0604 122.202 16.4694 122.46 16.8283C123.799 18.8692 125.12 20.9279 126.446 22.9806C126.619 23.2365 126.774 23.5042 126.982 23.8434C126.795 23.8822 126.602 23.872 126.42 23.8136C126.239 23.7552 126.076 23.6506 125.947 23.5102C125.386 23.0665 124.901 22.5338 124.513 21.9334C122.608 19.1072 120.716 16.269 118.967 13.3416Z" fill="#EE9845"/>
<path d="M138.282 12.7824C138.248 12.9844 138.17 13.1763 138.052 13.3441C137.935 13.5119 137.782 13.6513 137.603 13.7523C136.152 14.6864 134.706 15.6384 133.242 16.5666C132.504 17.0367 131.837 16.9236 131.457 16.3108C131.076 15.6979 131.278 15.1208 131.992 14.6567C133.46 13.6928 134.936 12.7368 136.419 11.7888C136.621 11.628 136.872 11.5405 137.13 11.5405C137.389 11.5405 137.639 11.628 137.841 11.7888C137.996 11.9005 138.119 12.0514 138.196 12.226C138.274 12.4006 138.303 12.5926 138.282 12.7824Z" fill="#EE9845"/>
<path d="M100.342 37.3856C100.226 37.7614 99.9703 38.0786 99.6278 38.2721C98.1997 39.1884 96.7717 40.1226 95.3376 41.0389C94.576 41.5208 93.9393 41.4375 93.5525 40.8366C93.1657 40.2356 93.3442 39.6109 94.088 39.123C95.5558 38.1591 97.0315 37.2051 98.5151 36.261C98.7095 36.1138 98.9467 36.0342 99.1905 36.0342C99.4343 36.0342 99.6715 36.1138 99.8659 36.261C100.043 36.3847 100.182 36.5559 100.266 36.7548C100.35 36.9537 100.376 37.1723 100.342 37.3856Z" fill="#EE9845"/>
<path d="M101.514 43.9484C101.336 43.9242 101.165 43.8576 101.018 43.7542C100.87 43.6508 100.749 43.5136 100.665 43.3541C100.582 43.1946 100.537 43.0173 100.536 42.8371C100.534 42.6569 100.576 42.4789 100.657 42.3181C101.217 41.2947 101.822 40.303 102.472 39.3431C102.546 39.2184 102.646 39.111 102.765 39.028C102.884 38.945 103.019 38.8883 103.161 38.8618C103.304 38.8354 103.451 38.8397 103.591 38.8744C103.732 38.9092 103.864 38.9736 103.978 39.0635C104.105 39.1317 104.216 39.2255 104.306 39.3389C104.395 39.4524 104.46 39.583 104.496 39.7227C104.532 39.8624 104.539 40.008 104.517 40.1506C104.494 40.2931 104.442 40.4294 104.364 40.551C103.811 41.5387 103.174 42.4966 102.579 43.4545C102.47 43.6322 102.31 43.7737 102.121 43.8615C101.932 43.9493 101.721 43.9795 101.514 43.9484Z" fill="#EE9845"/>
<path d="M128.083 14.008C127.901 13.9814 127.728 13.9106 127.58 13.8017C127.432 13.6929 127.313 13.5494 127.233 13.3839C127.153 13.2183 127.115 13.0356 127.122 12.8519C127.129 12.6682 127.181 12.4891 127.273 12.3301C127.827 11.3365 128.422 10.3726 129.059 9.42654C129.129 9.30038 129.225 9.19043 129.341 9.10384C129.456 9.01726 129.589 8.95598 129.73 8.92399C129.871 8.89201 130.017 8.89002 130.158 8.91817C130.3 8.94633 130.434 9.00398 130.552 9.08739C130.688 9.15462 130.808 9.25023 130.904 9.36776C130.999 9.48529 131.069 9.62201 131.107 9.76866C131.145 9.91532 131.152 10.0685 131.126 10.2179C131.1 10.3672 131.042 10.5093 130.957 10.6344C130.409 11.5983 129.82 12.5324 129.231 13.4725C129.119 13.6698 128.948 13.8274 128.742 13.9233C128.537 14.0192 128.306 14.0489 128.083 14.008Z" fill="#EE9845"/>
<path d="M133.515 21.7962C132.885 21.6177 132.557 21.3024 132.51 20.7609C132.48 20.6323 132.477 20.499 132.499 20.369C132.522 20.2389 132.571 20.1148 132.642 20.0038C132.714 19.8929 132.807 19.7974 132.916 19.7231C133.025 19.6487 133.148 19.597 133.277 19.5709C134.387 19.3588 135.507 19.2118 136.633 19.1306C136.895 19.1206 137.15 19.2124 137.345 19.3866C137.541 19.5608 137.661 19.8038 137.681 20.0648C137.752 20.3016 137.73 20.5567 137.619 20.7779C137.509 20.9991 137.318 21.1697 137.086 21.2548C135.915 21.5473 134.72 21.7286 133.515 21.7962Z" fill="#EE9845"/>
<path d="M98.1344 31.1084C98.7294 31.275 99.0745 31.5844 99.1281 32.1258C99.1579 32.2537 99.1619 32.3861 99.1399 32.5155C99.1179 32.6449 99.0703 32.7686 98.9999 32.8794C98.9296 32.9902 98.8378 33.0858 98.7301 33.1608C98.6223 33.2357 98.5008 33.2884 98.3724 33.3158C97.2365 33.5332 96.0876 33.6763 94.933 33.7442C94.6858 33.7206 94.4537 33.6145 94.2741 33.443C94.0944 33.2715 93.9777 33.0445 93.9427 32.7987C93.9077 32.5528 93.9564 32.3023 94.081 32.0874C94.2055 31.8726 94.3988 31.7059 94.6296 31.6141C95.7822 31.3506 96.9543 31.1814 98.1344 31.1084Z" fill="#EE9845"/>
<path d="M121.234 84.5988C120.968 84.3794 120.685 84.1805 120.389 84.0038L120.329 83.9681C120.169 83.8729 120.002 83.7896 119.835 83.7063C118.211 82.9593 116.408 82.6851 114.635 82.9149C113.498 83.0741 112.439 83.5829 111.604 84.3707C110.769 85.1585 110.2 86.1864 109.976 87.312C109.988 87.9809 110.192 88.6322 110.564 89.1889C110.935 89.7456 111.458 90.1845 112.07 90.4536C112.628 90.6656 113.154 90.9518 113.635 91.3044C114.165 91.7507 114.111 92.1612 113.492 92.4587C112.982 92.6599 112.445 92.7823 111.898 92.8217C111.654 92.8574 111.344 92.78 111.243 93.1311C111.245 94.4388 110.781 95.7044 109.934 96.7011C108.744 98.2124 107.447 99.6761 106.191 101.14C106.227 101.58 106.578 101.479 106.834 101.479C107.476 101.479 108.125 101.479 108.768 101.425C110.417 101.367 112.052 101.091 113.629 100.604C114.135 100.438 114.546 100.194 114.587 99.5868V99.5511H114.659L114.754 99.0989C115.102 98.2847 115.634 97.5619 116.307 96.9867C117.36 95.9692 118.461 94.9994 119.52 94.0117C120.834 92.8448 121.874 91.4023 122.567 89.7872C122.962 88.8987 123.045 87.9028 122.803 86.961C122.561 86.0192 122.008 85.1868 121.234 84.5988Z" fill="#3E721D"/>
<path d="M114.212 91.8936C114.212 91.2451 112.772 90.5787 112.266 90.3645L112.141 90.3109H112.088C110.832 89.7516 110.303 88.639 109.952 87.3359C109.856 87.5263 109.749 87.7167 109.666 87.9309C109.142 89.1209 108.773 89.3292 107.512 89.0674C106.526 88.8725 105.585 88.4995 104.733 87.9666C103.912 87.449 103.71 87.3716 103.275 88.0023C103.119 88.2582 103.018 88.5435 102.977 88.8403C102.936 89.1372 102.956 89.4393 103.037 89.7278C103.067 89.8052 103.103 89.8825 103.138 89.9539C103.588 90.7078 104.271 91.2948 105.084 91.6259C106.695 92.3584 108.42 92.8054 110.184 92.9468H110.297C110.451 92.9468 110.612 92.9468 110.767 92.9825C112.552 93.0777 114.04 92.7326 114.194 91.9948C114.206 91.9531 114.206 91.9234 114.212 91.8936Z" fill="#FECB4D"/>
<path d="M114.534 88.127C115.358 88.127 116.027 87.4584 116.027 86.6336C116.027 85.8088 115.358 85.1401 114.534 85.1401C113.709 85.1401 113.04 85.8088 113.04 86.6336C113.04 87.4584 113.709 88.127 114.534 88.127Z" fill="#292F33"/>
<path d="M114.641 101.949C114.479 101.128 114.479 100.283 114.641 99.4617C114.641 99.3487 114.688 99.2356 114.706 99.1226C114.602 99.4932 114.395 99.827 114.11 100.086C113.825 100.345 113.472 100.518 113.093 100.586C110.901 101.08 108.659 101.323 106.411 101.312C106.286 101.312 106.173 101.282 106.149 101.134C105.312 101.961 104.737 103.016 104.495 104.168C104.62 103.871 104.924 103.948 105.489 103.978L105.608 104.013C107.975 104.26 110.367 103.988 112.617 103.216C112.976 103.097 113.323 102.943 113.653 102.758C113.823 102.663 114 102.579 114.182 102.508L114.748 102.288L114.641 101.949Z" fill="#F4F7F9"/>
<path d="M136.877 116.859C136.898 116.876 136.922 116.888 136.948 116.896C136.973 116.903 137 116.905 137.026 116.901L136.949 116.788L136.877 116.859Z" fill="#414447"/>
<path d="M129.439 109.149C129.535 109.143 129.63 109.143 129.725 109.149C129.633 109.113 129.531 109.113 129.439 109.149Z" fill="#A88576"/>
<path d="M130.552 109.279C130.563 109.316 130.577 109.352 130.594 109.386C131.134 109.482 131.667 109.617 132.188 109.791C131.694 109.452 131.058 109.482 130.552 109.279Z" fill="#A88576"/>
<path d="M130.308 109.226H130.135C130.266 109.226 130.409 109.226 130.546 109.285L130.308 109.226Z" fill="#3D3E40"/>
<path d="M130.052 109.19L130.136 109.22H130.308L130.052 109.19Z" fill="#3D3E40"/>
<path d="M113.528 102.77C113.499 102.757 113.467 102.751 113.436 102.751C113.404 102.751 113.373 102.757 113.344 102.77H113.468H113.528Z" fill="#3E721D"/>
<path d="M114.778 102.282L113.98 102.58L113.343 102.818C110.924 103.703 108.343 104.056 105.775 103.853H105.179C105.046 103.83 104.908 103.85 104.787 103.911C104.666 103.972 104.568 104.071 104.507 104.192C104.476 104.26 104.456 104.332 104.448 104.406C103.855 106.263 103.689 108.23 103.96 110.16C104.154 111.758 104.823 113.261 105.882 114.474C106.661 115.366 107.149 115.408 107.149 115.408L106.774 113.349C106.635 113.369 106.498 113.401 106.364 113.444C106.376 113.182 106.412 112.921 106.471 112.665C106.881 110.749 108.006 109.226 109.148 107.72C110.088 106.526 111.102 105.391 112.183 104.323C112.938 103.519 113.804 102.826 114.754 102.264L114.778 102.282Z" fill="#C0694F"/>
<path d="M130.867 109.095C134.348 109.16 137.817 109.333 141.179 110.392C141.521 110.505 141.842 110.672 142.131 110.886C141.901 110.131 141.507 109.436 140.977 108.851C137.966 104.948 134.14 102.223 129.296 101.116C126.165 100.477 122.93 100.548 119.829 101.324C118.514 101.628 117.277 102.151 115.985 102.514C115.557 102.639 115.087 102.794 114.795 102.264C113.845 102.826 112.98 103.519 112.225 104.323C111.143 105.391 110.13 106.526 109.19 107.72C108.047 109.226 106.923 110.749 106.512 112.665C106.33 113.363 106.367 114.101 106.619 114.777C106.739 115.05 106.949 115.273 107.214 115.408C107.698 115.667 108.207 115.878 108.732 116.039C108.707 115.99 108.686 115.94 108.666 115.89C108.309 114.95 108.476 114.575 109.523 113.861C111.217 112.779 113.059 111.949 114.992 111.398C119.315 109.947 123.833 109.16 128.392 109.065C128.725 109.065 129.052 109.119 129.386 109.143C129.463 108.726 129.725 109.053 129.891 109.024L130.897 109.095" fill="#D89D81"/>
<path d="M135.955 118.026C137.812 116.442 139.539 114.713 141.12 112.855C141.269 112.665 141.417 112.48 141.578 112.296C141.87 111.963 142.34 111.32 142.131 110.886C141.834 110.291 140.84 109.94 136.288 109.238C133.064 108.823 129.807 108.736 126.565 108.976L135.955 118.026Z" fill="#747F8D"/>
<path d="M127.154 120.073C129.114 120.506 131.156 120.395 133.057 119.751C134.789 119.156 136.556 118.02 137.258 115.92C138.823 111.243 133.307 109.547 129.052 109.035C124.798 108.524 117.009 110.386 112.665 112.112C108.321 113.837 106.465 115.61 109.422 116.277C111.79 116.794 122.858 119.156 127.154 120.073Z" fill="#E0E7EC"/>
<path d="M142.013 30.6738C142.875 30.1201 143.609 29.3881 144.166 28.527C144.722 27.666 145.088 26.6958 145.238 25.6818L145.761 22.1891C145.774 22.1056 145.817 22.0295 145.881 21.9748C145.946 21.9202 146.028 21.8906 146.112 21.8916C146.196 21.8908 146.278 21.9206 146.341 21.9753C146.405 22.0301 146.446 22.1061 146.458 22.1891L146.981 25.6818C147.131 26.6958 147.497 27.666 148.053 28.527C148.609 29.3881 149.344 30.1201 150.206 30.6738L150.658 30.9654C150.708 30.9978 150.748 31.042 150.776 31.0939C150.804 31.1458 150.819 31.2039 150.819 31.2629C150.819 31.3211 150.804 31.3783 150.776 31.4293C150.748 31.4803 150.708 31.5233 150.658 31.5544L150.206 31.846C149.344 32.4015 148.61 33.1348 148.054 33.9967C147.498 34.8586 147.132 35.8293 146.981 36.844L146.458 40.3366C146.446 40.4197 146.405 40.4957 146.341 40.5504C146.278 40.6052 146.196 40.6349 146.112 40.6341C146.028 40.6351 145.946 40.6056 145.881 40.5509C145.817 40.4963 145.774 40.4202 145.761 40.3366L145.238 36.844C145.087 35.8293 144.721 34.8586 144.165 33.9967C143.609 33.1348 142.875 32.4015 142.013 31.846L141.56 31.5544C141.511 31.5233 141.471 31.4803 141.443 31.4293C141.414 31.3783 141.4 31.3211 141.4 31.2629C141.4 31.2039 141.414 31.1458 141.443 31.0939C141.471 31.042 141.511 30.9978 141.56 30.9654L142.013 30.6738Z" fill="#66BAFF"/>
<path d="M131.278 86.705C131.886 86.3152 132.403 85.7996 132.796 85.193C133.188 84.5865 133.445 83.903 133.551 83.1886L133.92 80.7312C133.93 80.6734 133.96 80.6209 134.004 80.5828C134.049 80.5447 134.105 80.5235 134.164 80.523C134.223 80.5223 134.28 80.5431 134.325 80.5814C134.37 80.6196 134.399 80.6729 134.408 80.7312L134.777 83.1886C134.884 83.9026 135.142 84.5857 135.534 85.1921C135.926 85.7985 136.443 86.3143 137.05 86.705L137.365 86.9133C137.401 86.9356 137.43 86.9663 137.451 87.0026C137.471 87.0389 137.483 87.0797 137.484 87.1215C137.485 87.1637 137.474 87.2051 137.453 87.2417C137.432 87.2783 137.402 87.3087 137.365 87.3298L137.05 87.538C136.443 87.9287 135.926 88.4445 135.534 89.0509C135.142 89.6573 134.884 90.3404 134.777 91.0545L134.408 93.5118C134.401 93.5712 134.372 93.6259 134.327 93.6654C134.282 93.7049 134.224 93.7265 134.164 93.726C134.104 93.7252 134.047 93.7032 134.002 93.6639C133.958 93.6247 133.928 93.5707 133.92 93.5118L133.551 91.0545C133.445 90.34 133.188 89.6565 132.796 89.05C132.403 88.4434 131.886 87.9279 131.278 87.538L130.963 87.3298C130.927 87.3084 130.897 87.2778 130.877 87.2412C130.858 87.2045 130.848 87.1632 130.85 87.1215C130.85 87.0802 130.86 87.0395 130.88 87.0031C130.9 86.9668 130.928 86.9359 130.963 86.9133L131.278 86.705Z" fill="#8FFFAB"/>
<path d="M97.9498 53.2957C98.5312 52.9461 98.9501 52.3799 99.1141 51.7216C99.2781 51.0633 99.1739 50.3668 98.8245 49.7852L98.7828 49.7138C98.5864 49.4112 98.3285 49.1533 98.0259 48.9568C97.7233 48.7604 97.3827 48.6299 97.0263 48.5738C96.6698 48.5177 96.3056 48.5372 95.9573 48.6311C95.6089 48.725 95.2842 48.8912 95.0043 49.1188C90.1666 53.0101 77.9028 64.8268 69.2866 79.5412C69.2866 79.5174 86.3167 61.239 97.9498 53.2957Z" fill="#83ED90"/>
<path d="M71.3989 83.2658C71.2323 83.3372 88.1196 73.365 101.806 68.4801C102.137 68.3621 102.491 68.3219 102.84 68.3626C103.189 68.4033 103.524 68.5238 103.819 68.7148C104.114 68.9058 104.362 69.1621 104.542 69.4639C104.722 69.7658 104.83 70.1051 104.858 70.4555C104.905 70.7356 104.895 71.0225 104.828 71.2986C104.761 71.5747 104.639 71.8344 104.469 72.0619C104.298 72.2894 104.084 72.48 103.838 72.6222C103.592 72.7643 103.319 72.8551 103.037 72.889C92.2132 75.4348 81.6281 78.9065 71.3989 83.2658Z" fill="#83ED90"/>
<path d="M91.6603 92.9344C91.9289 93.0381 92.2167 93.0829 92.5041 93.0658C92.7915 93.0487 93.0719 92.9701 93.3264 92.8353C93.5808 92.7005 93.8033 92.5126 93.9789 92.2844C94.1544 92.0561 94.2789 91.7929 94.3439 91.5124C94.3985 91.2525 94.4009 90.9843 94.351 90.7234C94.3011 90.4625 94.1999 90.2141 94.0532 89.9927C93.9065 89.7713 93.7172 89.5812 93.4964 89.4335C93.2757 89.2858 93.0277 89.1835 92.767 89.1324C86.0889 87.9035 79.324 87.2052 72.5356 87.0439C72.5356 87.0439 79.807 88.8944 91.6603 92.9344Z" fill="#83ED90"/>
<defs>
<linearGradient id="paint0_linear_834_12715" x1="8.14706" y1="137.524" x2="177.5" y2="75.0893" gradientUnits="userSpaceOnUse">
<stop stop-color="#FFE75C"/>
<stop offset="0.32" stop-color="#FC78C0"/>
<stop offset="0.92" stop-color="#5221DB"/>
</linearGradient>
<linearGradient id="paint1_linear_834_12715" x1="53.2736" y1="71.0892" x2="53.8419" y2="67.0706" gradientUnits="userSpaceOnUse">
<stop stop-color="#718CF6"/>
<stop offset="1" stop-color="#4C70E0"/>
</linearGradient>
<linearGradient id="paint2_linear_834_12715" x1="56.9216" y1="28.99" x2="59.8666" y2="62.6313" gradientUnits="userSpaceOnUse">
<stop offset="0.112991" stop-color="#718CF6"/>
<stop offset="0.418986" stop-color="#6986F1"/>
<stop offset="0.780289" stop-color="#4C70E0"/>
<stop offset="0.96" stop-color="#5275E4"/>
</linearGradient>
<linearGradient id="paint3_linear_834_12715" x1="54.2142" y1="94.4697" x2="56.3679" y2="82.2483" gradientUnits="userSpaceOnUse">
<stop offset="0.2" stop-color="#FF78B9"/>
<stop offset="0.45" stop-color="#F973B5"/>
<stop offset="0.79" stop-color="#E964AA"/>
<stop offset="1" stop-color="#DB58A0"/>
</linearGradient>
<linearGradient id="paint4_linear_834_12715" x1="58.8722" y1="62.1377" x2="52.421" y2="73.3179" gradientUnits="userSpaceOnUse">
<stop stop-color="#7393F9"/>
<stop offset="1" stop-color="#4C70E0"/>
</linearGradient>
</defs>
</svg>
