<svg fill="none" height="108" viewBox="0 0 182 108" width="182" xmlns="http://www.w3.org/2000/svg"><rect fill="#36393f" height="108" rx="8" width="182"/><path d="m39.1075 36.8v3.152h-3.808v8.048h-4v-8.048h-3.888v-3.152zm10.2846 7.328 3.312 3.872h-4.704l-3.616-4.592v4.592h-4v-11.2h7.888c2.656 0 4.32 1.504 4.32 3.776 0 2-1.264 3.392-3.2 3.552zm-5.008-4.512v2.608h2.256c1.184 0 1.808-.464 1.808-1.344 0-.832-.576-1.264-1.696-1.264zm15.0599 1.296 2.544-4.112h4.496l-4.864 7.472v3.728h-4.32v-3.728l-4.832-7.472h4.48zm20.893 2.576h1.76v2.304h-1.76v2.208h-3.44v-2.208h-5.904v-2.608l4.416-5.84h4.928zm-3.44-3.76-2.704 3.76h2.704zm8.323 8.592c-1.296 0-2.256-.832-2.256-1.872s.96-1.856 2.256-1.856 2.24.816 2.24 1.856c0 1.056-.944 1.872-2.24 1.872zm8.6699-11.28c3.008 0 5.408 1.6 5.408 5.28 0 3.92-2.544 6.048-6.128 6.048-1.632 0-3.168-.432-4.096-1.056v-2.64c.768.624 2.016 1.072 3.392 1.072 2.128 0 3.184-1.12 3.184-2.976v-.176c-.448 1.232-1.6 1.984-3.216 1.984-2.256 0-3.904-1.28-3.904-3.44 0-2.368 2.048-4.096 5.36-4.096zm-.064 5.648c.992 0 1.696-.608 1.696-1.52 0-.88-.704-1.536-1.664-1.536-1.024 0-1.696.672-1.696 1.568 0 .88.656 1.488 1.664 1.488zm12.0481-5.648c3.008 0 5.408 1.6 5.408 5.28 0 3.92-2.544 6.048-6.128 6.048-1.632 0-3.168-.432-4.096-1.056v-2.64c.768.624 2.016 1.072 3.392 1.072 2.128 0 3.184-1.12 3.184-2.976v-.176c-.448 1.232-1.6 1.984-3.216 1.984-2.256 0-3.904-1.28-3.904-3.44 0-2.368 2.048-4.096 5.36-4.096zm-.064 5.648c.992 0 1.696-.608 1.696-1.52 0-.88-.704-1.536-1.664-1.536-1.024 0-1.696.672-1.696 1.568 0 .88.656 1.488 1.664 1.488zm12.22 7.232h-1.504l5.424-14.72h1.504zm21.178-11.392c1.984 0 3.136 1.36 3.136 3.728v5.744h-1.52v-5.488c0-1.68-.72-2.592-2.064-2.592-1.488 0-2.272 1.088-2.272 2.608v5.472h-1.504v-5.776c0-1.392-.752-2.304-2.064-2.304-1.44 0-2.304 1.216-2.304 2.96v5.12h-1.504v-9.12h1.504v1.744c.544-1.44 1.488-2.096 2.848-2.096 1.328 0 2.32.752 2.768 2 .528-1.328 1.52-2 2.976-2zm10.017 9.712c-2.896 0-4.848-2.144-4.848-4.864 0-2.736 1.952-4.848 4.848-4.848 2.928 0 4.848 2.112 4.848 4.848 0 2.72-1.92 4.864-4.848 4.864zm0-1.424c2.032 0 3.28-1.472 3.28-3.44 0-1.984-1.248-3.424-3.28-3.424s-3.28 1.44-3.28 3.424c0 1.968 1.248 3.44 3.28 3.44z" fill="#fff"/><path d="m45.93 61.2v2.758h-3.332v7.042h-3.5v-7.042h-3.402v-2.758zm8.999 6.412 2.898 3.388h-4.116l-3.164-4.018v4.018h-3.5v-9.8h6.902c2.324 0 3.78 1.316 3.78 3.304 0 1.75-1.106 2.968-2.8 3.108zm-4.382-3.948v2.282h1.974c1.036 0 1.582-.406 1.582-1.176 0-.728-.504-1.106-1.484-1.106zm13.1774 1.134 2.226-3.598h3.934l-4.256 6.538v3.262h-3.78v-3.262l-4.228-6.538h3.92zm16.5874 1.19c1.428.294 2.17 1.176 2.17 2.366 0 1.722-1.792 2.898-4.578 2.898-1.61 0-2.842-.364-3.71-.854v-1.988c.518.322 1.54.672 2.94.672 1.218 0 1.834-.392 1.834-1.008 0-.448-.322-.798-1.344-.798h-2.674l.42-1.862h2.1c1.036 0 1.372-.322 1.372-.798 0-.504-.518-.84-1.736-.84-1.344 0-2.38.378-2.898.714v-2.31c.966-.448 2.31-.742 3.752-.742 2.758 0 4.242 1.106 4.242 2.562 0 .994-.63 1.75-1.89 1.988zm5.078 5.292c-1.134 0-1.974-.728-1.974-1.638s.84-1.624 1.974-1.624 1.96.714 1.96 1.624c0 .924-.826 1.638-1.96 1.638zm10.8621-4.228h1.54v2.016h-1.54v1.932h-3.01v-1.932h-5.166v-2.282l3.864-5.11h4.312zm-3.01-3.29-2.366 3.29h2.366zm10.1251-2.352c2.632 0 4.732 1.4 4.732 4.62 0 3.43-2.226 5.292-5.362 5.292-1.428 0-2.7725-.378-3.5845-.924v-2.31c.672.546 1.7645.938 2.9685.938 1.862 0 2.786-.98 2.786-2.604v-.154c-.392 1.078-1.4 1.736-2.814 1.736-1.974 0-3.4165-1.12-3.4165-3.01 0-2.072 1.7925-3.584 4.6905-3.584zm-.056 4.942c.868 0 1.484-.532 1.484-1.33 0-.77-.616-1.344-1.456-1.344-.896 0-1.484.588-1.484 1.372 0 .77.574 1.302 1.456 1.302zm10.692 6.328h-1.316l4.746-12.88h1.316zm18.53-9.968c1.736 0 2.744 1.19 2.744 3.262v5.026h-1.33v-4.802c0-1.47-.63-2.268-1.806-2.268-1.302 0-1.988.952-1.988 2.282v4.788h-1.316v-5.054c0-1.218-.658-2.016-1.806-2.016-1.26 0-2.016 1.064-2.016 2.59v4.48h-1.316v-7.98h1.316v1.526c.476-1.26 1.302-1.834 2.492-1.834 1.162 0 2.03.658 2.422 1.75.462-1.162 1.33-1.75 2.604-1.75zm8.765 8.498c-2.534 0-4.242-1.876-4.242-4.256 0-2.394 1.708-4.242 4.242-4.242 2.562 0 4.242 1.848 4.242 4.242 0 2.38-1.68 4.256-4.242 4.256zm0-1.246c1.778 0 2.87-1.288 2.87-3.01 0-1.736-1.092-2.996-2.87-2.996s-2.87 1.26-2.87 2.996c0 1.722 1.092 3.01 2.87 3.01z" fill="#a3a6aa"/><path d="m35.5 65.5h111" stroke="#a3a6aa"/></svg>