<svg fill="none" height="108" viewBox="0 0 182 108" width="182" xmlns="http://www.w3.org/2000/svg"><rect fill="#36393f" height="108" rx="8" width="182"/><path d="m27.9701 36.784v11.216h4v-2.912h3.12c3.36 0 5.072-1.744 5.072-4.176 0-2.464-1.488-4.128-4.448-4.128zm4 5.76v-2.992h2.304c1.152 0 1.792.56 1.792 1.472 0 .944-.704 1.52-2.016 1.52zm13.5312-5.744h-4v11.2h10.288v-3.264h-6.288zm16.6185 6.944-3.792-6.944h-5.264v11.2h3.552v-7.072l3.936 7.072h5.104v-11.2h-3.536zm18.4906-.256v-6.144h-4.928l-4.416 5.84v2.608h5.904v2.208h3.44v-2.208h1.76v-2.304zm-3.44-3.76v3.76h-2.704zm8.323 8.592c1.296 0 2.24-.816 2.24-1.872 0-1.04-.944-1.856-2.24-1.856s-2.256.816-2.256 1.856.96 1.872 2.256 1.872zm8.6699-11.28c-3.312 0-5.36 1.728-5.36 4.096 0 2.16 1.648 3.44 3.904 3.44 1.616 0 2.768-.752 3.216-1.984v.176c0 1.856-1.056 2.976-3.184 2.976-1.376 0-2.624-.448-3.392-1.072v2.64c.928.624 2.464 1.056 4.096 1.056 3.584 0 6.128-2.128 6.128-6.048 0-3.68-2.4-5.28-5.408-5.28zm-.064 5.648c-1.008 0-1.664-.608-1.664-1.488 0-.896.672-1.568 1.696-1.568.96 0 1.664.656 1.664 1.536 0 .912-.704 1.52-1.696 1.52zm12.0487-5.648c-3.312 0-5.36 1.728-5.36 4.096 0 2.16 1.648 3.44 3.904 3.44 1.616 0 2.768-.752 3.216-1.984v.176c0 1.856-1.056 2.976-3.184 2.976-1.376 0-2.624-.448-3.392-1.072v2.64c.928.624 2.464 1.056 4.096 1.056 3.584 0 6.128-2.128 6.128-6.048 0-3.68-2.4-5.28-5.408-5.28zm-.064 5.648c-1.008 0-1.664-.608-1.664-1.488 0-.896.672-1.568 1.696-1.568.96 0 1.664.656 1.664 1.536 0 .912-.704 1.52-1.696 1.52zm12.22 7.232 5.424-14.72h-1.504l-5.424 14.72zm21.177-11.392c-1.456 0-2.448.672-2.976 2-.448-1.248-1.44-2-2.768-2-1.36 0-2.304.656-2.848 2.096v-1.744h-1.504v9.12h1.504v-5.12c0-1.744.864-2.96 2.304-2.96 1.312 0 2.064.912 2.064 2.304v5.776h1.504v-5.472c0-1.52.784-2.608 2.272-2.608 1.344 0 2.064.912 2.064 2.592v5.488h1.52v-5.744c0-2.368-1.152-3.728-3.136-3.728zm10.017 9.712c2.928 0 4.848-2.144 4.848-4.864 0-2.736-1.92-4.848-4.848-4.848-2.896 0-4.848 2.112-4.848 4.848 0 2.72 1.952 4.864 4.848 4.864zm0-1.424c-2.032 0-3.28-1.472-3.28-3.44 0-1.984 1.248-3.424 3.28-3.424s3.28 1.44 3.28 3.424c0 1.968-1.248 3.44-3.28 3.44z" fill="#fff"/><path d="m33.924 61.186v9.814h3.5v-2.548h2.73c2.94 0 4.438-1.526 4.438-3.654 0-2.156-1.302-3.612-3.892-3.612zm3.5 5.04v-2.618h2.016c1.008 0 1.568.49 1.568 1.288 0 .826-.616 1.33-1.764 1.33zm11.8398-5.026h-3.5v9.8h9.002v-2.856h-5.502zm14.5412 6.076-3.318-6.076h-4.606v9.8h3.108v-6.188l3.444 6.188h4.466v-9.8h-3.094zm14.4853-1.288c1.26-.238 1.89-.994 1.89-1.988 0-1.456-1.484-2.562-4.242-2.562-1.442 0-2.786.294-3.752.742v2.31c.518-.336 1.554-.714 2.898-.714 1.218 0 1.736.336 1.736.84 0 .476-.336.798-1.372.798h-2.1l-.42 1.862h2.674c1.022 0 1.344.35 1.344.798 0 .616-.616 1.008-1.834 1.008-1.4 0-2.422-.35-2.94-.672v1.988c.868.49 2.1.854 3.71.854 2.786 0 4.578-1.176 4.578-2.898 0-1.19-.742-2.072-2.17-2.366zm5.078 5.292c1.134 0 1.96-.714 1.96-1.638 0-.91-.826-1.624-1.96-1.624s-1.974.714-1.974 1.624.84 1.638 1.974 1.638zm10.8621-4.228v-5.376h-4.312l-3.864 5.11v2.282h5.166v1.932h3.01v-1.932h1.54v-2.016zm-3.01-3.29v3.29h-2.366zm10.1246-2.352c-2.898 0-4.69 1.512-4.69 3.584 0 1.89 1.442 3.01 3.416 3.01 1.414 0 2.422-.658 2.814-1.736v.154c0 1.624-.924 2.604-2.786 2.604-1.204 0-2.296-.392-2.968-.938v2.31c.812.546 2.156.924 3.584.924 3.136 0 5.362-1.862 5.362-5.292 0-3.22-2.1-4.62-4.732-4.62zm-.056 4.942c-.882 0-1.456-.532-1.456-1.302 0-.784.588-1.372 1.484-1.372.84 0 1.456.574 1.456 1.344 0 .798-.616 1.33-1.484 1.33zm10.692 6.328 4.746-12.88h-1.316l-4.746 12.88zm18.531-9.968c-1.274 0-2.142.588-2.604 1.75-.392-1.092-1.26-1.75-2.422-1.75-1.19 0-2.016.574-2.492 1.834v-1.526h-1.316v7.98h1.316v-4.48c0-1.526.756-2.59 2.016-2.59 1.148 0 1.806.798 1.806 2.016v5.054h1.316v-4.788c0-1.33.686-2.282 1.988-2.282 1.176 0 1.806.798 1.806 2.268v4.802h1.33v-5.026c0-2.072-1.008-3.262-2.744-3.262zm8.765 8.498c2.562 0 4.242-1.876 4.242-4.256 0-2.394-1.68-4.242-4.242-4.242-2.534 0-4.242 1.848-4.242 4.242 0 2.38 1.708 4.256 4.242 4.256zm0-1.246c-1.778 0-2.87-1.288-2.87-3.01 0-1.736 1.092-2.996 2.87-2.996s2.87 1.26 2.87 2.996c0 1.722-1.092 3.01-2.87 3.01z" fill="#a3a6aa"/><path d="m33 65.5h116" stroke="#a3a6aa"/></svg>