<svg fill="none" height="20" viewBox="0 0 32 20" width="32" xmlns="http://www.w3.org/2000/svg" xmlns:xlink="http://www.w3.org/1999/xlink"><clipPath id="a"><path d="m0 0h32v20h-32z"/></clipPath><g clip-path="url(#a)"><path d="m0 3c0-1.65685 1.34315-3 3-3h26c1.6569 0 3 1.34315 3 3v14c0 1.6569-1.3431 3-3 3h-26c-1.65685 0-3-1.3431-3-3z" fill="#fff"/><path d="m17.1594 20c-5.5059 0-9.23871 0-14.1587 0-1.65686 0-3.0007-1.3448-3.0007-3.0016 0-5.1913 0-8.80299 0-13.99677 0-1.65685 1.3458-3.00163 3.00266-3.00163h25.99464c1.6569 0 3.0027 1.34478 3.0027 3.00164v13.99676c0 1.6568-1.3433 3.0016-3.0001 3.0016-4.0784 0-7.1245 0-11.8405 0zm-3.7736-4.6561c.2104-.1818.3514-.3991.3681-.7145-.0898 0-.1643-.0003-.2388 0-1.0021.005-2.0042.022-3.0061.0106-.63628-.0072-1.28184.0163-1.88012-.276-1.16006-.5666-1.78024-1.4932-1.80226-2.7788-.02159-1.2601.72041-2.35276 1.93525-2.82088 1.18139-.45524 2.26653-.21991 3.17713.65583.8162.78505 1.0608 1.76195.8557 2.88565-1.4479 0-2.87561 0-4.33171 0 .30179.5557.74851.7873 1.33712.788 1.27179.0015 2.54359.0088 3.81549.0128.067.0003.1341-.0082.215-.0135 0-.0856.0001-.1542 0-.2229-.0012-1.3229.0002-2.6459-.0046-3.9688-.0032-.87887-.4094-1.28949-1.285-1.2911-1.8422-.00337-3.68445-.00171-5.52666.00294-.72426.00183-1.17827.46124-1.17942 1.19004-.00291 1.84602-.00341 3.69192.00013 5.53792.00149.7771.45997 1.2326 1.23758 1.2337 1.84998.0028 3.69997-.0018 5.54987.0048.2734.0009.5176-.0541.7633-.2358zm4.4497-.7275c.3339-.0844.6876-.1241.9982-.261 1.2471-.5499 1.9191-1.8099 1.7435-3.2021-.1575-1.24873-1.1404-2.27734-2.4163-2.52869-1.8104-.35665-3.552 1.07397-3.5498 2.91389.0023 1.8913.002 3.7826.003 5.6738.0001.1536-.0202.3118.0115.4588.0169.0784.1224.1927.1921.1957.4199.0183.8409.0091 1.2877.0091 0-1.1154 0-2.1719 0-3.2582.5803 0 1.1342 0 1.7301-.0013zm8.8471-2.8833c-.3775-.5459-.8865-.8693-1.5609-.8883-.5544-.0156-1.1093-.0108-1.6639-.0171-.123-.0014-.2474-.0009-.3683-.0197-.1934-.0302-.2914-.1482-.2968-.3495-.0054-.2008.0644-.3477.2644-.406.0875-.0255.1823-.0368.2738-.0365.8474.0022 1.6947.0087 2.5421.0128.0813.0004.1625-.0074.2498-.0116 0-.4916 0-.95537 0-1.42487-.0884-.00883-.1489-.02001-.2094-.02015-.7473-.00173-1.4947-.00856-2.2418.00069-.3302.00409-.6686.00189-.9882.07147-.9301.20254-1.5151 1.06123-1.4073 2.01276.1039.9172.9111 1.6646 1.8255 1.6786.6548.01 1.3099.0031 1.9648.0105.2546.0029.3949.1336.4054.3509.0098.2046-.1365.3619-.3734.3897-.122.0143-.2458.0186-.3689.0188-1.1327.0013-2.2655.0068-3.3981-.0036-.2786-.0025-.4624.0762-.5857.3411-.2021.4341-.5321.7679-.9187 1.047-.0443.032-.0843.07-.1442.1201.0532.0107.0746.0187.0961.0187 1.4485.0013 2.8971.0053 4.3456.0005.4309-.0014.8717.0257 1.2905-.0527 1.3252-.248 1.9362-1.6194 1.2676-2.8436zm-18.39829-5.15822c.0396-.09505.10241-.18748.11359-.28574.019-.16702.00359-.33775.00594-.50687.01035-.74449.53629-1.36179 1.21425-1.42674.79121-.07581 1.45051.40344 1.59091 1.18101.0432.23929.0245.48988.0319.73536.0084.27437.1021.36887.3803.37295.1617.00238.3236.00171.4854-.0005.2639-.00361.372-.09972.371-.35779-.0011-.29164.0052-.58693-.0366-.87411-.1443-.99051-.6833-1.70386-1.6063-2.09035-.94644-.39625-1.84729-.25233-2.65052.3748-.87388.6823-1.09956 1.62945-1.00545 2.67928.00798.08911.1411.23118.22475.23769.28081.02185.56555-.00657.88083-.03899zm1.20755 3.43542c-.46041.1084-.80386.3603-1.02392.7937h2.74536c-.318-.6076-.8685-.86597-1.72144-.7937z" fill="#c91b72"/><path d="m18.9804 11.2232c.1362.9156-.4622 1.5194-1.0321 1.646-.6359.1412-1.2836.1525-1.9289.1068 0-.6303-.0521-1.2418.0144-1.8409.0691-.6227.6706-1.0815 1.3268-1.1306.6806-.0508 1.3016.3291 1.5345.9409.0321.0843.0543.1722.0853.2778z" fill="#c91d73"/></g></svg>