<svg fill="none" height="110" viewBox="0 0 111 110" width="111" xmlns="http://www.w3.org/2000/svg" xmlns:xlink="http://www.w3.org/1999/xlink"><linearGradient id="a" gradientUnits="userSpaceOnUse" x1="48.925" x2="48.925" y1="109.479" y2="56.3038"><stop offset="0" stop-color="#eb459f"/><stop offset="1" stop-color="#ff78b9"/></linearGradient><path d="m61.202 28.3569c7.078 0 12.815-5.7374 12.815-12.8149s-5.737-12.81495-12.815-12.81495c-7.077 0-12.815 5.73745-12.815 12.81495s5.738 12.8149 12.815 12.8149z" fill="#57f287"/><path d="m75.858 25.6299c7.078 0 12.815-5.7375 12.815-12.815 0-7.07745-5.737-12.8149-12.815-12.8149-7.077 0-12.815 5.73745-12.815 12.8149 0 7.0775 5.738 12.815 12.815 12.815z" fill="#57f287"/><path d="m84.844 34.9849c7.077 0 12.814-5.7375 12.814-12.815s-5.737-12.81492-12.814-12.81492c-7.078 0-12.815 5.73742-12.815 12.81492s5.737 12.815 12.815 12.815z" fill="#57f287"/><path d="m10.9739 9.13232h74.5331l24.967 41.24348-4.419 10.3109h-74.6066l-24.89341-41.2435z" fill="#ff78b9"/><path d="m33.9522 9.13232h-6.3338c.1541.72066.5546 1.36508 1.1327 1.82208.5781.4571 1.2975.6983 2.0342.682.7333.0025 1.4458-.2438 2.0211-.6986.5752-.4548.9792-1.09134 1.1458-1.80548z" fill="#ffbadb"/><path d="m43.6737 17.5293c-.8072-.0032-1.6059.1659-2.3426.4962-.7366.3302-1.3943.8139-1.929 1.4187h8.4699c-.521-.6029-1.165-1.0862-1.89-1.4167-.724-.3306-1.5118-.5005-2.3083-.4982z" fill="#ffbadb"/><path d="m18.9277 17.5293c-.8073-.0032-1.6059.1659-2.3426.4962-.7367.3302-1.3943.8139-1.929 1.4187h8.4696c-.5203-.6029-1.1649-1.0862-1.8895-1.4167-.7246-.3306-1.5121-.5005-2.3085-.4982z" fill="#ffbadb"/><path d="m77.11 9.13232c.154.72066.555 1.36508 1.133 1.82208.578.4571 1.298.6983 2.034.682.734.0025 1.446-.2438 2.021-.6986.576-.4548.98-1.09134 1.146-1.80548z" fill="#ffbadb"/><path d="m58.698 9.13232h-6.334c.154.72066.555 1.36508 1.133 1.82208.578.4571 1.298.6983 2.034.682.734.0025 1.446-.2438 2.021-.6986.576-.4548.98-1.09134 1.146-1.80548z" fill="#ffbadb"/><path d="m68.42 17.5293c-.808-.0032-1.606.1659-2.343.4962-.737.3302-1.394.8139-1.929 1.4187h8.47c-.521-.6029-1.165-1.0862-1.89-1.4167-.724-.3306-1.512-.5005-2.308-.4982z" fill="#ffbadb"/><path d="m39.476 9.13232h13.625l-4.419 10.31088h-13.625z" fill="#57f287"/><path d="m6.55499 19.4434h74.53301l24.967 41.2435h-74.6066z" fill="#000"/><path d="m85.506 9.13232-4.419 10.31088 24.967 41.2435 4.419-10.3109z" fill="#eb459f"/><path d="m95.155 42.644 3.609 5.9656v-.6628c.014-1.1472-.324-2.2711-.97-3.2196-.645-.9485-1.566-1.6757-2.639-2.0832z" fill="#ffbadb"/><path d="m106.055 60.6857 1.841-4.2716c-.276-.5248-.689-.9656-1.194-1.2765s-1.085-.4805-1.678-.4911c-.787.0018-1.546.2898-2.136.8101z" fill="#ffbadb"/><path d="m87.496 23.2003c0 .7413.147 1.4752.433 2.1591.286.684.704 1.3043 1.232 1.8251.528.5207 1.153.9314 1.841 1.2084.688.2769 1.423.4145 2.165.4047 1.289.014 2.542-.4296 3.535-1.252l-5.819-9.5744c-1.013.4457-1.874 1.1784-2.476 2.1076s-.919 2.0143-.911 3.1215z" fill="#ffbadb"/><path d="m96.922 27.9126 6.039 10.0899-4.419 10.3109-6.113-10.0899z" fill="#29cc7a"/><path d="m18.9278 27.3242c2.2831 19.4434 11.4156 31.4482 11.4156 31.4482" stroke="#5865f2" stroke-linecap="round" stroke-miterlimit="10" stroke-width="19"/><path d="m61.497 28.4297c-4.346 3.6825-6.113 3.6825-6.113 3.6825l15.098.8837c.071-.7131-.004-1.4331-.219-2.1167s-.567-1.3164-1.033-1.8603c-.467-.5504-1.038-1.0026-1.68-1.3305-.643-.328-1.344-.5251-2.064-.5799-.719-.0548-1.442.0338-2.127.2606s-1.318.5873-1.862 1.0606z" fill="#57f287"/><path d="m43.8948 31.3735 17.0132 1.0311c-.074 0-2.578-.2946-8.028-7.0703-.869-1.0145-2.08-1.6745-3.404-1.8547-1.323-.1803-2.667.1318-3.775.8769-1.109.7451-1.9054 1.8714-2.2383 3.165-.3328 1.2935-.1791 2.6643.4321 3.852z" fill="#29cc7a"/><path d="m28.6398 41.9475 2.2056.1311c.507.0301.9812.2604 1.3184.6401.3372.3798.5097.878.4796 1.3849l-.9129 15.3656c-.0151.2574-.082.509-.1967.7399-.1147.2308-.2748.4362-.4708.6036-.196.1675-.4237.2937-.6696.371-.246.0774-.5049.1043-.7615.0791l-2.2056-.131c-1.2089-.0719-2.3398-.621-3.1438-1.5266-.8041-.9056-1.2154-2.0935-1.1436-3.3025l.5984-10.0721c.0718-1.2089.621-2.3398 1.5266-3.1438.9056-.8041 2.0935-1.2155 3.3024-1.1436z" fill="#7196ff"/><path d="m73.921 33.206-35.878-2.1316c-5.6033-.3329-10.4155 3.9397-10.7484 9.543l-.9404 15.8287c-.3329 5.6033 3.9396 10.4156 9.5429 10.7485l35.8779 2.1315c5.603.3329 10.415-3.9396 10.748-9.5429l.94-15.8288c.333-5.6033-3.939-10.4155-9.542-10.7484z" fill="#7196ff"/><path d="m33.8787 48.2402c1.7083 0 3.0932-1.3849 3.0932-3.0932 0-1.7084-1.3849-3.0933-3.0932-3.0933-1.7084 0-3.0933 1.3849-3.0933 3.0933 0 1.7083 1.3849 3.0932 3.0933 3.0932z" fill="#000"/><path d="m76.82 44.7993 9.043.5373c1.19.0706 2.302.6109 3.093 1.5019s1.196 2.0598 1.125 3.2492l-.607 10.2192c-.07 1.1894-.611 2.302-1.502 3.0931s-2.059 1.1958-3.249 1.1251l-9.043-.5372z" fill="#7196ff"/><path d="m81.61 47.3022 2.574.1529c.545.0325 1.056.2805 1.419.6894.363.409.549.9455.517 1.4915l-.468 7.8666c-.032.5459-.28 1.0566-.689 1.4197-.409.3632-.945.5489-1.491.5165l-2.574-.1529z" fill="#b8cdff"/><path d="m68.052 50.5239c1.83 0 3.314-1.4838 3.314-3.3142s-1.484-3.3142-3.314-3.3142c-1.831 0-3.315 1.4838-3.315 3.3142s1.484 3.3142 3.315 3.3142z" fill="#000"/><path d="m39.6128 39.7995 19.4092 1.1531c.425.0253.84.1339 1.223.3198s.726.4454 1.008.7636c.283.3182.5.689.639 1.0911s.198.8278.173 1.2526l-.472 7.9401c-.126 2.1253-1.092 4.1135-2.684 5.527-1.592 1.4136-3.68 2.1368-5.806 2.0105l-10.9542-.6508c-.9172-.0545-1.8147-.2891-2.6412-.6905-.8265-.4013-1.5659-.9615-2.176-1.6486-.61-.6871-1.0787-1.4876-1.3794-2.3558-.3006-.8683-.4273-1.7872-.3728-2.7044l.5285-8.8959c.0159-.4378.1204-.8678.3073-1.2641.1868-.3963.452-.7505.7796-1.0414s.7108-.5123 1.1264-.6509c.4156-.1385.855-.1914 1.2916-.1554z" fill="#b8cdff"/><path d="m41.6855 55.0149h-1.3993c-.1872.0011-.3726-.0374-.5438-.113-.1713-.0756-.3246-.1867-.4498-.3258-.1253-.1392-.2196-.3033-.2768-.4815-.0573-.1783-.0761-.3666-.0553-.5527-.0012-.1872.0373-.3725.113-.5438.0756-.1712.1867-.3245.3258-.4498.1392-.1252.3033-.2196.4815-.2768.1783-.0572.3666-.0761.5527-.0553h1.3993c.1872-.0011.3725.0374.5438.113s.3245.1867.4498.3258c.1252.1392.2196.3033.2768.4815.0572.1783.0761.3666.0553.5527.0011.1872-.0374.3725-.113.5438s-.1867.3246-.3258.4498c-.1392.1252-.3033.2196-.4815.2768-.1783.0573-.3666.0761-.5527.0553z" fill="#7196ff"/><path d="m50.818 55.6056-2.651-.2209c-.188.0011-.373-.0374-.544-.113-.172-.0756-.325-.1867-.45-.3258-.125-.1392-.22-.3033-.277-.4815-.057-.1783-.076-.3666-.055-.5527.009-.1838.055-.364.134-.5302s.19-.3151.327-.4383c.137-.1231.297-.2181.47-.2794.174-.0613.358-.0877.542-.0778l2.651.1473c.184.0094.364.055.53.1342.167.0792.316.1904.439.3272s.218.2966.279.4702.088.3576.078.5414c-.035.3718-.204.7183-.475.9755-.27.2572-.625.4077-.998.4238z" fill="#7196ff"/><path d="m97.88 54.4258h-97.88v55.1482h97.88z" fill="url(#a)"/><path d="m97.806 54.4258h-24.157v55.1482h24.157z" fill="#eb459f"/><g fill="#ffbadb"><path d="m44.1157 82.9299c3.1323 0 5.6713-2.539 5.6713-5.671s-2.539-5.671-5.6713-5.671c-3.132 0-5.671 2.539-5.671 5.671s2.539 5.671 5.671 5.671z"/><path d="m55.974 83.9593c-.662-.0145-1.313.1693-1.869.5278s-.992.8752-1.252 1.4837-.332 1.2809-.206 1.9306c.125.6497.442 1.2469.91 1.7148s1.066.785 1.715.9105c.65.1256 1.322.0537 1.931-.2062.608-.2599 1.125-.696 1.484-1.2522.358-.5562.542-1.2069.527-1.8684 0-.4256-.084-.847-.246-1.2402-.163-.3931-.402-.7503-.703-1.0513-.301-.3009-.658-.5396-1.051-.7024-.393-.1629-.815-.2467-1.24-.2467z"/><path d="m55.973 59.2139c-.859 0-1.684.3414-2.291.9491-.608.6077-.95 1.432-.95 2.2914 0 .8595.342 1.6837.95 2.2914.607.6078 1.432.9492 2.291.9492s1.684-.3414 2.291-.9492c.608-.6077.95-1.4319.95-2.2914 0-.8594-.342-1.6837-.95-2.2914-.607-.6077-1.432-.9491-2.291-.9491z"/><path d="m44.1157 107.674c3.1323 0 5.6713-2.539 5.6713-5.671 0-3.1315-2.539-5.6705-5.6713-5.6705-3.132 0-5.671 2.539-5.671 5.6705 0 3.132 2.539 5.671 5.671 5.671z"/><path d="m44.1152 58.1092c1.1538-.0017 2.2788-.355 3.2268-1.013.947-.6579 1.671-1.5892 2.076-2.6694h-10.6055c.4045 1.0802 1.1288 2.0115 2.0762 2.6694.9475.658 2.073 1.0113 3.2265 1.013z"/><path d="m31.2269 65.695c1.7897 0 3.2405-1.4509 3.2405-3.2406s-1.4508-3.2405-3.2405-3.2405-3.2406 1.4508-3.2406 3.2405 1.4509 3.2406 3.2406 3.2406z"/><path d="m31.2269 90.4411c1.7897 0 3.2405-1.4509 3.2405-3.2406s-1.4508-3.2405-3.2405-3.2405-3.2406 1.4508-3.2406 3.2405 1.4509 3.2406 3.2406 3.2406z"/><path d="m68.862 58.1092c1.153-.0017 2.279-.355 3.226-1.013.948-.6579 1.672-1.5892 2.077-2.6694h-10.606c.405 1.0802 1.129 2.0115 2.076 2.6694.948.658 2.073 1.0113 3.227 1.013z"/><path d="m80.719 65.695c1.79 0 3.241-1.4509 3.241-3.2406s-1.451-3.2405-3.241-3.2405-3.241 1.4508-3.241 3.2405 1.451 3.2406 3.241 3.2406z"/><path d="m93.608 58.1092c.807.0033 1.606-.1659 2.343-.4961.736-.3302 1.394-.8139 1.929-1.4188v-1.7675h-9.575c.405 1.0802 1.129 2.0115 2.076 2.6694.948.658 2.073 1.0114 3.227 1.013z"/><path d="m80.719 90.4411c1.79 0 3.241-1.4509 3.241-3.2406s-1.451-3.2405-3.241-3.2405-3.241 1.4508-3.241 3.2405 1.451 3.2406 3.241 3.2406z"/><path d="m70.167 82.7366c3.048-.7205 4.934-3.7755 4.214-6.8235-.721-3.048-3.776-4.9348-6.824-4.2143s-4.934 3.7755-4.214 6.8235c.721 3.048 3.776 4.9348 6.824 4.2143z"/><path d="m72.87 105.99c2.214-2.215 2.214-5.805 0-8.02-2.215-2.2147-5.806-2.2147-8.02 0-2.215 2.215-2.215 5.805 0 8.02 2.214 2.215 5.805 2.215 8.02 0z"/><path d="m0 75.4902v3.4615c.1756-.5484.274801-1.1184.294601-1.6939-.0204-.5995-.119401-1.1938-.294601-1.7676z"/><path d="m55.973 108.707c-.82.01-1.608.325-2.209.883h4.419c-.602-.558-1.389-.873-2.21-.883z"/><path d="m19.3696 71.5879c-1.1216 0-2.218.3326-3.1506.9557-.9326.6232-1.6595 1.5088-2.0887 2.5451-.4292 1.0362-.5415 2.1765-.3227 3.2765.2188 1.1001.7589 2.1106 1.552 2.9037s1.8036 1.3332 2.9036 1.552c1.1001.2188 2.2403.1065 3.2766-.3227 1.0362-.4292 1.9219-1.1561 2.545-2.0887.6232-.9326.9558-2.029.9558-3.1506 0-1.5041-.5975-2.9465-1.661-4.01s-2.506-1.661-4.01-1.661z"/><path d="m80.719 108.707c-.82.01-1.608.325-2.209.883h4.419c-.602-.558-1.389-.873-2.21-.883z"/><path d="m6.48109 108.707c-.8205.01-1.60769.325-2.20939.883h4.4189c-.6089-.546-1.39171-.859-2.20951-.883z"/><path d="m93.608 96.3326c-1.383.1584-2.66.8201-3.587 1.8591-.926 1.0391-1.439 2.3823-1.439 3.7753 0 1.392.513 2.736 1.439 3.775.927 1.039 2.204 1.7 3.587 1.859.8-.001 1.591-.165 2.325-.481.735-.317 1.397-.78 1.947-1.36v-7.5126c-.535-.6048-1.193-1.0885-1.929-1.4187-.737-.3303-1.536-.4994-2.343-.4961z"/><path d="m93.608 71.5879c-1.383.1584-2.66.8202-3.587 1.8592-.926 1.039-1.439 2.3827-1.439 3.775s.513 2.736 1.439 3.775c.927 1.039 2.204 1.7007 3.587 1.8591.807.0033 1.606-.1658 2.343-.4961.736-.3302 1.394-.8139 1.929-1.4187v-7.4386c-.535-.6048-1.193-1.0885-1.929-1.4188-.737-.3302-1.536-.4993-2.343-.4961z"/><path d="m31.2272 108.707c-.8205.01-1.6078.325-2.2095.883h4.4189c-.6016-.558-1.3889-.873-2.2094-.883z"/><path d="m19.3693 58.1092c1.1535-.0017 2.279-.355 3.2265-1.013.9474-.6579 1.6717-1.5892 2.0762-2.6694h-10.6055c.4045 1.0802 1.1288 2.0115 2.0762 2.6694.9475.658 2.0731 1.0113 3.2266 1.013z"/><path d="m19.3696 96.3325c-1.1216 0-2.218.3326-3.1506.9558-.9326.6231-1.6595 1.5088-2.0887 2.545-.4292 1.0367-.5415 2.1767-.3227 3.2767s.7589 2.11 1.552 2.903c.7931.794 1.8036 1.334 2.9036 1.553 1.1001.218 2.2403.106 3.2766-.323 1.0362-.429 1.9219-1.156 2.545-2.089.6232-.932.9558-2.029.9558-3.151 0-1.504-.5975-2.946-1.661-4.0095s-2.506-1.661-4.01-1.661z"/><path d="m6.4809 65.695c1.7897 0 3.24049-1.4509 3.24049-3.2406s-1.45079-3.2405-3.24049-3.2405c-1.7898 0-3.2406 1.4508-3.2406 3.2405s1.4508 3.2406 3.2406 3.2406z"/><path d="m6.4809 90.4411c1.7897 0 3.24049-1.4509 3.24049-3.2406s-1.45079-3.2405-3.24049-3.2405c-1.7898 0-3.2406 1.4508-3.2406 3.2405s1.4508 3.2406 3.2406 3.2406z"/><path d="m0 100.238v3.461c.1756-.548.274801-1.118.294601-1.694-.0204-.599-.119401-1.193-.294601-1.767z"/></g><path d="m43.8946 54.4258h-13.9933v55.1482h13.9933z" fill="#57f287"/><path d="m91.251 54.4258h-6.702v55.1482h6.702z" fill="#29cc7a"/></svg>