<svg fill="none" height="12" viewBox="0 0 13 12" width="13" xmlns="http://www.w3.org/2000/svg" xmlns:xlink="http://www.w3.org/1999/xlink"><clipPath id="a"><path d="m.009644 0h12v12h-12z"/></clipPath><g clip-path="url(#a)" fill="#fff"><path clip-rule="evenodd" d="m1.11464 5.05979c.10259.00134.20158-.03779.27551-.10891.07394-.07113.11687-.16853.11949-.27109-.00258-.10216-.04465-.19935-.11737-.27114-.07273-.07179-.17044-.1126-.27263-.11386h-.219996c-.102183.00126-.199901.04207-.272626.11386-.072724.07179-.114795.16898-.117374.27114.002608.10169.044846.19833.117704.26932.072858.071.170571.11071.272296.11068zm8.065 4.635c.47131-.19961.89746-.49238 1.25276-.86073.3554-.36836.6327-.8047.8153-1.28286.1826-.47817.2667-.98828.2472-1.49975-.0194-.51146-.1419-1.01373-.3603-1.47666-.3125-.64615-.795-1.19506-1.3957-1.58791-.60071-.39284-1.29701-.6148-2.01426-.64209h-4c-.08238-.00758-.16544.00211-.24386.02844-.07843.02633-.15051.06873-.21162.12448-.06112.05576-.10994.12365-.14335.19934-.0334.07568-.05065.15751-.05065.24024s.01725.16455.05065.24023c.03341.07569.08223.14358.14335.19934.06111.05575.13319.09815.21162.12448.07842.02633.16148.03602.24386.02845h1.015c.05391-.00618.10851-.00089.16022.01552.05172.0164.09938.04355.13987.07967s.07288.08038.09507.12989c.02218.04952.03365.10316.03365.15742 0 .05425-.01147.10789-.03365.15741-.02219.04951-.05458.09378-.09507.12989-.04049.03612-.08815.06327-.13987.07967-.05171.01641-.10631.0217-.16022.01553h-2.525c-.10257-.00001-.20102.04039-.27402.11245-.07299.07206-.11466.16998-.11598.27255.00066.05056.01126.10049.03121.14695.01996.04646.04887.08854.08508.12383.03622.03528.07903.06309.12599.08183.04697.01874.09716.02805.14772.02739h1.795c.05056 0 .10063.00995.14734.0293s.08915.04771.1249.08346.06411.07819.08346.1249.0293.09678.0293.14734c0 .05055-.00995.10062-.0293.14733s-.04771.08915-.08346.1249-.07819.06411-.1249.08346-.09678.02931-.14734.02931h-1.12c-.05056-.00067-.10075.00864-.14771.02738-.04697.01874-.08978.04655-.126.08183-.03621.03529-.06512.07737-.08508.12383-.01995.04646-.03055.0964-.03121.14696.00132.10256.04299.20048.11598.27254.073.07206.17145.11246.27402.11246h.78c.04548.42259.16036.83479.34 1.22.45117.92129 1.24185 1.63187 2.20593 1.98245.96408.35056 2.0265.31386 2.96407-.10245zm-3.635-2.595c-.12295-.26267-.19201-.54731-.20309-.83712-.01107-.2898.03605-.57889.1386-.85017s.25843-.51925.45844-.72927c.20001-.21001.44009-.3778.70605-.49344.5371-.24491 1.14892-.26894 1.70357-.06691.55464.20203 1.00768.61393 1.26143 1.14691.12226.26277.19076.54733.20149.83695s-.03654.57847-.13901.84956c-.10248.2711-.25811.51899-.45773.72909-.19963.21011-.43924.3782-.70475.4944-.53727.24357-1.14859.26691-1.70287.06502-.55429-.2019-1.00738-.61296-1.26213-1.14502z" fill-rule="evenodd"/><path d="m8.29965 4.86476h-1.435c-.02388-.00031-.04745.00551-.06846.01689-.021.01137-.03874.02794-.05154.04811l-.735 1.2c-.01225.0222-.01868.04714-.01868.0725 0 .02535.00643.0503.01868.0725l.735 1.225c.01178.02145.02917.03929.05031.05162.02113.01233.04522.01868.06969.01838h1.435c.02447.0003.04856-.00605.0697-.01838.02113-.01233.03852-.03017.0503-.05162l.715-1.2c.01226-.0222.01869-.04714.01869-.0725s-.00643-.0503-.01869-.0725l-.715-1.2c-.0094-.02484-.02568-.04649-.04693-.06243s-.04659-.0255-.07307-.02757z"/></g></svg>