<svg width="30" height="29" viewBox="0 0 30 29" fill="none" xmlns="http://www.w3.org/2000/svg">
<path d="M21.481 5.05951L18.673 6.04664C18.5285 6.09602 18.4031 6.18916 18.3143 6.31305C18.2255 6.43694 18.1777 6.58538 18.1777 6.73763C18.1777 6.88988 18.2255 7.03832 18.3143 7.16221C18.4031 7.2861 18.5285 7.37924 18.673 7.42862L21.481 8.41575C21.5854 8.45165 21.6802 8.51074 21.7583 8.58856C21.8364 8.66637 21.8957 8.76087 21.9317 8.86489L22.9222 11.6634C22.9717 11.8074 23.0652 11.9324 23.1895 12.0209C23.3138 12.1094 23.4627 12.157 23.6155 12.157C23.7683 12.157 23.9172 12.1094 24.0415 12.0209C24.1658 11.9324 24.2593 11.8074 24.3088 11.6634L25.2993 8.86489C25.336 8.76122 25.3955 8.66706 25.4735 8.58933C25.5515 8.5116 25.646 8.45229 25.75 8.41575L28.563 7.42862C28.7075 7.37924 28.8329 7.2861 28.9217 7.16221C29.0105 7.03832 29.0582 6.88988 29.0582 6.73763C29.0582 6.58538 29.0105 6.43694 28.9217 6.31305C28.8329 6.18916 28.7075 6.09602 28.563 6.04664L25.75 5.05951C25.6465 5.02205 25.5525 4.96242 25.4746 4.88482C25.3968 4.80721 25.3369 4.71353 25.2993 4.61037L24.3088 1.80692C24.2593 1.6629 24.1658 1.53791 24.0415 1.44942C23.9172 1.36093 23.7683 1.31335 23.6155 1.31335C23.4627 1.31335 23.3138 1.36093 23.1895 1.44942C23.0652 1.53791 22.9717 1.6629 22.9222 1.80692L21.9317 4.61037C21.895 4.71404 21.8355 4.8082 21.7575 4.88593C21.6795 4.96366 21.585 5.02297 21.481 5.05951Z" fill="white" fill-opacity="0.4"/>
<g clip-path="url(#clip0_1308_1870)">
<g filter="url(#filter0_d_1308_1870)">
<path d="M16.8895 16.9847C18.0751 16.9847 19.0362 16.0235 19.0362 14.8379C19.0362 13.6523 18.0751 12.6912 16.8895 12.6912C15.7039 12.6912 14.7427 13.6523 14.7427 14.8379C14.7427 16.0235 15.7039 16.9847 16.8895 16.9847Z" fill="url(#paint0_linear_1308_1870)"/>
<path fill-rule="evenodd" clip-rule="evenodd" d="M8.30253 6.25098C7.70972 6.25098 7.22916 6.73154 7.22916 7.32435C7.22916 7.91715 7.70972 8.39772 8.30253 8.39772H11.5226C12.1154 8.39772 12.596 8.87828 12.596 9.47109C12.596 10.0639 12.1154 10.5445 11.5226 10.5445L6.69247 10.5445C6.09967 10.5445 5.6191 11.025 5.6191 11.6178C5.6191 12.2106 6.09967 12.6912 6.69247 12.6912L9.3759 12.6912C9.9687 12.6912 10.4493 13.1718 10.4493 13.7646C10.4493 14.3574 9.9687 14.8379 9.3759 14.8379H7.22916C6.63635 14.8379 6.15579 15.3185 6.15579 15.9113C6.15579 16.5041 6.63635 16.9847 7.22916 16.9847H8.57305C9.5263 20.6883 12.8883 23.4249 16.8895 23.4249C21.6319 23.4249 25.4765 19.5804 25.4765 14.8379C25.4765 10.0955 21.6319 6.25098 16.8895 6.25098H8.30253ZM16.8895 19.1314C19.2607 19.1314 21.183 17.2092 21.183 14.8379C21.183 12.4667 19.2607 10.5445 16.8895 10.5445C14.5183 10.5445 12.596 12.4667 12.596 14.8379C12.596 17.2092 14.5183 19.1314 16.8895 19.1314Z" fill="url(#paint1_linear_1308_1870)"/>
<path d="M3.47236 12.6912C4.06517 12.6912 4.54573 12.2106 4.54573 11.6178C4.54573 11.025 4.06517 10.5445 3.47236 10.5445H2.93568C2.34287 10.5445 1.8623 11.025 1.8623 11.6178C1.8623 12.2106 2.34287 12.6912 2.93568 12.6912H3.47236Z" fill="url(#paint2_linear_1308_1870)"/>
</g>
</g>
<path d="M11.4823 20.6823L10.8831 18.9992C10.8542 18.9127 10.7987 18.8374 10.7245 18.7841C10.6502 18.7307 10.5611 18.702 10.4695 18.702C10.378 18.702 10.2888 18.7307 10.2146 18.7841C10.1404 18.8374 10.0849 18.9127 10.056 18.9992L9.50134 20.6823C9.47972 20.7439 9.44445 20.7998 9.39815 20.846C9.35185 20.8921 9.29571 20.9273 9.23391 20.9488L7.52037 21.5066C7.43529 21.5364 7.36161 21.5919 7.30948 21.6653C7.25736 21.7386 7.22937 21.8263 7.22937 21.9162C7.22937 22.0061 7.25736 22.0938 7.30948 22.1672C7.36161 22.2406 7.43529 22.296 7.52037 22.3259L9.18934 22.9083C9.25114 22.9298 9.30728 22.965 9.35358 23.0111C9.39988 23.0573 9.43515 23.1132 9.45677 23.1748L10.0362 24.8332C10.0651 24.9197 10.1206 24.995 10.1948 25.0483C10.269 25.1017 10.3582 25.1304 10.4497 25.1304C10.5412 25.1304 10.6304 25.1017 10.7047 25.0483C10.7789 24.995 10.8344 24.9197 10.8633 24.8332L11.4823 23.1748C11.5039 23.1132 11.5392 23.0573 11.5855 23.0111C11.6318 22.965 11.6879 22.9298 11.7497 22.9083L13.4187 22.3259C13.5038 22.296 13.5775 22.2406 13.6296 22.1672C13.6817 22.0938 13.7097 22.0061 13.7097 21.9162C13.7097 21.8263 13.6817 21.7386 13.6296 21.6653C13.5775 21.5919 13.5038 21.5364 13.4187 21.5066L11.7299 20.9242C11.6743 20.9029 11.6235 20.8704 11.581 20.8288C11.5384 20.7872 11.5048 20.7374 11.4823 20.6823Z" fill="white" fill-opacity="0.8"/>
<path d="M14.9172 26.3225L14.5599 25.319C14.5426 25.2674 14.5096 25.2225 14.4653 25.1907C14.421 25.1588 14.3679 25.1417 14.3133 25.1417C14.2587 25.1417 14.2055 25.1588 14.1613 25.1907C14.117 25.2225 14.0839 25.2674 14.0667 25.319L13.736 26.3225C13.7231 26.3593 13.702 26.3926 13.6744 26.4201C13.6468 26.4476 13.6134 26.4686 13.5765 26.4815L12.5547 26.814C12.504 26.8318 12.4601 26.8649 12.429 26.9086C12.3979 26.9524 12.3812 27.0047 12.3812 27.0583C12.3812 27.1119 12.3979 27.1642 12.429 27.2079C12.4601 27.2517 12.504 27.2848 12.5547 27.3026L13.5499 27.6498C13.5868 27.6627 13.6203 27.6837 13.6479 27.7112C13.6755 27.7387 13.6965 27.772 13.7094 27.8088L14.0549 28.7976C14.0721 28.8492 14.1052 28.8941 14.1495 28.9259C14.1937 28.9577 14.2469 28.9749 14.3015 28.9749C14.356 28.9749 14.4092 28.9577 14.4535 28.9259C14.4977 28.8941 14.5308 28.8492 14.5481 28.7976L14.9172 27.8088C14.9301 27.772 14.9511 27.7387 14.9787 27.7112C15.0063 27.6837 15.0398 27.6627 15.0767 27.6498L16.0718 27.3026C16.1226 27.2848 16.1665 27.2517 16.1976 27.2079C16.2287 27.1642 16.2454 27.1119 16.2454 27.0583C16.2454 27.0047 16.2287 26.9524 16.1976 26.9086C16.1665 26.8649 16.1226 26.8318 16.0718 26.814L15.0648 26.4667C15.0316 26.4541 15.0014 26.4347 14.976 26.4099C14.9506 26.3851 14.9306 26.3554 14.9172 26.3225Z" fill="white" fill-opacity="0.4"/>
<path d="M18.7814 1.20596L18.4241 0.202376C18.4069 0.150774 18.3738 0.105886 18.3296 0.0740753C18.2853 0.0422648 18.2321 0.0251465 18.1775 0.0251465C18.123 0.0251465 18.0698 0.0422648 18.0255 0.0740753C17.9813 0.105886 17.9482 0.150774 17.931 0.202376L17.6002 1.20596C17.5873 1.24268 17.5663 1.27604 17.5387 1.30356C17.5111 1.33107 17.4776 1.35203 17.4408 1.36488L16.419 1.69744C16.3683 1.71526 16.3243 1.74832 16.2933 1.79207C16.2622 1.83582 16.2455 1.88811 16.2455 1.94172C16.2455 1.99533 16.2622 2.04761 16.2933 2.09136C16.3243 2.13512 16.3683 2.16818 16.419 2.18599L17.4142 2.53327C17.451 2.54612 17.4845 2.56708 17.5121 2.5946C17.5397 2.62211 17.5608 2.65547 17.5736 2.6922L17.9192 3.68106C17.9364 3.73266 17.9695 3.77755 18.0137 3.80936C18.058 3.84117 18.1112 3.85829 18.1657 3.85829C18.2203 3.85829 18.2735 3.84117 18.3177 3.80936C18.362 3.77755 18.3951 3.73266 18.4123 3.68106L18.7814 2.6922C18.7943 2.65547 18.8154 2.62211 18.843 2.5946C18.8706 2.56708 18.9041 2.54612 18.9409 2.53327L19.9361 2.18599C19.9868 2.16818 20.0308 2.13512 20.0618 2.09136C20.0929 2.04761 20.1096 1.99533 20.1096 1.94172C20.1096 1.88811 20.0929 1.83582 20.0618 1.79207C20.0308 1.74832 19.9868 1.71526 19.9361 1.69744L18.9291 1.35017C18.8959 1.33748 18.8657 1.31813 18.8403 1.29332C18.8149 1.26852 18.7949 1.23878 18.7814 1.20596Z" fill="white" fill-opacity="0.8"/>
<defs>
<filter id="filter0_d_1308_1870" x="-8.1377" y="0.250977" width="43.6143" height="37.174" filterUnits="userSpaceOnUse" color-interpolation-filters="sRGB">
<feFlood flood-opacity="0" result="BackgroundImageFix"/>
<feColorMatrix in="SourceAlpha" type="matrix" values="0 0 0 0 0 0 0 0 0 0 0 0 0 0 0 0 0 0 127 0" result="hardAlpha"/>
<feOffset dy="4"/>
<feGaussianBlur stdDeviation="5"/>
<feComposite in2="hardAlpha" operator="out"/>
<feColorMatrix type="matrix" values="0 0 0 0 0 0 0 0 0 0 0 0 0 0 0 0 0 0 0.25 0"/>
<feBlend mode="normal" in2="BackgroundImageFix" result="effect1_dropShadow_1308_1870"/>
<feBlend mode="normal" in="SourceGraphic" in2="effect1_dropShadow_1308_1870" result="shape"/>
</filter>
<linearGradient id="paint0_linear_1308_1870" x1="1.8623" y1="14.8379" x2="25.4765" y2="14.8379" gradientUnits="userSpaceOnUse">
<stop stop-color="#B473F5"/>
<stop offset="1" stop-color="#E292AA"/>
</linearGradient>
<linearGradient id="paint1_linear_1308_1870" x1="1.8623" y1="14.8379" x2="25.4765" y2="14.8379" gradientUnits="userSpaceOnUse">
<stop stop-color="#B473F5"/>
<stop offset="1" stop-color="#E292AA"/>
</linearGradient>
<linearGradient id="paint2_linear_1308_1870" x1="1.8623" y1="14.8379" x2="25.4765" y2="14.8379" gradientUnits="userSpaceOnUse">
<stop stop-color="#B473F5"/>
<stop offset="1" stop-color="#E292AA"/>
</linearGradient>
<clipPath id="clip0_1308_1870">
<rect width="25.7609" height="25.7609" fill="white" transform="translate(0.78894 1.9574)"/>
</clipPath>
</defs>
</svg>
