<svg fill="none" height="194" viewBox="0 0 338 194" width="338" xmlns="http://www.w3.org/2000/svg" xmlns:xlink="http://www.w3.org/1999/xlink"><linearGradient id="a" gradientUnits="userSpaceOnUse" x1="168.883" x2="180.611" y1="122.002" y2="186.214"><stop offset="0" stop-color="#e8e8e8"/><stop offset=".3" stop-color="#e5e6e7"/><stop offset=".6" stop-color="#dddfe6"/><stop offset=".7" stop-color="#ced4e3"/><stop offset=".9" stop-color="#bac5df"/><stop offset="1" stop-color="#abb9dd"/></linearGradient><linearGradient id="b" gradientUnits="userSpaceOnUse" x1="159.918" x2="193.755" y1="39.2668" y2="120.328"><stop offset=".2" stop-color="#e8e8e8"/><stop offset=".5" stop-color="#e5e6e7"/><stop offset=".7" stop-color="#dddfe6"/><stop offset=".8" stop-color="#ced4e3"/><stop offset=".9" stop-color="#bac5df"/><stop offset="1" stop-color="#abb9dd"/></linearGradient><path d="m181.597 170.5v16.5c0 3.3 2.7 6 6 6h27.5c3.9 0 6.1-4.2 4.6-8.4-1.1-3-5-7.6-11.1-10.7-.8-.4-1.6-.8-2.5-1.1-1.4-.6-2.9-1.1-4.5-1.5-10.1-2.4-19.9-.8-19.9-.8z" fill="#3442d9"/><path d="m202.397 193h2.7l3.4-19.1c-.8-.4-1.6-.8-2.5-1.1l-3.6 20.3z" fill="#2828c6"/><path d="m277.397 129.6c-1.9 2-6.3 6.2-12.9 10.5-.8.5-1.6 1-2.4 1.5-5.3 3.2-11.8 6.3-19.4 8.4-.9.3-1.8.5-2.8.7-5 1.2-10.4 1.9-16.1 1.9s-2.9 0-4.4-.1c-.9 0-1.9-.1-2.9-.2-7.1-.7-14.6-2.5-22.6-5.7-5.1-2.1-7.6-7.9-5.5-13s7.9-7.6 13-5.5c5.4 2.2 10.5 3.5 15.3 4.1 1 .1 1.9.2 2.9.3 5.8.4 11 0 15.8-1.2.9-.2 1.9-.4 2.8-.7 5.3-1.5 9.8-3.7 13.6-6 .8-.5 1.7-1 2.4-1.5 4.5-3 7.5-5.9 8.8-7.2.2-.2.3-.3.3-.4 3.9-3.9 10.3-3.8 14.1.1s3.8 10.2 0 14z" fill="#cfcfda"/><path d="m219.597 132.4-.2 20.1c-.9 0-1.9-.1-2.9-.2l.2-20.2c1 .1 1.9.2 2.9.3z" fill="#9b9bba"/><path d="m242.697 150.1c-.9.3-1.8.5-2.8.7l-4.5-19.6c.9-.2 1.9-.4 2.8-.7z" fill="#9b9bba"/><path d="m264.497 140.2c-.8.5-1.6 1-2.4 1.5l-10.3-17.1c.8-.5 1.7-1 2.4-1.5z" fill="#9b9bba"/><path d="m168.497 117.1 27.5 4.7c8.2 1.4 12.6 4.3 16.2 15.8l4.7 17.9c2.9 15.4-11.4 30.3-26.9 27.7l-41-7c-11.9-2-18.5-15-13.2-25.9l11.1-22.3c4-8 12.7-12.5 21.6-11z" fill="url(#a)"/><path d="m151.097 158.3c.4 0 .8-.2 1-.5.5-.6.4-1.4-.2-1.9l-8.4-6.8c-.6-.5-1.4-.4-1.9.2s-.4 1.4.2 1.9l8.4 6.8c.2.2.5.3.8.3z" fill="#898989"/><path d="m148.797 163c.4 0 .8-.2 1-.5.5-.6.4-1.4-.2-1.9l-8.4-6.8c-.6-.5-1.4-.4-1.9.2s-.4 1.4.2 1.9l8.4 6.8c.2.2.5.3.8.3z" fill="#898989"/><path d="m157.897 138.2c-.4 5.2-4.8 9.1-9.9 9.1s-.6 0-.9 0c-6.5-.6-12.5-1.5-18-2.8-.9-.2-1.9-.4-2.8-.7-10.2-2.6-18.9-6.2-26.2-10.4-.8001-.5-1.7001-1-2.5001-1.5-9.8-5.9-17-12.7-22.3-18.9-.6-.8-1.2-1.5-1.8-2.2-5.5-6.9-8.4-12.8-9.5-15.3-2.3-5-.2-11 4.8-13.3s11-.2 13.2999 4.8v.3c.7001 1.2 2.8001 5.6 7.2001 11.1.6.7 1.1999 1.4 1.7999 2.2 3.8 4.3 9.0002 9.1 15.8002 13.5.8.5 1.6 1 2.5 1.5 5.6 3.3 12.4 6.3 20.3 8.4.9.3 1.8.5 2.8.7 5 1.2 10.5 2.1 16.4 2.7 5.5.5 9.6 5.3 9.1 10.8z" fill="#cfcfda"/><path d="m155.497 177.4v9.7c0 3.3-2.7 6-6 6h-27.5c-3.9 0-6.1-4.2-4.6-8.4 1.1-3 5-7.6 11.1-10.7.8-.4 1.6-.8 2.5-1.1 1.4-.6 2.9-1.1 4.5-1.5 4.5-1.1 9-1.4 12.5-1.3s7.4 3.3 7.4 7.4z" fill="#6990ff"/><path d="m134.597 193h-2.7l-3.4-19.1c.8-.4 1.6-.8 2.5-1.1l3.6 20.3z" fill="#3d6bf2"/><path d="m144.697 117c.3 6 5.4 10.5 11.4 10.2l7.2-.4h2.6c0-.1 15.7-1 15.7-1h2.6c0-.1 15.7-1 15.7-1h1.5c.4-.1.8-.1 1.1-.2 3.8-.8 6.6-4.2 6.4-8.3l-.5-8.5-6.9.4h-2.6c0 .1-15.7 1-15.7 1h-2.6c0 .1-15.7 1-15.7 1l-2.6.2-18 1 .3 5.7z" fill="#6990ff"/><path d="m201.597 124.7c.4 0 .8 0 1.1-.1l-.9-16.4h-2.6c0 .1.9 16.7.9 16.7h1.5z" fill="#3d6bf2"/><path d="m183.604 109.091-2.696.146.897 16.576 2.696-.146z" fill="#3d6bf2"/><path d="m163.297 126.8 2.7-.2-.9-16.5-2.7.2z" fill="#3d6bf2"/><path d="m233.697 68.7c2.8-.7 6.2 2.8 7.4 7.8 1.3 5 0 9.7-2.9 10.4l-9.7 2.4-4.6-18.2 9.7-2.4z" fill="#698fff"/><path d="m206.897 60.4c.4-.2.9-.5 1.5-.9 4.4-2.8 14-9.5 15.8-17 1.1-4.7-.1-10.6-9.3-16.3-.6-.4-1.3-.7-2-1-5.5-2.2-12.5-.7-13.1 8.6-.5 9.1-.2 19.1.4 23.6.5 3.9 3.7 4.9 6.7 3.1z" fill="#e8e8e8"/><path d="m208.397 59.4c4.4-2.8 14-9.5 15.8-17 1.1-4.7-.1-10.6-9.3-16.3-.6-.4-1.3-.7-2-1l-4.4 34.4z" fill="#ff78b9"/><path d="m163.197 32.4c1.2 0 2.1-.9 2.2-2.1 0-.9 1.3-22.20002-13.4-28.00002-14.3-5.7-36.4 9.20002-37.3 9.80002-1 .7-1.3 2.1-.6 3.1s2.1 1.3 3.1.6c.2-.1 21-14.20001 33.2-9.40001 11.8 4.70001 10.6 23.40001 10.6 23.60001 0 1.2.8 2.3 2.1 2.4z" fill="#000"/><path d="m155.131 41.9571 20.667-5.153c1.875-.4676 3.017-2.3672 2.549-4.2427l-1.161-4.6574c-.468-1.8756-2.367-3.017-4.243-2.5494l-20.667 5.153c-1.876.4676-3.017 2.3672-2.549 4.2427l1.161 4.6574c.467 1.8756 2.367 3.017 4.243 2.5494z" fill="#6990ff"/><path d="m114.297 29c8.008 0 14.5-6.4919 14.5-14.5 0-8.00813-6.492-14.5-14.5-14.5s-14.5001 6.49187-14.5001 14.5c0 8.0081 6.4921 14.5 14.5001 14.5z" fill="#6990ff"/><path d="m233.397 77.4c-3.2-13.4-13.6-16.9-19.1-18.9-11-4-12.9-6.6-15.6-10.2-6.9-9.4-17.1-16.8-33.7-13-16.2 3.7-22.5 16.7-24.2 29.1 0 .6-.1 1.1-.2 1.6-2-4.5-4.8-10.1-7.8-15.3-4.7-8.1-11.6-6.3-15.5-1.8-.5.6-1 1.2-1.3 1.8-5.6 9.3-4.1 15-1 18.8 4.9 5.9 16.4 7.6 21.6 8.1-4.6 6-9.9 14.4-7.1 25.6 3.3 13.1 16.4 21.1 29.5 18.1l56.8-14.2c12.9-3.5 20.7-16.6 17.6-29.6z" fill="url(#b)"/><path d="m114.997 69.4c4.9 5.9 16.5 7.6 21.7 8.1l-19.4-28.7c-.5.6-1 1.2-1.3 1.8-5.6 9.3-4.1 15-1 18.8z" fill="#ffaed7"/><path d="m134.697 93.4c2.8-.7 6.2 2.8 7.4 7.8s0 9.7-2.9 10.4l-9.7 2.4-4.6-18.2 9.7-2.4z" fill="#698fff"/><path d="m129.352 114.271c2.84-.708 4.124-5.366 2.868-10.403-1.255-5.0375-4.576-8.5469-7.416-7.8388s-4.125 5.3658-2.869 10.4028 4.577 8.547 7.417 7.839z" fill="#8ca9ff"/><path d="m196.839 59.6512c1.382-2.643 1.391-5.3663.02-6.0827-1.37-.7165-3.601.8453-4.983 3.4882-1.382 2.643-1.391 5.3663-.02 6.0828 1.37.7164 3.601-.8454 4.983-3.4883z" fill="#000"/><path d="m170.389 67.9611c.871-1.2774-.42-3.6755-2.883-5.3561-2.464-1.6806-5.168-2.0074-6.039-.7299-.872 1.2774.419 3.6755 2.883 5.3561s5.167 2.0074 6.039.7299z" fill="#000"/><g fill="#ffaed7"><path d="m165.997 80.7c.3 0 .6-.2.8-.5.5-.6.4-1.4-.2-1.9l-6.1-5c-.6-.5-1.4-.4-1.9.2s-.4 1.4.2 1.9l6.1 5c.3.3.7.4 1.1.3z"/><path d="m160.597 82c.3 0 .6-.2.8-.5.5-.6.4-1.4-.2-1.9l-6.1-5c-.6-.5-1.4-.4-1.9.2s-.4 1.4.2 1.9l6.1 5c.3.3.7.4 1.1.3z"/><path d="m155.097 83.3c.3 0 .6-.2.8-.5.5-.6.4-1.4-.2-1.9l-6.1-5c-.6-.5-1.4-.4-1.9.2s-.4 1.4.2 1.9l6.1 5c.3.3.7.4 1.1.3z"/><path d="m201.297 71.9c.4 0 .8-.4 1-.8l3.1-7.3c.3-.7 0-1.5-.7-1.7-.7-.3-1.5 0-1.7.7l-3.1 7.3c-.3.7 0 1.5.7 1.7.3.1.5.1.8 0z"/><path d="m206.797 70.6c.4 0 .8-.4 1-.8l3.1-7.3c.3-.7 0-1.5-.7-1.7-.7-.3-1.5 0-1.7.7l-3.1 7.3c-.3.7 0 1.5.7 1.7.3.1.5.1.8 0z"/><path d="m212.197 69.2c.4 0 .8-.4 1-.8l3.1-7.3c.3-.7 0-1.5-.7-1.7-.7-.3-1.5 0-1.7.7l-3.1 7.3c-.3.7 0 1.5.7 1.7.3.1.5.1.8 0z"/></g><path d="m184.597 69c-.3-1.5 5.1-2.7 5.4-1.2s-1.1 2.7-2.2 2.9c-1.1.3-2.9-.2-3.2-1.7z" fill="#000"/><path d="m195.897 74.9c1 5.5-1.1 10.6-4.8 11.3-3.6.8-7.5-2.9-9-8.3l13.7-3.1z" fill="#ff78b9"/><path d="m68.5968 97.7c8.0081 0 14.5-6.4919 14.5-14.5s-6.4919-14.5-14.5-14.5-14.5 6.4919-14.5 14.5 6.4919 14.5 14.5 14.5z" fill="#6990ff"/><path d="m83.7654 7.16294-79.4127 20.83356c-2.40393.6306-3.841449 3.0906-3.21079 5.4946l15.07319 57.4557c.6307 2.4039 3.0907 3.8414 5.4946 3.2108l79.4123-20.8336c2.404-.6306 3.842-3.0906 3.211-5.4946l-15.073-57.4557c-.6307-2.4039-3.0907-3.84142-5.4946-3.21076z" fill="#d3d7db"/><path d="m58.4968 69c-.4 0-.7-.1-.9-.4l-18.2-21.4-11.8 20.4c-.3.6-1.1.8-1.6.4-.6-.3-.8-1.1-.4-1.6l12.6-21.9c.2-.3.5-.6.9-.6s.8.1 1 .4l17.5 20.5 3.2-34.4c0-.5.3-.8.8-1 .4-.2.9 0 1.2.2l18.5 17c.5.4.5 1.2 0 1.7-.4.5-1.2.5-1.7 0l-16.7-15.4-3.2 34.8c0 .5-.4.9-.8 1-.1 0-.2 0-.3 0z" fill="#5865f0"/><path d="m26.5968 74c3.8108 0 6.9-3.0892 6.9-6.9s-3.0892-6.9-6.9-6.9c-3.8107 0-6.9 3.0892-6.9 6.9s3.0893 6.9 6.9 6.9z" fill="#8088fd"/><path d="m62.3968 37.5c3.8108 0 6.9-3.0892 6.9-6.9s-3.0892-6.9-6.9-6.9c-3.8107 0-6.9 3.0892-6.9 6.9s3.0893 6.9 6.9 6.9z" fill="#8088fd"/><path d="m58.5968 74.2c3.8108 0 6.9001-3.0892 6.9001-6.9s-3.0893-6.9-6.9001-6.9c-3.8107 0-6.9 3.0892-6.9 6.9s3.0893 6.9 6.9 6.9z" fill="#8088fd"/><path d="m80.4968 55.1c3.8108 0 6.9-3.0892 6.9-6.9 0-3.8107-3.0892-6.9-6.9-6.9-3.8107 0-6.9 3.0893-6.9 6.9 0 3.8108 3.0893 6.9 6.9 6.9z" fill="#8088fd"/><path d="m39.1968 52.1c3.8108 0 6.9-3.0892 6.9-6.9 0-3.8107-3.0892-6.9-6.9-6.9s-6.9 3.0893-6.9 6.9c0 3.8108 3.0892 6.9 6.9 6.9z" fill="#8088fd"/><path d="m71.2968 88.7c4.3079 0 7.8-3.4922 7.8-7.8s-3.4921-7.8-7.8-7.8c-4.3078 0-7.8 3.4922-7.8 7.8s3.4922 7.8 7.8 7.8z" fill="#6990ff"/><path d="m274.597 132.3c8.008 0 14.5-6.492 14.5-14.5s-6.492-14.5-14.5-14.5-14.5 6.492-14.5 14.5 6.492 14.5 14.5 14.5z" fill="#6990ff"/><path d="m311.897 130.4-54.8-22.2c-2.3-.9-3.4-3.6-2.5-5.9l19.6-48.1c.9-2.3 3.6-3.4 5.9-2.5l54.8 22.2c2.3.9 3.4 3.6 2.5 5.9l-19.6 48.1c-.9 2.3-3.6 3.4-5.9 2.5z" fill="#d3d7db"/><path d="m283.195 72.5909-9.136 22.8407c-.615 1.5384.133 3.2843 1.672 3.8996l29.154 11.6608c1.538.615 3.284-.133 3.9-1.671l9.135-22.841c.616-1.5383-.133-3.2842-1.671-3.8995l-29.154-11.661c-1.539-.6153-3.285.133-3.9 1.6714z" fill="#8088fd"/><path d="m285.997 93.8 4.7-11.8c.2-.6 1-.8 1.5-.3l11.9 11.6c.6.6.2 1.6-.6 1.6l-16.7.2c-.6 0-1.1-.6-.9-1.2z" fill="#5865f0"/><path d="m272.297 122.2c4.308 0 7.8-3.492 7.8-7.8s-3.492-7.8-7.8-7.8-7.8 3.492-7.8 7.8 3.492 7.8 7.8 7.8z" fill="#6990ff"/><path d="m132.297 124.7-3.3 19.8c-.9-.2-1.9-.4-2.8-.7l3.4-19.8c.9.3 1.8.5 2.8.7z" fill="#9b9bba"/><path d="m109.297 115.5-9.3002 17.9c-.8-.5-1.7-1-2.5-1.5l9.3002-17.9c.8.5 1.6 1 2.5 1.5z" fill="#9b9bba"/><path d="m90.9969 100.6-15.8001 12.4c-.6-.8-1.1999-1.5-1.7999-2.2l15.7999-12.4c.6.7 1.2001 1.4 1.8001 2.2z" fill="#9b9bba"/></svg>