<svg fill="none" height="45" viewBox="0 0 44 45" width="44" xmlns="http://www.w3.org/2000/svg" xmlns:xlink="http://www.w3.org/1999/xlink"><filter id="a" color-interpolation-filters="sRGB" filterUnits="userSpaceOnUse" height="46.6665" width="56.6665" x="-8.33301" y="3.6665"><feFlood flood-opacity="0" result="BackgroundImageFix"/><feColorMatrix in="SourceAlpha" result="hardAlpha" type="matrix" values="0 0 0 0 0 0 0 0 0 0 0 0 0 0 0 0 0 0 127 0"/><feOffset dy="4"/><feGaussianBlur stdDeviation="5"/><feComposite in2="hardAlpha" operator="out"/><feColorMatrix type="matrix" values="0 0 0 0 0 0 0 0 0 0 0 0 0 0 0 0 0 0 0.25 0"/><feBlend in2="BackgroundImageFix" mode="normal" result="effect1_dropShadow_222_25274"/><feBlend in="SourceGraphic" in2="effect1_dropShadow_222_25274" mode="normal" result="shape"/></filter><linearGradient id="b" gradientUnits="userSpaceOnUse" x1="1.66699" x2="38.3337" y1="22.9998" y2="22.9998"><stop offset="0" stop-color="#b473f5"/><stop offset="1" stop-color="#e292aa"/></linearGradient><clipPath id="c"><path d="m.000488 3h40v40h-40z"/></clipPath><path d="m32.1296 7.81681-4.3601 1.53276c-.2244.07667-.4191.2213-.557.41366-.1379.19237-.212.42287-.212.65927s.0741.4669.212.6593c.1379.1923.3326.337.557.4136l4.3601 1.5328c.1621.0557.3093.1475.4306.2683.1212.1208.2133.2676.2692.4291l1.538 4.3454c.0769.2236.222.4177.415.5551.1931.1374.4243.2112.6615.2112s.4685-.0738.6616-.2112c.193-.1374.3381-.3315.415-.5551l1.538-4.3454c.0569-.161.1493-.3072.2704-.4279s.2678-.2128.4294-.2695l4.3678-1.5328c.2244-.0766.4191-.2213.557-.4136.1379-.1924.212-.4229.212-.6593s-.0741-.4669-.212-.65927c-.1379-.19236-.3326-.33699-.557-.41366l-4.3678-1.53276c-.1608-.05816-.3067-.15075-.4276-.27125s-.2139-.26597-.2722-.42615l-1.538-4.35303c-.0769-.22362-.222-.4177-.415-.55511-.1931-.1374-.4244-.21127-.6616-.21127s-.4684.07387-.6615.21127c-.193.13741-.3381.33149-.415.55511l-1.538 4.35303c-.0569.16097-.1493.30719-.2704.42788s-.2679.21279-.4294.26952z" fill="#fff" fill-opacity=".4"/><g clip-path="url(#c)"><g fill="url(#b)" filter="url(#a)"><path d="m25.0003 26.3332c1.841 0 3.3334-1.4924 3.3334-3.3334 0-1.8409-1.4924-3.3333-3.3334-3.3333-1.8409 0-3.3333 1.4924-3.3333 3.3333 0 1.841 1.4924 3.3334 3.3333 3.3334z"/><path clip-rule="evenodd" d="m11.667 9.6665c-.9205 0-1.6667.7462-1.6667 1.6667 0 .9204.7462 1.6666 1.6667 1.6666h5c.9205 0 1.6667.7462 1.6667 1.6667s-.7462 1.6667-1.6667 1.6667h-7.50001c-.92047 0-1.66666.7462-1.66666 1.6666 0 .9205.74619 1.6667 1.66666 1.6667h4.16671c.9204 0 1.6666.7462 1.6666 1.6667 0 .9204-.7462 1.6666-1.6666 1.6666h-3.3334c-.92045 0-1.66664.7462-1.66664 1.6667s.74619 1.6667 1.66664 1.6667h2.0867c1.4802 5.7507 6.7005 10 12.9133 10 7.3638 0 13.3334-5.9696 13.3334-13.3334s-5.9696-13.3333-13.3334-13.3333zm13.3333 20c3.6819 0 6.6667-2.9848 6.6667-6.6667s-2.9848-6.6666-6.6667-6.6666-6.6666 2.9847-6.6666 6.6666 2.9847 6.6667 6.6666 6.6667z" fill-rule="evenodd"/><path d="m4.16699 19.6665c.92048 0 1.66667-.7462 1.66667-1.6667 0-.9204-.74619-1.6666-1.66667-1.6666h-.83333c-.92048 0-1.66667.7462-1.66667 1.6666 0 .9205.74619 1.6667 1.66667 1.6667z"/></g></g><g fill="#fff"><path d="m16.6042 32.0749-.9305-2.6134c-.0448-.1344-.131-.2513-.2462-.3341-.1153-.0828-.2538-.1274-.3959-.1274s-.2805.0446-.3958.1274c-.1152.0828-.2014.1997-.2463.3341l-.8612 2.6134c-.0336.0956-.0884.1825-.1603.2541-.0718.0717-.159.1262-.255.1597l-2.6607.866c-.1321.0464-.2465.1325-.3274.2464-.0809.114-.1244.2501-.1244.3897s.0435.2758.1244.3897.1953.2.3274.2464l2.5915.9043c.096.0335.1831.0881.255.1597.0719.0717.1267.1585.1603.2542l.8997 2.575c.0448.1344.131.2513.2462.3341.1153.0828.2538.1274.3959.1274s.2806-.0446.3958-.1274c.1153-.0828.2014-.1997.2463-.3341l.9612-2.575c.0336-.0957.0884-.1825.1602-.2542.0719-.0716.1591-.1262.2551-.1597l2.5914-.9043c.1321-.0464.2466-.1325.3275-.2464s.1244-.2501.1244-.3897-.0435-.2757-.1244-.3897c-.0809-.1139-.1954-.2-.3275-.2464l-2.6222-.9043c-.0865-.0331-.1652-.0834-.2313-.148-.0662-.0646-.1183-.1421-.1532-.2275z" fill-opacity=".8"/><path d="m21.9382 40.8335-.5548-1.5583c-.0268-.0801-.0782-.1498-.1469-.1992s-.1513-.076-.236-.076-.1673.0266-.236.076c-.0688.0494-.1201.1191-.1469.1992l-.5135 1.5583c-.0201.057-.0527.1088-.0956.1515-.0429.0428-.0948.0753-.1521.0953l-1.5865.5163c-.0788.0277-.147.079-.1952.147-.0483.0679-.0742.1491-.0742.2323 0 .0833.0259.1645.0742.2324.0482.0679.1164.1193.1952.1469l1.5453.5393c.0572.0199.1092.0525.152.0952.0429.0427.0756.0945.0956.1515l.5365 1.5355c.0267.0801.0781.1498.1468.1992s.1513.076.236.076c.0848 0 .1674-.0266.2361-.076s.1201-.1191.1468-.1992l.5732-1.5355c.02-.057.0527-.1088.0955-.1515.0429-.0427.0949-.0753.1521-.0952l1.5453-.5393c.0787-.0276.147-.079.1952-.1469.0483-.0679.0742-.1491.0742-.2324 0-.0832-.0259-.1644-.0742-.2323-.0482-.068-.1165-.1193-.1952-.147l-1.5636-.5392c-.0516-.0197-.0985-.0497-.138-.0882-.0394-.0386-.0705-.0847-.0913-.1357z" fill-opacity=".4"/><path d="m27.9382 1.83349-.5548-1.558299c-.0268-.080123-.0782-.149824-.1469-.1992171-.0687-.0493936-.1513-.0759739-.236-.0759739s-.1673.0265803-.236.0759739c-.0688.0493931-.1201.1190941-.1469.1992171l-.5135 1.558299c-.0201.05703-.0527.10883-.0956.15155s-.0948.07527-.1521.09522l-1.5865.51639c-.0788.02766-.147.07899-.1952.14693-.0483.06794-.0742.14912-.0742.23236s.0259.16443.0742.23236c.0482.06794.1164.11928.1952.14694l1.5453.53923c.0572.01995.1092.0525.152.09522.0429.04272.0756.09452.0956.15155l.5365 1.53545c.0267.08013.0781.14983.1468.19922s.1513.07597.236.07597c.0848 0 .1674-.02658.2361-.07597s.1201-.11909.1468-.19922l.5732-1.53545c.02-.05703.0527-.10883.0955-.15155.0429-.04272.0949-.07527.1521-.09522l1.5453-.53923c.0787-.02766.147-.079.1952-.14694.0483-.06793.0742-.14912.0742-.23236s-.0259-.16442-.0742-.23236c-.0482-.06794-.1165-.11927-.1952-.14693l-1.5636-.53924c-.0516-.0197-.0985-.04974-.138-.08826-.0394-.03851-.0705-.08469-.0913-.13566z" fill-opacity=".8"/></g></svg>