<svg width="156" height="60" viewBox="0 0 156 60" fill="none" xmlns="http://www.w3.org/2000/svg">
<g opacity="0.15">
<path d="M163 4.77752C140.763 -3.57178 114.911 -1.99644 101.553 17.6953C88.1949 37.3871 74.6012 38.096 59.3573 31.7946C44.1134 25.4932 -8.61163 34.2364 1.21046 80H155.142C159.464 80 163 76.4555 163 72.1233V4.77752Z" fill="white" fill-opacity="0.1"/>
<g opacity="0.6">
<path d="M134.378 63.4848C134.378 64.467 133.58 65.2632 132.594 65.2632C131.609 65.2632 130.81 64.467 130.81 63.4848V61.7064C130.81 60.7243 131.609 59.9281 132.594 59.9281C133.58 59.9281 134.378 60.7243 134.378 61.7064V63.4848Z" fill="white"/>
<path d="M134.378 49.2767C134.378 50.2589 133.58 51.0551 132.594 51.0551C131.609 51.0551 130.81 50.2589 130.81 49.2767V47.4983C130.81 46.5162 131.609 45.72 132.594 45.72C133.58 45.72 134.378 46.5162 134.378 47.4983V49.2767Z" fill="white"/>
<path d="M140.604 53.7039C141.589 53.7039 142.388 54.5002 142.388 55.4823C142.388 56.4645 141.589 57.2607 140.604 57.2607H138.82C137.834 57.2607 137.036 56.4645 137.036 55.4823C137.036 54.5002 137.834 53.7039 138.82 53.7039H140.604Z" fill="white"/>
<path d="M126.347 53.7039C127.333 53.7039 128.131 54.5001 128.131 55.4823C128.131 56.4644 127.333 57.2607 126.347 57.2607H124.563C123.578 57.2607 122.779 56.4644 122.779 55.4823C122.779 54.5001 123.578 53.7039 124.563 53.7039H126.347Z" fill="white"/>
</g>
<path opacity="0.6" d="M50.061 35.5541C48.6827 36.0851 47.5103 36.7878 46.623 37.6147C45.7357 38.4416 45.1543 39.3735 44.918 40.3471L44.0697 43.6933C44.0498 43.7767 43.9823 43.8533 43.8788 43.91C43.8316 43.9385 43.7754 43.9612 43.7135 43.9766C43.6516 43.9921 43.5853 44 43.5183 44C43.4513 44 43.385 43.9921 43.3231 43.9766C43.2612 43.9612 43.2051 43.9385 43.1578 43.91C43.0575 43.8526 42.9937 43.776 42.9775 43.6933L42.1186 40.3471C41.8737 39.376 41.2921 38.4466 40.4113 37.6192C39.5258 36.7907 38.3541 36.0864 36.9757 35.5541L36.2334 35.2737C36.1575 35.242 36.0985 35.1977 36.0637 35.1462C36.0202 35.0972 35.9983 35.0424 36.0001 34.9869C35.9997 34.9335 36.0215 34.8809 36.0637 34.8339C36.0985 34.7824 36.1575 34.7382 36.2334 34.7064L36.9757 34.426C38.3518 33.892 39.523 33.1881 40.4113 32.3609C41.2921 31.5335 41.8737 30.6041 42.1186 29.633L42.9775 26.2868C42.9959 26.2082 43.0597 26.136 43.1578 26.0829C43.2588 26.0314 43.386 26.0022 43.5183 26C43.6514 26 43.7797 26.0295 43.8788 26.0829C43.984 26.1334 44.0525 26.2065 44.0697 26.2868L44.918 29.633C45.1543 30.6067 45.7357 31.5385 46.623 32.3654C47.5103 33.1923 48.6827 33.895 50.061 34.426L50.8032 34.7064C50.8796 34.7396 50.9414 34.7833 50.9835 34.8339C51.0046 34.8841 51.0046 34.9367 50.9835 34.9869C51.0055 35.0392 51.0055 35.0939 50.9835 35.1462C50.9414 35.1968 50.8796 35.2406 50.8032 35.2737L50.061 35.5541Z" fill="white"/>
</g>
</svg>
