<svg viewBox="0 0 85 70" xmlns="http://www.w3.org/2000/svg"><circle cx="62.6" cy="35.03" fill="#00439c" r="22.21"/><g fill="#fff"><path d="m59.69 25.13v16.63l3.77 1.19v-13.95c0-.66.29-1.09.76-.94.61.17.73.78.73 1.43v5.57c2.34 1.13 4.19 0 4.19-2.99s-1.08-4.42-4.27-5.52c-1.26-.42-3.58-1.12-5.19-1.42"/><path d="m64.17 40.53 6.05-2.15c.68-.25.79-.6.24-.78-.56-.18-1.57-.13-2.26.12l-4.03 1.42v-2.27l.23-.08s1.17-.41 2.8-.59c1.64-.18 3.64.02 5.22.62 1.78.56 1.98 1.39 1.53 1.96-.46.57-1.56.98-1.56.98l-8.22 2.95z"/><path d="m52.79 40.3c-1.82-.51-2.12-1.58-1.29-2.2.77-.57 2.07-.99 2.07-.99l5.4-1.92v2.19l-3.88 1.39c-.69.25-.79.59-.24.77.56.19 1.56.14 2.25-.12l1.87-.67v1.95c-.12.02-.25.04-.38.06-1.86.31-3.84.18-5.8-.47z"/><path d="m72.67 41.18c.53 0 .89.39.89.89s-.36.89-.89.89-.9-.39-.9-.89.37-.89.9-.89zm0 1.65c.45 0 .75-.34.75-.76s-.3-.76-.75-.76-.75.34-.75.76.29.76.75.76zm-.35-1.28h.41c.19 0 .33.06.33.27 0 .12-.06.21-.19.25.07.02.11.07.15.19.03.11.07.23.1.32h-.19c-.03-.08-.06-.21-.08-.28-.03-.12-.06-.16-.22-.16h-.12v.44h-.19zm.19.46h.16c.13 0 .21-.05.21-.17 0-.14-.1-.16-.2-.16h-.18v.33z"/></g><path d="m40.39 35.03c0 4.74 1.49 9.12 4.01 12.73 2.56-3.62 4.08-8.03 4.08-12.8s-1.5-9.12-4.03-12.73c-2.56 3.62-4.06 8.03-4.06 12.8z" opacity=".5"/><circle cx="22.4" cy="34.97" fill="#5761f9" r="22.21"/><path d="m29.69 28.33c-1.38-.63-2.84-1.08-4.34-1.33-.2.37-.39.74-.56 1.13-1.6-.24-3.22-.24-4.81 0-.17-.39-.35-.76-.56-1.13-1.5.26-2.96.71-4.34 1.34-2.74 4.06-3.49 8.02-3.12 11.92 1.61 1.19 3.41 2.09 5.32 2.67.43-.58.81-1.19 1.14-1.84-.62-.23-1.22-.52-1.79-.86.15-.11.3-.22.44-.33 3.37 1.58 7.27 1.58 10.63 0 .14.12.29.23.44.33-.57.34-1.17.63-1.8.86.33.64.71 1.26 1.14 1.84 1.91-.58 3.71-1.48 5.32-2.67.44-4.53-.75-8.45-3.12-11.93zm-10.79 9.53c-1.04 0-1.89-.94-1.89-2.1s.83-2.11 1.89-2.11 1.91.95 1.89 2.11-.83 2.1-1.89 2.1zm6.98 0c-1.04 0-1.89-.94-1.89-2.1s.83-2.11 1.89-2.11 1.91.95 1.89 2.11-.83 2.1-1.89 2.1z" fill="#fff"/></svg>