<svg width="490" height="215" viewBox="0 0 490 215" fill="none" xmlns="http://www.w3.org/2000/svg">
<g clip-path="url(#clip0_961_82775)">
<g clip-path="url(#clip1_961_82775)">
<mask id="mask0_961_82775" style="mask-type:luminance" maskUnits="userSpaceOnUse" x="54" y="-229" width="339" height="269">
<path d="M392.126 -152.131L105.246 -229L53.9999 -37.7467L340.88 39.1226L392.126 -152.131Z" fill="white"/>
</mask>
<g mask="url(#mask0_961_82775)">
<path d="M313.358 31.748L81.6295 -30.3435C74.3105 -32.3046 69.9269 -39.8973 71.888 -47.2162L101.649 -158.286C103.61 -165.605 111.203 -169.989 118.522 -168.028L350.25 -105.937C357.569 -103.975 361.953 -96.3825 359.992 -89.0635L330.231 22.0065C328.27 29.3255 320.677 33.7091 313.358 31.748Z" fill="url(#paint0_linear_961_82775)"/>
<g opacity="0.32">
<path d="M331.84 15.6741L73.4726 -53.5551L75.2051 -60.0208L333.572 9.20846L331.84 15.6741Z" fill="#7F005B"/>
</g>
<path d="M203.143 -18.6844L197.972 0.611805" stroke="white" stroke-width="0.275556" stroke-miterlimit="10"/>
<path d="M215 -15.5073L209.83 3.78892" stroke="white" stroke-width="0.275556" stroke-miterlimit="10"/>
<path d="M226.857 -12.3301L221.687 6.96607" stroke="white" stroke-width="0.275556" stroke-miterlimit="10"/>
<path d="M238.715 -9.15291L233.544 10.1433" stroke="white" stroke-width="0.275556" stroke-miterlimit="10"/>
<path d="M250.572 -5.97584L245.402 13.3203" stroke="white" stroke-width="0.275556" stroke-miterlimit="10"/>
<path d="M262.43 -2.79865L257.259 16.4975" stroke="white" stroke-width="0.275556" stroke-miterlimit="10"/>
<path d="M274.285 0.378468L269.115 19.6747" stroke="white" stroke-width="0.275556" stroke-miterlimit="10"/>
<path d="M286.143 3.55562L280.972 22.8518" stroke="white" stroke-width="0.275556" stroke-miterlimit="10"/>
<path d="M298 6.73282L292.83 26.029" stroke="white" stroke-width="0.275556" stroke-miterlimit="10"/>
<path d="M309.857 9.90989L304.687 29.2061" stroke="white" stroke-width="0.275556" stroke-miterlimit="10"/>
<path d="M321.715 13.0871L316.544 32.3833" stroke="white" stroke-width="0.275556" stroke-miterlimit="10"/>
<path d="M278.224 -46.5497C278.224 -46.5497 263.35 -50.5354 248.475 -54.5209C242.878 -56.0207 238.522 -55.2604 235.266 -53.7284C230.96 -51.7024 227.833 -47.7967 226.601 -43.2003L218.31 -12.2577C215.956 -3.47347 221.169 5.5556 229.953 7.90933L277.088 20.5389C285.872 22.8926 294.901 17.6797 297.255 8.89541L305.549 -22.0596C306.729 -26.4622 306.094 -31.1972 303.622 -35.0258C301.606 -38.1471 298.157 -41.2088 292.262 -42.7883C277.388 -46.7739 262.513 -50.7595 262.513 -50.7595" fill="#698EFF"/>
<path d="M218.863 -17.458C218.863 -17.458 233.927 -17.6368 236.627 -27.7142C239.327 -37.7917 242.566 -49.8805 242.566 -49.8805L251.786 -47.4101L248.744 -36.0585C248.744 -36.0585 248.248 -32.2401 251.443 -31.384C254.639 -30.5278 267.295 -27.1366 267.295 -27.1366L256.106 16.2125L229.27 9.02185C229.27 9.02185 210.096 5.13179 218.863 -17.458Z" fill="white"/>
<path d="M297.869 3.7117C297.869 3.7117 284.913 -3.97514 287.613 -14.0526C290.313 -24.1301 293.552 -36.2189 293.552 -36.2189L284.333 -38.6893L281.291 -27.3377C281.291 -27.3377 279.811 -23.7828 276.616 -24.639C273.421 -25.4951 260.765 -28.8862 260.765 -28.8862L248.78 14.2495L275.616 21.4401C275.616 21.4401 294.166 27.6583 297.869 3.7117Z" fill="white"/>
<path d="M332.25 14.584C332.25 14.584 205.083 -19.4904 182.322 -25.589C159.562 -31.6876 152.02 -12.9589 152.02 -12.9589L151.595 -11.376C151.595 -11.376 286.683 24.8207 309.444 30.9193C315.498 32.5415 317.878 32.8926 321.015 31.7589C329.308 28.7618 330.231 22.1197 330.231 22.1197L332.25 14.584Z" fill="#443995"/>
<path d="M290.704 -43.9191C289.596 -43.6516 289.73 -42.5894 289.73 -42.5894C289.73 -42.5894 288.686 -40.9636 286.586 -40.3916C284.486 -39.8196 278.411 -38.2206 274.804 -33.2692C271.197 -28.3177 262.732 -16.6978 262.732 -16.6978C262.732 -16.6978 260.966 -14.1103 264.641 -11.4219C265.853 -10.5346 267.293 -9.48147 268.654 -8.48588C268.654 -8.48588 270.92 -6.82766 273.461 -4.96834C274.822 -3.97274 276.262 -2.91977 277.474 -2.03252C281.149 0.655914 283.07 -1.81812 283.07 -1.81812C283.07 -1.81812 291.535 -13.4381 295.142 -18.3895C298.749 -23.3409 298.418 -29.6268 298.321 -31.8057C298.225 -33.9846 299.452 -35.4763 299.452 -35.4763C299.452 -35.4763 300.502 -35.6718 300.419 -36.8111" fill="#AAD7F4"/>
<path d="M241.203 -32.2072C241.203 -32.2072 244.456 -32.0181 248.189 -31.6453C251.923 -31.2726 261.017 -28.339 261.069 -18.5436C261.12 -8.74834 253.025 -4.84682 243.247 -5.08926C231.733 -5.37455 210.16 -13.9973 206.776 -27.0456C199.917 -53.4922 233.977 -52.5736 233.977 -52.5736L234.89 -33.1449" fill="#698EFF"/>
<path d="M286.963 -19.946C286.963 -19.946 284.051 -21.4089 280.631 -22.9528C277.212 -24.4966 267.869 -26.5033 262.927 -18.046C257.985 -9.58876 263.044 -2.16235 271.633 2.51654C281.748 8.02685 304.742 11.3455 314.196 1.73733C333.36 -17.7367 303.404 -33.9708 303.404 -33.9708L292.898 -17.6019" fill="#698EFF"/>
<path d="M246.815 11.7614L260.282 15.3701C273.44 18.8956 286.982 13.5044 294.422 2.9427L223.463 -16.0706C224.625 -3.20421 233.657 8.23586 246.815 11.7614Z" fill="#D11583"/>
<path d="M223.658 -23.3608C223.305 -20.9093 223.246 -18.4652 223.463 -16.0707L294.422 2.94266C295.806 0.977206 296.978 -1.16876 297.898 -3.46839L223.658 -23.3608Z" fill="white"/>
</g>
</g>
<g clip-path="url(#clip2_961_82775)">
<mask id="mask1_961_82775" style="mask-type:luminance" maskUnits="userSpaceOnUse" x="280" y="22" width="339" height="269">
<path d="M618.126 98.8693L331.246 22L280 213.253L566.88 290.123L618.126 98.8693Z" fill="white"/>
</mask>
<g mask="url(#mask1_961_82775)">
<path d="M576.276 144.752L471.754 116.745L459.857 113.558L344.548 82.6606C337.229 80.6995 329.636 85.0834 327.675 92.4023L305.636 174.65L304.563 178.657L297.913 203.472C295.952 210.791 300.336 218.384 307.655 220.345L372.49 237.718L412.276 248.378C414.046 249.009 415.806 249.582 417.538 250.105C417.554 250.11 417.57 250.115 417.586 250.119L417.736 250.158L446.477 257.542L539.383 282.437C540.339 282.693 541.299 282.838 542.25 282.885C548.589 283.201 554.551 279.059 556.256 272.695L564.371 242.411L570.465 219.67L586.018 161.625C587.979 154.306 583.595 146.713 576.276 144.752Z" fill="url(#paint1_linear_961_82775)"/>
<path d="M498.357 271.306C498.357 271.306 498.347 256.201 496.419 247.364C494.884 240.553 491.901 234.348 486.256 232.173C471.587 226.521 454.788 246.811 454.788 246.811C454.788 246.811 456.39 233.123 441.228 228.027C427.954 223.566 414.224 236.286 414.224 236.286C414.224 236.286 412.512 221.845 396.263 216.382C376.953 209.889 364.487 235.3 364.487 235.3C364.487 235.3 401.072 244.385 412.276 248.378L446.477 257.542L475.474 264.993L498.357 271.306Z" fill="#57F287"/>
<path d="M487.058 123.58C487.058 123.58 480.171 126.276 483.538 129.45C486.906 132.623 495.306 130.332 495.306 130.332C495.306 130.332 497.938 141.095 519.243 135.448C519.243 135.448 510.961 139.718 513.695 148.886C516.43 158.055 526.625 157.542 526.625 157.542C526.625 157.542 505.239 163.492 507.541 180.331C509.842 197.17 527.087 193.356 527.087 193.356C527.087 193.356 519.042 201.582 525.691 213.097C531.462 223.094 559.648 225.158 570.464 219.67L586.017 161.625C587.979 154.306 583.595 146.713 576.276 144.752L471.754 116.745C473.491 120.433 477.554 124.611 487.058 123.58Z" fill="#13844B"/>
<path d="M357.926 233.774C357.926 233.774 376.64 220.709 375.549 212.071C374.843 206.483 367.077 211.524 367.077 211.524C367.077 211.524 378.101 199.69 373.589 196.236C369.078 192.781 362.504 206.097 362.504 206.097C362.504 206.097 364.033 198.046 359.533 198.444C352.607 199.055 347.879 231.082 347.879 231.082L357.926 233.774Z" fill="#57F287"/>
<path d="M537.817 240.391C533.023 242.097 529.104 244.159 525.905 246.336C514.621 254.014 512.315 263.125 512.315 263.125C512.315 263.125 510.216 256.021 505.156 251.345C503.311 249.641 501.077 248.256 498.403 247.66C497.72 247.508 497.06 247.415 496.42 247.364C487.677 246.67 482.947 254.804 482.947 254.804C482.947 254.804 479.123 246.331 473.181 247.448C467.24 248.564 466.25 253.941 466.25 253.941C466.25 253.941 463.394 249.288 457.827 251.684C452.98 253.771 455.261 259.576 455.261 259.576L475.475 264.993L542.251 282.885C548.589 283.201 554.552 279.059 556.257 272.695L564.372 242.411C559.261 239.018 550.487 235.882 537.817 240.391Z" fill="#29CC7A"/>
<path d="M327.675 92.4023L305.636 174.65C312.036 179.787 321.932 183.836 332.24 186.224C337.952 187.459 347.161 187.95 352.44 180.379C357.333 173.362 352.724 167.242 349.15 163.968L353.79 165.211C353.79 165.211 370.366 171.714 380.017 160.612C390.976 148.007 383.426 132.684 383.426 132.684C383.426 132.684 388.711 138.558 399.197 131.422C409.683 124.286 404.942 109.983 404.942 109.983C404.942 109.983 416.727 122.849 431.069 123.363C443.197 123.798 445.163 112.187 445.163 112.187C445.163 112.187 451.236 118.958 456.402 117.599C458.819 116.963 459.654 115.225 459.857 113.558L344.548 82.6606C337.229 80.6995 329.636 85.0834 327.675 92.4023Z" fill="#13844B"/>
<path d="M383.719 228.909C380.681 224.119 376.299 222.428 371.987 222.197C369.47 222.062 366.977 222.423 364.788 222.957C360.604 223.978 357.53 225.626 357.53 225.626C357.53 225.626 362.701 211.414 355.456 203.407C354.775 202.654 353.987 201.955 353.073 201.33C341.567 193.456 328.766 203.217 328.766 203.217C328.766 203.217 332.058 194.599 332.24 186.224C332.366 180.463 331.02 174.817 326.117 172.172C317.833 167.703 309.822 171.717 305.637 174.65L304.563 178.657L297.914 203.472C295.953 210.791 300.337 218.384 307.655 220.345L372.49 237.718L412.277 248.378C401.073 244.385 389.594 238.171 383.719 228.909Z" fill="#29CC7A"/>
<path d="M373.42 156.895C373.42 156.895 419.246 186.733 432.557 118.537" stroke="#13844B" stroke-width="8" stroke-miterlimit="10"/>
<path d="M406.585 161.68C406.585 161.68 401.732 164.113 401.495 168.483C401.257 172.853 402.256 175.221 402.256 175.221C402.256 175.221 406.105 173.918 407.607 169.187C409.108 164.456 406.585 161.68 406.585 161.68Z" fill="#13844B"/>
<path d="M403.748 162.085C403.748 162.085 399.945 162.501 398.583 165.357C397.222 168.214 397.212 170.042 397.212 170.042C397.212 170.042 400.056 170.131 402.333 167.348C404.609 164.565 403.748 162.085 403.748 162.085Z" fill="#13844B"/>
<path d="M503.406 193.715C503.406 193.715 500.065 202.304 495.953 206.173C494.139 207.88 491.904 209.002 489.501 209.607C486.677 210.318 483.64 210.16 481.805 212.812C480.126 215.238 480.191 218.331 481.092 221.039C483.338 227.791 490.949 231.135 500.562 226.771C510.175 222.408 518.642 207.644 518.658 197.455C518.67 190.221 513.998 186.772 511.197 187.006C504.997 187.525 503.406 193.715 503.406 193.715Z" fill="#4E5AE8"/>
<path d="M482.279 219.973L377.356 191.859L379.094 185.375L484.017 213.489L482.279 219.973Z" fill="#332A26"/>
<path d="M387.123 199.037L471.151 221.552L463.996 241.465L453.302 248.787L386.501 230.888L382.16 219.719L387.123 199.037Z" fill="#96593E"/>
<path d="M387.695 206.928L399.085 209.98" stroke="#B2755D" stroke-width="2.595" stroke-linecap="round" stroke-linejoin="round"/>
<path d="M387.217 230.54L378.158 228.113L380.008 197.856L388.515 200.135L387.217 230.54Z" fill="#BC973B"/>
<path d="M385.548 230.093L376.489 227.666L377.512 197.187L386.846 199.688L385.548 230.093Z" fill="#E0B848"/>
<path d="M478.704 226.323L378.045 199.351C376.403 198.911 375.897 197.407 375.809 195.754L375.768 191.497C376.18 189.958 377.861 189.06 379.503 189.5L482.368 217.062C484.01 217.502 485.016 219.121 484.603 220.659L482.439 224.325C481.265 225.786 480.346 226.763 478.704 226.323Z" fill="#FFD85A"/>
<path d="M477.59 210.744L383.446 185.518L391.217 164.123L403.084 156.345L477.927 176.4L482.904 188.494L477.59 210.744Z" fill="#96593E"/>
<path d="M478.972 198.765L461.734 194.147" stroke="#B2755D" stroke-width="2.595" stroke-linecap="round" stroke-linejoin="round"/>
<path d="M428.783 179.214L411.545 174.595" stroke="#B2755D" stroke-width="2.595" stroke-linecap="round" stroke-linejoin="round"/>
<path d="M452.096 185.79L463.485 188.842" stroke="#B2755D" stroke-width="2.595" stroke-linecap="round" stroke-linejoin="round"/>
<path d="M389.373 176.077L400.762 179.129" stroke="#B2755D" stroke-width="2.595" stroke-linecap="round" stroke-linejoin="round"/>
<path d="M446.078 171.311L462.393 175.682" stroke="#B2755D" stroke-width="2.595" stroke-linecap="round" stroke-linejoin="round"/>
<path d="M398.58 159.573L414.895 163.945" stroke="#B2755D" stroke-width="2.595" stroke-linecap="round" stroke-linejoin="round"/>
<path d="M387.704 183.846L390.905 184.704C390.905 184.704 389.997 179.947 395.439 167.137C398.125 160.815 403.176 156.743 403.176 156.743L404.899 156.715C404.899 156.715 404.55 155.273 403.728 154.685C402.905 154.097 399.709 154.589 395.585 160.836C391.46 167.084 387.704 183.846 387.704 183.846Z" fill="#BC973B"/>
<path d="M388.701 184.236C388.701 184.236 389.396 177.07 392.845 168.313C395.38 161.879 400.44 155.52 402.865 154.699C402.865 154.699 397.034 153.137 392.152 154.893C390.577 155.459 382.976 164.443 380.21 182.083L388.701 184.236Z" fill="#E0B848"/>
<path d="M477.284 207.849L474.083 206.991C474.083 206.991 477.247 203.326 478.939 189.512C479.774 182.693 477.436 176.641 477.436 176.641L475.958 175.755C475.958 175.755 476.981 174.681 477.987 174.583C478.994 174.485 481.515 176.509 481.964 183.982C482.412 191.454 477.284 207.849 477.284 207.849Z" fill="#BC973B"/>
<path d="M476.225 207.688C476.225 207.688 479.206 201.134 480.597 191.826C481.619 184.987 480.417 176.95 478.727 175.026C478.727 175.026 484.558 176.589 487.908 180.55C488.989 181.828 491.079 193.409 484.655 210.069L476.225 207.688Z" fill="#E0B848"/>
<path d="M482.919 215.926L379.598 188.241C378.082 187.835 377.173 186.262 377.58 184.745L378.433 181.56C378.839 180.044 380.413 179.136 381.929 179.542L485.25 207.227C486.766 207.633 487.675 209.206 487.268 210.723L486.415 213.908C486.009 215.424 484.435 216.332 482.919 215.926Z" fill="#FFD85A"/>
<path d="M438.157 198.185L430.591 196.158C429.074 195.751 428.166 194.178 428.572 192.662L435.796 165.701C436.203 164.185 437.776 163.276 439.292 163.683L446.858 165.71C448.375 166.116 449.283 167.689 448.877 169.206L441.653 196.166C441.246 197.683 439.673 198.591 438.157 198.185Z" fill="#E0B848"/>
<path d="M449.7 208.401C447.163 217.866 437.585 223.524 428.306 221.038C419.027 218.552 413.561 208.863 416.097 199.397C418.633 189.931 428.212 184.274 437.491 186.76C446.77 189.246 452.236 198.935 449.7 208.401Z" fill="#BC973B"/>
<path d="M448.154 207.987C445.896 216.413 437.236 221.413 428.809 219.155C420.383 216.898 415.383 208.237 417.641 199.811C419.898 191.385 428.559 186.384 436.985 188.642C445.412 190.9 450.412 199.561 448.154 207.987Z" fill="#FFD85A"/>
<path d="M420.833 210.11C420.867 209.305 420.989 208.49 421.207 207.678C422.767 201.856 428.647 198.372 434.34 199.898C440.033 201.423 443.383 207.38 441.823 213.202C441.633 213.912 441.378 214.588 441.068 215.224L436.344 214.086C436.519 213.713 436.664 213.319 436.775 212.904C437.686 209.506 435.951 206.09 432.9 205.272C429.849 204.455 426.638 206.546 425.727 209.944C425.6 210.417 425.525 210.892 425.497 211.36L420.833 210.11Z" fill="#AFAFAF"/>
<path d="M442.64 215.295C442.56 216.38 442.375 217.484 442.079 218.589C439.957 226.508 434.422 231.905 426.343 229.74C418.548 227.652 416.169 220.134 418.291 212.215C418.55 211.249 418.882 210.326 419.278 209.454L442.64 215.295Z" fill="#635D5A"/>
<path d="M432.92 219.133C432.435 220.945 430.573 222.02 428.761 221.535C426.949 221.05 425.874 219.187 426.359 217.375C426.845 215.564 428.707 214.488 430.519 214.974C432.331 215.459 433.406 217.322 432.92 219.133Z" fill="black"/>
<path d="M432.004 208.26C430.171 207.769 429.074 205.868 429.565 204.036L431.053 198.483C431.544 196.651 433.444 195.553 435.277 196.044C437.109 196.535 438.207 198.436 437.716 200.269L436.228 205.821C435.737 207.654 433.836 208.751 432.004 208.26Z" fill="#BC973B"/>
<path d="M508.011 185.762C508.011 185.762 492.382 204.724 495.14 223.961C497.148 237.963 522.864 246.839 535.433 246.211C550.967 245.436 554.782 229.952 555.849 214.591C556.916 199.23 553.726 189.642 553.726 189.642C553.726 189.642 511.727 179.48 508.011 185.762Z" fill="#698EFF"/>
<path d="M494.7 175.551L498.975 176.144C504.184 176.867 509.121 172.955 509.947 167.45L511.397 157.79C512.223 152.285 508.638 147.189 503.429 146.467L499.154 145.873C493.945 145.151 489.008 149.063 488.182 154.568L486.732 164.228C485.906 169.733 489.492 174.829 494.7 175.551Z" fill="#698EFF"/>
<path d="M554.829 196.238C544.819 195.341 518.033 191.611 509.493 189.346C500.999 187.093 492.791 178.143 494.691 167.557L498.078 151.178C500.76 135.637 508.702 132.515 521.975 133.42C536.152 134.388 561.237 138.632 565.894 139.523C578.668 141.967 583.583 151.227 581.683 161.813L578.667 180.66C576.569 192.347 567.312 197.357 554.829 196.238Z" fill="#698EFF"/>
<mask id="mask2_961_82775" style="mask-type:luminance" maskUnits="userSpaceOnUse" x="280" y="22" width="339" height="269">
<path d="M331.246 22L618.126 98.8693L566.88 290.123L280 213.253L331.246 22Z" fill="white"/>
</mask>
<g mask="url(#mask2_961_82775)">
<path d="M391.211 113.716L384.295 111.863C384.117 111.815 383.928 111.903 383.861 112.068L382.934 114.209C382.846 114.404 382.96 114.641 383.181 114.7L384.449 115.04C384.581 115.075 384.625 115.225 384.551 115.321C384.302 115.633 384.074 115.996 383.907 116.399L382.11 120.547C380.915 123.329 383.003 125.427 385.705 126.151C388.529 126.908 391.697 126.205 392.889 123.435L394.686 119.287C395.842 116.565 393.831 114.487 391.211 113.716ZM391.373 118.412L389.602 122.462C389.19 123.42 387.91 123.571 386.839 123.284C385.846 123.018 384.999 122.297 385.375 121.422L387.172 117.274C387.569 116.37 388.855 116.197 389.926 116.484C390.997 116.771 391.782 117.5 391.373 118.412Z" fill="white"/>
<path d="M352.833 103.434L350.252 102.743C350.076 102.696 349.886 102.783 349.818 102.948L347.551 108.233L347.549 108.243L347.013 110.374C347.002 110.417 346.958 110.45 346.91 110.449L346.857 107.69L346.859 107.68L345.958 101.821C345.938 101.677 345.83 101.558 345.685 101.519L343.07 100.818C342.894 100.771 342.705 100.859 342.638 101.024L337.65 112.665C337.559 112.87 337.688 113.102 337.896 113.158L340.5 113.855C340.676 113.902 340.867 113.815 340.934 113.65L342.906 109.021L342.909 109.009L343.536 106.536L343.62 106.535L343.716 109.307L343.713 109.317L344.57 114.727C344.59 114.871 344.7 114.991 344.844 115.03L347.668 115.787C347.844 115.834 348.032 115.747 348.1 115.581L353.088 103.94C353.179 103.735 353.053 103.493 352.833 103.434Z" fill="white"/>
<path d="M358.48 104.946L355.876 104.248C355.701 104.201 355.51 104.289 355.443 104.454L350.459 116.085C350.369 116.29 350.497 116.522 350.706 116.578L353.308 117.275C353.484 117.322 353.674 117.236 353.741 117.07L358.727 105.439C358.815 105.244 358.701 105.005 358.48 104.946Z" fill="white"/>
<path d="M370.692 108.218L360.951 105.608C360.773 105.56 360.585 105.648 360.517 105.813L359.57 107.984C359.479 108.189 359.596 108.416 359.816 108.475L362.541 109.205C362.762 109.264 362.879 109.491 362.788 109.696L359.086 118.397C358.995 118.602 359.123 118.833 359.332 118.889L361.967 119.595C362.145 119.643 362.333 119.556 362.401 119.39L366.189 110.504C366.256 110.339 366.447 110.252 366.622 110.299L369.546 111.082C369.724 111.13 369.912 111.042 369.98 110.877L370.927 108.707C371.036 108.518 370.912 108.277 370.692 108.218Z" fill="white"/>
<path d="M378.139 110.215L373.187 108.888C373.009 108.841 372.821 108.929 372.753 109.094L367.768 120.725C367.677 120.93 367.806 121.159 368.015 121.215L370.652 121.922C370.829 121.97 371.018 121.883 371.085 121.717L372.56 118.242C372.595 118.159 372.688 118.115 372.776 118.139L373.117 118.23C373.184 118.248 373.231 118.296 373.25 118.358L374.74 122.857C374.78 122.971 374.872 123.065 375.005 123.101L378.27 123.976C378.557 124.053 378.82 123.779 378.715 123.509L377.053 119.125C377.009 119.021 377.077 118.9 377.188 118.884C379.091 118.532 380.29 117.983 381.224 115.775C382.403 112.875 380.853 110.942 378.139 110.215ZM377.845 114.926C377.559 115.642 376.766 116.222 375.74 115.947L374.207 115.536C373.987 115.477 373.872 115.24 373.96 115.045L374.887 112.904C374.955 112.739 375.143 112.651 375.321 112.699L376.965 113.139C377.936 113.399 378.151 114.182 377.845 114.926Z" fill="white"/>
<path d="M354.785 95.7465L356.661 96.2492C357.114 96.3705 357.483 96.537 357.754 96.7588C358.01 96.9533 358.198 97.2241 358.305 97.5281C358.39 97.8264 358.401 98.1383 358.312 98.4253C358.231 98.7253 358.077 98.9949 357.843 99.2074C357.595 99.4289 357.276 99.56 356.943 99.6094C356.571 99.6714 356.133 99.6324 355.648 99.5023L353.904 99.035L354.785 95.7465ZM355.863 98.6538C356.171 98.7364 356.423 98.724 356.629 98.6176C356.838 98.5012 356.984 98.3093 357.035 98.0708C357.104 97.8601 357.08 97.637 356.966 97.4449C356.86 97.267 356.661 97.1321 356.363 97.0522L355.778 96.8954L355.347 98.5032L355.866 98.6422L355.863 98.6538Z" fill="white"/>
<path d="M360.691 100.841C360.466 100.712 360.248 100.552 360.062 100.364L360.272 99.5813C360.422 99.7707 360.617 99.926 360.823 100.038C361.056 100.181 361.301 100.282 361.564 100.363C361.652 100.386 361.744 100.4 361.84 100.392C361.903 100.376 361.945 100.351 361.957 100.308C361.968 100.265 361.968 100.219 361.944 100.178C361.9 100.121 361.84 100.081 361.776 100.054L361.237 99.7707C360.926 99.6073 360.724 99.4378 360.615 99.2699C360.508 99.092 360.483 98.8793 360.546 98.6902C360.592 98.5194 360.704 98.3648 360.86 98.268C361.045 98.1558 361.249 98.0968 361.462 98.097C361.736 98.0904 362.012 98.1183 362.285 98.202C362.538 98.27 362.776 98.3568 363.001 98.4863C363.188 98.5827 363.354 98.707 363.506 98.8507L363.307 99.5899C363.167 99.4494 363.009 99.3377 362.845 99.2475C362.66 99.1412 362.456 99.0632 362.257 99.0099C361.958 98.93 361.791 98.9438 361.765 99.0399C361.754 99.083 361.763 99.1298 361.802 99.1633C361.871 99.2157 361.954 99.2629 362.036 99.308L362.498 99.5222C362.792 99.6579 363.01 99.8193 363.129 99.9899C363.249 100.16 363.272 100.385 363.203 100.642C363.129 100.921 362.916 101.139 362.636 101.213C362.34 101.306 361.952 101.295 361.478 101.168C361.205 101.084 360.939 100.977 360.691 100.841Z" fill="white"/>
<path d="M364.139 101.663C363.917 101.478 363.743 101.236 363.652 100.959C363.568 100.695 363.576 100.409 363.648 100.141C363.72 99.8724 363.854 99.6349 364.069 99.4508C364.286 99.2567 364.553 99.1434 364.85 99.0968C365.204 99.0532 365.567 99.0722 365.905 99.1737C366.391 99.3038 366.762 99.5061 367.027 99.7957L366.797 100.653C366.696 100.546 366.583 100.446 366.45 100.364C366.307 100.28 366.15 100.204 365.984 100.159C365.686 100.079 365.441 100.071 365.235 100.131C364.958 100.195 364.803 100.463 364.873 100.734C364.898 100.82 364.945 100.902 365.011 100.966C365.148 101.119 365.364 101.233 365.684 101.319C365.85 101.363 366.012 101.384 366.177 101.382C366.333 101.377 366.478 101.359 366.619 101.317L366.398 102.143C365.966 102.256 365.518 102.25 365.09 102.124C364.746 102.043 364.41 101.885 364.139 101.663Z" fill="white"/>
<path d="M367.57 102.581C367.336 102.392 367.164 102.151 367.073 101.874C366.99 101.61 366.985 101.323 367.057 101.054C367.129 100.786 367.264 100.547 367.478 100.363C367.693 100.179 367.962 100.057 368.256 100.02C368.95 99.9416 369.668 100.134 370.23 100.549C370.455 100.725 370.627 100.965 370.721 101.231C370.804 101.495 370.809 101.784 370.74 102.041C370.668 102.31 370.52 102.556 370.316 102.743C370.098 102.937 369.829 103.06 369.544 103.11C368.835 103.196 368.129 103.006 367.57 102.581ZM369.249 102.136C369.401 102.05 369.516 101.896 369.547 101.732C369.604 101.565 369.58 101.386 369.49 101.236C369.389 101.082 369.228 100.981 369.051 100.933C368.876 100.876 368.685 100.894 368.52 100.976C368.368 101.061 368.257 101.204 368.223 101.378C368.165 101.545 368.19 101.726 368.279 101.876C368.38 102.029 368.537 102.139 368.718 102.176C368.902 102.236 369.096 102.221 369.249 102.136Z" fill="white"/>
<path d="M373.979 101.518L373.706 102.537C373.585 102.413 373.432 102.327 373.263 102.293C373.01 102.225 372.793 102.245 372.608 102.357C372.435 102.472 372.294 102.687 372.208 103.008L371.978 103.865L370.798 103.549L371.533 100.806L372.692 101.116L372.459 101.985C372.612 101.681 372.772 101.472 372.957 101.36C373.142 101.248 373.363 101.216 373.569 101.282C373.724 101.324 373.866 101.408 373.979 101.518Z" fill="white"/>
<path d="M378.086 101.885L377.182 105.262L376.002 104.945L376.165 104.334C376.02 104.524 375.803 104.674 375.572 104.738C375.305 104.805 375.037 104.801 374.774 104.72C374.529 104.665 374.305 104.526 374.131 104.341C373.967 104.159 373.85 103.932 373.808 103.691C373.761 103.427 373.774 103.153 373.843 102.896C373.904 102.624 374.043 102.376 374.216 102.17C374.387 101.974 374.613 101.841 374.856 101.768C375.111 101.697 375.382 101.701 375.636 101.769C376.198 101.919 376.509 102.257 376.582 102.781L376.906 101.569L378.086 101.885ZM376.082 103.944C376.234 103.858 376.344 103.715 376.375 103.551C376.418 103.391 376.394 103.214 376.314 103.077C376.099 102.778 375.701 102.671 375.354 102.82C375.202 102.905 375.094 103.036 375.062 103.2C375.008 103.357 375.033 103.536 375.122 103.686C375.223 103.84 375.372 103.938 375.55 103.986C375.734 104.046 375.918 104.026 376.082 103.944Z" fill="white"/>
<path d="M350.659 93.7669C350.152 93.3663 349.592 93.0226 348.993 92.7465C348.864 92.8738 348.748 93.0026 348.639 93.1456C348.003 92.8722 347.317 92.6884 346.63 92.6073C346.607 92.4288 346.57 92.2592 346.523 92.0848C345.876 92.0269 345.22 92.0466 344.566 92.1468C342.992 93.4818 342.254 94.995 341.983 96.6225C342.527 97.2852 343.18 97.851 343.911 98.2992C344.15 98.1109 344.382 97.9083 344.583 97.6869C344.355 97.5228 344.133 97.3372 343.926 97.1431C344.004 97.1177 344.07 97.0893 344.148 97.064C345.376 98.0824 346.997 98.5167 348.582 98.252C348.625 98.3098 348.676 98.3822 348.734 98.4315C348.455 98.5059 348.181 98.5587 347.893 98.5739C347.957 98.8663 348.056 99.1577 348.169 99.4401C349.026 99.4175 349.875 99.254 350.677 98.952C351.344 97.1659 351.273 95.4468 350.659 93.7669ZM345.123 96.4194C344.692 96.3039 344.433 95.8204 344.556 95.3596C344.68 94.8988 345.129 94.5946 345.57 94.7128C346.011 94.8309 346.26 95.3117 346.134 95.7824C346.008 96.2532 345.564 96.5375 345.123 96.4194ZM348.036 97.1997C347.605 97.0842 347.357 96.6039 347.48 96.1431C347.604 95.6823 348.051 95.3776 348.492 95.4958C348.933 95.6139 349.184 96.0952 349.047 96.5628C348.92 97.0335 348.477 97.3179 348.036 97.1997Z" fill="white"/>
<path d="M359.527 97.9104C359.85 97.997 360.173 97.8368 360.249 97.5534C360.325 97.2699 360.125 96.9694 359.802 96.8828C359.479 96.7961 359.155 96.9564 359.079 97.2398C359.003 97.5232 359.203 97.8238 359.527 97.9104Z" fill="white"/>
<path d="M358.848 98.1088C359.182 98.36 359.613 98.4755 360.028 98.425L359.462 100.537L358.282 100.22L358.848 98.1088Z" fill="white"/>
</g>
</g>
</g>
<g clip-path="url(#clip3_961_82775)">
<mask id="mask3_961_82775" style="mask-type:luminance" maskUnits="userSpaceOnUse" x="328" y="-156" width="339" height="269">
<path d="M666.126 -79.1307L379.246 -156L328 35.2533L614.88 112.123L666.126 -79.1307Z" fill="white"/>
</mask>
<g mask="url(#mask3_961_82775)">
<path d="M392.409 -94.8212C385.09 -96.7823 377.497 -92.3983 375.536 -85.0794L345.775 25.9907C343.814 33.3096 348.197 40.9026 355.516 42.8637L587.245 104.955C594.564 106.916 602.157 102.532 604.118 95.2135L633.879 -15.8566C635.84 -23.1755 631.456 -30.7686 624.137 -32.7297L392.409 -94.8212Z" fill="url(#paint2_linear_961_82775)"/>
<g opacity="0.25">
<path d="M588.448 105.215C528.673 89.1986 430.797 63.1665 430.797 63.1665C430.797 63.1665 444.008 53.1194 461.351 53.8218C478.694 54.5244 470.34 62.8049 470.34 62.8049C470.34 62.8049 514.025 42.0767 534.172 47.0368C554.319 51.9972 553.916 69.8588 553.916 69.8588C553.916 69.8588 581.199 59.6376 598.855 72.2581C603.214 75.3733 606.065 78.6964 607.695 81.8064L603.763 96.382C603.763 96.382 603.345 97.7322 602.202 99.358C600.09 102.365 595.591 106.459 588.448 105.215Z" fill="white"/>
<path d="M404.239 6.51844L520.571 37.6896C521.619 37.9704 522.62 37.0788 522.44 36.0089C522.128 34.1663 521.035 31.2715 517.639 27.7597C513.91 23.9029 510.498 23.3061 508.463 23.4007C507.546 23.4437 506.806 22.6852 506.885 21.7702C507.097 19.3074 506.674 15.0049 502.202 11.4308C498.488 8.46304 495.49 8.65739 493.557 9.41847C492.554 9.81376 491.476 9.02716 491.532 7.95042C491.786 3.11746 490.653 -5.9957 479.088 -8.47923C462.019 -12.1446 453.407 -1.41889 451.244 1.81539C450.891 2.34211 450.246 2.58509 449.632 2.42771C443.877 0.951421 416.109 -5.50321 403.701 3.89311C402.717 4.63829 403.046 6.19892 404.239 6.51844Z" fill="white"/>
<path d="M368.082 36.1567L398.944 44.4262C399.277 44.5152 399.592 44.2459 399.561 43.9033C399.472 42.9305 399.033 41.1787 397.09 40.2946C395.845 39.7284 394.973 39.5227 394.39 39.4682C394.028 39.4345 393.83 39.027 394.025 38.7208C394.834 37.4574 395.736 35.1299 392.181 34.2795C387.599 33.1835 383.538 35.1609 382.045 36.0326C381.77 36.1932 381.418 36.0539 381.33 35.7475C381.075 34.8546 380.207 33.3341 377.262 32.9049C374.125 32.448 369.955 34.2628 367.988 35.2432C367.583 35.4451 367.645 36.0395 368.082 36.1567Z" fill="white"/>
</g>
<path d="M546.439 -60.7446C546.439 -60.7446 532.598 -71.2512 526.933 -67.4307C521.268 -63.61 526.177 -58.8008 526.177 -58.8008C496.12 -63.0979 494.08 -44.4611 494.08 -44.4611C480.637 -45.9115 477.822 -35.3475 477.822 -35.3475C477.198 -35.6528 474.25 -35.6947 472.152 -32.8013C470.055 -29.9081 470.492 -26.752 470.492 -26.752C470.492 -26.752 596.542 21.8626 600.793 22.1607C605.042 22.4586 609.19 21.5213 610.053 17.1234C610.915 12.7255 608.063 9.42535 607.211 8.21176C606.359 6.99828 606.595 5.73791 606.595 5.73791C614.291 -19.4925 592.392 -22.9455 592.392 -22.9455C593.515 -40.0497 573.218 -47.2524 573.218 -47.2524C573.218 -47.2524 582.231 -51.8573 574.185 -60.2965C572.963 -61.5777 571.474 -62.4797 569.825 -63.0892C560.612 -66.4939 546.439 -60.7446 546.439 -60.7446Z" fill="url(#paint3_linear_961_82775)"/>
<path d="M481.988 68.3488C482.178 68.5168 508.642 75.5361 518.841 78.2368C529.024 80.9974 555.452 88.1506 555.7 88.0999C571.545 84.8576 580.354 73.4914 585.709 62.4628L468.818 31.142C467.941 43.3704 469.888 57.6187 481.988 68.3488Z" fill="#EB459F"/>
<path d="M611.624 23.6149C611.699 21.1653 609.014 20.8822 609.014 20.8822L541.944 2.91083L536.495 1.45065L469.425 -16.5207C469.425 -16.5207 466.958 -17.6179 465.799 -15.4589C464.639 -13.2999 466.293 -12.4206 467.682 -10.0143C469.071 -7.60817 474.267 1.19327 471.494 14.2519C470.535 18.77 469.282 24.6733 468.818 31.1416L585.709 62.4624C588.541 56.6287 590.408 50.8898 591.836 46.4974C595.964 33.8019 604.865 28.7777 607.271 27.3886C609.677 25.9993 611.549 26.0645 611.624 23.6149Z" fill="#D11583"/>
<path d="M589.801 96.3569C589.726 94.6431 588.223 94.5974 588.223 94.5974L532.67 79.7121L531.762 79.4688L450.351 57.6548C450.351 57.6548 449.027 56.943 448.105 58.3894C447.182 59.8358 448.917 61.0135 451.488 62.0593C454.06 63.1046 462.678 67.1962 469.351 70.2319C476.024 73.2675 479.748 75.3351 480.916 76.6287L518.746 86.7651L540.295 92.539L552.266 95.7467C553.925 95.2106 558.183 95.282 565.48 95.9895C572.776 96.6969 582.286 97.4626 585.036 97.8432C587.786 98.2233 589.877 98.0706 589.801 96.3569Z" fill="#423D80"/>
<path d="M464.747 -6.45796C455.176 -2.84783 451.89 10.8028 449.931 19.5085C449.085 23.2716 447.811 31.1622 449.009 37.8469C452.197 55.6345 472.297 58.7143 482.034 59.0114C485.435 59.1152 487.629 58.6763 487.84 55.4006C487.996 52.9821 486.156 51.5868 481.824 50.9185C478.838 50.4575 465.746 47.0716 462.222 41.138C458.698 35.2041 459.572 24.9607 461.372 18.7073C463.172 12.4539 465.752 3.29128 473.608 1.90364C481.464 0.516001 488.702 3.50284 492.15 4.69071C495.849 5.9656 498.102 6.07467 498.975 3.82543C500.121 0.871242 498.351 -0.67249 494.809 -2.26972C487.169 -5.71439 473.569 -9.78548 464.747 -6.45796Z" fill="#FF78B9"/>
<path d="M464.747 -6.45796C455.176 -2.84783 451.89 10.8028 449.931 19.5085C449.085 23.2716 447.811 31.1622 449.009 37.8469C452.197 55.6345 472.297 58.7143 482.034 59.0114C485.435 59.1152 487.629 58.6763 487.84 55.4006C487.996 52.9821 486.156 51.5868 481.824 50.9185C478.838 50.4575 465.746 47.0716 462.222 41.138C458.698 35.2041 459.572 24.9607 461.372 18.7073C463.172 12.4539 465.752 3.29128 473.608 1.90364C481.464 0.516001 488.702 3.50284 492.15 4.69071C495.849 5.9656 498.102 6.07467 498.975 3.82543C500.121 0.871242 498.351 -0.67249 494.809 -2.26972C487.169 -5.71439 473.569 -9.78548 464.747 -6.45796Z" fill="#FF78B9"/>
<path d="M460.83 0.438992L462.341 0.797964C462.536 0.84407 462.738 0.786238 462.878 0.642578C463.354 0.15181 464.577 -1.02505 466.181 -1.95105L467.74 -2.85098C468.215 -3.12571 468.065 -3.84796 467.519 -3.90877C467.06 -3.95972 466.519 -3.96426 465.938 -3.8582C464.459 -3.58817 462.243 -2.27297 460.545 -0.501491C460.244 -0.186926 460.407 0.338449 460.83 0.438992Z" fill="#EEFCFF"/>
</g>
</g>
<g clip-path="url(#clip4_961_82775)">
<mask id="mask4_961_82775" style="mask-type:luminance" maskUnits="userSpaceOnUse" x="-41" y="124" width="339" height="269">
<path d="M297.126 200.869L10.2461 124L-41.0001 315.253L245.88 392.123L297.126 200.869Z" fill="white"/>
</mask>
<g mask="url(#mask4_961_82775)">
<path d="M23.4086 185.179C16.0897 183.218 8.49696 187.602 6.53585 194.921L-23.2253 305.991C-25.1864 313.31 -20.8028 320.903 -13.4839 322.864L218.245 384.955C225.564 386.916 233.157 382.532 235.118 375.213L264.879 264.143C266.84 256.824 262.456 249.231 255.137 247.27L23.4086 185.179Z" fill="url(#paint4_linear_961_82775)"/>
<path d="M182.753 209.965L187.166 212.488C187.754 212.824 187.964 213.516 187.633 214.026L187.524 214.194C187.193 214.705 186.441 214.847 185.853 214.511L181.44 211.988C180.852 211.652 180.642 210.959 180.972 210.449L181.082 210.281C181.413 209.771 182.165 209.629 182.753 209.965Z" fill="#6CC780"/>
<path d="M177.439 219.255C177.439 219.255 163.598 208.749 157.933 212.569C152.268 216.39 157.177 221.199 157.177 221.199C127.12 216.902 125.08 235.539 125.08 235.539C111.637 234.089 108.822 244.653 108.822 244.653C108.198 244.347 105.25 244.305 103.152 247.199C101.055 250.092 101.492 253.248 101.492 253.248C101.492 253.248 227.542 301.863 231.793 302.161C236.042 302.459 240.19 301.521 241.053 297.123C241.915 292.726 239.063 289.425 238.211 288.212C237.359 286.998 237.595 285.738 237.595 285.738C245.291 260.507 223.392 257.054 223.392 257.054C224.515 239.95 204.218 232.748 204.218 232.748C204.218 232.748 213.231 228.143 205.185 219.704C203.963 218.422 202.474 217.52 200.825 216.911C191.612 213.506 177.439 219.255 177.439 219.255Z" fill="url(#paint5_linear_961_82775)"/>
<path d="M184.475 221.897C184.824 221.918 189.114 222.956 194.314 222.208C199.515 221.46 202.029 220.354 202.934 221.636C203.839 222.919 196.647 225.128 192.321 224.476C187.996 223.824 184.475 221.897 184.475 221.897Z" fill="#D69847"/>
<path d="M153.105 220.603C153.105 220.603 151.294 224.44 155.082 227.005C158.869 229.571 166.782 229.274 170.382 224.158C173.982 219.041 160.669 213.502 160.669 213.502L155.809 220.786L153.105 220.603Z" fill="#F0AA4B"/>
<path d="M167.14 210.645L171.231 213.405C171.776 213.772 171.9 214.511 171.508 215.047L171.379 215.224C170.986 215.76 170.22 215.897 169.675 215.53L165.584 212.77C165.04 212.402 164.915 211.663 165.307 211.127L165.436 210.951C165.828 210.415 166.596 210.277 167.14 210.645Z" fill="#E180B8"/>
<mask id="mask5_961_82775" style="mask-type:luminance" maskUnits="userSpaceOnUse" x="-41" y="124" width="339" height="269">
<path d="M10.2461 124L297.126 200.869L245.88 392.123L-41.0001 315.253L10.2461 124Z" fill="white"/>
</mask>
<g mask="url(#mask5_961_82775)">
<path d="M70.2114 215.716L63.2946 213.863C63.1172 213.815 62.9284 213.903 62.8611 214.068L61.9339 216.209C61.8461 216.404 61.9604 216.641 62.1808 216.7L63.4488 217.04C63.5814 217.075 63.6247 217.225 63.5511 217.321C63.3023 217.633 63.0735 217.996 62.9069 218.399L61.1097 222.547C59.9149 225.329 62.0033 227.427 64.705 228.151C67.5295 228.908 70.6969 228.205 71.8886 225.435L73.6858 221.287C74.8417 218.565 72.8312 216.487 70.2114 215.716ZM70.3726 220.412L68.6016 224.462C68.1905 225.42 66.91 225.571 65.8393 225.284C64.8464 225.018 63.9986 224.297 64.375 223.422L66.1722 219.274C66.5691 218.37 67.8553 218.197 68.9261 218.484C69.9969 218.771 70.7821 219.5 70.3726 220.412Z" fill="white"/>
<path d="M31.8327 205.434L29.2519 204.743C29.0762 204.696 28.8857 204.783 28.8185 204.948L26.5513 210.233L26.5486 210.243L26.0133 212.374C26.0018 212.417 25.9575 212.45 25.9096 212.449L25.8566 209.69L25.8592 209.68L24.958 203.821C24.9379 203.677 24.8296 203.558 24.6854 203.519L22.0698 202.818C21.8941 202.771 21.7053 202.859 21.638 203.024L16.6499 214.665C16.5595 214.87 16.6875 215.102 16.8964 215.158L19.5004 215.855C19.6761 215.902 19.8665 215.815 19.9338 215.65L21.906 211.021L21.9091 211.009L22.5364 208.536L22.6201 208.535L22.7158 211.307L22.7132 211.317L23.5695 216.727C23.5896 216.871 23.6995 216.991 23.8437 217.03L26.6682 217.787C26.8439 217.834 27.0322 217.747 27.1 217.581L32.0881 205.94C32.1785 205.735 32.0531 205.493 31.8327 205.434Z" fill="white"/>
<path d="M37.4804 206.946L34.8765 206.248C34.7008 206.201 34.5103 206.289 34.443 206.454L29.4592 218.085C29.3688 218.29 29.4968 218.522 29.7057 218.578L32.308 219.275C32.4837 219.322 32.6737 219.236 32.7415 219.07L37.7269 207.439C37.8147 207.244 37.7009 207.005 37.4804 206.946Z" fill="white"/>
<path d="M49.692 210.218L39.9507 207.608C39.7733 207.56 39.5845 207.648 39.5172 207.813L38.5696 209.984C38.4791 210.189 38.596 210.416 38.8165 210.475L41.5414 211.205C41.7619 211.264 41.8788 211.491 41.7883 211.696L38.0855 220.397C37.9951 220.602 38.1232 220.833 38.332 220.889L40.9675 221.595C41.1448 221.643 41.3332 221.556 41.4009 221.39L45.1888 212.504C45.2561 212.339 45.4466 212.252 45.6223 212.299L48.5462 213.082C48.7235 213.13 48.9123 213.042 48.9796 212.877L49.9268 210.707C50.0362 210.518 49.9124 210.277 49.692 210.218Z" fill="white"/>
<path d="M57.1394 212.215L52.1867 210.888C52.0094 210.841 51.8206 210.929 51.7533 211.094L46.7678 222.725C46.6774 222.93 46.8059 223.159 47.0147 223.215L49.6519 223.922C49.8292 223.97 50.0176 223.883 50.0853 223.717L51.5598 220.242C51.5945 220.159 51.6881 220.115 51.7759 220.139L52.1174 220.23C52.1837 220.248 52.2312 220.296 52.2501 220.358L53.7395 224.857C53.7801 224.971 53.8721 225.065 54.0047 225.101L57.2701 225.976C57.5568 226.053 57.8203 225.779 57.715 225.509L56.0526 221.125C56.0094 221.021 56.0771 220.9 56.1881 220.884C58.0909 220.532 59.2898 219.983 60.2244 217.775C61.4029 214.875 59.8528 212.942 57.1394 212.215ZM56.8454 216.926C56.5595 217.642 55.7663 218.222 54.7403 217.947L53.2071 217.536C52.9866 217.477 52.8724 217.24 52.9602 217.045L53.8874 214.904C53.9547 214.739 54.1435 214.651 54.3208 214.699L55.9651 215.139C56.9364 215.399 57.1514 216.182 56.8454 216.926Z" fill="white"/>
<path d="M33.7852 197.747L35.6615 198.249C36.114 198.371 36.4833 198.537 36.7543 198.759C37.0095 198.953 37.1981 199.224 37.305 199.528C37.3903 199.826 37.4008 200.138 37.3115 200.425C37.2311 200.725 37.0772 200.995 36.8426 201.207C36.5949 201.429 36.2755 201.56 35.9425 201.609C35.5706 201.671 35.1334 201.632 34.6477 201.502L32.904 201.035L33.7852 197.747ZM34.8626 200.654C35.1709 200.736 35.423 200.724 35.6291 200.618C35.838 200.501 35.9836 200.309 36.035 200.071C36.1039 199.86 36.0802 199.637 35.9665 199.445C35.8596 199.267 35.6612 199.132 35.3628 199.052L34.7777 198.895L34.3469 200.503L34.8657 200.642L34.8626 200.654Z" fill="white"/>
<path d="M39.6911 202.841C39.4664 202.712 39.2481 202.552 39.0623 202.364L39.2719 201.581C39.4219 201.771 39.6166 201.926 39.8228 202.038C40.0564 202.181 40.3012 202.282 40.5637 202.363C40.6516 202.386 40.7437 202.4 40.84 202.392C40.9032 202.376 40.9452 202.351 40.9567 202.308C40.9683 202.265 40.9682 202.219 40.9435 202.178C40.9004 202.121 40.8398 202.081 40.7762 202.054L40.2373 201.771C39.9258 201.607 39.7243 201.438 39.6147 201.27C39.5078 201.092 39.4831 200.879 39.5462 200.69C39.592 200.519 39.7045 200.365 39.8601 200.268C40.0447 200.156 40.2488 200.097 40.462 200.097C40.7356 200.09 41.0123 200.118 41.2848 200.202C41.5384 200.27 41.7763 200.357 42.001 200.486C42.1883 200.583 42.354 200.707 42.5056 200.851L42.3075 201.59C42.1675 201.449 42.0091 201.338 41.845 201.247C41.6603 201.141 41.4555 201.063 41.2566 201.01C40.9583 200.93 40.7911 200.944 40.7654 201.04C40.7538 201.083 40.7626 201.13 40.8016 201.163C40.871 201.216 40.9543 201.263 41.0364 201.308L41.4978 201.522C41.7918 201.658 42.0097 201.819 42.1293 201.99C42.2488 202.16 42.272 202.385 42.2032 202.642C42.1286 202.921 41.9155 203.139 41.6362 203.213C41.3395 203.306 40.9518 203.295 40.4777 203.168C40.2053 203.084 39.939 202.977 39.6911 202.841Z" fill="white"/>
<path d="M43.1387 203.664C42.9166 203.478 42.7433 203.236 42.6523 202.959C42.5685 202.695 42.5758 202.409 42.6477 202.141C42.7197 201.872 42.8544 201.635 43.0689 201.451C43.2861 201.257 43.5528 201.143 43.8495 201.097C44.2041 201.053 44.5667 201.072 44.9055 201.174C45.3911 201.304 45.7615 201.506 46.0268 201.796L45.7972 202.653C45.6962 202.546 45.5826 202.446 45.4499 202.364C45.3073 202.28 45.15 202.204 44.9842 202.159C44.6859 202.079 44.4413 202.071 44.235 202.131C43.9584 202.195 43.8032 202.463 43.8728 202.734C43.8975 202.82 43.9448 202.902 44.0112 202.966C44.1481 203.119 44.3643 203.233 44.6842 203.319C44.8499 203.363 45.0115 203.384 45.1772 203.382C45.333 203.377 45.4781 203.359 45.6191 203.317L45.3979 204.143C44.966 204.256 44.5182 204.25 44.09 204.124C43.7458 204.043 43.4097 203.885 43.1387 203.664Z" fill="white"/>
<path d="M46.5698 204.581C46.3361 204.392 46.1645 204.151 46.0734 203.874C45.9896 203.61 45.9849 203.323 46.0568 203.054C46.1288 202.786 46.2639 202.547 46.4785 202.363C46.693 202.179 46.9619 202.057 47.2559 202.02C47.9503 201.942 48.668 202.134 49.2301 202.549C49.4548 202.725 49.6268 202.965 49.7206 203.231C49.8044 203.495 49.8087 203.784 49.7398 204.041C49.6679 204.31 49.5201 204.556 49.3155 204.743C49.0983 204.937 48.829 205.06 48.5439 205.11C47.8352 205.196 47.1291 205.006 46.5698 204.581ZM48.2489 204.136C48.4014 204.05 48.5156 203.896 48.5471 203.732C48.6044 203.565 48.5795 203.386 48.4901 203.236C48.389 203.082 48.228 202.981 48.0506 202.933C47.8759 202.876 47.6846 202.894 47.5204 202.976C47.3679 203.061 47.2568 203.204 47.2227 203.378C47.1654 203.545 47.1898 203.726 47.2793 203.876C47.3803 204.029 47.5375 204.139 47.7175 204.176C47.9021 204.236 48.0964 204.221 48.2489 204.136Z" fill="white"/>
<path d="M52.9788 203.518L52.7057 204.537C52.5846 204.413 52.4316 204.327 52.2631 204.293C52.0095 204.225 51.7928 204.245 51.6081 204.357C51.4351 204.472 51.2941 204.687 51.208 205.008L50.9784 205.865L49.7982 205.549L50.5332 202.806L51.6919 203.116L51.4591 203.985C51.6116 203.681 51.7725 203.472 51.9571 203.36C52.1417 203.248 52.3633 203.216 52.5694 203.282C52.7236 203.324 52.8662 203.408 52.9788 203.518Z" fill="white"/>
<path d="M57.0864 203.885L56.1817 207.262L55.0016 206.945L55.1654 206.334C55.0203 206.524 54.8026 206.674 54.5722 206.738C54.3055 206.805 54.0366 206.801 53.7741 206.72C53.5294 206.665 53.3053 206.526 53.1311 206.341C52.9669 206.159 52.85 205.932 52.8078 205.691C52.7615 205.427 52.7744 205.153 52.8432 204.896C52.9036 204.624 53.043 204.376 53.2155 204.17C53.387 203.974 53.6127 203.841 53.8562 203.768C54.1113 203.697 54.3822 203.701 54.6358 203.769C55.1977 203.919 55.5088 204.257 55.5816 204.781L55.9063 203.569L57.0864 203.885ZM55.0817 205.944C55.2342 205.858 55.3436 205.715 55.3751 205.551C55.4182 205.391 55.3945 205.214 55.314 205.077C55.0992 204.778 54.7014 204.671 54.3543 204.82C54.2017 204.905 54.0938 205.036 54.0623 205.2C54.0076 205.357 54.0325 205.536 54.122 205.686C54.223 205.84 54.3725 205.938 54.5498 205.986C54.7345 206.046 54.9176 206.026 55.0817 205.944Z" fill="white"/>
<path d="M29.6592 195.767C29.1518 195.366 28.5919 195.023 27.9926 194.747C27.8643 194.874 27.7481 195.003 27.6387 195.146C27.0031 194.872 26.3169 194.688 25.6298 194.607C25.6066 194.429 25.5703 194.259 25.5229 194.085C24.8758 194.027 24.2203 194.047 23.5663 194.147C21.9916 195.482 21.254 196.995 20.9831 198.623C21.5268 199.285 22.18 199.851 22.9109 200.299C23.1496 200.111 23.3816 199.908 23.583 199.687C23.3552 199.523 23.1331 199.337 22.9257 199.143C23.0036 199.118 23.0698 199.089 23.1477 199.064C24.376 200.082 25.997 200.517 27.5816 200.252C27.6247 200.31 27.6764 200.382 27.7342 200.432C27.4549 200.506 27.1814 200.559 26.8931 200.574C26.9568 200.866 27.0564 201.158 27.169 201.44C28.0261 201.418 28.8746 201.254 29.6768 200.952C30.3438 199.166 30.2732 197.447 29.6592 195.767ZM24.1234 198.419C23.6924 198.304 23.4329 197.82 23.5564 197.36C23.6798 196.899 24.1291 196.595 24.57 196.713C25.0109 196.831 25.2605 197.312 25.1343 197.782C25.0082 198.253 24.5643 198.538 24.1234 198.419ZM27.0357 199.2C26.6047 199.084 26.3568 198.604 26.4803 198.143C26.6037 197.682 27.0513 197.378 27.4922 197.496C27.9331 197.614 28.1844 198.095 28.0466 198.563C27.9205 199.034 27.4766 199.318 27.0357 199.2Z" fill="white"/>
<path d="M38.5265 199.91C38.8498 199.997 39.1734 199.837 39.2493 199.553C39.3253 199.27 39.1251 198.969 38.8019 198.883C38.4787 198.796 38.1551 198.956 38.0791 199.24C38.0032 199.523 38.2033 199.824 38.5265 199.91Z" fill="white"/>
<path d="M37.8477 200.109C38.1818 200.36 38.6128 200.475 39.0278 200.425L38.462 202.537L37.2818 202.221L37.8477 200.109Z" fill="white"/>
</g>
</g>
</g>
<g clip-path="url(#clip5_961_82775)">
<mask id="mask6_961_82775" style="mask-type:luminance" maskUnits="userSpaceOnUse" x="6" y="-52" width="339" height="269">
<path d="M344.126 24.8693L57.2461 -52L5.99992 139.253L292.88 216.123L344.126 24.8693Z" fill="white"/>
</mask>
<g mask="url(#mask6_961_82775)">
<path d="M70.7212 9.57367C63.4022 7.61257 55.8095 11.9965 53.8484 19.3155L24.0872 130.386C22.1261 137.704 26.5097 145.297 33.8286 147.259L265.557 209.35C272.876 211.311 280.469 206.927 282.43 199.608L312.191 88.5383C314.152 81.2193 309.769 73.6263 302.45 71.6651L70.7212 9.57367Z" fill="url(#paint6_linear_961_82775)"/>
<g opacity="0.2">
<path d="M110.614 68.6974L146.127 78.2131C146.37 78.2782 146.625 78.1533 146.719 77.9198C147.212 76.6889 148.267 72.6992 144.439 66.9328C140.466 60.9473 129.058 60.0551 123.697 66.9734C123.553 67.1589 123.299 67.2162 123.088 67.1143C121.497 66.348 115.045 63.6544 110.413 67.8407C110.118 68.1078 110.23 68.5944 110.614 68.6974Z" fill="white"/>
</g>
<g opacity="0.2">
<path d="M33.3432 147.049L265.071 209.141C272.391 211.102 279.983 206.718 281.945 199.399L290.413 167.793C251.354 156.924 222.996 186.299 222.996 186.299C222.996 186.299 209.085 140.992 169.481 129.879C129.877 118.766 112.681 136.2 112.681 136.2C112.681 136.2 91.3351 79.3824 73.6744 68.6387C56.0137 57.895 40.2291 68.1938 40.2291 68.1938L23.435 130.87C21.9203 137.969 26.2554 145.15 33.3432 147.049Z" fill="white"/>
</g>
<path d="M23.8563 131.235C23.8563 131.235 24.7977 123.422 32.7601 122.978C39.7967 122.586 43.3317 128.427 43.3317 128.427C43.3317 128.427 45.1979 112.936 57.4824 110.782C72.3356 108.178 81.7848 119.598 77.0013 136.78C77.0013 136.78 89.5928 134.796 98.2678 145.031C105.043 153.024 101.922 162.484 100.196 164.866" stroke="#3B47D9" stroke-width="0.41085" stroke-miterlimit="10"/>
<path d="M122.497 95.6268C122.384 96.3925 121.839 100.861 124.281 101.93C121.631 101.63 119.868 105.781 119.585 106.496C119.695 105.734 120.243 101.259 117.8 100.193C120.448 100.489 122.211 96.3461 122.497 95.6268Z" fill="#4EADF4"/>
<path d="M297.01 112.226C296.926 112.793 296.522 116.106 298.332 116.898C296.368 116.676 295.061 119.752 294.851 120.282C294.933 119.718 295.339 116.4 293.528 115.61C295.491 115.83 296.798 112.759 297.01 112.226Z" fill="#D3E3EF"/>
<path d="M93.5064 57.9709C93.3493 59.033 92.5933 65.2332 95.9808 66.7155C92.305 66.3004 89.8592 72.0583 89.4659 73.0506C89.6192 71.994 90.38 65.7846 86.9894 64.3062C90.6642 64.7163 93.1093 58.9687 93.5064 57.9709Z" fill="#97FFBA"/>
<path d="M256.507 147.461C254.438 155.184 246.499 159.767 238.777 157.698C231.054 155.628 226.471 147.69 228.54 139.967C230.61 132.245 238.548 127.662 246.27 129.731C253.993 131.8 258.576 139.738 256.507 147.461Z" fill="#57F287"/>
<path d="M247.625 137.551C245.57 145.221 237.685 149.773 230.014 147.718C222.344 145.663 217.791 137.778 219.847 130.108C221.902 122.437 229.787 117.885 237.457 119.94C245.128 121.996 249.68 129.88 247.625 137.551Z" fill="#57F287"/>
<path d="M227.382 136.552C225.445 143.781 218.015 148.071 210.786 146.134C203.557 144.197 199.267 136.767 201.204 129.537C203.141 122.308 210.571 118.018 217.8 119.955C225.029 121.892 229.32 129.323 227.382 136.552Z" fill="#57F287"/>
<path d="M256.89 195.512L176.944 174.091L160.646 123.979L164.74 118.442L244.588 139.297L260.963 189.613L256.89 195.512Z" fill="black"/>
<path d="M160.718 124.252L167.324 114.323L247.655 135.848L240.775 145.683L160.718 124.252Z" fill="#EA449E"/>
<path d="M240.746 136.64C242.494 137.109 244.251 136.404 245.045 135.034L237.826 133.1C237.829 134.683 238.998 136.172 240.746 136.64Z" fill="#E5AAD8"/>
<path d="M226.276 137.728C223.643 137.023 220.996 137.943 219.582 139.843L231.016 142.906C230.741 140.554 228.908 138.434 226.276 137.728Z" fill="#E5AAD8"/>
<path d="M215.734 129.939C217.483 130.407 219.24 129.702 220.033 128.333L212.814 126.398C212.817 127.981 213.986 129.47 215.734 129.939Z" fill="#E5AAD8"/>
<path d="M185.762 121.908C187.51 122.376 189.267 121.671 190.06 120.301L182.842 118.367C182.844 119.95 184.013 121.439 185.762 121.908Z" fill="#E5AAD8"/>
<path d="M172.502 123.379C169.87 122.674 167.348 123.568 165.934 125.468L177.368 128.531C177.094 126.179 175.134 124.085 172.502 123.379Z" fill="#E5AAD8"/>
<path d="M208.474 125.181L192.386 120.87L185.725 130.669L201.812 134.98L208.474 125.181Z" fill="#56F186"/>
<path d="M256.765 195.658L240.746 145.463L247.506 135.563L263.564 185.948L256.765 195.658Z" fill="#D01482"/>
<path d="M246.629 153.89C245.908 151.919 243.793 150.665 242.594 150.867L245.113 158.77C246.226 157.983 247.289 155.691 246.629 153.89Z" fill="#E5AAD8"/>
<path d="M255.036 182.568C254.564 181.086 252.988 180.272 251.867 180.184L253.919 186.62C254.979 186.007 255.508 184.049 255.036 182.568Z" fill="#E5AAD8"/>
<path d="M255.553 171.643C256.103 173.562 258.528 175.329 259.957 174.795L257.443 166.602C255.645 167.241 255.004 169.723 255.553 171.643Z" fill="#E5AAD8"/>
<path d="M256.589 164.01L253.713 154.886L246.863 164.419L249.819 173.803L256.589 164.01Z" fill="#28CB79"/>
<path d="M162.383 124.572L240.766 145.562L255.963 193.129" stroke="#8E286F" stroke-width="1.155" stroke-linecap="round" stroke-linejoin="round"/>
<path d="M284.306 142.978L134.548 103.854L138.733 87.7796L182.159 92.1947L290.54 121.116L284.306 142.978Z" fill="black"/>
<path d="M188.599 90.6408C182.164 92.3069 168.044 117.529 167.023 124.438C166.002 131.347 172.207 110.826 181.463 129.692" stroke="#688DFF" stroke-width="26.4008" stroke-linecap="round"/>
<path d="M233.666 84.9955L203.917 77.0243C198.32 75.5244 193.963 76.285 190.707 77.817C186.401 79.8429 183.274 83.7486 182.042 88.345L173.751 119.288C171.398 128.072 176.61 137.101 185.395 139.455L232.529 152.084C241.313 154.438 250.342 149.225 252.696 140.441L260.991 109.486C262.17 105.083 261.536 100.348 259.063 96.5196C257.047 93.3984 253.598 90.3364 247.704 88.7569L217.955 80.7857" fill="#698EFF"/>
<path d="M260.868 105.321C258.583 111.305 241.061 110.171 221.732 102.787C202.403 95.4035 188.587 84.5667 190.873 78.5827C193.159 72.5988 210.681 73.7334 230.01 81.117C249.339 88.5008 263.154 99.3375 260.868 105.321Z" fill="#4B67EC"/>
<path d="M178.065 56.8086L182.802 59.0394C188.575 61.7572 195.521 59.2574 198.239 53.4849L203.008 43.3557C205.726 37.5835 203.227 30.6362 197.454 27.9185L192.717 25.6887C186.944 22.9706 179.998 25.4697 177.28 31.2422L172.511 41.3718C169.793 47.1443 172.292 54.0909 178.065 56.8086Z" fill="#698EFF"/>
<path d="M181.338 48.8056L186.904 51.4265C187.885 51.8883 189.066 51.4633 189.528 50.4822L196.268 36.1674C196.731 35.1833 196.305 33.9989 195.321 33.5358L189.76 30.9175C187.459 29.8343 184.69 30.8304 183.607 33.1311L179.124 42.6527C178.041 44.9535 179.037 47.7225 181.338 48.8056Z" fill="#B7CDFF"/>
<path d="M280.14 100.474L275.315 98.4381C269.437 95.9578 266.657 89.1188 269.137 83.2404L273.49 72.9249C275.97 67.0464 282.809 64.2664 288.687 66.7467L293.512 68.7824C299.39 71.2626 302.17 78.1016 299.69 83.9801L295.337 94.2952C292.857 100.174 286.018 102.954 280.14 100.474Z" fill="#698EFF"/>
<path d="M283.909 92.6914L278.24 90.2997C277.241 89.8783 276.768 88.7157 277.19 87.7166L283.34 73.1391C283.763 72.1368 284.929 71.6628 285.931 72.0858L291.595 74.475C293.938 75.4635 295.046 78.19 294.057 80.5329L289.966 90.2292C288.977 92.5721 286.252 93.68 283.909 92.6914Z" fill="#B7CDFF"/>
<path d="M244.828 31.7214C244.828 31.7214 251.496 29.4686 254.302 28.5418C258.623 27.1153 265.789 27.6433 269.728 33.5484C273.07 38.5598 271.993 43.7094 265.47 46.5298C259.041 49.3101 256.235 47.9696 256.235 47.9696L228.443 36.7588L244.828 31.7214Z" fill="#55F186"/>
<path d="M253.743 39.8317C253.299 39.6536 252.934 39.2914 252.784 38.8178C252.525 38.0011 253 37.1622 253.845 36.9442C264.062 34.3078 269.533 25.3955 269.587 25.3059C270.021 24.5857 270.995 24.3602 271.767 24.8019C272.537 25.244 272.809 26.1863 272.375 26.9066C272.128 27.3154 266.209 36.9533 254.783 39.9013C254.429 39.9931 254.065 39.9607 253.743 39.8317Z" fill="#008C43"/>
<path d="M260.028 49.7444C260.028 49.7444 254.748 41.3869 250.404 27.1311C247.231 16.7168 245.276 10.9379 236.551 9.51511C229.305 8.33332 223.303 11.8097 223.692 21.233C224.135 31.9671 234.191 41.9353 234.191 41.9353L260.028 49.7444Z" fill="#25CB79"/>
<path d="M237.692 34.5418C237.351 34.4053 237.054 34.1595 236.864 33.8245C232.877 26.7935 233.302 19.4635 233.322 19.1548C233.377 18.3138 234.136 17.6991 235.018 17.7822C235.899 17.8648 236.57 18.6134 236.517 19.4537C236.513 19.5209 236.143 26.2311 239.665 32.4428C240.092 33.197 239.812 34.1178 239.038 34.4994C238.609 34.7115 238.117 34.7122 237.692 34.5418Z" fill="#008C43"/>
<path d="M245.587 105.273C234.088 101.238 203.662 88.9511 194.239 83.8288C184.867 78.7342 177.556 66.2225 182.51 54.9379L190.699 37.6127C197.846 21.0133 207.957 19.9203 223.276 24.952C239.638 30.3269 267.938 42.6745 273.166 45.0829C287.504 51.6869 290.877 63.5495 285.923 74.8341L277.532 95.0365C272.063 107.495 259.924 110.305 245.587 105.273Z" fill="#698EFF"/>
<path d="M253.953 86.4301C253.501 87.5896 252.177 89.683 248.405 90.4979C245.868 91.0459 243.618 90.2338 242.277 89.7278" stroke="#3C57D8" stroke-width="2.27701" stroke-linecap="round"/>
<path d="M264.607 71.8711C263.748 73.9978 261.328 75.0282 259.198 74.1681C257.07 73.3129 256.041 70.8893 256.899 68.7626C257.756 66.6311 260.179 65.6019 262.306 66.4607C264.436 67.3208 265.467 69.7408 264.607 71.8711ZM210.296 50.011C209.424 52.1735 206.963 53.2174 204.8 52.3457C202.638 51.4741 201.593 49.0165 202.466 46.8505C203.337 44.688 205.795 43.6428 207.961 44.5157C210.123 45.3874 211.167 47.8485 210.296 50.011Z" stroke="#070100" stroke-width="1.90027"/>
<path d="M264.606 71.8695C263.748 73.9986 261.326 75.0289 259.197 74.17C257.068 73.3111 256.038 70.8892 256.897 68.7601C257.755 66.6311 260.177 65.6013 262.306 66.4602C264.435 67.319 265.465 69.7405 264.606 71.8695Z" fill="#080201"/>
<path d="M210.295 50.0102C209.423 52.1727 206.962 53.2194 204.8 52.347C202.637 51.4745 201.591 49.0143 202.463 46.8518C203.336 44.6892 205.796 43.6425 207.958 44.515C210.121 45.3875 211.168 47.8476 210.295 50.0102Z" fill="#080201"/>
<path d="M234.085 82.1512L216.816 75.0633C210.325 72.3992 207.195 64.909 209.859 58.4183L213.855 48.6804C215.421 44.8659 219.824 43.0258 223.638 44.5916L248.975 54.9911C252.638 56.4942 254.404 60.7205 252.901 64.383L247.994 76.3367C245.768 81.761 239.509 84.3776 234.085 82.1512Z" fill="#B7CDFF"/>
<path d="M234.046 74.0093L229.993 72.3747C228.602 71.814 227.923 70.2176 228.484 68.827L228.527 68.7195C229.088 67.3293 230.684 66.6506 232.075 67.2113L236.128 68.8459C237.519 69.4066 238.197 71.003 237.637 72.3935L237.593 72.5011C237.032 73.8912 235.436 74.57 234.046 74.0093Z" fill="#698EFF"/>
<path d="M219.258 68.0458L215.205 66.4112C213.815 65.8504 213.136 64.254 213.697 62.8635L213.74 62.7559C214.301 61.3658 215.897 60.687 217.288 61.2478L221.341 62.8823C222.731 63.4431 223.41 65.0395 222.849 66.43L222.806 66.5376C222.245 67.9276 220.649 68.6065 219.258 68.0458Z" fill="#698EFF"/>
<path d="M232.078 200.142L117.051 169.321L138.779 88.2311L252.825 118.74L232.078 200.142Z" fill="#EB459F"/>
<path d="M267.198 209.491L231.1 199.819L252.828 118.729L290.839 121.227L267.198 209.491Z" fill="#D11583"/>
<path d="M203.007 130.524C198.432 129.298 193.729 132.014 192.503 136.589C191.277 141.164 193.992 145.867 198.567 147.093C203.143 148.319 207.846 145.604 209.072 141.029C210.298 136.453 207.583 131.75 203.007 130.524Z" fill="#E5AAD8"/>
<path d="M269.53 159.497C274.144 160.566 278.752 157.693 279.821 153.078C280.891 148.463 278.017 143.856 273.403 142.786C271.087 142.25 268.774 142.706 266.908 143.877L264.177 155.661C265.338 157.533 267.214 158.96 269.53 159.497Z" fill="#EA449E"/>
<path d="M159.909 116.312C154.199 114.782 148.33 118.17 146.8 123.88C145.27 129.59 148.659 135.459 154.368 136.989C160.078 138.519 165.947 135.13 167.477 129.42C169.007 123.711 165.619 117.842 159.909 116.312Z" fill="#E5AAD8"/>
<path d="M231.412 143.797C226.129 142.381 220.698 145.516 219.282 150.8C217.867 156.083 221.002 161.514 226.285 162.929C231.569 164.345 236.999 161.21 238.415 155.926C239.831 150.643 236.696 145.212 231.412 143.797Z" fill="#E5AAD8"/>
<path d="M205.687 112.34C209.424 113.341 213.245 111.713 215.188 108.59L199.334 104.342C199.456 108.018 201.95 111.338 205.687 112.34Z" fill="#E5AAD8"/>
<path d="M167.375 102.074C171.111 103.075 174.932 101.447 176.876 98.3239L161.021 94.0757C161.143 97.7519 163.638 101.073 167.375 102.074Z" fill="#E5AAD8"/>
<path d="M208.683 160.949C205.882 160.199 203.003 161.861 202.252 164.662C201.502 167.463 203.164 170.342 205.965 171.093C208.767 171.844 211.646 170.181 212.396 167.38C213.147 164.579 211.485 161.7 208.683 160.949Z" fill="#E5AAD8"/>
<path d="M173.15 140.809C170.349 140.058 167.47 141.721 166.719 144.522C165.969 147.323 167.631 150.202 170.432 150.953C173.233 151.703 176.113 150.041 176.863 147.24C177.614 144.439 175.951 141.559 173.15 140.809Z" fill="#E5AAD8"/>
<path d="M136.781 139.794C133.98 139.044 131.101 140.706 130.35 143.507C129.599 146.308 131.262 149.188 134.063 149.938C136.864 150.689 139.743 149.026 140.494 146.225C141.245 143.424 139.582 140.545 136.781 139.794Z" fill="#E5AAD8"/>
<path d="M247.347 166.329C244.546 165.578 241.667 167.241 240.916 170.042C240.166 172.843 241.828 175.722 244.629 176.473C247.431 177.223 250.31 175.561 251.06 172.76C251.811 169.959 250.149 167.079 247.347 166.329Z" fill="#EA449E"/>
<path d="M224.845 124.202C222.044 123.451 219.165 125.114 218.414 127.915C217.664 130.716 219.326 133.595 222.127 134.346C224.929 135.097 227.808 133.434 228.558 130.633C229.309 127.832 227.647 124.952 224.845 124.202Z" fill="#E5AAD8"/>
<path d="M151.781 99.1606C148.98 98.41 146.1 100.073 145.35 102.874C144.599 105.675 146.262 108.554 149.063 109.305C151.864 110.055 154.743 108.393 155.494 105.592C156.245 102.791 154.582 99.9112 151.781 99.1606Z" fill="#E5AAD8"/>
<path d="M265.582 127.602C262.781 126.852 259.901 128.514 259.151 131.316C258.4 134.116 260.062 136.996 262.864 137.746C265.665 138.497 268.544 136.835 269.295 134.034C270.045 131.232 268.383 128.353 265.582 127.602Z" fill="#EA449E"/>
<path d="M187.25 163.708C181.395 162.139 175.377 165.614 173.808 171.469C172.239 177.324 175.714 183.342 181.568 184.91C187.423 186.479 193.442 183.005 195.01 177.15C196.579 171.295 193.105 165.277 187.25 163.708Z" fill="#E5AAD8"/>
<path d="M268.556 180.572C263.981 179.346 259.278 182.061 258.052 186.636C256.826 191.212 259.541 195.915 264.116 197.141C266.412 197.756 268.74 197.378 270.644 196.272L273.775 184.588C272.679 182.678 270.852 181.187 268.556 180.572Z" fill="#EA449E"/>
<path d="M147.288 156.886C142.713 155.66 138.01 158.375 136.784 162.951C135.558 167.526 138.273 172.229 142.849 173.455C147.424 174.681 152.127 171.966 153.353 167.39C154.579 162.815 151.864 158.112 147.288 156.886Z" fill="#E5AAD8"/>
<path d="M223.844 177.126C220.324 176.183 216.706 178.272 215.763 181.792C214.82 185.312 216.909 188.93 220.429 189.873C223.949 190.816 227.567 188.727 228.51 185.207C229.453 181.687 227.364 178.069 223.844 177.126Z" fill="#E5AAD8"/>
<path d="M184.247 187.21L163.09 181.541L184.818 100.452L205.975 106.121L184.247 187.21Z" fill="#57F287"/>
<path d="M256.525 206.577L246.662 203.934L269.263 119.598L279.613 120.343L256.525 206.577Z" fill="#29CC7A"/>
<path d="M231.068 129.973C243.842 128.599 256.635 132.294 262.868 128.595C264.686 127.516 267.912 117.933 263.039 112.217" stroke="#688DFF" stroke-width="28.0508" stroke-linecap="round"/>
<mask id="mask7_961_82775" style="mask-type:luminance" maskUnits="userSpaceOnUse" x="9" y="-81" width="371" height="437">
<path d="M106.713 -80.4253L379.249 -7.3995L281.881 355.982L9.34516 282.956L106.713 -80.4253Z" fill="white"/>
</mask>
<g mask="url(#mask7_961_82775)">
<path d="M107.423 54.2256C107.835 55.5825 107.032 56.9788 105.63 57.3443C104.228 57.7099 102.758 56.9062 102.346 55.5493C101.935 54.1923 102.737 52.796 104.139 52.4305C105.541 52.065 107.011 52.8686 107.423 54.2256Z" fill="#5465FA"/>
<path d="M249.51 111.698C249.634 111.009 250.318 110.559 251.038 110.693L253.646 111.18C254.366 111.315 254.849 111.983 254.725 112.673C254.602 113.362 253.918 113.812 253.198 113.678L250.59 113.191C249.87 113.056 249.387 112.388 249.51 111.698Z" fill="#FF00A2"/>
<path d="M125.696 77.8518C126.29 78.3701 126.38 79.2084 125.897 79.7243L125.021 80.6584C124.537 81.1743 123.662 81.1723 123.068 80.654C122.473 80.1358 122.383 79.2974 122.867 78.7815L123.743 77.8474C124.227 77.3316 125.101 77.3335 125.696 77.8518Z" fill="#29CB79"/>
<path d="M262.792 113.139C262.892 112.446 263.56 111.974 264.284 112.086L265.594 112.288C266.318 112.4 266.823 113.053 266.723 113.747C266.623 114.441 265.955 114.912 265.232 114.8L263.921 114.598C263.198 114.486 262.692 113.833 262.792 113.139Z" fill="#29CC7A"/>
<path d="M139.938 111.42C139.78 112.102 139.074 112.52 138.361 112.354C137.647 112.187 137.197 111.498 137.354 110.816C137.512 110.133 138.218 109.715 138.931 109.882C139.644 110.049 140.095 110.737 139.938 111.42Z" fill="#5465FA"/>
<path d="M167.157 88.6196C168.577 88.3189 170.008 89.1879 170.352 90.5607C170.697 91.9334 169.826 93.29 168.406 93.5907C166.986 93.8915 165.555 93.0225 165.211 91.6497C164.866 90.277 165.737 88.9204 167.157 88.6196Z" fill="#FF00A2"/>
<path d="M301.832 112.667C300.557 111.953 300.102 110.393 300.817 109.183C301.531 107.973 303.143 107.57 304.418 108.285C305.692 108.999 306.147 110.559 305.433 111.769C304.719 112.979 303.107 113.382 301.832 112.667Z" fill="#29CC7A"/>
<path d="M82.5046 124.64L81.6215 123.674L82.615 122.839C83.1637 122.378 83.2131 121.572 82.7253 121.038C82.2376 120.505 81.3976 120.446 80.8488 120.907L79.8553 121.742L78.9722 120.776C78.4845 120.242 77.6444 120.184 77.0957 120.645C76.547 121.106 76.4975 121.913 76.9852 122.446L77.8683 123.412L76.8748 124.247C76.3261 124.709 76.2767 125.515 76.7644 126.048C77.2522 126.582 78.0922 126.641 78.6409 126.18L79.6345 125.344L80.5176 126.311C81.0053 126.844 81.8453 126.903 82.3941 126.441C82.9428 125.98 82.9923 125.174 82.5046 124.64Z" fill="#29CC7A"/>
<path d="M82.7096 121.252C84.163 122.842 84.0154 125.249 82.3803 126.623C80.7452 127.998 78.2375 127.823 76.7841 126.233C75.3307 124.643 75.4783 122.236 77.1134 120.862C78.7486 119.487 81.2562 119.662 82.7096 121.252Z" fill="#29CC7A"/>
<path d="M171.914 155.696L173.013 156.427L172.277 157.468C171.871 158.043 172.034 158.837 172.641 159.24C173.249 159.644 174.07 159.505 174.476 158.93L175.212 157.889L176.311 158.62C176.918 159.024 177.74 158.885 178.146 158.31C178.552 157.735 178.39 156.942 177.782 156.538L176.683 155.807L177.419 154.765C177.825 154.19 177.662 153.397 177.055 152.993C176.448 152.589 175.626 152.728 175.22 153.303L174.484 154.344L173.385 153.613C172.778 153.21 171.956 153.349 171.55 153.924C171.144 154.499 171.306 155.292 171.914 155.696Z" fill="#29CC7A"/>
<path d="M172.825 159.766C170.749 158.385 170.191 155.667 171.58 153.701C172.97 151.734 175.784 151.259 177.86 152.64C179.937 154.02 180.495 156.738 179.105 158.705C177.716 160.671 174.902 161.147 172.825 159.766Z" fill="#29CC7A"/>
<path d="M117.734 61.081L119.046 61.2656L118.884 62.5243C118.794 63.2196 119.309 63.8656 120.034 63.9676C120.759 64.0695 121.42 63.5888 121.51 62.8935L121.672 61.6348L122.985 61.8194C123.71 61.9213 124.37 61.4404 124.46 60.7451C124.55 60.0499 124.035 59.4037 123.31 59.3018L121.997 59.1172L122.159 57.8584C122.249 57.1632 121.734 56.5171 121.009 56.4151C120.284 56.3132 119.624 56.794 119.534 57.4892L119.371 58.748L118.059 58.5634C117.334 58.4614 116.673 58.9424 116.584 59.6376C116.494 60.3328 117.009 60.979 117.734 61.081Z" fill="#5364F9"/>
<path d="M120.134 64.8869C117.587 64.5287 115.775 62.2548 116.09 59.8122C116.405 57.3697 118.729 55.6774 121.277 56.0356C123.824 56.3937 125.636 58.6677 125.321 61.1103C125.006 63.5528 122.682 65.2451 120.134 64.8869Z" fill="#5364F9"/>
<path d="M219.397 86.8254C218.663 85.9215 219.07 84.4452 220.306 83.528C221.541 82.6109 223.138 82.6001 223.872 83.5041C224.605 84.408 224.198 85.8843 222.963 86.8015C221.727 87.7187 220.131 87.7294 219.397 86.8254Z" fill="#5465FA"/>
<path d="M275.968 80.0363L274.673 80.2683L274.403 79.0173C274.254 78.3264 273.553 77.8704 272.838 77.9985C272.122 78.1266 271.664 78.7903 271.813 79.4812L272.083 80.7321L270.789 80.9641C270.073 81.0922 269.615 81.756 269.764 82.4469C269.913 83.1378 270.614 83.594 271.329 83.4659L272.624 83.234L272.895 84.4849C273.044 85.1758 273.745 85.6319 274.46 85.5038C275.175 85.3757 275.634 84.7119 275.484 84.0211L275.214 82.7701L276.509 82.5382C277.224 82.4101 277.682 81.7462 277.533 81.0553C277.384 80.3645 276.683 79.9082 275.968 80.0363Z" fill="#5364F9"/>
<path d="M272.484 76.9316C275.017 76.4779 277.503 78.0963 278.032 80.5432C278.561 82.9902 276.933 85.3454 274.401 85.7991C271.868 86.2528 269.382 84.6344 268.853 82.1874C268.324 79.7404 269.951 77.3853 272.484 76.9316Z" fill="#5364F9"/>
<path d="M117.752 20.4914C119.194 20.7491 120.172 22.0779 119.936 23.4593C119.701 24.8408 118.341 25.7518 116.899 25.4941C115.457 25.2364 114.479 23.9076 114.714 22.5261C114.95 21.1447 116.31 20.2337 117.752 20.4914Z" fill="#FFC000"/>
<path d="M282.019 98.5772C281.513 97.2482 282.214 95.8006 283.584 95.3437C284.955 94.8869 286.477 95.5938 286.983 96.9228C287.489 98.2518 286.788 99.6995 285.417 100.156C284.046 100.613 282.525 99.9062 282.019 98.5772Z" fill="#5465FA"/>
<path d="M94.0353 115.676C93.3422 115.439 92.9676 114.711 93.1986 114.049L94.0349 111.654C94.2659 110.992 95.015 110.648 95.7081 110.886C96.4012 111.123 96.7758 111.851 96.5449 112.512L95.7085 114.908C95.4775 115.569 94.7284 115.913 94.0353 115.676Z" fill="#FFC000"/>
<path d="M250.941 163.61C250.85 162.949 251.365 162.351 252.089 162.275L254.712 162C255.436 161.924 256.097 162.399 256.187 163.06C256.277 163.721 255.763 164.318 255.038 164.394L252.415 164.669C251.691 164.745 251.031 164.271 250.941 163.61Z" fill="#FF00A2"/>
<path d="M150.299 94.0334C149.795 94.5309 148.958 94.532 148.429 94.0358L146.514 92.2389C145.985 91.7427 145.965 90.9372 146.469 90.4397C146.974 89.9422 147.811 89.9411 148.34 90.4373L150.254 92.2342C150.783 92.7304 150.803 93.5359 150.299 94.0334Z" fill="#FFC000"/>
<path d="M149.251 79.1874C149.891 78.8625 150.696 79.1041 151.048 79.7271L151.686 80.8551C152.039 81.4781 151.805 82.2466 151.165 82.5715C150.525 82.8965 149.721 82.6548 149.369 82.0318L148.731 80.9038C148.378 80.2808 148.612 79.5124 149.251 79.1874Z" fill="#5364F9"/>
<path d="M225.567 131.056C225.237 130.421 225.499 129.662 226.151 129.359L227.331 128.811C227.983 128.508 228.779 128.777 229.108 129.411C229.438 130.045 229.177 130.804 228.524 131.107L227.344 131.655C226.692 131.958 225.896 131.69 225.567 131.056Z" fill="#FFC000"/>
<path d="M304.656 128.764C305.382 128.852 305.911 129.488 305.835 130.185C305.76 130.882 305.11 131.376 304.384 131.288C303.657 131.2 303.129 130.564 303.204 129.867C303.279 129.169 303.929 128.676 304.656 128.764Z" fill="#FFC000"/>
<path d="M185.07 85.9994C184.469 84.3288 185.101 82.624 186.48 82.1915C187.86 81.759 189.466 82.7626 190.066 84.4332C190.667 86.1037 190.036 87.8085 188.656 88.241C187.276 88.6735 185.671 87.6699 185.07 85.9994Z" fill="#29CC7A"/>
<path d="M298.457 84.0968C298.145 82.7176 299.049 81.3811 300.476 81.1118C301.903 80.8425 303.314 81.7422 303.626 83.1215C303.938 84.5007 303.034 85.8371 301.607 86.1065C300.179 86.3758 298.769 85.4761 298.457 84.0968Z" fill="#FF77B9"/>
<path d="M111.973 113.505L111.42 114.648L110.218 114.09C109.555 113.781 108.769 114.043 108.463 114.675C108.158 115.306 108.448 116.068 109.111 116.376L110.312 116.934L109.759 118.078C109.453 118.709 109.743 119.471 110.407 119.779C111.07 120.087 111.856 119.825 112.162 119.194L112.715 118.051L113.917 118.609C114.58 118.917 115.366 118.656 115.672 118.024C115.977 117.393 115.687 116.631 115.024 116.323L113.822 115.764L114.376 114.621C114.682 113.99 114.392 113.228 113.728 112.92C113.065 112.611 112.279 112.873 111.973 113.505Z" fill="#FF00A2"/>
<path d="M108.416 114.615C109.331 112.725 111.686 111.94 113.672 112.863C115.658 113.786 116.527 116.069 115.612 117.959C114.697 119.849 112.342 120.634 110.356 119.711C108.37 118.788 107.501 116.505 108.416 114.615Z" fill="#FF00A2"/>
<path d="M225.21 117.725L226.106 118.68L225.133 119.521C224.596 119.985 224.562 120.789 225.057 121.316C225.552 121.843 226.389 121.895 226.926 121.43L227.899 120.589L228.795 121.544C229.29 122.071 230.127 122.122 230.664 121.658C231.202 121.194 231.236 120.39 230.741 119.862L229.844 118.908L230.817 118.067C231.355 117.602 231.389 116.799 230.894 116.271C230.399 115.744 229.562 115.693 229.025 116.157L228.052 116.998L227.155 116.043C226.66 115.516 225.824 115.465 225.286 115.929C224.749 116.394 224.715 117.198 225.21 117.725Z" fill="#5465FA"/>
<path d="M224.851 122.139C223.209 120.39 223.322 117.719 225.105 116.179C226.887 114.638 229.667 114.808 231.309 116.557C232.951 118.306 232.837 120.977 231.055 122.517C229.273 124.057 226.493 123.888 224.851 122.139Z" fill="#5465FA"/>
<path d="M259.72 104.491L258.48 104.151L258.816 102.928C259.002 102.253 258.597 101.553 257.912 101.365C257.227 101.178 256.521 101.573 256.336 102.248L256 103.471L254.759 103.131C254.074 102.943 253.369 103.339 253.183 104.014C252.998 104.689 253.402 105.389 254.087 105.577L255.328 105.917L254.992 107.14C254.806 107.815 255.211 108.515 255.896 108.703C256.581 108.891 257.286 108.495 257.472 107.82L257.808 106.597L259.048 106.937C259.733 107.125 260.439 106.73 260.624 106.054C260.81 105.379 260.405 104.679 259.72 104.491Z" fill="#FF00A2"/>
<path d="M257.609 101.042C259.813 101.647 261.118 103.902 260.521 106.076C259.923 108.249 257.649 109.523 255.445 108.919C253.241 108.314 251.936 106.059 252.533 103.886C253.13 101.712 255.405 100.438 257.609 101.042Z" fill="#FF00A2"/>
<path d="M279.274 145.762L278.649 146.87L277.483 146.243C276.839 145.897 276.038 146.113 275.692 146.724C275.347 147.336 275.589 148.112 276.232 148.458L277.398 149.084L276.773 150.192C276.428 150.803 276.67 151.579 277.313 151.925C277.957 152.271 278.759 152.056 279.104 151.445L279.73 150.337L280.895 150.964C281.539 151.31 282.341 151.094 282.686 150.483C283.031 149.871 282.79 149.095 282.146 148.749L280.98 148.123L281.605 147.015C281.951 146.404 281.709 145.628 281.065 145.282C280.421 144.936 279.619 145.151 279.274 145.762Z" fill="#FFBF00"/>
<path d="M275.251 146.49C276.437 144.39 279.194 143.65 281.404 144.838C283.613 146.026 284.445 148.694 283.26 150.794C282.074 152.893 279.318 153.633 277.108 152.445C274.898 151.258 274.066 148.589 275.251 146.49Z" fill="#FFBF00"/>
</g>
<mask id="mask8_961_82775" style="mask-type:luminance" maskUnits="userSpaceOnUse" x="6" y="-52" width="339" height="269">
<path d="M57.2461 -51.9999L344.126 24.8693L292.88 216.123L5.99992 139.253L57.2461 -51.9999Z" fill="white"/>
</mask>
<g mask="url(#mask8_961_82775)">
<path d="M117.211 39.7162L110.295 37.8629C110.117 37.8154 109.928 37.9033 109.861 38.0683L108.934 40.2093C108.846 40.4043 108.96 40.641 109.181 40.7L110.449 41.0398C110.581 41.0753 110.625 41.2255 110.551 41.3212C110.302 41.633 110.074 41.9963 109.907 42.3993L108.11 46.5474C106.915 49.3291 109.003 51.4271 111.705 52.1511C114.529 52.9079 117.697 52.2057 118.889 49.4356L120.686 45.2875C121.842 42.5647 119.831 40.4875 117.211 39.7162ZM117.373 44.4122L115.602 48.4625C115.19 49.42 113.91 49.5708 112.839 49.2839C111.846 49.0178 110.999 48.2968 111.375 47.4223L113.172 43.2742C113.569 42.3698 114.855 42.1974 115.926 42.4843C116.997 42.7712 117.782 43.5004 117.373 44.4122Z" fill="white"/>
<path d="M78.8327 29.4345L76.2519 28.743C76.0762 28.6959 75.8857 28.7834 75.8185 28.9484L73.5513 34.2337L73.5486 34.2436L73.0133 36.3741C73.0018 36.4172 72.9575 36.4498 72.9096 36.4494L72.8566 33.6904L72.8592 33.6805L71.958 27.8216C71.9379 27.6777 71.8296 27.558 71.6854 27.5194L69.0698 26.8186C68.8941 26.7715 68.7053 26.8595 68.638 27.0244L63.6499 38.6654C63.5595 38.8704 63.6875 39.1019 63.8964 39.1578L66.5004 39.8556C66.6761 39.9027 66.8665 39.8151 66.9338 39.6502L68.906 35.0213L68.9091 35.0097L69.5364 32.5361L69.6201 32.5354L69.7158 35.3076L69.7132 35.3176L70.5695 40.7274C70.5896 40.8713 70.6995 40.9914 70.8437 41.03L73.6682 41.7868C73.8439 41.8339 74.0322 41.7476 74.1 41.581L79.0881 29.94C79.1785 29.735 79.0531 29.4936 78.8327 29.4345Z" fill="white"/>
<path d="M84.4804 30.9464L81.8765 30.2487C81.7008 30.2016 81.5103 30.2891 81.443 30.4541L76.4592 42.0856C76.3688 42.2906 76.4968 42.5221 76.7057 42.578L79.308 43.2753C79.4837 43.3224 79.6737 43.2365 79.7415 43.0699L84.7269 31.4388C84.8147 31.2438 84.7009 31.0055 84.4804 30.9464Z" fill="white"/>
<path d="M96.692 34.2184L86.9507 31.6082C86.7733 31.5607 86.5845 31.6486 86.5172 31.8136L85.5696 33.9846C85.4791 34.1896 85.596 34.4163 85.8165 34.4754L88.5414 35.2055C88.7619 35.2646 88.8788 35.4913 88.7883 35.6963L85.0855 44.3969C84.9951 44.6018 85.1232 44.8333 85.332 44.8893L87.9675 45.5955C88.1448 45.643 88.3332 45.5567 88.4009 45.3901L92.1888 36.5044C92.2561 36.3394 92.4466 36.2519 92.6223 36.299L95.5462 37.0824C95.7235 37.13 95.9123 37.042 95.9796 36.877L96.9268 34.7076C97.0362 34.5184 96.9124 34.2774 96.692 34.2184Z" fill="white"/>
<path d="M104.139 36.2152L99.1867 34.8882C99.0094 34.8406 98.8206 34.9286 98.7533 35.0936L93.7678 46.7246C93.6774 46.9296 93.8059 47.1594 94.0147 47.2154L96.6519 47.922C96.8292 47.9695 97.0176 47.8832 97.0853 47.7166L98.5598 44.2424C98.5945 44.1593 98.6881 44.1151 98.7759 44.1386L99.1174 44.2301C99.1837 44.2479 99.2312 44.2962 99.2501 44.3581L100.74 48.8574C100.78 48.9713 100.872 49.0653 101.005 49.1008L104.27 49.9757C104.557 50.0526 104.82 49.7785 104.715 49.5087L103.053 45.1247C103.009 45.0207 103.077 44.9003 103.188 44.8839C105.091 44.5321 106.29 43.9828 107.224 41.7745C108.403 38.8748 106.853 36.9423 104.139 36.2152ZM103.845 40.926C103.559 41.6417 102.766 42.2215 101.74 41.9466L100.207 41.5358C99.9866 41.4767 99.8724 41.24 99.9602 41.045L100.887 38.904C100.955 38.7391 101.143 38.6511 101.321 38.6986L102.965 39.1392C103.936 39.3995 104.151 40.1819 103.845 40.926Z" fill="white"/>
<path d="M80.7852 21.7467L82.6615 22.2495C83.114 22.3708 83.4833 22.5372 83.7543 22.7591C84.0095 22.9536 84.1981 23.2244 84.305 23.5284C84.3903 23.8266 84.4008 24.1386 84.3115 24.4255C84.2311 24.7255 84.0772 24.9952 83.8426 25.2077C83.5949 25.4291 83.2755 25.5603 82.9425 25.6096C82.5706 25.6716 82.1334 25.6326 81.6477 25.5025L79.904 25.0353L80.7852 21.7467ZM81.8626 24.6541C82.1709 24.7367 82.423 24.7243 82.6291 24.6178C82.838 24.5015 82.9836 24.3095 83.035 24.0711C83.1039 23.8603 83.0802 23.6372 82.9665 23.4451C82.8596 23.2672 82.6612 23.1324 82.3628 23.0524L81.7777 22.8956L81.3469 24.5034L81.8657 24.6425L81.8626 24.6541Z" fill="white"/>
<path d="M86.6911 26.8415C86.4664 26.712 86.2481 26.5523 86.0623 26.3639L86.2719 25.5816C86.4219 25.771 86.6166 25.9262 86.8228 26.0383C87.0564 26.1808 87.3012 26.2819 87.5637 26.3629C87.6516 26.3865 87.7437 26.4005 87.84 26.3926C87.9032 26.3757 87.9452 26.3515 87.9567 26.3084C87.9683 26.2653 87.9682 26.2191 87.9435 26.1787C87.9004 26.1209 87.8398 26.0816 87.7762 26.0539L87.2373 25.771C86.9258 25.6075 86.7243 25.4381 86.6147 25.2701C86.5078 25.0923 86.4831 24.8796 86.5462 24.6904C86.592 24.5197 86.7045 24.3651 86.8601 24.2682C87.0447 24.156 87.2488 24.097 87.462 24.0972C87.7356 24.0906 88.0123 24.1186 88.2848 24.2022C88.5384 24.2702 88.7763 24.357 89.001 24.4865C89.1883 24.5829 89.354 24.7072 89.5056 24.8509L89.3075 25.5902C89.1675 25.4496 89.0091 25.3379 88.845 25.2477C88.6603 25.1414 88.4555 25.0634 88.2566 25.0101C87.9583 24.9302 87.7911 24.944 87.7654 25.0402C87.7538 25.0833 87.7626 25.13 87.8016 25.1636C87.871 25.2159 87.9543 25.2631 88.0364 25.3082L88.4978 25.5224C88.7918 25.6581 89.0097 25.8195 89.1293 25.9901C89.2488 26.1607 89.272 26.3854 89.2032 26.6424C89.1286 26.9208 88.9155 27.1391 88.6362 27.2135C88.3395 27.3063 87.9518 27.2948 87.4777 27.1678C87.2053 27.0841 86.939 26.9772 86.6911 26.8415Z" fill="white"/>
<path d="M90.1387 27.6636C89.9166 27.4779 89.7433 27.2361 89.6523 26.9594C89.5685 26.6954 89.5758 26.4095 89.6477 26.141C89.7197 25.8725 89.8544 25.635 90.0689 25.4509C90.2861 25.2568 90.5528 25.1435 90.8495 25.0969C91.2041 25.0533 91.5667 25.0723 91.9055 25.1737C92.3911 25.3039 92.7615 25.5062 93.0268 25.7958L92.7972 26.6527C92.6962 26.5457 92.5826 26.446 92.4499 26.3642C92.3073 26.2798 92.15 26.2039 91.9842 26.1595C91.6859 26.0796 91.4413 26.0709 91.235 26.1311C90.9584 26.1955 90.8032 26.4631 90.8728 26.734C90.8975 26.8205 90.9448 26.9025 91.0112 26.9665C91.1481 27.1186 91.3643 27.2334 91.6842 27.3191C91.8499 27.3635 92.0115 27.3837 92.1772 27.3819C92.333 27.3775 92.4781 27.3595 92.6191 27.3174L92.3979 28.1428C91.966 28.2563 91.5182 28.25 91.09 28.1246C90.7458 28.043 90.4097 27.8854 90.1387 27.6636Z" fill="white"/>
<path d="M93.5698 28.5815C93.3361 28.3927 93.1645 28.1513 93.0734 27.8747C92.9896 27.6106 92.9849 27.3233 93.0568 27.0548C93.1288 26.7863 93.2639 26.5471 93.4785 26.363C93.693 26.1789 93.9619 26.0573 94.2559 26.0206C94.9503 25.942 95.668 26.1343 96.2301 26.5496C96.4548 26.7253 96.6268 26.965 96.7206 27.2317C96.8044 27.4958 96.8087 27.7847 96.7398 28.0417C96.6679 28.3102 96.5201 28.5566 96.3155 28.7434C96.0983 28.9375 95.829 29.0607 95.5439 29.1105C94.8352 29.1959 94.1291 29.0067 93.5698 28.5815ZM95.2489 28.136C95.4014 28.0508 95.5156 27.8966 95.5471 27.7327C95.6044 27.5651 95.5795 27.3861 95.4901 27.236C95.389 27.0828 95.228 26.981 95.0506 26.9335C94.8759 26.876 94.6846 26.894 94.5204 26.9762C94.3679 27.0615 94.2568 27.204 94.2227 27.3779C94.1654 27.5455 94.1898 27.7261 94.2793 27.8762C94.3803 28.0294 94.5375 28.1391 94.7175 28.1766C94.9021 28.2368 95.0964 28.2213 95.2489 28.136Z" fill="white"/>
<path d="M99.9788 27.5181L99.7057 28.5374C99.5846 28.4126 99.4316 28.3272 99.2631 28.2927C99.0095 28.2248 98.7928 28.2449 98.6081 28.3571C98.4351 28.4724 98.2941 28.6869 98.208 29.0084L97.9784 29.8654L96.7982 29.5491L97.5332 26.8059L98.6919 27.1164L98.4591 27.9849C98.6116 27.6811 98.7725 27.472 98.9571 27.3598C99.1417 27.2476 99.3633 27.2163 99.5694 27.2822C99.7236 27.3235 99.8662 27.4079 99.9788 27.5181Z" fill="white"/>
<path d="M104.086 27.8856L103.182 31.262L102.002 30.9458L102.165 30.3341C102.02 30.5244 101.803 30.6739 101.572 30.7383C101.305 30.8054 101.037 30.8009 100.774 30.7199C100.529 30.665 100.305 30.5268 100.131 30.3415C99.9669 30.159 99.85 29.9322 99.8078 29.6918C99.7615 29.4271 99.7744 29.1534 99.8432 28.8965C99.9036 28.6249 100.043 28.3762 100.216 28.1701C100.387 27.9745 100.613 27.8413 100.856 27.768C101.111 27.6978 101.382 27.7011 101.636 27.769C102.198 27.9196 102.509 28.257 102.582 28.781L102.906 27.5694L104.086 27.8856ZM102.082 29.944C102.234 29.8587 102.344 29.7157 102.375 29.5518C102.418 29.391 102.394 29.2141 102.314 29.0771C102.099 28.7779 101.701 28.6713 101.354 28.8199C101.202 28.9052 101.094 29.0362 101.062 29.2C101.008 29.3577 101.033 29.5367 101.122 29.6868C101.223 29.84 101.372 29.9387 101.55 29.9862C101.734 30.0463 101.918 30.0261 102.082 29.944Z" fill="white"/>
<path d="M76.6592 19.7669C76.1518 19.3663 75.5919 19.0226 74.9926 18.7465C74.8643 18.8738 74.7481 19.0026 74.6387 19.1456C74.0031 18.8723 73.3169 18.6884 72.6298 18.6073C72.6066 18.4288 72.5703 18.2592 72.5229 18.0848C71.8758 18.0269 71.2203 18.0466 70.5663 18.1468C68.9916 19.4818 68.254 20.995 67.9831 22.6226C68.5268 23.2852 69.18 23.8511 69.9109 24.2992C70.1496 24.1109 70.3816 23.9083 70.583 23.6869C70.3552 23.5228 70.1331 23.3372 69.9257 23.1431C70.0036 23.1177 70.0698 23.0893 70.1477 23.064C71.376 24.0824 72.997 24.5168 74.5816 24.252C74.6247 24.3098 74.6764 24.3822 74.7342 24.4315C74.4549 24.5059 74.1814 24.5587 73.8931 24.5739C73.9568 24.8663 74.0564 25.1577 74.1691 25.4401C75.0261 25.4175 75.8746 25.2541 76.6768 24.952C77.3438 23.1659 77.2732 21.4468 76.6592 19.7669ZM71.1234 22.4194C70.6924 22.3039 70.4329 21.8204 70.5564 21.3596C70.6798 20.8989 71.1291 20.5946 71.57 20.7128C72.0109 20.8309 72.2605 21.3117 72.1343 21.7825C72.0082 22.2532 71.5643 22.5375 71.1234 22.4194ZM74.0357 23.1997C73.6047 23.0843 73.3568 22.6039 73.4803 22.1431C73.6037 21.6823 74.0513 21.3776 74.4922 21.4958C74.9331 21.6139 75.1844 22.0952 75.0466 22.5628C74.9205 23.0335 74.4766 23.3179 74.0357 23.1997Z" fill="white"/>
<path d="M85.5265 23.9104C85.8498 23.997 86.1734 23.8368 86.2493 23.5534C86.3253 23.2699 86.1251 22.9694 85.8019 22.8827C85.4787 22.7961 85.1551 22.9564 85.0791 23.2398C85.0032 23.5232 85.2033 23.8238 85.5265 23.9104Z" fill="white"/>
<path d="M84.8477 24.109C85.1818 24.3602 85.6128 24.4757 86.0278 24.4252L85.462 26.5369L84.2818 26.2207L84.8477 24.109Z" fill="white"/>
</g>
</g>
</g>
</g>
<defs>
<linearGradient id="paint0_linear_961_82775" x1="124.167" y1="-201.066" x2="314.999" y2="65.707" gradientUnits="userSpaceOnUse">
<stop stop-color="#FF16A6"/>
<stop offset="0.42" stop-color="#FE4B72"/>
<stop offset="0.64" stop-color="#FE803F"/>
<stop offset="0.82" stop-color="#FEB44E"/>
<stop offset="1" stop-color="#FEE75C"/>
</linearGradient>
<linearGradient id="paint1_linear_961_82775" x1="350.008" y1="98.7225" x2="540.98" y2="276.589" gradientUnits="userSpaceOnUse">
<stop stop-color="#16AF63"/>
<stop offset="0.5" stop-color="#54D788"/>
<stop offset="1" stop-color="#91FFAD"/>
</linearGradient>
<linearGradient id="paint2_linear_961_82775" x1="386.62" y1="-82.2421" x2="587.346" y2="90.7616" gradientUnits="userSpaceOnUse">
<stop stop-color="#FF8C19"/>
<stop offset="0.33" stop-color="#FFB93A"/>
<stop offset="0.67" stop-color="#FFE75C"/>
</linearGradient>
<linearGradient id="paint3_linear_961_82775" x1="545.314" y1="-55.621" x2="534.316" y2="-12.6593" gradientUnits="userSpaceOnUse">
<stop offset="0.02" stop-color="#F1AA4B"/>
<stop offset="0.09" stop-color="#F2B868"/>
<stop offset="0.16" stop-color="#F4C585"/>
<stop offset="0.58" stop-color="#FAE2C2"/>
<stop offset="1" stop-color="white"/>
</linearGradient>
<linearGradient id="paint4_linear_961_82775" x1="17.6196" y1="197.758" x2="218.346" y2="370.762" gradientUnits="userSpaceOnUse">
<stop stop-color="#FF8C19"/>
<stop offset="0.33" stop-color="#FFB93A"/>
<stop offset="0.67" stop-color="#FFE75C"/>
</linearGradient>
<linearGradient id="paint5_linear_961_82775" x1="176.314" y1="224.379" x2="165.316" y2="267.341" gradientUnits="userSpaceOnUse">
<stop offset="0.02" stop-color="#F1AA4B"/>
<stop offset="0.09" stop-color="#F2B868"/>
<stop offset="0.16" stop-color="#F4C585"/>
<stop offset="0.58" stop-color="#FAE2C2"/>
<stop offset="1" stop-color="white"/>
</linearGradient>
<linearGradient id="paint6_linear_961_82775" x1="56.5411" y1="14.9373" x2="280.191" y2="197.67" gradientUnits="userSpaceOnUse">
<stop stop-color="#66BCFF"/>
<stop offset="0.26" stop-color="#4D7FEC"/>
<stop offset="0.77" stop-color="#3442D9"/>
</linearGradient>
<clipPath id="clip0_961_82775">
<rect width="490" height="215" fill="white"/>
</clipPath>
<clipPath id="clip1_961_82775">
<rect width="297" height="198" fill="white" transform="translate(105.246 -229) rotate(15)"/>
</clipPath>
<clipPath id="clip2_961_82775">
<rect width="297" height="198" fill="white" transform="translate(331.246 22) rotate(15)"/>
</clipPath>
<clipPath id="clip3_961_82775">
<rect width="297" height="198" fill="white" transform="translate(379.246 -156) rotate(15)"/>
</clipPath>
<clipPath id="clip4_961_82775">
<rect width="297" height="198" fill="white" transform="translate(10.2461 124) rotate(15)"/>
</clipPath>
<clipPath id="clip5_961_82775">
<rect width="297" height="198" fill="white" transform="translate(57.2461 -52) rotate(15)"/>
</clipPath>
</defs>
</svg>
