<svg width="271" height="176" viewBox="0 0 271 176" fill="none" xmlns="http://www.w3.org/2000/svg">
<g clip-path="url(#clip0_674_2972)">
<g clip-path="url(#clip1_674_2972)">
<path d="M232.299 113.226C227.776 107.35 218.807 106.39 211.929 108.052L211.526 106.382C218.944 104.591 228.667 105.696 233.653 112.181L232.291 113.226H232.299Z" fill="#8CD9FF"/>
<path d="M250.905 125.553L241.063 133.151C239.915 134.042 238.261 133.828 237.371 132.68L230.338 123.566C229.866 122.958 229.687 122.169 229.849 121.424L231.674 112.687C231.854 111.839 232.616 111.247 233.481 111.29L242.399 111.736C243.17 111.77 243.881 112.147 244.352 112.755L251.385 121.87C252.276 123.018 252.062 124.671 250.914 125.562L250.905 125.553Z" fill="#8CD9FF"/>
<path d="M237.764 116.769C238.038 115.829 237.498 114.845 236.558 114.571C235.618 114.297 234.633 114.837 234.359 115.777C234.085 116.717 234.625 117.701 235.565 117.975C236.506 118.249 237.49 117.709 237.764 116.769Z" fill="#66BCFF"/>
<path d="M51.3959 134.008C48.3891 134.008 45.1939 133.451 41.8959 132.312L42.4527 130.693C52.7151 134.239 61.8639 131.781 66.9181 124.114L68.3486 125.056C64.4852 130.924 58.4631 134.008 51.3959 134.008Z" fill="#8CD9FF"/>
<path d="M20.5059 131.31L24.2151 119.437C24.6519 118.049 26.1254 117.278 27.5131 117.706L38.5037 121.142C39.2404 121.373 39.8314 121.912 40.1398 122.615L43.652 130.821C43.9947 131.618 43.7034 132.535 42.9753 132.997L35.4112 137.743C34.7602 138.154 33.9635 138.257 33.2268 138.026L22.2362 134.591C20.8485 134.154 20.0775 132.68 20.5059 131.293V131.31Z" fill="#8CD9FF"/>
<path d="M82.5088 118.203C75.6986 120.996 71.2012 130.453 70.9785 140.921L93.6107 134.899L82.5173 118.203H82.5088Z" fill="#6990FF"/>
<path d="M183.377 133.254L166.741 136.51C172.078 148.597 184.019 154.602 184.019 154.602C187.292 146.327 185.758 137.058 183.368 133.254H183.377Z" fill="#6990FF"/>
<path d="M94.8357 38.588C92.3515 33.1398 92.7456 24.8476 101.535 22.8003C111.163 20.5559 115.164 29.5591 123.661 34.3991L94.8357 38.588Z" fill="#55F186"/>
<path d="M109.878 33.9452C122.591 26.2697 120.201 15.4676 133.341 14.1313C142.413 13.2147 150.251 23.1088 144.358 31.4352L109.878 33.9452Z" fill="#29CC7A"/>
<path d="M108.131 39.5219C107.848 39.5219 107.565 39.4277 107.325 39.2392C102.802 35.5985 100.335 26.5611 101.32 17.2581C101.398 16.5556 102.031 16.0416 102.734 16.1187C103.436 16.1958 103.95 16.8297 103.873 17.5322C102.871 26.9894 105.664 34.6048 108.936 37.2433C109.493 37.6887 109.578 38.4939 109.133 39.0507C108.876 39.3677 108.508 39.5305 108.131 39.5305V39.5219Z" fill="#008D3C"/>
<path d="M126.951 36.1725C126.403 36.1725 125.889 35.8127 125.726 35.2644C125.52 34.5877 125.906 33.8681 126.582 33.6625C126.805 33.594 132.211 31.7608 133.915 22.8433C134.052 22.1494 134.72 21.6868 135.414 21.8239C136.108 21.9609 136.571 22.6291 136.434 23.323C134.429 33.851 127.619 36.0354 127.328 36.1211C127.199 36.1553 127.079 36.181 126.951 36.181V36.1725Z" fill="#008D3C"/>
<path d="M181.621 61.683C183.12 78.7813 177.8 80.94 161.91 82.3363L158.612 44.7902C174.502 43.3939 180.122 44.5846 181.621 61.6915V61.683Z" fill="#4970DE"/>
<path d="M173.697 60.7748C170.579 30.0817 157.909 28.3342 121.991 31.9748C94.6044 34.7503 81.0954 37.9027 77.6003 52.8424C64.194 53.956 59.671 56.4745 60.8532 72.9304C62.0439 89.489 67.0723 91.1509 82.3375 90.1486C89.2248 101.816 103.034 101.987 128.827 99.366C164.754 95.7167 176.815 91.4679 173.697 60.7662V60.7748Z" fill="url(#paint0_linear_674_2972)"/>
<path d="M153.875 56.4659C155.836 57.9993 159.426 55.892 161.524 55.7206C163.854 55.5322 165.739 56.6201 167.778 55.6521C169.817 54.6841 170.099 51.6345 166.45 49.6214C162.792 47.6083 158.021 48.5506 154.997 51.6773C152.941 53.8018 153.018 55.7892 153.875 56.4573V56.4659Z" fill="black"/>
<path d="M134.917 44.0362C120.123 45.5353 109.801 48.405 113.485 66.5655C117.168 84.7347 125.974 84.1779 138.858 82.8672C151.733 81.5566 160.471 80.3316 160.437 61.7941C160.402 43.2566 149.712 42.5285 134.917 44.0276V44.0362Z" fill="#B7CCFF"/>
<path d="M153.875 68.2276L147.27 68.8957C145.822 69.0414 144.769 70.3349 144.914 71.7826C145.06 73.2303 146.353 74.2839 147.801 74.1383L154.406 73.4701C155.854 73.3245 156.907 72.031 156.762 70.5833C156.616 69.1356 155.322 68.0819 153.875 68.2276Z" fill="#6990FF"/>
<path d="M136.588 69.9837L129.983 70.6518C128.536 70.7975 127.482 72.091 127.628 73.5387C127.773 74.9864 129.067 76.04 130.514 75.8944L137.119 75.2262C138.567 75.0806 139.62 73.7871 139.475 72.3394C139.329 70.8917 138.036 69.838 136.588 69.9837Z" fill="#6990FF"/>
<path d="M76.5038 62.0341C71.3298 62.9421 70.3104 64.6554 71.2441 72.4079C72.1693 80.169 73.5656 81.5824 78.8082 81.2483C79.7419 81.1884 80.4358 80.3746 80.3244 79.4494L78.4055 63.4304C78.2942 62.5053 77.4204 61.8799 76.5038 62.0341Z" fill="#B7CCFF"/>
<path d="M93.3624 59.5241C95.324 61.0575 99.196 58.8046 101.063 58.5904C102.931 58.3763 105.227 59.6869 107.265 58.7189C109.304 57.7509 109.45 54.8298 105.886 52.6625C102.323 50.4952 97.7055 51.0606 94.2533 54.4443C92.1374 56.5174 92.5057 58.856 93.3624 59.5241Z" fill="black"/>
<path d="M101.201 81.1283C105.158 82.4818 110.289 77.1536 109.655 74.5494C109.261 72.9218 107.454 71.2685 105.244 70.4119C101.774 69.067 98.1766 68.6815 96.6861 70.3605C95.0671 72.1765 96.6432 79.5693 101.192 81.1283H101.201Z" fill="#D11583"/>
<path d="M99.71 74.2581C98.4936 73.9668 97.2943 73.8469 96.1721 73.8983C96.5747 76.6995 98.2623 80.126 101.201 81.1368C103.051 81.7707 105.167 80.9312 106.82 79.5949C105.886 77.2391 103.205 75.1147 99.71 74.2666V74.2581Z" fill="#FF78B9"/>
<path d="M82.2603 84.4177C80.0674 87.1504 76.1097 87.5787 73.3771 85.3943L71.5867 87.6215C72.9231 88.6923 73.1372 90.6369 72.0664 91.9732C70.9956 93.3096 69.0511 93.5237 67.7148 92.4529L66.4127 94.072C67.749 95.1428 67.9632 97.0873 66.8924 98.4237C65.8216 99.76 63.877 99.9742 62.5407 98.9034L61.2386 100.522C62.575 101.593 62.7891 103.538 61.7183 104.874C60.6475 106.21 58.703 106.425 57.3667 105.354L55.5763 107.581C58.3089 109.774 58.7287 113.749 56.5529 116.464L94.8614 147.2L120.577 115.145L82.2689 84.4092L82.2603 84.4177Z" fill="url(#paint1_linear_674_2972)"/>
<path d="M81.952 94.3117C80.9155 93.4808 79.3992 93.6436 78.5683 94.6801L65.7702 110.639C64.9479 111.667 65.1106 113.183 66.1471 114.014L99.8213 141.024L115.626 121.321L81.952 94.3117Z" fill="url(#paint2_linear_674_2972)"/>
<path d="M85.7297 97.3442L81.9434 94.3117C80.9069 93.4808 79.3907 93.6436 78.5597 94.6801L65.7617 110.639C64.9393 111.667 65.1021 113.183 66.1386 114.014L69.9249 117.047L85.7297 97.3442Z" fill="#EB459F"/>
<path d="M136.715 145.791C152.054 145.451 164.213 132.74 163.873 117.401C163.533 102.062 150.823 89.9031 135.484 90.2432C120.145 90.5832 107.986 103.294 108.326 118.633C108.666 133.972 121.376 146.131 136.715 145.791Z" fill="url(#paint3_linear_674_2972)"/>
<path d="M139.363 118.186C141.873 116.584 143.278 113.56 142.644 110.468C141.822 106.459 137.907 103.872 133.889 104.694C129.88 105.517 127.293 109.431 128.116 113.449C128.741 116.481 131.131 118.7 134.001 119.24C129.246 121.544 125.726 127.164 126.745 132.141L151.245 127.121C150.234 122.187 144.657 118.486 139.355 118.195L139.363 118.186Z" fill="white"/>
<path d="M113.527 112.378C119.25 113.055 122.582 111.213 122.582 111.213C122.582 111.213 119.044 109.192 116.586 107.641C117.554 104.129 118.025 98.4066 113.93 94.3119C107.874 88.2641 95.384 90.123 90.2099 98.3466C85.0359 106.57 89.7988 116.918 98.8448 118.169C107.12 119.308 112.165 114.049 113.527 112.378Z" fill="white"/>
<path d="M159.845 104.009C156.907 108.857 151.579 110.134 147.596 107.855C143.612 105.576 142.653 99.503 145.437 95.1085C148.221 90.7139 153.703 89.6517 157.678 91.9304C161.661 94.2004 162.544 99.5629 159.845 104.009Z" fill="#FF78B9"/>
<path d="M176.944 114.066L167.221 120.079C164.06 114.862 160.248 111.71 157.524 109.817L157.507 109.8C156.35 108.994 155.399 108.42 154.774 107.992C152.787 106.647 152.119 103.409 154.226 100.522C156.427 97.507 159.803 97.6612 161.747 98.8262C161.995 98.9633 162.972 99.4173 164.445 100.402C164.445 100.411 164.454 100.411 164.454 100.411C167.358 102.347 172.181 106.356 176.944 114.066Z" fill="#484689"/>
<path d="M171.71 111.359C163.34 113.149 158.535 117.801 154.766 122.7L180.447 147.654C184.636 143.928 189.511 135.995 190.187 129.048L171.71 111.359Z" fill="url(#paint4_linear_674_2972)"/>
<path d="M171.067 114.177C168.3 120.739 170.622 125.245 170.622 125.245C170.622 125.245 177.158 129.853 185.698 126.855L171.076 114.177H171.067Z" fill="#55F186"/>
<path d="M195.85 150.567C192.012 141.624 189.048 138.351 185.904 134.625C183.283 131.524 183.488 128.414 185.287 126.119C187.438 123.386 192.492 122.786 195.096 125.108C195.541 125.51 203.362 135.036 206.138 143.148L195.85 150.567Z" fill="#484689"/>
<path d="M206.138 143.148L195.85 150.558C194.813 148.151 193.845 146.147 192.92 144.45C192.92 144.442 192.911 144.442 192.911 144.433C192.003 142.574 193.7 139.396 196.492 137.957C199.071 136.629 203.131 136.629 204.048 138.343C204.073 138.394 204.108 138.454 204.133 138.505C204.93 140.056 205.624 141.632 206.138 143.148Z" fill="#484689"/>
<path d="M206.138 143.148L195.85 150.558C194.813 148.151 193.845 146.147 192.92 144.45C192.92 144.442 192.911 144.442 192.911 144.433C192.003 142.574 193.7 139.396 196.492 137.957C199.071 136.629 203.131 136.629 204.048 138.343C204.073 138.394 204.108 138.454 204.133 138.505C204.93 140.056 205.624 141.632 206.138 143.148Z" fill="#5865F2"/>
<path d="M206.684 158.502C211.68 156.054 214.076 150.694 212.035 146.53C209.995 142.367 204.291 140.977 199.295 143.426C194.299 145.874 191.903 151.234 193.943 155.397C195.984 159.561 201.688 160.951 206.684 158.502Z" fill="#FF78B9"/>
<path d="M164.445 100.402C163.203 99.6829 160.376 101.131 158.715 103.426C157.044 105.739 156.573 108.926 157.498 109.8C156.342 108.994 155.391 108.42 154.766 107.992C152.778 106.647 152.11 103.409 154.217 100.522C156.419 97.507 159.794 97.6612 161.739 98.8262C161.987 98.9633 162.963 99.4173 164.437 100.402H164.445Z" fill="#5865F2"/>
<path d="M166.767 130.582L165.405 129.536C165.585 129.297 169.911 123.694 176.353 119.137L177.338 120.533C171.11 124.936 166.801 130.522 166.758 130.573L166.767 130.582Z" fill="white"/>
<path d="M205.641 90.6884C220.658 83.527 231.246 82.1735 232.685 85.2059C234.012 88.0157 226.543 94.843 212.888 99.8372L205.649 90.6884H205.641Z" fill="#FF78B9"/>
<path d="M208.887 94.3119C215.955 91.0481 223.193 89.0607 223.87 90.3286C224.504 91.5278 217.454 95.4341 211.612 97.7641L208.887 94.3119Z" fill="#FFAED7"/>
<path d="M205.795 90.8768C209.496 74.6522 208.493 64.03 205.213 63.2933C202.18 62.6166 197.16 71.4056 195.276 85.8141L205.795 90.8768Z" fill="#FF78B9"/>
<path d="M201.546 88.5039C203.182 80.897 203.534 73.4015 202.146 73.016C200.844 72.6562 198.574 80.3916 197.58 86.6022L201.546 88.5039Z" fill="#FFAED7"/>
<path d="M208.151 118.7C208.151 118.7 213.899 117.758 215.775 113.68C218.662 107.418 215.484 97.4643 203.936 89.1893C192.552 81.0256 182.341 81.9507 179.188 86.6194C176.515 90.5599 176.49 94.7916 176.49 94.7916C176.49 94.7916 172.241 95.2628 169.088 98.9634C165.473 103.212 164.968 110.913 175.051 120.927C184.739 130.547 198.317 133.7 204.63 127.866C207.842 124.902 208.142 118.7 208.142 118.7H208.151Z" fill="#FF78B9"/>
<path d="M184.251 105.208C184.705 104.583 186.846 105.32 188.491 106.699C190.607 108.481 191.601 110.391 190.958 111.188C188.5 114.229 184.251 115.582 182.64 114.289C181.03 112.995 181.475 109.063 184.251 105.208Z" fill="#EB459F"/>
<path d="M187.993 97.1519C188.054 94.9292 187 93.0969 185.638 93.0593C184.276 93.0217 183.122 94.7932 183.061 97.0159C183 99.2386 184.054 101.071 185.416 101.109C186.778 101.146 187.932 99.3747 187.993 97.1519Z" fill="black"/>
<path d="M200.358 111.421C202.604 111.201 204.311 109.866 204.171 108.439C204.031 107.013 202.097 106.035 199.851 106.255C197.605 106.475 195.898 107.81 196.038 109.237C196.178 110.663 198.112 111.641 200.358 111.421Z" fill="black"/>
<path d="M110.529 123.018C103.556 123.848 82.3803 133.974 77.6688 136.655L70.9785 140.93C70.9271 145.615 72.6575 155.227 80.7955 161.043C87.5458 165.866 99.1788 161.626 110.555 153.479C120.706 146.207 123.19 141.941 123.164 136.818C123.139 129.631 117.502 122.187 110.529 123.018Z" fill="#6990FF"/>
<path d="M172.712 135.336C167.726 128.911 162.809 122.898 157.13 120.405C152.427 118.332 141.599 121.99 142.404 131.336C143.587 145.059 152.83 155.612 159.631 160.384C167.855 166.149 180.379 163.305 184.02 154.585C184.02 154.585 179.899 144.588 172.712 135.327V135.336Z" fill="#6990FF"/>
<path d="M101.911 101.927C101.911 101.927 97.5341 98.8607 95.718 101.602C93.2938 105.251 102.965 112.087 105.449 111.119C107.934 110.151 109.458 98.2953 105.732 97.5671C102.648 96.9675 101.903 101.927 101.903 101.927H101.911Z" fill="#FFAED7"/>
<path d="M40.1313 40.9696C38.1868 39.7189 36.8761 37.6887 36.5335 35.3929L35.951 31.4952C35.9253 31.3068 35.7539 31.1611 35.5655 31.1611C35.3685 31.1611 35.2057 31.3068 35.18 31.4952L34.5975 35.3929C34.2548 37.6801 32.9442 39.7103 30.9996 40.9696L30.4942 41.2951C30.3829 41.3636 30.3143 41.4921 30.3143 41.6206V41.6463C30.3143 41.7834 30.3829 41.9033 30.4942 41.9718L30.9996 42.2973C32.9442 43.548 34.2548 45.5782 34.5975 47.874L35.18 51.7717C35.2057 51.9601 35.377 52.1058 35.5655 52.1058C35.7625 52.1058 35.9253 51.9601 35.951 51.7717L36.5335 47.874C36.8761 45.5868 38.1868 43.5566 40.1313 42.2973L40.6367 41.9718C40.7481 41.9033 40.8166 41.7748 40.8166 41.6463V41.6206C40.8166 41.4835 40.7481 41.3636 40.6367 41.2951L40.1313 40.9696Z" fill="#FFE75C"/>
<path d="M224.778 25.3617C222.422 23.8454 220.829 21.3869 220.418 18.6114L219.715 13.8914C219.681 13.6601 219.484 13.4888 219.244 13.4888C219.013 13.4888 218.807 13.6601 218.773 13.8914L218.071 18.6114C217.659 21.3869 216.066 23.8454 213.71 25.3617L213.102 25.7557C212.965 25.8414 212.888 25.9956 212.888 26.1583V26.184C212.888 26.3468 212.974 26.4924 213.102 26.5867L213.71 26.9807C216.066 28.4969 217.659 30.9555 218.071 33.731L218.773 38.451C218.807 38.6823 219.004 38.8536 219.244 38.8536C219.476 38.8536 219.681 38.6823 219.715 38.451L220.418 33.731C220.829 30.9555 222.422 28.4969 224.778 26.9807L225.386 26.5867C225.523 26.501 225.6 26.3468 225.6 26.184V26.1583C225.6 25.9956 225.515 25.85 225.386 25.7557L224.778 25.3617Z" fill="#8CD9FF"/>
<path d="M236.068 48.208C234.689 47.3171 233.764 45.8865 233.524 44.2675L233.113 41.5091C233.096 41.3721 232.976 41.2693 232.839 41.2693C232.702 41.2693 232.582 41.3721 232.565 41.5091L232.154 44.2675C231.914 45.8865 230.98 47.3257 229.61 48.208L229.25 48.4393C229.173 48.4907 229.121 48.5763 229.121 48.6706V48.6877C229.121 48.7819 229.173 48.8676 229.25 48.919L229.61 49.1503C230.989 50.0412 231.914 51.4718 232.154 53.0908L232.565 55.8491C232.582 55.9862 232.702 56.089 232.839 56.089C232.976 56.089 233.096 55.9862 233.113 55.8491L233.524 53.0908C233.764 51.4718 234.698 50.0326 236.068 49.1503L236.428 48.919C236.505 48.8676 236.557 48.7819 236.557 48.6877V48.6706C236.557 48.5763 236.505 48.4907 236.428 48.4393L236.068 48.208Z" fill="#55F186"/>
<path d="M38.1757 132.163C39.1495 132.058 39.854 131.184 39.7495 130.21C39.6449 129.237 38.7707 128.532 37.797 128.637C36.8233 128.741 36.1187 129.615 36.2233 130.589C36.3279 131.563 37.202 132.267 38.1757 132.163Z" fill="#66BCFF"/>
</g>
</g>
<defs>
<linearGradient id="paint0_linear_674_2972" x1="117.316" y1="65.1642" x2="119.309" y2="132.286" gradientUnits="userSpaceOnUse">
<stop stop-color="#6990FF"/>
<stop offset="1" stop-color="#5980EF"/>
</linearGradient>
<linearGradient id="paint1_linear_674_2972" x1="64.4633" y1="96.4831" x2="135.142" y2="153.188" gradientUnits="userSpaceOnUse">
<stop offset="0.07" stop-color="#FF78B9"/>
<stop offset="0.35" stop-color="#FD74B7"/>
<stop offset="0.6" stop-color="#F969B1"/>
<stop offset="0.83" stop-color="#F257A8"/>
<stop offset="1" stop-color="#EB459F"/>
</linearGradient>
<linearGradient id="paint2_linear_674_2972" x1="72.1539" y1="102.653" x2="144.162" y2="160.425" gradientUnits="userSpaceOnUse">
<stop stop-color="#FFAED7"/>
<stop offset="1" stop-color="#FF78B9"/>
</linearGradient>
<linearGradient id="paint3_linear_674_2972" x1="131.911" y1="90.2769" x2="142.311" y2="158.936" gradientUnits="userSpaceOnUse">
<stop stop-color="#FFE75C"/>
<stop offset="0.25" stop-color="#FFDD48"/>
<stop offset="0.74" stop-color="#FFCC25"/>
<stop offset="1" stop-color="#FFC619"/>
</linearGradient>
<linearGradient id="paint4_linear_674_2972" x1="175.736" y1="125.844" x2="151.099" y2="154.362" gradientUnits="userSpaceOnUse">
<stop stop-color="#484689"/>
<stop offset="1" stop-color="#242145"/>
</linearGradient>
<clipPath id="clip0_674_2972">
<rect width="271" height="175" fill="white" transform="translate(0 0.944092)"/>
</clipPath>
<clipPath id="clip1_674_2972">
<rect width="239" height="149.91" fill="white" transform="translate(16 13.4888)"/>
</clipPath>
</defs>
</svg>
