<svg fill="none" height="222" viewBox="0 0 272 222" width="272" xmlns="http://www.w3.org/2000/svg" xmlns:xlink="http://www.w3.org/1999/xlink"><clipPath id="a"><path d="m0 0h272v222h-272z"/></clipPath><clipPath id="b"><path d="m0 0h12.9672v12.9672h-12.9672z" transform="matrix(.77269258 -.63478041 .63478041 .77269258 0 171.477)"/></clipPath><clipPath id="c"><path d="m0 0h12.9672v12.9672h-12.9672z" transform="matrix(.97818134 .20775292 -.20775292 .97818134 206.947 139.218)"/></clipPath><clipPath id="d"><path d="m0 0h35.0443v35.0443h-35.0443z" transform="matrix(.93573614 -.35270084 .35270084 .93573614 21.1216 43.1539)"/></clipPath><clipPath id="e"><path d="m0 0h20.598v20.598h-20.598z" transform="matrix(.98043401 -.19684802 .19684802 .98043401 67.41 30.9472)"/></clipPath><clipPath id="f"><path d="m0 0h23.5755v23.5755h-23.5755z" transform="matrix(.92745037 -.37394626 .37394626 .92745037 38.75 117.316)"/></clipPath><clipPath id="g"><path d="m0 0h23.1322v23.1322h-23.1322z" transform="matrix(.97311901 .23030281 -.23030281 .97311901 228.655 109.563)"/></clipPath><clipPath id="h"><path d="m0 0h12.7234v12.7234h-12.7234z" transform="matrix(.97311901 .23030281 -.23030281 .97311901 260.974 148.972)"/></clipPath><clipPath id="i"><path d="m0 0h12.7234v12.7234h-12.7234z" transform="matrix(.97311901 .23030281 -.23030281 .97311901 260.974 82.3573)"/></clipPath><clipPath id="j"><path d="m0 0h12.9672v12.9672h-12.9672z" transform="matrix(.90199912 -.43173786 .43173786 .90199912 14.6952 94.5746)"/></clipPath><clipPath id="k"><path d="m0 0h12.9672v12.9672h-12.9672z" transform="matrix(.90199912 -.43173786 .43173786 .90199912 11.6377 135.198)"/></clipPath><clipPath id="l"><path d="m0 0h12.9672v12.9672h-12.9672z" transform="matrix(.97808078 -.2082258 .2082258 .97808078 35.4941 162.656)"/></clipPath><clipPath id="m"><path d="m0 0h27.2258v27.2258h-27.2258z" transform="matrix(.90388927 .4277665 -.4277665 .90388927 179.644 34.5565)"/></clipPath><clipPath id="n"><path d="m0 0h40.0496v40.0496h-40.0496z" transform="matrix(.98270471 .18517954 -.18517954 .98270471 224.452 21.7003)"/></clipPath><g clip-path="url(#a)"><g clip-path="url(#b)"><path d="m12.0979 167.543c-.1925-.103-.4292-.08-.5979.059l-2.24688 1.846-3.00958-1.345c-.37424-.167-.83807.214-.74688.613l.73554 3.213-2.24691 1.846c-.16866.139-.23759.366-.17367.575s.24791.361.46527.382l3.48946.346 1.44463 3.323c.09051.208.3008.338.52681.325.22719-.013.42111-.166.48581-.382l1.0259-3.387 3.521-.349c.1086-.01.2084-.053.2894-.12.0865-.071.1509-.168.1803-.282.0563-.22-.0305-.451-.217-.58l-2.9793-2.062.3381-3.491c.0214-.217-.0916-.427-.2841-.53z" fill="#b9bbbe"/></g><g clip-path="url(#c)"><path d="m217.57 146.217c-.039-.215-.205-.385-.419-.431l-2.844-.604-.827-3.191c-.103-.397-.69-.521-.945-.201l-2.052 2.58-2.845-.604c-.213-.046-.434.043-.558.223-.123.18-.127.419-.008.602l1.907 2.942-1.695 3.203c-.106.2-.076.446.074.614.152.17.393.226.602.141l3.287-1.311 2.469 2.534c.077.078.172.129.275.151.109.023.226.013.333-.035.207-.093.333-.305.318-.532l-.247-3.615 2.938-1.913c.183-.119.277-.338.237-.553z" fill="#b9bbbe"/></g><path d="m157.847 87.2473c.678 1.3519 2.062 2.2052 3.574 2.2052h36.329c1.124 0 2.127.6795 2.542 1.68.421 1.0165.184 2.192-.588 2.9578l-.005.005-30.942 30.8197c-1.032 1.028-1.423 2.536-1.022 3.937l12.406 43.263c0 .001.001.001.001.001.312 1.092-.089 2.263-1.01 2.936-.487.352-1.058.527-1.632.527-.54 0-1.07-.154-1.534-.461l-36.753-24.406c-1.341-.89-3.085-.89-4.426 0l-36.76 24.405-.0113.008c-.9423.63-2.1995.614-3.1443-.07-.9241-.673-1.3262-1.846-1.0129-2.94l12.4065-43.263c.401-1.401.01-2.909-1.022-3.937l-30.9425-30.8197-.005-.005c-.7715-.7658-1.0088-1.9413-.5874-2.9578.4147-1.0005 1.4181-1.68 2.5418-1.68h36.3281c1.513 0 2.897-.8536 3.575-2.2057l18.379-36.6197c.305-.6052 1.135-1.2104 2.465-1.2104 1.329 0 2.159.6049 2.463 1.2099 0 .0001.001.0003.001.0005z" stroke="#b9bbbe" stroke-linejoin="round" stroke-width="8"/><g clip-path="url(#d)"><path d="m55.4994 43.5949c-.4029-.4315-1.0289-.5771-1.5809-.369l-7.3537 2.7717-6.5334-6.0562c-.8127-.7525-2.3307-.1803-2.4444.9213l-.9091 8.8615-7.3536 2.7718c-.552.2081-.9262.7307-.9441 1.3208-.0178.5901.3213 1.1379.8592 1.3809l8.6294 3.9165.8101 9.7587c.0509.6111.4761 1.1265 1.0654 1.2906.5926.1645 1.2216-.0585 1.5755-.5563l5.5674-7.7756 9.3134 2.1667c.2874.0668.58.0441.8451-.0558.2828-.1066.5326-.3008.707-.5668.3343-.5123.3136-1.1801-.0516-1.6727l-5.8328-7.8655 3.8973-8.6382c.2436-.5375.1368-1.1729-.2662-1.6044z" fill="#b9bbbe"/></g><g clip-path="url(#e)"><path d="m87.3087 34.4684c-.1927-.2886-.542-.4325-.8819-.3643l-4.5288.9093-3.2144-4.1335c-.3999-.5136-1.3347-.326-1.5054.3023l-1.3689 5.0537-4.5288.9092c-.3399.0683-.6066.3359-.673.6765s.0783.6905.3672.8826l4.6334 3.0914-.457 5.7374c-.0286.3593.1691.6986.4954.8498.328.1517.7141.0821.9667-.173l3.9679-3.9814 5.1964 2.1414c.1603.0661.3322.0807.4954.0479.1742-.035.3375-.1239.464-.2616.2425-.2654.2939-.6547.1289-.9752l-2.6362-5.1163 3.0811-4.6403c.1924-.2887.1908-.6674-.002-.9559z" fill="#b9bbbe"/></g><g clip-path="url(#f)"><path d="m61.8778 117.085c-.2776-.284-.7009-.372-1.0689-.224l-4.9033 1.977-4.487-3.973c-.5581-.493-1.5703-.085-1.6299.657l-.4754 5.974-4.9032 1.977c-.3681.149-.6117.506-.6147.903s.2335.76.599.916l5.8638 2.501.6946 6.551c.0436.41.3375.75.7363.852.4011.101.8208-.058 1.0511-.399l3.6252-5.315 6.297 1.315c.1943.04.3907.021.5675-.051.1886-.076.3536-.21.4668-.392.217-.349.1928-.798-.0603-1.124l-4.0436-5.2 2.4886-5.87c.1556-.365.074-.791-.2036-1.075z" fill="#b9bbbe"/></g><g clip-path="url(#g)"><path d="m247.312 122.483c-.061-.385-.35-.696-.729-.785l-5.048-1.195-1.343-5.725c-.168-.712-1.21-.958-1.678-.397l-3.766 4.516-5.048-1.195c-.379-.09-.777.058-1.004.375-.227.316-.244.741-.039 1.073l3.28 5.326-3.156 5.641c-.197.354-.155.793.107 1.1.264.309.691.418 1.068.276l5.916-2.203 4.299 4.621c.133.143.301.238.483.281.194.046.403.032.596-.049.372-.158.607-.531.589-.935l-.292-6.457 5.319-3.292c.332-.204.508-.592.446-.976z" fill="#b9bbbe"/></g><g clip-path="url(#h)"><path d="m271.236 156.078c-.034-.212-.193-.382-.401-.432l-2.777-.657-.739-3.149c-.092-.391-.665-.527-.923-.218l-2.071 2.484-2.776-.657c-.209-.05-.428.032-.553.206s-.134.408-.021.59l1.804 2.93-1.736 3.102c-.108.195-.085.436.059.605.145.17.38.23.587.152l3.254-1.212 2.365 2.542c.073.078.166.131.266.155.107.025.221.017.328-.028.204-.086.333-.291.323-.514l-.16-3.551 2.925-1.811c.183-.112.28-.325.246-.537z" fill="#b9bbbe"/></g><g clip-path="url(#i)"><path d="m271.236 89.4638c-.034-.2117-.193-.3825-.401-.4319l-2.777-.6571-.739-3.1489c-.092-.3914-.665-.5271-.923-.2184l-2.071 2.4839-2.776-.6571c-.209-.0494-.428.0321-.553.2062-.125.174-.134.4078-.021.59l1.804 2.9298-1.736 3.1028c-.108.1944-.085.4358.059.6048.145.1697.38.2302.587.152l3.254-1.2119 2.365 2.5417c.073.0784.166.1309.266.1546.107.0253.221.0174.328-.0272.204-.0865.333-.2918.323-.5142l-.16-3.5516 2.925-1.8104c.183-.1125.28-.3255.246-.5371z" fill="#b9bbbe"/></g><g clip-path="url(#j)"><path d="m27.3828 93.645c-.1623-.1462-.3977-.18-.5946-.0858l-2.6229 1.2555-2.601-2.0252c-.3235-.2515-.865.0076-.8719.4174l-.0536 3.2957-2.6229 1.2554c-.1969.0943-.3182.2988-.3061.5169.0122.2182.1546.4093.3606.4818l3.3057 1.1697.6087 3.5716c.0382.224.2113.4.4338.442.2237.042.4485-.06.5631-.255l1.8055-3.043 3.5022.503c.1081.015.2153-.003.3098-.048.1009-.048.1868-.128.2427-.231.1069-.2.0781-.445-.0722-.615l-2.4002-2.7146 1.1623-3.3083c.0728-.206.0132-.4368-.149-.5831z" fill="#b9bbbe"/></g><g clip-path="url(#k)"><path d="m24.3253 134.269c-.1623-.146-.3977-.18-.5946-.086l-2.6229 1.256-2.601-2.026c-.3235-.251-.8649.008-.8719.418l-.0536 3.295-2.6229 1.256c-.1969.094-.3182.299-.306.517.0121.218.1545.409.3606.482l3.3057 1.169.6086 3.572c.0382.224.2113.4.4338.442.2237.042.4485-.06.5632-.255l1.8054-3.043 3.5023.502c.108.016.2152-.002.3097-.047.1009-.048.1868-.128.2427-.231.107-.2.0781-.445-.0722-.615l-2.4002-2.715 1.1624-3.308c.0727-.206.0131-.437-.1491-.583z" fill="#b9bbbe"/></g><g clip-path="url(#l)"><path d="m48.046 164.727c-.1235-.181-.3444-.269-.5579-.223l-2.8441.605-2.0537-2.578c-.2555-.321-.8426-.196-.9455.201l-.8248 3.191-2.8441.606c-.2135.045-.3794.216-.4187.431-.0394.215.0543.434.2375.553l2.9394 1.912-.2458 3.615c-.0153.226.1116.438.3181.531.2076.093.4502.046.6073-.116l2.4686-2.535 3.2868 1.31c.1014.04.2097.048.3122.026.1094-.023.2116-.08.2902-.168.1507-.169.1802-.414.074-.615l-1.6969-3.201 1.9056-2.944c.119-.183.1152-.421-.0082-.601z" fill="#b9bbbe"/></g><path d="m229.754 173.057c-.086-.197-.283-.322-.497-.317l-2.852.067-1.512-2.86c-.188-.355-.777-.341-.948.022l-1.375 2.928-2.853.066c-.214.005-.405.139-.482.339s-.027.429.129.577l2.486 2.378-.894 3.441c-.056.215.028.443.21.57.183.127.425.127.606-.002l2.842-1.995 2.931 1.861c.09.057.193.084.296.082.109-.003.218-.039.31-.109.176-.136.249-.367.183-.58l-1.054-3.395 2.373-2.492c.148-.155.188-.385.101-.581z" fill="#b9bbbe"/><g clip-path="url(#m)"><path d="m197.958 53.9998c.023-.458-.233-.8864-.648-1.0824l-5.518-2.6117-.144-6.9196c-.019-.8603-1.158-1.3994-1.835-.8682l-5.441 4.2764-5.519-2.6117c-.414-.196-.908-.1229-1.247.1857s-.462.7938-.308 1.2255l2.471 6.9353-5.014 5.7212c-.314.3583-.372.8741-.146 1.292.228.4198.692.6508 1.162.5798l7.349-1.0877 3.818 6.3727c.118.1966.288.3478.487.4419.213.1005.456.1352.699.089.466-.0898.828-.4619.906-.9319l1.245-7.505 6.93-2.4864c.432-.1541.729-.5568.753-1.0149z" fill="#b9bbbe"/></g><g clip-path="url(#n)"><path d="m257.751 42.5559c-.137-.6607-.662-1.1748-1.324-1.2996l-8.826-1.6631-2.78-9.7942c-.346-1.2174-2.168-1.5607-2.934-.5528l-6.152 8.1109-8.826-1.6631c-.663-.1249-1.338.1631-1.706.7285-.368.5655-.363 1.3018.018 1.8585l6.097 8.9506-5.007 10.0082c-.313.6268-.204 1.3825.274 1.8929.48.5127 1.227.6687 1.868.393l10.055-4.2832 7.805 7.6487c.241.236.54.3877.858.4476.34.064.699.0228 1.027-.1332.631-.3015 1.007-.9658.944-1.6637l-1.021-11.1442 8.936-6.1174c.558-.3801.831-1.0638.694-1.7244z" fill="#b9bbbe"/></g><g stroke="#f6f6f7"><path d="m22.2395 108.788-2.2373 18.911"/><path d="m52.1394 139.862-5.3737 18.82"/><path d="m24.6188 146.293 13.4386 14.229"/><path d="m45.6648 114.831-15.6733-11.722"/><path d="m260 100-14 17"/><path d="m245 134 15 17"/><path d="m234 172 23-10"/></g></g></svg>