<svg width="100%" height="600" viewBox="0 0 1128 600" fill="none" xmlns="http://www.w3.org/2000/svg">
<g clip-path="url(#clip0_3832_33883)">
<mask id="mask0_3832_33883" style="mask-type:alpha" maskUnits="userSpaceOnUse" x="0" y="0" width="1128" height="713">
<path d="M559.5 713H0V0H1128V713H559.5Z" fill="url(#paint0_linear_3832_33883)"/>
</mask>
<g mask="url(#mask0_3832_33883)">
<path d="M566.905 510.387C361.963 630.54 216.886 621.862 0 621.862V0H1128V415.496C922.733 415.496 752 401.87 566.905 510.387Z" fill="url(#paint1_linear_3832_33883)"/>
<path d="M875.9 0H891.1L0 526.1V600V453.1L875.9 0Z" fill="url(#paint2_linear_3832_33883)"/>
<path d="M1012.3 0H1027L1025.39 86.9252L546 522L1012.3 0Z" fill="url(#paint3_linear_3832_33883)"/>
<path opacity="0.43" d="M484.4 0L0 372.7V351.3C308.4 60.7 484.4 0 484.4 0Z" fill="url(#paint4_linear_3832_33883)"/>
<g style="mix-blend-mode:screen" opacity="0.7">
<path d="M729.6 226L726.4 219.8L729.6 213.6L732.8 219.8L729.6 226Z" fill="white"/>
</g>
<path d="M953.576 399H953.485L352.205 37.6688C352.124 37.6291 352.06 37.5603 352.026 37.4759C351.992 37.3915 351.991 37.2975 352.023 37.2123C352.079 37.1234 352.164 37.0567 352.264 37.0234C352.363 36.9902 352.471 36.9924 352.57 37.0297L953.849 398.361C954.031 398.452 954.031 398.635 953.94 398.817L953.576 399Z" fill="url(#paint5_linear_3832_33883)"/>
<path d="M376.999 343.4L376.699 343.2C376.709 343.113 376.742 343.03 376.795 342.96C376.848 342.89 376.918 342.835 376.999 342.8L987.299 129.9C987.399 129.8 987.599 129.9 987.699 130.1C987.709 130.179 987.695 130.259 987.66 130.331C987.624 130.402 987.568 130.461 987.499 130.5L377.199 343.4H376.999Z" fill="url(#paint6_linear_3832_33883)"/>
<path d="M713.451 430.766C713.451 430.828 713.476 430.887 713.52 430.931C713.564 430.975 713.624 431 713.686 431H713.764C713.839 430.968 713.902 430.912 713.944 430.842C713.986 430.772 714.005 430.691 713.999 430.61L598.547 26H598L713.451 430.766Z" fill="url(#paint7_linear_3832_33883)"/>
<path opacity="0.55" d="M678.499 185.3C669.493 185.93 660.81 188.912 653.317 193.949C645.824 198.985 639.784 205.899 635.799 214C631.817 222.103 630.043 231.113 630.658 240.12C631.272 249.128 634.253 257.813 639.299 265.3C644.308 272.803 651.208 278.853 659.302 282.838C667.396 286.824 676.397 288.604 685.399 288C694.408 287.38 703.095 284.402 710.59 279.364C718.084 274.327 724.122 267.408 728.099 259.3C732.076 251.201 733.855 242.199 733.258 233.195C732.662 224.192 729.71 215.504 724.699 208C719.674 200.489 712.756 194.435 704.645 190.45C696.534 186.465 687.516 184.688 678.499 185.3Z" fill="url(#paint8_radial_3832_33883)"/>
<path opacity="0.32" d="M695.299 205L666.399 207.5C665.183 207.613 664.015 208.029 663.002 208.711C661.989 209.392 661.162 210.317 660.599 211.4L647.799 236C647.215 237.184 646.954 238.5 647.042 239.817C647.129 241.134 647.563 242.404 648.299 243.5L663.699 265.3C664.428 266.347 665.426 267.178 666.587 267.706C667.749 268.234 669.031 268.439 670.299 268.3L699.199 265.8C700.42 265.705 701.596 265.297 702.612 264.613C703.628 263.93 704.451 262.995 704.999 261.9L717.799 237.3C718.437 236.132 718.73 234.806 718.641 233.477C718.552 232.149 718.087 230.873 717.299 229.8L701.899 208C701.17 206.953 700.172 206.122 699.011 205.594C697.849 205.066 696.567 204.861 695.299 205Z" fill="url(#paint9_radial_3832_33883)"/>
<path d="M680.599 216.6C677.094 216.853 673.717 218.02 670.805 219.986C667.892 221.951 665.545 224.645 663.999 227.8C662.427 230.951 661.719 234.462 661.947 237.976C662.176 241.489 663.332 244.879 665.299 247.8C667.248 250.739 669.94 253.11 673.101 254.673C676.262 256.236 679.78 256.935 683.299 256.7C686.818 256.454 690.212 255.291 693.141 253.326C696.071 251.361 698.436 248.663 699.999 245.5C701.556 242.341 702.247 238.825 702.002 235.311C701.756 231.797 700.581 228.412 698.599 225.5C696.642 222.569 693.949 220.203 690.79 218.641C687.631 217.079 684.116 216.375 680.599 216.6Z" fill="#C5C4FE"/>
<path d="M1058.4 387L1055.8 381.9L1058.4 376.9L1061 381.9L1058.4 387Z" fill="#66BCFF"/>
<path d="M1128 33.7C1121.91 22.0961 1115.16 10.8449 1107.8 0L787.8 0C798.2 21.7 814.3 42.7 836.6 60.7C823.8 131.9 878.5 186.3 948.5 186.3C1005.7 228.3 1066.2 246.3 1121.1 210.9C1123.53 209.38 1125.83 207.675 1128 205.8V33.7Z" fill="#D0BAFF"/>
<path d="M1128 26.5C1123.3 17.8 1118.1 8.9 1112.3 0H790.6C801.808 19.3515 816.527 36.4435 834 50.4C821.2 121.7 875.9 176.1 945.9 176.1C1003.1 218 1070.2 242.8 1126.6 207L1128 206.1V26.5Z" fill="#C1A3FF"/>
<path d="M1128 26.5C1123.3 17.8 1118.1 8.9 1112.3 0H875.9C885.5 89 946.4 105.5 970 110.6C995.9 116.2 997.9 117 1003 137.3C1018.1 196.3 1079.8 233.7 1128 205.3V26.5Z" fill="#B095FF"/>
<path d="M116.4 350.4C87.9 354.8 82.4 356.6 65.4 344.3C56.4 337.8 28.3 320.4 0 319V600H247.6C244.3 576.1 234.2 552.1 218.8 529C283 503.9 288.6 443.7 251.1 394C213.6 344.3 152.4 345 116.4 350.4Z" fill="#CAB0FF"/>
<path d="M110.3 352.7C82.8 355.7 77.5 357.3 61.2 344.6C52.7 338.1 26.7 320.6 0 317.7V600H237.8C233.9 577.4 224.2 554.5 209.9 532.2C272.8 510.5 277.8 451.3 240.9 400.9C204 350.5 145 349 110.3 352.7Z" fill="#C09EFF"/>
<path d="M149.5 533.6C158.7 528.2 195.7 491 159.9 445.3C124.1 399.6 92 393 73.7 387.9C58.9 383.8 36.9 328.6 0 318.9V600H178.1C172.246 588.365 165.666 577.109 158.4 566.3C146.3 548.5 140.2 539 149.5 533.6Z" fill="#AD93FF"/>
<path d="M136.4 0C110.7 31.3 97.8999 65.3 98.9999 92C100.8 131.7 140.7 133.6 174.5 118.7C210.8 135.3 256.1 112.3 280.5 56.7C322.2 52.9 340.7 24.3 349.4 0H136.4Z" fill="#D0BAFF"/>
<path d="M131.4 0C108 30.2 96.4002 62.4 97.5002 88C99.2002 128 139.4 129.9 173.3 114.8C209.9 131.6 255.5 108.4 280 52.5C319.4 48.9 338.2 23.3 347.6 0H131.4Z" fill="#C1A3FF"/>
<path d="M131.4 0C108 30.2 96.4002 62.4 97.5002 88C98.0002 101.6 103.1 110.8 110.8 116.4C131.7 129.9 169.5 115.1 202.1 63.6C236.8 75.9 270.8 43.4 285.1 0L131.4 0Z" fill="#B095FF"/>
<path d="M344 219.2C332.7 238.9 334.8 250.4 338.2 255.2C341.6 260 351.8 260.3 358.2 244.9C358.322 244.621 358.5 244.37 358.724 244.164C358.948 243.957 359.212 243.799 359.5 243.7C377.7 237.1 379.4 219.9 378.4 210.7C376.9 196.3 361 189.7 344 219.2Z" fill="#DBD9FF"/>
<path opacity="0.22" d="M686.7 434.4C714 419.8 721.1 407.7 721.5 401.5C721.9 395.3 711.8 390.8 693 403.3C692.328 403.681 691.572 403.888 690.8 403.9C667.2 402.7 651.6 418.9 645.2 428.3C635.2 443.1 645.9 456.3 686.7 434.4Z" fill="#C9FAFF"/>
<path d="M376.5 205.2C375.963 203.198 374.764 201.436 373.1 200.2C366.7 195.7 355.6 199 344 219.2C332.4 239.4 334.8 250.4 338.2 255.2C339.101 256.463 340.406 257.381 341.9 257.8C348.1 259.6 354.2 251.4 353.7 240C353.5 237 354 236.8 355.7 235.7C372.2 225.3 378.9 213.3 376.5 205.2Z" fill="#D1C4FF"/>
<path d="M800.9 363.7C812.5 346.2 812.5 334.9 806.6 330.8C800.7 326.7 791.6 329.6 788.7 331.8C777.8 330.6 767.5 337.3 768 348C768.416 353.52 770.751 358.721 774.6 362.7C770.9 377.8 779.4 396.2 800.9 363.7Z" fill="#C1B0FF"/>
<path d="M800.9 363.7C811.9 347 812.4 335.9 807.3 331.4C802.2 326.9 797.1 331.1 793.5 337.8C780.6 334.8 777.3 347.1 779.2 362C776.7 368.6 773.5 379.6 779.2 381.5H779.9C784.4 382.5 791.3 378.1 800.9 363.7Z" fill="#B19CFF"/>
<path opacity="0.7" d="M191.3 271.5C194.3 260.1 199 251.5 201.8 252.2C204.6 252.9 201.4 262 198.4 273.3C195.4 284.6 193.6 294.1 190.9 293.4C188.2 292.7 188.3 282.8 191.3 271.5Z" fill="#96C0FF"/>
<path opacity="0.22" d="M785 79.9999C794.1 87.3999 799.6 95.7999 797.3 98.5999C795 101.4 788.2 94.5999 779.1 87.1999C770 79.7999 762 74.4999 764.2 71.6999C766.4 68.8999 775.8 72.4999 785 79.9999Z" fill="#C9FAFF"/>
<path opacity="0.22" d="M390.7 308.5C394.087 321.134 398.814 333.37 404.8 345C405.076 345.517 405.246 346.085 405.3 346.668C405.354 347.252 405.29 347.841 405.113 348.4C404.936 348.959 404.649 349.477 404.269 349.923C403.889 350.37 403.424 350.736 402.9 351C402.009 351.459 400.989 351.6 400.007 351.4C399.025 351.2 398.141 350.671 397.5 349.9L396.9 349.1C394.664 346.428 392.689 343.548 391 340.5C390.2 339 389.4 337.4 388.7 335.8C388 334.2 387.3 332.7 386.7 331C385.457 327.769 384.422 324.463 383.6 321.1C382.76 317.721 382.224 314.274 382 310.8V309.8C381.973 308.623 382.408 307.483 383.212 306.623C384.015 305.763 385.124 305.252 386.3 305.2C387.304 305.149 388.293 305.452 389.097 306.055C389.901 306.657 390.468 307.523 390.7 308.5Z" fill="#C9FAFF"/>
<path d="M840.1 274L833.4 254.4C832.4 251.1 831.1 248 829.8 244.7L826 235.1C825.425 233.674 825.409 232.084 825.956 230.648C826.503 229.211 827.572 228.034 828.949 227.352C830.327 226.669 831.911 226.532 833.385 226.968C834.859 227.403 836.114 228.379 836.9 229.7L837.3 230.4C839.2 233.5 840.9 236.6 842.5 239.8C843.2 241.4 843.9 243.1 844.7 244.7C845.5 246.3 845.9 248 846.5 249.7C847.6 253.1 848.7 256.5 849.6 259.9C850.524 263.357 851.259 266.862 851.8 270.4V271.2C851.986 272.691 851.615 274.199 850.758 275.433C849.9 276.668 848.618 277.543 847.155 277.89C845.693 278.237 844.154 278.032 842.833 277.314C841.513 276.596 840.504 275.416 840 274H840.1Z" fill="#BD8BFD"/>
<path opacity="0.43" d="M362.3 413L385.9 442.1C389.7 447 394 451.5 398.2 456.2L410.7 470C414.8 474.5 413.9 482.2 408.8 487.1C403.7 492 397.9 492.2 393.7 489.1L392.4 488.2C387.144 484.426 382.165 480.282 377.5 475.8C375.2 473.7 373 471.4 370.7 469.1C368.4 466.8 366.5 464.3 364.3 461.8C360.3 456.8 356.4 451.7 352.8 446.3C349.07 440.961 345.696 435.382 342.7 429.6L342 428.3C339.2 422.8 341.7 415.3 347.6 411.5C353.5 407.7 359 408.9 362.3 413Z" fill="#FD96FF"/>
<path d="M633.2 141.3C634.028 141.3 634.7 140.628 634.7 139.8C634.7 138.972 634.028 138.3 633.2 138.3C632.371 138.3 631.7 138.972 631.7 139.8C631.7 140.628 632.371 141.3 633.2 141.3Z" fill="#B7CCFF"/>
<path d="M1085.6 393.4C1086.43 393.4 1087.1 392.728 1087.1 391.9C1087.1 391.071 1086.43 390.4 1085.6 390.4C1084.77 390.4 1084.1 391.071 1084.1 391.9C1084.1 392.728 1084.77 393.4 1085.6 393.4Z" fill="#B7CCFF"/>
<path d="M453.7 457.5C454.528 457.5 455.2 456.828 455.2 456C455.2 455.172 454.528 454.5 453.7 454.5C452.871 454.5 452.2 455.172 452.2 456C452.2 456.828 452.871 457.5 453.7 457.5Z" fill="#B7CCFF"/>
<path d="M723.5 283.7C725.101 283.7 726.4 282.402 726.4 280.8C726.4 279.198 725.101 277.9 723.5 277.9C721.898 277.9 720.6 279.198 720.6 280.8C720.6 282.402 721.898 283.7 723.5 283.7Z" fill="url(#paint10_linear_3832_33883)"/>
<path d="M975.4 335.2C977.002 335.2 978.3 333.902 978.3 332.3C978.3 330.698 977.002 329.4 975.4 329.4C973.798 329.4 972.5 330.698 972.5 332.3C972.5 333.902 973.798 335.2 975.4 335.2Z" fill="url(#paint11_linear_3832_33883)"/>
<path d="M634.9 217.2C635.618 217.2 636.2 216.618 636.2 215.9C636.2 215.182 635.618 214.6 634.9 214.6C634.182 214.6 633.6 215.182 633.6 215.9C633.6 216.618 634.182 217.2 634.9 217.2Z" fill="#FFE75C"/>
<path d="M450.7 384.3C451.142 384.3 451.5 383.942 451.5 383.5C451.5 383.058 451.142 382.7 450.7 382.7C450.258 382.7 449.9 383.058 449.9 383.5C449.9 383.942 450.258 384.3 450.7 384.3Z" fill="#FFE75C"/>
<path d="M365.1 323.9C365.652 323.9 366.1 323.452 366.1 322.9C366.1 322.348 365.652 321.9 365.1 321.9C364.548 321.9 364.1 322.348 364.1 322.9C364.1 323.452 364.548 323.9 365.1 323.9Z" fill="#B7CCFF"/>
<path d="M263.9 214.5C264.452 214.5 264.9 214.052 264.9 213.5C264.9 212.948 264.452 212.5 263.9 212.5C263.348 212.5 262.9 212.948 262.9 213.5C262.9 214.052 263.348 214.5 263.9 214.5Z" fill="#B7CCFF"/>
<path d="M334.7 305.1C335.142 305.1 335.5 304.742 335.5 304.3C335.5 303.858 335.142 303.5 334.7 303.5C334.258 303.5 333.9 303.858 333.9 304.3C333.9 304.742 334.258 305.1 334.7 305.1Z" fill="#B7CCFF"/>
<path d="M480.8 156.4C481.131 156.4 481.4 156.131 481.4 155.8C481.4 155.469 481.131 155.2 480.8 155.2C480.468 155.2 480.2 155.469 480.2 155.8C480.2 156.131 480.468 156.4 480.8 156.4Z" fill="#B7CCFF"/>
<path d="M144.6 329.8C144.931 329.8 145.2 329.531 145.2 329.2C145.2 328.868 144.931 328.6 144.6 328.6C144.269 328.6 144 328.868 144 329.2C144 329.531 144.269 329.8 144.6 329.8Z" fill="#B7CCFF"/>
<path d="M43.9999 101.8C44.3313 101.8 44.5999 101.531 44.5999 101.2C44.5999 100.868 44.3313 100.6 43.9999 100.6C43.6685 100.6 43.3999 100.868 43.3999 101.2C43.3999 101.531 43.6685 101.8 43.9999 101.8Z" fill="#B7CCFF"/>
<path d="M438.1 109.9C438.431 109.9 438.7 109.631 438.7 109.3C438.7 108.969 438.431 108.7 438.1 108.7C437.769 108.7 437.5 108.969 437.5 109.3C437.5 109.631 437.769 109.9 438.1 109.9Z" fill="#B7CCFF"/>
<path d="M80.4999 243.6C80.8313 243.6 81.0999 243.331 81.0999 243C81.0999 242.669 80.8313 242.4 80.4999 242.4C80.1685 242.4 79.8999 242.669 79.8999 243C79.8999 243.331 80.1685 243.6 80.4999 243.6Z" fill="#B7CCFF"/>
<path d="M681.4 396.2C681.731 396.2 682 395.931 682 395.6C682 395.269 681.731 395 681.4 395C681.068 395 680.8 395.269 680.8 395.6C680.8 395.931 681.068 396.2 681.4 396.2Z" fill="#B7CCFF"/>
<path d="M347.8 85.5999C348.131 85.5999 348.4 85.3313 348.4 84.9999C348.4 84.6685 348.131 84.3999 347.8 84.3999C347.468 84.3999 347.2 84.6685 347.2 84.9999C347.2 85.3313 347.468 85.5999 347.8 85.5999Z" fill="#B7CCFF"/>
<path d="M538.1 101.2C538.763 101.2 539.3 100.663 539.3 100C539.3 99.3373 538.763 98.8 538.1 98.8C537.437 98.8 536.9 99.3373 536.9 100C536.9 100.663 537.437 101.2 538.1 101.2Z" fill="#B7CCFF"/>
<path d="M382 156.4C382.663 156.4 383.2 155.863 383.2 155.2C383.2 154.537 382.663 154 382 154C381.337 154 380.8 154.537 380.8 155.2C380.8 155.863 381.337 156.4 382 156.4Z" fill="#B7CCFF"/>
<path d="M67.8997 128.5C68.5625 128.5 69.0997 127.963 69.0997 127.3C69.0997 126.637 68.5625 126.1 67.8997 126.1C67.237 126.1 66.6997 126.637 66.6997 127.3C66.6997 127.963 67.237 128.5 67.8997 128.5Z" fill="#B7CCFF"/>
<path d="M296.1 372.8C296.763 372.8 297.3 372.263 297.3 371.6C297.3 370.937 296.763 370.4 296.1 370.4C295.437 370.4 294.9 370.937 294.9 371.6C294.9 372.263 295.437 372.8 296.1 372.8Z" fill="#B7CCFF"/>
<path d="M785.5 413.3C786.163 413.3 786.7 412.763 786.7 412.1C786.7 411.437 786.163 410.9 785.5 410.9C784.837 410.9 784.3 411.437 784.3 412.1C784.3 412.763 784.837 413.3 785.5 413.3Z" fill="#B7CCFF"/>
<path d="M758.7 396.8C759.363 396.8 759.9 396.263 759.9 395.6C759.9 394.937 759.363 394.4 758.7 394.4C758.037 394.4 757.5 394.937 757.5 395.6C757.5 396.263 758.037 396.8 758.7 396.8Z" fill="#B7CCFF"/>
<path d="M908.4 252.5C908.952 252.5 909.4 252.052 909.4 251.5C909.4 250.948 908.952 250.5 908.4 250.5C907.848 250.5 907.4 250.948 907.4 251.5C907.4 252.052 907.848 252.5 908.4 252.5Z" fill="#B7CCFF"/>
<path d="M982.9 251.8C983.452 251.8 983.9 251.352 983.9 250.8C983.9 250.248 983.452 249.8 982.9 249.8C982.348 249.8 981.9 250.248 981.9 250.8C981.9 251.352 982.348 251.8 982.9 251.8Z" fill="#B7CCFF"/>
<path d="M837.2 396.6C837.752 396.6 838.2 396.152 838.2 395.6C838.2 395.048 837.752 394.6 837.2 394.6C836.647 394.6 836.2 395.048 836.2 395.6C836.2 396.152 836.647 396.6 837.2 396.6Z" fill="#B7CCFF"/>
<path d="M423.2 109.3C423.752 109.3 424.2 108.852 424.2 108.3C424.2 107.748 423.752 107.3 423.2 107.3C422.647 107.3 422.2 107.748 422.2 108.3C422.2 108.852 422.647 109.3 423.2 109.3Z" fill="#B7CCFF"/>
<path d="M948.7 249.3C949.252 249.3 949.7 248.852 949.7 248.3C949.7 247.748 949.252 247.3 948.7 247.3C948.147 247.3 947.7 247.748 947.7 248.3C947.7 248.852 948.147 249.3 948.7 249.3Z" fill="#B7CCFF"/>
<path d="M963 236.2C963.552 236.2 964 235.752 964 235.2C964 234.648 963.552 234.2 963 234.2C962.448 234.2 962 234.648 962 235.2C962 235.752 962.448 236.2 963 236.2Z" fill="#B7CCFF"/>
<path d="M706.1 68.6999L704.6 65.6999L706.1 62.7L707.7 65.6999L706.1 68.6999Z" fill="#B7CCFF"/>
<path d="M540.4 470.5L537.7 465.4L540.4 460.4L543 465.4L540.4 470.5Z" fill="#91FFAD"/>
<path d="M813.1 137.4L810.5 132.3L813.1 127.3L815.7 132.3L813.1 137.4Z" fill="#91FFAD"/>
<path d="M706.1 68.6999L704.6 65.6999L706.1 62.7L707.7 65.6999L706.1 68.6999Z" fill="#B7CCFF"/>
<path d="M315.2 444L313.7 441L315.2 438L316.8 441L315.2 444Z" fill="#B7CCFF"/>
<path d="M471.1 278.8C471.652 278.8 472.1 278.352 472.1 277.8C472.1 277.248 471.652 276.8 471.1 276.8C470.548 276.8 470.1 277.248 470.1 277.8C470.1 278.352 470.548 278.8 471.1 278.8Z" fill="#B7CCFF"/>
<path d="M194.9 231C195.452 231 195.9 230.552 195.9 230C195.9 229.448 195.452 229 194.9 229C194.348 229 193.9 229.448 193.9 230C193.9 230.552 194.348 231 194.9 231Z" fill="#B7CCFF"/>
<path d="M224.1 266.8C224.652 266.8 225.1 266.352 225.1 265.8C225.1 265.248 224.652 264.8 224.1 264.8C223.548 264.8 223.1 265.248 223.1 265.8C223.1 266.352 223.548 266.8 224.1 266.8Z" fill="#B7CCFF"/>
<path d="M196.9 193.9C197.452 193.9 197.9 193.452 197.9 192.9C197.9 192.348 197.452 191.9 196.9 191.9C196.348 191.9 195.9 192.348 195.9 192.9C195.9 193.452 196.348 193.9 196.9 193.9Z" fill="#B7CCFF"/>
<path d="M947.2 298.9C947.752 298.9 948.2 298.452 948.2 297.9C948.2 297.348 947.752 296.9 947.2 296.9C946.647 296.9 946.2 297.348 946.2 297.9C946.2 298.452 946.647 298.9 947.2 298.9Z" fill="#B7CCFF"/>
<path d="M877.7 391.8C878.252 391.8 878.7 391.352 878.7 390.8C878.7 390.248 878.252 389.8 877.7 389.8C877.147 389.8 876.7 390.248 876.7 390.8C876.7 391.352 877.147 391.8 877.7 391.8Z" fill="#B7CCFF"/>
<path d="M1097.5 262.1C1098.05 262.1 1098.5 261.652 1098.5 261.1C1098.5 260.548 1098.05 260.1 1097.5 260.1C1096.95 260.1 1096.5 260.548 1096.5 261.1C1096.5 261.652 1096.95 262.1 1097.5 262.1Z" fill="#B7CCFF"/>
<path d="M1021.5 305.3C1022.05 305.3 1022.5 304.852 1022.5 304.3C1022.5 303.748 1022.05 303.3 1021.5 303.3C1020.95 303.3 1020.5 303.748 1020.5 304.3C1020.5 304.852 1020.95 305.3 1021.5 305.3Z" fill="#B7CCFF"/>
<path d="M662.4 92.5999C662.952 92.5999 663.4 92.1521 663.4 91.5999C663.4 91.0476 662.952 90.5999 662.4 90.5999C661.848 90.5999 661.4 91.0476 661.4 91.5999C661.4 92.1521 661.848 92.5999 662.4 92.5999Z" fill="#B7CCFF"/>
<g style="mix-blend-mode:screen" opacity="0.7">
<path d="M453.7 296.5L450.5 290.2L453.7 284L457 290.2L453.7 296.5Z" fill="white"/>
</g>
<g style="mix-blend-mode:screen" opacity="0.29">
<path d="M624.9 232.4L624 230.6L624.9 228.8L625.9 230.6L624.9 232.4Z" fill="white"/>
</g>
<path d="M204.2 132.2C202.435 131.094 200.93 129.618 199.791 127.874C198.652 126.131 197.904 124.161 197.6 122.1L196.6 115C196.548 114.846 196.456 114.709 196.332 114.603C196.209 114.498 196.06 114.428 195.9 114.4C195.73 114.398 195.566 114.458 195.437 114.568C195.308 114.679 195.224 114.832 195.2 115L194.1 122.1C193.814 124.154 193.084 126.121 191.962 127.865C190.839 129.609 189.351 131.089 187.6 132.2L186.6 132.8C186.426 132.954 186.319 133.169 186.3 133.4C186.319 133.631 186.426 133.846 186.6 134L187.6 134.6C189.351 135.711 190.839 137.19 191.962 138.934C193.084 140.678 193.814 142.646 194.1 144.7L195.2 151.8C195.224 151.968 195.308 152.121 195.437 152.231C195.566 152.342 195.73 152.402 195.9 152.4C196.06 152.372 196.209 152.302 196.332 152.196C196.456 152.091 196.548 151.954 196.6 151.8L197.6 144.7C197.904 142.639 198.652 140.669 199.791 138.925C200.93 137.182 202.435 135.706 204.2 134.6L205.1 134C205.273 133.846 205.381 133.631 205.4 133.4C205.381 133.169 205.273 132.954 205.1 132.8L204.2 132.2Z" fill="#66BCFF"/>
<path d="M678 264.5C677.26 264.051 676.633 263.439 676.165 262.711C675.697 261.984 675.401 261.159 675.3 260.3L674.8 257.4C674.8 257.3 674.7 257.2 674.5 257.2L674.2 257.4L673.8 260.3C673.698 261.159 673.402 261.984 672.934 262.711C672.466 263.439 671.839 264.051 671.1 264.5L670.7 264.7C670.7 264.8 670.6 264.9 670.6 265C670.606 265.077 670.642 265.149 670.7 265.2L671.1 265.5C671.844 265.943 672.475 266.554 672.944 267.282C673.412 268.011 673.705 268.839 673.8 269.7L674.2 272.6L674.5 272.8C674.7 272.8 674.8 272.7 674.8 272.6L675.3 269.7C675.394 268.839 675.687 268.011 676.156 267.282C676.624 266.554 677.255 265.943 678 265.5L678.3 265.2C678.353 265.2 678.404 265.179 678.441 265.141C678.479 265.104 678.5 265.053 678.5 265C678.5 264.9 678.4 264.8 678.3 264.7L678 264.5Z" fill="white"/>
<path d="M314 323.2C312.256 322.07 310.768 320.587 309.632 318.848C308.495 317.108 307.735 315.151 307.4 313.1L306.4 306C306.376 305.832 306.291 305.679 306.162 305.568C306.034 305.458 305.869 305.398 305.7 305.4C305.3 305.4 305 305.6 305 306L303.9 313.1C303.588 315.146 302.848 317.104 301.728 318.844C300.608 320.585 299.133 322.069 297.4 323.2L296.4 323.8C296.304 323.867 296.226 323.957 296.173 324.062C296.121 324.167 296.096 324.283 296.1 324.4C296.084 324.518 296.105 324.639 296.158 324.746C296.212 324.853 296.296 324.941 296.4 325L297.4 325.6C299.145 326.742 300.627 328.242 301.747 330C302.868 331.759 303.602 333.736 303.9 335.8L305 342.9C305.024 343.068 305.108 343.221 305.237 343.331C305.366 343.442 305.53 343.502 305.7 343.5C305.86 343.472 306.009 343.402 306.132 343.296C306.256 343.191 306.348 343.054 306.4 342.9L307.4 335.8C307.716 333.73 308.467 331.75 309.605 329.991C310.743 328.233 312.241 326.736 314 325.6L314.9 325C315.004 324.941 315.088 324.853 315.141 324.746C315.195 324.639 315.215 324.518 315.2 324.4C315.204 324.283 315.179 324.167 315.126 324.062C315.074 323.957 314.996 323.867 314.9 323.8L314 323.2Z" fill="#FFE75C"/>
<path d="M444.4 328.3C443.066 327.447 441.929 326.319 441.067 324.991C440.204 323.663 439.636 322.166 439.4 320.6L438.6 315.2C438.577 315.085 438.514 314.982 438.422 314.909C438.331 314.836 438.217 314.798 438.1 314.8C437.983 314.798 437.869 314.836 437.778 314.909C437.686 314.982 437.623 315.085 437.6 315.2L436.7 320.6C436.508 322.167 435.969 323.672 435.121 325.004C434.273 326.337 433.139 327.462 431.8 328.3L431.1 328.7C431.004 328.741 430.923 328.812 430.87 328.902C430.816 328.991 430.791 329.096 430.8 329.2C430.791 329.304 430.816 329.408 430.87 329.498C430.923 329.588 431.004 329.658 431.1 329.7L431.8 330.1C433.139 330.937 434.273 332.063 435.121 333.396C435.969 334.728 436.508 336.233 436.7 337.8L437.6 343.2C437.623 343.315 437.686 343.417 437.778 343.49C437.869 343.564 437.983 343.602 438.1 343.6C438.217 343.602 438.331 343.564 438.422 343.49C438.514 343.417 438.577 343.315 438.6 343.2L439.4 337.8C439.636 336.234 440.204 334.737 441.067 333.409C441.929 332.081 443.066 330.952 444.4 330.1L445.1 329.7C445.222 329.561 445.293 329.385 445.3 329.2C445.293 329.015 445.222 328.838 445.1 328.7L444.4 328.3Z" fill="#8CD9FF"/>
<path opacity="0.6" d="M514.4 194.1C513.831 193.759 513.347 193.294 512.984 192.74C512.62 192.186 512.386 191.557 512.3 190.9L512 188.6H511.5L511.2 190.9C511.094 191.551 510.852 192.172 510.49 192.723C510.128 193.275 509.655 193.744 509.1 194.1L508.8 194.3V194.5C508.8 194.6 508.8 194.7 508.9 194.7L509.2 194.9C509.755 195.256 510.229 195.725 510.59 196.276C510.952 196.828 511.194 197.449 511.3 198.1L511.6 200.4L511.8 200.6L512.1 200.4L512.4 198.1C512.486 197.443 512.72 196.814 513.084 196.26C513.447 195.705 513.931 195.241 514.5 194.9L514.8 194.7V194.5V194.3L514.4 194.1Z" fill="#FFF2A6"/>
<path opacity="0.7" d="M804.1 270.8C803.529 270.438 803.045 269.955 802.682 269.384C802.319 268.814 802.086 268.17 802 267.5L801.6 265.3C801.6 265.247 801.579 265.196 801.541 265.158C801.504 265.121 801.453 265.1 801.4 265.1C801.347 265.1 801.296 265.121 801.258 265.158C801.221 265.196 801.2 265.247 801.2 265.3L800.9 267.5C800.795 268.165 800.555 268.801 800.193 269.368C799.832 269.936 799.358 270.423 798.8 270.8L798.5 271C798.4 271 798.4 271.1 798.4 271.2C798.406 271.277 798.442 271.349 798.5 271.4H798.8C799.358 271.776 799.832 272.263 800.193 272.831C800.555 273.399 800.795 274.035 800.9 274.7L801.2 276.9C801.2 276.953 801.221 277.004 801.258 277.041C801.296 277.079 801.347 277.1 801.4 277.1C801.453 277.1 801.504 277.079 801.541 277.041C801.579 277.004 801.6 276.953 801.6 276.9L802 274.7C802.086 274.029 802.319 273.386 802.682 272.816C803.045 272.245 803.529 271.762 804.1 271.4H804.4V271.2V271L804.1 270.8Z" fill="#96FFFD"/>
<path d="M726.1 114C725.545 113.644 725.071 113.175 724.709 112.623C724.348 112.072 724.106 111.451 724 110.8L723.7 108.5C723.7 108.447 723.679 108.396 723.641 108.359C723.604 108.321 723.553 108.3 723.5 108.3L723.2 108.5L722.9 110.8C722.794 111.451 722.552 112.072 722.19 112.623C721.829 113.175 721.355 113.644 720.8 114L720.5 114.2C720.5 114.3 720.4 114.3 720.4 114.4V114.6L720.7 114.8C721.255 115.156 721.729 115.625 722.09 116.177C722.452 116.728 722.694 117.349 722.8 118L723.1 120.3L723.4 120.5C723.453 120.5 723.504 120.479 723.541 120.441C723.579 120.404 723.6 120.353 723.6 120.3L723.9 118C724.006 117.349 724.248 116.728 724.609 116.177C724.971 115.625 725.445 115.156 726 114.8L726.3 114.6C726.4 114.6 726.4 114.5 726.4 114.4C726.4 114.3 726.4 114.3 726.3 114.2L726.1 114Z" fill="#765EFF"/>
<path opacity="0.6" d="M495.7 206.8C494.683 206.144 493.818 205.278 493.163 204.26C492.507 203.243 492.077 202.097 491.9 200.9L491.3 196.8C491.3 196.6 491.1 196.5 490.9 196.5C490.7 196.5 490.5 196.6 490.5 196.8L489.8 200.9C489.641 202.091 489.228 203.234 488.59 204.252C487.952 205.269 487.103 206.138 486.1 206.8L485.5 207.1C485.438 207.147 485.387 207.207 485.353 207.276C485.318 207.346 485.3 207.422 485.3 207.5C485.3 207.578 485.318 207.654 485.353 207.724C485.387 207.793 485.438 207.853 485.5 207.9L486.1 208.2C487.103 208.862 487.952 209.731 488.59 210.748C489.228 211.766 489.641 212.909 489.8 214.1L490.5 218.2C490.5 218.4 490.7 218.5 490.9 218.5C491.1 218.5 491.3 218.4 491.3 218.2L491.9 214.1C492.077 212.903 492.507 211.757 493.163 210.74C493.818 209.722 494.683 208.856 495.7 208.2L496.2 207.9C496.262 207.853 496.312 207.793 496.347 207.724C496.382 207.654 496.4 207.578 496.4 207.5C496.4 207.422 496.382 207.346 496.347 207.276C496.312 207.207 496.262 207.147 496.2 207.1L495.7 206.8Z" fill="#FF78B9"/>
<path d="M647.5 365.3C646.665 364.739 645.952 364.017 645.402 363.175C644.852 362.333 644.478 361.389 644.3 360.4L643.8 357C643.8 356.92 643.768 356.844 643.712 356.788C643.656 356.732 643.579 356.7 643.5 356.7C643.42 356.7 643.344 356.732 643.288 356.788C643.231 356.844 643.2 356.92 643.2 357L642.6 360.4C642.463 361.391 642.116 362.341 641.581 363.186C641.046 364.031 640.337 364.752 639.5 365.3L639 365.6C638.964 365.641 638.936 365.688 638.919 365.74C638.902 365.791 638.895 365.846 638.9 365.9C638.9 366 638.9 366.2 639 366.2L639.5 366.5C640.337 367.048 641.046 367.769 641.581 368.614C642.116 369.459 642.463 370.409 642.6 371.4L643.2 374.8C643.2 374.879 643.231 374.956 643.288 375.012C643.344 375.068 643.42 375.1 643.5 375.1C643.579 375.1 643.656 375.068 643.712 375.012C643.768 374.956 643.8 374.879 643.8 374.8L644.3 371.4C644.478 370.41 644.852 369.467 645.402 368.625C645.952 367.783 646.665 367.061 647.5 366.5L648 366.2C648.1 366.2 648.1 366 648.1 365.9C648.104 365.846 648.098 365.791 648.081 365.74C648.064 365.688 648.036 365.641 648 365.6L647.5 365.3Z" fill="#8C4FFD"/>
<g style="mix-blend-mode:screen" opacity="0.7">
<path d="M216.6 440.4L213.3 434.3L216.6 428.1L219.8 434.3L216.6 440.4Z" fill="white"/>
</g>
<path opacity="0.7" d="M947.2 145.8L929 110.8L947.2 75.8L965.4 110.8L947.2 145.8Z" fill="#FD96FF"/>
<path opacity="0.7" d="M925 383.6L912.4 359.3L925 335L937.7 359.3L925 383.6Z" fill="#96FFFD"/>
<path d="M169.3 232.7C169.852 232.7 170.3 232.252 170.3 231.7C170.3 231.148 169.852 230.7 169.3 230.7C168.748 230.7 168.3 231.148 168.3 231.7C168.3 232.252 168.748 232.7 169.3 232.7Z" fill="#7C78FF"/>
<path d="M413.3 229.2C414.073 229.2 414.7 228.573 414.7 227.8C414.7 227.027 414.073 226.4 413.3 226.4C412.527 226.4 411.9 227.027 411.9 227.8C411.9 228.573 412.527 229.2 413.3 229.2Z" fill="#B7CCFF"/>
<path d="M55.1998 192.3C58.8998 181.2 64.2998 172.9 66.9998 173.8C69.6998 174.7 65.8998 183.5 62.0998 194.7C58.2998 205.9 55.8998 215.1 53.2998 214.2C50.6998 213.3 51.3998 203.4 55.1998 192.3Z" fill="#8C4FFD"/>
<path d="M855.6 372.7C856.207 372.7 856.7 372.208 856.7 371.6C856.7 370.992 856.207 370.5 855.6 370.5C854.992 370.5 854.5 370.992 854.5 371.6C854.5 372.208 854.992 372.7 855.6 372.7Z" fill="url(#paint12_linear_3832_33883)"/>
<path d="M780.8 164.3C781.407 164.3 781.9 163.807 781.9 163.2C781.9 162.592 781.407 162.1 780.8 162.1C780.192 162.1 779.7 162.592 779.7 163.2C779.7 163.807 780.192 164.3 780.8 164.3Z" fill="#7C78FF"/>
<path d="M601.206 322.895C603.396 303.058 591.056 285.419 573.644 283.496C556.231 281.574 540.34 296.097 538.15 315.933C535.96 335.77 548.301 353.409 565.713 355.332C583.125 357.254 599.016 342.732 601.206 322.895Z" fill="#423D80"/>
<path d="M586.363 326.776L576.326 333.12L586.042 353.837L600.738 344.603L586.363 326.776Z" fill="url(#paint13_linear_3832_33883)"/>
<path d="M597.205 337.857H597.124C595.92 336.171 591.583 336.974 587.408 339.624C583.232 342.274 580.582 345.807 581.546 347.654L596.723 379.775L619.448 365.481L597.205 337.857Z" fill="url(#paint14_linear_3832_33883)"/>
<path d="M612.022 378.754C618.296 374.818 621.701 368.948 619.627 365.641C617.553 362.335 610.785 362.846 604.511 366.781C598.237 370.717 594.832 376.588 596.906 379.894C598.98 383.2 605.747 382.69 612.022 378.754Z" fill="#A5B4CF"/>
<path d="M610.696 359.606C611.13 359.227 610.868 358.215 610.11 357.346C609.352 356.477 608.385 356.08 607.951 356.459C607.516 356.838 607.779 357.85 608.537 358.719C609.295 359.588 610.261 359.985 610.696 359.606Z" fill="#BAC6DB"/>
<path d="M611.467 377.87C617.252 374.24 620.51 369.014 618.742 366.196C616.975 363.378 610.852 364.036 605.066 367.666C599.28 371.295 596.023 376.522 597.79 379.339C599.558 382.157 605.681 381.499 611.467 377.87Z" fill="url(#paint15_linear_3832_33883)"/>
<path d="M630.717 412.702C641.685 406.242 643.112 388.335 633.906 372.706C624.7 357.077 608.346 349.644 597.379 356.104C586.412 362.565 584.984 380.471 594.19 396.101C603.397 411.73 619.75 419.163 630.717 412.702Z" fill="url(#paint16_radial_3832_33883)"/>
<path d="M602.022 383.389C604.753 388.126 621.054 396.719 621.054 396.719C621.054 396.719 621.937 378.249 619.207 373.511C617.897 371.233 615.736 369.567 613.198 368.882C610.661 368.197 607.955 368.548 605.676 369.858C603.397 371.168 601.732 373.329 601.047 375.866C600.362 378.404 600.712 381.11 602.022 383.389Z" fill="url(#paint17_linear_3832_33883)"/>
<path d="M609.812 383.308C610.615 384.834 617.681 390.616 617.681 390.616C617.681 390.616 616.075 381.702 615.272 380.176C614.851 379.448 614.161 378.913 613.35 378.688C612.539 378.462 611.672 378.565 610.936 378.972C610.574 379.179 610.257 379.457 610.004 379.789C609.75 380.12 609.566 380.499 609.461 380.903C609.356 381.307 609.333 381.728 609.394 382.141C609.454 382.554 609.596 382.951 609.812 383.308Z" fill="#FFF2A6"/>
<path d="M606.872 354.815C607.306 354.436 607.044 353.424 606.286 352.555C605.528 351.686 604.561 351.289 604.127 351.668C603.693 352.047 603.955 353.059 604.713 353.928C605.471 354.797 606.438 355.194 606.872 354.815Z" fill="#BAC6DB"/>
<path d="M580.261 328.542L565.726 332.236L569.42 360.743L590.459 355.443L580.261 328.542Z" fill="url(#paint18_linear_3832_33883)"/>
<path d="M578.956 353.591C585.193 352.024 589.715 348.627 589.056 346.003C588.397 343.379 582.806 342.522 576.569 344.089C570.332 345.656 565.811 349.053 566.47 351.676C567.129 354.3 572.719 355.157 578.956 353.591Z" fill="url(#paint19_linear_3832_33883)"/>
<path d="M588.853 345.968L566.369 351.589L571.99 395.916L604.753 387.645L588.853 345.968Z" fill="url(#paint20_linear_3832_33883)"/>
<path d="M590.794 400.757C599.87 398.478 606.255 392.759 605.056 387.985C603.857 383.21 595.527 381.188 586.451 383.467C577.375 385.747 570.99 391.466 572.19 396.24C573.389 401.015 581.718 403.037 590.794 400.757Z" fill="#ADBCD6"/>
<path d="M590.462 399.433C598.806 397.337 604.748 392.361 603.732 388.317C602.717 384.274 595.129 382.695 586.784 384.791C578.439 386.888 572.498 391.864 573.514 395.908C574.529 399.951 582.117 401.529 590.462 399.433Z" fill="url(#paint21_linear_3832_33883)"/>
<path d="M596.668 377.419C597.321 377.14 597.385 375.823 596.811 374.477C596.236 373.131 595.242 372.265 594.589 372.544C593.936 372.822 593.873 374.139 594.447 375.485C595.021 376.832 596.016 377.697 596.668 377.419Z" fill="#BAC6DB"/>
<path d="M593.94 370.162C594.593 369.884 594.656 368.567 594.082 367.221C593.508 365.875 592.513 365.009 591.861 365.287C591.208 365.566 591.144 366.883 591.718 368.229C592.293 369.575 593.287 370.441 593.94 370.162Z" fill="#BAC6DB"/>
<path d="M570.383 283.252C556.411 283.252 544.205 293.53 539.627 307.824L539.868 317.22C539.868 317.22 579.216 323.644 598.971 331.995C600.414 327.916 601.2 323.633 601.299 319.307C601.781 299.392 587.969 283.252 570.383 283.252Z" fill="#FF7F14"/>
<path d="M686.099 317.38L659.358 333.441C658.434 333.971 657.366 334.195 656.307 334.083L587.488 324.125L590.057 319.307L609.892 306.459L686.099 317.38Z" fill="#DAE2ED"/>
<path d="M686.099 317.38L609.892 306.459L590.057 319.307L587.488 324.125L589.335 324.366L612.542 309.35L682.806 319.388L686.099 317.38Z" fill="#CED7E3"/>
<path d="M697.663 313.204L691.399 317.139C690.643 317.565 689.77 317.734 688.91 317.621L686.581 317.22L614.068 306.861L589.014 323.162L571.99 320.673C571.763 320.655 571.542 320.588 571.342 320.478C571.143 320.369 570.969 320.217 570.832 320.035C570.695 319.853 570.599 319.644 570.549 319.421C570.5 319.199 570.498 318.968 570.544 318.745L570.785 316.657C570.84 316.333 570.961 316.022 571.141 315.746C571.32 315.47 571.554 315.233 571.829 315.051L596.08 299.312C597.575 298.338 599.382 297.965 601.139 298.268L697.341 312.08C697.463 312.099 697.577 312.152 697.67 312.233C697.762 312.314 697.83 312.42 697.864 312.539C697.897 312.658 697.896 312.783 697.861 312.901C697.825 313.019 697.756 313.124 697.663 313.204Z" fill="white"/>
<path d="M696.056 314.168L689.793 318.103C689.068 318.534 688.218 318.704 687.384 318.585L685.055 318.183L612.542 307.824L587.488 324.126L570.464 321.636C570.009 321.576 569.595 321.341 569.311 320.981C569.026 320.622 568.892 320.165 568.938 319.709L569.259 317.621C569.367 316.984 569.711 316.41 570.223 316.015L594.474 300.276C595.968 299.302 597.775 298.929 599.533 299.232L695.735 313.044C695.857 313.062 695.971 313.115 696.064 313.196C696.156 313.278 696.223 313.384 696.257 313.503C696.291 313.621 696.29 313.747 696.255 313.865C696.219 313.983 696.15 314.088 696.056 314.168Z" fill="#E9EDF7"/>
<path d="M686.42 316.176C687.041 316.176 687.544 315.672 687.544 315.051C687.544 314.431 687.041 313.927 686.42 313.927C685.799 313.927 685.296 314.431 685.296 315.051C685.296 315.672 685.799 316.176 686.42 316.176Z" fill="#CED7E3"/>
<path d="M680.558 315.373C681.179 315.373 681.682 314.869 681.682 314.249C681.682 313.628 681.179 313.124 680.558 313.124C679.937 313.124 679.434 313.628 679.434 314.249C679.434 314.869 679.937 315.373 680.558 315.373Z" fill="#CED7E3"/>
<path d="M612.444 303.527L606.154 300.674C604.62 299.978 602.811 300.657 602.115 302.192L598.386 310.412C597.69 311.947 598.37 313.755 599.905 314.452L606.194 317.304C607.729 318.001 609.537 317.321 610.233 315.786L613.962 307.566C614.658 306.032 613.978 304.223 612.444 303.527Z" fill="#D11583"/>
<path d="M611.269 297.828L598.471 292.022C597.139 291.418 595.568 292.008 594.963 293.341L586.999 310.899C586.394 312.232 586.984 313.803 588.317 314.407L601.115 320.213C602.448 320.817 604.018 320.227 604.623 318.894L612.588 301.336C613.192 300.003 612.602 298.432 611.269 297.828Z" fill="#B4C5ED"/>
<path d="M607.395 298.058L597.888 293.745C597.242 293.452 596.481 293.738 596.187 294.384L592.134 303.321C591.841 303.967 592.127 304.729 592.773 305.022L602.28 309.334C602.926 309.627 603.688 309.341 603.981 308.695L608.035 299.758C608.328 299.112 608.041 298.351 607.395 298.058Z" fill="#9DB1E0"/>
<path d="M606.598 298.842L597.896 294.895C597.613 294.767 597.28 294.892 597.152 295.175L593.416 303.409C593.288 303.692 593.413 304.025 593.696 304.153L602.398 308.101C602.681 308.229 603.014 308.104 603.143 307.821L606.878 299.587C607.006 299.304 606.881 298.971 606.598 298.842Z" fill="#E6EDFF"/>
<path d="M600.647 297.712L600.574 297.679C598.958 296.946 597.054 297.661 596.322 299.277L596.298 299.328C595.565 300.944 596.281 302.847 597.897 303.58L597.97 303.613C599.585 304.346 601.489 303.631 602.222 302.015L602.245 301.964C602.978 300.348 602.262 298.445 600.647 297.712Z" fill="#47ED9A"/>
<path d="M603.071 306.011C603.374 305.345 603.079 304.56 602.412 304.257C601.746 303.955 600.961 304.25 600.658 304.917C600.356 305.583 600.651 306.368 601.318 306.671C601.984 306.973 602.769 306.678 603.071 306.011Z" fill="#A8ACFF"/>
<path d="M553.288 295.908L539.554 326.183C537.832 329.98 539.514 334.454 543.31 336.176L561.563 344.456C565.36 346.178 569.834 344.496 571.556 340.7L585.29 310.424C587.012 306.628 585.33 302.154 581.534 300.432L563.281 292.152C559.484 290.43 555.01 292.111 553.288 295.908Z" fill="black"/>
<path d="M584.838 345.165C586.444 345.406 586.925 347.253 589.174 353.837C591.422 360.422 592.306 362.831 590.459 362.831C588.612 362.831 587.809 359.298 586.042 353.837C584.276 348.377 583.071 344.924 584.838 345.165Z" fill="#DEE6EF"/>
<path d="M598.201 439.208C610.651 436.562 617.687 420.033 613.915 402.291C610.144 384.548 596.994 372.31 584.544 374.957C572.093 377.603 565.058 394.132 568.829 411.874C572.6 429.617 585.751 441.855 598.201 439.208Z" fill="url(#paint22_radial_3832_33883)"/>
<path d="M595.92 339.704C596.883 339.704 597.445 340.587 600.015 343.8C602.585 347.012 603.548 348.136 602.504 348.296C601.46 348.457 600.256 346.69 598.248 343.96C596.241 341.23 594.795 339.704 595.92 339.704Z" fill="#DEE6EF"/>
<path d="M579.377 401.537C580.903 407.479 595.759 421.693 595.759 421.693C595.759 421.693 602.344 402.179 600.818 396.237C600.48 394.829 599.865 393.502 599.01 392.334C598.154 391.165 597.075 390.179 595.834 389.431C594.594 388.684 593.217 388.191 591.784 387.981C590.351 387.77 588.891 387.847 587.488 388.207C586.078 388.546 584.749 389.16 583.577 390.014C582.406 390.869 581.414 391.946 580.661 393.185C579.907 394.424 579.405 395.8 579.185 397.233C578.965 398.666 579.03 400.129 579.377 401.537Z" fill="url(#paint23_linear_3832_33883)"/>
<path d="M587.729 403.866C588.211 405.713 593.912 414.064 593.912 414.064C593.912 414.064 595.036 404.026 594.555 402.179C594.485 401.69 594.313 401.222 594.051 400.803C593.789 400.384 593.442 400.025 593.033 399.749C592.623 399.473 592.16 399.286 591.674 399.199C591.188 399.113 590.689 399.13 590.209 399.248C589.73 399.367 589.28 399.584 588.89 399.887C588.5 400.19 588.178 400.571 587.944 401.006C587.71 401.441 587.57 401.921 587.533 402.413C587.496 402.906 587.563 403.401 587.729 403.866Z" fill="#FFF2A6"/>
<path d="M519.071 319.227C503.412 335.207 492.892 340.909 503.653 369.255C503.733 369.517 503.733 369.797 503.653 370.058C500.441 379.373 500.039 386.44 507.588 388.046C515.136 389.652 522.604 384.593 525.174 375.92C526.78 370.701 526.459 370.46 523.728 360.583C520.998 350.706 521.078 351.027 526.057 346.128C531.036 341.23 538.905 334.163 538.905 334.163L519.071 319.227Z" fill="url(#paint24_linear_3832_33883)"/>
<path d="M562.434 385.316C561.872 377.687 560.266 357.692 559.703 337.777L535.613 337.135C535.452 345.406 535.532 367.007 536.978 385.637C537.081 386.635 536.886 387.641 536.416 388.528C532.802 395.434 531.437 403.785 537.781 406.917C544.125 410.049 553.922 404.99 558.258 398.967C562.594 392.945 562.915 391.66 562.434 385.316Z" fill="url(#paint25_linear_3832_33883)"/>
<path d="M579.217 285.018L562.594 319.227C573.676 330.309 586.042 338.981 594.795 330.71C603.548 322.439 587.729 295.538 579.217 285.018Z" fill="#7899FF"/>
<path d="M518.428 272.09C516.42 263.337 515.457 257.635 514.413 251.613C513.369 245.59 512.164 238.443 504.455 238.845C498.112 239.085 491.848 245.269 494.177 257.876C497.79 277.39 499.637 284.697 506.302 288.953C512.967 293.209 520.917 291.362 542.438 290.639L545.57 271.447C530.473 271.206 518.428 272.09 518.428 272.09Z" fill="#7899FF"/>
<path d="M516.893 290.748C517.462 289.595 516.99 288.199 515.837 287.629C514.684 287.059 513.287 287.532 512.717 288.685L509.152 295.898C508.582 297.051 509.055 298.448 510.208 299.018C511.361 299.587 512.758 299.115 513.328 297.962L516.893 290.748Z" fill="#242145"/>
<path d="M510.88 297.706L508.631 302.284C508.423 302.681 508.373 303.142 508.492 303.575C508.612 304.007 508.891 304.378 509.274 304.612L523.246 314.249" stroke="#C9D9FF" stroke-width="3" stroke-linecap="round" stroke-linejoin="round"/>
<path d="M541.555 269.6C530.232 280.923 520.917 291.924 516.983 300.436C513.048 308.948 511.04 323.885 528.546 333.521C544.366 342.274 557.375 345.566 567.734 333.601C578.093 321.636 579.538 296.18 580.502 284.617L541.555 269.6Z" fill="#7899FF"/>
<path d="M584.035 288.23C578.494 288.632 556.732 288.953 549.103 286.143C544.125 284.376 541.635 282.127 540.913 278.193C540.571 275.543 540.679 272.856 541.234 270.243L584.035 288.23Z" fill="#697DFF"/>
<path d="M592.948 241.013C593.727 240.774 594.445 240.37 595.054 239.83C595.664 239.29 596.151 238.625 596.482 237.881C597.606 235.392 596.642 232.501 594.314 230.493C593.643 229.877 592.886 229.362 592.065 228.968H591.824C587.889 227.201 585.239 228.566 580.983 230.092C578.065 230.995 575.086 231.693 572.07 232.18L592.948 241.013Z" fill="#55F186"/>
<path d="M581.063 237.399C580.843 237.284 580.663 237.103 580.55 236.881C580.436 236.66 580.394 236.408 580.429 236.162C580.464 235.915 580.575 235.685 580.746 235.504C580.917 235.323 581.14 235.2 581.385 235.151C584.324 234.763 587.145 233.745 589.654 232.164C592.163 230.584 594.3 228.48 595.919 225.996C596.008 225.864 596.122 225.75 596.256 225.662C596.389 225.573 596.538 225.513 596.695 225.483C596.852 225.453 597.014 225.454 597.17 225.487C597.326 225.521 597.474 225.584 597.606 225.675C597.852 225.853 598.022 226.117 598.081 226.415C598.141 226.713 598.086 227.022 597.927 227.281C596.116 230.066 593.719 232.421 590.904 234.182C588.088 235.944 584.921 237.069 581.626 237.48L581.063 237.399Z" fill="#21AB70"/>
<path d="M585.882 237.881L569.982 231.136C565.324 227.683 564.039 222.704 566.368 218.207C568.054 214.915 572.471 213.549 576.567 215.396C580.662 217.243 582.027 221.58 582.75 225.193C584.516 233.223 585.882 237.881 585.882 237.881Z" fill="#55F186"/>
<path d="M585.239 237.881L569.34 231.136C564.682 227.683 563.397 222.704 565.726 218.207C567.412 214.915 571.829 213.549 575.924 215.396C580.02 217.243 581.385 221.58 582.188 225.193C583.874 233.223 585.239 237.881 585.239 237.881Z" fill="#21AB70"/>
<path d="M577.209 239.166C576.969 239.079 576.769 238.908 576.647 238.684C572.632 232.983 570.705 226.719 571.267 221.58C571.309 221.26 571.477 220.971 571.733 220.775C571.989 220.579 572.312 220.493 572.632 220.536C572.951 220.578 573.241 220.746 573.437 221.002C573.632 221.258 573.718 221.581 573.676 221.901C573.435 224.069 573.355 229.851 578.654 237.399C578.813 237.658 578.868 237.967 578.809 238.265C578.749 238.563 578.579 238.827 578.333 239.005C578.177 239.129 577.991 239.21 577.793 239.238C577.595 239.266 577.394 239.241 577.209 239.166Z" fill="#008D3C"/>
<path d="M536.174 230.814C538.343 231.617 540.029 232.26 542.117 233.223C542.241 233.268 542.354 233.337 542.45 233.426C542.546 233.516 542.623 233.624 542.675 233.745C542.728 233.865 542.755 233.995 542.756 234.126C542.757 234.257 542.73 234.387 542.679 234.508L532.721 257.314C532.6 257.555 532.391 257.74 532.136 257.83C531.881 257.92 531.602 257.908 531.356 257.796C529.383 256.956 527.454 256.018 525.575 254.985C523.876 254.136 522.542 252.7 521.819 250.944C521.096 249.187 521.032 247.229 521.64 245.429C522.929 241.632 524.541 237.951 526.458 234.428C527.389 232.775 528.876 231.505 530.655 230.843C532.434 230.182 534.389 230.172 536.174 230.814Z" fill="url(#paint26_linear_3832_33883)"/>
<path d="M533.525 235.07C534.729 235.472 535.131 235.552 536.737 236.195C537.017 236.362 537.227 236.624 537.33 236.934C537.433 237.243 537.422 237.579 537.299 237.881L531.999 250.087C531.89 250.383 531.669 250.625 531.384 250.76C531.099 250.895 530.772 250.913 530.473 250.81L527.422 249.284C526.813 248.931 526.344 248.379 526.095 247.721C525.846 247.062 525.833 246.338 526.057 245.67C527.162 242.522 528.504 239.461 530.072 236.516C530.383 235.905 530.9 235.424 531.533 235.159C532.165 234.894 532.871 234.863 533.525 235.07Z" fill="#BFD2FF"/>
<path d="M605.234 244.867C600.737 241.816 588.933 236.114 580.582 232.501C572.23 228.887 560.024 223.989 554.724 222.784C548.14 221.339 541.635 223.828 538.102 229.289C535.768 232.88 533.752 236.669 532.079 240.611C530.298 244.509 528.899 248.569 527.903 252.737C527.136 255.828 527.349 259.082 528.515 262.046C529.681 265.011 531.74 267.539 534.408 269.279C538.905 272.331 550.709 278.032 559.061 281.646C567.412 285.259 579.618 290.158 584.918 291.362C591.503 292.808 598.007 290.318 601.54 284.858C603.891 281.276 605.907 277.486 607.563 273.535C609.357 269.643 610.755 265.581 611.739 261.41C612.507 258.318 612.293 255.065 611.127 252.1C609.962 249.136 607.902 246.608 605.234 244.867Z" fill="url(#paint27_linear_3832_33883)"/>
<path d="M571.187 266.87L558.82 261.49C551.272 257.876 550.228 253.781 551.111 248.963C551.994 244.145 553.36 241.655 555.769 237.319C558.178 232.983 561.149 233.384 564.441 234.83L585.4 243.984C586.182 244.308 586.891 244.785 587.486 245.387C588.081 245.989 588.549 246.704 588.863 247.489C589.177 248.275 589.331 249.116 589.316 249.962C589.3 250.808 589.116 251.642 588.773 252.416L585.159 260.767C582.268 267.432 577.29 269.52 571.187 266.87Z" fill="#BFD2FF"/>
<path d="M561.63 250.167L558.981 249.043C558.35 248.727 557.621 248.668 556.947 248.877C556.274 249.087 555.707 249.549 555.367 250.167C555.132 250.839 555.169 251.575 555.469 252.22C555.768 252.865 556.308 253.367 556.973 253.62L559.623 254.744C559.933 254.911 560.274 255.015 560.625 255.049C560.975 255.082 561.329 255.046 561.666 254.941C562.002 254.836 562.315 254.666 562.584 254.439C562.854 254.212 563.076 253.934 563.237 253.62C563.471 252.949 563.435 252.212 563.135 251.567C562.835 250.923 562.295 250.42 561.63 250.167Z" fill="#7093FF"/>
<path d="M574.158 255.628L571.508 254.504C571.198 254.337 570.857 254.233 570.506 254.199C570.155 254.166 569.801 254.202 569.465 254.307C569.128 254.412 568.816 254.582 568.547 254.809C568.277 255.036 568.055 255.314 567.894 255.628C567.659 256.299 567.696 257.036 567.996 257.681C568.296 258.325 568.836 258.828 569.5 259.081L572.15 260.205C572.465 260.369 572.81 260.468 573.165 260.496C573.519 260.525 573.875 260.481 574.212 260.369C574.55 260.256 574.861 260.077 575.127 259.842C575.394 259.607 575.61 259.321 575.764 259.001C575.996 258.34 575.957 257.615 575.656 256.983C575.355 256.351 574.817 255.864 574.158 255.628Z" fill="#7093FF"/>
<path d="M594.795 261.329C596.924 261.329 598.65 259.603 598.65 257.475C598.65 255.346 596.924 253.62 594.795 253.62C592.667 253.62 590.941 255.346 590.941 257.475C590.941 259.603 592.667 261.329 594.795 261.329Z" fill="black"/>
<path d="M547.658 240.772C549.787 240.772 551.512 239.046 551.512 236.917C551.512 234.789 549.787 233.063 547.658 233.063C545.529 233.063 543.803 234.789 543.803 236.917C543.803 239.046 545.529 240.772 547.658 240.772Z" fill="black"/>
<path d="M574.881 271.688C573.034 270.082 561.952 269.199 560.828 271.046C559.704 272.893 560.667 273.856 561.872 275.462L575.282 274.419C575.684 273.294 575.603 272.331 574.881 271.688Z" fill="#D11583"/>
<path d="M574.88 271.688C573.917 270.885 570.464 270.243 567.171 270.082C566.697 270.766 566.343 271.526 566.127 272.33C565.863 273.3 565.835 274.319 566.047 275.302L575.282 274.418C575.683 273.294 575.603 272.33 574.88 271.688Z" fill="black"/>
<path d="M613.666 264.702L607.884 261.891C607.629 261.785 607.341 261.784 607.085 261.89C606.829 261.995 606.626 262.198 606.519 262.453L596.642 285.179C596.577 285.304 596.54 285.441 596.533 285.582C596.527 285.722 596.551 285.862 596.605 285.993C596.658 286.123 596.74 286.239 596.843 286.335C596.947 286.43 597.07 286.502 597.204 286.544C599.137 287.438 601.121 288.215 603.146 288.873C604.931 289.533 606.892 289.531 608.675 288.868C610.458 288.205 611.944 286.924 612.863 285.259C614.721 281.719 616.305 278.041 617.601 274.258C618.209 272.458 618.145 270.5 617.422 268.744C616.699 266.987 615.365 265.552 613.666 264.702Z" fill="#7899FF"/>
<path d="M611.82 268.476C610.695 267.834 610.294 267.673 608.768 266.95C608.459 266.844 608.12 266.859 607.822 266.993C607.523 267.128 607.287 267.371 607.162 267.673L601.862 279.879C601.744 280.169 601.736 280.493 601.839 280.788C601.943 281.084 602.151 281.332 602.424 281.485C603.465 281.962 604.539 282.364 605.636 282.69C606.29 282.897 606.996 282.866 607.628 282.601C608.261 282.336 608.779 281.855 609.089 281.244C610.672 278.278 612.015 275.19 613.104 272.009C613.347 271.364 613.35 270.653 613.115 270.005C612.879 269.358 612.42 268.815 611.82 268.476Z" fill="#BFD2FF"/>
<path d="M567.493 278.835C565.247 278.498 563.226 277.285 561.872 275.462C564.275 274.307 566.915 273.73 569.581 273.776C571.503 273.688 573.427 273.905 575.282 274.418C574.657 275.914 573.553 277.16 572.143 277.96C570.733 278.759 569.097 279.067 567.493 278.835Z" fill="#FFA8D2"/>
<path d="M513.288 246.313C517.464 245.269 517.866 249.846 515.296 256.672C512.726 263.497 512.566 256.832 513.288 246.313Z" fill="#7899FF"/>
<path d="M516.983 300.436C515.887 302.815 515.104 305.325 514.654 307.904C523.246 310.073 546.453 318.183 565.887 335.528C566.562 334.946 567.18 334.301 567.734 333.601C569.56 331.5 571.075 329.147 572.23 326.615C556.812 313.044 536.416 303.648 517.786 298.83L516.983 300.436Z" fill="url(#paint28_linear_3832_33883)"/>
<path d="M594.795 330.71C586.042 338.981 573.676 330.309 562.594 319.227C556.572 319.709 552.155 317.22 550.95 310.635C549.746 304.05 553.761 298.83 559.864 295.939C563.959 293.932 568.215 294.012 572.793 296.662C574.005 297.433 575.159 298.292 576.246 299.232C581.224 303.568 587.97 310.233 593.751 316.417C594.959 317.673 595.874 319.182 596.429 320.834C596.984 322.487 597.167 324.241 596.964 325.972C596.8 327.752 596.035 329.423 594.795 330.71Z" fill="url(#paint29_linear_3832_33883)"/>
<path d="M576.246 299.232C573.596 293.129 570.303 291.443 567.252 291.523C564.2 291.603 563.076 294.012 563.799 298.349C564.522 302.685 576.246 299.232 576.246 299.232Z" fill="#6B82FF"/>
<path d="M563.217 316.182C563.787 315.029 563.314 313.633 562.161 313.063C561.008 312.493 559.611 312.966 559.041 314.119L558.792 314.623C558.223 315.776 558.695 317.172 559.848 317.742C561.001 318.312 562.398 317.839 562.968 316.686L563.217 316.182Z" fill="#242145"/>
<path d="M560.667 316.176L557.776 321.877C557.567 322.274 557.518 322.736 557.637 323.169C557.756 323.601 558.036 323.972 558.418 324.206L570.705 332.718" stroke="#C9D9FF" stroke-width="3" stroke-linecap="round" stroke-linejoin="round"/>
<path d="M617.601 274.258C618.209 272.458 618.145 270.5 617.422 268.743C616.699 266.987 615.365 265.552 613.666 264.702L609.009 262.453C607.885 261.891 607.001 261.811 610.856 264.22C614.71 266.629 619.368 269.279 617.521 274.579C617.521 274.499 617.601 274.338 617.601 274.258Z" fill="#BFCFFF"/>
<path d="M612.141 259.322C612.424 256.511 611.93 253.676 610.712 251.127C609.494 248.578 607.6 246.413 605.235 244.867C601.862 242.538 594.233 238.764 587.086 235.392C591.179 238.18 595.414 240.753 599.774 243.101C606.921 247.035 612.783 252.094 612.141 259.322Z" fill="#C7D5FF"/>
<path d="M580.582 232.501C574.158 229.69 565.485 226.157 559.382 224.149C556.893 226.237 557.535 229.048 563.397 231.457C575.121 236.355 580.582 232.501 582.83 233.464L580.582 232.501Z" fill="#5C83FF"/>
<path d="M527.101 285.339C527.268 285.09 527.336 284.787 527.292 284.49C527.247 284.193 527.093 283.923 526.86 283.733C526.623 283.571 526.333 283.506 526.049 283.55C525.765 283.595 525.509 283.747 525.334 283.974C525.254 283.974 522.042 288.07 519.392 291.683H522.282C524.611 288.471 527.02 285.339 527.101 285.339Z" fill="#6B7FFF"/>
<path d="M512.084 247.277C512.446 246.908 512.85 246.585 513.289 246.313C512.084 242.137 509.916 238.604 504.456 238.925C510.237 238.845 511.763 245.43 512.084 247.277Z" fill="#C9D7FF"/>
<path d="M526.057 346.128C528.948 343.157 532.882 339.624 535.613 337.134V333.762L531.919 331.995C509.434 344.924 499.718 344.843 501.083 340.266C498.111 347.092 498.352 355.524 503.572 369.255C503.653 369.517 503.653 369.797 503.572 370.058C500.36 379.373 499.958 386.44 507.507 388.046C515.055 389.652 522.523 384.593 525.093 375.92C526.699 370.701 526.378 370.46 523.648 360.583C520.917 350.706 521.078 351.027 526.057 346.128Z" fill="#6B8FFF"/>
</g>
</g>
<defs>
<linearGradient id="paint0_linear_3832_33883" x1="564" y1="382.552" x2="564" y2="665.01" gradientUnits="userSpaceOnUse">
<stop offset="0.0696219"/>
<stop offset="0.272932" stop-opacity="0.76"/>
<stop offset="0.451992" stop-opacity="0.501857"/>
<stop offset="0.579218" stop-opacity="0.25"/>
<stop offset="0.748854" stop-opacity="0"/>
</linearGradient>
<linearGradient id="paint1_linear_3832_33883" x1="564" y1="8.1482" x2="564" y2="607.684" gradientUnits="userSpaceOnUse">
<stop stop-color="#3620CD"/>
<stop offset="1" stop-color="#FF75FA"/>
</linearGradient>
<linearGradient id="paint2_linear_3832_33883" x1="812.31" y1="-37.79" x2="-48.96" y2="583" gradientUnits="userSpaceOnUse">
<stop stop-color="#D044E0" stop-opacity="0.1"/>
<stop offset="0.42" stop-color="#CF44E0" stop-opacity="0.11"/>
<stop offset="0.57" stop-color="#CA45E2" stop-opacity="0.13"/>
<stop offset="0.68" stop-color="#C147E5" stop-opacity="0.18"/>
<stop offset="0.77" stop-color="#B549E9" stop-opacity="0.24"/>
<stop offset="0.85" stop-color="#A54BEE" stop-opacity="0.33"/>
<stop offset="0.92" stop-color="#924FF5" stop-opacity="0.43"/>
<stop offset="0.98" stop-color="#7B53FC" stop-opacity="0.55"/>
<stop offset="1" stop-color="#7354FF" stop-opacity="0.6"/>
</linearGradient>
<linearGradient id="paint3_linear_3832_33883" x1="591.367" y1="470.437" x2="1108.68" y2="-45.2903" gradientUnits="userSpaceOnUse">
<stop stop-color="#BB7DE8" stop-opacity="0.3"/>
<stop offset="0.4" stop-color="#B075EC" stop-opacity="0.3"/>
<stop offset="0.73" stop-color="#8F5CF7" stop-opacity="0.3"/>
<stop offset="0.88" stop-color="#774AFF" stop-opacity="0.3"/>
</linearGradient>
<linearGradient id="paint4_linear_3832_33883" x1="69.16" y1="289.79" x2="296.92" y2="144.25" gradientUnits="userSpaceOnUse">
<stop stop-color="#DF89E8" stop-opacity="0.3"/>
<stop offset="0.46" stop-color="#DD88E9" stop-opacity="0.31"/>
<stop offset="0.63" stop-color="#D684EA" stop-opacity="0.33"/>
<stop offset="0.75" stop-color="#CA7EEE" stop-opacity="0.37"/>
<stop offset="0.85" stop-color="#B975F2" stop-opacity="0.44"/>
<stop offset="0.93" stop-color="#A369F8" stop-opacity="0.51"/>
<stop offset="1" stop-color="#8B5CFF" stop-opacity="0.6"/>
</linearGradient>
<linearGradient id="paint5_linear_3832_33883" x1="352.005" y1="218.015" x2="953.995" y2="218.015" gradientUnits="userSpaceOnUse">
<stop stop-color="#DF89E8" stop-opacity="0.3"/>
<stop offset="0.46" stop-color="#DD88E9" stop-opacity="0.31"/>
<stop offset="0.63" stop-color="#D684EA" stop-opacity="0.33"/>
<stop offset="0.75" stop-color="#CA7EEE" stop-opacity="0.37"/>
<stop offset="0.85" stop-color="#B975F2" stop-opacity="0.44"/>
<stop offset="0.93" stop-color="#A369F8" stop-opacity="0.51"/>
<stop offset="1" stop-color="#8B5CFF" stop-opacity="0.6"/>
</linearGradient>
<linearGradient id="paint6_linear_3832_33883" x1="376.729" y1="236.65" x2="987.709" y2="236.65" gradientUnits="userSpaceOnUse">
<stop stop-color="#DF89E8" stop-opacity="0.3"/>
<stop offset="0.46" stop-color="#DD88E9" stop-opacity="0.31"/>
<stop offset="0.63" stop-color="#D684EA" stop-opacity="0.33"/>
<stop offset="0.75" stop-color="#CA7EEE" stop-opacity="0.37"/>
<stop offset="0.85" stop-color="#B975F2" stop-opacity="0.44"/>
<stop offset="0.93" stop-color="#A369F8" stop-opacity="0.51"/>
<stop offset="1" stop-color="#8B5CFF" stop-opacity="0.6"/>
</linearGradient>
<linearGradient id="paint7_linear_3832_33883" x1="597.977" y1="228.492" x2="713.983" y2="228.492" gradientUnits="userSpaceOnUse">
<stop stop-color="#DF89E8" stop-opacity="0.3"/>
<stop offset="0.46" stop-color="#DD88E9" stop-opacity="0.31"/>
<stop offset="0.63" stop-color="#D684EA" stop-opacity="0.33"/>
<stop offset="0.75" stop-color="#CA7EEE" stop-opacity="0.37"/>
<stop offset="0.85" stop-color="#B975F2" stop-opacity="0.44"/>
<stop offset="0.93" stop-color="#A369F8" stop-opacity="0.51"/>
<stop offset="1" stop-color="#8B5CFF" stop-opacity="0.6"/>
</linearGradient>
<radialGradient id="paint8_radial_3832_33883" cx="0" cy="0" r="1" gradientUnits="userSpaceOnUse" gradientTransform="translate(681.979 236.66) scale(51.43)">
<stop stop-color="white"/>
<stop offset="1" stop-color="#A3D6FF" stop-opacity="0.1"/>
</radialGradient>
<radialGradient id="paint9_radial_3832_33883" cx="0" cy="0" r="1" gradientUnits="userSpaceOnUse" gradientTransform="translate(684.792 240.126) scale(34.63 32.8985)">
<stop offset="0.29" stop-color="#A3D6FF"/>
<stop offset="1" stop-color="#D1F1FF"/>
</radialGradient>
<linearGradient id="paint10_linear_3832_33883" x1="720.57" y1="280.8" x2="726.36" y2="280.8" gradientUnits="userSpaceOnUse">
<stop stop-color="#C7D4FF"/>
<stop offset="1" stop-color="#A8BDFF"/>
</linearGradient>
<linearGradient id="paint11_linear_3832_33883" x1="972.47" y1="332.33" x2="978.27" y2="332.33" gradientUnits="userSpaceOnUse">
<stop stop-color="#C7D4FF"/>
<stop offset="1" stop-color="#A8BDFF"/>
</linearGradient>
<linearGradient id="paint12_linear_3832_33883" x1="857.16" y1="373.15" x2="853.74" y2="369.73" gradientUnits="userSpaceOnUse">
<stop stop-color="#593FD1"/>
<stop offset="0.68" stop-color="#8354FF"/>
</linearGradient>
<linearGradient id="paint13_linear_3832_33883" x1="576.294" y1="340.307" x2="600.738" y2="340.307" gradientUnits="userSpaceOnUse">
<stop stop-color="#95A3B8"/>
<stop offset="1" stop-color="#C5CEDD"/>
</linearGradient>
<linearGradient id="paint14_linear_3832_33883" x1="606.873" y1="350.272" x2="589.455" y2="361.611" gradientUnits="userSpaceOnUse">
<stop stop-color="#D8E2F2"/>
<stop offset="0.07" stop-color="#D2DDEE"/>
<stop offset="0.39" stop-color="#BDCAE0"/>
<stop offset="0.71" stop-color="#B0BFD7"/>
<stop offset="1" stop-color="#ACBBD4"/>
</linearGradient>
<linearGradient id="paint15_linear_3832_33883" x1="597.22" y1="372.959" x2="619.166" y2="372.959" gradientUnits="userSpaceOnUse">
<stop stop-color="#8A99B0"/>
<stop offset="1" stop-color="#95A6BD"/>
</linearGradient>
<radialGradient id="paint16_radial_3832_33883" cx="0" cy="0" r="1" gradientUnits="userSpaceOnUse" gradientTransform="translate(611.939 386.44) rotate(-33.3624) scale(23.0835 31.8104)">
<stop stop-color="#FFFF00"/>
<stop offset="0.1" stop-color="#F1F926" stop-opacity="0.85"/>
<stop offset="0.29" stop-color="#DAEE67" stop-opacity="0.6"/>
<stop offset="0.47" stop-color="#C6E69D" stop-opacity="0.38"/>
<stop offset="0.63" stop-color="#B7DFC8" stop-opacity="0.22"/>
<stop offset="0.78" stop-color="#ACDAE6" stop-opacity="0.1"/>
<stop offset="0.91" stop-color="#A5D7F8" stop-opacity="0.03"/>
<stop offset="1" stop-color="#A3D6FF" stop-opacity="0"/>
</radialGradient>
<linearGradient id="paint17_linear_3832_33883" x1="622.591" y1="398.749" x2="603.176" y2="363.993" gradientUnits="userSpaceOnUse">
<stop stop-color="#FFE75C"/>
<stop offset="1" stop-color="#FFC40F"/>
</linearGradient>
<linearGradient id="paint18_linear_3832_33883" x1="568.039" y1="346.666" x2="584.798" y2="341.969" gradientUnits="userSpaceOnUse">
<stop stop-color="#9FAEC4"/>
<stop offset="1" stop-color="#C5CEDD"/>
</linearGradient>
<linearGradient id="paint19_linear_3832_33883" x1="589.015" y1="345.214" x2="562.001" y2="354.055" gradientUnits="userSpaceOnUse">
<stop stop-color="#D8E2F2"/>
<stop offset="0.07" stop-color="#D2DDEE"/>
<stop offset="0.39" stop-color="#BDCAE0"/>
<stop offset="0.71" stop-color="#B0BFD7"/>
<stop offset="1" stop-color="#ACBBD4"/>
</linearGradient>
<linearGradient id="paint20_linear_3832_33883" x1="595.88" y1="366.26" x2="568.866" y2="375.109" gradientUnits="userSpaceOnUse">
<stop stop-color="#D8E2F2"/>
<stop offset="0.07" stop-color="#D2DDEE"/>
<stop offset="0.39" stop-color="#BDCAE0"/>
<stop offset="0.71" stop-color="#B0BFD7"/>
<stop offset="1" stop-color="#ACBBD4"/>
</linearGradient>
<linearGradient id="paint21_linear_3832_33883" x1="597.108" y1="387.897" x2="575.933" y2="398.488" gradientUnits="userSpaceOnUse">
<stop stop-color="#8A99B0"/>
<stop offset="1" stop-color="#95A6BD"/>
</linearGradient>
<radialGradient id="paint22_radial_3832_33883" cx="0" cy="0" r="1" gradientUnits="userSpaceOnUse" gradientTransform="translate(589.686 408.07) rotate(-14.8624) scale(23.0836 31.8104)">
<stop stop-color="#FFFF00"/>
<stop offset="0.1" stop-color="#F1F926" stop-opacity="0.85"/>
<stop offset="0.29" stop-color="#DAEE67" stop-opacity="0.6"/>
<stop offset="0.47" stop-color="#C6E69D" stop-opacity="0.38"/>
<stop offset="0.63" stop-color="#B7DFC8" stop-opacity="0.22"/>
<stop offset="0.78" stop-color="#ACDAE6" stop-opacity="0.1"/>
<stop offset="0.91" stop-color="#A5D7F8" stop-opacity="0.03"/>
<stop offset="1" stop-color="#A3D6FF" stop-opacity="0"/>
</radialGradient>
<linearGradient id="paint23_linear_3832_33883" x1="596.161" y1="424.688" x2="586.034" y2="381.421" gradientUnits="userSpaceOnUse">
<stop stop-color="#FFE75C"/>
<stop offset="1" stop-color="#FFC40F"/>
</linearGradient>
<linearGradient id="paint24_linear_3832_33883" x1="535.22" y1="337.167" x2="513.972" y2="357.041" gradientUnits="userSpaceOnUse">
<stop stop-color="#7899FF"/>
<stop offset="0.52" stop-color="#7596FF"/>
<stop offset="0.93" stop-color="#6B8FFF"/>
</linearGradient>
<linearGradient id="paint25_linear_3832_33883" x1="559.109" y1="339.552" x2="540.664" y2="384.858" gradientUnits="userSpaceOnUse">
<stop stop-color="#7899FF"/>
<stop offset="1" stop-color="#6B8FFF"/>
</linearGradient>
<linearGradient id="paint26_linear_3832_33883" x1="540.045" y1="232.685" x2="527.012" y2="249.003" gradientUnits="userSpaceOnUse">
<stop stop-color="#7899FF"/>
<stop offset="0.4" stop-color="#7696FF"/>
<stop offset="0.75" stop-color="#708BFF"/>
<stop offset="0.93" stop-color="#6B82FF"/>
</linearGradient>
<linearGradient id="paint27_linear_3832_33883" x1="605.628" y1="245.574" x2="524.394" y2="271.68" gradientUnits="userSpaceOnUse">
<stop stop-color="#7899FF"/>
<stop offset="0.4" stop-color="#7696FF"/>
<stop offset="0.75" stop-color="#708BFF"/>
<stop offset="0.93" stop-color="#6B82FF"/>
</linearGradient>
<linearGradient id="paint28_linear_3832_33883" x1="569.348" y1="329.177" x2="517.232" y2="303.006" gradientUnits="userSpaceOnUse">
<stop offset="0.02" stop-color="#191730"/>
<stop offset="1" stop-color="#423D80"/>
</linearGradient>
<linearGradient id="paint29_linear_3832_33883" x1="588.636" y1="327.402" x2="558.836" y2="302.829" gradientUnits="userSpaceOnUse">
<stop stop-color="#7899FF"/>
<stop offset="0.01" stop-color="#7899FF"/>
<stop offset="0.4" stop-color="#6E88FF"/>
<stop offset="0.7" stop-color="#6B82FF"/>
</linearGradient>
<clipPath id="clip0_3832_33883">
<rect width="1128" height="600" fill="white"/>
</clipPath>
</defs>
</svg>
