<svg width="135" height="109" viewBox="0 0 135 109" fill="none" xmlns="http://www.w3.org/2000/svg">
<path opacity="0.7" d="M58.9764 61.645C58.0589 61.8452 57.6587 62.5166 58.0817 63.1493C58.5046 63.782 59.5912 64.1306 60.5054 63.9337L66.56 62.6231L66.4234 62.3358L66.2412 61.9582C66.2412 61.9582 66.2412 61.9549 66.2412 61.9517C66.2119 61.8904 66.1891 61.829 66.1696 61.7677C66.1631 61.7451 66.1566 61.7225 66.1501 61.6999C66.1403 61.658 66.1306 61.616 66.124 61.5773C66.1208 61.5514 66.1175 61.5288 66.1143 61.503C66.111 61.4643 66.1078 61.4255 66.1078 61.3868C66.1078 61.3642 66.1078 61.3384 66.1078 61.3158C66.1078 61.2674 66.1175 61.2157 66.1273 61.1673C66.1273 61.1576 66.1273 61.1479 66.1306 61.135C66.1989 60.8122 66.2509 60.4862 66.2802 60.1602L58.9764 61.645Z" fill="url(#paint0_linear_892_30659)"/>
<path d="M94.029 23.219C92.4349 23.177 91.1986 23.1738 89.6077 23.2383C89.214 23.2545 88.9082 23.5773 88.9244 23.9517L89.6402 40.9053C89.6565 41.2797 89.9883 41.5767 90.382 41.5606C91.9729 41.496 93.2027 41.3895 94.7903 41.2152C97.5264 40.9117 99.5956 38.7231 99.6899 36.0988C99.7908 33.3614 99.6769 30.6305 99.345 27.9093C99.0295 25.301 96.7814 23.2932 94.0323 23.2157L94.029 23.219Z" fill="#718CF6"/>
<path d="M94.0004 26.1014C93.135 26.0562 92.8422 26.0272 91.6514 26.0692C91.2187 26.0853 90.8836 26.4953 90.9032 26.9859L91.2838 36.0502C91.3033 36.5408 91.6742 36.9217 92.1037 36.8991C93.2944 36.8443 93.5839 36.7862 94.4428 36.67C95.3896 36.5408 96.1183 35.7274 96.1704 34.7364C96.2647 32.9158 96.1313 29.6878 95.8841 27.8801C95.7507 26.8988 94.9536 26.1466 94.0004 26.0982V26.1014Z" fill="#BACAFA"/>
<path d="M39.4663 33.3615C39.5736 37.432 39.7688 39.1687 40.3414 42.4257C41.1418 46.9675 44.4374 50.3634 48.7189 51.1511C52.187 51.787 60.6783 51.8903 66.5898 51.7386C72.5012 51.5868 80.9762 51.051 84.4086 50.2375C88.6445 49.2336 91.758 45.6731 92.3241 41.0958C92.7307 37.8097 92.8348 36.0698 92.7275 31.9992C92.6201 27.9287 92.4249 26.192 91.8523 22.935C91.052 18.3932 87.7563 14.9973 83.4748 14.2097C80.0067 13.5737 71.5154 12.8862 65.604 13.0379C59.6926 13.1896 51.2175 14.3129 47.7852 15.1264C43.5493 16.1303 40.4358 19.6908 39.8697 24.2681C39.463 27.5543 39.3589 29.2942 39.4663 33.3647" fill="url(#paint1_linear_892_30659)"/>
<path d="M38.2141 25.5142C39.8018 25.3463 41.0316 25.2462 42.6225 25.1881C43.0161 25.172 43.348 25.469 43.361 25.8434L44.0052 42.8002C44.0182 43.1746 43.7124 43.4942 43.3187 43.5103C41.7278 43.5684 40.4915 43.562 38.8973 43.5103C36.1482 43.4232 33.9099 41.4057 33.6041 38.7974C33.2853 36.0762 33.1811 33.3453 33.2918 30.608C33.3991 27.9836 35.478 25.8047 38.2141 25.5109V25.5142Z" fill="#718CF6"/>
<path d="M37.8692 28.8644C38.7249 28.7482 39.0177 28.6965 40.2084 28.6384C40.6411 28.619 41.0087 28.9999 41.0283 29.4906L41.4089 38.5549C41.4284 39.0455 41.0933 39.4555 40.6606 39.4716C39.4699 39.5136 39.1738 39.4813 38.3117 39.4361C37.3584 39.3877 36.5614 38.6356 36.428 37.6542C36.1807 35.8466 36.0441 32.6185 36.1384 30.7979C36.1905 29.8102 36.9192 28.9935 37.866 28.8676L37.8692 28.8644Z" fill="#BACAFA"/>
<path d="M62.5627 46.5889L71.8153 46.3242C77.551 45.995 79.2916 43.6482 79.9228 40.3944C80.5214 37.3149 80.375 35.2231 79.9488 31.8498C79.6039 29.1286 77.4925 28.0182 75.0589 28.0827L59.3646 28.5217C56.9311 28.5895 55.0116 30.6038 55.0799 33.0184L55.2621 39.2226C55.4117 44.1421 57.9982 46.7116 62.5659 46.5857L62.5627 46.5889Z" fill="#BACAFA"/>
<path d="M72.0985 39.3038L74.0961 39.2489C75.1599 39.2198 76.0416 39.959 76.0676 40.8984C76.0937 41.8377 75.2543 42.6254 74.1904 42.6544L72.1928 42.7093C71.129 42.7384 70.2473 41.9991 70.2213 41.0598C70.1953 40.1204 71.0346 39.3328 72.0985 39.3038Z" fill="#718CF6"/>
<path d="M62.7323 39.5645L64.7299 39.5096C65.7937 39.4806 66.6754 40.2198 66.7014 41.1591C66.7274 42.0985 65.8881 42.8861 64.8242 42.9152L62.8266 42.9701C61.7628 42.9991 60.8811 42.2599 60.8551 41.3205C60.8291 40.3812 61.6684 39.5935 62.7323 39.5645Z" fill="#718CF6"/>
<path d="M52.9243 33.6011C52.8294 32.1458 51.5643 31.0423 50.0984 31.1363C48.6326 31.2304 47.5212 32.4864 47.6161 33.9417L47.7326 35.7295C47.8274 37.1847 49.0926 38.2882 50.5584 38.1942C52.0243 38.1001 53.1356 36.8442 53.0408 35.3889L52.9243 33.6011Z" fill="black"/>
<path d="M86.5522 31.4429C86.4574 29.9876 85.1922 28.8841 83.7264 28.9781C82.2605 29.0722 81.1492 30.3282 81.244 31.7834L81.3605 33.5713C81.4554 35.0265 82.7205 36.13 84.1864 36.036C85.6522 35.9419 86.7636 34.686 86.6687 33.2307L86.5522 31.4429Z" fill="black"/>
<path d="M84.1259 32.3216C84.5196 32.0698 84.7863 31.6631 84.8547 31.2015L84.9718 30.4203C84.9783 30.3816 85.0108 30.3525 85.0499 30.3525C85.0889 30.3525 85.1214 30.3816 85.1279 30.4203L85.2451 31.2015C85.3134 31.6599 85.5802 32.0698 85.9738 32.3216L86.0747 32.3862C86.0975 32.3991 86.1105 32.4249 86.1105 32.4507C86.1105 32.483 86.0975 32.5089 86.0747 32.5218L85.9738 32.5863C85.5802 32.8381 85.3134 33.2448 85.2451 33.7064L85.1279 34.4876C85.1214 34.5264 85.0889 34.5554 85.0499 34.5554C85.0108 34.5554 84.9783 34.5264 84.9718 34.4876L84.8547 33.7064C84.7863 33.2481 84.5196 32.8381 84.1259 32.5863L84.025 32.5218C84.0023 32.5089 83.9893 32.483 83.9893 32.4572C83.9893 32.4249 84.0023 32.3991 84.025 32.3862L84.1259 32.3216Z" fill="white"/>
<path d="M50.1152 33.9779C50.5088 33.7261 50.7756 33.3194 50.8439 32.8578L50.961 32.0766C50.9675 32.0378 51.0001 32.0088 51.0391 32.0088C51.0782 32.0088 51.1107 32.0378 51.1172 32.0766L51.2343 32.8578C51.3026 33.3161 51.5694 33.7261 51.9631 33.9779L52.0639 34.0424C52.0867 34.0554 52.0997 34.0812 52.0997 34.107C52.0997 34.1393 52.0867 34.1651 52.0639 34.178L51.9631 34.2426C51.5694 34.4944 51.3026 34.9011 51.2343 35.3627L51.1172 36.1439C51.1107 36.1826 51.0782 36.2117 51.0391 36.2117C51.0001 36.2117 50.9675 36.1826 50.961 36.1439L50.8439 35.3627C50.7756 34.9043 50.5088 34.4944 50.1152 34.2426L50.0143 34.178C49.9915 34.1651 49.9785 34.1393 49.9785 34.1135C49.9785 34.0812 49.9915 34.0554 50.0143 34.0424L50.1152 33.9779Z" fill="white"/>
<path d="M49.4642 37.0891C49.7912 37.0891 50.0563 36.826 50.0563 36.5016C50.0563 36.1771 49.7912 35.9141 49.4642 35.9141C49.1372 35.9141 48.8721 36.1771 48.8721 36.5016C48.8721 36.826 49.1372 37.0891 49.4642 37.0891Z" fill="white"/>
<path d="M83.1595 34.7424C83.4865 34.7424 83.7516 34.4794 83.7516 34.1549C83.7516 33.8304 83.4865 33.5674 83.1595 33.5674C82.8325 33.5674 82.5674 33.8304 82.5674 34.1549C82.5674 34.4794 82.8325 34.7424 83.1595 34.7424Z" fill="white"/>
<path d="M63.9219 6.63574C64.3025 7.03924 64.6669 7.42338 65.0215 7.79783C64.6636 7.42338 64.2993 7.03924 63.9219 6.63574Z" fill="#62C780"/>
<path d="M65.0244 7.79785C65.1025 7.87855 65.1773 7.95925 65.2554 8.03995C65.1806 7.95925 65.1025 7.87855 65.0244 7.79785Z" fill="#62C780"/>
<path d="M66.2548 9.0801C66.193 9.01554 66.1312 8.95421 66.0693 8.88965C66.1312 8.95098 66.1962 9.022 66.2548 9.08333V9.0801Z" fill="#62C780"/>
<path d="M74.7202 5.2351C74.0207 5.09952 73.2757 5.06724 72.5079 5.14149C72.4363 5.14794 72.3647 5.15763 72.2899 5.16731C69.3749 5.5353 67.9857 6.98145 66.2549 9.07966C69.4692 12.3948 71.444 14.2058 71.444 14.2058C71.444 14.2058 72.3387 15.1742 73.9524 15.3226C75.0293 14.9224 76.0866 14.4317 77.1049 13.8281C78.1135 13.2277 78.9106 12.2915 79.2196 11.1682C79.2294 11.1359 79.2424 11.1036 79.2489 11.0681C79.3725 10.5613 79.4083 10.0352 79.34 9.49931C79.0602 7.33654 77.1667 5.69348 74.7169 5.2351H74.7202Z" fill="#83ED90"/>
<path d="M68.2688 15.6102C67.937 15.6521 67.5921 15.523 67.3709 15.2389C67.0423 14.8161 67.1236 14.2092 67.5498 13.8832C71.3628 10.9812 73.6955 6.44906 73.9492 1.45209C73.9753 0.91947 74.434 0.509512 74.9708 0.535336C75.5076 0.56116 75.9208 1.01631 75.8948 1.54893C75.6117 7.11726 73.0025 12.1723 68.7373 15.4165C68.5974 15.523 68.4348 15.5876 68.2688 15.6069V15.6102Z" fill="#3D8A46"/>
<path d="M66.5606 16.5947C59.7318 13.5507 57.295 9.47371 56.563 7.86293C56.3418 7.3755 55.7659 7.15923 55.2746 7.37873C54.7834 7.59824 54.5654 8.16959 54.7866 8.65702C56.1791 11.7269 59.029 14.6063 62.7997 16.8304C64.023 16.8885 65.3927 16.8917 66.8404 16.7884C66.7591 16.7109 66.668 16.6431 66.5606 16.5947Z" fill="#3D8A46"/>
<path d="M71.3269 14.0998C70.8096 13.6188 68.5713 11.5109 65.2529 8.04078C65.1748 7.96008 65.0999 7.87938 65.0219 7.79868C64.664 7.42423 64.2996 7.0401 63.9222 6.63659C61.8661 4.44477 59.7319 1.89141 55.4504 2.37884C51.7546 2.80171 49.2755 5.61331 49.4609 8.60245C49.7147 12.6956 52.3369 14.8648 57.4122 16.156C57.4122 16.156 59.6147 16.679 62.7998 16.8307C59.0389 14.613 56.1954 11.7433 54.7997 8.68315C54.6013 8.24737 54.7347 7.70829 55.1413 7.45005C55.6586 7.11757 56.3223 7.33062 56.5631 7.86001C57.2951 9.47079 59.7319 13.5478 66.5607 16.5918C66.6681 16.6402 66.7624 16.708 66.8405 16.7855C68.734 16.6499 70.7576 16.3368 72.7552 15.7267L73.9557 15.3232C73.9557 15.3232 72.6543 15.1941 71.3302 14.0998H71.3269Z" fill="#62C780"/>
<path d="M80.3545 86.6943C80.0747 84.8705 78.4935 83.5244 76.6358 83.5244H48.1719C46.3143 83.5244 44.7331 84.8705 44.4533 86.6943L42.4688 99.5999C41.9515 102.96 44.0174 106.195 47.3163 107.115C50.4298 107.983 55.1472 108.726 62.1875 108.726H62.6235C69.6638 108.726 74.3845 107.983 77.4947 107.115C80.7904 106.195 82.8563 102.957 82.3423 99.5999L80.3577 86.6943H80.3545Z" fill="#747F8D"/>
<path d="M73.4547 87.1369L72.2509 87.3241C65.7279 88.3442 59.0845 88.3442 52.5614 87.3241L51.3577 87.1369C50.0075 87.1369 48.9111 86.049 48.9111 84.7094V79.5607C48.9111 77.6239 50.6289 76.1261 52.5647 76.3747L56.0035 76.8137C60.2524 77.3592 64.5567 77.3592 68.8056 76.8137L72.2444 76.3747C74.1802 76.1261 75.898 77.6239 75.898 79.5607V84.7094C75.898 86.049 74.8016 87.1369 73.4514 87.1369H73.4547Z" fill="url(#paint2_linear_892_30659)"/>
<path d="M69.804 91.4561H59.3574V102.686H69.804V91.4561Z" fill="#747F8D"/>
<path d="M53.209 91.5659V102.58C53.209 103.594 54.0353 104.417 55.0602 104.417H55.9841V89.7324H55.0602C54.0386 89.7324 53.209 90.5523 53.209 91.5692V91.5659Z" fill="#83ED90"/>
<path d="M69.8595 89.7288H57.835V104.413H69.8595C70.881 104.413 71.7107 103.59 71.7107 102.576V91.5623C71.7107 90.5487 70.881 89.7256 69.8595 89.7256V89.7288ZM68.9355 98.9061C68.9355 99.9197 68.1059 100.743 67.0843 100.743C66.0628 100.743 65.2332 99.9197 65.2332 98.9061C65.2332 97.8925 66.0628 97.0693 67.0843 97.0693V94.6709L63.3852 95.8943V99.8228C63.3852 100.836 62.5556 101.66 61.5341 101.66C60.5125 101.66 59.6829 100.836 59.6829 99.8228C59.6829 98.8092 60.5125 97.9861 61.5341 97.9861V95.2326C61.5341 94.8355 61.7878 94.4869 62.1652 94.361L67.7155 92.5243C67.9985 92.4307 68.3076 92.4759 68.5484 92.6502C68.7891 92.8213 68.9323 93.0989 68.9323 93.3958V98.9028L68.9355 98.9061Z" fill="#83ED90"/>
<path d="M21.8068 17.7406C24.1005 16.2751 25.6458 13.8993 26.0525 11.22L26.739 6.66207C26.7715 6.43611 26.9667 6.27148 27.1944 6.27148C27.4222 6.27148 27.6174 6.43611 27.6499 6.66207L28.3364 11.22C28.7398 13.8961 30.2852 16.2719 32.5821 17.7406L33.1774 18.1215C33.3108 18.2055 33.3889 18.3507 33.3889 18.5057V18.5347C33.3889 18.6897 33.3076 18.8349 33.1774 18.9188L32.5821 19.2998C30.2884 20.7653 28.7431 23.1411 28.3364 25.8203L27.6499 30.3783C27.6174 30.6043 27.4222 30.7689 27.1944 30.7689C26.9667 30.7689 26.7715 30.6043 26.739 30.3783L26.0525 25.8203C25.6491 23.1443 24.1037 20.7685 21.8068 19.2998L21.2115 18.9188C21.0813 18.8349 21 18.6897 21 18.5347V18.5057C21 18.3507 21.0813 18.2055 21.2115 18.1215L21.8068 17.7406Z" fill="#FEDB5E"/>
<path d="M68.7339 76.8232C67.8327 76.9362 66.9283 77.0234 66.0238 77.0879C65.474 77.5818 63.9742 78.5986 60.0343 79.9028C59.3902 80.1158 59.0421 80.8066 59.2568 81.4458C59.4292 81.9558 59.9075 82.2786 60.4248 82.2786C60.5549 82.2786 60.685 82.2592 60.8152 82.2173C67.618 79.9673 68.8966 78.0531 68.7372 76.8232H68.7339Z" fill="#D8529B"/>
<path d="M66.1454 66.3503C69.3927 65.1077 70.5549 60.3181 68.7414 55.6523C66.9278 50.9866 62.8252 48.2116 59.5779 49.4542C56.3307 50.6968 55.1684 55.4864 56.982 60.1522C58.7956 64.8179 62.8982 67.5929 66.1454 66.3503Z" fill="url(#paint3_linear_892_30659)"/>
<path d="M62.5261 53.9164C61.3516 51.9086 58.352 50.2591 55.3296 49.6684C47.7297 48.1835 41.0147 50.9596 41.0147 50.9596C36.7853 52.5736 35.484 56.77 35.8093 59.3524C36.2583 62.9129 37.5921 64.9304 38.3307 67.7388C38.7666 69.4045 39.4303 71.3832 40.12 73.2781C42.0037 78.4623 46.7602 83.1042 54.0315 81.6257C56.0226 81.219 60.8636 80.3345 64.0975 78.5623C68.0211 76.4125 68.4993 71.8158 67.0451 68.3909L63.642 60.3434C63.5054 60.0626 63.4728 59.7817 63.5281 59.5203C63.9023 57.7901 63.7429 55.9888 62.7278 54.2554L62.5261 53.9132V53.9164Z" fill="#7393F9"/>
<path d="M123.759 24.9549C125.796 23.654 127.169 21.5429 127.53 19.1638L128.141 15.1159C128.171 14.9158 128.343 14.7705 128.548 14.7705C128.75 14.7705 128.922 14.919 128.955 15.1159L129.566 19.1638C129.924 21.5429 131.297 23.6508 133.337 24.9549L133.867 25.2938C133.984 25.3681 134.056 25.4972 134.056 25.636V25.6618C134.056 25.8006 133.984 25.9298 133.867 26.004L133.337 26.3429C131.3 27.6438 129.927 29.755 129.566 32.134L128.955 36.1819C128.925 36.3821 128.753 36.5273 128.548 36.5273C128.346 36.5273 128.174 36.3788 128.141 36.1819L127.53 32.134C127.172 29.755 125.799 27.6471 123.759 26.3429L123.229 26.004C123.112 25.9298 123.04 25.8006 123.04 25.6618V25.636C123.04 25.4972 123.112 25.3681 123.229 25.2938L123.759 24.9549Z" fill="#66BAFF"/>
<path d="M11.2204 39.9119C12.6552 38.9952 13.6214 37.5103 13.8752 35.8349L14.3046 32.9846C14.3274 32.8458 14.4478 32.7393 14.5909 32.7393C14.7341 32.7393 14.8544 32.8426 14.8772 32.9846L15.3067 35.8349C15.5604 37.5103 16.5267 38.9952 17.9614 39.9119L18.3356 40.1508C18.4169 40.2024 18.469 40.2928 18.469 40.3929V40.409C18.469 40.5059 18.4202 40.5962 18.3356 40.6511L17.9614 40.89C16.5267 41.8068 15.5604 43.2916 15.3067 44.967L14.8772 47.8173C14.8544 47.9561 14.7341 48.0626 14.5909 48.0626C14.4478 48.0626 14.3274 47.9594 14.3046 47.8173L13.8752 44.967C13.6214 43.2916 12.6552 41.8068 11.2204 40.89L10.8463 40.6511C10.7649 40.5995 10.7129 40.5091 10.7129 40.409V40.3929C10.7129 40.296 10.7617 40.2057 10.8463 40.1508L11.2204 39.9119Z" fill="#8FFFAB"/>
<path d="M112.287 41.1754C113.667 40.2393 114.207 38.5026 113.309 37.1049C113.293 37.0791 113.273 37.05 113.257 37.0242C112.294 35.5296 110.238 35.1907 108.845 36.3011C103.197 40.8107 88.8694 54.5136 78.8066 71.564C78.8066 71.564 98.6979 50.3817 112.287 41.1754Z" fill="#83ED90"/>
<path d="M81.2689 75.909C81.0802 75.9897 100.802 64.4334 116.793 58.7715C118.449 58.184 120.215 59.3202 120.362 61.0601C120.472 62.3998 119.848 63.6038 118.231 63.8846C118.231 63.8846 99.5172 67.9842 81.2722 75.909H81.2689Z" fill="#83ED90"/>
<path d="M40.3727 83.909C40.5614 83.9897 20.8393 72.4334 4.84895 66.7715C3.19297 66.184 1.42638 67.3202 1.27998 69.0601C1.16936 70.3998 1.79402 71.6038 3.41095 71.8846C3.41095 71.8846 22.1244 75.9842 40.3694 83.909H40.3727Z" fill="#83ED90"/>
<path d="M104.944 87.1173C106.303 87.5757 107.771 86.8655 108.073 85.471C108.35 84.1992 107.514 82.9596 106.229 82.7078C94.6856 80.4418 82.6904 80.303 82.5732 80.29C82.5732 80.29 91.0939 82.4367 104.944 87.1173Z" fill="#83ED90"/>
<path d="M16.6981 95.1173C15.3382 95.5757 13.8709 94.8655 13.5683 93.471C13.2918 92.1992 14.1279 90.9596 15.413 90.7078C26.956 88.4418 38.9512 88.303 39.0684 88.29C39.0684 88.29 30.5477 90.4367 16.6981 95.1173Z" fill="#83ED90"/>
<defs>
<linearGradient id="paint0_linear_892_30659" x1="61.9985" y1="64.2485" x2="62.6738" y2="59.5834" gradientUnits="userSpaceOnUse">
<stop stop-color="#718CF6"/>
<stop offset="1" stop-color="#4C70E0"/>
</linearGradient>
<linearGradient id="paint1_linear_892_30659" x1="64.3644" y1="12.9991" x2="67.747" y2="51.9949" gradientUnits="userSpaceOnUse">
<stop offset="0.67" stop-color="#718CF6"/>
<stop offset="0.78" stop-color="#6885F1"/>
<stop offset="0.96" stop-color="#5274E3"/>
<stop offset="1" stop-color="#4C70E0"/>
</linearGradient>
<linearGradient id="paint2_linear_892_30659" x1="61.1959" y1="88.8962" x2="63.6761" y2="74.725" gradientUnits="userSpaceOnUse">
<stop offset="0.2" stop-color="#FF78B9"/>
<stop offset="0.45" stop-color="#F972B4"/>
<stop offset="0.79" stop-color="#E864A9"/>
<stop offset="1" stop-color="#DB58A0"/>
</linearGradient>
<linearGradient id="paint3_linear_892_30659" x1="66.637" y1="51.4181" x2="59.1831" y2="64.4337" gradientUnits="userSpaceOnUse">
<stop stop-color="#7393F9"/>
<stop offset="1" stop-color="#4C70E0"/>
</linearGradient>
</defs>
</svg>
