<svg width="94" height="45" viewBox="0 0 94 45" fill="none" xmlns="http://www.w3.org/2000/svg">
<g opacity="0.4">
<path opacity="0.3" d="M13.8691 45.2126H0.5V42.6548C0.5 38.5773 3.162 35.2411 6.41554 35.2411H7.59865C8.24936 35.2411 8.78176 34.5738 8.78176 33.7583V24.6765C8.78176 18.5231 12.7452 13.5558 17.6551 13.5558H33.3017C34.8102 13.5558 36.0228 12.036 36.0228 10.1455V9.99725C36.0228 5.88262 38.6848 2.5835 41.9384 2.5835C46.73 2.5835 53.4145 2.5835 58.2061 2.5835C61.4597 2.5835 64.1217 5.91968 64.1217 9.99725V24.8247H76.8105C85.8022 24.8247 93.0783 33.9437 93.0783 45.2126H13.8691Z" fill="url(#paint0_linear_760_123969)"/>
<path d="M77.8871 32.1522C61.7134 44.5441 48.0062 29.1694 27.8108 43.0819L26.0314 36.8238C26.8415 36.122 27.5215 35.0254 27.9916 33.6875C28.1861 33.1253 28.3361 32.5484 28.4401 31.9621C28.5988 31.1113 28.6787 30.2473 28.6788 29.3814C28.6788 25.7479 27.3406 22.6627 25.4817 21.5296C25.1547 21.3277 24.7946 21.1865 24.4184 21.1128C24.247 21.0777 24.0725 21.0606 23.8976 21.0617C23.1453 21.0617 22.4292 21.3687 21.7927 21.9097L20.0205 15.6663C40.216 1.74644 53.9231 17.1284 70.0968 4.73657L71.8618 10.9508C71.1674 11.543 70.5742 12.4276 70.1258 13.5023C69.9146 13.9945 69.7429 14.503 69.6122 15.0229C69.3364 16.1296 69.1979 17.2666 69.1999 18.4078C69.1999 22.3338 70.7695 25.6309 72.8744 26.5009C73.1949 26.6309 73.5349 26.705 73.8799 26.7203H73.9811C74.7406 26.7203 75.464 26.4132 76.1005 25.8649L77.8871 32.1522Z" fill="url(#paint1_linear_760_123969)"/>
<g clip-path="url(#clip0_760_123969)">
<path d="M50.3354 24.5261C51.088 24.5261 51.6982 23.9159 51.6982 23.1633C51.6982 22.4106 51.088 21.8005 50.3354 21.8005C49.5827 21.8005 48.9726 22.4106 48.9726 23.1633C48.9726 23.9159 49.5827 24.5261 50.3354 24.5261Z" fill="url(#paint2_linear_760_123969)"/>
<path d="M50.3354 24.5261C51.088 24.5261 51.6982 23.9159 51.6982 23.1633C51.6982 22.4106 51.088 21.8005 50.3354 21.8005C49.5827 21.8005 48.9726 22.4106 48.9726 23.1633C48.9726 23.9159 49.5827 24.5261 50.3354 24.5261Z" fill="white"/>
<path fill-rule="evenodd" clip-rule="evenodd" d="M44.8842 17.7122C44.5079 17.7122 44.2029 18.0172 44.2029 18.3935C44.2029 18.7699 44.5079 19.0749 44.8842 19.0749H46.9284C47.3047 19.0749 47.6098 19.38 47.6098 19.7563C47.6098 20.1327 47.3047 20.4377 46.9284 20.4377L43.8622 20.4377C43.4858 20.4377 43.1808 20.7428 43.1808 21.1191C43.1808 21.4954 43.4858 21.8005 43.8622 21.8005H45.5656C45.942 21.8005 46.247 22.1056 46.247 22.4819C46.247 22.8582 45.942 23.1633 45.5656 23.1633H44.2029C43.8265 23.1633 43.5215 23.4684 43.5215 23.8447C43.5215 24.221 43.8265 24.5261 44.2029 24.5261H45.056C45.6611 26.8772 47.7954 28.6144 50.3354 28.6144C53.346 28.6144 55.7865 26.1739 55.7865 23.1633C55.7865 20.1527 53.346 17.7122 50.3354 17.7122H44.8842ZM50.3354 25.8889C51.8407 25.8889 53.0609 24.6686 53.0609 23.1633C53.0609 21.658 51.8407 20.4377 50.3354 20.4377C48.8301 20.4377 47.6098 21.658 47.6098 23.1633C47.6098 24.6686 48.8301 25.8889 50.3354 25.8889Z" fill="url(#paint3_linear_760_123969)"/>
<path fill-rule="evenodd" clip-rule="evenodd" d="M44.8842 17.7122C44.5079 17.7122 44.2029 18.0172 44.2029 18.3935C44.2029 18.7699 44.5079 19.0749 44.8842 19.0749H46.9284C47.3047 19.0749 47.6098 19.38 47.6098 19.7563C47.6098 20.1327 47.3047 20.4377 46.9284 20.4377L43.8622 20.4377C43.4858 20.4377 43.1808 20.7428 43.1808 21.1191C43.1808 21.4954 43.4858 21.8005 43.8622 21.8005H45.5656C45.942 21.8005 46.247 22.1056 46.247 22.4819C46.247 22.8582 45.942 23.1633 45.5656 23.1633H44.2029C43.8265 23.1633 43.5215 23.4684 43.5215 23.8447C43.5215 24.221 43.8265 24.5261 44.2029 24.5261H45.056C45.6611 26.8772 47.7954 28.6144 50.3354 28.6144C53.346 28.6144 55.7865 26.1739 55.7865 23.1633C55.7865 20.1527 53.346 17.7122 50.3354 17.7122H44.8842ZM50.3354 25.8889C51.8407 25.8889 53.0609 24.6686 53.0609 23.1633C53.0609 21.658 51.8407 20.4377 50.3354 20.4377C48.8301 20.4377 47.6098 21.658 47.6098 23.1633C47.6098 24.6686 48.8301 25.8889 50.3354 25.8889Z" fill="white"/>
<path d="M41.818 21.8005C42.1943 21.8005 42.4994 21.4954 42.4994 21.1191C42.4994 20.7428 42.1943 20.4377 41.818 20.4377H41.4773C41.101 20.4377 40.7959 20.7428 40.7959 21.1191C40.7959 21.4954 41.101 21.8005 41.4773 21.8005H41.818Z" fill="url(#paint4_linear_760_123969)"/>
<path d="M41.818 21.8005C42.1943 21.8005 42.4994 21.4954 42.4994 21.1191C42.4994 20.7428 42.1943 20.4377 41.818 20.4377H41.4773C41.101 20.4377 40.7959 20.7428 40.7959 21.1191C40.7959 21.4954 41.101 21.8005 41.4773 21.8005H41.818Z" fill="white"/>
</g>
<path d="M73.8792 26.7202C73.5342 26.705 73.1943 26.6308 72.8738 26.5009L73.9805 30.3976C70.1034 32.7224 66.1179 33.7167 60.8014 33.7167C58.6892 33.7167 56.5916 33.5705 54.371 33.4096C52.1503 33.2488 49.7778 33.088 47.3763 33.088C42.8772 33.088 36.8808 33.5924 29.9802 37.3941L28.4395 31.9621C28.3355 32.5483 28.1855 33.1253 27.991 33.6875L29.4304 38.7685C35.9838 34.8864 41.8573 34.0018 47.3763 34.0018C52.0346 34.0018 56.4469 34.6306 60.8014 34.6306C65.5247 34.6306 70.1902 33.8922 75.0438 30.8143L73.8792 26.7202ZM41.1484 12.9539C43.4776 12.9539 45.785 13.1221 48.0129 13.2756C50.2407 13.4291 52.3818 13.5827 54.559 13.5827C58.2625 13.5827 63.1088 13.1879 68.2589 10.2489L69.6116 15.0229C69.7423 14.5029 69.914 13.9944 70.1251 13.5022L68.8014 8.85254C63.9479 11.9304 59.2824 12.6688 54.559 12.6688C50.1973 12.6688 45.7995 12.0401 41.1484 12.0401C35.6222 12.0401 29.7415 12.932 23.1953 16.8067L24.4177 21.1128C24.7939 21.1865 25.154 21.3276 25.481 21.5295L24.2586 17.2381C30.9494 13.4511 36.7795 12.9612 41.1484 12.9539Z" fill="url(#paint5_linear_760_123969)"/>
<path d="M73.8792 26.7202C73.5342 26.705 73.1943 26.6308 72.8738 26.5009L73.9805 30.3976C70.1034 32.7224 66.1179 33.7167 60.8014 33.7167C58.6892 33.7167 56.5916 33.5705 54.371 33.4096C52.1503 33.2488 49.7778 33.088 47.3763 33.088C42.8772 33.088 36.8808 33.5924 29.9802 37.3941L28.4395 31.9621C28.3355 32.5483 28.1855 33.1253 27.991 33.6875L29.4304 38.7685C35.9838 34.8864 41.8573 34.0018 47.3763 34.0018C52.0346 34.0018 56.4469 34.6306 60.8014 34.6306C65.5247 34.6306 70.1902 33.8922 75.0438 30.8143L73.8792 26.7202ZM41.1484 12.9539C43.4776 12.9539 45.785 13.1221 48.0129 13.2756C50.2407 13.4291 52.3818 13.5827 54.559 13.5827C58.2625 13.5827 63.1088 13.1879 68.2589 10.2489L69.6116 15.0229C69.7423 14.5029 69.914 13.9944 70.1251 13.5022L68.8014 8.85254C63.9479 11.9304 59.2824 12.6688 54.559 12.6688C50.1973 12.6688 45.7995 12.0401 41.1484 12.0401C35.6222 12.0401 29.7415 12.932 23.1953 16.8067L24.4177 21.1128C24.7939 21.1865 25.154 21.3276 25.481 21.5295L24.2586 17.2381C30.9494 13.4511 36.7795 12.9612 41.1484 12.9539Z" fill="white"/>
<path d="M63.7674 25.0679L63.5865 25.0971C63.1029 25.1793 62.6063 25.0786 62.1914 24.8143C61.7765 24.55 61.4723 24.1406 61.337 23.6642L61.2863 23.4888C61.2231 23.2641 61.2075 23.0285 61.2406 22.7973C61.2737 22.5662 61.3546 22.3447 61.4782 22.1473C61.6018 21.95 61.7652 21.7812 61.9577 21.6521C62.1503 21.5229 62.3676 21.4363 62.5956 21.3979L62.7764 21.3686C63.2594 21.2828 63.7568 21.3811 64.1723 21.6444C64.5878 21.9077 64.892 22.3174 65.026 22.7942L65.0766 22.9697C65.1398 23.1948 65.1554 23.4308 65.1224 23.6624C65.0894 23.894 65.0085 24.116 64.885 24.3139C64.7615 24.5119 64.5982 24.6813 64.4056 24.8112C64.213 24.9411 63.9956 25.0286 63.7674 25.0679ZM38.1541 23.3572C38.0187 22.8812 37.7143 22.4726 37.2992 22.2095C36.884 21.9464 36.3874 21.8474 35.9046 21.9316L35.7165 21.9608C35.4892 22.0001 35.2727 22.0874 35.081 22.2169C34.8893 22.3465 34.7267 22.5153 34.6039 22.7126C34.4811 22.9098 34.4007 23.131 34.3681 23.3618C34.3355 23.5925 34.3513 23.8276 34.4145 24.0517L34.4651 24.2272C34.599 24.703 34.9018 25.1122 35.3155 25.3766C35.7292 25.641 36.2248 25.7419 36.7075 25.6601L36.8955 25.6308C37.123 25.5913 37.3396 25.5041 37.5316 25.3746C37.7235 25.2452 37.8865 25.0765 38.0099 24.8794C38.1333 24.6824 38.2144 24.4613 38.2479 24.2306C38.2815 23.9999 38.2668 23.7646 38.2048 23.5399L38.1541 23.3572Z" fill="url(#paint6_linear_760_123969)"/>
<path d="M63.7674 25.0679L63.5865 25.0971C63.1029 25.1793 62.6063 25.0786 62.1914 24.8143C61.7765 24.55 61.4723 24.1406 61.337 23.6642L61.2863 23.4888C61.2231 23.2641 61.2075 23.0285 61.2406 22.7973C61.2737 22.5662 61.3546 22.3447 61.4782 22.1473C61.6018 21.95 61.7652 21.7812 61.9577 21.6521C62.1503 21.5229 62.3676 21.4363 62.5956 21.3979L62.7764 21.3686C63.2594 21.2828 63.7568 21.3811 64.1723 21.6444C64.5878 21.9077 64.892 22.3174 65.026 22.7942L65.0766 22.9697C65.1398 23.1948 65.1554 23.4308 65.1224 23.6624C65.0894 23.894 65.0085 24.116 64.885 24.3139C64.7615 24.5119 64.5982 24.6813 64.4056 24.8112C64.213 24.9411 63.9956 25.0286 63.7674 25.0679ZM38.1541 23.3572C38.0187 22.8812 37.7143 22.4726 37.2992 22.2095C36.884 21.9464 36.3874 21.8474 35.9046 21.9316L35.7165 21.9608C35.4892 22.0001 35.2727 22.0874 35.081 22.2169C34.8893 22.3465 34.7267 22.5153 34.6039 22.7126C34.4811 22.9098 34.4007 23.131 34.3681 23.3618C34.3355 23.5925 34.3513 23.8276 34.4145 24.0517L34.4651 24.2272C34.599 24.703 34.9018 25.1122 35.3155 25.3766C35.7292 25.641 36.2248 25.7419 36.7075 25.6601L36.8955 25.6308C37.123 25.5913 37.3396 25.5041 37.5316 25.3746C37.7235 25.2452 37.8865 25.0765 38.0099 24.8794C38.1333 24.6824 38.2144 24.4613 38.2479 24.2306C38.2815 23.9999 38.2668 23.7646 38.2048 23.5399L38.1541 23.3572Z" fill="white"/>
<path d="M75.7327 4.05683L73.9501 4.68347C73.8584 4.71482 73.7788 4.77395 73.7224 4.85259C73.666 4.93124 73.6357 5.02547 73.6357 5.12212C73.6357 5.21877 73.666 5.31301 73.7224 5.39165C73.7788 5.4703 73.8584 5.52943 73.9501 5.56077L75.7327 6.18742C75.799 6.21021 75.8592 6.24772 75.9087 6.29712C75.9583 6.34652 75.9959 6.4065 76.0188 6.47254L76.6476 8.24908C76.679 8.3405 76.7384 8.41985 76.8173 8.47603C76.8962 8.5322 76.9907 8.5624 77.0877 8.5624C77.1847 8.5624 77.2793 8.5322 77.3582 8.47603C77.4371 8.41985 77.4964 8.3405 77.5279 8.24908L78.1566 6.47254C78.1799 6.40673 78.2177 6.34695 78.2672 6.29761C78.3167 6.24827 78.3767 6.21061 78.4427 6.18742L80.2285 5.56077C80.3202 5.52943 80.3998 5.4703 80.4562 5.39165C80.5125 5.31301 80.5428 5.21877 80.5428 5.12212C80.5428 5.02547 80.5125 4.93124 80.4562 4.85259C80.3998 4.77395 80.3202 4.71482 80.2285 4.68347L78.4427 4.05683C78.377 4.03305 78.3173 3.99519 78.2679 3.94593C78.2185 3.89666 78.1805 3.83719 78.1566 3.7717L77.5279 1.99203C77.4964 1.90061 77.4371 1.82126 77.3582 1.76509C77.2793 1.70891 77.1847 1.67871 77.0877 1.67871C76.9907 1.67871 76.8962 1.70891 76.8173 1.76509C76.7384 1.82126 76.679 1.90061 76.6476 1.99203L76.0188 3.7717C75.9955 3.83752 75.9577 3.89729 75.9082 3.94664C75.8587 3.99598 75.7987 4.03363 75.7327 4.05683Z" fill="url(#paint7_linear_760_123969)"/>
<path d="M74.4497 0.749596L74.2229 0.112508C74.2119 0.0797504 74.1909 0.0512546 74.1628 0.0310608C74.1348 0.010867 74.101 0 74.0663 0C74.0317 0 73.9979 0.010867 73.9699 0.0310608C73.9418 0.0512546 73.9208 0.0797504 73.9098 0.112508L73.6999 0.749596C73.6917 0.772911 73.6783 0.794088 73.6608 0.811554C73.6433 0.82902 73.622 0.842326 73.5986 0.850484L72.95 1.0616C72.9178 1.07291 72.8899 1.0939 72.8702 1.12167C72.8504 1.14945 72.8398 1.18264 72.8398 1.21667C72.8398 1.2507 72.8504 1.28389 72.8702 1.31167C72.8899 1.33944 72.9178 1.36043 72.95 1.37174L73.5818 1.5922C73.6051 1.60035 73.6264 1.61366 73.6439 1.63113C73.6614 1.64859 73.6748 1.66977 73.683 1.69308L73.9023 2.32083C73.9133 2.35359 73.9343 2.38208 73.9624 2.40228C73.9904 2.42247 74.0242 2.43334 74.0589 2.43334C74.0935 2.43334 74.1273 2.42247 74.1553 2.40228C74.1834 2.38208 74.2044 2.35359 74.2154 2.32083L74.4497 1.69308C74.4579 1.66977 74.4713 1.64859 74.4888 1.63113C74.5063 1.61366 74.5276 1.60035 74.5509 1.5922L75.1827 1.37174C75.2149 1.36043 75.2428 1.33944 75.2625 1.31167C75.2823 1.28389 75.2929 1.2507 75.2929 1.21667C75.2929 1.18264 75.2823 1.14945 75.2625 1.12167C75.2428 1.0939 75.2149 1.07291 75.1827 1.0616L74.5434 0.841142C74.5224 0.833086 74.5032 0.820804 74.4871 0.805058C74.4709 0.789311 74.4582 0.770434 74.4497 0.749596Z" fill="url(#paint8_linear_760_123969)" fill-opacity="0.9"/>
<path d="M16.5485 33.5518L16.1681 32.4834C16.1497 32.4284 16.1145 32.3806 16.0674 32.3468C16.0203 32.3129 15.9636 32.2947 15.9055 32.2947C15.8475 32.2947 15.7908 32.3129 15.7437 32.3468C15.6966 32.3806 15.6614 32.4284 15.643 32.4834L15.2909 33.5518C15.2772 33.5909 15.2548 33.6264 15.2254 33.6557C15.196 33.685 15.1604 33.7073 15.1211 33.721L14.0334 34.075C13.9794 34.094 13.9326 34.1292 13.8995 34.1758C13.8664 34.2224 13.8486 34.278 13.8486 34.3351C13.8486 34.3922 13.8664 34.4478 13.8995 34.4944C13.9326 34.541 13.9794 34.5762 14.0334 34.5952L15.0929 34.9649C15.1321 34.9786 15.1677 35.0009 15.1971 35.0302C15.2265 35.0594 15.2489 35.095 15.2626 35.1341L15.6305 36.1868C15.6488 36.2418 15.684 36.2896 15.7311 36.3234C15.7783 36.3573 15.8349 36.3755 15.893 36.3755C15.9511 36.3755 16.0077 36.3573 16.0548 36.3234C16.1019 36.2896 16.1371 36.2418 16.1555 36.1868L16.5485 35.1341C16.5622 35.095 16.5846 35.0594 16.614 35.0302C16.6434 35.0009 16.679 34.9786 16.7182 34.9649L17.7777 34.5952C17.8317 34.5762 17.8785 34.541 17.9116 34.4944C17.9447 34.4478 17.9625 34.3922 17.9625 34.3351C17.9625 34.278 17.9447 34.2224 17.9116 34.1758C17.8785 34.1292 17.8317 34.094 17.7777 34.075L16.7057 33.7053C16.6703 33.6918 16.6381 33.6712 16.6111 33.6448C16.584 33.6184 16.5627 33.5867 16.5485 33.5518Z" fill="url(#paint9_linear_760_123969)"/>
<path d="M77.693 39.5801L77.3126 38.5117C77.2942 38.4567 77.259 38.409 77.2119 38.3751C77.1648 38.3412 77.1082 38.323 77.0501 38.323C76.992 38.323 76.9354 38.3412 76.8882 38.3751C76.8411 38.409 76.8059 38.4567 76.7876 38.5117L76.4354 39.5801C76.4217 39.6192 76.3993 39.6547 76.3699 39.684C76.3405 39.7133 76.3049 39.7356 76.2657 39.7493L75.1779 40.1034C75.1239 40.1223 75.0771 40.1575 75.044 40.2041C75.0109 40.2507 74.9932 40.3063 74.9932 40.3634C74.9932 40.4205 75.0109 40.4761 75.044 40.5227C75.0771 40.5693 75.1239 40.6045 75.1779 40.6235L76.2374 40.9932C76.2766 41.0069 76.3123 41.0292 76.3416 41.0585C76.371 41.0878 76.3934 41.1233 76.4072 41.1624L76.775 42.2151C76.7933 42.2701 76.8286 42.3179 76.8757 42.3517C76.9228 42.3856 76.9794 42.4038 77.0375 42.4038C77.0956 42.4038 77.1522 42.3856 77.1993 42.3517C77.2464 42.3179 77.2817 42.2701 77.3 42.2151L77.693 41.1624C77.7067 41.1233 77.7291 41.0878 77.7585 41.0585C77.7879 41.0292 77.8235 41.0069 77.8628 40.9932L78.9223 40.6235C78.9763 40.6045 79.023 40.5693 79.0561 40.5227C79.0892 40.4761 79.107 40.4205 79.107 40.3634C79.107 40.3063 79.0892 40.2507 79.0561 40.2041C79.023 40.1575 78.9763 40.1223 78.9223 40.1034L77.8502 39.7336C77.8148 39.7201 77.7827 39.6995 77.7556 39.6731C77.7286 39.6467 77.7073 39.6151 77.693 39.5801Z" fill="url(#paint10_linear_760_123969)"/>
<path d="M19.5894 35.4102L19.3625 34.7732C19.3516 34.7404 19.3306 34.7119 19.3025 34.6917C19.2744 34.6715 19.2406 34.6606 19.206 34.6606C19.1714 34.6606 19.1376 34.6715 19.1095 34.6917C19.0814 34.7119 19.0604 34.7404 19.0495 34.7732L18.8395 35.4102C18.8313 35.4336 18.818 35.4547 18.8004 35.4722C18.7829 35.4897 18.7617 35.503 18.7383 35.5111L18.0896 35.7222C18.0574 35.7336 18.0295 35.7545 18.0098 35.7823C17.9901 35.8101 17.9795 35.8433 17.9795 35.8773C17.9795 35.9113 17.9901 35.9445 18.0098 35.9723C18.0295 36.0001 18.0574 36.0211 18.0896 36.0324L18.7214 36.2528C18.7448 36.261 18.766 36.2743 18.7836 36.2918C18.8011 36.3092 18.8144 36.3304 18.8226 36.3537L19.042 36.9815C19.0529 37.0142 19.0739 37.0427 19.102 37.0629C19.1301 37.0831 19.1639 37.094 19.1985 37.094C19.2331 37.094 19.2669 37.0831 19.295 37.0629C19.3231 37.0427 19.3441 37.0142 19.355 36.9815L19.5894 36.3537C19.5975 36.3304 19.6109 36.3092 19.6284 36.2918C19.6459 36.2743 19.6672 36.261 19.6906 36.2528L20.3223 36.0324C20.3546 36.0211 20.3824 36.0001 20.4022 35.9723C20.4219 35.9445 20.4325 35.9113 20.4325 35.8773C20.4325 35.8433 20.4219 35.8101 20.4022 35.7823C20.3824 35.7545 20.3546 35.7336 20.3223 35.7222L19.6831 35.5018C19.662 35.4937 19.6428 35.4814 19.6267 35.4657C19.6106 35.45 19.5979 35.4311 19.5894 35.4102Z" fill="url(#paint11_linear_760_123969)"/>
<path d="M80.7349 41.4386L80.508 40.8015C80.4971 40.7687 80.4761 40.7402 80.448 40.72C80.4199 40.6998 80.3861 40.689 80.3515 40.689C80.3169 40.689 80.2831 40.6998 80.255 40.72C80.2269 40.7402 80.2059 40.7687 80.195 40.8015L79.985 41.4386C79.9768 41.4619 79.9635 41.4831 79.9459 41.5005C79.9284 41.518 79.9072 41.5313 79.8838 41.5394L79.2352 41.7506C79.2029 41.7619 79.1751 41.7829 79.1553 41.8106C79.1356 41.8384 79.125 41.8716 79.125 41.9056C79.125 41.9397 79.1356 41.9729 79.1553 42.0006C79.1751 42.0284 79.2029 42.0494 79.2352 42.0607L79.8669 42.2812C79.8903 42.2893 79.9116 42.3026 79.9291 42.3201C79.9466 42.3376 79.96 42.3587 79.9681 42.382L80.1875 43.0098C80.1984 43.0426 80.2194 43.071 80.2475 43.0912C80.2756 43.1114 80.3094 43.1223 80.344 43.1223C80.3786 43.1223 80.4124 43.1114 80.4405 43.0912C80.4686 43.071 80.4896 43.0426 80.5005 43.0098L80.7349 42.382C80.7431 42.3587 80.7564 42.3376 80.7739 42.3201C80.7915 42.3026 80.8127 42.2893 80.8361 42.2812L81.4679 42.0607C81.5001 42.0494 81.528 42.0284 81.5477 42.0006C81.5674 41.9729 81.578 41.9397 81.578 41.9056C81.578 41.8716 81.5674 41.8384 81.5477 41.8106C81.528 41.7829 81.5001 41.7619 81.4679 41.7506L80.8286 41.5301C80.8075 41.5221 80.7883 41.5098 80.7722 41.494C80.7561 41.4783 80.7434 41.4594 80.7349 41.4386Z" fill="url(#paint12_linear_760_123969)"/>
</g>
<defs>
<linearGradient id="paint0_linear_760_123969" x1="0.5" y1="23.898" x2="93.0783" y2="23.898" gradientUnits="userSpaceOnUse">
<stop stop-color="#B473F5"/>
<stop offset="1" stop-color="#E292AA"/>
</linearGradient>
<linearGradient id="paint1_linear_760_123969" x1="20.0205" y1="23.9092" x2="77.8871" y2="23.9092" gradientUnits="userSpaceOnUse">
<stop stop-color="#B473F5"/>
<stop offset="1" stop-color="#E292AA"/>
</linearGradient>
<linearGradient id="paint2_linear_760_123969" x1="40.7959" y1="23.1633" x2="55.7865" y2="23.1633" gradientUnits="userSpaceOnUse">
<stop stop-color="#B473F5"/>
<stop offset="1" stop-color="#E292AA"/>
</linearGradient>
<linearGradient id="paint3_linear_760_123969" x1="40.7959" y1="23.1633" x2="55.7865" y2="23.1633" gradientUnits="userSpaceOnUse">
<stop stop-color="#B473F5"/>
<stop offset="1" stop-color="#E292AA"/>
</linearGradient>
<linearGradient id="paint4_linear_760_123969" x1="40.7959" y1="23.1633" x2="55.7865" y2="23.1633" gradientUnits="userSpaceOnUse">
<stop stop-color="#B473F5"/>
<stop offset="1" stop-color="#E292AA"/>
</linearGradient>
<linearGradient id="paint5_linear_760_123969" x1="23.1953" y1="23.8105" x2="75.0438" y2="23.8105" gradientUnits="userSpaceOnUse">
<stop stop-color="#B473F5"/>
<stop offset="1" stop-color="#E292AA"/>
</linearGradient>
<linearGradient id="paint6_linear_760_123969" x1="34.3516" y1="23.5131" x2="65.1392" y2="23.5131" gradientUnits="userSpaceOnUse">
<stop stop-color="#B473F5"/>
<stop offset="1" stop-color="#E292AA"/>
</linearGradient>
<linearGradient id="paint7_linear_760_123969" x1="73.6357" y1="5.12056" x2="80.5428" y2="5.12056" gradientUnits="userSpaceOnUse">
<stop stop-color="#B473F5"/>
<stop offset="1" stop-color="#E292AA"/>
</linearGradient>
<linearGradient id="paint8_linear_760_123969" x1="72.8398" y1="1.21667" x2="75.2929" y2="1.21667" gradientUnits="userSpaceOnUse">
<stop stop-color="#B473F5"/>
<stop offset="1" stop-color="#E292AA"/>
</linearGradient>
<linearGradient id="paint9_linear_760_123969" x1="13.8486" y1="34.3351" x2="17.9625" y2="34.3351" gradientUnits="userSpaceOnUse">
<stop stop-color="#B473F5"/>
<stop offset="1" stop-color="#E292AA"/>
</linearGradient>
<linearGradient id="paint10_linear_760_123969" x1="74.9932" y1="40.3634" x2="79.107" y2="40.3634" gradientUnits="userSpaceOnUse">
<stop stop-color="#B473F5"/>
<stop offset="1" stop-color="#E292AA"/>
</linearGradient>
<linearGradient id="paint11_linear_760_123969" x1="17.9795" y1="35.8773" x2="20.4325" y2="35.8773" gradientUnits="userSpaceOnUse">
<stop stop-color="#B473F5"/>
<stop offset="1" stop-color="#E292AA"/>
</linearGradient>
<linearGradient id="paint12_linear_760_123969" x1="79.125" y1="41.9056" x2="81.578" y2="41.9056" gradientUnits="userSpaceOnUse">
<stop stop-color="#B473F5"/>
<stop offset="1" stop-color="#E292AA"/>
</linearGradient>
<clipPath id="clip0_760_123969">
<rect width="16.3534" height="16.3534" fill="white" transform="translate(40.1143 14.9868)"/>
</clipPath>
</defs>
</svg>
