<svg fill="none" height="15" viewBox="0 0 21 15" width="21" xmlns="http://www.w3.org/2000/svg"><path d="m21 5.625v-5.625h-21v5.625c1.05 0 1.90909.84375 1.90909 1.875s-.85909 1.875-1.90909 1.875v5.625h21v-5.625c-1.05 0-1.9091-.84375-1.9091-1.875s.8591-1.875 1.9091-1.875zm-9.5455 5.625v1.875h-1.90905v-1.875h-1.90909v-1.875h3.81814c.2578 0 .4773-.15938.4773-.35625 0-.975-4.77271 0-4.77271-3.04688 0-1.21875 1.06909-2.22187 2.38636-2.22187v-1.875h1.90905v1.875h1.9091v1.875h-3.81815c-.25772 0-.47727.15938-.47727.35625 0 .975 4.77272 0 4.77272 3.04687 0 1.21878-1.0691 2.22188-2.3864 2.22188z" fill="#46c46d"/></svg>