<svg xmlns="http://www.w3.org/2000/svg" viewBox="0 0 262 100">
  <g id="wrapper-layer">
    <g data-name="Layer 2">
      <path style="fill: var(--primary-0, #01007f)" d="M0 0h262v22H0z"/>
      <path style="fill: var(--primary-1, #0000b0)" d="M261 21h1v1h-1zM259 21h1v1h-1zM260 20h1v1h-1zM258 20h1v1h-1zM261 19h1v1h-1zM259 19h1v1h-1zM260 18h1v1h-1zM258 18h1v1h-1zM261 17h1v1h-1zM259 17h1v1h-1zM260 16h1v1h-1zM258 16h1v1h-1zM261 15h1v1h-1zM259 15h1v1h-1zM257 21h1v1h-1zM255 21h1v1h-1zM256 20h1v1h-1zM254 20h1v1h-1zM257 19h1v1h-1zM255 19h1v1h-1zM256 18h1v1h-1zM254 18h1v1h-1zM257 17h1v1h-1zM255 17h1v1h-1zM256 16h1v1h-1zM254 16h1v1h-1zM257 15h1v1h-1zM255 15h1v1h-1zM253 21h1v1h-1zM251 21h1v1h-1zM252 20h1v1h-1zM250 20h1v1h-1zM253 19h1v1h-1zM251 19h1v1h-1zM252 18h1v1h-1zM250 18h1v1h-1zM253 17h1v1h-1zM251 17h1v1h-1zM252 16h1v1h-1zM250 16h1v1h-1zM253 15h1v1h-1zM251 15h1v1h-1zM249 21h1v1h-1zM247 21h1v1h-1zM248 20h1v1h-1zM246 20h1v1h-1zM249 19h1v1h-1zM247 19h1v1h-1zM248 18h1v1h-1zM246 18h1v1h-1zM249 17h1v1h-1zM247 17h1v1h-1zM248 16h1v1h-1zM246 16h1v1h-1zM249 15h1v1h-1zM247 15h1v1h-1zM245 21h1v1h-1zM243 21h1v1h-1zM244 20h1v1h-1zM242 20h1v1h-1zM245 19h1v1h-1zM243 19h1v1h-1zM244 18h1v1h-1zM242 18h1v1h-1zM245 17h1v1h-1zM243 17h1v1h-1zM244 16h1v1h-1zM242 16h1v1h-1zM245 15h1v1h-1zM243 15h1v1h-1zM241 21h1v1h-1zM239 21h1v1h-1zM240 20h1v1h-1zM238 20h1v1h-1zM241 19h1v1h-1zM239 19h1v1h-1zM240 18h1v1h-1zM238 18h1v1h-1zM241 17h1v1h-1zM239 17h1v1h-1zM240 16h1v1h-1zM238 16h1v1h-1zM241 15h1v1h-1zM239 15h1v1h-1zM237 21h1v1h-1zM235 21h1v1h-1zM236 20h1v1h-1zM234 20h1v1h-1zM237 19h1v1h-1zM235 19h1v1h-1zM236 18h1v1h-1zM234 18h1v1h-1zM237 17h1v1h-1zM235 17h1v1h-1zM236 16h1v1h-1zM234 16h1v1h-1zM237 15h1v1h-1zM235 15h1v1h-1zM233 21h1v1h-1zM231 21h1v1h-1zM232 20h1v1h-1zM230 20h1v1h-1zM233 19h1v1h-1zM231 19h1v1h-1zM232 18h1v1h-1zM230 18h1v1h-1zM233 17h1v1h-1zM231 17h1v1h-1zM232 16h1v1h-1zM230 16h1v1h-1zM233 15h1v1h-1zM231 15h1v1h-1zM229 21h1v1h-1zM227 21h1v1h-1zM228 20h1v1h-1zM226 20h1v1h-1zM229 19h1v1h-1zM227 19h1v1h-1zM228 18h1v1h-1zM226 18h1v1h-1zM229 17h1v1h-1zM227 17h1v1h-1zM228 16h1v1h-1zM226 16h1v1h-1zM229 15h1v1h-1zM227 15h1v1h-1zM225 21h1v1h-1zM223 21h1v1h-1zM224 20h1v1h-1zM222 20h1v1h-1zM225 19h1v1h-1zM223 19h1v1h-1zM224 18h1v1h-1zM222 18h1v1h-1zM225 17h1v1h-1zM223 17h1v1h-1zM224 16h1v1h-1zM222 16h1v1h-1zM225 15h1v1h-1zM223 15h1v1h-1zM221 21h1v1h-1zM219 21h1v1h-1zM220 20h1v1h-1zM218 20h1v1h-1zM221 19h1v1h-1zM219 19h1v1h-1zM220 18h1v1h-1zM218 18h1v1h-1zM221 17h1v1h-1zM219 17h1v1h-1zM220 16h1v1h-1zM218 16h1v1h-1zM221 15h1v1h-1zM219 15h1v1h-1zM217 21h1v1h-1zM215 21h1v1h-1zM216 20h1v1h-1zM214 20h1v1h-1zM217 19h1v1h-1zM215 19h1v1h-1zM216 18h1v1h-1zM214 18h1v1h-1zM217 17h1v1h-1zM215 17h1v1h-1zM216 16h1v1h-1zM214 16h1v1h-1zM217 15h1v1h-1zM215 15h1v1h-1zM213 21h1v1h-1zM211 21h1v1h-1zM212 20h1v1h-1zM210 20h1v1h-1zM213 19h1v1h-1zM211 19h1v1h-1zM212 18h1v1h-1zM210 18h1v1h-1zM213 17h1v1h-1zM211 17h1v1h-1zM212 16h1v1h-1zM210 16h1v1h-1zM213 15h1v1h-1zM211 15h1v1h-1zM209 21h1v1h-1zM207 21h1v1h-1zM208 20h1v1h-1zM206 20h1v1h-1zM209 19h1v1h-1zM207 19h1v1h-1zM208 18h1v1h-1zM206 18h1v1h-1zM209 17h1v1h-1zM207 17h1v1h-1zM208 16h1v1h-1zM206 16h1v1h-1zM209 15h1v1h-1zM207 15h1v1h-1zM205 21h1v1h-1zM203 21h1v1h-1zM204 20h1v1h-1zM202 20h1v1h-1zM205 19h1v1h-1zM203 19h1v1h-1zM204 18h1v1h-1zM202 18h1v1h-1zM205 17h1v1h-1zM203 17h1v1h-1zM204 16h1v1h-1zM202 16h1v1h-1zM205 15h1v1h-1zM203 15h1v1h-1zM201 21h1v1h-1zM199 21h1v1h-1zM200 20h1v1h-1zM198 20h1v1h-1zM201 19h1v1h-1zM199 19h1v1h-1zM200 18h1v1h-1zM198 18h1v1h-1zM201 17h1v1h-1zM199 17h1v1h-1zM200 16h1v1h-1zM198 16h1v1h-1zM201 15h1v1h-1zM199 15h1v1h-1zM197 21h1v1h-1zM195 21h1v1h-1zM196 20h1v1h-1zM194 20h1v1h-1zM197 19h1v1h-1zM195 19h1v1h-1zM196 18h1v1h-1zM194 18h1v1h-1zM197 17h1v1h-1zM195 17h1v1h-1zM196 16h1v1h-1zM194 16h1v1h-1zM197 15h1v1h-1zM195 15h1v1h-1zM193 21h1v1h-1zM191 21h1v1h-1zM192 20h1v1h-1zM190 20h1v1h-1zM193 19h1v1h-1zM191 19h1v1h-1zM192 18h1v1h-1zM190 18h1v1h-1zM193 17h1v1h-1zM191 17h1v1h-1zM192 16h1v1h-1zM190 16h1v1h-1zM193 15h1v1h-1zM191 15h1v1h-1zM189 21h1v1h-1zM187 21h1v1h-1zM188 20h1v1h-1zM186 20h1v1h-1zM189 19h1v1h-1zM187 19h1v1h-1zM188 18h1v1h-1zM186 18h1v1h-1zM189 17h1v1h-1zM187 17h1v1h-1zM188 16h1v1h-1zM186 16h1v1h-1zM189 15h1v1h-1zM187 15h1v1h-1zM185 21h1v1h-1zM183 21h1v1h-1zM184 20h1v1h-1zM182 20h1v1h-1zM185 19h1v1h-1zM183 19h1v1h-1zM184 18h1v1h-1zM182 18h1v1h-1zM185 17h1v1h-1zM183 17h1v1h-1zM184 16h1v1h-1zM182 16h1v1h-1zM185 15h1v1h-1zM183 15h1v1h-1zM181 21h1v1h-1zM179 21h1v1h-1zM180 20h1v1h-1zM178 20h1v1h-1zM181 19h1v1h-1zM179 19h1v1h-1zM180 18h1v1h-1zM178 18h1v1h-1zM181 17h1v1h-1zM179 17h1v1h-1zM180 16h1v1h-1zM178 16h1v1h-1zM181 15h1v1h-1zM179 15h1v1h-1zM177 21h1v1h-1zM175 21h1v1h-1zM176 20h1v1h-1zM174 20h1v1h-1zM177 19h1v1h-1zM175 19h1v1h-1zM176 18h1v1h-1zM174 18h1v1h-1zM177 17h1v1h-1zM175 17h1v1h-1zM176 16h1v1h-1zM174 16h1v1h-1zM177 15h1v1h-1zM175 15h1v1h-1zM173 21h1v1h-1zM171 21h1v1h-1zM172 20h1v1h-1zM170 20h1v1h-1zM173 19h1v1h-1zM171 19h1v1h-1zM172 18h1v1h-1zM170 18h1v1h-1zM173 17h1v1h-1zM171 17h1v1h-1zM172 16h1v1h-1zM170 16h1v1h-1zM173 15h1v1h-1zM171 15h1v1h-1zM169 21h1v1h-1zM167 21h1v1h-1zM168 20h1v1h-1zM166 20h1v1h-1zM169 19h1v1h-1zM167 19h1v1h-1zM168 18h1v1h-1zM166 18h1v1h-1zM169 17h1v1h-1zM167 17h1v1h-1zM168 16h1v1h-1zM166 16h1v1h-1zM169 15h1v1h-1zM167 15h1v1h-1zM165 21h1v1h-1zM163 21h1v1h-1zM164 20h1v1h-1zM162 20h1v1h-1zM165 19h1v1h-1zM163 19h1v1h-1zM164 18h1v1h-1zM162 18h1v1h-1zM165 17h1v1h-1zM163 17h1v1h-1zM164 16h1v1h-1zM162 16h1v1h-1zM165 15h1v1h-1zM163 15h1v1h-1zM161 21h1v1h-1zM159 21h1v1h-1zM160 20h1v1h-1zM158 20h1v1h-1zM161 19h1v1h-1zM159 19h1v1h-1zM160 18h1v1h-1zM158 18h1v1h-1zM161 17h1v1h-1zM159 17h1v1h-1zM160 16h1v1h-1zM158 16h1v1h-1zM161 15h1v1h-1zM159 15h1v1h-1zM157 21h1v1h-1zM155 21h1v1h-1zM156 20h1v1h-1zM154 20h1v1h-1zM157 19h1v1h-1zM155 19h1v1h-1zM156 18h1v1h-1zM154 18h1v1h-1zM157 17h1v1h-1zM155 17h1v1h-1zM156 16h1v1h-1zM154 16h1v1h-1zM157 15h1v1h-1zM155 15h1v1h-1zM153 21h1v1h-1zM151 21h1v1h-1zM152 20h1v1h-1zM150 20h1v1h-1zM153 19h1v1h-1zM151 19h1v1h-1zM152 18h1v1h-1zM150 18h1v1h-1zM153 17h1v1h-1zM151 17h1v1h-1zM152 16h1v1h-1zM150 16h1v1h-1zM153 15h1v1h-1zM151 15h1v1h-1zM149 21h1v1h-1zM147 21h1v1h-1zM148 20h1v1h-1zM146 20h1v1h-1zM149 19h1v1h-1zM147 19h1v1h-1zM148 18h1v1h-1zM146 18h1v1h-1zM149 17h1v1h-1zM147 17h1v1h-1zM148 16h1v1h-1zM146 16h1v1h-1zM149 15h1v1h-1zM147 15h1v1h-1zM145 21h1v1h-1zM143 21h1v1h-1zM144 20h1v1h-1zM142 20h1v1h-1zM145 19h1v1h-1zM143 19h1v1h-1zM144 18h1v1h-1zM142 18h1v1h-1zM145 17h1v1h-1zM143 17h1v1h-1zM144 16h1v1h-1zM142 16h1v1h-1zM145 15h1v1h-1zM143 15h1v1h-1zM141 21h1v1h-1zM139 21h1v1h-1zM140 20h1v1h-1zM138 20h1v1h-1zM141 19h1v1h-1zM139 19h1v1h-1zM140 18h1v1h-1zM138 18h1v1h-1zM141 17h1v1h-1zM139 17h1v1h-1zM140 16h1v1h-1zM138 16h1v1h-1zM141 15h1v1h-1zM139 15h1v1h-1zM137 21h1v1h-1zM135 21h1v1h-1zM136 20h1v1h-1zM134 20h1v1h-1zM137 19h1v1h-1zM135 19h1v1h-1zM136 18h1v1h-1zM134 18h1v1h-1zM137 17h1v1h-1zM135 17h1v1h-1zM136 16h1v1h-1zM134 16h1v1h-1zM137 15h1v1h-1zM135 15h1v1h-1zM133 21h1v1h-1zM131 21h1v1h-1zM132 20h1v1h-1zM130 20h1v1h-1zM133 19h1v1h-1zM131 19h1v1h-1zM132 18h1v1h-1zM130 18h1v1h-1zM133 17h1v1h-1zM131 17h1v1h-1zM132 16h1v1h-1zM130 16h1v1h-1zM133 15h1v1h-1zM131 15h1v1h-1zM129 21h1v1h-1zM127 21h1v1h-1zM128 20h1v1h-1zM126 20h1v1h-1zM129 19h1v1h-1zM127 19h1v1h-1zM128 18h1v1h-1zM126 18h1v1h-1zM129 17h1v1h-1zM127 17h1v1h-1zM128 16h1v1h-1zM126 16h1v1h-1zM129 15h1v1h-1zM127 15h1v1h-1zM125 21h1v1h-1zM123 21h1v1h-1zM124 20h1v1h-1zM122 20h1v1h-1zM125 19h1v1h-1zM123 19h1v1h-1zM124 18h1v1h-1zM122 18h1v1h-1zM125 17h1v1h-1zM123 17h1v1h-1zM124 16h1v1h-1zM122 16h1v1h-1zM125 15h1v1h-1zM123 15h1v1h-1zM121 21h1v1h-1zM119 21h1v1h-1zM120 20h1v1h-1zM118 20h1v1h-1zM121 19h1v1h-1zM119 19h1v1h-1zM120 18h1v1h-1zM118 18h1v1h-1zM121 17h1v1h-1zM119 17h1v1h-1zM120 16h1v1h-1zM118 16h1v1h-1zM121 15h1v1h-1zM119 15h1v1h-1zM117 21h1v1h-1zM115 21h1v1h-1zM116 20h1v1h-1zM114 20h1v1h-1zM117 19h1v1h-1zM115 19h1v1h-1zM116 18h1v1h-1zM114 18h1v1h-1zM117 17h1v1h-1zM115 17h1v1h-1zM116 16h1v1h-1zM114 16h1v1h-1zM117 15h1v1h-1zM115 15h1v1h-1zM113 21h1v1h-1zM111 21h1v1h-1zM112 20h1v1h-1zM110 20h1v1h-1zM113 19h1v1h-1zM111 19h1v1h-1zM112 18h1v1h-1zM110 18h1v1h-1zM113 17h1v1h-1zM111 17h1v1h-1zM112 16h1v1h-1zM110 16h1v1h-1zM113 15h1v1h-1zM111 15h1v1h-1zM109 21h1v1h-1zM107 21h1v1h-1zM108 20h1v1h-1zM106 20h1v1h-1zM109 19h1v1h-1zM107 19h1v1h-1zM108 18h1v1h-1zM106 18h1v1h-1zM109 17h1v1h-1zM107 17h1v1h-1zM108 16h1v1h-1zM106 16h1v1h-1zM109 15h1v1h-1zM107 15h1v1h-1zM105 21h1v1h-1zM103 21h1v1h-1zM104 20h1v1h-1zM102 20h1v1h-1zM105 19h1v1h-1zM103 19h1v1h-1zM104 18h1v1h-1zM102 18h1v1h-1zM105 17h1v1h-1zM103 17h1v1h-1zM104 16h1v1h-1zM102 16h1v1h-1zM105 15h1v1h-1zM103 15h1v1h-1zM101 21h1v1h-1zM99 21h1v1h-1zM100 20h1v1h-1zM98 20h1v1h-1zM101 19h1v1h-1zM99 19h1v1h-1zM100 18h1v1h-1zM98 18h1v1h-1zM101 17h1v1h-1zM99 17h1v1h-1zM100 16h1v1h-1zM98 16h1v1h-1zM101 15h1v1h-1zM99 15h1v1h-1zM97 21h1v1h-1zM95 21h1v1h-1zM96 20h1v1h-1zM94 20h1v1h-1zM97 19h1v1h-1zM95 19h1v1h-1zM96 18h1v1h-1zM94 18h1v1h-1zM97 17h1v1h-1zM95 17h1v1h-1zM96 16h1v1h-1zM94 16h1v1h-1zM97 15h1v1h-1zM95 15h1v1h-1zM93 21h1v1h-1zM91 21h1v1h-1zM92 20h1v1h-1zM90 20h1v1h-1zM93 19h1v1h-1zM91 19h1v1h-1zM92 18h1v1h-1zM90 18h1v1h-1zM93 17h1v1h-1zM91 17h1v1h-1zM92 16h1v1h-1zM90 16h1v1h-1zM93 15h1v1h-1zM91 15h1v1h-1zM89 21h1v1h-1zM87 21h1v1h-1zM88 20h1v1h-1zM86 20h1v1h-1zM89 19h1v1h-1zM87 19h1v1h-1zM88 18h1v1h-1zM86 18h1v1h-1zM89 17h1v1h-1zM87 17h1v1h-1zM88 16h1v1h-1zM86 16h1v1h-1zM89 15h1v1h-1zM87 15h1v1h-1zM85 21h1v1h-1zM83 21h1v1h-1zM84 20h1v1h-1zM82 20h1v1h-1zM85 19h1v1h-1zM83 19h1v1h-1zM84 18h1v1h-1zM82 18h1v1h-1zM85 17h1v1h-1zM83 17h1v1h-1zM84 16h1v1h-1zM82 16h1v1h-1zM85 15h1v1h-1zM83 15h1v1h-1zM81 21h1v1h-1zM79 21h1v1h-1zM80 20h1v1h-1zM78 20h1v1h-1zM81 19h1v1h-1zM79 19h1v1h-1zM80 18h1v1h-1zM78 18h1v1h-1zM81 17h1v1h-1zM79 17h1v1h-1zM80 16h1v1h-1zM78 16h1v1h-1zM81 15h1v1h-1zM79 15h1v1h-1zM77 21h1v1h-1zM75 21h1v1h-1zM76 20h1v1h-1zM74 20h1v1h-1zM77 19h1v1h-1zM75 19h1v1h-1zM76 18h1v1h-1zM74 18h1v1h-1zM77 17h1v1h-1zM75 17h1v1h-1zM76 16h1v1h-1zM74 16h1v1h-1zM77 15h1v1h-1zM75 15h1v1h-1zM73 21h1v1h-1zM71 21h1v1h-1zM72 20h1v1h-1zM70 20h1v1h-1zM73 19h1v1h-1zM71 19h1v1h-1zM72 18h1v1h-1zM70 18h1v1h-1zM73 17h1v1h-1zM71 17h1v1h-1zM72 16h1v1h-1zM70 16h1v1h-1zM73 15h1v1h-1zM71 15h1v1h-1zM69 21h1v1h-1zM67 21h1v1h-1zM68 20h1v1h-1zM66 20h1v1h-1zM69 19h1v1h-1zM67 19h1v1h-1zM68 18h1v1h-1zM66 18h1v1h-1zM69 17h1v1h-1zM67 17h1v1h-1zM68 16h1v1h-1zM66 16h1v1h-1zM69 15h1v1h-1zM67 15h1v1h-1zM65 21h1v1h-1zM63 21h1v1h-1zM64 20h1v1h-1zM62 20h1v1h-1zM65 19h1v1h-1zM63 19h1v1h-1zM64 18h1v1h-1zM62 18h1v1h-1zM65 17h1v1h-1zM63 17h1v1h-1zM64 16h1v1h-1zM62 16h1v1h-1zM65 15h1v1h-1zM63 15h1v1h-1zM61 21h1v1h-1zM59 21h1v1h-1zM60 20h1v1h-1zM58 20h1v1h-1zM61 19h1v1h-1zM59 19h1v1h-1zM60 18h1v1h-1zM58 18h1v1h-1zM61 17h1v1h-1zM59 17h1v1h-1zM60 16h1v1h-1zM58 16h1v1h-1zM61 15h1v1h-1zM59 15h1v1h-1zM57 21h1v1h-1zM55 21h1v1h-1zM56 20h1v1h-1zM54 20h1v1h-1zM57 19h1v1h-1zM55 19h1v1h-1zM56 18h1v1h-1zM54 18h1v1h-1zM57 17h1v1h-1zM55 17h1v1h-1zM56 16h1v1h-1zM54 16h1v1h-1zM57 15h1v1h-1zM55 15h1v1h-1zM53 21h1v1h-1zM51 21h1v1h-1zM52 20h1v1h-1zM50 20h1v1h-1zM53 19h1v1h-1zM51 19h1v1h-1zM52 18h1v1h-1zM50 18h1v1h-1zM53 17h1v1h-1zM51 17h1v1h-1zM52 16h1v1h-1zM50 16h1v1h-1zM53 15h1v1h-1zM51 15h1v1h-1zM49 21h1v1h-1zM47 21h1v1h-1zM48 20h1v1h-1zM46 20h1v1h-1zM49 19h1v1h-1zM47 19h1v1h-1zM48 18h1v1h-1zM46 18h1v1h-1zM49 17h1v1h-1zM47 17h1v1h-1zM48 16h1v1h-1zM46 16h1v1h-1zM49 15h1v1h-1zM47 15h1v1h-1zM45 21h1v1h-1zM43 21h1v1h-1zM44 20h1v1h-1zM42 20h1v1h-1zM45 19h1v1h-1zM43 19h1v1h-1zM44 18h1v1h-1zM42 18h1v1h-1zM45 17h1v1h-1zM43 17h1v1h-1zM44 16h1v1h-1zM42 16h1v1h-1zM45 15h1v1h-1zM43 15h1v1h-1zM41 21h1v1h-1zM39 21h1v1h-1zM40 20h1v1h-1zM38 20h1v1h-1zM41 19h1v1h-1zM39 19h1v1h-1zM40 18h1v1h-1zM38 18h1v1h-1zM41 17h1v1h-1zM39 17h1v1h-1zM40 16h1v1h-1zM38 16h1v1h-1zM41 15h1v1h-1zM39 15h1v1h-1zM37 21h1v1h-1zM35 21h1v1h-1zM36 20h1v1h-1zM34 20h1v1h-1zM37 19h1v1h-1zM35 19h1v1h-1zM36 18h1v1h-1zM34 18h1v1h-1zM37 17h1v1h-1zM35 17h1v1h-1zM36 16h1v1h-1zM34 16h1v1h-1zM37 15h1v1h-1zM35 15h1v1h-1zM33 21h1v1h-1zM31 21h1v1h-1zM32 20h1v1h-1zM30 20h1v1h-1zM33 19h1v1h-1zM31 19h1v1h-1zM32 18h1v1h-1zM30 18h1v1h-1zM33 17h1v1h-1zM31 17h1v1h-1zM32 16h1v1h-1zM30 16h1v1h-1zM33 15h1v1h-1zM31 15h1v1h-1zM29 21h1v1h-1zM27 21h1v1h-1zM28 20h1v1h-1zM26 20h1v1h-1zM29 19h1v1h-1zM27 19h1v1h-1zM28 18h1v1h-1zM26 18h1v1h-1zM29 17h1v1h-1zM27 17h1v1h-1zM28 16h1v1h-1zM26 16h1v1h-1zM29 15h1v1h-1zM27 15h1v1h-1zM25 21h1v1h-1zM23 21h1v1h-1zM24 20h1v1h-1zM22 20h1v1h-1zM25 19h1v1h-1zM23 19h1v1h-1zM24 18h1v1h-1zM22 18h1v1h-1zM25 17h1v1h-1zM23 17h1v1h-1zM24 16h1v1h-1zM22 16h1v1h-1zM25 15h1v1h-1zM23 15h1v1h-1zM21 21h1v1h-1zM19 21h1v1h-1zM20 20h1v1h-1zM18 20h1v1h-1zM21 19h1v1h-1zM19 19h1v1h-1zM20 18h1v1h-1zM18 18h1v1h-1zM21 17h1v1h-1zM19 17h1v1h-1zM20 16h1v1h-1zM18 16h1v1h-1zM21 15h1v1h-1zM19 15h1v1h-1zM17 21h1v1h-1zM15 21h1v1h-1zM16 20h1v1h-1zM14 20h1v1h-1zM17 19h1v1h-1zM15 19h1v1h-1zM16 18h1v1h-1zM14 18h1v1h-1zM17 17h1v1h-1zM15 17h1v1h-1zM16 16h1v1h-1zM14 16h1v1h-1zM17 15h1v1h-1zM15 15h1v1h-1zM13 21h1v1h-1zM11 21h1v1h-1zM12 20h1v1h-1zM10 20h1v1h-1zM13 19h1v1h-1zM11 19h1v1h-1zM12 18h1v1h-1zM10 18h1v1h-1zM13 17h1v1h-1zM11 17h1v1h-1zM12 16h1v1h-1zM10 16h1v1h-1zM13 15h1v1h-1zM11 15h1v1h-1zM9 21h1v1H9zM7 21h1v1H7zM8 20h1v1H8zM6 20h1v1H6zM9 19h1v1H9zM7 19h1v1H7zM8 18h1v1H8zM6 18h1v1H6zM9 17h1v1H9zM7 17h1v1H7zM8 16h1v1H8zM6 16h1v1H6zM9 15h1v1H9zM7 15h1v1H7zM1 21h1v1H1zM0 20h1v1H0zM1 19h1v1H1zM0 18h1v1H0zM1 17h1v1H1zM0 16h1v1H0zM1 15h1v1H1zM5 21h1v1H5zM3 21h1v1H3zM4 20h1v1H4zM2 20h1v1H2zM5 19h1v1H5zM3 19h1v1H3zM4 18h1v1H4zM2 18h1v1H2zM5 17h1v1H5zM3 17h1v1H3zM4 16h1v1H4zM2 16h1v1H2zM5 15h1v1H5zM3 15h1v1H3zM0 22h262v13H0z"/>
      <path style="fill: var(--primary-2, #0000e1)" d="M0 35h262v13H0z"/>
      <path style="fill: var(--primary-3, #2d3dee)" d="M261 47h1v1h-1zM259 47h1v1h-1zM260 46h1v1h-1zM258 46h1v1h-1zM261 45h1v1h-1zM259 45h1v1h-1zM260 44h1v1h-1zM258 44h1v1h-1zM261 43h1v1h-1zM259 43h1v1h-1zM260 42h1v1h-1zM258 42h1v1h-1zM261 41h1v1h-1zM259 41h1v1h-1zM257 47h1v1h-1zM255 47h1v1h-1zM256 46h1v1h-1zM254 46h1v1h-1zM257 45h1v1h-1zM255 45h1v1h-1zM256 44h1v1h-1zM254 44h1v1h-1zM257 43h1v1h-1zM255 43h1v1h-1zM256 42h1v1h-1zM254 42h1v1h-1zM257 41h1v1h-1zM255 41h1v1h-1zM253 47h1v1h-1zM251 47h1v1h-1zM252 46h1v1h-1zM250 46h1v1h-1zM253 45h1v1h-1zM251 45h1v1h-1zM252 44h1v1h-1zM250 44h1v1h-1zM253 43h1v1h-1zM251 43h1v1h-1zM252 42h1v1h-1zM250 42h1v1h-1zM253 41h1v1h-1zM251 41h1v1h-1zM249 47h1v1h-1zM247 47h1v1h-1zM248 46h1v1h-1zM246 46h1v1h-1zM249 45h1v1h-1zM247 45h1v1h-1zM248 44h1v1h-1zM246 44h1v1h-1zM249 43h1v1h-1zM247 43h1v1h-1zM248 42h1v1h-1zM246 42h1v1h-1zM249 41h1v1h-1zM247 41h1v1h-1zM245 47h1v1h-1zM243 47h1v1h-1zM244 46h1v1h-1zM242 46h1v1h-1zM245 45h1v1h-1zM243 45h1v1h-1zM244 44h1v1h-1zM242 44h1v1h-1zM245 43h1v1h-1zM243 43h1v1h-1zM244 42h1v1h-1zM242 42h1v1h-1zM245 41h1v1h-1zM243 41h1v1h-1zM241 47h1v1h-1zM239 47h1v1h-1zM240 46h1v1h-1zM238 46h1v1h-1zM241 45h1v1h-1zM239 45h1v1h-1zM240 44h1v1h-1zM238 44h1v1h-1zM241 43h1v1h-1zM239 43h1v1h-1zM240 42h1v1h-1zM238 42h1v1h-1zM241 41h1v1h-1zM239 41h1v1h-1zM237 47h1v1h-1zM235 47h1v1h-1zM236 46h1v1h-1zM234 46h1v1h-1zM237 45h1v1h-1zM235 45h1v1h-1zM236 44h1v1h-1zM234 44h1v1h-1zM237 43h1v1h-1zM235 43h1v1h-1zM236 42h1v1h-1zM234 42h1v1h-1zM237 41h1v1h-1zM235 41h1v1h-1zM233 47h1v1h-1zM231 47h1v1h-1zM232 46h1v1h-1zM230 46h1v1h-1zM233 45h1v1h-1zM231 45h1v1h-1zM232 44h1v1h-1zM230 44h1v1h-1zM233 43h1v1h-1zM231 43h1v1h-1zM232 42h1v1h-1zM230 42h1v1h-1zM233 41h1v1h-1zM231 41h1v1h-1zM229 47h1v1h-1zM227 47h1v1h-1zM228 46h1v1h-1zM226 46h1v1h-1zM229 45h1v1h-1zM227 45h1v1h-1zM228 44h1v1h-1zM226 44h1v1h-1zM229 43h1v1h-1zM227 43h1v1h-1zM228 42h1v1h-1zM226 42h1v1h-1zM229 41h1v1h-1zM227 41h1v1h-1zM225 47h1v1h-1zM223 47h1v1h-1zM224 46h1v1h-1zM222 46h1v1h-1zM225 45h1v1h-1zM223 45h1v1h-1zM224 44h1v1h-1zM222 44h1v1h-1zM225 43h1v1h-1zM223 43h1v1h-1zM224 42h1v1h-1zM222 42h1v1h-1zM225 41h1v1h-1zM223 41h1v1h-1zM221 47h1v1h-1zM219 47h1v1h-1zM220 46h1v1h-1zM218 46h1v1h-1zM221 45h1v1h-1zM219 45h1v1h-1zM220 44h1v1h-1zM218 44h1v1h-1zM221 43h1v1h-1zM219 43h1v1h-1zM220 42h1v1h-1zM218 42h1v1h-1zM221 41h1v1h-1zM219 41h1v1h-1zM217 47h1v1h-1zM215 47h1v1h-1zM216 46h1v1h-1zM214 46h1v1h-1zM217 45h1v1h-1zM215 45h1v1h-1zM216 44h1v1h-1zM214 44h1v1h-1zM217 43h1v1h-1zM215 43h1v1h-1zM216 42h1v1h-1zM214 42h1v1h-1zM217 41h1v1h-1zM215 41h1v1h-1zM213 47h1v1h-1zM211 47h1v1h-1zM212 46h1v1h-1zM210 46h1v1h-1zM213 45h1v1h-1zM211 45h1v1h-1zM212 44h1v1h-1zM210 44h1v1h-1zM213 43h1v1h-1zM211 43h1v1h-1zM212 42h1v1h-1zM210 42h1v1h-1zM213 41h1v1h-1zM211 41h1v1h-1zM209 47h1v1h-1zM207 47h1v1h-1zM208 46h1v1h-1zM206 46h1v1h-1zM209 45h1v1h-1zM207 45h1v1h-1zM208 44h1v1h-1zM206 44h1v1h-1zM209 43h1v1h-1zM207 43h1v1h-1zM208 42h1v1h-1zM206 42h1v1h-1zM209 41h1v1h-1zM207 41h1v1h-1zM205 47h1v1h-1zM203 47h1v1h-1zM204 46h1v1h-1zM202 46h1v1h-1zM205 45h1v1h-1zM203 45h1v1h-1zM204 44h1v1h-1zM202 44h1v1h-1zM205 43h1v1h-1zM203 43h1v1h-1zM204 42h1v1h-1zM202 42h1v1h-1zM205 41h1v1h-1zM203 41h1v1h-1zM201 47h1v1h-1zM199 47h1v1h-1zM200 46h1v1h-1zM198 46h1v1h-1zM201 45h1v1h-1zM199 45h1v1h-1zM200 44h1v1h-1zM198 44h1v1h-1zM201 43h1v1h-1zM199 43h1v1h-1zM200 42h1v1h-1zM198 42h1v1h-1zM201 41h1v1h-1zM199 41h1v1h-1zM197 47h1v1h-1zM195 47h1v1h-1zM196 46h1v1h-1zM194 46h1v1h-1zM197 45h1v1h-1zM195 45h1v1h-1zM196 44h1v1h-1zM194 44h1v1h-1zM197 43h1v1h-1zM195 43h1v1h-1zM196 42h1v1h-1zM194 42h1v1h-1zM197 41h1v1h-1zM195 41h1v1h-1zM193 47h1v1h-1zM191 47h1v1h-1zM192 46h1v1h-1zM190 46h1v1h-1zM193 45h1v1h-1zM191 45h1v1h-1zM192 44h1v1h-1zM190 44h1v1h-1zM193 43h1v1h-1zM191 43h1v1h-1zM192 42h1v1h-1zM190 42h1v1h-1zM193 41h1v1h-1zM191 41h1v1h-1zM189 47h1v1h-1zM187 47h1v1h-1zM188 46h1v1h-1zM186 46h1v1h-1zM189 45h1v1h-1zM187 45h1v1h-1zM188 44h1v1h-1zM186 44h1v1h-1zM189 43h1v1h-1zM187 43h1v1h-1zM188 42h1v1h-1zM186 42h1v1h-1zM189 41h1v1h-1zM187 41h1v1h-1zM185 47h1v1h-1zM183 47h1v1h-1zM184 46h1v1h-1zM182 46h1v1h-1zM185 45h1v1h-1zM183 45h1v1h-1zM184 44h1v1h-1zM182 44h1v1h-1zM185 43h1v1h-1zM183 43h1v1h-1zM184 42h1v1h-1zM182 42h1v1h-1zM185 41h1v1h-1zM183 41h1v1h-1zM181 47h1v1h-1zM179 47h1v1h-1zM180 46h1v1h-1zM178 46h1v1h-1zM181 45h1v1h-1zM179 45h1v1h-1zM180 44h1v1h-1zM178 44h1v1h-1zM181 43h1v1h-1zM179 43h1v1h-1zM180 42h1v1h-1zM178 42h1v1h-1zM181 41h1v1h-1zM179 41h1v1h-1zM177 47h1v1h-1zM175 47h1v1h-1zM176 46h1v1h-1zM174 46h1v1h-1zM177 45h1v1h-1zM175 45h1v1h-1zM176 44h1v1h-1zM174 44h1v1h-1zM177 43h1v1h-1zM175 43h1v1h-1zM176 42h1v1h-1zM174 42h1v1h-1zM177 41h1v1h-1zM175 41h1v1h-1zM173 47h1v1h-1zM171 47h1v1h-1zM172 46h1v1h-1zM170 46h1v1h-1zM173 45h1v1h-1zM171 45h1v1h-1zM172 44h1v1h-1zM170 44h1v1h-1zM173 43h1v1h-1zM171 43h1v1h-1zM172 42h1v1h-1zM170 42h1v1h-1zM173 41h1v1h-1zM171 41h1v1h-1zM169 47h1v1h-1zM167 47h1v1h-1zM168 46h1v1h-1zM166 46h1v1h-1zM169 45h1v1h-1zM167 45h1v1h-1zM168 44h1v1h-1zM166 44h1v1h-1zM169 43h1v1h-1zM167 43h1v1h-1zM168 42h1v1h-1zM166 42h1v1h-1zM169 41h1v1h-1zM167 41h1v1h-1zM165 47h1v1h-1zM163 47h1v1h-1zM164 46h1v1h-1zM162 46h1v1h-1zM165 45h1v1h-1zM163 45h1v1h-1zM164 44h1v1h-1zM162 44h1v1h-1zM165 43h1v1h-1zM163 43h1v1h-1zM164 42h1v1h-1zM162 42h1v1h-1zM165 41h1v1h-1zM163 41h1v1h-1zM161 47h1v1h-1zM159 47h1v1h-1zM160 46h1v1h-1zM158 46h1v1h-1zM161 45h1v1h-1zM159 45h1v1h-1zM160 44h1v1h-1zM158 44h1v1h-1zM161 43h1v1h-1zM159 43h1v1h-1zM160 42h1v1h-1zM158 42h1v1h-1zM161 41h1v1h-1zM159 41h1v1h-1zM157 47h1v1h-1zM155 47h1v1h-1zM156 46h1v1h-1zM154 46h1v1h-1zM157 45h1v1h-1zM155 45h1v1h-1zM156 44h1v1h-1zM154 44h1v1h-1zM157 43h1v1h-1zM155 43h1v1h-1zM156 42h1v1h-1zM154 42h1v1h-1zM157 41h1v1h-1zM155 41h1v1h-1zM153 47h1v1h-1zM151 47h1v1h-1zM152 46h1v1h-1zM150 46h1v1h-1zM153 45h1v1h-1zM151 45h1v1h-1zM152 44h1v1h-1zM150 44h1v1h-1zM153 43h1v1h-1zM151 43h1v1h-1zM152 42h1v1h-1zM150 42h1v1h-1zM153 41h1v1h-1zM151 41h1v1h-1zM149 47h1v1h-1zM147 47h1v1h-1zM148 46h1v1h-1zM146 46h1v1h-1zM149 45h1v1h-1zM147 45h1v1h-1zM148 44h1v1h-1zM146 44h1v1h-1zM149 43h1v1h-1zM147 43h1v1h-1zM148 42h1v1h-1zM146 42h1v1h-1zM149 41h1v1h-1zM147 41h1v1h-1zM145 47h1v1h-1zM143 47h1v1h-1zM144 46h1v1h-1zM142 46h1v1h-1zM145 45h1v1h-1zM143 45h1v1h-1zM144 44h1v1h-1zM142 44h1v1h-1zM145 43h1v1h-1zM143 43h1v1h-1zM144 42h1v1h-1zM142 42h1v1h-1zM145 41h1v1h-1zM143 41h1v1h-1zM141 47h1v1h-1zM139 47h1v1h-1zM140 46h1v1h-1zM138 46h1v1h-1zM141 45h1v1h-1zM139 45h1v1h-1zM140 44h1v1h-1zM138 44h1v1h-1zM141 43h1v1h-1zM139 43h1v1h-1zM140 42h1v1h-1zM138 42h1v1h-1zM141 41h1v1h-1zM139 41h1v1h-1zM137 47h1v1h-1zM135 47h1v1h-1zM136 46h1v1h-1zM134 46h1v1h-1zM137 45h1v1h-1zM135 45h1v1h-1zM136 44h1v1h-1zM134 44h1v1h-1zM137 43h1v1h-1zM135 43h1v1h-1zM136 42h1v1h-1zM134 42h1v1h-1zM137 41h1v1h-1zM135 41h1v1h-1zM133 47h1v1h-1zM131 47h1v1h-1zM132 46h1v1h-1zM130 46h1v1h-1zM133 45h1v1h-1zM131 45h1v1h-1zM132 44h1v1h-1zM130 44h1v1h-1zM133 43h1v1h-1zM131 43h1v1h-1zM132 42h1v1h-1zM130 42h1v1h-1zM133 41h1v1h-1zM131 41h1v1h-1zM129 47h1v1h-1zM127 47h1v1h-1zM128 46h1v1h-1zM126 46h1v1h-1zM129 45h1v1h-1zM127 45h1v1h-1zM128 44h1v1h-1zM126 44h1v1h-1zM129 43h1v1h-1zM127 43h1v1h-1zM128 42h1v1h-1zM126 42h1v1h-1zM129 41h1v1h-1zM127 41h1v1h-1zM125 47h1v1h-1zM123 47h1v1h-1zM124 46h1v1h-1zM122 46h1v1h-1zM125 45h1v1h-1zM123 45h1v1h-1zM124 44h1v1h-1zM122 44h1v1h-1zM125 43h1v1h-1zM123 43h1v1h-1zM124 42h1v1h-1zM122 42h1v1h-1zM125 41h1v1h-1zM123 41h1v1h-1zM121 47h1v1h-1zM119 47h1v1h-1zM120 46h1v1h-1zM118 46h1v1h-1zM121 45h1v1h-1zM119 45h1v1h-1zM120 44h1v1h-1zM118 44h1v1h-1zM121 43h1v1h-1zM119 43h1v1h-1zM120 42h1v1h-1zM118 42h1v1h-1zM121 41h1v1h-1zM119 41h1v1h-1zM117 47h1v1h-1zM115 47h1v1h-1zM116 46h1v1h-1zM114 46h1v1h-1zM117 45h1v1h-1zM115 45h1v1h-1zM116 44h1v1h-1zM114 44h1v1h-1zM117 43h1v1h-1zM115 43h1v1h-1zM116 42h1v1h-1zM114 42h1v1h-1zM117 41h1v1h-1zM115 41h1v1h-1zM113 47h1v1h-1zM111 47h1v1h-1zM112 46h1v1h-1zM110 46h1v1h-1zM113 45h1v1h-1zM111 45h1v1h-1zM112 44h1v1h-1zM110 44h1v1h-1zM113 43h1v1h-1zM111 43h1v1h-1zM112 42h1v1h-1zM110 42h1v1h-1zM113 41h1v1h-1zM111 41h1v1h-1zM109 47h1v1h-1zM107 47h1v1h-1zM108 46h1v1h-1zM106 46h1v1h-1zM109 45h1v1h-1zM107 45h1v1h-1zM108 44h1v1h-1zM106 44h1v1h-1zM109 43h1v1h-1zM107 43h1v1h-1zM108 42h1v1h-1zM106 42h1v1h-1zM109 41h1v1h-1zM107 41h1v1h-1zM105 47h1v1h-1zM103 47h1v1h-1zM104 46h1v1h-1zM102 46h1v1h-1zM105 45h1v1h-1zM103 45h1v1h-1zM104 44h1v1h-1zM102 44h1v1h-1zM105 43h1v1h-1zM103 43h1v1h-1zM104 42h1v1h-1zM102 42h1v1h-1zM105 41h1v1h-1zM103 41h1v1h-1zM101 47h1v1h-1zM99 47h1v1h-1zM100 46h1v1h-1zM98 46h1v1h-1zM101 45h1v1h-1zM99 45h1v1h-1zM100 44h1v1h-1zM98 44h1v1h-1zM101 43h1v1h-1zM99 43h1v1h-1zM100 42h1v1h-1zM98 42h1v1h-1zM101 41h1v1h-1zM99 41h1v1h-1zM97 47h1v1h-1zM95 47h1v1h-1zM96 46h1v1h-1zM94 46h1v1h-1zM97 45h1v1h-1zM95 45h1v1h-1zM96 44h1v1h-1zM94 44h1v1h-1zM97 43h1v1h-1zM95 43h1v1h-1zM96 42h1v1h-1zM94 42h1v1h-1zM97 41h1v1h-1zM95 41h1v1h-1zM93 47h1v1h-1zM91 47h1v1h-1zM92 46h1v1h-1zM90 46h1v1h-1zM93 45h1v1h-1zM91 45h1v1h-1zM92 44h1v1h-1zM90 44h1v1h-1zM93 43h1v1h-1zM91 43h1v1h-1zM92 42h1v1h-1zM90 42h1v1h-1zM93 41h1v1h-1zM91 41h1v1h-1zM89 47h1v1h-1zM87 47h1v1h-1zM88 46h1v1h-1zM86 46h1v1h-1zM89 45h1v1h-1zM87 45h1v1h-1zM88 44h1v1h-1zM86 44h1v1h-1zM89 43h1v1h-1zM87 43h1v1h-1zM88 42h1v1h-1zM86 42h1v1h-1zM89 41h1v1h-1zM87 41h1v1h-1zM85 47h1v1h-1zM83 47h1v1h-1zM84 46h1v1h-1zM82 46h1v1h-1zM85 45h1v1h-1zM83 45h1v1h-1zM84 44h1v1h-1zM82 44h1v1h-1zM85 43h1v1h-1zM83 43h1v1h-1zM84 42h1v1h-1zM82 42h1v1h-1zM85 41h1v1h-1zM83 41h1v1h-1zM81 47h1v1h-1zM79 47h1v1h-1zM80 46h1v1h-1zM78 46h1v1h-1zM81 45h1v1h-1zM79 45h1v1h-1zM80 44h1v1h-1zM78 44h1v1h-1zM81 43h1v1h-1zM79 43h1v1h-1zM80 42h1v1h-1zM78 42h1v1h-1zM81 41h1v1h-1zM79 41h1v1h-1zM77 47h1v1h-1zM75 47h1v1h-1zM76 46h1v1h-1zM74 46h1v1h-1zM77 45h1v1h-1zM75 45h1v1h-1zM76 44h1v1h-1zM74 44h1v1h-1zM77 43h1v1h-1zM75 43h1v1h-1zM76 42h1v1h-1zM74 42h1v1h-1zM77 41h1v1h-1zM75 41h1v1h-1zM73 47h1v1h-1zM71 47h1v1h-1zM72 46h1v1h-1zM70 46h1v1h-1zM73 45h1v1h-1zM71 45h1v1h-1zM72 44h1v1h-1zM70 44h1v1h-1zM73 43h1v1h-1zM71 43h1v1h-1zM72 42h1v1h-1zM70 42h1v1h-1zM73 41h1v1h-1zM71 41h1v1h-1zM69 47h1v1h-1zM67 47h1v1h-1zM68 46h1v1h-1zM66 46h1v1h-1zM69 45h1v1h-1zM67 45h1v1h-1zM68 44h1v1h-1zM66 44h1v1h-1zM69 43h1v1h-1zM67 43h1v1h-1zM68 42h1v1h-1zM66 42h1v1h-1zM69 41h1v1h-1zM67 41h1v1h-1zM65 47h1v1h-1zM63 47h1v1h-1zM64 46h1v1h-1zM62 46h1v1h-1zM65 45h1v1h-1zM63 45h1v1h-1zM64 44h1v1h-1zM62 44h1v1h-1zM65 43h1v1h-1zM63 43h1v1h-1zM64 42h1v1h-1zM62 42h1v1h-1zM65 41h1v1h-1zM63 41h1v1h-1zM61 47h1v1h-1zM59 47h1v1h-1zM60 46h1v1h-1zM58 46h1v1h-1zM61 45h1v1h-1zM59 45h1v1h-1zM60 44h1v1h-1zM58 44h1v1h-1zM61 43h1v1h-1zM59 43h1v1h-1zM60 42h1v1h-1zM58 42h1v1h-1zM61 41h1v1h-1zM59 41h1v1h-1zM57 47h1v1h-1zM55 47h1v1h-1zM56 46h1v1h-1zM54 46h1v1h-1zM57 45h1v1h-1zM55 45h1v1h-1zM56 44h1v1h-1zM54 44h1v1h-1zM57 43h1v1h-1zM55 43h1v1h-1zM56 42h1v1h-1zM54 42h1v1h-1zM57 41h1v1h-1zM55 41h1v1h-1zM53 47h1v1h-1zM51 47h1v1h-1zM52 46h1v1h-1zM50 46h1v1h-1zM53 45h1v1h-1zM51 45h1v1h-1zM52 44h1v1h-1zM50 44h1v1h-1zM53 43h1v1h-1zM51 43h1v1h-1zM52 42h1v1h-1zM50 42h1v1h-1zM53 41h1v1h-1zM51 41h1v1h-1zM49 47h1v1h-1zM47 47h1v1h-1zM48 46h1v1h-1zM46 46h1v1h-1zM49 45h1v1h-1zM47 45h1v1h-1zM48 44h1v1h-1zM46 44h1v1h-1zM49 43h1v1h-1zM47 43h1v1h-1zM48 42h1v1h-1zM46 42h1v1h-1zM49 41h1v1h-1zM47 41h1v1h-1zM45 47h1v1h-1zM43 47h1v1h-1zM44 46h1v1h-1zM42 46h1v1h-1zM45 45h1v1h-1zM43 45h1v1h-1zM44 44h1v1h-1zM42 44h1v1h-1zM45 43h1v1h-1zM43 43h1v1h-1zM44 42h1v1h-1zM42 42h1v1h-1zM45 41h1v1h-1zM43 41h1v1h-1zM41 47h1v1h-1zM39 47h1v1h-1zM40 46h1v1h-1zM38 46h1v1h-1zM41 45h1v1h-1zM39 45h1v1h-1zM40 44h1v1h-1zM38 44h1v1h-1zM41 43h1v1h-1zM39 43h1v1h-1zM40 42h1v1h-1zM38 42h1v1h-1zM41 41h1v1h-1zM39 41h1v1h-1zM37 47h1v1h-1zM35 47h1v1h-1zM36 46h1v1h-1zM34 46h1v1h-1zM37 45h1v1h-1zM35 45h1v1h-1zM36 44h1v1h-1zM34 44h1v1h-1zM37 43h1v1h-1zM35 43h1v1h-1zM36 42h1v1h-1zM34 42h1v1h-1zM37 41h1v1h-1zM35 41h1v1h-1zM33 47h1v1h-1zM31 47h1v1h-1zM32 46h1v1h-1zM30 46h1v1h-1zM33 45h1v1h-1zM31 45h1v1h-1zM32 44h1v1h-1zM30 44h1v1h-1zM33 43h1v1h-1zM31 43h1v1h-1zM32 42h1v1h-1zM30 42h1v1h-1zM33 41h1v1h-1zM31 41h1v1h-1zM29 47h1v1h-1zM27 47h1v1h-1zM28 46h1v1h-1zM26 46h1v1h-1zM29 45h1v1h-1zM27 45h1v1h-1zM28 44h1v1h-1zM26 44h1v1h-1zM29 43h1v1h-1zM27 43h1v1h-1zM28 42h1v1h-1zM26 42h1v1h-1zM29 41h1v1h-1zM27 41h1v1h-1zM25 47h1v1h-1zM23 47h1v1h-1zM24 46h1v1h-1zM22 46h1v1h-1zM25 45h1v1h-1zM23 45h1v1h-1zM24 44h1v1h-1zM22 44h1v1h-1zM25 43h1v1h-1zM23 43h1v1h-1zM24 42h1v1h-1zM22 42h1v1h-1zM25 41h1v1h-1zM23 41h1v1h-1zM21 47h1v1h-1zM19 47h1v1h-1zM20 46h1v1h-1zM18 46h1v1h-1zM21 45h1v1h-1zM19 45h1v1h-1zM20 44h1v1h-1zM18 44h1v1h-1zM21 43h1v1h-1zM19 43h1v1h-1zM20 42h1v1h-1zM18 42h1v1h-1zM21 41h1v1h-1zM19 41h1v1h-1zM17 47h1v1h-1zM15 47h1v1h-1zM16 46h1v1h-1zM14 46h1v1h-1zM17 45h1v1h-1zM15 45h1v1h-1zM16 44h1v1h-1zM14 44h1v1h-1zM17 43h1v1h-1zM15 43h1v1h-1zM16 42h1v1h-1zM14 42h1v1h-1zM17 41h1v1h-1zM15 41h1v1h-1zM13 47h1v1h-1zM11 47h1v1h-1zM12 46h1v1h-1zM10 46h1v1h-1zM13 45h1v1h-1zM11 45h1v1h-1zM12 44h1v1h-1zM10 44h1v1h-1zM13 43h1v1h-1zM11 43h1v1h-1zM12 42h1v1h-1zM10 42h1v1h-1zM13 41h1v1h-1zM11 41h1v1h-1zM9 47h1v1H9zM7 47h1v1H7zM8 46h1v1H8zM6 46h1v1H6zM9 45h1v1H9zM7 45h1v1H7zM8 44h1v1H8zM6 44h1v1H6zM9 43h1v1H9zM7 43h1v1H7zM8 42h1v1H8zM6 42h1v1H6zM9 41h1v1H9zM7 41h1v1H7zM1 47h1v1H1zM0 46h1v1H0zM1 45h1v1H1zM0 44h1v1H0zM1 43h1v1H1zM0 42h1v1H0zM1 41h1v1H1zM5 47h1v1H5zM3 47h1v1H3zM4 46h1v1H4zM2 46h1v1H2zM5 45h1v1H5zM3 45h1v1H3zM4 44h1v1H4zM2 44h1v1H2zM5 43h1v1H5zM3 43h1v1H3zM4 42h1v1H4zM2 42h1v1H2zM5 41h1v1H5zM3 41h1v1H3z"/>
      <path style="fill: var(--primary-6, #c9f)" d="M0 87h262v13H0z"/>
      <path style="fill: var(--primary-5, #a091eb)" d="M0 74h262v13H0z"/>
      <path style="fill: var(--primary-4, #5470e9)" d="M0 61h262v13H0z"/>
      <path style="fill: var(--primary-5, #a091eb)" d="M261 73h1v1h-1zM259 73h1v1h-1zM260 72h1v1h-1zM258 72h1v1h-1zM261 71h1v1h-1zM259 71h1v1h-1zM260 70h1v1h-1zM258 70h1v1h-1zM261 69h1v1h-1zM259 69h1v1h-1zM260 68h1v1h-1zM258 68h1v1h-1zM261 67h1v1h-1zM259 67h1v1h-1zM257 73h1v1h-1zM255 73h1v1h-1zM256 72h1v1h-1zM254 72h1v1h-1zM257 71h1v1h-1zM255 71h1v1h-1zM256 70h1v1h-1zM254 70h1v1h-1zM257 69h1v1h-1zM255 69h1v1h-1zM256 68h1v1h-1zM254 68h1v1h-1zM257 67h1v1h-1zM255 67h1v1h-1zM253 73h1v1h-1zM251 73h1v1h-1zM252 72h1v1h-1zM250 72h1v1h-1zM253 71h1v1h-1zM251 71h1v1h-1zM252 70h1v1h-1zM250 70h1v1h-1zM253 69h1v1h-1zM251 69h1v1h-1zM252 68h1v1h-1zM250 68h1v1h-1zM253 67h1v1h-1zM251 67h1v1h-1zM249 73h1v1h-1zM247 73h1v1h-1zM248 72h1v1h-1zM246 72h1v1h-1zM249 71h1v1h-1zM247 71h1v1h-1zM248 70h1v1h-1zM246 70h1v1h-1zM249 69h1v1h-1zM247 69h1v1h-1zM248 68h1v1h-1zM246 68h1v1h-1zM249 67h1v1h-1zM247 67h1v1h-1zM245 73h1v1h-1zM243 73h1v1h-1zM244 72h1v1h-1zM242 72h1v1h-1zM245 71h1v1h-1zM243 71h1v1h-1zM244 70h1v1h-1zM242 70h1v1h-1zM245 69h1v1h-1zM243 69h1v1h-1zM244 68h1v1h-1zM242 68h1v1h-1zM245 67h1v1h-1zM243 67h1v1h-1zM241 73h1v1h-1zM239 73h1v1h-1zM240 72h1v1h-1zM238 72h1v1h-1zM241 71h1v1h-1zM239 71h1v1h-1zM240 70h1v1h-1zM238 70h1v1h-1zM241 69h1v1h-1zM239 69h1v1h-1zM240 68h1v1h-1zM238 68h1v1h-1zM241 67h1v1h-1zM239 67h1v1h-1zM237 73h1v1h-1zM235 73h1v1h-1zM236 72h1v1h-1zM234 72h1v1h-1zM237 71h1v1h-1zM235 71h1v1h-1zM236 70h1v1h-1zM234 70h1v1h-1zM237 69h1v1h-1zM235 69h1v1h-1zM236 68h1v1h-1zM234 68h1v1h-1zM237 67h1v1h-1zM235 67h1v1h-1zM233 73h1v1h-1zM231 73h1v1h-1zM232 72h1v1h-1zM230 72h1v1h-1zM233 71h1v1h-1zM231 71h1v1h-1zM232 70h1v1h-1zM230 70h1v1h-1zM233 69h1v1h-1zM231 69h1v1h-1zM232 68h1v1h-1zM230 68h1v1h-1zM233 67h1v1h-1zM231 67h1v1h-1zM229 73h1v1h-1zM227 73h1v1h-1zM228 72h1v1h-1zM226 72h1v1h-1zM229 71h1v1h-1zM227 71h1v1h-1zM228 70h1v1h-1zM226 70h1v1h-1zM229 69h1v1h-1zM227 69h1v1h-1zM228 68h1v1h-1zM226 68h1v1h-1zM229 67h1v1h-1zM227 67h1v1h-1zM225 73h1v1h-1zM223 73h1v1h-1zM224 72h1v1h-1zM222 72h1v1h-1zM225 71h1v1h-1zM223 71h1v1h-1zM224 70h1v1h-1zM222 70h1v1h-1zM225 69h1v1h-1zM223 69h1v1h-1zM224 68h1v1h-1zM222 68h1v1h-1zM225 67h1v1h-1zM223 67h1v1h-1zM221 73h1v1h-1zM219 73h1v1h-1zM220 72h1v1h-1zM218 72h1v1h-1zM221 71h1v1h-1zM219 71h1v1h-1zM220 70h1v1h-1zM218 70h1v1h-1zM221 69h1v1h-1zM219 69h1v1h-1zM220 68h1v1h-1zM218 68h1v1h-1zM221 67h1v1h-1zM219 67h1v1h-1zM217 73h1v1h-1zM215 73h1v1h-1zM216 72h1v1h-1zM214 72h1v1h-1zM217 71h1v1h-1zM215 71h1v1h-1zM216 70h1v1h-1zM214 70h1v1h-1zM217 69h1v1h-1zM215 69h1v1h-1zM216 68h1v1h-1zM214 68h1v1h-1zM217 67h1v1h-1zM215 67h1v1h-1zM213 73h1v1h-1zM211 73h1v1h-1zM212 72h1v1h-1zM210 72h1v1h-1zM213 71h1v1h-1zM211 71h1v1h-1zM212 70h1v1h-1zM210 70h1v1h-1zM213 69h1v1h-1zM211 69h1v1h-1zM212 68h1v1h-1zM210 68h1v1h-1zM213 67h1v1h-1zM211 67h1v1h-1zM209 73h1v1h-1zM207 73h1v1h-1zM208 72h1v1h-1zM206 72h1v1h-1zM209 71h1v1h-1zM207 71h1v1h-1zM208 70h1v1h-1zM206 70h1v1h-1zM209 69h1v1h-1zM207 69h1v1h-1zM208 68h1v1h-1zM206 68h1v1h-1zM209 67h1v1h-1zM207 67h1v1h-1zM205 73h1v1h-1zM203 73h1v1h-1zM204 72h1v1h-1zM202 72h1v1h-1zM205 71h1v1h-1zM203 71h1v1h-1zM204 70h1v1h-1zM202 70h1v1h-1zM205 69h1v1h-1zM203 69h1v1h-1zM204 68h1v1h-1zM202 68h1v1h-1zM205 67h1v1h-1zM203 67h1v1h-1zM201 73h1v1h-1zM199 73h1v1h-1zM200 72h1v1h-1zM198 72h1v1h-1zM201 71h1v1h-1zM199 71h1v1h-1zM200 70h1v1h-1zM198 70h1v1h-1zM201 69h1v1h-1zM199 69h1v1h-1zM200 68h1v1h-1zM198 68h1v1h-1zM201 67h1v1h-1zM199 67h1v1h-1zM197 73h1v1h-1zM195 73h1v1h-1zM196 72h1v1h-1zM194 72h1v1h-1zM197 71h1v1h-1zM195 71h1v1h-1zM196 70h1v1h-1zM194 70h1v1h-1zM197 69h1v1h-1zM195 69h1v1h-1zM196 68h1v1h-1zM194 68h1v1h-1zM197 67h1v1h-1zM195 67h1v1h-1zM193 73h1v1h-1zM191 73h1v1h-1zM192 72h1v1h-1zM190 72h1v1h-1zM193 71h1v1h-1zM191 71h1v1h-1zM192 70h1v1h-1zM190 70h1v1h-1zM193 69h1v1h-1zM191 69h1v1h-1zM192 68h1v1h-1zM190 68h1v1h-1zM193 67h1v1h-1zM191 67h1v1h-1zM189 73h1v1h-1zM187 73h1v1h-1zM188 72h1v1h-1zM186 72h1v1h-1zM189 71h1v1h-1zM187 71h1v1h-1zM188 70h1v1h-1zM186 70h1v1h-1zM189 69h1v1h-1zM187 69h1v1h-1zM188 68h1v1h-1zM186 68h1v1h-1zM189 67h1v1h-1zM187 67h1v1h-1zM185 73h1v1h-1zM183 73h1v1h-1zM184 72h1v1h-1zM182 72h1v1h-1zM185 71h1v1h-1zM183 71h1v1h-1zM184 70h1v1h-1zM182 70h1v1h-1zM185 69h1v1h-1zM183 69h1v1h-1zM184 68h1v1h-1zM182 68h1v1h-1zM185 67h1v1h-1zM183 67h1v1h-1zM181 73h1v1h-1zM179 73h1v1h-1zM180 72h1v1h-1zM178 72h1v1h-1zM181 71h1v1h-1zM179 71h1v1h-1zM180 70h1v1h-1zM178 70h1v1h-1zM181 69h1v1h-1zM179 69h1v1h-1zM180 68h1v1h-1zM178 68h1v1h-1zM181 67h1v1h-1zM179 67h1v1h-1zM177 73h1v1h-1zM175 73h1v1h-1zM176 72h1v1h-1zM174 72h1v1h-1zM177 71h1v1h-1zM175 71h1v1h-1zM176 70h1v1h-1zM174 70h1v1h-1zM177 69h1v1h-1zM175 69h1v1h-1zM176 68h1v1h-1zM174 68h1v1h-1zM177 67h1v1h-1zM175 67h1v1h-1zM173 73h1v1h-1zM171 73h1v1h-1zM172 72h1v1h-1zM170 72h1v1h-1zM173 71h1v1h-1zM171 71h1v1h-1zM172 70h1v1h-1zM170 70h1v1h-1zM173 69h1v1h-1zM171 69h1v1h-1zM172 68h1v1h-1zM170 68h1v1h-1zM173 67h1v1h-1zM171 67h1v1h-1zM169 73h1v1h-1zM167 73h1v1h-1zM168 72h1v1h-1zM166 72h1v1h-1zM169 71h1v1h-1zM167 71h1v1h-1zM168 70h1v1h-1zM166 70h1v1h-1zM169 69h1v1h-1zM167 69h1v1h-1zM168 68h1v1h-1zM166 68h1v1h-1zM169 67h1v1h-1zM167 67h1v1h-1zM165 73h1v1h-1zM163 73h1v1h-1zM164 72h1v1h-1zM162 72h1v1h-1zM165 71h1v1h-1zM163 71h1v1h-1zM164 70h1v1h-1zM162 70h1v1h-1zM165 69h1v1h-1zM163 69h1v1h-1zM164 68h1v1h-1zM162 68h1v1h-1zM165 67h1v1h-1zM163 67h1v1h-1zM161 73h1v1h-1zM159 73h1v1h-1zM160 72h1v1h-1zM158 72h1v1h-1zM161 71h1v1h-1zM159 71h1v1h-1zM160 70h1v1h-1zM158 70h1v1h-1zM161 69h1v1h-1zM159 69h1v1h-1zM160 68h1v1h-1zM158 68h1v1h-1zM161 67h1v1h-1zM159 67h1v1h-1zM157 73h1v1h-1zM155 73h1v1h-1zM156 72h1v1h-1zM154 72h1v1h-1zM157 71h1v1h-1zM155 71h1v1h-1zM156 70h1v1h-1zM154 70h1v1h-1zM157 69h1v1h-1zM155 69h1v1h-1zM156 68h1v1h-1zM154 68h1v1h-1zM157 67h1v1h-1zM155 67h1v1h-1zM153 73h1v1h-1zM151 73h1v1h-1zM152 72h1v1h-1zM150 72h1v1h-1zM153 71h1v1h-1zM151 71h1v1h-1zM152 70h1v1h-1zM150 70h1v1h-1zM153 69h1v1h-1zM151 69h1v1h-1zM152 68h1v1h-1zM150 68h1v1h-1zM153 67h1v1h-1zM151 67h1v1h-1zM149 73h1v1h-1zM147 73h1v1h-1zM148 72h1v1h-1zM146 72h1v1h-1zM149 71h1v1h-1zM147 71h1v1h-1zM148 70h1v1h-1zM146 70h1v1h-1zM149 69h1v1h-1zM147 69h1v1h-1zM148 68h1v1h-1zM146 68h1v1h-1zM149 67h1v1h-1zM147 67h1v1h-1zM145 73h1v1h-1zM143 73h1v1h-1zM144 72h1v1h-1zM142 72h1v1h-1zM145 71h1v1h-1zM143 71h1v1h-1zM144 70h1v1h-1zM142 70h1v1h-1zM145 69h1v1h-1zM143 69h1v1h-1zM144 68h1v1h-1zM142 68h1v1h-1zM145 67h1v1h-1zM143 67h1v1h-1zM141 73h1v1h-1zM139 73h1v1h-1zM140 72h1v1h-1zM138 72h1v1h-1zM141 71h1v1h-1zM139 71h1v1h-1zM140 70h1v1h-1zM138 70h1v1h-1zM141 69h1v1h-1zM139 69h1v1h-1zM140 68h1v1h-1zM138 68h1v1h-1zM141 67h1v1h-1zM139 67h1v1h-1zM137 73h1v1h-1zM135 73h1v1h-1zM136 72h1v1h-1zM134 72h1v1h-1zM137 71h1v1h-1zM135 71h1v1h-1zM136 70h1v1h-1zM134 70h1v1h-1zM137 69h1v1h-1zM135 69h1v1h-1zM136 68h1v1h-1zM134 68h1v1h-1zM137 67h1v1h-1zM135 67h1v1h-1zM133 73h1v1h-1zM131 73h1v1h-1zM132 72h1v1h-1zM130 72h1v1h-1zM133 71h1v1h-1zM131 71h1v1h-1zM132 70h1v1h-1zM130 70h1v1h-1zM133 69h1v1h-1zM131 69h1v1h-1zM132 68h1v1h-1zM130 68h1v1h-1zM133 67h1v1h-1zM131 67h1v1h-1zM129 73h1v1h-1zM127 73h1v1h-1zM128 72h1v1h-1zM126 72h1v1h-1zM129 71h1v1h-1zM127 71h1v1h-1zM128 70h1v1h-1zM126 70h1v1h-1zM129 69h1v1h-1zM127 69h1v1h-1zM128 68h1v1h-1zM126 68h1v1h-1zM129 67h1v1h-1zM127 67h1v1h-1zM125 73h1v1h-1zM123 73h1v1h-1zM124 72h1v1h-1zM122 72h1v1h-1zM125 71h1v1h-1zM123 71h1v1h-1zM124 70h1v1h-1zM122 70h1v1h-1zM125 69h1v1h-1zM123 69h1v1h-1zM124 68h1v1h-1zM122 68h1v1h-1zM125 67h1v1h-1zM123 67h1v1h-1zM121 73h1v1h-1zM119 73h1v1h-1zM120 72h1v1h-1zM118 72h1v1h-1zM121 71h1v1h-1zM119 71h1v1h-1zM120 70h1v1h-1zM118 70h1v1h-1zM121 69h1v1h-1zM119 69h1v1h-1zM120 68h1v1h-1zM118 68h1v1h-1zM121 67h1v1h-1zM119 67h1v1h-1zM117 73h1v1h-1zM115 73h1v1h-1zM116 72h1v1h-1zM114 72h1v1h-1zM117 71h1v1h-1zM115 71h1v1h-1zM116 70h1v1h-1zM114 70h1v1h-1zM117 69h1v1h-1zM115 69h1v1h-1zM116 68h1v1h-1zM114 68h1v1h-1zM117 67h1v1h-1zM115 67h1v1h-1zM113 73h1v1h-1zM111 73h1v1h-1zM112 72h1v1h-1zM110 72h1v1h-1zM113 71h1v1h-1zM111 71h1v1h-1zM112 70h1v1h-1zM110 70h1v1h-1zM113 69h1v1h-1zM111 69h1v1h-1zM112 68h1v1h-1zM110 68h1v1h-1zM113 67h1v1h-1zM111 67h1v1h-1zM109 73h1v1h-1zM107 73h1v1h-1zM108 72h1v1h-1zM106 72h1v1h-1zM109 71h1v1h-1zM107 71h1v1h-1zM108 70h1v1h-1zM106 70h1v1h-1zM109 69h1v1h-1zM107 69h1v1h-1zM108 68h1v1h-1zM106 68h1v1h-1zM109 67h1v1h-1zM107 67h1v1h-1zM105 73h1v1h-1zM103 73h1v1h-1zM104 72h1v1h-1zM102 72h1v1h-1zM105 71h1v1h-1zM103 71h1v1h-1zM104 70h1v1h-1zM102 70h1v1h-1zM105 69h1v1h-1zM103 69h1v1h-1zM104 68h1v1h-1zM102 68h1v1h-1zM105 67h1v1h-1zM103 67h1v1h-1zM101 73h1v1h-1zM99 73h1v1h-1zM100 72h1v1h-1zM98 72h1v1h-1zM101 71h1v1h-1zM99 71h1v1h-1zM100 70h1v1h-1zM98 70h1v1h-1zM101 69h1v1h-1zM99 69h1v1h-1zM100 68h1v1h-1zM98 68h1v1h-1zM101 67h1v1h-1zM99 67h1v1h-1zM97 73h1v1h-1zM95 73h1v1h-1zM96 72h1v1h-1zM94 72h1v1h-1zM97 71h1v1h-1zM95 71h1v1h-1zM96 70h1v1h-1zM94 70h1v1h-1zM97 69h1v1h-1zM95 69h1v1h-1zM96 68h1v1h-1zM94 68h1v1h-1zM97 67h1v1h-1zM95 67h1v1h-1zM93 73h1v1h-1zM91 73h1v1h-1zM92 72h1v1h-1zM90 72h1v1h-1zM93 71h1v1h-1zM91 71h1v1h-1zM92 70h1v1h-1zM90 70h1v1h-1zM93 69h1v1h-1zM91 69h1v1h-1zM92 68h1v1h-1zM90 68h1v1h-1zM93 67h1v1h-1zM91 67h1v1h-1zM89 73h1v1h-1zM87 73h1v1h-1zM88 72h1v1h-1zM86 72h1v1h-1zM89 71h1v1h-1zM87 71h1v1h-1zM88 70h1v1h-1zM86 70h1v1h-1zM89 69h1v1h-1zM87 69h1v1h-1zM88 68h1v1h-1zM86 68h1v1h-1zM89 67h1v1h-1zM87 67h1v1h-1zM85 73h1v1h-1zM83 73h1v1h-1zM84 72h1v1h-1zM82 72h1v1h-1zM85 71h1v1h-1zM83 71h1v1h-1zM84 70h1v1h-1zM82 70h1v1h-1zM85 69h1v1h-1zM83 69h1v1h-1zM84 68h1v1h-1zM82 68h1v1h-1zM85 67h1v1h-1zM83 67h1v1h-1zM81 73h1v1h-1zM79 73h1v1h-1zM80 72h1v1h-1zM78 72h1v1h-1zM81 71h1v1h-1zM79 71h1v1h-1zM80 70h1v1h-1zM78 70h1v1h-1zM81 69h1v1h-1zM79 69h1v1h-1zM80 68h1v1h-1zM78 68h1v1h-1zM81 67h1v1h-1zM79 67h1v1h-1zM77 73h1v1h-1zM75 73h1v1h-1zM76 72h1v1h-1zM74 72h1v1h-1zM77 71h1v1h-1zM75 71h1v1h-1zM76 70h1v1h-1zM74 70h1v1h-1zM77 69h1v1h-1zM75 69h1v1h-1zM76 68h1v1h-1zM74 68h1v1h-1zM77 67h1v1h-1zM75 67h1v1h-1zM73 73h1v1h-1zM71 73h1v1h-1zM72 72h1v1h-1zM70 72h1v1h-1zM73 71h1v1h-1zM71 71h1v1h-1zM72 70h1v1h-1zM70 70h1v1h-1zM73 69h1v1h-1zM71 69h1v1h-1zM72 68h1v1h-1zM70 68h1v1h-1zM73 67h1v1h-1zM71 67h1v1h-1zM69 73h1v1h-1zM67 73h1v1h-1zM68 72h1v1h-1zM66 72h1v1h-1zM69 71h1v1h-1zM67 71h1v1h-1zM68 70h1v1h-1zM66 70h1v1h-1zM69 69h1v1h-1zM67 69h1v1h-1zM68 68h1v1h-1zM66 68h1v1h-1zM69 67h1v1h-1zM67 67h1v1h-1zM65 73h1v1h-1zM63 73h1v1h-1zM64 72h1v1h-1zM62 72h1v1h-1zM65 71h1v1h-1zM63 71h1v1h-1zM64 70h1v1h-1zM62 70h1v1h-1zM65 69h1v1h-1zM63 69h1v1h-1zM64 68h1v1h-1zM62 68h1v1h-1zM65 67h1v1h-1zM63 67h1v1h-1zM61 73h1v1h-1zM59 73h1v1h-1zM60 72h1v1h-1zM58 72h1v1h-1zM61 71h1v1h-1zM59 71h1v1h-1zM60 70h1v1h-1zM58 70h1v1h-1zM61 69h1v1h-1zM59 69h1v1h-1zM60 68h1v1h-1zM58 68h1v1h-1zM61 67h1v1h-1zM59 67h1v1h-1zM57 73h1v1h-1zM55 73h1v1h-1zM56 72h1v1h-1zM54 72h1v1h-1zM57 71h1v1h-1zM55 71h1v1h-1zM56 70h1v1h-1zM54 70h1v1h-1zM57 69h1v1h-1zM55 69h1v1h-1zM56 68h1v1h-1zM54 68h1v1h-1zM57 67h1v1h-1zM55 67h1v1h-1zM53 73h1v1h-1zM51 73h1v1h-1zM52 72h1v1h-1zM50 72h1v1h-1zM53 71h1v1h-1zM51 71h1v1h-1zM52 70h1v1h-1zM50 70h1v1h-1zM53 69h1v1h-1zM51 69h1v1h-1zM52 68h1v1h-1zM50 68h1v1h-1zM53 67h1v1h-1zM51 67h1v1h-1zM49 73h1v1h-1zM47 73h1v1h-1zM48 72h1v1h-1zM46 72h1v1h-1zM49 71h1v1h-1zM47 71h1v1h-1zM48 70h1v1h-1zM46 70h1v1h-1zM49 69h1v1h-1zM47 69h1v1h-1zM48 68h1v1h-1zM46 68h1v1h-1zM49 67h1v1h-1zM47 67h1v1h-1zM45 73h1v1h-1zM43 73h1v1h-1zM44 72h1v1h-1zM42 72h1v1h-1zM45 71h1v1h-1zM43 71h1v1h-1zM44 70h1v1h-1zM42 70h1v1h-1zM45 69h1v1h-1zM43 69h1v1h-1zM44 68h1v1h-1zM42 68h1v1h-1zM45 67h1v1h-1zM43 67h1v1h-1zM41 73h1v1h-1zM39 73h1v1h-1zM40 72h1v1h-1zM38 72h1v1h-1zM41 71h1v1h-1zM39 71h1v1h-1zM40 70h1v1h-1zM38 70h1v1h-1zM41 69h1v1h-1zM39 69h1v1h-1zM40 68h1v1h-1zM38 68h1v1h-1zM41 67h1v1h-1zM39 67h1v1h-1zM37 73h1v1h-1zM35 73h1v1h-1zM36 72h1v1h-1zM34 72h1v1h-1zM37 71h1v1h-1zM35 71h1v1h-1zM36 70h1v1h-1zM34 70h1v1h-1zM37 69h1v1h-1zM35 69h1v1h-1zM36 68h1v1h-1zM34 68h1v1h-1zM37 67h1v1h-1zM35 67h1v1h-1zM33 73h1v1h-1zM31 73h1v1h-1zM32 72h1v1h-1zM30 72h1v1h-1zM33 71h1v1h-1zM31 71h1v1h-1zM32 70h1v1h-1zM30 70h1v1h-1zM33 69h1v1h-1zM31 69h1v1h-1zM32 68h1v1h-1zM30 68h1v1h-1zM33 67h1v1h-1zM31 67h1v1h-1zM29 73h1v1h-1zM27 73h1v1h-1zM28 72h1v1h-1zM26 72h1v1h-1zM29 71h1v1h-1zM27 71h1v1h-1zM28 70h1v1h-1zM26 70h1v1h-1zM29 69h1v1h-1zM27 69h1v1h-1zM28 68h1v1h-1zM26 68h1v1h-1zM29 67h1v1h-1zM27 67h1v1h-1zM25 73h1v1h-1zM23 73h1v1h-1zM24 72h1v1h-1zM22 72h1v1h-1zM25 71h1v1h-1zM23 71h1v1h-1zM24 70h1v1h-1zM22 70h1v1h-1zM25 69h1v1h-1zM23 69h1v1h-1zM24 68h1v1h-1zM22 68h1v1h-1zM25 67h1v1h-1zM23 67h1v1h-1zM21 73h1v1h-1zM19 73h1v1h-1zM20 72h1v1h-1zM18 72h1v1h-1zM21 71h1v1h-1zM19 71h1v1h-1zM20 70h1v1h-1zM18 70h1v1h-1zM21 69h1v1h-1zM19 69h1v1h-1zM20 68h1v1h-1zM18 68h1v1h-1zM21 67h1v1h-1zM19 67h1v1h-1zM17 73h1v1h-1zM15 73h1v1h-1zM16 72h1v1h-1zM14 72h1v1h-1zM17 71h1v1h-1zM15 71h1v1h-1zM16 70h1v1h-1zM14 70h1v1h-1zM17 69h1v1h-1zM15 69h1v1h-1zM16 68h1v1h-1zM14 68h1v1h-1zM17 67h1v1h-1zM15 67h1v1h-1zM13 73h1v1h-1zM11 73h1v1h-1zM12 72h1v1h-1zM10 72h1v1h-1zM13 71h1v1h-1zM11 71h1v1h-1zM12 70h1v1h-1zM10 70h1v1h-1zM13 69h1v1h-1zM11 69h1v1h-1zM12 68h1v1h-1zM10 68h1v1h-1zM13 67h1v1h-1zM11 67h1v1h-1zM9 73h1v1H9zM7 73h1v1H7zM8 72h1v1H8zM6 72h1v1H6zM9 71h1v1H9zM7 71h1v1H7zM8 70h1v1H8zM6 70h1v1H6zM9 69h1v1H9zM7 69h1v1H7zM8 68h1v1H8zM6 68h1v1H6zM9 67h1v1H9zM7 67h1v1H7zM1 73h1v1H1zM0 72h1v1H0zM1 71h1v1H1zM0 70h1v1H0zM1 69h1v1H1zM0 68h1v1H0zM1 67h1v1H1zM5 73h1v1H5zM3 73h1v1H3zM4 72h1v1H4zM2 72h1v1H2zM5 71h1v1H5zM3 71h1v1H3zM4 70h1v1H4zM2 70h1v1H2zM5 69h1v1H5zM3 69h1v1H3zM4 68h1v1H4zM2 68h1v1H2zM5 67h1v1H5zM3 67h1v1H3z"/>
      <path style="fill: var(--primary-3, #2d3dee)" d="M0 48h262v13H0z"/>
      <path style="fill: var(--secondary-1, #fff)" d="M252 69h1v1h-1zM255 33h1v1h-1z"/>
    </g>
    <g id="Layer_6" data-name="Layer 6">
      <path style="fill: var(--secondary-1, #fff)" d="M143 58h1v1h-1zM134 58h1v1h-1zM134 57h1v1h-1zM135 56h1v1h-1zM134 56h1v1h-1zM133 56h1v1h-1zM137 55h1v1h-1zM136 55h1v1h-1zM135 55h1v1h-1zM134 55h1v1h-1zM133 55h1v1h-1zM132 55h1v1h-1zM131 55h1v1h-1zM135 54h1v1h-1zM134 54h1v1h-1zM133 54h1v1h-1zM134 53h1v1h-1zM134 52h1v1h-1zM194 63h8v-1h-10v1h2z"/>
      <path style="fill: var(--secondary-1, #fff)" d="M237 60v-2h-1v-1h-1v-1h-2v-3h-1v-1h-3v-1h-2v-1h-2v-1h-5v1h-3v1h-1v2h-1v2h-1v-5h-1v-2h-1v-2h-1v-1h-1v-1h-2v-1h-1v-1h-7v1h-2v1h-1v1h-1v1h-1v1h-1v1h-1v-1h-1v-1h-9v1h-2v1h-1v2h-1v4h1v2h-1v1h-1v1h-2v-1h-1v-1h-2v-1h-4v-1h-6v1h-2v2h-1v1h-1v3h1v1h-2v1h-1v1h-1v1h-1v1h-1v3h1v-2h1v-1h5v2h3v-1h-1v-3h1v-1h7v1h3v1h2v1h2v-1h1v-1h1v-1h1v-1h3v1h4v1h1v1h2v-1h1v-1h-3v-1h-3v-1h-3v-2h1v-2h2v1h3v-1h4v1h2v-1h2v-1h2v1h1v1h3v1h-1v2h1v1h2v1h3v-2h1v1h1v1h2v-1h2v1h3v2h1v1h4v2h2v-1h2v1h2v-1h2v-1h1v-1h5v1h1v-1h1v-5h-1zM170 42h1v1h-1z"/>
      <path style="fill: var(--secondary-0, #a7e4e4)" d="M95 49v-1h-1v-1h-4v-1h-1v-1h-2v-1h-2v-1h-1v-1h-5v-1h-1v2h1v1h1v1h2v1h-2v1h-2v-1h-2v-1h-1v-1h-1v-1h-1v3h-1v1h-1v2h2v1h2v1h2v1h1v1h2v1h5v-1h4v-1h7v-3h-1z"/>
      <path style="fill: var(--secondary-1, #fff)" d="M42 40h1v1h-1zM153 38h1v1h-1zM80 45v-1h-1v-1h-1v-1h-3v1h-1v1h1v1h1v1h2v1h2v-1h2v-1h-2zM100 43h-1v-1h-5v-1h-3v-1h-1v-1h-1v-1h-5v1h-5v1h-1v1h1v1h5v1h1v1h2v1h2v1h1v1h4v1h1v1h1v1h1v-1h1v-1h2v-3h1v-2h-1zM10 44h1v1h-1zM10 43h1v1h-1zM11 42h1v1h-1zM10 42h1v1h-1zM9 42h1v1H9zM13 41h1v1h-1zM12 41h1v1h-1zM11 41h1v1h-1zM10 41h1v1h-1zM9 41h1v1H9zM8 41h1v1H8zM7 41h1v1H7zM11 40h1v1h-1zM10 40h1v1h-1zM9 40h1v1H9zM10 39h1v1h-1zM10 38h1v1h-1zM147 35h1v1h-1zM15 35h1v1h-1zM69 45h1v1h-1zM71 37h1v1h-1zM66 31h1v1h-1zM67 30h1v1h-1zM65 30h1v1h-1zM66 29h1v1h-1zM161 22h1v1h-1zM162 21h1v1h-1zM160 21h1v1h-1zM161 20h1v1h-1zM59 18h1v1h-1zM7 18h1v1H7zM108 27h1v1h-1zM122 14h1v1h-1zM180 9h1v1h-1zM196 17h1v1h-1zM217 16h1v1h-1zM197 16h1v1h-1zM195 16h1v1h-1zM196 15h1v1h-1zM213 12v1h1v-2h-1v1zM214 10v1h2v-1h-2zM212 10h-1v1h2v-1h-1zM214 9V8h-1v2h1V9zM92 8h1v1h-1zM93 7h1v1h-1zM91 7h1v1h-1zM92 6h1v1h-1zM33 30h-5v1h7v-1h-2zM36 29h-1v1h3v-1h-2zM38 28h1v1h-1zM39 27h1v1h-1zM27 29h-2v1h3v-1h-1zM24 28h1v1h-1zM23 27h1v1h-1zM22 26h1v1h-1zM21 25h1v1h-1zM21 23h-1v2h1v-2zM20 21v-6h-1v8h1v-2zM21 14v-2h-1v3h1v-1zM21 11h1v1h-1zM22 10h1v1h-1zM23 9h1v1h-1zM26 9V8h-2v1h2zM28 8V7h-2v1h2zM30 7h3V6h-5v1h2zM40 26h1v1h-1zM41 25h1v1h-1zM42 23h1v1h-1z"/>
      <path style="fill: #fcf340" d="M42 21v1h-1v1h-2v1h-4v-1h-3v-1h-1v-1h-1v-2h-1v-5h1v-2h1v-1h1v-1h1V9h1V8h3V7h-1V6h-3v1h-5v1h-2v1h-2v1h-1v1h-1v1h-1v3h-1v8h1v2h1v1h1v1h1v1h1v1h3v1h7v-1h3v-1h1v-1h1v-1h1v-1h1v-2h1v-2h-1z"/>
      <path style="fill: var(--secondary-1, #fff)" d="M47 8h1v1h-1z"/>
      <path style="fill: var(--secondary-0, #a7e4e4)" d="M236 66v-1h-5v1h-1v1h-2v1h-2v-1h-2v1h-2v-2h-4v-1h-1v-2h-3v-1h-2v1h-2v-1h-1v-1h-1v2h-3v-1h-2v-1h-1v-2h1v-1h-3v-1h-1v-1h-2v1h-2v1h-2v-1h-4v1h-3v-1h-2v2h-1v2h3v1h3v1h3v-1h10v1h-10v1h-1v1h-2v-1h-1v-1h-4v-1h-3v1h-1v1h-1v1h-1v1h-2v-1h-2v-1h-3v-1h-7v1h-1v3h1v1h-3v-2h-5v1h-1v2h-1v3h1v1h3v1h9v-1h2v-1h2v1h2v1h9v1h9v-1h2v-1h1v-1h1v-1h1v1h4v1h2v1h16v1h12v-1h3v-1h1v-1h1v-1h1v-3h1v-2h-1z"/>
      <path style="fill: var(--secondary-1, #fff)" d="M72 61v-1h-3v-1h-1v-1h-1v-1h-5v1h-2v-2h-1v-1h-2v-2h-1v-1h-1v-1h-3v-1h-3v-1h-3v-2h-2v-1h-2v-1h-8v1h-2v1h-1v1h-1v2h-1v1h-1v1h-2v1h-2v1h-1v1h-1v1h-1v-1h-2v-1h-8v1H9v2h5v-1h2v1h2v1h-4v1H7v1h12v1h2v-1h2v-1h1v1h1v1h1v1h2v1h3v-1h4v-1h1v-1h2v-1h5v1h4v1h2v1h1v1h4v-1h2v-1h1v1h4v1h1v1h1v1h1v-1h3v1h6v-4h-1z"/>
      <path style="fill: var(--secondary-0, #a7e4e4)" d="M71 65h-4v-1h-3v1h-1v-1h-1v-1h-1v-1h-4v-1h-1v1h-2v1h-4v-1h-1v-1h-2v-1h-4v-1h-5v1h-2v1h-1v1h-4v1h-3v-1h-2v-1h-1v-1h-1v-1h-1v1h-2v1h-2v-1H6v1H5v1h1v1h4v1h2v1h1v1h2v1h2v1h11v-1h2v-1h6v1h3v1h12v-1h1v-1h3v1h2v1h3v1h6v-1h1v-1h4v-1h1v-1h-1zM8 59h6v-1h4v-1h-2v-1h-2v1H9v-1H8v1H7v1h1v1z"/>
    </g>
  </g>
</svg>
