<svg fill="none" height="102" viewBox="0 0 180 102" width="180" xmlns="http://www.w3.org/2000/svg" xmlns:xlink="http://www.w3.org/1999/xlink"><clipPath id="a"><path d="m0 0h180v101.174h-180z"/></clipPath><g clip-path="url(#a)"><path d="m0 101.174v-5.9514c0-7.4089 2.79352-14.5749 7.89474-20.0405 5.58706-5.9514 13.36036-9.3522 21.49796-9.3522h13.1174c5.3442 0 9.5952-4.251 9.5952-9.5951v-14.6964c0-10.6882 8.7449-19.4332 19.4332-19.4332h66.3155c10.689 0 19.433 8.745 19.433 19.4332v28.5425c0 2.5506 2.065 4.6154 4.616 4.6154h6.073c6.558 0 12.024 5.3441 12.024 12.0243v14.5754h-180z" fill="#aec7ff" opacity=".2"/><path d="m150.729 22.834-21.741-22.834-21.62 22.834h6.073l.122 78.34h31.093v-78.34z" fill="#ffd836"/><path d="m127.652 35.5872h-99.5954v65.5868h99.5954z" fill="#3e70dd"/><path d="m116.721 95.7085h-77.7332c-1.336 0-2.4291-1.0931-2.4291-2.4292v-31.5789c0-1.336 1.0931-2.4292 2.4291-2.4292h77.7332c1.336 0 2.429 1.0932 2.429 2.4292v31.5789c0 1.3361-1.093 2.4292-2.429 2.4292z" fill="#7196ff"/><path d="m127.652 30.7288h-99.5954v23.0769h99.5954z" fill="#7196ff"/><path d="m109.433 48.5829-8.502-8.502 2.915-2.7935 5.587 5.587 5.709-5.587 2.793 2.7935z" fill="#fff"/><path d="m151.943 61.093-10.931 10.9312v18.2186l10.931 10.9312 10.931-10.9312v-18.2186zm5.466 26.9636-5.466 5.4656-5.465-5.4656v-13.7247l5.465-5.4656 5.466 5.4656z" fill="#f47fff"/><path d="m148.3 75.0607v12.2672l3.643 3.6437 3.644-3.6437v-12.2672l-3.644-3.6437z" fill="#f47fff"/><path d="m151.943 61.093v7.7733l5.466 5.4656 5.465-2.3077z" fill="#ffc0ff"/><path d="m13.9675 84.0487-1.5789 3.1579c-.3644.7288.3644 1.579 1.2146 1.2146l3.1579-1.579c.2429-.1214.4858-.1214.7287 0l3.1579 1.579c.7288.3644 1.579-.3644 1.2146-1.2146l-1.579-3.1579c-.1214-.2429-.1214-.4858 0-.7287l1.579-3.1579c.3644-.7288-.3644-1.579-1.2146-1.2146l-3.1579 1.579c-.2429.1214-.4858.1214-.7287 0l-3.1579-1.579c-.7288-.3644-1.579.3644-1.2146 1.2146l1.5789 3.1579c.1215.1214.1215.4858 0 .7287z" fill="#d4e4ff"/><path d="m170.162 52.8339c-.729 0-1.215-.4858-1.215-1.2146v-1.2145c0-.7288.486-1.2146 1.215-1.2146s1.214.4858 1.214 1.2146v1.2145c0 .6073-.485 1.2146-1.214 1.2146z" fill="#aec7ff"/><path d="m170.162 62.5505c-.729 0-1.215-.4859-1.215-1.2146v-1.2146c0-.7287.486-1.2146 1.215-1.2146s1.214.4859 1.214 1.2146v1.2146c0 .6073-.485 1.2146-1.214 1.2146z" fill="#aec7ff"/><path d="m173.198 55.8703c0-.7287.486-1.2145 1.215-1.2145h1.214c.729 0 1.215.4858 1.215 1.2145 0 .7288-.486 1.2146-1.215 1.2146h-1.214c-.607 0-1.215-.6073-1.215-1.2146z" fill="#aec7ff"/><path d="m163.482 55.8703c0-.7287.486-1.2145 1.214-1.2145h1.215c.729 0 1.214.4858 1.214 1.2145 0 .7288-.485 1.2146-1.214 1.2146h-1.215c-.607 0-1.214-.6073-1.214-1.2146z" fill="#aec7ff"/><path d="m12.2671 51.3764c-.7287 0-1.2145-.4858-1.2145-1.2146v-1.2146c0-.7287.4858-1.2145 1.2145-1.2145.7288 0 1.2146.4858 1.2146 1.2145v1.2146c0 .7288-.4858 1.2146-1.2146 1.2146z" fill="#d4e4ff"/><path d="m12.2671 61.0929c-.7287 0-1.2145-.4858-1.2145-1.2145v-1.2146c0-.7288.4858-1.2146 1.2145-1.2146.7288 0 1.2146.4858 1.2146 1.2146v1.2146c0 .7287-.4858 1.2145-1.2146 1.2145z" fill="#d4e4ff"/><path d="m15.3036 54.4128c0-.7287.4858-1.2146 1.2146-1.2146h1.2145c.7288 0 1.2146.4859 1.2146 1.2146 0 .7288-.4858 1.2146-1.2146 1.2146h-1.2145c-.6073 0-1.2146-.4858-1.2146-1.2146z" fill="#d4e4ff"/><path d="m5.58698 54.4128c0-.7287.48582-1.2146 1.21457-1.2146h1.21457c.72875 0 1.21458.4859 1.21458 1.2146 0 .7288-.48583 1.2146-1.21458 1.2146h-1.21457c-.60729 0-1.21457-.4858-1.21457-1.2146z" fill="#d4e4ff"/><path d="m123.522 72.8745h-88.6637v1.2146h88.6637z" fill="#3e70dd"/><g fill="#aec7ff"><path d="m44.4534 68.9879c1.6769 0 3.0364-1.3594 3.0364-3.0364s-1.3595-3.0365-3.0364-3.0365c-1.677 0-3.0365 1.3595-3.0365 3.0365s1.3595 3.0364 3.0365 3.0364z"/><path d="m99.7165 64.1296h-48.583v3.6438h48.583z"/><path d="m44.4534 83.5629c1.6769 0 3.0364-1.3595 3.0364-3.0365 0-1.6769-1.3595-3.0364-3.0364-3.0364-1.677 0-3.0365 1.3595-3.0365 3.0364 0 1.677 1.3595 3.0365 3.0365 3.0365z"/><path d="m113.077 78.7046h-61.9435v3.6437h61.9435z"/><path d="m44.4534 92.0648c1.6769 0 3.0364-1.3595 3.0364-3.0364 0-1.677-1.3595-3.0365-3.0364-3.0365-1.677 0-3.0365 1.3595-3.0365 3.0365 0 1.6769 1.3595 3.0364 3.0365 3.0364z"/><path d="m87.5707 87.2065h-36.4372v3.6438h36.4372z"/></g></g></svg>