<svg fill="none" height="16" viewBox="0 0 22 16" width="22" xmlns="http://www.w3.org/2000/svg"><path clip-rule="evenodd" d="m6 0c-.55228 0-1 .447715-1 1 0 .55228.44772 1 1 1h2.70835.29165c.55228 0 1 .44772 1 1s-.44772 1-1 1h-1.92974-2.07026-.5c-.55228 0-1 .44772-1 1 0 .55229.44772 1 1 1h.49901.00099 1.25204.74796c.55228 0 1 .44772 1 1s-.44772 1-1 1h-1-1c-.55228 0-1 .44772-1 1 0 .55229.44772 1 1 1h1.25204c.88808 3.4505 4.02026 6 7.74796 6 4.4183 0 8-3.5817 8-8 0-4.41828-3.5817-8-8-8zm8 12c2.2091 0 4-1.7909 4-4 0-2.20914-1.7909-4-4-4s-4 1.79086-4 4c0 2.2091 1.7909 4 4 4zm0-2c1.1046 0 2-.89543 2-2s-.8954-2-2-2-2 .89543-2 2 .8954 2 2 2zm-12.5-4c.55228 0 1-.44772 1-1s-.44772-1-1-1h-.5c-.552285 0-1 .44772-1 1s.447715 1 1 1z" fill="#5865f2" fill-rule="evenodd"/></svg>