<svg width="156" height="71" viewBox="0 0 156 71" fill="none" xmlns="http://www.w3.org/2000/svg">
<g filter="url(#filter0_d_15926_57443)">
<mask id="path-1-inside-1_15926_57443" fill="white">
<path fill-rule="evenodd" clip-rule="evenodd" d="M28.644 21.2146C25.9952 22.6044 22.7212 21.5837 21.3314 18.9348C19.9416 16.2859 20.9623 13.0119 23.6111 11.6221C26.26 10.2324 29.534 11.253 30.9238 13.9019C32.3136 16.5508 31.2929 19.8248 28.644 21.2146ZM18 48.9214C18 43.0237 18 40.0748 19.1174 37.809C20.1723 35.6699 21.9036 33.9386 24.0427 32.8837C24.9243 32.4489 25.9093 32.1833 27.1312 32.0211C28.0858 31.8943 28.8169 31.1009 28.9895 30.1536C29.4705 27.5142 31.118 25.1154 33.6778 23.7724C38.0926 21.456 43.5493 23.1572 45.8656 27.572C46.2723 28.3471 46.5551 29.1543 46.7212 29.971C46.92 30.9489 47.7103 31.7663 48.7083 31.7663H121.833C127.731 31.7663 130.68 31.7663 132.946 32.8837C135.085 33.9386 136.816 35.6699 137.871 37.809C138.989 40.0748 138.989 43.0237 138.989 48.9214C138.989 54.8192 138.989 57.768 137.871 60.0338C136.816 62.173 135.085 63.9042 132.946 64.9592C130.68 66.0765 127.731 66.0765 121.834 66.0765H35.1551C29.2574 66.0765 26.3085 66.0765 24.0427 64.9592C21.9036 63.9042 20.1723 62.173 19.1174 60.0338C18 57.768 18 54.8192 18 48.9214Z"/>
</mask>
<path fill-rule="evenodd" clip-rule="evenodd" d="M28.644 21.2146C25.9952 22.6044 22.7212 21.5837 21.3314 18.9348C19.9416 16.2859 20.9623 13.0119 23.6111 11.6221C26.26 10.2324 29.534 11.253 30.9238 13.9019C32.3136 16.5508 31.2929 19.8248 28.644 21.2146ZM18 48.9214C18 43.0237 18 40.0748 19.1174 37.809C20.1723 35.6699 21.9036 33.9386 24.0427 32.8837C24.9243 32.4489 25.9093 32.1833 27.1312 32.0211C28.0858 31.8943 28.8169 31.1009 28.9895 30.1536C29.4705 27.5142 31.118 25.1154 33.6778 23.7724C38.0926 21.456 43.5493 23.1572 45.8656 27.572C46.2723 28.3471 46.5551 29.1543 46.7212 29.971C46.92 30.9489 47.7103 31.7663 48.7083 31.7663H121.833C127.731 31.7663 130.68 31.7663 132.946 32.8837C135.085 33.9386 136.816 35.6699 137.871 37.809C138.989 40.0748 138.989 43.0237 138.989 48.9214C138.989 54.8192 138.989 57.768 137.871 60.0338C136.816 62.173 135.085 63.9042 132.946 64.9592C130.68 66.0765 127.731 66.0765 121.834 66.0765H35.1551C29.2574 66.0765 26.3085 66.0765 24.0427 64.9592C21.9036 63.9042 20.1723 62.173 19.1174 60.0338C18 57.768 18 54.8192 18 48.9214Z" fill="white"/>
<path d="M21.3314 18.9348L20.5318 19.3543H20.5318L21.3314 18.9348ZM28.644 21.2146L29.0635 22.0141H29.0635L28.644 21.2146ZM23.6111 11.6221L23.1917 10.8226L23.1917 10.8226L23.6111 11.6221ZM30.9238 13.9019L31.7234 13.4824V13.4824L30.9238 13.9019ZM19.1174 37.809L18.3076 37.4097H18.3076L19.1174 37.809ZM24.0427 32.8837L23.6434 32.0739H23.6434L24.0427 32.8837ZM33.6778 23.7724L34.0973 24.5719L33.6778 23.7724ZM45.8656 27.572L45.0661 27.9915L45.8656 27.572ZM132.946 32.8837L132.547 33.6935L132.946 32.8837ZM137.871 37.809L138.681 37.4097L137.871 37.809ZM137.871 60.0338L138.681 60.4332L137.871 60.0338ZM132.946 64.9592L132.547 64.1494L132.946 64.9592ZM24.0427 64.9592L23.6434 65.7689L24.0427 64.9592ZM19.1174 60.0338L18.3076 60.4332H18.3076L19.1174 60.0338ZM46.7212 29.971L45.8364 30.1509L46.7212 29.971ZM27.1312 32.0211L27.0124 31.126L27.1312 32.0211ZM28.9895 30.1536L28.1012 29.9917L28.9895 30.1536ZM20.5318 19.3543C22.1533 22.4448 25.9731 23.6356 29.0635 22.0141L28.2245 20.4151C26.0172 21.5732 23.289 20.7226 22.1309 18.5153L20.5318 19.3543ZM23.1917 10.8226C20.1012 12.4441 18.9104 16.2639 20.5318 19.3543L22.1309 18.5153C20.9728 16.308 21.8233 13.5798 24.0306 12.4217L23.1917 10.8226ZM31.7234 13.4824C30.1019 10.392 26.2821 9.20114 23.1917 10.8226L24.0306 12.4217C26.238 11.2636 28.9662 12.1141 30.1243 14.3214L31.7234 13.4824ZM29.0635 22.0141C32.154 20.3927 33.3448 16.5729 31.7234 13.4824L30.1243 14.3214C31.2824 16.5287 30.4319 19.257 28.2245 20.4151L29.0635 22.0141ZM18.3076 37.4097C17.6772 38.6879 17.3836 40.1199 17.2396 41.9317C17.0964 43.7334 17.0971 45.987 17.0971 48.9214H18.9029C18.9029 45.9581 18.9036 43.7883 19.0397 42.0748C19.1751 40.3713 19.4401 39.1959 19.9271 38.2084L18.3076 37.4097ZM23.6434 32.0739C21.3259 33.2167 19.4504 35.0923 18.3076 37.4097L19.9271 38.2084C20.8941 36.2475 22.4812 34.6605 24.442 33.6935L23.6434 32.0739ZM27.0124 31.126C25.7253 31.2969 24.6384 31.5832 23.6434 32.0739L24.442 33.6935C25.2102 33.3146 26.0933 33.0697 27.2501 32.9161L27.0124 31.126ZM29.8778 30.3155C30.3111 27.9377 31.794 25.7804 34.0973 24.5719L33.2583 22.9728C30.4421 24.4504 28.6299 27.0908 28.1012 29.9917L29.8778 30.3155ZM34.0973 24.5719C38.0705 22.4873 42.9814 24.0183 45.0661 27.9915L46.6651 27.1525C44.1171 22.2961 38.1147 20.4248 33.2583 22.9728L34.0973 24.5719ZM45.0661 27.9915C45.4328 28.6904 45.6871 29.4168 45.8364 30.1509L47.606 29.7911C47.4231 28.8918 47.1118 28.0038 46.6651 27.1525L45.0661 27.9915ZM121.833 30.8634H48.7083V32.6692H121.833V30.8634ZM133.345 32.0739C132.067 31.4435 130.635 31.1499 128.823 31.0059C127.021 30.8628 124.768 30.8634 121.833 30.8634V32.6692C124.797 32.6692 126.967 32.6699 128.68 32.8061C130.384 32.9414 131.559 33.2065 132.547 33.6935L133.345 32.0739ZM138.681 37.4097C137.538 35.0923 135.663 33.2167 133.345 32.0739L132.547 33.6935C134.507 34.6605 136.094 36.2475 137.061 38.2084L138.681 37.4097ZM139.892 48.9214C139.892 45.987 139.892 43.7334 139.749 41.9317C139.605 40.1199 139.311 38.6879 138.681 37.4097L137.061 38.2084C137.548 39.1959 137.813 40.3713 137.949 42.0748C138.085 43.7883 138.086 45.9581 138.086 48.9214H139.892ZM138.681 60.4332C139.311 59.1549 139.605 57.723 139.749 55.9111C139.892 54.1094 139.892 51.8558 139.892 48.9214H138.086C138.086 51.8848 138.085 54.0545 137.949 55.7681C137.813 57.4716 137.548 58.6469 137.061 59.6345L138.681 60.4332ZM133.345 65.7689C135.663 64.6261 137.538 62.7506 138.681 60.4332L137.061 59.6345C136.094 61.5954 134.507 63.1824 132.547 64.1494L133.345 65.7689ZM121.834 66.9794C124.768 66.9794 127.021 66.9801 128.823 66.8369C130.635 66.6929 132.067 66.3993 133.345 65.7689L132.547 64.1494C131.559 64.6364 130.384 64.9014 128.68 65.0368C126.967 65.173 124.797 65.1736 121.834 65.1736V66.9794ZM35.1551 66.9794H121.834V65.1736H35.1551V66.9794ZM23.6434 65.7689C24.9216 66.3993 26.3536 66.6929 28.1654 66.8369C29.9671 66.9801 32.2207 66.9794 35.1551 66.9794V65.1736C32.1918 65.1736 30.022 65.173 28.3084 65.0368C26.6049 64.9014 25.4296 64.6364 24.442 64.1494L23.6434 65.7689ZM18.3076 60.4332C19.4504 62.7506 21.3259 64.6261 23.6434 65.7689L24.442 64.1494C22.4812 63.1824 20.8941 61.5954 19.9271 59.6345L18.3076 60.4332ZM17.0971 48.9214C17.0971 51.8558 17.0964 54.1094 17.2396 55.9111C17.3836 57.723 17.6772 59.1549 18.3076 60.4332L19.9271 59.6345C19.4401 58.6469 19.1751 57.4716 19.0397 55.7681C18.9036 54.0545 18.9029 51.8848 18.9029 48.9214H17.0971ZM45.8364 30.1509C46.0982 31.4388 47.1773 32.6692 48.7083 32.6692V30.8634C48.2434 30.8634 47.7418 30.459 47.606 29.7911L45.8364 30.1509ZM27.2501 32.9161C28.6472 32.7306 29.6452 31.5915 29.8778 30.3155L28.1012 29.9917C27.9885 30.6103 27.5243 31.0581 27.0124 31.126L27.2501 32.9161Z" fill="black" fill-opacity="0.04" mask="url(#path-1-inside-1_15926_57443)"/>
<rect x="28.8359" y="43.9551" width="99.319" height="9.9319" rx="4.96595" fill="#80848E" fill-opacity="0.24"/>
</g>
<g filter="url(#filter1_d_15926_57443)">
<rect x="84.7734" y="19.7939" width="48.6835" height="25.1269" rx="12.5635" fill="#EBEDEF"/>
<rect x="84.3808" y="19.4013" width="49.4687" height="25.9122" rx="12.9561" stroke="black" stroke-opacity="0.04" stroke-width="0.785217"/>
<path fill-rule="evenodd" clip-rule="evenodd" d="M97.3345 39.5548C101.31 39.5548 104.532 36.3322 104.532 32.357C104.532 28.3818 101.31 25.1592 97.3345 25.1592C93.3593 25.1592 90.1367 28.3818 90.1367 32.357C90.1367 36.3322 93.3593 39.5548 97.3345 39.5548ZM93.7356 33.0113C94.2777 33.0113 94.7172 32.5719 94.7172 32.0298C94.7172 31.4877 94.2777 31.0483 93.7356 31.0483C93.1936 31.0483 92.7541 31.4877 92.7541 32.0298C92.7541 32.5719 93.1936 33.0113 93.7356 33.0113ZM100.933 33.0113C101.476 33.0113 101.915 32.5719 101.915 32.0298C101.915 31.4877 101.476 31.0483 100.933 31.0483C100.391 31.0483 99.9519 31.4877 99.9519 32.0298C99.9519 32.5719 100.391 33.0113 100.933 33.0113ZM94.5218 33.7763C94.8221 33.5753 95.2285 33.6558 95.4296 33.9561C95.8415 34.5715 96.5411 34.9744 97.3345 34.9744C98.1279 34.9744 98.8275 34.5715 99.2394 33.9561C99.4405 33.6558 99.8469 33.5753 100.147 33.7763C100.448 33.9773 100.528 34.3837 100.327 34.6841C99.6825 35.6469 98.5829 36.2831 97.3345 36.2831C96.0861 36.2831 94.9865 35.6469 94.342 34.6841C94.141 34.3837 94.2215 33.9773 94.5218 33.7763Z" fill="#4E5058"/>
<path d="M114.539 29.2778C114.284 29.5334 114.284 29.9477 114.539 30.2032L117.811 33.475C118.067 33.7305 118.481 33.7305 118.736 33.475C118.992 33.2194 118.992 32.8051 118.736 32.5496L116.582 30.3949H120.237C122.766 30.3949 124.817 32.4456 124.817 34.9753V37.5927C124.817 37.9541 125.11 38.2471 125.472 38.2471C125.833 38.2471 126.126 37.9541 126.126 37.5927V34.9753C126.126 31.7228 123.489 29.0862 120.237 29.0862H116.582L118.736 26.9315C118.992 26.676 118.992 26.2616 118.736 26.0061C118.481 25.7506 118.067 25.7506 117.811 26.0061L114.539 29.2778Z" fill="#4E5058"/>
</g>
<path fill-rule="evenodd" clip-rule="evenodd" d="M76.3048 67.5056C76.4558 67.6331 76.5601 67.7248 76.8824 68.0118C77.1981 68.2929 77.3507 68.4257 77.4903 68.5368C77.5485 68.5828 77.5981 68.7057 77.6178 68.8884C77.634 69.0388 77.6284 69.2065 77.6087 69.3681C77.602 69.424 77.5954 69.4643 77.5917 69.4835C77.5496 69.6991 77.7248 69.8982 77.9586 69.9004C78.169 69.9024 78.331 69.9049 78.7601 69.912C78.8674 69.9138 78.8674 69.9138 78.9751 69.9156C80.1413 69.9344 80.7369 69.9292 81.1644 69.8788C81.6213 69.825 82.0919 69.3076 82.4987 68.6585C82.8434 69.2329 83.3215 69.7938 83.8043 69.8667C83.9577 69.8897 84.1432 69.8968 84.3583 69.8922C84.5186 69.8887 84.6883 69.8788 84.8595 69.8645C84.9886 69.8536 85.0915 69.8428 85.153 69.8353C85.38 69.8077 85.5286 69.5982 85.4679 69.3913C85.4548 69.3466 85.4338 69.2645 85.4125 69.1612C85.3879 69.0415 85.3701 68.9246 85.362 68.8181C85.3569 68.7505 85.3559 68.6894 85.3592 68.6365C85.3648 68.5444 85.3666 68.4928 85.3693 68.3736C85.3704 68.3292 85.3704 68.3292 85.3718 68.2904C85.3771 68.1633 85.3953 68.0426 85.4543 67.7795C85.4796 67.6652 85.6023 67.4467 85.7956 67.1762C85.8531 67.0956 85.9161 67.0115 85.9835 66.9246C86.1113 66.7599 86.249 66.5935 86.3866 66.4343C86.4691 66.3389 86.5328 66.2675 86.5683 66.2288C86.8661 65.8289 87.1835 65.1743 87.3002 64.7915C87.4121 64.4237 87.5017 63.7462 87.5568 63.0803C87.5869 62.7026 87.5981 62.3981 87.5981 61.9204C87.5982 61.8366 87.5982 61.8366 87.5983 61.7675C87.5986 61.6541 87.5986 61.6113 87.5982 61.5583C87.5971 61.4136 87.5926 61.2702 87.5777 60.9044C87.5456 60.1377 87.0975 59.642 86.4371 59.5464C85.8753 59.4651 85.1914 59.9026 85.1914 59.9026C85.1914 59.9026 85.0392 59.4099 84.9364 59.2578C84.7694 59.0135 84.3392 58.7021 84.0104 58.6414C83.6722 58.5798 83.2712 58.5867 82.9031 58.6477C82.5806 58.7018 82.2595 58.9717 82.0737 59.2628C81.9408 59.4705 82.0658 59.2518 81.9328 59.0369C81.7489 58.7411 81.3204 58.4761 80.9124 58.3979C80.5667 58.3309 80.1707 58.3564 79.8089 58.4572C79.3435 58.5876 79.2694 58.9196 79.2509 58.8245C79.189 58.5058 79.1833 58.5268 79.1447 58.2994C79.0014 57.4558 78.8411 56.8721 78.5979 56.3628C78.6119 56.3921 78.5089 56.1723 78.4714 56.0965C78.4064 55.9653 78.3416 55.8466 78.2703 55.7323C78.0507 55.3803 77.799 55.1167 77.4833 54.9669C76.9349 54.7066 76.1129 54.8333 75.7233 55.2596C75.3364 55.6833 75.2719 56.3917 75.3693 57.2684C75.4066 57.6087 75.537 58.2301 75.6552 58.6894C75.6971 58.8488 75.7337 58.9942 75.8009 59.2628C75.8124 59.3085 75.8124 59.3085 75.8241 59.3542C75.8761 59.5574 75.9217 59.7247 75.9761 59.9082C75.9704 59.889 76.0736 60.2324 76.0956 60.3084C76.1029 60.3337 76.1029 60.3337 76.1101 60.3592C76.1512 60.5041 76.1913 60.6604 76.254 60.9211C76.2883 61.0645 76.3217 61.2176 76.3545 61.38C76.4438 61.8228 76.4442 61.7306 76.3582 61.6361C76.2989 61.5709 76.243 61.5117 76.1891 61.4571C76.0888 61.3556 75.9966 61.2717 75.9091 61.2047C75.2715 60.7156 74.8808 60.4995 74.3444 60.4521C73.4645 60.3728 72.6295 60.9555 72.504 61.7419C72.4268 62.224 72.4516 62.4459 72.6895 62.872C72.8205 63.1022 73.0419 63.3803 73.4551 63.8589C73.4804 63.8882 73.4804 63.8882 73.5057 63.9174C74.0129 64.5034 74.0682 64.5684 74.1888 64.7322C74.5148 65.1757 75.3084 66.4491 75.4526 66.6201L76.3048 67.5056Z" fill="black"/>
<path fill-rule="evenodd" clip-rule="evenodd" d="M74.0955 63.4714C74.0704 63.4425 74.0704 63.4425 74.0455 63.4136C73.6663 62.9744 73.4583 62.7134 73.3605 62.5413C73.2069 62.2662 73.1985 62.1916 73.2539 61.846C73.3189 61.4385 73.7884 61.1109 74.2773 61.1549C74.6157 61.1849 74.9112 61.3484 75.4366 61.7513C75.4935 61.7948 75.5621 61.8573 75.6405 61.9367C75.6869 61.9836 75.7361 62.0358 75.7893 62.0942C75.8691 62.1819 76.138 62.4905 76.0984 62.4456C76.1569 62.5114 76.1987 62.5625 76.2464 62.625C76.341 62.7516 76.3942 62.8219 76.4663 62.912C76.4325 62.8697 76.6821 63.1932 76.7349 63.2405C77.015 63.4911 77.4204 63.28 77.395 62.9461C77.3908 62.8903 77.3768 62.8301 77.3476 62.725C77.2322 61.953 77.1918 61.7053 77.0996 61.2481C77.0653 61.0782 77.0302 60.9173 76.9938 60.7654C76.9292 60.4964 76.8869 60.3319 76.8431 60.1772C76.8353 60.1498 76.8353 60.1498 76.8275 60.1227C76.8044 60.0428 76.6996 59.6943 76.7066 59.7177C76.655 59.5436 76.6116 59.3844 76.5615 59.1887C76.5502 59.1442 76.5502 59.1442 76.5388 59.0993C76.472 58.8322 76.4344 58.6831 76.392 58.5215C76.2815 58.0921 76.1566 57.497 76.1236 57.1951C76.0477 56.5127 76.1001 55.9379 76.3003 55.7186C76.4566 55.5476 76.8997 55.4793 77.1473 55.5968C77.3092 55.6736 77.471 55.843 77.624 56.0884C77.682 56.1813 77.7363 56.2809 77.792 56.3933C77.8257 56.4614 77.9256 56.6745 77.9143 56.6509C78.1257 57.0937 78.2709 57.6223 78.4047 58.4098C78.4443 58.6432 78.4933 58.9076 78.5561 59.231C78.5748 59.3269 78.5748 59.3269 78.5935 59.4224C78.8965 60.9633 78.8743 60.8466 78.8787 60.9695C78.8945 61.4178 79.6004 61.4283 79.6315 60.9807C79.6413 60.8387 79.6378 60.712 79.6203 60.348C79.6179 60.2965 79.6179 60.2965 79.6155 60.2452C79.6002 59.9098 79.6011 59.7169 79.6222 59.6072C79.6608 59.4072 79.8523 59.1832 80.0286 59.1338C80.2763 59.0648 80.5476 59.0473 80.765 59.0894C80.9731 59.1293 81.216 59.2795 81.2856 59.3916C81.3696 59.5272 81.4416 59.7339 81.4968 59.9902C81.5413 60.197 81.5719 60.4188 81.5935 60.6556C81.6002 60.7293 81.6046 60.7862 81.6113 60.8804C81.6142 60.9198 81.6142 60.9198 81.617 60.9524C81.6186 60.9687 81.6186 60.9687 81.6226 60.9945C81.6256 61.0125 81.6256 61.0125 81.64 61.0583C81.6473 61.1881 81.6473 61.1881 82.2037 61.2363C82.3698 61.048 82.3698 61.048 82.3653 61.015C82.3925 60.9035 82.4091 60.7792 82.4329 60.5456C82.448 60.3938 82.4557 60.3192 82.4646 60.2417C82.5016 59.9213 82.5486 59.7176 82.6058 59.6281C82.6769 59.5168 82.9272 59.3617 83.0395 59.3428C83.3215 59.2961 83.6311 59.2908 83.8702 59.3343C83.9785 59.3543 84.2426 59.5455 84.3051 59.637C84.4335 59.8269 84.5584 60.4392 84.6287 61.0467C84.6176 61.0866 84.6176 61.0866 84.7902 61.3177C85.3836 61.2543 85.3836 61.2543 85.3669 61.1539C85.3825 61.1181 85.395 61.0767 85.4126 61.0124C85.455 60.8619 85.4832 60.7745 85.525 60.6766C85.554 60.6089 85.5845 60.551 85.6158 60.5049C85.7371 60.3259 86.0511 60.2043 86.3265 60.2442C86.6222 60.287 86.8107 60.4954 86.8289 60.9311C86.8435 61.2895 86.8478 61.4273 86.8488 61.5626C86.8492 61.6125 86.8492 61.6526 86.8489 61.7653C86.8488 61.8349 86.8488 61.8349 86.8487 61.9198C86.8487 62.3805 86.8382 62.6675 86.8096 63.026C86.7587 63.6415 86.6728 64.2913 86.5797 64.5968C86.4848 64.9083 86.2014 65.4928 85.977 65.7968C85.961 65.8112 85.8927 65.8877 85.8054 65.9887C85.6601 66.1568 85.5147 66.3326 85.3784 66.5081C85.3055 66.6021 85.237 66.6937 85.1737 66.7822C84.9288 67.125 84.7717 67.4049 84.7208 67.6343C84.654 67.9325 84.6302 68.0906 84.623 68.262C84.6212 68.3106 84.6212 68.3106 84.6201 68.3576C84.6176 68.4689 84.616 68.5138 84.611 68.5951C84.6058 68.6806 84.6073 68.7715 84.6146 68.8676C84.625 69.0051 84.6146 69.1931 84.6146 69.1931C84.6146 69.1931 84.4873 69.182 84.3453 69.185C84.1719 69.1888 84.0277 69.1832 83.9281 69.1683C83.7843 69.1466 83.3961 68.6911 83.1973 68.3362C82.8935 67.7931 82.1559 67.8194 81.8536 68.2991C81.5809 68.7342 81.1906 69.1633 81.0748 69.177C80.6983 69.2214 80.1152 69.2264 78.9925 69.2083C78.8851 69.2066 78.8851 69.2066 78.7779 69.2048C78.3468 69.1976 78.3634 69.2658 78.3722 69.1931C78.3974 68.9855 78.3946 69.0244 78.3722 68.8169C78.3348 68.4689 78.2202 68.1851 77.9815 67.9966C77.858 67.8983 77.7103 67.7697 77.4136 67.5056C77.0747 67.2037 76.9685 67.1104 76.8377 67.0026L76.0323 66.1634C75.9439 66.0574 75.1679 64.8122 74.8137 64.3303C74.6759 64.1432 74.6243 64.0824 74.0955 63.4714ZM83.6515 63.4753V66.7345C83.6515 67.2057 84.4053 67.2057 84.4053 66.7345V63.4753C84.4053 63.0041 83.6515 63.0041 83.6515 63.4753ZM81.6133 63.4741L81.6294 66.7465C81.6317 67.2177 82.3855 67.2144 82.3832 66.7433L82.3671 63.4708C82.3648 62.9997 81.611 63.0029 81.6133 63.4741ZM80.3953 66.7282L80.3742 63.5C80.3711 63.0289 79.6173 63.0332 79.6204 63.5043L79.6415 66.7325C79.6446 67.2036 80.3984 67.1993 80.3953 66.7282Z" fill="white"/>
<defs>
<filter id="filter0_d_15926_57443" x="14.3884" y="8.2913" width="128.211" height="62.3003" filterUnits="userSpaceOnUse" color-interpolation-filters="sRGB">
<feFlood flood-opacity="0" result="BackgroundImageFix"/>
<feColorMatrix in="SourceAlpha" type="matrix" values="0 0 0 0 0 0 0 0 0 0 0 0 0 0 0 0 0 0 127 0" result="hardAlpha"/>
<feOffset dy="0.9029"/>
<feGaussianBlur stdDeviation="1.8058"/>
<feColorMatrix type="matrix" values="0 0 0 0 0 0 0 0 0 0 0 0 0 0 0 0 0 0 0.14 0"/>
<feBlend mode="normal" in2="BackgroundImageFix" result="effect1_dropShadow_15926_57443"/>
<feBlend mode="normal" in="SourceGraphic" in2="effect1_dropShadow_15926_57443" result="shape"/>
</filter>
<filter id="filter1_d_15926_57443" x="80.8474" y="16.6531" width="56.5356" height="32.979" filterUnits="userSpaceOnUse" color-interpolation-filters="sRGB">
<feFlood flood-opacity="0" result="BackgroundImageFix"/>
<feColorMatrix in="SourceAlpha" type="matrix" values="0 0 0 0 0 0 0 0 0 0 0 0 0 0 0 0 0 0 127 0" result="hardAlpha"/>
<feOffset dy="0.785217"/>
<feGaussianBlur stdDeviation="1.57043"/>
<feColorMatrix type="matrix" values="0 0 0 0 0 0 0 0 0 0 0 0 0 0 0 0 0 0 0.14 0"/>
<feBlend mode="normal" in2="BackgroundImageFix" result="effect1_dropShadow_15926_57443"/>
<feBlend mode="normal" in="SourceGraphic" in2="effect1_dropShadow_15926_57443" result="shape"/>
</filter>
</defs>
</svg>
