<svg fill="none" height="117" viewBox="0 0 215 117" width="215" xmlns="http://www.w3.org/2000/svg" xmlns:xlink="http://www.w3.org/1999/xlink"><linearGradient id="a" gradientUnits="userSpaceOnUse" x1="156.388" x2="156.388" y1="136.526" y2="60.3749"><stop offset=".12" stop-color="#ffc619"/><stop offset=".2" stop-color="#ffbb19"/><stop offset=".33" stop-color="#ff9f19"/><stop offset=".41" stop-color="#ff8c19"/><stop offset=".83" stop-color="#ed5f00"/></linearGradient><linearGradient id="b" gradientUnits="userSpaceOnUse" x1="157.033" x2="160.416" y1="28.4841" y2="97.2518"><stop offset="0" stop-color="#ffc619"/><stop offset=".12" stop-color="#ffbb19"/><stop offset=".32" stop-color="#ff9f19"/><stop offset=".44" stop-color="#ff8c19"/><stop offset=".54" stop-color="#f87a0f"/><stop offset=".73" stop-color="#ed5f00"/></linearGradient><clipPath id="c"><path d="m0 0h215v118h-215z"/></clipPath><g clip-path="url(#c)"><path d="m152.651 0h-147.69029c-2.73972 0-4.96071 2.22577-4.96071 4.97139v93.08151c0 2.7451 2.22099 4.9711 4.96071 4.9711h147.69029c2.739 0 4.96-2.226 4.96-4.9711v-93.08151c0-2.74562-2.221-4.97139-4.96-4.97139z" fill="#37393f"/><path d="m17.5391 0v103.024h-12.57839c-1.31566 0-2.57744-.524-3.50775-1.456-.930315-.932-1.45296-2.1966-1.45296-3.5151v-93.08151c0-1.31849.522645-2.58299 1.45296-3.5153.93031-.93232 2.19209-1.45609 3.50775-1.45609z" fill="#292b2f"/><path d="m53.1497 38.5503h-35.6106v16.1557h35.6106z" fill="#4b4d51"/><path d="m8.7696 61.9806c3.2232 0 5.8361-2.6186 5.8361-5.8487s-2.6129-5.8487-5.8361-5.8487-5.83613 2.6186-5.83613 5.8487 2.61293 5.8487 5.83613 5.8487z" fill="#34f4cf"/><path d="m11.0068 9.22461h-4.47438c-1.98764 0-3.59895 1.61479-3.59895 3.60669v4.484c0 1.9919 1.61131 3.6067 3.59895 3.6067h4.47438c1.9876 0 3.5989-1.6148 3.5989-3.6067v-4.484c0-1.9919-1.6113-3.60669-3.5989-3.60669z" fill="#6990ff"/><g fill="#4b4d51"><path d="m11.0068 22.9072h-4.47438c-1.98764 0-3.59895 1.6148-3.59895 3.6067v4.484c0 1.9919 1.61131 3.6067 3.59895 3.6067h4.47438c1.9876 0 3.5989-1.6148 3.5989-3.6067v-4.484c0-1.9919-1.6113-3.6067-3.5989-3.6067z"/><path d="m8.7696 48.2926c3.2232 0 5.8361-2.6185 5.8361-5.8487 0-3.2301-2.6129-5.8487-5.8361-5.8487s-5.83613 2.6186-5.83613 5.8487c0 3.2302 2.61293 5.8487 5.83613 5.8487z"/><path d="m4.56656 6.20779c.90194 0 1.6331-.73274 1.6331-1.63661 0-.90388-.73116-1.63661-1.6331-1.63661-.90193 0-1.63309.73273-1.63309 1.63661 0 .90387.73116 1.63661 1.63309 1.63661z"/><path d="m8.77982 6.20779c.90193 0 1.63308-.73274 1.63308-1.63661 0-.90388-.73115-1.63661-1.63308-1.63661s-1.63309.73273-1.63309 1.63661c0 .90387.73116 1.63661 1.63309 1.63661z"/><path d="m12.9931 6.20779c.9019 0 1.6331-.73274 1.6331-1.63661 0-.90388-.7312-1.63661-1.6331-1.63661-.902 0-1.6331.73273-1.6331 1.63661 0 .90387.7311 1.63661 1.6331 1.63661z"/><path d="m49.3716 9.22461h-26.9946c-.6334 0-1.1468.51452-1.1468 1.14919v2.7294c0 .6347.5134 1.1492 1.1468 1.1492h26.9946c.6334 0 1.1468-.5145 1.1468-1.1492v-2.7294c0-.63467-.5134-1.14919-1.1468-1.14919z"/></g><path d="m25.5817 35.1587c2.5842 0 4.6792-2.0994 4.6792-4.6892s-2.095-4.6892-4.6792-4.6892-4.6791 2.0994-4.6791 4.6892 2.0949 4.6892 4.6791 4.6892z" fill="#6990ff"/><path d="m48.9825 28.9512h-15.2968c-.3625.056-.6931.2401-.9318.5191-.2388.279-.3701.6345-.3701 1.002 0 .3676.1313.7231.3701 1.0021.2387.279.5693.4631.9318.5191h15.2968c.3625-.056.6931-.2401.9319-.5191.2387-.279.37-.6345.37-1.0021 0-.3675-.1313-.723-.37-1.002-.2388-.279-.5694-.4631-.9319-.5191z" fill="#4b4d51"/><path d="m48.2147 2.87805h-25.8121c-.2355-.01283-.4711.02258-.6925.10405-.2214.08148-.4239.20733-.5951.36985-.1713.16252-.3076.35832-.4009.57543-.0932.21711-.1412.45098-.1412.68733 0 .23634.048.47021.1412.68732.0933.21711.2296.41291.4009.57543.1712.16253.3737.28837.5951.36985s.457.11688.6925.10405h25.8121c.2355.01283.4711-.02257.6925-.10405s.4238-.20732.5951-.36985c.1712-.16252.3076-.35832.4008-.57543s.1413-.45098.1413-.68732c0-.23635-.0481-.47022-.1413-.68733s-.2296-.41291-.4008-.57543c-.1713-.16252-.3737-.28837-.5951-.36985-.2214-.08147-.457-.11688-.6925-.10405z" fill="#292b2f"/><path d="m151.704 58.3998h-81.9776c-.8038 0-.942-.6516-.942-1.452v-15.9505c0-.8003.1382-1.4519.942-1.4519h81.9776c.384 0 .752.153 1.024.4253s.424.6416.424 1.0266v15.9505c0 .3851-.152.7544-.424 1.0267s-.64.4253-1.024.4253z" fill="#4b4d51"/><path d="m25.5817 51.417c2.5842 0 4.6792-2.0994 4.6792-4.6892s-2.095-4.6892-4.6792-4.6892-4.6791 2.0994-4.6791 4.6892 2.0949 4.6892 4.6791 4.6892z" fill="#ff78b9"/><path d="m48.9825 45.2095h-15.2968c-.2199-.0364-.445-.0243-.6598.0353-.2147.0595-.414.1652-.5839.3097s-.3064.3243-.4.527c-.0936.2026-.1421.4233-.1421.6466s.0485.444.1421.6466c.0936.2027.2301.3825.4.527.1699.1444.3692.2501.5839.3097.2148.0596.4399.0716.6598.0353h15.2968c.3591-.0594.6856-.2446.9211-.5228.2355-.2781.3648-.631.3648-.9958s-.1293-.7177-.3648-.9958c-.2355-.2782-.562-.4634-.9211-.5228z" fill="#5a5d60"/><path d="m25.5817 67.4756c2.5842 0 4.6792-2.0994 4.6792-4.6892s-2.095-4.6892-4.6792-4.6892-4.6791 2.0994-4.6791 4.6892 2.0949 4.6892 4.6791 4.6892z" fill="#34f4cf"/><path d="m48.9825 61.2676h-15.2968c-.2199-.0364-.445-.0243-.6598.0353-.2147.0596-.414.1653-.5839.3097-.1699.1445-.3064.3243-.4.527-.0936.2026-.1421.4233-.1421.6466s.0485.444.1421.6466c.0936.2027.2301.3825.4.527.1699.1444.3692.2502.5839.3097.2148.0596.4399.0717.6598.0353h15.2968c.3591-.0594.6856-.2446.9211-.5228.2355-.2781.3648-.631.3648-.9958s-.1293-.7177-.3648-.9958c-.2355-.2782-.562-.4634-.9211-.5228z" fill="#4b4d51"/><path d="m25.5817 83.6314c2.5842 0 4.6792-2.0995 4.6792-4.6893 0-2.5897-2.095-4.6892-4.6792-4.6892s-4.6791 2.0995-4.6791 4.6892c0 2.5898 2.0949 4.6893 4.6791 4.6893z" fill="#ff78b9"/><path d="m48.9825 77.4233h-15.2968c-.3625.056-.6931.2402-.9318.5192-.2388.279-.3701.6344-.3701 1.002s.1313.723.3701 1.002c.2387.2791.5693.4632.9318.5192h15.2968c.3591-.0594.6856-.2447.9211-.5228s.3648-.631.3648-.9958-.1293-.7177-.3648-.9959c-.2355-.2781-.562-.4634-.9211-.5227z" fill="#4b4d51"/><path d="m25.5817 99.792c2.5842 0 4.6792-2.0994 4.6792-4.6892s-2.095-4.6892-4.6792-4.6892-4.6791 2.0994-4.6791 4.6892 2.0949 4.6892 4.6791 4.6892z" fill="#6990ff"/><path d="m48.9825 93.5791h-15.2968c-.3625.056-.6931.2401-.9318.5192-.2388.279-.3701.6344-.3701 1.002s.1313.723.3701 1.002c.2387.279.5693.4632.9318.5192h15.2968c.3625-.056.6931-.2402.9319-.5192.2387-.279.37-.6344.37-1.002s-.1313-.723-.37-1.002c-.2388-.2791-.5694-.4632-.9319-.5192z" fill="#4b4d51"/><path d="m49.3716 16.6792h-26.9946c-.6334 0-1.1468.5145-1.1468 1.1492v2.7294c0 .6347.5134 1.1492 1.1468 1.1492h26.9946c.6334 0 1.1468-.5145 1.1468-1.1492v-2.7294c0-.6347-.5134-1.1492-1.1468-1.1492z" fill="#4b4d51"/><path d="m60.8493 48.7495c2.5842 0 4.6792-2.0994 4.6792-4.6892s-2.095-4.6892-4.6792-4.6892-4.6791 2.0994-4.6791 4.6892 2.0949 4.6892 4.6791 4.6892z" fill="#ff78b9"/><path d="m70.2383 61.3345h81.4657c.385 0 .755.1535 1.028.4267.272.2733.425.6439.425 1.0303v20.5782c0 .3864-.153.757-.425 1.0303-.273.2732-.643.4267-1.028.4267h-81.9776c-.2498 0-.4894-.0994-.6661-.2765-.1766-.177-.2759-.4171-.2759-.6675v-21.0912c0-.3864.1532-.757.4259-1.0303.2726-.2732.6424-.4267 1.028-.4267z" fill="#4b4d51"/><path d="m60.8493 70.5435c2.5842 0 4.6792-2.0995 4.6792-4.6892 0-2.5898-2.095-4.6893-4.6792-4.6893s-4.6791 2.0995-4.6791 4.6893c0 2.5897 2.0949 4.6892 4.6791 4.6892z" fill="#6990ff"/><path d="m65.5285 9.23486c-.0402 1.21614-.5505 2.36904-1.4231 3.21504-.8727.8461-2.0393 1.3191-3.2535 1.3191s-2.3809-.473-3.2535-1.3191c-.8726-.846-1.383-1.9989-1.4231-3.21504z" fill="#34f4cf"/><path d="m68.7844 9.23486v25.91894c0 .8055.1382 1.4571.942 1.4571h81.9776c.384-.0014.753-.1555 1.024-.4286.272-.2731.424-.6429.424-1.0285v-25.91894z" fill="#4b4d51"/><path d="m151.509 89.2236h-92.9736c-.9104 0-1.6484.7397-1.6484 1.652v5.9924c0 .9124.738 1.652 1.6484 1.652h92.9736c.911 0 1.649-.7396 1.649-1.652v-5.9924c0-.9123-.738-1.652-1.649-1.652z" fill="#4b4d51"/><path d="m63.4704 96.7242c1.6116 0 2.9181-1.3093 2.9181-2.9244 0-1.615-1.3065-2.9243-2.9181-2.9243s-2.918 1.3093-2.918 2.9243c0 1.6151 1.3064 2.9244 2.918 2.9244z" fill="#5a5d60"/><path d="m148.914 87.2175c-3.553 2.9705-9.369 4.761-16.055 4.761-.804 0-1.623 0-2.452-.0821-.512-.0308-1.024-.0718-1.536-.1282-3.068-.324-6.09-.9899-9.01-1.9855-.481-.1591-.968-.3284-1.449-.5131-2.868-1.073-5.614-2.4488-8.191-4.1043-.425-.2719-.85-.5592-1.275-.8568-2.565-1.795-4.934-3.8551-7.07-6.1462-.369-.3928-.658-.8548-.85-1.3595s-.282-1.0422-.266-1.582c.015-.5398.137-1.0712.357-1.5638.221-.4927.536-.937.928-1.3075.392-.3706.853-.6601 1.357-.8522.503-.192 1.04-.2828 1.578-.267.539.0157 1.069.1376 1.561.3586.492.2211.935.5371 1.305.9299 1.785 1.906 3.775 3.6093 5.933 5.0791.425.2873.855.5695 1.29.8363 2.019 1.2624 4.162 2.3145 6.394 3.1398.481.1796.963.3489 1.454.513 1.837.5945 3.721 1.0321 5.632 1.3083.445.0667.885.118 1.32.159.522.0548 1.034.0958 1.536.1232 5.759.3027 10.208-1.0774 12.261-2.7961.415-.3453.894-.6053 1.41-.7651.515-.1598 1.057-.2163 1.594-.1663.537.0501 1.059.2056 1.536.4579.478.2522.901.5961 1.245 1.0122.345.416.604.896.763 1.4125.16.5165.216 1.0594.166 1.5977-.05.5384-.205 1.0616-.456 1.5398-.252.4782-.595.9021-1.01 1.2474z" fill="#8cd9ff"/><path d="m115.069 78.4544-4.838 6.6696c-.425-.2719-.85-.5592-1.275-.8568l4.823-6.6695c.425.3078.855.59 1.29.8567z" fill="#66bcff"/><path d="m122.917 82.0868-3.072 7.6956c-.481-.159-.967-.3283-1.448-.513l3.071-7.6957c.476.195.958.3643 1.449.5131z" fill="#66bcff"/><path d="m131.41 83.6827-1.024 8.2087c-.512-.0308-1.024-.0718-1.536-.1283l.999-8.183c.539.0308 1.059.065 1.561.1026z" fill="#66bcff"/><path d="m105.777 72.5649c.246-1.8213-.107-3.4579-1.535-4.761-1.024-.9697-3.343-1.4314-4.2496.2462-.4351.8106-.0614.7901-.0614.7901l-.8242 1.5391-1.9096-1.3852-1.2389.5746c-.5119 1.2262-.1894 3.3092 1.1826 4.7149.7984.8277 1.8177 1.4076 2.9361 1.6705 1.118.263 2.289.1977 3.371-.1878 1.29-.4977 2.079-1.375 2.329-3.2014z" fill="#000"/><path d="m62.2418 22.805 46.0752 55.3215c.129.1553.227.3346.287.5277s.082.3962.064.5977c-.018.2016-.076.3975-.169.5768-.094.1792-.222.3383-.377.4679-.155.1297-.334.2276-.527.288-.192.0604-.395.0821-.596.064s-.397-.0757-.576-.1695c-.178-.0939-.337-.2221-.467-.3774l-44.8917-56.3322c-.1092-.158-.155-.3515-.1283-.5418.0268-.1904.1241-.3637.2726-.4853.1486-.1217.3374-.1828.5288-.1712.1915.0116.3716.0951.5044.2338z" fill="#ffe75c"/><path d="m103.128 69.5695c.393-.873.005-1.8999-.866-2.2937s-1.896-.0054-2.2888.8676c-.3929.873-.0053 1.9.8658 2.2938.871.3938 1.896.0053 2.289-.8677z" fill="#000"/><path d="m100.34 71.2772c-.264-.098-.549-.1296-.8289-.0924-.0485.0086-.0984.0051-.1452-.0101-.0469-.0152-.0894-.0417-.1237-.0771s-.0595-.0787-.0733-.1261-.0158-.0974-.0059-.1458c.0766-.2926.0766-.6001 0-.8927-.0967-.349-.2994-.6592-.5799-.8875-.2806-.2283-.6251-.3634-.9858-.3866s-.7196.0667-1.027.2572-.5479.4721-.6884.8059c-.1404.3337-.1736.703-.0951 1.0565.0785.3536.2649.6739.5333.9164.2683.2426.6054.3955.9644.4374s.7221-.0293 1.0389-.2036c-.1452.2089-.2421.4476-.2838.6988-.0416.2511-.0268.5084.0432.7531.0818.2842.2348.5426.4444.7508.2096.2081.4688.3591.7531.4386.2842.0795.584.0848.8707.0154.287-.0693.551-.2111.768-.4117s.379-.4535.471-.7345c.092-.2811.11-.581.054-.8712-.057-.2903-.186-.5613-.377-.7872-.19-.2259-.435-.3993-.711-.5036z" fill="#000"/><path d="m179.343 106.867c-.267 3.039-1.66 5.867-3.905 7.928-2.245 2.06-5.178 3.204-8.223 3.205h-21.65c-3.044 0-5.978-1.143-8.223-3.204s-3.638-4.89-3.904-7.929c-.048-.512-.06-1.026-.036-1.539.037-1.044.209-2.079.512-3.079l4.392-17.8586c.639-2.1079 1.937-3.9538 3.704-5.2649 1.766-1.3111 3.907-2.0176 6.105-2.0151h16.525c2.199-.0025 4.339.704 6.106 2.0151 1.766 1.3111 3.065 3.157 3.703 5.2649l4.393 17.8586c.303 1 .475 2.035.512 3.079.032.512.029 1.027-.011 1.539z" fill="url(#a)"/><path d="m179.343 106.867h-45.905c-.048-.512-.06-1.026-.036-1.539h45.972c.026.513.015 1.027-.031 1.539z" fill="#ed5f00"/><path d="m158.758 79.291-.112.1693c-.233.3598-.416.7499-.543 1.1594-.158.4765-.238.9755-.236 1.4776v13.3391c-.054.5811-.324 1.1208-.754 1.5136-.431.3928-.993.6105-1.575.6104h-12.082c-.347.0002-.689-.077-1.003-.2258-.313-.1489-.589-.3657-.809-.6348-.219-.2691-.376-.5837-.46-.9211-.083-.3374-.09-.6891-.021-1.0297l2.457-11.9796c.229-1.1113.833-2.1095 1.71-2.8264.878-.7168 1.975-1.1084 3.107-1.1086h10.086c.054-.0028.107.01.154.037s.085.067.11.1152.036.1025.03.1565c-.005.0539-.025.1053-.059.1479z" fill="#ff8c19"/><path d="m158.103 80.6199c-.158.4764-.238.9755-.236 1.4776v13.3391c-.054.5811-.324 1.1208-.754 1.5136-.431.3928-.993.6104-1.575.6104h-11.171c-.293-.2629-.513-.5981-.638-.9724-.125-.3744-.15-.7748-.073-1.1619l2.078-10.9586c.512-2.7294 2.12-3.8735 4.403-3.8735z" fill="#ffe75c"/><path d="m207.372 98.1197c-.361.3995-.797.7239-1.283.9546-.486.2306-1.013.3631-1.55.3898-.537.0266-1.074-.053-1.581-.2343-.506-.1814-.972-.461-1.371-.8228-1.199-1.0876-2.477-2.084-3.824-2.9808-.425-.2873-.855-.5643-1.295-.826-2.144-1.3026-4.404-2.4002-6.753-3.2783-.476-.1847-.962-.354-1.449-.5131-2.392-.8118-4.858-1.3908-7.361-1.7289-.512-.0718-1.024-.1334-1.536-.1744-2.123-.2045-4.261-.1821-6.379.0667-1.079.1299-2.165-.1749-3.019-.8475-.855-.6725-1.407-1.6577-1.537-2.7387-.13-1.0811.174-2.1695.845-3.0258.672-.8563 1.655-1.4104 2.733-1.5403 2.706-.3214 5.438-.3524 8.15-.0924.512.0411 1.024.0975 1.536.1642 3.135.3997 6.222 1.113 9.215 2.1292.487.159.968.3283 1.449.513 2.917 1.0767 5.723 2.4322 8.38 4.0479.441.2668.871.5438 1.301.826 1.789 1.1713 3.486 2.48 5.073 3.9145.801.7349 1.278 1.7585 1.326 2.8456.048 1.0872-.337 2.1489-1.07 2.9518z" fill="#8cd9ff"/><path d="m202.012 88.4076-4.249 7.0184c-.425-.2873-.855-.5644-1.295-.826l4.244-7.0287c.44.277.87.5541 1.3.8363z" fill="#66bcff"/><path d="m192.331 83.5338-2.616 7.788c-.476-.1847-.962-.354-1.449-.5131l2.616-7.7828c.487.1539.968.3232 1.449.5079z" fill="#66bcff"/><path d="m181.668 80.8915-.763 8.2086c-.512-.0718-1.024-.1333-1.536-.1744l.773-8.1728c.512.0154 1.019.0719 1.526.1386z" fill="#66bcff"/><path d="m214.109 95.3029c-4.423-2.0522-8.785-.3489-8.964-.2771l-.046.0257c-.065.0284-.128.061-.189.0975l-.072.0461-.056.036c-.041.0307-.072.0667-.108.0974l-.051.0411c-.061.0665-.117.1368-.169.2103l-.026.0359c-.04.0667-.076.1334-.112.2053v.0513c-.031.0768-.057.1556-.077.236-.038.1896-.038.385 0 .5746v.0256c-.002.0393-.002.0787 0 .118.456 1.9696.601 3.9984.43 6.0124-.037.407.088.811.349 1.124.26.314.633.511 1.038.549h.144c.384.002.755-.141 1.04-.401.284-.259.461-.616.496-1 .1-1.148.108-2.303.025-3.4524.891.6684 1.735 1.3944 2.529 2.1754.291.272.676.42 1.074.413s.778-.169 1.059-.451c.282-.282.443-.662.45-1.061s-.141-.7846-.412-1.0764c-.834-.8278-1.721-1.5991-2.657-2.3087 1.047.0357 2.077.278 3.031.7132.37.1714.792.1885 1.175.0476.383-.141.694-.4285.865-.7992.171-.3708.188-.7945.047-1.1779-.141-.3835-.427-.6952-.797-.8666z" fill="#000"/><path d="m150.219 31.4189.584-3.54c.327-1.9803 2.104-3.5348 3.972-3.4681l9.604.3334c3.671.1283 5.304 2.2728 7.541 6.8851z" fill="#66bcff"/><path d="m125.072 46.2455c-.614 3.9556.896 7.5264 3.41 8.296.106.0392.216.0684.328.0872h.061.061c2.007.1949 4.096-2.8731 4.751-6.9723.656-4.0992-.435-7.6956-2.396-8.1574h-.076-.047c-.114-.0078-.228-.0078-.343 0-2.616-.118-5.134 2.7961-5.749 6.7465z" fill="#ffe75c"/><path d="m187.749 55.8653c-.727 4.6173-2.165 12.1745-8.078 14.7448-3.021 1.3134-7.91 2.0522-14.621 2.3857-.44 0-3.712-.8312-3.712-.8312l-10.474-1.7135s.363 2.3754-2.933 1.7597c-5.739-1.0671-10.905-2.8679-13.398-4.5661-2.258-1.5391-6.143-4.6174-6.896-9.2861-.45-2.7088-.189-6.6695.548-11.3433.59-3.8 1.596-7.5232 3-11.1023 1.183-2.9859 4.556-5.3203 7.679-5.9462 6.61-1.3616 13.361-1.9146 20.104-1.6469 6.371.2473 12.696 1.197 18.86 2.832 6.845 1.8316 9.875 7.1467 10.51 10.1378 1.08 4.9457.143 9.9582-.589 14.5756z" fill="url(#b)"/><path d="m165.05 72.996c-2.164.1026-4.517.1625-7.06.1796-3.369-.0053-6.73-.3282-10.039-.9645-1.219-1.0776-2.225-2.3761-2.964-3.8273-.594-1.1852.44-1.7546 1.346-1.5905l1.024.1796c3.516.5214 7.064.8076 10.618.8568h1.73c1.638.118 2.37.6105 2.954 1.8418.865 1.8521 1.418 2.5396 2.391 3.3245z" fill="#ffe75c"/><path d="m177.797 49.2522c-.367 2.3822-1.009 4.7135-1.914 6.9466-.433 1.0363-1.105 1.9546-1.961 2.679s-1.872 1.2341-2.964 1.4869c-3.272.7337-9.021 1.5699-17.447 1.1903-8.427-.3797-13.464-1.7854-16.48-2.7243l-.174-.0564c-3.251-1.0774-3.952-3.3912-3.179-8.7218.773-5.3305 1.71-8.8859 2.432-10.6661.85-2.0881 1.894-3.5554 4.095-4.1044 4.009-.9696 8.852-1.8982 17.278-1.4468 8.611.4618 13.894 1.7495 16.894 2.7653 2.002.6773 3.461 2.1548 3.676 4.2788v.1745c.267 2.7324.181 5.488-.256 8.1984z" fill="#ed5f00"/><path d="m177.797 49.252c-.367 2.3822-1.009 4.7135-1.914 6.9466-.433 1.0363-1.104 1.9546-1.961 2.679-.856.7244-1.872 1.2341-2.964 1.4869-3.272.7337-9.021 1.5699-17.447 1.1903-8.427-.3797-13.464-1.7854-16.48-2.7243l-.174-.0564c-1.08-1.3391-1.218-3.4682-.722-6.8799.753-5.1305 1.639-8.5371 2.335-10.2609.814-2.006 1.817-3.4117 3.911-3.9196 3.855-.9338 8.503-1.8265 16.597-1.3904 8.268.4412 13.347 1.6777 16.219 2.6524 1.159.3564 2.163 1.0984 2.846 2.1035.268 2.7236.185 5.4704-.246 8.1728z" fill="#000"/><path d="m148.549 46.2642c.882-.7503 1.048-2.0045.373-2.8013-.676-.7968-1.938-.8345-2.819-.0842s-1.048 2.0045-.373 2.8014c.676.7968 1.938.8345 2.819.0841z" fill="#57f287"/><path d="m167.467 47.3194c.881-.7503 1.048-2.0045.373-2.8013-.676-.7968-1.938-.8345-2.819-.0842s-1.048 2.0045-.373 2.8013c.676.7969 1.938.8345 2.819.0842z" fill="#57f287"/><path d="m150.127 48.8672c-.141.7606-.117 1.5428.071 2.2931s.536 1.4512 1.019 2.0546c.483.6035 1.09 1.0953 1.78 1.442s1.447.5401 2.219.5669c1.653.0594 3.272-.483 4.558-1.527 1.285-1.044 2.15-2.519 2.435-4.1524z" fill="#57f287"/><path d="m191.691 52.5408c.615-3.9504-.896-7.5212-3.409-8.2908-.106-.0409-.216-.0718-.328-.0923h-.072c-.02-.0023-.041-.0023-.061 0-2.007-.2001-4.095 2.8679-4.751 6.9671-.655 4.0992.435 7.6957 2.396 8.1625h.077.046c.114.0129.229.0129.343 0 2.626.118 5.145-2.7909 5.759-6.7465z" fill="#ffe75c"/></g></svg>