<svg width="179" height="121" viewBox="0 0 179 121" fill="none" xmlns="http://www.w3.org/2000/svg">
<path d="M3.1431 86.3015L175.694 86.3015C177.428 86.3015 178.834 84.8951 178.834 83.1603V4.08525C178.834 2.35039 177.428 0.944016 175.694 0.944016L3.1431 0.944016C1.40889 0.944016 0.00302124 2.35039 0.00302124 4.08525V83.1603C0.00302124 84.8951 1.40889 86.3015 3.1431 86.3015Z" fill="#5865F2"/>
<path d="M131.809 92.0479H92.367C91.4787 92.0479 90.7587 92.7682 90.7587 93.6568V118.519C90.7587 119.407 91.4787 120.127 92.367 120.127H131.809C132.698 120.127 133.418 119.407 133.418 118.519V93.6568C133.418 92.7682 132.698 92.0479 131.809 92.0479Z" fill="#EB459F"/>
<path d="M130.661 114.113C128.669 113.654 125.146 114.037 118.33 114.496C106.689 113.271 106.689 112.964 103.932 120.166H131.886L130.661 114.113Z" fill="#FF78B9"/>
<path d="M133.418 118.557V117.638C132.958 115.569 132.422 114.573 130.661 114.113C128.899 113.654 127.444 114.956 125.836 120.166H131.81C132.236 120.166 132.645 119.996 132.947 119.695C133.249 119.393 133.418 118.984 133.418 118.557Z" fill="#FFF7C9"/>
<path d="M93.9756 120.166H101.175L106.689 111.125L101.405 107.907L93.9756 120.166Z" fill="#D48D5E"/>
<path d="M123.232 111.279C125.147 111.125 125.07 111.202 124.994 114.037L119.096 116.489L115.037 115.952L113.199 114.037C113.582 110.819 113.352 110.589 114.884 110.896C116.416 111.202 118.713 111.585 123.232 111.279Z" fill="#FF78B9"/>
<path d="M133.418 97.9473C132.499 96.7214 132.116 95.1125 131.12 92.9672L130.661 92.0479H110.059C118.483 99.8626 126.448 103.08 133.418 104.383V97.9473Z" fill="#CF8A5C"/>
<path d="M118.33 100.705C121.869 101.672 125.347 102.849 128.746 104.23L133.418 106.069V101.089C128.669 100.476 124.61 99.9393 121.317 95.3423L118.713 92.0479H106.842C107.225 95.1125 111.054 98.79 118.33 100.705Z" fill="#AA5F44"/>
<path d="M112.433 97.4876C116.032 99.4029 119.096 99.2497 122.389 100.476C124.972 101.439 127.48 102.592 129.895 103.923C131.026 104.506 132.205 104.993 133.418 105.379V102.084C131.809 101.778 129.895 101.395 127.214 100.629C120.704 98.5602 118.713 95.4955 116.339 92.5075L115.956 92.0479H107.761C107.991 94.3463 110.288 96.3383 112.433 97.4876Z" fill="#8F473B"/>
<path d="M122.925 100.246C122.848 100.246 122.772 100.093 122.772 100.016C122.772 99.9395 122.925 99.7863 123.002 99.8629H125.146L125.989 100.169C124.977 100.35 123.944 100.376 122.925 100.246Z" fill="#6B2F34"/>
<path d="M133.418 102.238V102.085L132.728 101.931C130.579 102.154 128.407 101.892 126.372 101.165H126.218C128.822 102.544 131.12 103.77 133.418 104.766V104.307L128.976 102.161C130.431 102.621 131.962 103.081 133.418 103.387V103.311L129.818 102.391C131.019 102.513 132.231 102.462 133.418 102.238Z" fill="#6B2F34"/>
<path d="M119.249 98.0239C117.105 98.3304 112.203 96.9513 109.446 95.2658L110.748 96.415C112.654 97.2941 114.66 97.9373 116.722 98.3304C117.606 98.4861 118.506 98.5375 119.402 98.4836C119.45 98.4479 119.488 98.4017 119.515 98.3485C119.541 98.2953 119.555 98.2366 119.555 98.1772C119.555 98.1005 119.479 98.1005 119.402 98.0239H119.555C119.555 97.9645 119.541 97.9058 119.515 97.8526C119.488 97.7994 119.45 97.7531 119.402 97.7175C114.807 96.0319 112.356 94.1931 110.978 92.1245H110.518C112.356 94.9593 115.42 96.5682 119.249 98.0239Z" fill="#6B2F34"/>
<path d="M121.163 99.7095C121.143 99.7095 121.123 99.7014 121.109 99.687C121.095 99.6727 121.087 99.6532 121.087 99.6329C120.624 99.2138 120.251 98.7064 119.988 98.1406C119.725 97.5748 119.577 96.962 119.555 96.3384L120.014 96.7215C120.139 97.7296 120.629 98.6568 121.393 99.3264C121.431 99.3685 121.452 99.4231 121.452 99.4796C121.452 99.5362 121.431 99.5907 121.393 99.6329L121.163 99.7095Z" fill="#6B2F34"/>
<path d="M117.717 96.4916L117.947 96.7214H118.254C118.291 96.6793 118.312 96.6247 118.312 96.5682C118.312 96.5116 118.291 96.4571 118.254 96.4149L118.024 96.1851C116.569 94.806 115.496 93.81 114.884 92.0479H114.424C115.113 93.9632 116.262 95.0359 117.717 96.4916Z" fill="#6B2F34"/>
<path d="M124.227 112.274L123.997 111.355C123.679 109.991 123.705 108.569 124.074 107.218C124.84 104.383 125.529 103.464 126.525 101.165C123.405 100.137 120.535 98.4669 118.1 96.2617C115.113 101.318 114.194 104.689 114.5 113.194C114.532 113.638 114.684 114.066 114.941 114.43C115.197 114.795 115.548 115.082 115.956 115.262C118.1 116.258 120.245 115.569 123.768 113.577C123.985 113.449 124.151 113.248 124.235 113.009C124.319 112.771 124.316 112.511 124.227 112.274Z" fill="url(#paint0_linear_674_3155)"/>
<path d="M116.798 108.367C117.717 109.976 118.636 110.359 119.172 109.593C119.407 109.173 119.514 108.694 119.478 108.214L116.798 108.367Z" fill="#C9106D"/>
<path d="M119.478 108.214L116.798 108.367C116.984 108.661 117.188 108.942 117.411 109.21C118.061 108.893 118.76 108.686 119.478 108.597V108.214Z" fill="black"/>
<path d="M110.671 100.935C110.695 100.752 110.777 100.582 110.907 100.45C111.036 100.319 111.205 100.233 111.388 100.207C111.571 100.181 111.757 100.216 111.918 100.306C112.079 100.396 112.206 100.536 112.28 100.705C115.496 105.073 116.186 103.387 117.641 106.298C119.632 104.46 120.934 105.685 128.976 105.226C130.125 105.149 129.971 106.375 128.823 107.294C127.674 108.214 125.3 108.214 124.227 107.831C123.002 110.206 121.087 110.206 117.411 107.448C111.744 108.444 111.514 106.528 112.663 104.766C110.289 103.31 110.518 101.701 110.671 100.935Z" fill="#6B2F34"/>
<path d="M120.016 103.54C119.709 104 119.709 104.536 119.939 104.613C120.169 104.69 120.552 104.536 120.858 104.077C121.165 103.617 121.318 103.157 121.088 103.004C120.858 102.851 120.322 103.081 120.016 103.54Z" fill="black"/>
<path d="M116.415 102.927C116.339 103.463 116.569 103.847 116.875 103.847C117.182 103.847 117.335 103.463 117.335 102.927C117.335 102.391 117.335 101.931 117.028 101.931C116.722 101.931 116.415 102.391 116.415 102.927Z" fill="black"/>
<path d="M124.533 95.8019C124.686 96.7213 125.912 97.6407 127.29 97.8705C128.669 98.1004 129.588 97.5641 129.435 96.6447C129.197 95.8639 128.762 95.1576 128.171 94.5939C127.581 94.0303 126.856 93.6283 126.065 93.4268C124.763 93.197 124.38 94.8825 124.533 95.8019Z" fill="#EDB997"/>
<path d="M132.575 96.4915C131.855 96.1284 131.289 95.5189 130.98 94.7738C130.67 94.0287 130.639 93.1975 130.89 92.4309C131.579 93.7334 132.192 95.6488 132.575 96.4915Z" fill="#EDB997"/>
<path d="M117.564 116.565C117.827 115.612 118.187 114.688 118.636 113.807C118.789 113.577 119.249 113.577 120.091 113.347C121.598 113.072 123.065 112.609 124.456 111.968L124.916 112.658V116.795L122.772 119.783L111.666 119.4L113.122 114.037L114.041 111.279C114.883 112.198 116.185 112.964 116.491 113.347C116.798 113.73 116.568 113.654 116.721 114.726C116.801 115.626 116.929 116.521 117.104 117.408H117.257L117.564 116.565Z" fill="#FF78B9"/>
<path d="M116.109 120.166L116.569 118.25C116.645 118.174 116.569 118.021 116.415 118.021C116.262 118.021 116.186 118.021 116.186 118.174C115.968 118.821 115.814 119.488 115.726 120.166H116.109Z" fill="black"/>
<path d="M117.947 118.557C117.947 118.496 117.923 118.438 117.88 118.394C117.837 118.351 117.778 118.327 117.717 118.327L117.487 118.557L117.641 120.166H118.1L117.947 118.557Z" fill="black"/>
<path d="M118.772 117.25C118.804 116.108 118.144 115.163 117.298 115.139C116.453 115.115 115.741 116.022 115.709 117.164C115.677 118.306 116.337 119.251 117.183 119.275C118.028 119.298 118.74 118.392 118.772 117.25Z" fill="white"/>
<path d="M118.389 117.239C118.413 116.393 117.918 115.693 117.284 115.675C116.65 115.657 116.116 116.329 116.093 117.175C116.069 118.021 116.564 118.721 117.198 118.738C117.833 118.756 118.366 118.085 118.389 117.239Z" fill="#8CD9FF"/>
<path d="M124.993 112.274C124.944 112.18 124.864 112.105 124.766 112.064C124.668 112.022 124.559 112.015 124.457 112.045C123.065 112.685 121.598 113.149 120.091 113.424C119.249 113.654 118.789 113.654 118.636 113.883L118.483 114.037C118.789 113.5 119.019 114.19 119.249 115.033C119.572 116.26 119.982 117.463 120.474 118.634C120.857 119.323 120.934 119.4 122.082 118.174C123.136 116.882 124.108 115.526 124.993 114.113V112.351V112.274Z" fill="url(#paint1_linear_674_3155)"/>
<path d="M113.582 117.254C113.812 118.404 113.812 118.557 114.424 117.408C115.025 116.29 115.562 115.139 116.033 113.96C116.263 113.424 116.492 113.27 116.569 113.424C116.263 113.041 115.037 112.351 114.195 111.432H113.888C113.805 111.449 113.726 111.485 113.66 111.538C113.593 111.592 113.54 111.66 113.505 111.738L113.199 114.113C113.352 115.186 113.505 116.641 113.582 117.254Z" fill="url(#paint2_linear_674_3155)"/>
<path d="M104.084 112.274C100.408 112.274 99.5658 111.508 98.7999 109.976C98.034 108.444 98.1872 107.371 99.8721 104.919C101.557 102.468 102.782 101.548 104.084 101.625C105.386 101.701 105.463 102.084 105.693 102.774C105.905 102.66 106.141 102.6 106.382 102.6C106.623 102.6 106.859 102.66 107.071 102.774C107.283 102.914 107.453 103.109 107.561 103.339C107.669 103.569 107.712 103.824 107.684 104.076C108.601 105.196 109.445 106.373 110.211 107.601C110.671 108.444 111.207 108.98 109.522 110.895C107.837 112.811 107.148 112.274 104.084 112.274Z" fill="#D48D5E"/>
<path d="M108.68 108.52C110.076 108.52 111.207 107.388 111.207 105.992C111.207 104.596 110.076 103.464 108.68 103.464C107.284 103.464 106.152 104.596 106.152 105.992C106.152 107.388 107.284 108.52 108.68 108.52Z" fill="#FFE75C"/>
<path d="M110.748 108.98C111.382 108.98 111.896 108.466 111.896 107.831C111.896 107.196 111.382 106.682 110.748 106.682C110.113 106.682 109.599 107.196 109.599 107.831C109.599 108.466 110.113 108.98 110.748 108.98Z" fill="#FFE75C"/>
<path d="M106.536 102.927C107.378 101.702 108.527 101.318 109.446 102.238C110.365 103.157 110.748 104.153 110.059 104.69C109.369 105.226 108.374 103.694 108.374 103.694L107.302 105.149L106.536 102.927Z" fill="#D48D5E"/>
<path d="M108.068 104.996C108.533 104.996 108.91 104.619 108.91 104.153C108.91 103.688 108.533 103.311 108.068 103.311C107.602 103.311 107.225 103.688 107.225 104.153C107.225 104.619 107.602 104.996 108.068 104.996Z" fill="#FFE75C"/>
<path d="M106.536 109.44C107.636 109.44 108.527 108.548 108.527 107.448C108.527 106.347 107.636 105.456 106.536 105.456C105.436 105.456 104.545 106.347 104.545 107.448C104.545 108.548 105.436 109.44 106.536 109.44Z" fill="#FFE75C"/>
<path d="M103.549 109.057C104.775 109.057 105.77 108.062 105.77 106.835C105.77 105.608 104.775 104.613 103.549 104.613C102.322 104.613 101.328 105.608 101.328 106.835C101.328 108.062 102.322 109.057 103.549 109.057Z" fill="#FFE75C"/>
<path d="M102.859 105.915C103.409 105.915 103.855 105.469 103.855 104.919C103.855 104.369 103.409 103.923 102.859 103.923C102.309 103.923 101.863 104.369 101.863 104.919C101.863 105.469 102.309 105.915 102.859 105.915Z" fill="#FFE75C"/>
<path d="M107.072 102.774C106.86 102.66 106.623 102.6 106.382 102.6C106.142 102.6 105.905 102.66 105.693 102.774C105.463 102.084 105.157 101.701 104.085 101.625C103.486 101.566 102.886 101.729 102.4 102.084L103.549 104.383C103.089 104.766 102.553 105.379 103.012 106.145C103.472 106.911 104.697 106.605 105.157 106.145C107.455 107.294 107.608 105.149 107.684 104.076C107.712 103.824 107.669 103.569 107.561 103.339C107.453 103.109 107.284 102.913 107.072 102.774Z" fill="#D48D5E"/>
<path d="M109.829 110.512C111.208 108.75 111.284 107.984 109.293 106.988C107.302 105.992 106.842 106.988 106.766 107.448C106.689 107.907 106.919 108.367 107.915 108.98C105.617 108.98 103.855 110.053 103.549 112.275H104.085C107.149 112.275 107.991 112.658 109.523 110.896L109.829 110.512Z" fill="#D48D5E"/>
<path d="M112.586 116.412C113.686 116.412 114.578 115.52 114.578 114.42C114.578 113.32 113.686 112.428 112.586 112.428C111.487 112.428 110.595 113.32 110.595 114.42C110.595 115.52 111.487 116.412 112.586 116.412Z" fill="#FFE75C"/>
<path d="M114.807 110.206C115.188 110.206 115.497 109.897 115.497 109.516C115.497 109.135 115.188 108.827 114.807 108.827C114.426 108.827 114.117 109.135 114.117 109.516C114.117 109.897 114.426 110.206 114.807 110.206Z" fill="#FFE75C"/>
<path d="M105.004 114.803C106.104 114.803 106.995 113.911 106.995 112.811C106.995 111.711 106.104 110.819 105.004 110.819C103.904 110.819 103.013 111.711 103.013 112.811C103.013 113.911 103.904 114.803 105.004 114.803Z" fill="#FFE75C"/>
<path d="M101.94 116.412C103.04 116.412 103.931 115.52 103.931 114.42C103.931 113.32 103.04 112.428 101.94 112.428C100.84 112.428 99.9489 113.32 99.9489 114.42C99.9489 115.52 100.84 116.412 101.94 116.412Z" fill="#FFE75C"/>
<path d="M99.1836 113.5H115.037L114.041 120.166H100.179L99.1836 113.5Z" fill="#3442D8"/>
<path d="M111.055 114.88C112.154 114.88 113.046 113.988 113.046 112.888C113.046 111.787 112.154 110.896 111.055 110.896C109.955 110.896 109.063 111.787 109.063 112.888C109.063 113.988 109.955 114.88 111.055 114.88Z" fill="#FFE75C"/>
<path d="M107.531 115.799C108.63 115.799 109.522 114.907 109.522 113.807C109.522 112.707 108.63 111.815 107.531 111.815C106.431 111.815 105.539 112.707 105.539 113.807C105.539 114.907 106.431 115.799 107.531 115.799Z" fill="#FFE75C"/>
<path d="M100.792 113.5H113.506L112.663 120.166H101.558L100.792 113.5Z" fill="#66BCFF"/>
<path d="M102.936 113.5H111.361L110.825 120.166H103.472L102.936 113.5Z" fill="#3442D8"/>
<path d="M105.693 113.5H108.527L108.374 120.166H105.846L105.693 113.5Z" fill="#66BCFF"/>
<path d="M99.1067 113.347H115.19C115.271 113.347 115.349 113.379 115.407 113.437C115.464 113.494 115.496 113.572 115.496 113.653C115.508 113.7 115.509 113.748 115.499 113.794C115.489 113.841 115.469 113.885 115.439 113.922C115.409 113.959 115.371 113.989 115.328 114.009C115.285 114.028 115.238 114.038 115.19 114.037H99.1067C99.0051 114.037 98.9077 113.996 98.8359 113.924C98.7641 113.852 98.7238 113.755 98.7238 113.653C98.7417 113.566 98.7898 113.487 98.8598 113.431C98.9297 113.375 99.0171 113.345 99.1067 113.347Z" fill="white"/>
<path d="M106.23 102.621L105.694 102.774C106.307 104.689 105.847 105.532 105.005 106.222H105.158L105.694 106.451C106.613 105.455 106.767 104.306 106.23 102.621Z" fill="#8F473B"/>
<path d="M103.472 110.282C103.319 110.282 103.242 110.282 103.242 110.129C103.202 110.119 103.167 110.093 103.145 110.057C103.124 110.021 103.117 109.978 103.128 109.938C103.138 109.897 103.164 109.862 103.199 109.84C103.235 109.819 103.278 109.812 103.319 109.823C104.767 108.951 106.469 108.6 108.144 108.827C108.297 108.903 108.45 108.98 108.374 109.133C108.297 109.286 108.221 109.44 108.144 109.363C106.553 109.16 104.939 109.483 103.549 110.282H103.472Z" fill="#8F473B"/>
<path d="M107.301 108.52L108.679 109.669L109.216 108.597L107.301 108.52Z" fill="#D48D5E"/>
<path d="M1.68702 120.166H40.9762C41.9068 120.166 42.6611 119.411 42.6611 118.48V93.7719C42.6611 92.841 41.9068 92.0864 40.9762 92.0864H1.68702C0.756462 92.0864 0.00209045 92.841 0.00209045 93.7719V118.48C0.00209045 119.411 0.756462 120.166 1.68702 120.166Z" fill="#66BCFF"/>
<path d="M9.65164 94.8062C9.99014 94.8062 10.2646 94.5318 10.2646 94.1932C10.2646 93.8547 9.99014 93.5803 9.65164 93.5803C9.31313 93.5803 9.0387 93.8547 9.0387 94.1932C9.0387 94.5318 9.31313 94.8062 9.65164 94.8062Z" fill="#66BCFF"/>
<path d="M7.89087 96.7981C8.22938 96.7981 8.50381 96.5237 8.50381 96.1852C8.50381 95.8467 8.22938 95.5723 7.89087 95.5723C7.55236 95.5723 7.27795 95.8467 7.27795 96.1852C7.27795 96.5237 7.55236 96.7981 7.89087 96.7981Z" fill="#66BCFF"/>
<path d="M37.1466 114.343C36.8393 114.024 36.6271 113.626 36.5339 113.194C35.6914 106.988 33.3172 106.375 28.5688 107.064C27.2204 107.205 25.8625 107.23 24.5097 107.141L16.0851 106.375C14.2179 106.214 12.3851 105.775 10.6474 105.072C6.89466 103.54 2.98872 103.54 1.53357 110.206C1.51063 110.407 1.44386 110.6 1.33799 110.772C1.23211 110.944 1.08972 111.091 0.920879 111.202L0.00182444 111.891V118.48C-0.00854765 118.698 0.0253858 118.915 0.101555 119.119C0.177724 119.324 0.294551 119.51 0.444944 119.668C0.595338 119.825 0.776162 119.951 0.976459 120.036C1.17676 120.122 1.39235 120.166 1.61016 120.166H38.9847C39.9803 117.484 38.5252 115.645 37.1466 114.343Z" fill="#D11583"/>
<path d="M10.0346 114.956C10.9033 114.946 11.7461 115.251 12.4077 115.815C13.0692 116.378 13.5049 117.161 13.6342 118.021C13.7946 118.742 13.7139 119.495 13.4044 120.166H6.97111C6.80926 119.795 6.68109 119.41 6.58818 119.017C6.51131 118.517 6.54263 118.007 6.68003 117.521C6.81744 117.035 7.0577 116.584 7.38455 116.199C7.7114 115.814 8.1172 115.504 8.57442 115.289C9.03165 115.075 9.52963 114.961 10.0346 114.956Z" fill="#EB459F"/>
<path d="M32.1685 114.956C32.6755 114.945 33.1784 115.049 33.6397 115.26C34.101 115.47 34.5087 115.783 34.8327 116.173C35.1566 116.563 35.3883 117.022 35.5104 117.514C35.6326 118.006 35.6421 118.52 35.5383 119.016C35.5085 119.415 35.4046 119.805 35.232 120.166H28.7986C28.5042 119.492 28.3983 118.75 28.4923 118.02C28.6527 117.161 29.1077 116.385 29.7787 115.826C30.4498 115.267 31.2949 114.959 32.1685 114.956Z" fill="#EB459F"/>
<path d="M32.0627 104.42C32.4358 102.388 31.3605 100.488 29.6609 100.176C27.9614 99.8633 26.2812 101.257 25.9082 103.289C25.5351 105.321 26.6104 107.221 28.3099 107.534C30.0095 107.846 31.6896 106.452 32.0627 104.42Z" fill="black"/>
<path d="M31.4023 99.0965C31.7087 105.379 27.0368 110.819 20.9864 111.202C14.9361 111.585 9.72815 106.911 9.34522 100.629C9.21834 97.4797 10.3164 94.4041 12.4087 92.0479H28.492C30.2358 93.9975 31.2625 96.4841 31.4023 99.0965Z" fill="#D11583"/>
<path d="M22.2887 94.4998C22.9779 97.2579 24.6628 98.637 26.6541 99.0967C25.8882 101.242 25.6585 102.851 26.2712 104.766C25.3318 105.069 24.476 105.587 23.7715 106.279C23.0669 106.97 22.533 107.817 22.2121 108.75C21.934 107.624 21.3262 106.607 20.4665 105.829C19.6069 105.051 18.5346 104.548 17.3871 104.383C18.3061 101.855 18.4593 100.016 17.3871 97.8708C19.4549 97.4878 21.5228 96.4918 22.2887 94.4998Z" fill="#FFC619"/>
<path d="M13.3279 99.4032C13.3561 100.326 13.0437 101.226 12.4504 101.933C11.8571 102.639 11.0243 103.103 10.1113 103.234C8.27316 103.387 6.81799 101.778 6.81799 99.7862C6.81799 97.7942 8.27316 95.9555 10.1113 95.8788C11.9493 95.8022 13.3279 97.4112 13.3279 99.4032Z" fill="black"/>
<path d="M11.7197 92.1245C11.6431 93.1971 11.5665 94.5762 11.5665 96.798H8.50305C8.5899 95.2564 8.76891 93.7213 9.03915 92.2011V92.0479H11.7197V92.1245Z" fill="white"/>
<path d="M11.7201 92.1245C11.6434 93.0438 11.5668 94.3463 11.5668 96.2617C11.5668 98.1771 12.4862 98.79 11.5668 99.2497L10.4176 99.0199C10.4942 97.4109 10.5708 94.4229 10.7241 92.7374C10.712 92.5049 10.7379 92.272 10.8007 92.0479H11.7201V92.1245Z" fill="black"/>
<path d="M11.3201 98.6039C11.4445 96.8267 10.448 95.3092 9.09448 95.2144C7.74094 95.1196 6.54288 96.4835 6.41852 98.2607C6.29417 100.038 7.29061 101.555 8.64415 101.65C9.99768 101.745 11.1958 100.381 11.3201 98.6039Z" fill="white"/>
<path d="M9.99315 99.6345C10.0799 98.4529 9.50045 97.4473 8.69895 97.3885C7.89744 97.3296 7.17739 98.2397 7.09065 99.4213C7.00391 100.603 7.58333 101.609 8.38484 101.667C9.18634 101.726 9.90641 100.816 9.99315 99.6345Z" fill="#8CD9FF"/>
<path d="M22.6717 92.0479C22.7593 92.9669 22.7335 93.8932 22.595 94.806C22.5777 94.8734 22.5379 94.9329 22.4822 94.9747C22.4264 95.0165 22.3582 95.0381 22.2886 95.0359C22.1353 94.9592 22.0587 94.8826 22.0587 94.7294C22.1972 93.8424 22.2229 92.9414 22.1353 92.0479H22.6717Z" fill="black"/>
<path d="M17.3876 98.1005C17.4642 98.1005 17.5407 98.1005 17.6173 97.9473C17.6939 97.7941 17.6173 97.7175 17.5407 97.6409C17.4642 97.5642 15.4729 96.6448 15.3963 96.5682C15.3197 96.4916 15.09 96.6448 15.09 96.7981C15.09 96.9513 15.09 97.0279 15.2431 97.1045C15.9405 97.3644 16.6081 97.6983 17.2344 98.1005H17.3876Z" fill="black"/>
<path d="M26.654 99.403H26.7306L28.1857 98.7901C28.2544 98.7567 28.3081 98.699 28.3364 98.6282C28.3648 98.5573 28.3657 98.4784 28.3389 98.407C28.2623 98.2537 28.1092 98.2537 27.956 98.3304L26.5774 98.8667C26.4243 98.8667 26.3477 99.0199 26.3477 99.1731C26.3477 99.3264 26.5008 99.403 26.654 99.403Z" fill="black"/>
<path d="M26.7314 105.456C26.8081 105.456 26.8847 105.456 26.8847 105.379C26.8847 105.302 27.0379 105.149 26.9613 104.996L26.425 104.536H26.0419C25.9653 104.689 25.9653 104.843 26.1185 104.919L26.5016 105.379L26.7314 105.456Z" fill="black"/>
<path d="M14.9364 105.149H15.013C15.8484 105.068 16.6711 104.888 17.4638 104.613C17.5324 104.58 17.5862 104.522 17.6145 104.451C17.6428 104.38 17.6437 104.301 17.617 104.23L17.3107 104.077C16.5608 104.397 15.7515 104.553 14.9364 104.536C14.7833 104.613 14.7067 104.69 14.7067 104.843C14.7045 104.912 14.726 104.981 14.7678 105.036C14.8096 105.092 14.869 105.132 14.9364 105.149Z" fill="black"/>
<path d="M19.6851 100.476L24.7398 101.702C23.3612 103.694 22.672 104.996 19.6851 100.476Z" fill="black"/>
<path d="M19.2249 101.165H19.3015L20.6801 100.399C20.8332 100.323 20.8332 100.169 20.7566 100.016C20.7668 99.9754 20.7604 99.9324 20.7389 99.8965C20.7173 99.8606 20.6824 99.8347 20.6418 99.8245C20.6011 99.8144 20.5582 99.8208 20.5222 99.8423C20.4863 99.8639 20.4605 99.8988 20.4503 99.9395L19.0717 100.706C18.9185 100.782 18.9185 100.935 18.9951 101.089C19.0717 101.242 19.0717 101.165 19.2249 101.165Z" fill="black"/>
<path d="M20.4502 101.548C22.1351 103.847 22.9776 103.847 23.7434 103.081C23.3274 102.615 22.8208 102.239 22.2546 101.975C21.6883 101.712 21.0744 101.566 20.4502 101.548Z" fill="#EB459F"/>
<path d="M31.4025 115.492L31.7089 115.339C32.3413 113.955 32.8537 112.52 33.2406 111.049C33.2472 110.969 33.2286 110.889 33.1874 110.82C33.1461 110.751 33.0844 110.697 33.0109 110.666C32.8577 110.666 32.7811 110.742 32.7045 110.895C32.3795 112.361 31.8646 113.777 31.1728 115.109C31.1609 115.139 31.1554 115.172 31.1568 115.204C31.1582 115.236 31.1664 115.268 31.1809 115.297C31.1953 115.326 31.2157 115.351 31.2407 115.372C31.2657 115.392 31.2948 115.407 31.326 115.416L31.4025 115.492Z" fill="black"/>
<path d="M9.49872 115.952C9.57996 115.952 9.65788 115.92 9.71533 115.862C9.77278 115.805 9.80506 115.727 9.80506 115.646C9.41334 112.925 8.82464 110.236 8.04357 107.601C8.01026 107.532 7.95256 107.479 7.88173 107.45C7.81091 107.422 7.73207 107.421 7.66063 107.448C7.58404 107.448 7.50745 107.601 7.50745 107.754C8.28492 110.365 8.87362 113.028 9.26896 115.722C9.26896 115.783 9.29317 115.842 9.33625 115.885C9.37934 115.928 9.43778 115.952 9.49872 115.952Z" fill="black"/>
<path d="M14.7834 113.5C18.3064 115.186 18.5361 117.331 17.5405 119.4L17.081 120.166H9.49884C7.43099 118.633 7.43099 116.871 8.27345 115.186C9.1159 113.5 11.1838 111.815 14.7834 113.5Z" fill="#FFC619"/>
<path d="M27.267 113.807C30.6368 112.198 32.4749 113.424 33.4705 115.569C34.4662 117.714 34.3896 118.787 32.8578 120.166H25.046L24.7396 119.629C23.744 117.484 23.8972 115.339 27.267 113.807Z" fill="#FFC619"/>
<path d="M13.2511 117.331C14.8595 118.097 16.621 116.335 18.1527 114.343C19.1741 115.188 20.4312 115.696 21.7523 115.799C22.9491 115.735 24.0978 115.307 25.0456 114.573C25.8114 116.182 27.0368 117.791 28.4154 117.178C29.794 116.565 29.794 114.496 28.8749 112.198C28.6855 111.729 28.3951 111.307 28.0245 110.963C27.6539 110.619 27.2121 110.36 26.7305 110.206C25.297 109.881 23.8345 109.701 22.365 109.67C20.1875 109.551 18.0037 109.68 15.8551 110.053C15.015 110.28 14.2991 110.831 13.8638 111.585C12.6384 113.73 11.2599 116.259 13.2511 117.331Z" fill="white"/>
<path d="M24.9687 112.121L23.7433 112.964C23.2912 113.306 22.7399 113.491 22.1732 113.491C21.6065 113.491 21.0553 113.306 20.6032 112.964L19.531 112.121C19.4182 112.03 19.3369 111.906 19.2987 111.766C19.2605 111.626 19.2673 111.478 19.3182 111.342C19.3691 111.206 19.4614 111.09 19.5821 111.01C19.7028 110.93 19.8457 110.89 19.9905 110.895H24.6623C24.7945 110.918 24.9173 110.978 25.0157 111.069C25.1141 111.16 25.1838 111.278 25.2163 111.408C25.2488 111.538 25.2427 111.675 25.1987 111.801C25.1547 111.928 25.0748 112.039 24.9687 112.121Z" fill="#57F287"/>
<path d="M26.1179 112.428C26.1179 112.808 26.4266 113.117 26.8074 113.117C27.1882 113.117 27.4969 112.808 27.4969 112.428V111.577C27.4969 111.196 27.1882 110.888 26.8074 110.888C26.4266 110.888 26.1179 111.196 26.1179 111.577V112.428Z" fill="#163352"/>
<path d="M16.6209 112.428C16.6209 112.808 16.9296 113.117 17.3104 113.117C17.6913 113.117 18 112.808 18 112.428V111.577C18 111.196 17.6913 110.888 17.3104 110.888C16.9296 110.888 16.6209 111.196 16.6209 111.577V112.428Z" fill="#163352"/>
<path d="M86.469 92.0479H46.8734C46.0275 92.0479 45.3417 92.7339 45.3417 93.5802V118.595C45.3417 119.441 46.0275 120.127 46.8734 120.127H86.469C87.3149 120.127 88.0007 119.441 88.0007 118.595V93.5802C88.0007 92.7339 87.3149 92.0479 86.469 92.0479Z" fill="#29CC7A"/>
<path d="M177.301 92.0479H137.706C136.86 92.0479 136.174 92.7339 136.174 93.5802V118.595C136.174 119.441 136.86 120.127 137.706 120.127H177.301C178.147 120.127 178.833 119.441 178.833 118.595V93.5802C178.833 92.7339 178.147 92.0479 177.301 92.0479Z" fill="#91FFAD"/>
<path d="M177.148 92.0479H137.859C136.928 92.0479 136.174 92.8025 136.174 93.7334V118.442C136.174 119.373 136.928 120.127 137.859 120.127H177.148C178.078 120.127 178.833 119.373 178.833 118.442V93.7334C178.833 92.8025 178.078 92.0479 177.148 92.0479Z" fill="#5865F2"/>
<path d="M147.815 117.331C143.603 111.662 141.688 109.057 138.931 110.666C136.174 112.275 138.318 116.105 141.305 120.166H155.703V111.891C151.108 112.428 149.653 114.496 147.815 117.331Z" fill="url(#paint3_linear_674_3155)"/>
<path d="M178.527 119.476C177.638 117.968 176.666 116.51 175.617 115.109C171.328 109.056 170.256 109.21 159.457 111.432C152.717 112.887 150.726 114.879 150.42 120.166H177.148C177.415 120.163 177.678 120.099 177.917 119.98C178.156 119.86 178.365 119.688 178.527 119.476Z" fill="#7196FF"/>
<path d="M151.645 113.117C152.947 116.258 156.623 119.399 160.682 118.403C166.656 116.948 165.89 113.117 170.332 113.117V112.198C167.728 109.746 169.183 109.823 161.141 111.431C159.776 111.705 158.442 112.116 157.159 112.657V111.891C153.789 112.274 154.249 110.359 152.87 112.121L151.645 113.117Z" fill="#4D7AF7"/>
<path d="M168.8 115.645C168.723 115.492 168.57 115.492 168.417 115.569C168.386 115.577 168.357 115.592 168.332 115.613C168.307 115.633 168.287 115.659 168.272 115.688C168.258 115.717 168.249 115.748 168.248 115.781C168.247 115.813 168.252 115.845 168.264 115.875L170.332 120.166H170.945L168.8 115.645Z" fill="#4D7AF7"/>
<path d="M146.785 109.718L167.923 109.681C169.361 109.679 170.525 108.51 170.522 107.072L170.514 101.961C170.511 100.523 169.343 99.3584 167.905 99.3609L146.767 99.3979C145.329 99.4004 144.165 100.569 144.168 102.007L144.177 107.118C144.179 108.556 145.347 109.72 146.785 109.718Z" fill="#7196FF"/>
<path d="M168.371 94.959H150.143C147.182 94.959 144.782 97.3601 144.782 100.322V109.018C144.782 111.98 147.182 114.381 150.143 114.381H168.371C171.332 114.381 173.732 111.98 173.732 109.018V100.322C173.732 97.3601 171.332 94.959 168.371 94.959Z" fill="#7196FF"/>
<path d="M148.811 103.081C149.615 103.081 150.266 102.429 150.266 101.625C150.266 100.821 149.615 100.169 148.811 100.169C148.007 100.169 147.356 100.821 147.356 101.625C147.356 102.429 148.007 103.081 148.811 103.081Z" fill="black"/>
<path d="M151.601 98.9227L162.017 98.9045C162.484 98.9037 162.932 99.0886 163.263 99.4185C163.594 99.7484 163.781 100.196 163.781 100.664L163.789 104.954C163.791 106.092 163.341 107.184 162.538 107.99C161.735 108.796 160.645 109.25 159.507 109.252L153.61 109.262C152.615 109.264 151.66 108.87 150.955 108.167C150.25 107.465 149.853 106.51 149.851 105.515L149.843 100.688C149.842 100.457 149.887 100.227 149.975 100.013C150.064 99.7994 150.193 99.6049 150.356 99.441C150.52 99.2771 150.714 99.147 150.927 99.058C151.141 98.9691 151.37 98.9231 151.601 98.9227Z" fill="#B8CDFF"/>
<path d="M153.483 106.835H152.64C152.533 106.845 152.425 106.833 152.324 106.8C152.222 106.766 152.128 106.711 152.048 106.639C151.969 106.567 151.906 106.479 151.862 106.38C151.819 106.282 151.797 106.176 151.798 106.068C151.817 105.858 151.914 105.663 152.07 105.521C152.226 105.38 152.429 105.301 152.64 105.302H153.483C153.693 105.301 153.897 105.38 154.053 105.521C154.209 105.663 154.306 105.858 154.325 106.068C154.326 106.176 154.304 106.282 154.26 106.38C154.217 106.479 154.154 106.567 154.074 106.639C153.995 106.711 153.901 106.766 153.799 106.8C153.697 106.833 153.589 106.845 153.483 106.835Z" fill="#7196FF"/>
<path d="M158.844 106.835H157.312C157.101 106.836 156.898 106.757 156.742 106.616C156.586 106.474 156.489 106.279 156.469 106.069C156.469 105.961 156.491 105.855 156.534 105.757C156.577 105.658 156.641 105.57 156.72 105.498C156.8 105.426 156.893 105.371 156.995 105.337C157.097 105.304 157.205 105.292 157.312 105.302H158.844C158.95 105.292 159.058 105.304 159.16 105.337C159.262 105.371 159.356 105.426 159.435 105.498C159.515 105.57 159.578 105.658 159.621 105.757C159.665 105.855 159.687 105.961 159.686 106.069C159.667 106.279 159.57 106.474 159.414 106.616C159.258 106.757 159.054 106.836 158.844 106.835Z" fill="#7196FF"/>
<path d="M170.29 99.6562L175.115 99.6478C175.765 99.6467 176.388 99.9039 176.849 100.363C177.309 100.822 177.569 101.445 177.57 102.095L177.579 107.535C177.58 108.185 177.323 108.809 176.864 109.27C176.406 109.73 175.783 109.99 175.133 109.991L170.308 109.999L170.29 99.6562Z" fill="#7196FF"/>
<path d="M172.972 100.877L174.35 100.875C174.655 100.874 174.947 100.995 175.163 101.21C175.379 101.425 175.501 101.717 175.501 102.022L175.508 106.236C175.509 106.541 175.388 106.833 175.173 107.049C174.958 107.265 174.666 107.387 174.362 107.387L172.983 107.39L172.972 100.954L172.972 100.877Z" fill="#B8CDFF"/>
<path d="M167.268 103.157C168.156 103.157 168.876 102.437 168.876 101.548C168.876 100.66 168.156 99.9392 167.268 99.9392C166.38 99.9392 165.659 100.66 165.659 101.548C165.659 102.437 166.38 103.157 167.268 103.157Z" fill="black"/>
<path d="M158.92 110.589L162.213 109.746C162.367 109.746 162.52 109.9 162.443 110.053C161.601 112.811 160.529 112.121 158.844 111.049C158.815 111.015 158.794 110.975 158.783 110.932C158.771 110.89 158.769 110.845 158.776 110.801C158.783 110.758 158.8 110.716 158.825 110.679C158.85 110.643 158.882 110.612 158.92 110.589Z" fill="#9C1061"/>
<path d="M162.443 110.129L161.524 110.359C160.796 110.566 160.135 110.963 159.61 111.508C160.912 112.275 161.831 112.351 162.443 110.129Z" fill="#FF78B9"/>
<path d="M158.997 94.1165H167.421C167.427 93.3696 167.185 92.642 166.732 92.0479H162.06C159.916 94.0399 158.997 94.1165 158.997 94.1165Z" fill="#29CC7A"/>
<path d="M152.64 94.1165H162.06C162.06 94.1165 161.141 94.0399 159.073 92.0479H152.18C152.096 92.7695 152.258 93.4986 152.64 94.1165Z" fill="#57F287"/>
<path d="M66.7097 117.254C72.8429 117.254 77.8149 112.281 77.8149 106.145C77.8149 100.01 72.8429 95.0359 66.7097 95.0359C60.5766 95.0359 55.6046 100.01 55.6046 106.145C55.6046 112.281 60.5766 117.254 66.7097 117.254Z" fill="#57F287"/>
<path d="M56.9838 105.456L55.9112 103.617C55.7721 104.146 55.6697 104.683 55.6047 105.226L56.9838 105.456Z" fill="#FF78B9"/>
<path d="M57.3662 105.532C58.132 105.609 58.5916 105.149 58.3618 104.307C57.9844 103.126 57.5237 101.974 56.9832 100.859C56.2776 102.054 55.8339 103.386 55.6813 104.766C56.1872 105.13 56.7597 105.39 57.3662 105.532Z" fill="white"/>
<path d="M75.1343 98.8669C74.3839 98.05 73.5349 97.3294 72.607 96.7217L71.6113 102.391C72.607 101.855 74.6748 100.552 75.1343 99.0201V98.8669Z" fill="#FF78B9"/>
<path d="M70.4625 95.6487C70.2689 96.0607 70.1398 96.4999 70.0796 96.9511C69.8877 98.5782 69.8365 100.219 69.9264 101.855C69.9315 102.013 69.9778 102.168 70.0605 102.304C70.1433 102.439 70.2598 102.551 70.3986 102.628C70.5375 102.706 70.694 102.745 70.8528 102.744C71.0117 102.743 71.1675 102.7 71.305 102.621C71.7645 102.314 72.4538 98.8665 72.7601 96.7979C72.0345 96.3391 71.2648 95.9541 70.4625 95.6487Z" fill="white"/>
<path d="M76.8188 104.536L74.751 104.996L75.5934 108.827L77.5847 108.444C77.7367 107.687 77.8137 106.917 77.8145 106.145C77.827 105.761 77.8013 105.376 77.7379 104.996C77.6271 104.857 77.4875 104.745 77.3288 104.665C77.1701 104.586 76.9961 104.542 76.8188 104.536Z" fill="#7196FF"/>
<path d="M72.1476 113.424H71.152L62.8806 114.573C62.1419 114.727 61.4558 115.07 60.8893 115.569C62.6289 116.675 64.6487 117.26 66.7099 117.255C69.4905 117.272 72.1738 116.232 74.2154 114.343C73.6602 113.796 72.9254 113.47 72.1476 113.424Z" fill="white"/>
<path d="M73.0662 110.206L58.6678 112.504L58.821 113.654C58.8976 113.807 58.8976 113.96 58.9742 114.113C59.5077 114.638 60.0986 115.1 60.7357 115.492H61.6547L71.8408 113.883C72.2948 113.826 72.7086 113.594 72.9945 113.236C73.2804 112.879 73.416 112.424 73.3726 111.968L73.0662 110.206Z" fill="#7196FF"/>
<path d="M71.4581 110.513L71.9944 113.884H71.6113L70.9984 110.513H71.4581Z" fill="#5865F2"/>
<path d="M67.323 111.125L67.9359 114.573L67.4762 114.65L66.8633 111.202L67.323 111.125Z" fill="#5865F2"/>
<path d="M63.1869 111.815L63.7998 115.186L63.4167 115.263L62.8038 111.815H63.1869Z" fill="#5865F2"/>
<path d="M76.7428 106.375C76.2067 103.54 74.0622 102.698 72.9134 102.238C71.7646 101.778 70.2329 100.782 69.6968 99.9396C69.1607 99.0968 66.2503 96.262 62.8039 96.9515C59.3575 97.6411 57.9023 100.246 57.4428 102.774C57.2131 104 57.2131 104.613 56.5238 105.456C55.8345 106.299 55.9111 106.222 55.6047 106.605C55.6708 108.233 56.0965 109.826 56.8513 111.27C57.6061 112.714 58.6712 113.973 59.9702 114.956H60.7361L72.7603 112.505C74.0954 112.21 75.2614 111.403 76.0065 110.256C76.7516 109.109 77.0161 107.715 76.7428 106.375Z" fill="white"/>
<path d="M69.3906 102.008C69.6971 102.161 69.5438 102.621 69.2373 103.157C68.9309 103.694 68.5478 104.153 68.318 103.924C68.0881 103.694 68.1647 103.311 68.4712 102.774C68.7777 102.238 69.1607 101.855 69.3906 102.008Z" fill="black"/>
<path d="M66.71 105.149C66.6333 104.843 67.7826 104.613 67.8592 104.919C67.9358 105.226 67.6293 105.456 67.3995 105.532C67.2579 105.56 67.1111 105.536 66.9849 105.466C66.8588 105.396 66.7614 105.284 66.71 105.149Z" fill="black"/>
<path d="M67.7055 107.141C67.5523 108.29 66.7865 109.133 66.0206 108.98C65.2547 108.827 64.7186 107.907 64.8718 106.758L67.7055 107.141Z" fill="#FFAED7"/>
<path d="M61.962 103.54C61.7322 103.77 62.1152 104.153 62.5747 104.536C63.0342 104.92 63.5703 105.149 63.7235 104.92C63.8767 104.69 63.6469 104.153 63.1874 103.77C62.7279 103.387 62.1152 103.234 61.962 103.54Z" fill="black"/>
<path d="M62.7274 107.371H62.5743L61.2723 106.222C61.1957 106.222 61.1957 106.069 61.2723 105.992H61.5786L62.804 107.065C62.8417 107.107 62.8625 107.161 62.8625 107.218C62.8625 107.274 62.8417 107.329 62.804 107.371C62.7924 107.364 62.7792 107.361 62.7657 107.361C62.7523 107.361 62.7391 107.364 62.7274 107.371Z" fill="#FFAED7"/>
<path d="M61.5788 107.601H61.4256L60.1236 106.375C60.1073 106.361 60.0943 106.343 60.0854 106.323C60.0764 106.304 60.0718 106.282 60.0718 106.26C60.0718 106.239 60.0764 106.217 60.0854 106.197C60.0943 106.178 60.1073 106.16 60.1236 106.146H60.43L61.6554 107.218C61.6931 107.26 61.7139 107.315 61.7139 107.371C61.7139 107.428 61.6931 107.482 61.6554 107.525L61.5788 107.601Z" fill="#FFAED7"/>
<path d="M60.3536 107.831H60.2005L58.9751 106.682C58.9588 106.667 58.9457 106.65 58.9368 106.63C58.9279 106.61 58.9232 106.589 58.9232 106.567C58.9232 106.545 58.9279 106.524 58.9368 106.504C58.9457 106.484 58.9588 106.466 58.9751 106.452H59.2814L60.5068 107.525C60.5445 107.567 60.5653 107.621 60.5653 107.678C60.5653 107.734 60.5445 107.789 60.5068 107.831H60.3536Z" fill="#FFAED7"/>
<path d="M70.1567 105.839H70.08C70.0034 105.762 69.9268 105.609 70.0034 105.533L70.693 104.077C70.7696 103.924 70.8462 103.924 70.9228 103.924C70.976 103.954 71.0189 103.999 71.0462 104.053C71.0735 104.108 71.0839 104.17 71.076 104.23L70.3099 105.686L70.1567 105.839Z" fill="#FFAED7"/>
<path d="M71.3052 105.609H71.2286C71.152 105.532 71.0754 105.379 71.152 105.303L71.8415 103.847C71.9181 103.694 71.9948 103.694 72.148 103.77C72.3012 103.847 72.2246 103.924 72.2246 104L71.4584 105.456L71.3052 105.609Z" fill="#FFAED7"/>
<path d="M72.5304 105.379H72.3772C72.3005 105.302 72.2239 105.149 72.3005 105.073L72.9901 103.617C73.0667 103.464 73.1433 103.464 73.2966 103.54C73.4498 103.617 73.3731 103.694 73.3731 103.77L72.607 105.226L72.5304 105.379Z" fill="#FFAED7"/>
<path d="M55.9108 108.827C56.2111 109.961 56.6757 111.045 57.2898 112.045C57.4352 111.573 57.4615 111.073 57.3665 110.589C57.1366 109.516 56.5237 108.75 55.9108 108.827Z" fill="#7196FF"/>
<path d="M62.2683 96.6447C62.2683 96.8746 62.4216 97.0278 62.6514 96.9512C62.8813 96.9512 62.9579 96.798 62.9579 96.5681C62.9476 96.2813 62.8959 95.9974 62.8046 95.7253L62.1151 95.9552C62.1501 96.1883 62.2012 96.4187 62.2683 96.6447Z" fill="black"/>
<path d="M66.7866 96.5682C66.7136 96.2702 66.5314 96.0104 66.2762 95.8402C66.021 95.6699 65.7112 95.6017 65.408 95.6489L60.966 96.5682C60.2513 97.0382 59.5844 97.5771 58.9747 98.1772L59.1279 99.0199L66.9398 97.411L66.7866 96.5682Z" fill="#5865F2"/>
<path d="M100.79 46.3082C101.678 46.3082 102.398 45.5878 102.398 44.6993C102.398 43.8107 101.678 43.0903 100.79 43.0903C99.9015 43.0903 99.1814 43.8107 99.1814 44.6993C99.1814 45.5878 99.9015 46.3082 100.79 46.3082Z" fill="#FF78B9"/>
<path d="M87.9235 44.8524C88.8118 44.8524 89.5318 44.132 89.5318 43.2434C89.5318 42.3549 88.8118 41.6345 87.9235 41.6345C87.0352 41.6345 86.3152 42.3549 86.3152 43.2434C86.3152 44.132 87.0352 44.8524 87.9235 44.8524Z" fill="#FF78B9"/>
<path d="M68.0105 42.7071C68.8988 42.7071 69.6189 41.9868 69.6189 41.0982C69.6189 40.2096 68.8988 39.4893 68.0105 39.4893C67.1223 39.4893 66.4022 40.2096 66.4022 41.0982C66.4022 41.9868 67.1223 42.7071 68.0105 42.7071Z" fill="#FF78B9"/>
<path d="M104.466 58.7201C105.354 58.7201 106.074 57.9997 106.074 57.1111C106.074 56.2225 105.354 55.5022 104.466 55.5022C103.578 55.5022 102.857 56.2225 102.857 57.1111C102.857 57.9997 103.578 58.7201 104.466 58.7201Z" fill="#FF78B9"/>
<path d="M94.3566 66.8409C95.2449 66.8409 95.9649 66.1206 95.9649 65.232C95.9649 64.3434 95.2449 63.623 94.3566 63.623C93.4684 63.623 92.7483 64.3434 92.7483 65.232C92.7483 66.1206 93.4684 66.8409 94.3566 66.8409Z" fill="#FF78B9"/>
<path d="M78.7326 79.4061C79.6208 79.4061 80.3409 78.6857 80.3409 77.7972C80.3409 76.9086 79.6208 76.1882 78.7326 76.1882C77.8443 76.1882 77.1243 76.9086 77.1243 77.7972C77.1243 78.6857 77.8443 79.4061 78.7326 79.4061Z" fill="#FF78B9"/>
<path d="M107.07 34.8924C107.958 34.8924 108.678 34.1721 108.678 33.2835C108.678 32.3949 107.958 31.6746 107.07 31.6746C106.181 31.6746 105.461 32.3949 105.461 33.2835C105.461 34.1721 106.181 34.8924 107.07 34.8924Z" fill="#FF78B9"/>
<path d="M98.9517 24.7791C99.84 24.7791 100.56 24.0588 100.56 23.1702C100.56 22.2816 99.84 21.5613 98.9517 21.5613C98.0635 21.5613 97.3434 22.2816 97.3434 23.1702C97.3434 24.0588 98.0635 24.7791 98.9517 24.7791Z" fill="#FF78B9"/>
<path d="M86.3915 9.1495C87.2798 9.1495 87.9998 8.42916 87.9998 7.54057C87.9998 6.65198 87.2798 5.93164 86.3915 5.93164C85.5033 5.93164 84.7832 6.65198 84.7832 7.54057C84.7832 8.42916 85.5033 9.1495 86.3915 9.1495Z" fill="#FF78B9"/>
<path d="M102.782 39.9491C103.67 39.9491 104.39 39.2287 104.39 38.3401C104.39 37.4515 103.67 36.7312 102.782 36.7312C101.893 36.7312 101.173 37.4515 101.173 38.3401C101.173 39.2287 101.893 39.9491 102.782 39.9491Z" fill="#FF78B9"/>
<path d="M91.4457 33.7435C92.334 33.7435 93.0541 33.0231 93.0541 32.1346C93.0541 31.246 92.334 30.5256 91.4457 30.5256C90.5575 30.5256 89.8374 31.246 89.8374 32.1346C89.8374 33.0231 90.5575 33.7435 91.4457 33.7435Z" fill="#FF78B9"/>
<path d="M73.908 24.0894C74.7963 24.0894 75.5164 23.3691 75.5164 22.4805C75.5164 21.5919 74.7963 20.8716 73.908 20.8716C73.0198 20.8716 72.2997 21.5919 72.2997 22.4805C72.2997 23.3691 73.0198 24.0894 73.908 24.0894Z" fill="#FF78B9"/>
<path d="M101.403 52.8971C102.291 52.8971 103.011 52.1767 103.011 51.2881C103.011 50.3995 102.291 49.6792 101.403 49.6792C100.514 49.6792 99.7943 50.3995 99.7943 51.2881C99.7943 52.1767 100.514 52.8971 101.403 52.8971Z" fill="#FF78B9"/>
<path d="M88.9948 56.4976C89.8831 56.4976 90.6031 55.7773 90.6031 54.8887C90.6031 54.0001 89.8831 53.2798 88.9948 53.2798C88.1066 53.2798 87.3865 54.0001 87.3865 54.8887C87.3865 55.7773 88.1066 56.4976 88.9948 56.4976Z" fill="#FF78B9"/>
<path d="M69.6955 62.0911C70.5837 62.0911 71.3038 61.3708 71.3038 60.4822C71.3038 59.5936 70.5837 58.8733 69.6955 58.8733C68.8072 58.8733 68.0872 59.5936 68.0872 60.4822C68.0872 61.3708 68.8072 62.0911 69.6955 62.0911Z" fill="#FF78B9"/>
<path d="M109.521 63.0101C110.409 63.0101 111.129 62.2898 111.129 61.4012C111.129 60.5126 110.409 59.7922 109.521 59.7922C108.632 59.7922 107.912 60.5126 107.912 61.4012C107.912 62.2898 108.632 63.0101 109.521 63.0101Z" fill="#FF78B9"/>
<path d="M103.317 74.3494C104.205 74.3494 104.926 73.6291 104.926 72.7405C104.926 71.8519 104.205 71.1316 103.317 71.1316C102.429 71.1316 101.709 71.8519 101.709 72.7405C101.709 73.6291 102.429 74.3494 103.317 74.3494Z" fill="#FF78B9"/>
<path d="M89.2252 39.0299C90.1134 39.0299 90.8335 38.3095 90.8335 37.4209C90.8335 36.5324 90.1134 35.812 89.2252 35.812C88.3369 35.812 87.6168 36.5324 87.6168 37.4209C87.6168 38.3095 88.3369 39.0299 89.2252 39.0299Z" fill="#FF78B9"/>
<path d="M91.0632 61.7845C91.9514 61.7845 92.6715 61.0642 92.6715 60.1756C92.6715 59.287 91.9514 58.5667 91.0632 58.5667C90.1749 58.5667 89.4548 59.287 89.4548 60.1756C89.4548 61.0642 90.1749 61.7845 91.0632 61.7845Z" fill="#FF78B9"/>
<path d="M94.893 28.8399C95.7813 28.8399 96.5013 28.1196 96.5013 27.231C96.5013 26.3424 95.7813 25.6221 94.893 25.6221C94.0047 25.6221 93.2847 26.3424 93.2847 27.231C93.2847 28.1196 94.0047 28.8399 94.893 28.8399Z" fill="#FF78B9"/>
<path d="M87.847 50.5987C88.7352 50.5987 89.4553 49.8784 89.4553 48.9898C89.4553 48.1012 88.7352 47.3809 87.847 47.3809C86.9587 47.3809 86.2386 48.1012 86.2386 48.9898C86.2386 49.8784 86.9587 50.5987 87.847 50.5987Z" fill="#FF78B9"/>
<path d="M98.3388 70.9019C99.2271 70.9019 99.9471 70.1816 99.9471 69.293C99.9471 68.4044 99.2271 67.6841 98.3388 67.6841C97.4505 67.6841 96.7305 68.4044 96.7305 69.293C96.7305 70.1816 97.4505 70.9019 98.3388 70.9019Z" fill="#FF78B9"/>
<path d="M70.0789 32.9005C70.9672 32.9005 71.6873 32.1801 71.6873 31.2915C71.6873 30.403 70.9672 29.6826 70.0789 29.6826C69.1907 29.6826 68.4706 30.403 68.4706 31.2915C68.4706 32.1801 69.1907 32.9005 70.0789 32.9005Z" fill="#FF78B9"/>
<path d="M73.2951 70.9786C74.1834 70.9786 74.9034 70.2583 74.9034 69.3697C74.9034 68.4811 74.1834 67.7607 73.2951 67.7607C72.4068 67.7607 71.6868 68.4811 71.6868 69.3697C71.6868 70.2583 72.4068 70.9786 73.2951 70.9786Z" fill="#FF78B9"/>
<path d="M79.5751 15.815C80.4634 15.815 81.1835 15.0947 81.1835 14.2061C81.1835 13.3175 80.4634 12.5972 79.5751 12.5972C78.6869 12.5972 77.9668 13.3175 77.9668 14.2061C77.9668 15.0947 78.6869 15.815 79.5751 15.815Z" fill="#FF78B9"/>
<path d="M67.934 52.284C68.8223 52.284 69.5423 51.5637 69.5423 50.6751C69.5423 49.7865 68.8223 49.0662 67.934 49.0662C67.0458 49.0662 66.3257 49.7865 66.3257 50.6751C66.3257 51.5637 67.0458 52.284 67.934 52.284Z" fill="#FF78B9"/>
<path d="M85.3961 86.2249C86.2843 86.2249 87.0044 85.5046 87.0044 84.616C87.0044 83.7274 86.2843 83.0071 85.3961 83.0071C84.5078 83.0071 83.7877 83.7274 83.7877 84.616C83.7877 85.5046 84.5078 86.2249 85.3961 86.2249Z" fill="#FF78B9"/>
<path d="M37.3771 34.2028L17.3113 26.8477L20.6811 33.4366C21.3321 34.7275 22.4575 35.716 23.8212 36.1948L39.7513 42.0176L40.364 40.4852L37.3771 34.2028Z" fill="#DAE2ED"/>
<path d="M41.9727 33.5132L15.3204 23.783C15.1673 23.7064 15.0141 23.9363 15.0907 24.0895L16.0863 26.1581C16.2029 26.3717 16.3936 26.5353 16.6224 26.6178L17.3117 26.8477L37.3775 34.2028L40.3644 40.4853L39.7517 42.0176L39.3688 43.1668L46.1085 45.6185L47.0275 42.937L43.1216 34.5092C43.0122 34.2709 42.8531 34.0586 42.6549 33.8869C42.4568 33.7151 42.2242 33.5877 41.9727 33.5132Z" fill="#ECEFF6"/>
<path d="M40.3636 40.4852L37.3767 34.2028L17.3109 26.8477L18.0002 28.2267L36.6875 34.9689L39.368 40.8683L39.0617 41.7877L39.7509 42.0176L40.3636 40.4852Z" fill="#C5CEDD"/>
<path d="M49.1619 45.5877C49.1991 38.4791 43.4688 32.6863 36.3628 32.6491C29.2569 32.6119 23.4662 38.3444 23.429 45.453C23.3917 52.5616 29.1221 58.3544 36.228 58.3916C43.334 58.4288 49.1247 52.6963 49.1619 45.5877Z" fill="#262D3D"/>
<path d="M44.6438 45.5643C44.6679 40.9522 40.95 37.1938 36.3396 37.1696C31.7292 37.1455 27.9721 40.8648 27.948 45.4769C27.9239 50.089 31.6418 53.8475 36.2522 53.8716C40.8626 53.8958 44.6196 50.1765 44.6438 45.5643Z" fill="#7687B2"/>
<path d="M44.806 35.3524C44.806 37.2678 39.6747 42.0946 36.2283 44.6995C33.1648 44.7762 25.3529 44.4697 23.5914 42.6309C23.285 42.4011 23.285 42.2478 23.285 42.0946V41.8648C23.8001 40.0019 24.7096 38.2715 25.9517 36.791C27.1938 35.3105 28.7396 34.1144 30.4842 33.2838C34.8497 31.2152 40.1342 31.7515 44.5763 34.8927C44.656 34.9378 44.7204 35.0056 44.7614 35.0875C44.8023 35.1694 44.8178 35.2616 44.806 35.3524Z" fill="#FF7F14"/>
<path d="M36.4575 45.3889C36.4575 45.3889 24.127 37.9571 25.3524 36.4248C26.6605 34.8482 28.3106 33.5905 30.1773 32.7473C35.1555 30.3722 40.6698 31.3682 44.9587 34.3562C47.9456 36.5014 36.4575 45.3889 36.4575 45.3889Z" fill="#FF903E"/>
<path d="M43.3416 45.5575C43.362 41.6647 40.2239 38.4924 36.3326 38.4721C32.4412 38.4517 29.2702 41.5909 29.2498 45.4837C29.2294 49.3765 32.3675 52.5488 36.2588 52.5691C40.1502 52.5895 43.3212 49.4503 43.3416 45.5575Z" fill="#EBEFF7"/>
<path d="M36.2283 51.3652C39.4852 51.3652 42.1255 48.724 42.1255 45.4658C42.1255 42.2077 39.4852 39.5664 36.2283 39.5664C32.9713 39.5664 30.3311 42.2077 30.3311 45.4658C30.3311 48.724 32.9713 51.3652 36.2283 51.3652Z" fill="#DAE2ED"/>
<path d="M32.7053 42.9372L35.9219 41.0218C36.1189 40.9449 36.3376 40.9449 36.5346 41.0218L39.8279 42.8606C39.9133 42.9238 39.9847 43.0042 40.0375 43.0965C40.0902 43.1888 40.1232 43.2911 40.1342 43.3969V47.1511C40.1149 47.3872 40.0051 47.6068 39.8279 47.764L36.5346 49.6794H35.9219L32.6287 47.8406C32.4723 47.6988 32.3651 47.511 32.3223 47.3043V43.5501C32.2983 43.4186 32.3242 43.2828 32.3951 43.1694C32.4659 43.0561 32.5766 42.9732 32.7053 42.9372Z" fill="#C5CEDD"/>
<path d="M36.228 47.5342C37.37 47.5342 38.2959 46.6081 38.2959 45.4656C38.2959 44.3231 37.37 43.397 36.228 43.397C35.086 43.397 34.1602 44.3231 34.1602 45.4656C34.1602 46.6081 35.086 47.5342 36.228 47.5342Z" fill="#B7C2CE"/>
<path d="M52.2344 57.5704H51.1621C51.0199 57.5704 50.8836 57.6269 50.7831 57.7275C50.6825 57.828 50.626 57.9645 50.626 58.1067V60.4052C50.6266 60.7174 50.5081 61.0182 50.2946 61.246C50.0811 61.4738 49.7888 61.6115 49.4772 61.631C49.1522 61.631 48.8405 61.5019 48.6107 61.272C48.3809 61.0421 48.2518 60.7303 48.2518 60.4052V50.5984C48.2702 50.2589 48.4133 49.9382 48.6536 49.6978C48.8939 49.4574 49.2145 49.3143 49.5538 49.2959H53.5363C53.8757 49.3143 54.1963 49.4574 54.4366 49.6978C54.6769 49.9382 54.8199 50.2589 54.8383 50.5984V54.9655C54.8383 55.6563 54.564 56.3189 54.0756 56.8074C53.5873 57.2959 52.925 57.5704 52.2344 57.5704Z" fill="#80A7FF"/>
<path d="M54.9149 45.1589H52.6938V47.6106H54.9149V45.1589Z" fill="#80A7FF"/>
<path d="M54.1491 50.5219H44.6522L44.4225 50.3686C44.4225 50.3077 44.4467 50.2492 44.4898 50.2061C44.5329 50.163 44.5913 50.1388 44.6522 50.1388H54.1491C54.2256 50.1388 54.3022 50.0622 54.3022 49.9089V48.3766C54.3022 48.3 54.4554 48.2234 54.532 48.2234C54.6086 48.2234 54.7617 48.3 54.7617 48.3766V49.9089C54.7617 49.9894 54.7459 50.0691 54.7151 50.1435C54.6843 50.2178 54.6392 50.2854 54.5823 50.3423C54.5254 50.3993 54.4578 50.4444 54.3835 50.4752C54.3092 50.506 54.2295 50.5219 54.1491 50.5219Z" fill="#E4E9F7"/>
<path d="M55.221 44.6223H53.8424C53.7155 44.6223 53.6127 44.7252 53.6127 44.8522V49.1273C53.6127 49.2543 53.7155 49.3572 53.8424 49.3572H55.221C55.3479 49.3572 55.4508 49.2543 55.4508 49.1273V44.8522C55.4508 44.7252 55.3479 44.6223 55.221 44.6223Z" fill="black"/>
<path d="M54.9147 45.1586H55.7571C55.8337 45.1586 55.9103 45.2353 55.9103 45.3885V47.4571L55.7571 47.6103H54.9912C54.6896 47.6345 54.3897 47.546 54.1493 47.3622C53.9089 47.1783 53.745 46.9119 53.6893 46.6143C53.6551 46.4353 53.6612 46.2508 53.7073 46.0744C53.7533 45.898 53.8382 45.7341 53.9556 45.5947C54.073 45.4552 54.22 45.3437 54.3859 45.2683C54.5518 45.1929 54.7324 45.1554 54.9147 45.1586Z" fill="#80A7FF"/>
<path d="M50.6266 44.6226H49.2481C49.1212 44.6226 49.0183 44.7255 49.0183 44.8524V49.1276C49.0183 49.2545 49.1212 49.3574 49.2481 49.3574H50.6266C50.7535 49.3574 50.8564 49.2545 50.8564 49.1276V44.8524C50.8564 44.7255 50.7535 44.6226 50.6266 44.6226Z" fill="black"/>
<path d="M49.8609 48.377V49.9093C49.8624 50.019 49.8247 50.1257 49.7544 50.21C49.6842 50.2943 49.5861 50.3507 49.478 50.369H40.0577" stroke="#2F3849" stroke-width="2.00882" stroke-miterlimit="10"/>
<path d="M53.766 46.1546C53.2391 45.4269 52.5488 44.8329 51.7508 44.4204C50.9527 44.0079 50.0691 43.7884 49.1708 43.7795H41.5121C40.598 43.7795 39.7214 44.1428 39.0751 44.7893C38.4288 45.4359 38.0657 46.3129 38.0657 47.2272V53.4331C38.0657 54.0427 38.3077 54.6273 38.7386 55.0584C39.1695 55.4894 39.7539 55.7316 40.3633 55.7316H51.3918C52.2928 55.7318 53.158 55.3791 53.8021 54.749C54.4463 54.1189 54.8182 53.2615 54.8383 52.3605V49.4491C54.8493 48.2634 54.4728 47.1065 53.766 46.1546Z" fill="#9CB8FF"/>
<path d="M43.8097 43.7795H41.5121C41.0595 43.7795 40.6113 43.8687 40.1932 44.042C39.7751 44.2152 39.3951 44.4692 39.0751 44.7893C38.7551 45.1095 38.5012 45.4896 38.328 45.9079C38.1548 46.3262 38.0657 46.7745 38.0657 47.2272V52.667C38.0848 53.2705 38.3331 53.844 38.7599 54.271C39.1867 54.6979 39.76 54.9462 40.3633 54.9654H43.8097C43.7331 51.2113 43.7331 47.5337 43.8097 43.7795Z" fill="#80A7FF"/>
<path d="M36.534 51.9008L34.0832 52.5904C33.7552 52.704 33.466 52.9082 33.2491 53.1793C33.0323 53.4505 32.8966 53.7776 32.8578 54.1227C32.8469 54.3671 32.887 54.611 32.9756 54.839C33.0641 55.067 33.1991 55.2741 33.372 55.4471C33.5449 55.6201 33.7519 55.7551 33.9798 55.8437C34.2078 55.9322 34.4516 55.9723 34.6959 55.9615C35.0439 55.9321 35.3754 55.7998 35.6482 55.5816C35.9209 55.3633 36.1226 55.0688 36.2277 54.7356L36.917 52.3605C36.9935 52.0541 36.7638 51.8242 36.534 51.9008Z" fill="#80A7FF"/>
<path d="M42.0482 57.5701H40.976C40.8338 57.5701 40.6974 57.6265 40.5969 57.7271C40.4964 57.8277 40.4399 57.9641 40.4399 58.1064V60.4048C40.4405 60.7171 40.3219 61.0178 40.1084 61.2456C39.8949 61.4734 39.6026 61.6112 39.291 61.6307C38.9661 61.6307 38.6544 61.5015 38.4246 61.2716C38.1948 61.0417 38.0657 60.7299 38.0657 60.4048V48.7593C38.0841 48.4198 38.2271 48.0991 38.4674 47.8587C38.7077 47.6183 39.0283 47.4752 39.3676 47.4568H43.3502C43.6955 47.4568 44.0267 47.594 44.2708 47.8383C44.515 48.0825 44.6521 48.4138 44.6521 48.7593V54.9651C44.6521 55.656 44.3778 56.3186 43.8895 56.8071C43.4011 57.2956 42.7388 57.5701 42.0482 57.5701Z" fill="#80A7FF"/>
<path d="M49.4781 50.5219H40.0579C39.9047 50.5219 39.8281 50.4452 39.8281 50.3686C39.8281 50.3077 39.8523 50.2492 39.8954 50.2061C39.9385 50.163 39.9969 50.1388 40.0579 50.1388H49.4781C49.539 50.1388 49.5975 50.1146 49.6406 50.0715C49.6837 50.0283 49.7079 49.9699 49.7079 49.9089V48.3766C49.7079 48.336 49.724 48.297 49.7527 48.2683C49.7815 48.2395 49.8204 48.2234 49.861 48.2234C50.0142 48.2234 50.0908 48.3 50.0908 48.3766V49.9089C50.1039 49.9924 50.0971 50.0778 50.0709 50.1581C50.0447 50.2385 50 50.3115 49.9403 50.3712C49.8805 50.431 49.8075 50.4758 49.7272 50.5019C49.6469 50.5281 49.5616 50.5349 49.4781 50.5219Z" fill="#E4E9F7"/>
<path d="M50.6266 44.6223H49.2481C49.1212 44.6223 49.0183 44.7252 49.0183 44.8522V49.1273C49.0183 49.2543 49.1212 49.3572 49.2481 49.3572H50.6266C50.7535 49.3572 50.8564 49.2543 50.8564 49.1273V44.8522C50.8564 44.7252 50.7535 44.6223 50.6266 44.6223Z" fill="black"/>
<path d="M50.7028 45.1586H46.031C45.6654 45.1586 45.3148 45.0133 45.0562 44.7547C44.7977 44.4961 44.6524 44.1453 44.6524 43.7795H41.8187V49.8322H44.6524C44.9588 48.2999 46.2608 47.6103 47.8691 47.6103H50.6262C50.9512 47.6205 51.2669 47.5011 51.5039 47.2784C51.7409 47.0557 51.8798 46.7479 51.8899 46.4228C51.9001 46.0977 51.7807 45.7818 51.5581 45.5447C51.3355 45.3077 51.0278 45.1688 50.7028 45.1586Z" fill="#80A7FF"/>
<path d="M40.0589 43.8564H50.5514C52.4548 43.8564 53.9978 42.3129 53.9978 40.4087V34.1339C53.9978 32.2298 52.4548 30.6862 50.5514 30.6862H40.0589C38.1555 30.6862 36.6125 32.2298 36.6125 34.1339V40.4087C36.6125 42.3129 38.1555 43.8564 40.0589 43.8564Z" fill="#80A7FF"/>
<path d="M42.2797 43.8564H52.7721C54.6755 43.8564 56.2185 42.3129 56.2185 40.4087V34.1339C56.2185 32.2298 54.6755 30.6862 52.7721 30.6862H42.2797C40.3763 30.6862 38.8332 32.2298 38.8332 34.1339V40.4087C38.8332 42.3129 40.3763 43.8564 42.2797 43.8564Z" fill="#9CB8FF"/>
<path d="M40.135 39.6426H37.6076C36.9983 39.6426 36.4139 39.4004 35.983 38.9694C35.5521 38.5383 35.31 37.9537 35.31 37.3441V35.7352C35.31 35.1256 35.5521 34.541 35.983 34.1099C36.4139 33.6789 36.9983 33.4367 37.6076 33.4367H40.135V39.566V39.6426Z" fill="#9CB8FF"/>
<path d="M40.2123 34.8924V38.3401C40.2123 38.4011 40.1881 38.4596 40.145 38.5027C40.1019 38.5458 40.0435 38.57 39.9825 38.57H37.6849C37.3802 38.57 37.088 38.4489 36.8726 38.2334C36.6571 38.0179 36.5361 37.7256 36.5361 37.4208V35.8118C36.5361 35.507 36.6571 35.2147 36.8726 34.9992C37.088 34.7837 37.3802 34.6626 37.6849 34.6626H39.9825C40.0435 34.6626 40.1019 34.6868 40.145 34.7299C40.1881 34.773 40.2123 34.8315 40.2123 34.8924Z" fill="#80A7FF"/>
<path d="M42.9686 36.5241C42.9686 37.1462 43.4658 37.6504 44.0791 37.6504C44.6924 37.6504 45.1896 37.1462 45.1896 36.5241C45.1896 35.9021 44.6924 35.3979 44.0791 35.3979C43.4658 35.3979 42.9686 35.9021 42.9686 36.5241Z" fill="black"/>
<path d="M56.2944 34.1267H48.5591C48.1935 34.1267 47.8428 34.272 47.5843 34.5306C47.3258 34.7893 47.1805 35.14 47.1805 35.5058V37.1147C47.2006 38.0158 47.5725 38.8731 48.2166 39.5032C48.8608 40.1333 49.726 40.486 50.627 40.4858H54.3031C54.7457 40.4858 55.1839 40.3986 55.5927 40.2292C56.0016 40.0598 56.373 39.8115 56.686 39.4984C56.9989 39.1854 57.2471 38.8138 57.4165 38.4048C57.5858 37.9958 57.673 37.5574 57.673 37.1147V35.5058C57.673 35.14 57.5277 34.7893 57.2692 34.5306C57.0107 34.272 56.66 34.1267 56.2944 34.1267Z" fill="#B8D0FF"/>
<path d="M54.2267 40.4854H52.1588C51.2448 40.4854 50.3682 40.1221 49.7219 39.4755C49.0755 38.829 48.7124 37.952 48.7124 37.0376V35.4287C48.7222 35.2475 48.7676 35.07 48.8461 34.9064C48.9246 34.7428 49.0346 34.5963 49.1697 34.4753C49.3049 34.3543 49.4627 34.2612 49.6339 34.2013C49.8051 34.1414 49.9865 34.1159 50.1676 34.1262H56.2945C56.6602 34.1262 57.0108 34.2715 57.2693 34.5302C57.5279 34.7888 57.6731 35.1396 57.6731 35.5053V37.1143C57.6531 38.0153 57.2812 38.8727 56.637 39.5028C55.9928 40.1329 55.1276 40.4856 54.2267 40.4854Z" fill="#CBDAF7"/>
<path d="M53.1548 37.9573H51.623C51.4808 37.9573 51.3445 38.0138 51.2439 38.1144C51.1434 38.2149 51.0869 38.3514 51.0869 38.4936C51.0869 38.6358 51.1434 38.7722 51.2439 38.8728C51.3445 38.9734 51.4808 39.0299 51.623 39.0299H53.1548C53.2969 39.0299 53.4333 38.9734 53.5339 38.8728C53.6344 38.7722 53.6909 38.6358 53.6909 38.4936C53.6909 38.3514 53.6344 38.2149 53.5339 38.1144C53.4333 38.0138 53.2969 37.9573 53.1548 37.9573Z" fill="#9CB8FF"/>
<path d="M55.8353 37.9573H55.2226C55.0805 37.9573 54.9441 38.0138 54.8435 38.1144C54.743 38.2149 54.6865 38.3514 54.6865 38.4936C54.6865 38.6358 54.743 38.7722 54.8435 38.8728C54.9441 38.9734 55.0805 39.0299 55.2226 39.0299H55.8353C55.9775 39.0299 56.1139 38.9734 56.2144 38.8728C56.315 38.7722 56.3715 38.6358 56.3715 38.4936C56.3715 38.3514 56.315 38.2149 56.2144 38.1144C56.1139 38.0138 55.9775 37.9573 55.8353 37.9573Z" fill="#9CB8FF"/>
<path d="M52.5415 41.8643H53.4605C53.5621 41.8643 53.6595 41.8239 53.7313 41.7521C53.8031 41.6803 53.8435 41.5828 53.8435 41.4812C53.8435 41.3796 53.8031 41.2822 53.7313 41.2103C53.6595 41.1385 53.5621 41.0981 53.4605 41.0981H52.5415C52.4399 41.0981 52.3425 41.1385 52.2707 41.2103C52.1989 41.2822 52.1586 41.3796 52.1586 41.4812C52.1586 41.5828 52.1989 41.6803 52.2707 41.7521C52.3425 41.8239 52.4399 41.8643 52.5415 41.8643Z" fill="#80A7FF"/>
<path opacity="0.5" d="M56.9061 32.0576C57.8553 33.6666 58.3367 35.5088 58.2962 37.3768C58.2556 39.2447 57.6946 41.0642 56.6763 42.6305L54.6851 43.7797L41.8184 43.2434L38.6783 39.0296L41.8184 30.6785H52.847L56.9061 32.0576Z" fill="#4871E5"/>
<path d="M46.6436 27.4604C39.138 27.4604 35.0023 32.5171 35.0023 36.7309C35.0023 40.9448 39.9039 41.3279 41.0527 38.3399L43.5035 31.9042L54.2257 33.2832L56.9062 32.0574C55.9106 30.4485 52.2344 27.4604 46.6436 27.4604Z" fill="#EBEFF7"/>
<path d="M40.2867 39.0295L47.0263 42.6305H56.6763L55.7573 44.1628H40.0569L38.6783 41.0982L40.2867 39.0295Z" fill="#EBEFF7"/>
<path d="M38.6781 34.1261L36.6868 34.8157L35.7678 31.2147C35.7178 31.0118 35.7449 30.7975 35.844 30.6134C35.943 30.4293 36.107 30.2887 36.3039 30.2187C36.4095 30.1828 36.5211 30.1682 36.6324 30.1758C36.7436 30.1833 36.8523 30.2129 36.952 30.2628C37.0518 30.3127 37.1406 30.3819 37.2134 30.4664C37.2862 30.5509 37.3415 30.649 37.3761 30.7551L38.6781 34.1261Z" fill="#DAE2ED"/>
<path d="M36.0743 32.5175L36.687 34.8159L38.6783 34.1264L37.8358 31.9045L36.0743 32.5175Z" fill="#B7C2CE"/>
<path d="M24.2039 52.7439C18.9194 50.8285 16.2389 51.6713 13.7881 55.9618C22.0595 59.103 22.8254 55.7319 24.2039 52.7439Z" fill="#FF7F14"/>
<path d="M39.1465 48.163L31.3079 49.959L31.9901 52.9388L39.8288 51.1428L39.1465 48.163Z" fill="#B7C2CE"/>
<path d="M33.3176 53.3567L23.5144 56.7278C23.3079 56.7807 23.0889 56.7533 22.9017 56.6511C22.0762 55.8823 21.5361 54.8558 21.37 53.7397C21.0069 52.6352 21.0614 51.4357 21.5231 50.3686C21.5745 50.2886 21.6418 50.2201 21.7209 50.1674C21.8 50.1146 21.8891 50.0788 21.9827 50.0622L32.3219 48.8363C32.4751 48.7597 32.7049 48.913 32.7814 49.1428L33.6239 52.897C33.6295 52.9965 33.6027 53.0951 33.5475 53.178C33.4922 53.2609 33.4115 53.3236 33.3176 53.3567Z" fill="#C5CEDD"/>
<path d="M30.1778 51.135C30.4317 51.135 30.6375 50.9292 30.6375 50.6753C30.6375 50.4214 30.4317 50.2156 30.1778 50.2156C29.924 50.2156 29.7181 50.4214 29.7181 50.6753C29.7181 50.9292 29.924 51.135 30.1778 51.135Z" fill="#B7C2CE"/>
<path d="M27.88 51.4414C28.1339 51.4414 28.3397 51.2355 28.3397 50.9817C28.3397 50.7278 28.1339 50.522 27.88 50.522C27.6261 50.522 27.4203 50.7278 27.4203 50.9817C27.4203 51.2355 27.6261 51.4414 27.88 51.4414Z" fill="#B7C2CE"/>
<path d="M26.271 58.4133C18.7655 58.4133 15.7786 60.7118 14.6298 67.1475C26.4242 67.3774 25.8881 62.857 26.271 58.4133Z" fill="#FF7F14"/>
<path d="M37.5097 48.6527L31.2173 53.5132L33.0813 55.9282L39.3737 51.0677L37.5097 48.6527Z" fill="#D0D9EA"/>
<path d="M34.8487 55.3486L27.3432 62.5505C27.1901 62.6672 26.9986 62.7219 26.807 62.7038C26.2709 62.6271 25.2753 62.1674 24.1265 60.7117C22.9777 59.256 22.8245 58.1834 22.9011 57.6471C22.8893 57.5563 22.9048 57.4641 22.9458 57.3822C22.9867 57.3002 23.0512 57.2324 23.1309 57.1874L32.015 51.6711C32.0962 51.6101 32.1983 51.584 32.2989 51.5983C32.3994 51.6127 32.4901 51.6664 32.5511 51.7477L34.9253 54.8123C34.9709 54.8983 34.9881 54.9966 34.9743 55.093C34.9606 55.1894 34.9166 55.2789 34.8487 55.3486Z" fill="#EBEFF7"/>
<path d="M30.79 54.6591C31.0439 54.6591 31.2497 54.4533 31.2497 54.1994C31.2497 53.9456 31.0439 53.7397 30.79 53.7397C30.5361 53.7397 30.3303 53.9456 30.3303 54.1994C30.3303 54.4533 30.5361 54.6591 30.79 54.6591Z" fill="#B7C2CE"/>
<path d="M29.0284 56.1914C29.2823 56.1914 29.4881 55.9855 29.4881 55.7317C29.4881 55.4778 29.2823 55.272 29.0284 55.272C28.7745 55.272 28.5687 55.4778 28.5687 55.7317C28.5687 55.9855 28.7745 56.1914 29.0284 56.1914Z" fill="#B7C2CE"/>
<path d="M41.6171 37.9325C41.9007 35.6226 40.5311 33.5537 38.5579 33.3114C36.5847 33.0691 34.7552 34.7452 34.4715 37.0551C34.1879 39.365 35.5576 41.434 37.5308 41.6762C39.504 41.9185 41.3335 40.2424 41.6171 37.9325Z" fill="#DAE2ED"/>
<path d="M40.1136 37.7987C40.3147 36.1608 39.3545 34.695 37.9691 34.5248C36.5837 34.3547 35.2976 35.5445 35.0966 37.1824C34.8955 38.8204 35.8557 40.2861 37.2411 40.4563C38.6265 40.6265 39.9126 39.4366 40.1136 37.7987Z" fill="#B7C2CE"/>
<path d="M39.3438 37.7142C39.4882 36.5382 38.7884 35.4846 37.7808 35.3609C36.7732 35.2371 35.8394 36.0901 35.6951 37.266C35.5507 38.442 36.2505 39.4956 37.2581 39.6194C38.2657 39.7431 39.1995 38.8901 39.3438 37.7142Z" fill="#FF903E"/>
<path d="M38.2112 36.2888L37.9984 36.202C37.9201 36.17 37.8307 36.2076 37.7987 36.2859L37.0173 38.2013C36.9854 38.2797 37.023 38.3691 37.1013 38.4011L37.3141 38.488C37.3925 38.52 37.4819 38.4824 37.5138 38.404L38.2952 36.4886C38.3272 36.4103 38.2896 36.3208 38.2112 36.2888Z" fill="#FF7F14"/>
<path d="M37.2994 43.7795H40.899V51.4411C40.899 51.7053 40.7941 51.9586 40.6074 52.1454C40.4207 52.3322 40.1675 52.4371 39.9034 52.4371H37.2994V43.7795Z" fill="black"/>
<path d="M28.722 34.2028L8.65613 26.8477L12.026 33.4366C12.3381 34.0832 12.7769 34.6606 13.3163 35.1343C13.8557 35.6081 14.4847 35.9687 15.166 36.1948L31.0962 42.0176L31.6323 40.4852L28.722 34.2028Z" fill="#DAE2ED"/>
<path d="M33.3176 33.5132L6.66531 23.783C6.51213 23.7064 6.35894 23.9363 6.43553 24.0895L7.43118 26.1581C7.54774 26.3717 7.73843 26.5353 7.96727 26.6178L8.65655 26.8477L28.7224 34.2028L31.6327 40.4853L31.0966 42.0176L30.7137 43.1668L37.4533 45.6185L38.3724 42.937L34.4664 34.5092C34.357 34.2709 34.1979 34.0586 33.9998 33.8869C33.8016 33.7151 33.569 33.5877 33.3176 33.5132Z" fill="#ECEFF6"/>
<path d="M31.6323 40.4852L28.722 34.2028L8.65613 26.8477L9.34543 28.2267L28.0327 34.9689L30.7132 40.8683L30.4069 41.7877L31.0962 42.0176L31.6323 40.4852Z" fill="#C5CEDD"/>
<path d="M8.87495 25.3323L8.80295 25.3061C8.60415 25.2337 8.38435 25.3362 8.31202 25.535L8.29892 25.571C8.22658 25.7699 8.3291 25.9897 8.5279 26.0621L8.5999 26.0883C8.7987 26.1607 9.0185 26.0582 9.09083 25.8594L9.10393 25.8234C9.17627 25.6246 9.07375 25.4047 8.87495 25.3323Z" fill="#DAE2ED"/>
<path d="M10.5092 25.9273L10.4372 25.9011C10.2384 25.8287 10.0186 25.9312 9.94629 26.13L9.9332 26.166C9.86086 26.3648 9.96338 26.5847 10.1622 26.6571L10.2342 26.6833C10.433 26.7557 10.6528 26.6532 10.7251 26.4543L10.7382 26.4184C10.8105 26.2195 10.708 25.9997 10.5092 25.9273Z" fill="#DAE2ED"/>
<path d="M33.3846 34.2547L33.3126 34.2285C33.1138 34.1561 32.894 34.2586 32.8217 34.4574L32.8086 34.4934C32.7362 34.6922 32.8387 34.9121 33.0375 34.9845L33.1095 35.0107C33.3083 35.0831 33.5281 34.9806 33.6005 34.7817L33.6136 34.7457C33.6859 34.5469 33.5834 34.3271 33.3846 34.2547Z" fill="#DAE2ED"/>
<path d="M39.4435 42.1707H35.2312C34.8928 42.1707 34.6185 42.4451 34.6185 42.7836V45.0897C34.6185 45.4282 34.8928 45.7026 35.2312 45.7026H39.4435C39.7819 45.7026 40.0562 45.4282 40.0562 45.0897V42.7836C40.0562 42.4451 39.7819 42.1707 39.4435 42.1707Z" fill="#FF5C5C"/>
<path d="M40.899 46.7675H37.6823C37.2558 46.7675 36.8467 46.598 36.545 46.2963C36.2434 45.9946 36.074 45.5853 36.074 45.1586V42.6303C36.074 42.2036 36.2434 41.7943 36.545 41.4926C36.8467 41.1909 37.2558 41.0214 37.6823 41.0214H40.899C40.9824 41.0083 41.0678 41.0151 41.1481 41.0413C41.2284 41.0674 41.3014 41.1122 41.3611 41.172C41.4208 41.2317 41.4656 41.3047 41.4918 41.3851C41.5179 41.4654 41.5248 41.5508 41.5117 41.6343V46.1546C41.5248 46.2381 41.5179 46.3235 41.4918 46.4038C41.4656 46.4842 41.4208 46.5572 41.3611 46.6169C41.3014 46.6767 41.2284 46.7215 41.1481 46.7476C41.0678 46.7738 40.9824 46.7806 40.899 46.7675Z" fill="#D0D9EA"/>
<path d="M50.2427 26.8477L50.0129 28.0735C51.0566 28.8641 51.9623 29.822 52.6935 30.9083L53.7657 28.38C52.6924 27.6627 51.4992 27.1437 50.2427 26.8477Z" fill="#FF7F14"/>
<path d="M52.6935 30.9084L53.7657 28.3801L54.7613 30.9084H52.6935Z" fill="#FF903E"/>
<path d="M153.099 35.6581C152.563 37.8799 150.495 40.3316 149.806 40.0252C149.117 39.7187 148.81 37.7267 148.963 35.7347C149.117 33.7427 150.112 32.0571 151.108 32.0571C152.103 32.0571 153.712 33.1297 153.099 35.6581Z" fill="#FFE75C"/>
<path d="M147.049 38.5693C148.274 39.7952 149.959 40.2549 150.189 39.8718C150.419 39.4887 150.342 38.4927 149.959 37.2669C149.576 36.041 148.044 33.8192 147.049 34.049C146.053 34.2789 144.751 36.1942 147.049 38.5693Z" fill="#FFE75C"/>
<path d="M134.336 32.8234C135.101 34.2791 135.791 34.8154 136.327 34.5856C136.968 33.9785 137.375 33.1646 137.476 32.2871C137.782 30.1419 136.633 27.0006 134.948 27.5369C133.263 28.0732 133.263 30.8314 134.336 32.8234Z" fill="#FFE75C"/>
<path d="M103.854 14.9717C106.151 16.0443 107.606 16.1209 107.989 15.3548C108.372 14.5886 108.143 13.0563 107.3 11.3708C105.692 8.30614 101.403 5.39475 99.718 7.69322C98.0331 9.99169 100.637 13.4394 103.854 14.9717Z" fill="#FFE75C"/>
<path d="M107.376 9.60874C108.908 11.9072 110.287 12.75 111.052 12.1371C111.818 11.5241 112.508 10.0684 112.584 8.07643C112.661 6.08442 111.589 2.33025 109.98 0.951172H106.61C104.772 2.71333 105.385 6.77396 107.376 9.60874Z" fill="#FFE75C"/>
<path d="M114.193 6.92719C114.193 9.68535 114.729 11.1411 115.725 11.0644C116.72 10.9878 118.099 10.2217 119.324 8.61274C120.55 7.00381 121.852 3.01979 121.162 0.951172H116.031C114.798 2.69658 114.154 4.79021 114.193 6.92719Z" fill="#FFE75C"/>
<path d="M122.082 8.99566C120.32 11.1409 119.861 12.6732 120.626 13.2861C121.392 13.8991 123.001 14.0523 124.992 13.5926C128.668 12.6732 132.88 8.84243 130.889 6.46734C128.898 4.09226 124.532 5.93103 122.082 8.99566Z" fill="#FFE75C"/>
<path d="M136.097 34.3557C135.254 34.2024 134.948 33.9726 134.948 33.7427C135.095 33.2567 135.39 32.8283 135.791 32.5169C137.169 31.291 141.688 29.299 141.688 31.4443C141.688 33.5895 137.858 34.5855 136.097 34.3557Z" fill="#FFE75C"/>
<path d="M146.436 37.037L152.027 37.2669C153.271 37.3288 154.478 37.7058 155.537 38.3625C156.595 39.0191 157.469 39.9339 158.077 41.0211L160.911 46.0011C161.55 47.1075 161.886 48.3627 161.886 49.6403C161.886 50.918 161.55 52.1731 160.911 53.2796L158.767 56.9571C158.125 58.0534 157.208 58.9626 156.106 59.5943C155.004 60.226 153.756 60.5583 152.486 60.558H147.355C146.18 60.5561 145.022 60.2693 143.982 59.7222C142.942 59.1752 142.049 58.3841 141.381 57.4168L138.011 52.6666C137.254 51.5795 136.805 50.3079 136.71 48.9863C136.616 47.6647 136.88 46.3421 137.475 45.1583L139.62 41.0211C140.252 39.7712 141.232 38.7305 142.441 38.0238C143.65 37.3172 145.037 36.9745 146.436 37.037Z" fill="#66BCFF"/>
<path d="M158.077 41.0213C157.644 40.2582 157.073 39.5826 156.392 39.0293C155.459 39.8157 154.738 40.8243 154.296 41.9623C153.855 43.1003 153.706 44.3312 153.865 45.5416L154.631 51.3644C154.811 52.5234 155.258 53.6248 155.935 54.582C156.613 55.5391 157.504 56.326 158.537 56.8807H158.766L160.911 53.2032C161.549 52.0967 161.886 50.8416 161.886 49.564C161.886 48.2863 161.549 47.0312 160.911 45.9247L158.077 41.0213Z" fill="#3892EB"/>
<path d="M144.368 56.0376L145.9 50.6745C146.267 49.3047 146.27 47.8625 145.907 46.4914C145.544 45.1204 144.829 43.8683 143.832 42.8597L140.539 39.6418C140.147 40.0386 139.835 40.5068 139.62 41.0209L137.475 45.1582C136.88 46.342 136.616 47.6645 136.71 48.9861C136.805 50.3078 137.254 51.5793 138.011 52.6665L141.381 57.4167C141.785 57.9992 142.276 58.5161 142.836 58.949C143.538 58.092 144.059 57.1016 144.368 56.0376Z" fill="#3892EB"/>
<path d="M122.005 55.0418L127.443 57.6468C128.688 58.2597 130.074 58.5328 131.459 58.4387C132.844 58.3445 134.18 57.8863 135.331 57.1105L140.692 53.5095C141.87 52.7155 142.816 51.6237 143.434 50.3453C144.053 49.0669 144.323 47.6474 144.215 46.231L143.756 40.7147C143.648 39.2861 143.157 37.9131 142.335 36.74C141.513 35.567 140.39 34.6374 139.084 34.0491L133.799 31.6741C132.586 31.1286 131.255 30.8987 129.93 31.0059C128.604 31.113 127.327 31.5537 126.217 32.287L121.009 35.6581C119.87 36.4039 118.941 37.4293 118.311 38.6365C117.681 39.8436 117.371 41.1922 117.41 42.5535L117.563 48.1464C117.617 49.5887 118.058 50.9899 118.839 52.2031C119.621 53.4163 120.714 54.3968 122.005 55.0418Z" fill="#66BCFF"/>
<path d="M131.119 30.9845C129.387 30.8784 127.668 31.3353 126.217 32.287L121.009 35.6581C119.87 36.4039 118.941 37.4294 118.311 38.6365C117.681 39.8436 117.371 41.1922 117.41 42.5535V45.848C127.749 45.6181 128.515 41.9406 131.119 30.9845Z" fill="#3892EB"/>
<path d="M112.202 39.1824L120.014 39.4123C121.726 39.4536 123.418 39.0347 124.913 38.1992C126.408 37.3637 127.652 36.1422 128.515 34.6621L131.655 29.1458C132.509 27.6406 132.932 25.9292 132.878 24.1993C132.824 22.4694 132.295 20.7878 131.348 19.339L127.366 13.2863C126.524 11.9769 125.368 10.8986 124.004 10.1494C122.64 9.4001 121.11 9.0036 119.554 8.99585H111.972C110.338 8.99858 108.732 9.42313 107.31 10.2284C105.887 11.0337 104.697 12.1926 103.854 13.5928L100.79 18.726C99.8923 20.1729 99.4102 21.8392 99.3967 23.5421C99.3831 25.245 99.8388 26.9187 100.714 28.3796L104.39 34.5089C105.191 35.8847 106.328 37.0349 107.694 37.8522C109.06 38.6694 110.611 39.1271 112.202 39.1824Z" fill="#66BCFF"/>
<path d="M106.611 18.8792C107.6 19.9891 108.703 20.9907 109.904 21.8672C110.216 22.076 110.59 22.1743 110.964 22.1465C111.339 22.1187 111.694 21.9665 111.972 21.714C114.001 19.7372 116.36 18.1297 118.941 16.9638C119.401 16.8106 120.626 16.3509 121.162 16.9638C121.36 17.1755 121.494 17.4391 121.548 17.7239C121.603 18.0087 121.575 18.303 121.469 18.5727C119.784 23.2463 117.946 27.9965 113.197 28.5328C108.449 29.0691 105.232 25.3149 103.7 20.4881C103.556 20.0688 103.478 19.6292 103.471 19.1857C103.462 18.9156 103.532 18.649 103.674 18.4187C103.815 18.1885 104.021 18.0048 104.265 17.8906C104.51 17.7763 104.783 17.7365 105.05 17.7761C105.317 17.8156 105.567 17.9328 105.768 18.113L106.611 18.8792Z" fill="white"/>
<path d="M111.512 22.0205L112.125 24.9319H109.98C110.057 24.3956 110.363 22.71 110.516 22.0205C110.839 22.1314 111.189 22.1314 111.512 22.0205Z" fill="#3892EB"/>
<path d="M105.768 18.1133L106.611 18.8795L104.619 22.8635C104.222 22.1102 103.913 21.3131 103.7 20.4884C103.556 20.0691 103.478 19.6295 103.471 19.1859C103.462 18.9159 103.532 18.6492 103.674 18.419C103.815 18.1888 104.021 18.0051 104.265 17.8909C104.51 17.7766 104.783 17.7368 105.05 17.7763C105.317 17.8159 105.567 17.9331 105.768 18.1133Z" fill="#3892EB"/>
<path d="M118.329 17.2703L118.941 16.9638C119.401 16.8106 120.626 16.3509 121.162 16.9638C121.36 17.1755 121.494 17.4391 121.548 17.7239C121.603 18.0087 121.575 18.303 121.469 18.5727C120.975 20.0643 120.386 21.5229 119.707 22.9398L118.329 17.2703Z" fill="#3892EB"/>
<path d="M114.499 19.4925L115.111 19.1094L117.026 26.7709L116.49 27.2306L114.499 19.4925Z" fill="#8CD9FF"/>
<path d="M108.449 20.718L106.305 25.5448L105.845 24.9319L107.913 20.2583L108.449 20.718Z" fill="#8CD9FF"/>
<path d="M120.32 16.6577C120.474 16.6449 120.629 16.6657 120.775 16.7186C120.92 16.7715 121.053 16.8552 121.163 16.9641C121.361 17.1758 121.494 17.4394 121.549 17.7242C121.603 18.009 121.575 18.3033 121.469 18.573C119.784 23.2466 117.946 27.9968 113.197 28.5331H112.278C108.066 28.5331 105.079 25.0088 103.701 20.4884C103.556 20.0691 103.478 19.6295 103.471 19.186C103.46 18.9985 103.488 18.8109 103.553 18.6347C103.618 18.4584 103.717 18.2972 103.847 18.1609C103.976 18.0246 104.131 17.9161 104.304 17.8421C104.476 17.768 104.662 17.73 104.849 17.7303C105.193 17.739 105.521 17.8756 105.769 18.1134L106.611 18.8795C107.6 19.9894 108.704 20.991 109.904 21.8675C110.213 22.0233 110.554 22.1021 110.9 22.0974C111.289 22.0864 111.664 21.9523 111.972 21.7143C114.001 19.7375 116.36 18.13 118.941 16.9641C119.374 16.7657 119.844 16.6613 120.32 16.6577ZM120.32 16.3512C119.814 16.3814 119.32 16.5116 118.865 16.7343C116.25 17.8809 113.863 19.4901 111.819 21.4844C111.704 21.6132 111.562 21.7144 111.403 21.7808C111.244 21.8471 111.072 21.8767 110.9 21.8675C110.603 21.8743 110.31 21.7944 110.057 21.6377C108.844 20.8067 107.738 19.8288 106.764 18.7263C106.503 18.4265 106.221 18.1449 105.922 17.8835C105.614 17.6455 105.238 17.5114 104.849 17.5004C104.629 17.4913 104.41 17.5353 104.21 17.6286C104.01 17.722 103.835 17.8619 103.701 18.0367C103.538 18.182 103.407 18.3587 103.315 18.5563C103.222 18.7538 103.171 18.9681 103.165 19.186C103.23 19.6531 103.332 20.1142 103.471 20.5651C104.107 22.7333 105.234 24.7257 106.764 26.3878C107.469 27.1488 108.322 27.7584 109.27 28.1799C110.218 28.6013 111.241 28.8258 112.278 28.8395H113.197C117.946 28.3032 119.937 23.7829 121.699 18.7263C121.847 18.4005 121.897 18.0384 121.843 17.6845C121.788 17.3307 121.632 17.0004 121.392 16.7343C121.097 16.4735 120.713 16.3363 120.32 16.3512Z" fill="#66BCFF"/>
<path d="M108.678 16.9637H108.755L113.503 16.8104C113.584 16.8104 113.662 16.7781 113.72 16.7207C113.777 16.6632 113.809 16.5852 113.809 16.504C113.809 16.4227 113.777 16.3447 113.72 16.2873C113.662 16.2298 113.584 16.1975 113.503 16.1975L108.678 16.3507C108.597 16.3507 108.519 16.383 108.461 16.4405C108.404 16.498 108.372 16.5759 108.372 16.6572C108.448 16.8104 108.525 16.9637 108.678 16.9637Z" fill="#3F99F2"/>
<path d="M107.224 14.6654C107.301 15.5848 107.607 15.6614 108.449 15.355C109.741 14.9603 111.113 14.9075 112.432 15.2017C114.117 15.5848 115.112 15.8147 114.959 14.6654C114.806 13.5162 112.968 11.9839 110.824 11.9839C108.679 11.9839 107.071 13.2097 107.224 14.6654Z" fill="white"/>
<path d="M107.224 14.6654C107.301 15.5848 107.607 15.6614 108.449 15.355C109.741 14.9603 111.113 14.9075 112.432 15.2017C114.117 15.5848 115.112 15.8147 114.959 14.6654C114.806 13.5162 112.968 11.9839 110.824 11.9839C108.679 11.9839 107.071 13.2097 107.224 14.6654Z" fill="white"/>
<path d="M109.98 34.9686C110.062 34.9686 110.14 34.9363 110.197 34.8789C110.255 34.8214 110.287 34.7434 110.287 34.6622C110.243 33.7576 110.347 32.8519 110.593 31.9806C110.67 31.8274 110.517 31.6741 110.364 31.5975C110.21 31.5209 110.057 31.6741 109.98 31.8274C109.731 32.7766 109.628 33.7584 109.674 34.7388C109.674 34.892 109.827 34.9686 109.98 34.9686Z" fill="#3F99F2"/>
<path d="M107.683 32.8999L107.99 32.7467L108.373 31.5208C108.4 31.4494 108.399 31.3705 108.37 31.2997C108.342 31.2288 108.288 31.1711 108.22 31.1378C108.14 31.1312 108.06 31.1498 107.991 31.1911C107.922 31.2323 107.868 31.294 107.836 31.3676L107.377 32.5168C107.37 32.5967 107.389 32.6766 107.43 32.7454C107.471 32.8141 107.533 32.8681 107.607 32.8999H107.683Z" fill="#3F99F2"/>
<path d="M113.197 34.049C113.279 34.049 113.357 34.0168 113.414 33.9593C113.472 33.9018 113.504 33.8239 113.504 33.7426C113.448 33.0166 113.319 32.2979 113.121 31.5974C113.089 31.5238 113.035 31.462 112.966 31.4208C112.897 31.3796 112.818 31.3609 112.738 31.3675C112.584 31.4441 112.431 31.5973 112.508 31.7506C112.725 32.3942 112.854 33.0643 112.891 33.7426C112.891 33.8239 112.923 33.9018 112.981 33.9593C113.038 34.0168 113.116 34.049 113.197 34.049Z" fill="#3F99F2"/>
<path d="M110.44 12.2139C110.934 12.2531 111.394 12.4826 111.723 12.8542C112.051 13.2257 112.223 13.7103 112.202 14.2059C112.202 14.5187 112.15 14.8294 112.048 15.1253C110.976 14.9849 109.886 15.0368 108.832 15.2785C108.675 14.9429 108.597 14.5762 108.602 14.2059C108.592 13.9543 108.631 13.7032 108.718 13.4668C108.805 13.2305 108.938 13.0136 109.108 12.8286C109.279 12.6436 109.484 12.4941 109.713 12.3886C109.942 12.2831 110.189 12.2237 110.44 12.2139Z" fill="black"/>
<path d="M165.119 28.4743C165.773 25.9776 165.309 23.6926 164.082 23.3705C162.854 23.0483 161.329 24.8111 160.674 27.3078C160.019 29.8044 160.483 32.0895 161.711 32.4116C162.938 32.7337 164.464 30.9709 165.119 28.4743Z" fill="#FFE75C"/>
<path d="M157.312 27.3071C157.388 28.8394 162.52 33.3597 165.2 31.2145C166.655 29.9886 162.979 27.6902 160.911 26.924C160.135 26.5934 159.304 26.4114 158.46 26.3877C157.771 26.4643 157.235 26.6942 157.312 27.3071Z" fill="#FFE75C"/>
<path d="M178.832 47.8402V33.13L178.679 32.9767L173.395 27.9967C172.499 27.1557 171.39 26.5756 170.189 26.319C168.988 26.0624 167.739 26.1392 166.578 26.541L159.609 28.9927C158.524 29.3701 157.553 30.0187 156.789 30.8769C156.025 31.7351 155.493 32.7744 155.243 33.8961L153.558 41.9408C153.318 43.0708 153.375 44.244 153.724 45.3454C154.073 46.4468 154.702 47.4385 155.55 48.2233L160.911 53.2033C161.803 54.0234 162.898 54.5906 164.083 54.8465C165.268 55.1023 166.499 55.0376 167.651 54.659L174.697 52.2073C175.671 51.8392 176.549 51.2551 177.266 50.4987C177.982 49.7423 178.517 48.8334 178.832 47.8402Z" fill="#66BCFF"/>
<path d="M178.832 47.8399V35.3516H177.607C176.455 35.3518 175.321 35.6478 174.316 36.2111C173.31 36.7745 172.466 37.5865 171.863 38.5694L167.574 45.4648C166.975 46.4515 166.64 47.5756 166.599 48.7293C166.559 49.883 166.816 51.0277 167.344 52.0538L168.493 54.3522L174.697 52.207C175.671 51.839 176.55 51.2548 177.266 50.4984C177.982 49.742 178.518 48.8331 178.832 47.8399Z" fill="#3892EB"/>
<path d="M178.833 39.7954C177.066 40.3709 175.569 41.569 174.62 43.1665L171.557 48.2231C170.884 49.3521 170.51 50.6339 170.47 51.9475C170.43 53.2612 170.725 54.5634 171.327 55.7315L173.854 60.405C174.354 61.3766 175.057 62.2287 175.917 62.9031C176.776 63.5774 177.77 64.0582 178.833 64.3124V39.7954Z" fill="#66BCFF"/>
<path d="M176.151 63.3166C175.998 64.236 175.845 64.6191 175.539 64.5424C175.026 64.4535 174.563 64.1812 174.237 63.7763C172.858 62.3972 170.637 57.8003 172.858 57.647C175.079 57.4938 176.305 61.5544 176.151 63.3166Z" fill="#FFE75C"/>
<path d="M178.833 63.2395V59.1023C177.355 59.2728 175.992 59.9819 175.003 61.0943C174.391 61.8605 174.237 62.3968 174.391 62.7032C174.528 62.9184 174.708 63.1037 174.918 63.2485C175.129 63.3932 175.366 63.4944 175.616 63.546C176.694 63.7723 177.816 63.6654 178.833 63.2395Z" fill="#FFE75C"/>
<path d="M178.45 61.7073L173.472 61.171C172.342 61.0489 171.199 61.1932 170.135 61.5923C169.071 61.9915 168.116 62.6344 167.345 63.4695L163.975 67.5301C163.198 68.4176 162.68 69.5016 162.478 70.6636C162.275 71.8256 162.396 73.021 162.826 74.1191L164.664 78.6394C165.138 79.8692 165.951 80.9395 167.008 81.726C168.066 82.5125 169.324 82.9831 170.638 83.0831L175.999 83.6194C176.949 83.7362 177.914 83.658 178.833 83.3896V61.784L178.45 61.7073Z" fill="#66BCFF"/>
<path d="M172.859 76.8771C172.31 75.8084 171.505 74.8923 170.516 74.2105C169.527 73.5287 168.385 73.1024 167.191 72.9697L162.443 72.4333C162.489 73.0106 162.618 73.5783 162.826 74.1189L164.664 78.6392C165.138 79.8691 165.951 80.9393 167.008 81.7258C168.065 82.5123 169.324 82.9829 170.638 83.0829L175.539 83.6192C175.528 82.741 175.319 81.8767 174.927 81.0909L172.859 76.8771Z" fill="#3892EB"/>
<path d="M153.942 72.6636C154.861 73.2765 155.397 73.4298 155.703 73.1999C155.936 73.0454 156.131 72.8419 156.277 72.6036C156.423 72.3654 156.514 72.0982 156.546 71.8208C156.852 70.0587 155.32 65.3851 152.64 66.611C149.959 67.8368 152.104 71.4378 153.942 72.6636Z" fill="#FFE75C"/>
<path d="M156.622 72.8932C155.78 73.5828 155.244 73.6594 155.014 73.3529C154.675 72.7754 154.54 72.1009 154.631 71.4375C154.708 69.0624 157.082 62.9332 159.073 64.9252C161.064 66.9172 158.46 71.4375 156.622 72.8932Z" fill="#FFE75C"/>
<path d="M166.808 73.8893C166.554 72.8792 166.026 71.9586 165.283 71.2288C164.54 70.4989 163.61 69.988 162.596 69.7521L158.46 68.6795C157.504 68.4495 156.506 68.4622 155.556 68.7164C154.607 68.9706 153.736 69.4583 153.022 70.1352L149.729 73.2764C148.994 73.9703 148.451 74.8439 148.156 75.8112C147.86 76.7785 147.822 77.8061 148.044 78.7927L148.887 82.7768C149.252 84.2087 150.123 85.4603 151.337 86.3011H163.515L166.349 83.5429C167.09 82.8231 167.624 81.9165 167.893 80.9187C168.163 79.9209 168.158 78.8688 167.88 77.8734L166.808 73.8893Z" fill="#66BCFF"/>
<path d="M152.027 78.6396L151.414 75.1153C151.281 74.2402 150.91 73.4186 150.342 72.7402L149.729 73.2765C148.994 73.9704 148.451 74.844 148.156 75.8113C147.86 76.7786 147.822 77.8062 148.044 78.7929L148.887 82.7769C149.032 83.2489 149.211 83.7098 149.423 84.156L150.265 83.4664C150.951 82.8828 151.474 82.1313 151.782 81.2854C152.091 80.4394 152.175 79.5279 152.027 78.6396Z" fill="#3892EB"/>
<path d="M143.22 70.0585C143.143 70.8246 143.296 71.2077 143.526 71.3609C143.722 71.4437 143.935 71.4799 144.148 71.4666C144.36 71.4533 144.567 71.3909 144.751 71.2843C145.977 70.8246 148.275 68.0665 146.436 66.8406C144.598 65.6148 143.22 68.4495 143.22 70.0585Z" fill="#FFE75C"/>
<path d="M143.373 71.2076C144.062 71.5907 144.445 71.744 144.675 71.5907C144.974 71.3275 145.187 70.9806 145.287 70.5947C145.517 69.2923 144.368 65.8445 142.377 66.7639C140.386 67.6833 142.071 70.2883 143.373 71.2076Z" fill="#FFE75C"/>
<path d="M144.445 81.1677L147.279 80.8613C147.942 80.7665 148.57 80.5063 149.105 80.1046C149.641 79.7028 150.066 79.1726 150.343 78.5628L151.568 75.6514C151.837 75.0293 151.936 74.3469 151.856 73.6739C151.775 73.0009 151.517 72.3614 151.108 71.8206L149.424 69.752C149.019 69.1975 148.468 68.7673 147.832 68.51C147.195 68.2527 146.5 68.1787 145.824 68.2963L143.067 68.6794C142.444 68.8014 141.857 69.0653 141.353 69.4506C140.848 69.8359 140.439 70.3323 140.156 70.9012L138.931 73.5828C138.666 74.1884 138.561 74.8524 138.628 75.5103C138.696 76.1682 138.932 76.7975 139.314 77.337L140.846 79.5588C141.249 80.1223 141.795 80.5682 142.428 80.8509C143.06 81.1337 143.757 81.243 144.445 81.1677Z" fill="#66BCFF"/>
<path d="M7.81401 77.2603C8.59673 77.3145 9.35254 77.5682 10.0095 77.9974C10.6664 78.4266 11.2025 79.0168 11.5668 79.712C11.2025 80.4072 10.6664 80.9974 10.0095 81.4266C9.35254 81.8558 8.59673 82.1095 7.81401 82.1637C6.43544 82.1637 5.13344 81.3209 4.06122 79.712C5.13344 78.1031 6.43544 77.2603 7.81401 77.2603ZM7.81401 76.4941C6.20568 76.4941 4.52074 77.4901 3.29535 79.5588C3.25184 79.6131 3.22815 79.6807 3.22815 79.7503C3.22815 79.8199 3.25184 79.8875 3.29535 79.9418C4.52074 81.9339 6.20568 82.9299 7.81401 82.9299C9.42234 82.9299 11.1073 81.9339 12.4092 79.9418V79.5588C11.1073 77.4901 9.49892 76.4941 7.81401 76.4941Z" fill="white"/>
<path d="M7.81398 78.563C8.04119 78.563 8.26329 78.6304 8.45221 78.7567C8.64113 78.883 8.78837 79.0625 8.87532 79.2725C8.96227 79.4825 8.98502 79.7135 8.9407 79.9365C8.89637 80.1594 8.78695 80.3642 8.62629 80.5249C8.46563 80.6856 8.26094 80.7951 8.0381 80.8394C7.81525 80.8838 7.58426 80.861 7.37434 80.774C7.16442 80.687 6.985 80.5397 6.85876 80.3507C6.73253 80.1618 6.66517 79.9396 6.66517 79.7123C6.66517 79.4075 6.7862 79.1152 7.00164 78.8996C7.21708 78.6841 7.50929 78.563 7.81398 78.563ZM7.81398 77.7969C7.43529 77.7969 7.06509 77.9092 6.75022 78.1197C6.43536 78.3301 6.18994 78.6293 6.04503 78.9793C5.90011 79.3293 5.86221 79.7144 5.93609 80.0859C6.00997 80.4575 6.1923 80.7988 6.46008 81.0667C6.72785 81.3345 7.06903 81.517 7.44044 81.5909C7.81185 81.6648 8.19682 81.6268 8.54668 81.4819C8.89654 81.3369 9.19559 81.0914 9.40597 80.7764C9.61636 80.4614 9.72866 80.0911 9.72866 79.7123C9.72866 79.2043 9.52693 78.7171 9.16785 78.3579C8.80878 77.9987 8.32178 77.7969 7.81398 77.7969Z" fill="white"/>
<path d="M20.1445 79.7121C20.1279 80.5078 20.3698 81.2875 20.8338 81.934C20.5105 82.3102 20.1114 82.6138 19.6627 82.825C19.214 83.0363 18.7257 83.1504 18.2299 83.1598C17.7395 83.2336 17.239 83.2006 16.7625 83.0631C16.286 82.9256 15.8448 82.6869 15.469 82.3633C15.0932 82.0396 14.7916 81.6386 14.5849 81.1877C14.3781 80.7368 14.2711 80.2465 14.2711 79.7504C14.2711 79.2544 14.3781 78.7641 14.5849 78.3132C14.7916 77.8623 15.0932 77.4613 15.469 77.1376C15.8448 76.814 16.286 76.5752 16.7625 76.4378C17.239 76.3003 17.7395 76.2673 18.2299 76.341C19.215 76.3672 20.1504 76.78 20.8338 77.4903C20.3882 78.1458 20.1482 78.9194 20.1445 79.7121Z" fill="#57F287"/>
<path d="M26.2716 79.7121C26.255 80.5078 26.4969 81.2875 26.9609 81.934C26.6376 82.3102 26.2385 82.6138 25.7898 82.825C25.341 83.0363 24.8528 83.1504 24.3569 83.1598C23.8666 83.2336 23.366 83.2006 22.8896 83.0631C22.4131 82.9256 21.9719 82.6869 21.5961 82.3633C21.2202 82.0396 20.9187 81.6386 20.7119 81.1877C20.5052 80.7368 20.3982 80.2465 20.3982 79.7504C20.3982 79.2544 20.5052 78.7641 20.7119 78.3132C20.9187 77.8623 21.2202 77.4613 21.5961 77.1376C21.9719 76.814 22.4131 76.5752 22.8896 76.4378C23.366 76.3003 23.8666 76.2673 24.3569 76.341C25.3421 76.3672 26.2774 76.78 26.9609 77.4903C26.5153 78.1458 26.2753 78.9194 26.2716 79.7121Z" fill="#FFAED7"/>
<path d="M30.4838 83.1601C32.3872 83.1601 33.9302 81.6165 33.9302 79.7124C33.9302 77.8082 32.3872 76.2646 30.4838 76.2646C28.5804 76.2646 27.0374 77.8082 27.0374 79.7124C27.0374 81.6165 28.5804 83.1601 30.4838 83.1601Z" fill="#3442D8"/>
<path d="M173.932 3.70947H166.197C165.012 3.70947 164.052 4.65964 164.052 5.83172C164.052 7.00381 165.012 7.95398 166.197 7.95398H173.932C175.116 7.95398 176.077 7.00381 176.077 5.83172C176.077 4.65964 175.116 3.70947 173.932 3.70947Z" fill="#EE4245"/>
<defs>
<linearGradient id="paint0_linear_674_3155" x1="120.428" y1="116.12" x2="120.497" y2="106.191" gradientUnits="userSpaceOnUse">
<stop stop-color="#8F473B"/>
<stop offset="0.12" stop-color="#A65F47"/>
<stop offset="0.26" stop-color="#B87250"/>
<stop offset="0.42" stop-color="#C58057"/>
<stop offset="0.62" stop-color="#CD885B"/>
<stop offset="1" stop-color="#CF8A5C"/>
</linearGradient>
<linearGradient id="paint1_linear_674_3155" x1="119.21" y1="117.27" x2="123.011" y2="112.827" gradientUnits="userSpaceOnUse">
<stop stop-color="#EB459F"/>
<stop offset="1" stop-color="#FF78B9"/>
</linearGradient>
<linearGradient id="paint2_linear_674_3155" x1="115.144" y1="115.592" x2="114.455" y2="112.091" gradientUnits="userSpaceOnUse">
<stop stop-color="#EB459F"/>
<stop offset="1" stop-color="#FF78B9"/>
</linearGradient>
<linearGradient id="paint3_linear_674_3155" x1="143.878" y1="116.358" x2="150.151" y2="114.559" gradientUnits="userSpaceOnUse">
<stop stop-color="#7196FF"/>
<stop offset="1" stop-color="#4D7AF7"/>
</linearGradient>
</defs>
</svg>
