<svg fill="none" height="85" viewBox="0 0 88 85" width="88" xmlns="http://www.w3.org/2000/svg"><g fill="#3ba55c"><path d="m83.0028 1.0838c0-.598567-.4852-1.0838-1.0838-1.0838s-1.0838.485233-1.0838 1.0838v1.10186c0 .59856.4852 1.0838 1.0838 1.0838s1.0838-.48524 1.0838-1.0838z"/><path d="m83.0028 9.81424c0-.59857-.4852-1.0838-1.0838-1.0838s-1.0838.48523-1.0838 1.0838v1.10186c0 .5986.4852 1.0838 1.0838 1.0838s1.0838-.4852 1.0838-1.0838z"/><path d="m86.9164 7.10531c.5986 0 1.0838-.48523 1.0838-1.0838 0-.59856-.4852-1.0838-1.0838-1.0838h-1.1018c-.5986 0-1.0838.48524-1.0838 1.0838 0 .59857.4852 1.0838 1.0838 1.0838z"/><path d="m78.1857 7.04525c.5986 0 1.0838-.48523 1.0838-1.0838 0-.59856-.4852-1.08379-1.0838-1.08379h-1.1018c-.5986 0-1.0838.48523-1.0838 1.08379 0 .59857.4852 1.0838 1.0838 1.0838z"/></g><path d="m8.36261 75.843 3.12339-1.0417c.1534-.0703.2834-.1832.3745-.3252.0911-.1421.1395-.3073.1395-.4761s-.0484-.334-.1395-.4761c-.0911-.142-.2211-.2549-.3745-.3252l-3.12339-1.0417c-.21336-.0964-.38423-.2673-.48054-.4808l-1.12123-3.1251c-.05266-.1603-.15458-.2999-.2912-.3989-.13662-.0989-.30098-.1522-.46965-.1522-.16866 0-.33301.0533-.46963.1522-.13662.099-.23854.2386-.2912.3989l-1.12123 3.1251c-.09631.2135-.26718.3844-.48054.4808l-3.123433 1.0417c-.153355.0703-.283314.1832-.374423.3252-.0911093.1421-.139534.3073-.139534.4761s.0484247.334.139534.4761c.091109.142.221068.2549.374423.3252l3.123433 1.0417c.11344.0344.21664.0963.30046.1802.08382.0838.14567.1871.18008.3006l1.12123 3.1251c.05266.1603.15458.2999.2912.3989.13662.0989.30097.1522.46963.1522.16867 0 .33303-.0533.46965-.1522.13662-.099.23854-.2386.2912-.3989l1.12123-3.1251c.03441-.1135.09627-.2168.18008-.3006.08382-.0839.18702-.1458.30046-.1802z" fill="#ffd01a"/><path d="m60.0474 13.701h-32.0948c0 7.6424-5.8794 14.0302-13.735 15.58v4.4198c0 14.5304 7.6752 28.1752 20.6148 36.6294l9.1676 5.986 9.1676-5.986c12.9724-8.4542 20.6148-22.099 20.6148-36.6294v-4.4198c-7.8556-1.5498-13.735-7.9376-13.735-15.58z" fill="#060607"/><path d="m33.34 72.4458c-13.4972-8.938-21.566-23.4438-21.566-38.8188v-6.4042l2.0664-.41c6.7158-1.3448 11.5866-6.9372 11.5866-13.3004v-2.46h37.146v2.46c0 6.3632 4.8708 11.9556 11.5866 13.3004l2.0664.41v6.4042c0 15.375-8.0688 29.8808-21.566 38.8188l-10.66 7.0356z" fill="#e2e5ff"/><path d="m59.949 13.5124c0 7.6916 5.8466 14.1122 13.653 15.6702v4.4444c0 14.6206-7.626 28.3474-20.5 36.8426l-9.102 6.027-9.1184-6.027c-12.8576-8.4952-20.5-22.222-20.5-36.8426v-4.4444c7.8228-1.5826 13.6694-7.9786 13.6694-15.6702zm5.248-4.84623h-42.394v4.84623c0 5.2316-4.0016 9.84-9.512 10.9306l-4.14098.82v8.364c0 16.154 8.47878 31.3978 22.68118 40.795l9.1184 6.027 3.0504 2.0172 3.0504-2.0172 9.1184-6.027c14.2024-9.3972 22.6812-24.6 22.6812-40.795v-8.364l-4.1-.82c-5.5104-1.107-9.512-5.699-9.512-10.9306v-4.84623z" fill="#5865f2"/><path d="m44 13.5124h-15.949c0 7.6916-5.8466 14.1122-13.653 15.6702v4.4444c0 14.6206 7.626 28.3474 20.5 36.8426l9.102 6.027z" fill="#c1c7ff"/><path d="m55.3826 32.1217c-2.1617-.9771-4.4431-1.6702-6.7862-2.0617-.3225.5643-.6121 1.1465-.8676 1.7435-2.4838-.3691-5.0093-.3691-7.4931 0-.2378-.5472-.5848-1.2344-.874-1.7435-2.3395.3928-4.6167 1.0881-6.7734 2.068-3.8101 5.354-5.5294 11.8948-4.839 18.4087 2.5067 1.8345 5.313 3.2292 8.2964 4.1233.6704-.8952 1.2637-1.8445 1.7737-2.838-.97-.3548-1.9056-.7956-2.7955-1.3172.2314-.1718.4627-.3436.6876-.5281 2.5937 1.2069 5.4242 1.8326 8.29 1.8326s5.6964-.6257 8.29-1.8326c.2249.1845.4499.3563.6876.5281-.8939.5199-1.8313.9627-2.8018 1.3236.5091.9919 1.1024 1.9392 1.7736 2.8316 2.9866-.8913 5.7954-2.2862 8.3029-4.1233.6839-6.5201-1.0472-13.0641-4.8712-18.415zm-16.8178 14.7052c-.8096-.087-1.5582-.467-2.102-1.0671-.5439-.6002-.8447-1.3781-.8447-2.1844 0-.8064.3008-1.5843.8447-2.1844.5438-.6002 1.2924-.9802 2.102-1.0672.8096.087 1.5582.467 2.1021 1.0672.5439.6001.8447 1.378.8447 2.1844 0 .8063-.3008 1.5842-.8447 2.1844-.5439.6001-1.2925.9801-2.1021 1.0671zm10.8863 0c-.6648.0709-1.3357-.0597-1.924-.3745-.5882-.3148-1.0662-.799-1.3705-1.3886-.3044-.5895-.4209-1.2566-.3342-1.9131.0868-.6565.3727-1.2715.82-1.7636.4473-.4922 1.035-.8383 1.6852-.9926.6503-.1544 1.3325-.1097 1.9566.1282.624.2378 1.1605.6576 1.5384 1.2038s.5795 1.1931.5782 1.8552c.0367.8202-.2554 1.6215-.8127 2.2294-.5574.6079-1.3347.973-2.1627 1.0158z" fill="#3c45a5"/></svg>