<svg width="208" height="140" viewBox="0 0 208 140" fill="none" xmlns="http://www.w3.org/2000/svg">
<g id="tips" clip-path="url(#clip0_8275_14022)">
<path id="Vector" d="M180.799 131.525C172.612 132.187 140.837 133.912 122.812 134.875C122.812 134.925 122.812 134.975 122.812 135.037C122.812 136.237 122.324 137.325 121.537 138.1C120.749 138.887 119.662 139.375 118.474 139.375H94.5117C92.1117 139.375 90.1742 137.437 90.1742 135.037C90.1742 134.987 90.1742 134.937 90.1742 134.875C72.1367 133.912 40.3742 132.175 32.1867 131.525C20.5617 130.6 18.3492 128.387 19.3367 118.05C20.6742 103.85 27.4992 59.4375 27.7992 56.2375C28.1117 53.0375 28.8367 50.45 34.4117 50.6625C38.2242 50.8 84.3617 85.1375 113.212 106.862C129.762 91.5125 172.712 35.65 177.237 35.4875C182.812 35.2875 183.537 37.8625 183.849 41.0625C184.162 44.2625 192.312 103.85 193.662 118.05C194.637 128.387 192.424 130.6 180.799 131.525Z" fill="#3442D9"/>
<path id="Vector_2" d="M116.512 130.9H95.7617C95.7617 130.9 98.5492 125.95 106.137 125.95C113.724 125.95 116.512 130.9 116.512 130.9Z" fill="#242145"/>
<path id="Vector_3" d="M106.137 125.95L106.912 47.1C119.099 19.7875 159.112 37.9625 171.349 24.7875L177.237 101.625C155.549 120.987 125.187 101.937 106.137 125.95Z" fill="white"/>
<path id="Vector_4" d="M188.699 119.6L179.812 37.6125C179.812 37.6125 175.574 33.3125 171.349 24.7875L164.199 72.8625L173.212 117.475L188.699 119.587" fill="#DEE0FF"/>
<path id="Vector_5" d="M38.3375 32.5874C38.3375 32.5874 34.1 39.1999 29.7625 40.2874L23.5625 119.6L39.825 111.55L38.325 32.5999" fill="#B0B4FF"/>
<path id="Vector_6" d="M30.9 110.05C30.9 110.05 29.2875 114.862 23.5625 119.6L95.75 130.912C95.75 130.912 98.5375 125.95 106.125 125.95L95.9 107.675L35.025 101.637" fill="#B0B4FF"/>
<path id="Vector_7" d="M105.936 126L106.911 47.1C76.7609 24.7875 51.7609 48.075 38.3359 32.5875L30.8984 110.038C54.2359 125.113 88.3359 101.625 105.936 126Z" fill="#D1D4FF"/>
<path id="Vector_8" d="M105.938 126L106.912 47.1001C106.912 19.9876 57.6375 37.5001 44.45 12.2501L42.3125 93.4251C63.2625 116.813 89.4 96.8376 105.938 126.013V126Z" fill="#E3E5FF"/>
<path id="Vector_9" d="M177.238 101.625C177.238 101.625 179.1 113.237 188.7 119.6L116.513 130.913C116.513 130.913 113.725 125.95 106.138 125.95L116.363 107.675L177.238 101.637" fill="#B0B4FF"/>
<path id="Vector_10" d="M106.137 126L106.912 47.1C106.912 19.9875 67.5617 25.875 57.0242 0.625L55.3242 81.8C72.0492 105.188 96.0617 90.4625 106.137 126Z" fill="url(#paint0_linear_8275_14022)"/>
<path id="Vector_11" d="M106.137 125.95L106.912 47.1C119.099 19.7875 159.112 37.9625 171.349 24.7875L177.237 101.625C155.549 120.987 125.187 101.937 106.137 125.95Z" fill="white"/>
<path id="Vector_12" d="M170.2 98.5375C170.288 99.9 169.5 101.162 168.263 101.725C159.913 105.487 150.825 105.787 141.85 106.237C141.525 106.25 141.187 106.275 140.862 106.287C139 106.387 137.438 104.9 137.438 103.037V80.2875C137.438 78.55 138.788 77.125 140.525 77.0375C148.025 76.6375 156.687 76.5 164.562 73.8875C166.6 73.2125 168.725 74.625 168.862 76.7625L170.213 98.5375H170.2Z" fill="#57F287"/>
<path id="Vector_13" d="M138.914 58.425C138.501 58.425 138.151 58.125 138.101 57.7C138.039 57.25 138.364 56.8375 138.814 56.7875L139.776 56.6625C146.439 55.8375 152.726 55.05 157.876 53.1625C158.301 53 158.776 53.225 158.926 53.65C159.089 54.075 158.864 54.55 158.439 54.7C153.114 56.65 146.726 57.45 139.976 58.2875L139.026 58.4125C139.026 58.4125 138.951 58.4125 138.926 58.4125L138.914 58.425Z" fill="#A9B3FC"/>
<path id="Vector_14" d="M138.914 52.8376C138.501 52.8376 138.151 52.5376 138.101 52.1126C138.039 51.6626 138.364 51.2501 138.814 51.2001L139.776 51.0751C148.926 49.9376 157.576 48.8626 163.176 44.8626C163.551 44.6001 164.064 44.6876 164.326 45.0501C164.589 45.4251 164.501 45.9376 164.139 46.2001C158.201 50.4376 149.351 51.5376 139.989 52.7001L139.026 52.8251C139.026 52.8251 138.951 52.8251 138.926 52.8251L138.914 52.8376Z" fill="#A9B3FC"/>
<path id="Vector_15" d="M138.914 47.2374C138.501 47.2374 138.151 46.9374 138.101 46.5124C138.039 46.0624 138.364 45.6499 138.814 45.5999L139.776 45.4749C146.376 44.6499 152.614 43.8749 157.739 42.0249C158.164 41.8749 158.639 42.0874 158.789 42.5249C158.939 42.9499 158.726 43.4249 158.289 43.5749C152.989 45.4874 146.664 46.2749 139.976 47.1124L139.014 47.2374C139.014 47.2374 138.939 47.2374 138.914 47.2374Z" fill="#A9B3FC"/>
<path id="Vector_16" d="M138.914 41.6499C138.501 41.6499 138.151 41.3499 138.101 40.9249C138.039 40.4749 138.364 40.0624 138.814 40.0124L139.776 39.8874C148.926 38.7499 157.576 37.6749 163.176 33.6749C163.551 33.4124 164.064 33.4999 164.326 33.8624C164.589 34.2374 164.501 34.7499 164.139 35.0124C158.201 39.2499 149.351 40.3499 139.989 41.5124L139.026 41.6374C139.026 41.6374 138.951 41.6374 138.926 41.6374L138.914 41.6499Z" fill="#A9B3FC"/>
<path id="Vector_17" d="M69.9749 71.925L91.9874 82.7625C96.4749 84.9625 99.8374 80.8625 98.0499 75.3625L89.2749 48.375C87.4874 42.875 81.8874 40.125 79.1874 43.4125L65.9374 59.575C63.2374 62.8625 65.4749 69.725 69.9499 71.925H69.9749Z" fill="#FFC619"/>
<path id="Vector_18" d="M86.4349 73.958C87.9019 73.01 87.9855 70.5306 86.6217 68.42C85.2578 66.3094 82.963 65.3669 81.496 66.3149C80.0291 67.2628 79.9455 69.7422 81.3093 71.8528C82.6731 73.9634 84.9679 74.9059 86.4349 73.958Z" fill="#242145"/>
<path id="Vector_19" d="M80.6016 50.3L80.5391 58.775C80.5391 59.825 80.9141 60.925 81.5391 61.85C82.1641 62.775 83.0266 63.5375 84.0016 63.9C85.9266 64.625 87.5016 63.5125 87.5141 61.4125L87.5766 52.9375C87.5891 50.8375 86.0391 48.5375 84.1141 47.8125C82.1891 47.0875 80.6141 48.2 80.6016 50.3Z" fill="#242145"/>
<path id="Vector_20" d="M135.213 41.3625L135.676 60.3875C135.763 62.525 134.301 64.4125 132.213 64.85C127.826 65.7875 123.388 66.7875 119.476 68.675C116.651 70.05 113.351 68.05 113.213 64.9L112.801 48.075C112.738 46.6875 113.413 43.3 116.626 41.25C121.351 38.2375 125.301 37.25 129.913 37.25C132.626 37.25 135.101 38.6375 135.213 41.35V41.3625Z" fill="#FFB0D5"/>
<path id="Vector_21" d="M111.424 85.7749C111.161 85.7749 110.899 85.6499 110.749 85.4124C110.486 85.0374 110.586 84.5249 110.961 84.2624C116.849 80.2374 124.849 79.4249 131.886 79.1749C132.336 79.1749 132.724 79.5124 132.736 79.9624C132.749 80.4124 132.399 80.7999 131.949 80.8124C125.149 81.0624 117.436 81.8249 111.899 85.6124C111.761 85.7124 111.599 85.7499 111.436 85.7499L111.424 85.7749Z" fill="#A9B3FC"/>
<path id="Vector_22" d="M111.424 91.9125C111.161 91.9125 110.899 91.7875 110.749 91.55C110.486 91.175 110.586 90.6625 110.961 90.4C116.849 86.375 124.849 85.5625 131.886 85.3125C132.336 85.3 132.724 85.65 132.736 86.1C132.749 86.55 132.399 86.9375 131.949 86.95C125.149 87.2 117.436 87.9625 111.899 91.75C111.761 91.85 111.599 91.8875 111.436 91.8875L111.424 91.9125Z" fill="#A9B3FC"/>
<path id="Vector_23" d="M111.424 98.05C111.161 98.05 110.899 97.925 110.749 97.6875C110.486 97.3125 110.586 96.8 110.961 96.5375C116.849 92.5125 124.849 91.7 131.886 91.45C132.336 91.4375 132.724 91.7875 132.736 92.2375C132.749 92.6875 132.399 93.075 131.949 93.0875C125.149 93.3375 117.436 94.1 111.899 97.8875C111.761 97.9875 111.599 98.025 111.436 98.025L111.424 98.05Z" fill="#A9B3FC"/>
<path id="Vector_24" d="M111.424 104.188C111.161 104.188 110.899 104.063 110.749 103.825C110.486 103.45 110.586 102.938 110.961 102.675C112.874 101.363 115.174 100.3 117.799 99.5125C118.236 99.375 118.699 99.625 118.824 100.063C118.949 100.5 118.711 100.963 118.274 101.088C115.824 101.825 113.674 102.813 111.899 104.025C111.761 104.125 111.599 104.163 111.436 104.163L111.424 104.188Z" fill="#A9B3FC"/>
<path id="Vector_25" d="M206.426 75.4C204.201 75 200.326 72.8875 200.214 64.2C200.214 63.8625 199.939 63.5875 199.626 63.5875C199.314 63.5875 199.051 63.8625 199.051 64.2125V64.2625C199.176 74.125 194.589 74.85 192.626 75.2125C192.301 75.275 192.064 75.5375 192.051 75.85C192.039 76.2125 192.326 76.525 192.701 76.575C194.851 76.8625 199.351 77.7625 199.464 86.8375C199.464 87.2 199.714 87.5 200.089 87.5C200.464 87.5 200.751 87.175 200.739 86.775C200.626 77.675 204.464 77.2375 206.564 76.7625C206.939 76.675 207.164 76.3375 207.089 75.9875C207.026 75.675 206.776 75.475 206.426 75.4125V75.4Z" fill="#FFE75C"/>
<path id="Vector_26" d="M23.1129 47.4375C20.8879 47.0375 17.0129 44.925 16.9129 36.2375C16.9129 35.9 16.6379 35.6375 16.3254 35.625C16.0129 35.6125 15.7504 35.9 15.7504 36.25V36.3C15.8754 46.1625 11.2879 46.8875 9.32539 47.2375C9.00039 47.3 8.76289 47.5625 8.75039 47.875C8.73789 48.2375 9.02539 48.55 9.40039 48.6C11.5504 48.8875 16.0379 49.7875 16.1504 58.85C16.1504 59.2125 16.4004 59.5125 16.7754 59.5125C17.1504 59.5125 17.4379 59.1875 17.4254 58.8C17.3129 49.7125 21.1504 49.2625 23.2379 48.7875C23.6129 48.7 23.8379 48.3625 23.7629 48.0125C23.7004 47.7 23.4504 47.5 23.1004 47.4375H23.1129Z" fill="#91FFAD"/>
<path id="Vector_27" d="M12.5629 27.7625C10.8129 27.45 7.77539 25.7875 7.68789 18.9625C7.68789 18.7 7.46289 18.4875 7.22539 18.4875C6.98789 18.4875 6.77539 18.7 6.77539 18.975V19.0125C6.87539 26.75 3.27539 27.325 1.72539 27.6C1.47539 27.65 1.28789 27.85 1.27539 28.1C1.27539 28.3875 1.48789 28.625 1.78789 28.6625C3.47539 28.8875 7.00039 29.6 7.08789 36.7125C7.08789 37 7.27539 37.225 7.57539 37.2375C7.87539 37.25 8.10039 36.9875 8.08789 36.675C8.00039 29.5375 11.0129 29.1875 12.6504 28.8125C12.9379 28.75 13.1254 28.4875 13.0629 28.2C13.0129 27.9625 12.8254 27.8 12.5379 27.75L12.5629 27.7625Z" fill="#FFB0D5"/>
</g>
<defs>
<linearGradient id="paint0_linear_8275_14022" x1="102.224" y1="82.2625" x2="60.8617" y2="39.5125" gradientUnits="userSpaceOnUse">
<stop stop-color="#EFF1FC"/>
<stop offset="1" stop-color="white"/>
</linearGradient>
<clipPath id="clip0_8275_14022">
<rect width="206.25" height="140" fill="white" transform="translate(0.875)"/>
</clipPath>
</defs>
</svg>
