<svg id="Vector" xmlns="http://www.w3.org/2000/svg" viewBox="0 0 380 206"><defs><linearGradient id="linear-gradient" x1="190" y1="51.67" x2="190" y2="271.53" gradientUnits="userSpaceOnUse"><stop offset="0" stop-color="#ffc619"/><stop offset=".62" stop-color="#ff8c19"/></linearGradient><linearGradient id="linear-gradient-2" x1="200.98" y1="162.8" x2="201.21" y2="188.94" gradientUnits="userSpaceOnUse"><stop offset=".19" stop-color="#6990ff"/><stop offset=".56" stop-color="#5279e7"/><stop offset=".81" stop-color="#4970de"/></linearGradient><style>.cls-3{fill:#fff}.cls-6{fill:#008d3c}.cls-8{fill:#ff8c19}.cls-9{fill:#eb459f}.cls-10{fill:#252144}.cls-11{fill:#b5b5c9}.cls-12{fill:#5865f2}.cls-13{fill:#4970de}.cls-14{fill:#5874f2}.cls-15{fill:#ffc619}.cls-16{fill:#6990ff}.cls-17{fill:#ff78b9}.cls-18{fill:none}.cls-19{fill:#57f287}.cls-20{fill:#66bcff}.cls-21{fill:#b7ccff}.cls-23{fill:#d0d0db}.cls-24{fill:#423d80}.cls-26{fill:#29cc7a}.cls-27{fill:#3f99f2}.cls-28{fill:#231f20}.cls-29{fill:#ffaed7}.cls-30{fill:#8cd9ff}</style></defs><path d="M48.67 73.56v88.22h282.67V73.56c0-11.05-8.95-20-20-20H68.67c-11.05 0-20 8.95-20 20Z" style="fill:url(#linear-gradient)"/><path class="cls-3" d="M128.67 151.11h17.78c4.22 0 10.22-2.67 9.56-9.78s-3.89-10.67-7.78-9.33c-3.89 1.33-20.67 8.44-20.67 8.44l1.11 10.67Z"/><path class="cls-23" d="M147.8 151.02c-.46.06-.92.09-1.36.09h-2.28c5.55-7.9 3.46-12.74-.13-17.5 1.1-.44 2.08-.83 2.88-1.14 3.39 4.72 5.74 10.45.89 18.55Z"/><path class="cls-10" d="M113.33 82.11c4.89 1.22 23.18 9.31 27.4 14.97l4.67 20.5-29.73 2.42-2.33-37.89Z"/><path class="cls-10" d="M152.4 122.36c-.58-4.14-3.06-6.94-12.78-8.67-7.89-1.4-16.81.67-20.55 2.7l-44.9.44v17.33l53 10.83s6.08-1.72 13.9-6.53c9.9-6.08 12.11-10.56 11.33-16.11Z"/><path class="cls-24" d="M114.33 82s5.89 9.15 7.83 16.92c1.5 6 .29 14.96-3.5 16.53l-41.17-.94-2.67-15 9.5-21 30 3.5Z"/><path class="cls-19" d="M120.13 93c-2.9 3.38-11.23 8.75-11.23 8.75l-28-7.5 4.59-15.61L114.33 82s3.32 5.15 5.8 11Z"/><path class="cls-3" d="M106.33 117.61c-.18 0-.37-.03-.55-.11a1.5 1.5 0 0 1-.84-1.95c.03-.07 2.93-7.46 2.46-13.69-.7-9.31-4.1-18.21-4.14-18.3-.3-.77.09-1.64.86-1.94.77-.3 1.64.09 1.94.86.15.38 3.6 9.41 4.33 19.16.52 6.93-2.54 14.7-2.67 15.03-.23.59-.8.95-1.39.95Z"/><path class="cls-12" d="m78.94 114.2-1.32 8.23s16.42 2.14 26.33 1.56c13.17-.77 15.27-1.51 15.44-2.89.56-4.39.56-5.86-.11-5.97s-6.96.08-11.9-.01c-12.84-.24-28.45-.91-28.45-.91ZM123.17 151l7.17-11.67s2.9 2.65 3.62 4.69c.92 2.58.13 6.14-2.12 6.81l-8.67.17Z"/><path class="cls-24" d="M116.57 120.08c10.06 7.57 16.17 15.68 14.17 21.17-2.22 6.09-5.4 9.75-5.4 9.75H75.17l.23-19.24c30-17 35.22-16.16 41.17-11.68ZM73.07 82.81c-6.67 3.22-13.22 12.11-13.22 12.11s-17.27 7.88-16.03 16.33c.83 5.67 3.83 7.25 3.83 7.25L74 120.17s4.67-12.5 5.83-14.67-1.17-5.5-1.17-5.5 4.84-6.31 6.18-18.31c0 0-6.26-1.56-11.78 1.11Z"/><path class="cls-19" d="m66.11 114.21-.92 4.91C53.65 116.98 47 114.48 43.8 111c-.27-2.42.97-4.79 2.87-6.93-.36 1.35-.1 2.14.16 2.64 1.49 2.87 7.97 5.4 19.28 7.5Z"/><path class="cls-10" d="m77.81 105.86-2.99-.21c-.01 0-.34-2.66-7.34-5.61a1.5 1.5 0 0 1-.8-1.96 1.5 1.5 0 0 1 1.96-.8c9.03 3.81 9.22 7.82 9.16 8.58Z"/><path class="cls-12" d="M63.95 120.76c-.52-1.98.08-9.29 3.36-12.78s6.43-3.88 9.05-3.13c1.62.46 6.51 2.42 4.66 4.9-1.23 1.65-11.43 13.68-11.43 13.68l-5.64-2.68Z"/><path class="cls-9" d="m107.05 10.48-3.96-2.21c-8.14-.65-23.27 3.45-18.19 9.05 5.17 5.7 30.17-1.42 30.17-1.42l-8.01-5.42Z"/><path class="cls-17" d="M103.49 30.58s2.87-4.36 3.96-10.44c1.02-5.69-2.2-11.09-4.36-11.88 11.52.89 17.61 4.37 18.12 8.72.82 7-9.28 14.81-9.28 14.81l-8.43-1.22Z"/><path class="cls-29" d="M107.76 30.17s3.62-5.08 4.37-10.94c1.02-7.89-4.16-10.38-4.16-10.38 8.05.96 13 5.05 9.11 12.76-3.05 6.06-8.61 10.59-8.61 10.59l-.72-2.03Z"/><path class="cls-17" d="M93.97 35.59s-10.06-8.08-24.06-12.95C50.22 15.78 43.87 13.1 44.14 7.36c.33-6.89 12.63-10.32 27.98-4.1 16.11 6.53 26.62 18.83 28.98 27.6l-7.14 4.73Z"/><path class="cls-29" d="M62.18 9.73c-.52 2.96 7.99 5.71 17.6 11.08 9.57 5.34 15.86 10.75 15.86 10.75l2.68-1.72s-4.01-6.49-12.1-12.93C71.89 5.5 62.64 7.12 62.18 9.73Z"/><path class="cls-17" d="M99.87 27.74c19.11.56 30.41 6.01 31.82 15.84 1.03 7.21-4.17 12.21-4.17 12.21s5.4 6.26 4.76 14.16c-.69 8.44-7.06 15.12-34.16 13.79-28.03-1.38-33.72-7.09-35.39-14.75-2.01-9.23 5.86-14.98 5.86-14.98s-5.28-6.3-3.47-13.64c1.91-7.78 9.85-13.35 34.76-12.62Z"/><ellipse class="cls-28" cx="91.93" cy="51.12" rx="2.07" ry="3.73" transform="rotate(-34.3 91.939 51.122)"/><ellipse class="cls-28" cx="112.26" cy="51.92" rx="3.73" ry="2.07" transform="rotate(-54.34 112.257 51.92)"/><path d="m105.39 60.71-6.95-.4s.54 9.22 3.19 9.12c2.65-.1 3.76-8.73 3.76-8.73Z" style="fill:#d11583"/><path d="M128.84 74.65c1.5-5.05 3.11-6.11 10.11-4.85 2-5.44 7.56-5.11 11.22-3.22 4.67-3.44 10.33-3.67 12.22 5 4.44-.33 5.23 2.32 4.22 7.96l-37.78-4.89Z" style="fill:#ffe75c"/><path class="cls-3" d="m159.07 117.91-32.35-4.01a1.997 1.997 0 0 1-1.75-2.06l1.45-38.94 42.96 5.32-8.1 38.12a1.995 1.995 0 0 1-2.2 1.57Z"/><path class="cls-9" d="m144.75 75.17-4.25 40.44-2.97-.37 4.25-40.43 2.97.36zM154.41 76.37l-5.54 40.28-2.98-.37L151.44 76l2.97.37zM134.92 73.96l-2.66 40.63-2.99-.37 2.67-40.64 2.98.38zM163.65 77.52l-6.5 40.15-2.98-.37 6.51-40.15 2.97.37z"/><path class="cls-17" d="M164.99 85.72c-8.1-.02-10.57 7.68-9.42 15.77s8.17 9.5 11.6 7.83c3.81-1.86 5.86-8.3 6.13-13.62.13-2.49-.2-9.96-8.3-9.97Z"/><path class="cls-23" d="M276.31 120.68c-.45 0-.91-.08-1.35-.24-24-8.63-35.66-26.28-40.48-36.02a3.996 3.996 0 0 1 1.82-5.36c1.98-.98 4.38-.17 5.36 1.82 4.28 8.67 14.65 24.35 36.01 32.04a4 4 0 0 1 2.41 5.12 4.004 4.004 0 0 1-3.76 2.65Z"/><path class="cls-11" d="M252.82 101.81c-1.17 1.2-1.69 2.83-1.5 4.67-.99-.87-1.93-1.76-2.83-2.65a8.176 8.176 0 0 1 2.2-4.12 8.08 8.08 0 0 1 3.05-1.95c.83.84 1.71 1.68 2.64 2.51-1.32.02-2.6.57-3.56 1.54ZM265.68 107.19c-1.47-.2-2.8.74-3.6 1.78-.89 1.15-1.56 2.98-.98 4.8-1.1-.68-2.17-1.38-3.19-2.1.12-1.58.73-3.16 1.8-4.54a7.82 7.82 0 0 1 2.55-2.18c1.09.77 2.23 1.52 3.42 2.24ZM248.63 91.97c-1.82-.28-3.13.45-3.94 1.18-1.27 1.14-2.03 2.93-1.88 4.34-.88-1.09-1.69-2.17-2.44-3.23.5-1.25 1.29-2.42 2.32-3.34 1.11-.99 2.41-1.63 3.79-1.88.66.96 1.38 1.94 2.15 2.93Z"/><path class="cls-3" d="M299.98 114.57s7.5 11.5 6.5 23.5c-.65 7.8-8.76 12.05-12.78 12.05h-18.32c-5.24 0-11.65-4.8-12.32-12.46-.95-10.97 10.61-23.79 10.61-23.79l26.31.71Z"/><path class="cls-23" d="M306.25 139.57c-.21 1.02-.56 1.97-1.02 2.84-2.38-1.14-20.68-9.39-42.21-5.36-.04-1.01.02-2.04.16-3.08 21.65-3.82 39.53 3.93 43.07 5.6Z"/><path class="cls-20" d="M224.15 89.15c3.58-.58 22.04-4.68 27.25-6 2.71-.69 3.35-.97 3.42-2.42.45-9.51-.3-29.76-2.2-40.48-1.64-9.27-6.89-9.04-11.71-8.82-4.95.23-8.76.95-8.18 17.88-17.25 2.9-28.96 6.57-13.83 38.67 1.01 2.13 1.97 1.7 5.25 1.17Z"/><path class="cls-30" d="M229.82 79.02c-4.1 0-6.05-2.23-7.83-5.91-.36-.75-.05-1.64.7-2 .74-.36 1.64-.05 2 .7 1.62 3.35 2.77 4.75 7.03 4.04.81-.13 1.59.42 1.73 1.23s-.42 1.59-1.23 1.72c-.87.14-1.66.21-2.39.21ZM230.42 65.28c-.55 0-1.07-.3-1.34-.82-.02-.04-2.18-4.25-4.34-6.56a1.51 1.51 0 0 1 .07-2.12 1.51 1.51 0 0 1 2.12.07c2.45 2.62 4.72 7.06 4.82 7.25a1.5 1.5 0 0 1-1.34 2.18ZM237.79 64.82c-.61 0-1.19-.38-1.41-.98-.02-.04-1.63-4.4-4.07-7.67-.5-.66-.36-1.6.31-2.1.66-.5 1.6-.36 2.1.31 2.71 3.63 4.41 8.24 4.48 8.44.28.78-.12 1.64-.89 1.92-.17.06-.34.09-.52.09Z"/><path class="cls-30" d="M248.45 70.49a1.5 1.5 0 0 1-1.36 1.62c-.77.06-1.45-.46-1.6-1.19a.508.508 0 0 1-.03-.17c-.16-1.84-2.13-4.25-7.16-5-6.7-.99-9.25-.51-9.71 1.87-.1.52 0 .97.3 1.41 1.11 1.63 4.39 2.55 5.56 2.76l1.9.35-.81 1.76c-.1.23-2.41 5.55 1.4 12.58-1.03.23-2.05.45-3.04.66-2.8-5.65-2.26-10.39-1.65-12.8-1.77-.53-4.47-1.62-5.84-3.61a4.815 4.815 0 0 1-.76-3.68c1.17-6.04 8.63-4.93 13.09-4.27 2.94.43 5.11 1.37 6.64 2.54 2 1.52 2.92 3.43 3.07 5.17Z"/><path class="cls-30" d="M248.13 83.94c-.94.23-1.98.47-3.1.73.46-3.91.52-9.01.46-13.75-.02-1.97-.07-3.87-.11-5.6-.02-.61-.03-1.2-.05-1.76-.03-.91-.05-1.74-.07-2.47-.16-7.1-.97-16.6-2.73-21.97-.25-.75-.94-.86-1.34-.87-.67-.01-1.24.29-1.38.68-1.29 3.66-.86 11.84-.58 14.69.03.4-.09.8-.35 1.11-.25.3-.62.5-1.02.53-.12.01-11.86 1.03-16.78 4.38-2.84 1.93-6.35 4.33 4.76 29.2-.72.14-1.29.25-1.69.31-.5.08-.95.16-1.35.23-10.91-24.6-8.29-28.89-3.41-32.22 4.49-3.06 13.23-4.33 16.73-4.74-.22-3.16-.54-10.52.86-14.49.58-1.62 2.27-2.68 4.25-2.68 1.97.02 3.56 1.15 4.15 2.93 2.41 7.34 2.82 20.32 2.88 22.84.02.73.04 1.55.06 2.45.16 5.73.39 14.22-.19 20.47Z"/><path class="cls-18" d="M250.82 50.57c-1.56-16.61-3.39-18.56-9.18-19.17-.24 0-.48.02-.72.03-4.95.23-8.76.95-8.18 17.88-17.25 2.9-28.96 6.57-13.83 38.67 1.01 2.13 1.97 1.7 5.25 1.17 3.58-.58 22.04-4.68 27.25-6 .07-.02.12-.03.18-.05.1-2.25.66-17.38-.76-32.54Z"/><path class="cls-27" d="M250.82 50.57c1.42 15.16.86 30.29.76 32.54 2.55-.65 3.17-.96 3.24-2.37.45-9.51-.3-29.76-2.2-40.48-1.55-8.81-6.37-9.04-10.98-8.85 5.79.61 7.62 2.55 9.18 19.17Z"/><path class="cls-16" d="M297.32 116.07c-4.75.6-15.19.36-19.98-.35-5.5-.81-7.12-3.72-5.87-9.14l31.96.74c.89 4.14-.48 8.04-6.11 8.75Z"/><path class="cls-14" d="M288.05 116.4c-1.01-.02-2.03-.04-3.03-.08-.16-1.55-.43-4.85-.17-8.67.02-.28.11-.54.27-.75l2.5.05c.16.26.24.57.22.9-.27 3.96.07 7.4.21 8.55ZM298.8 115.79c-.46.12-.95.21-1.48.28-.49.06-1.04.11-1.63.16 0-.09.01-.18.03-.27.01-.03.42-1.83.42-4.66 0-.98-.05-2.08-.18-3.27-.03-.32.03-.62.17-.88l2.67.06c.07.15.12.31.14.49.42 3.77.09 6.71-.14 8.09ZM278.94 115.91c-.58-.05-1.12-.12-1.6-.19-.67-.1-1.29-.23-1.84-.4-.6-2.28-.52-5.08-.31-7.85.02-.3.14-.58.31-.8l2.4.06c.2.27.31.61.28.97-.23 3.07-.31 6.42.76 8.21Z"/><path class="cls-17" d="m302.6 76.92 3.42 6.33s5.48-1.67 10.42-3.5 4.59-6.46 1.17-12.92c-3.67-6.92-7.79-5.28-10.17-.5-3.43 6.9-4.83 10.58-4.83 10.58Z"/><path class="cls-18" d="M317.6 66.83c-.14-.27-.28-.5-.43-.74l-12.19 15.24 1.03 1.92s5.48-1.67 10.42-3.5c5.17-1.92 4.59-6.46 1.17-12.92Z"/><path class="cls-3" d="M307.43 66.33c-3.43 6.9-4.83 10.58-4.83 10.58l2.38 4.42 12.19-15.24c-3.56-6.03-7.46-4.36-9.74.24Z"/><path class="cls-17" d="m274.76 77.15-4.17 5.87s-5.24-2.33-9.91-4.75c-4.89-2.54-3.76-6.98.43-12.96 4.49-6.41 8.38-4.29 10.15.75 2.56 7.27 3.5 11.1 3.5 11.1Z"/><path class="cls-18" d="M261.62 64.62c-.17.22-.34.43-.51.68-4.19 5.99-5.32 10.43-.43 12.96 4.67 2.42 9.91 4.75 9.91 4.75l1.26-1.77-10.23-16.62Z"/><path class="cls-3" d="M274.76 77.15s-.94-3.82-3.5-11.1c-1.7-4.84-5.37-6.97-9.64-1.43l10.23 16.62 2.91-4.09Z"/><path d="M288.16 62.07h-.06c-.83-.03-1.47-.73-1.44-1.55.49-13.47 8.44-20.65 22.39-20.27.83.02 1.48.71 1.46 1.54-.02.83-.72 1.48-1.54 1.46-12.37-.36-18.87 5.49-19.31 17.38-.03.81-.69 1.45-1.5 1.45Z"/><path class="cls-14" d="m260.54 87.55 3.86.07-.22 12.71-3.86-.07c-2.11-.04-3.78-2.91-3.72-6.42s1.82-6.33 3.94-6.29Z"/><path class="cls-3" d="M269.28 82.53v-.15c.17-10.24 8.6-18.41 18.83-18.28 10.23.22 18.37 8.67 18.2 18.92v.15c4.42 2.3 7.32 6.94 7.32 12.25 0 8.2-4.01 13.59-27.03 13.14-21.35-.41-24.43-5.79-25.04-14.03-.39-5.3 3.24-9.85 7.73-12Z"/><path class="cls-28" d="M282.32 87.83c-.01.83 1 1.64 1.47 1.64s1.51-.76 1.53-1.59-.65-1.03-1.48-1.04-1.5.16-1.52.99ZM295.89 79.18c-.66-.5-2.06-.04-3.48 1.48-1.64 1.75-2 3.79-1.07 4.12.86.31 2.09-.48 3.46-2.05s1.71-3.09 1.09-3.56ZM275.03 79.18c.66-.5 2.06-.04 3.48 1.48 1.64 1.75 2 3.79 1.07 4.12-.86.31-2.09-.48-3.46-2.05s-1.71-3.09-1.09-3.56Z"/><path class="cls-16" d="M281.09 59.81h13.94c.28 0 .5.22.5.5v2.65c0 1.66-1.34 3-3 3h-8.94c-1.66 0-3-1.34-3-3v-2.65c0-.28.22-.5.5-.5Z" transform="rotate(-179.02 288.064 62.871)"/><path class="cls-14" d="m311.8 88.42 4.86.07-.22 12.71-4.86-.07c-2.11-.04-3.78-2.91-3.72-6.42s1.82-6.33 3.94-6.29Z"/><ellipse class="cls-16" cx="316.55" cy="94.85" rx="6.36" ry="3.83" transform="rotate(-89.02 316.56 94.839)"/><path class="cls-29" d="m282.12 91.66 6.79-.21s.13 7.51-3.14 7.42c-2.61-.07-3.64-7.21-3.64-7.21Z"/><circle class="cls-16" cx="307.57" cy="41.19" r="4.75"/><path class="cls-29" d="M273.71 85.5c1.08 1.2 2.02 2.51 2.77 3.94.51.99-.85 1.93-1.6 1.13a19.298 19.298 0 0 1-2.77-3.94.987.987 0 0 1 .44-1.33c.4-.2.87-.11 1.16.2ZM269.64 85.85c1.08 1.2 2.02 2.51 2.77 3.94.51.99-.85 1.93-1.6 1.13a19.298 19.298 0 0 1-2.77-3.94.987.987 0 0 1 .44-1.33c.4-.2.87-.11 1.16.2ZM298.16 86.63c-.77 1.42-1.68 2.75-2.77 3.94-.77.81-2.1-.15-1.6-1.13.76-1.43 1.69-2.74 2.77-3.94.38-.4 1-.41 1.4-.04.32.31.39.78.2 1.16ZM302.24 86.97c-.77 1.42-1.68 2.75-2.77 3.94-.77.81-2.1-.15-1.6-1.13.76-1.43 1.69-2.74 2.77-3.94.38-.4 1-.41 1.4-.04.32.31.39.78.2 1.16Z"/><path class="cls-8" d="M314.42 186.28h-11.83s3.57 13.85 5.33 18.44c.36.93.7 1.28 1.28 1.28h4.6c.35 0 .62-.28.62-.62v-19.1ZM65.58 186.28h11.83s-3.57 13.85-5.33 18.44c-.36.93-.7 1.28-1.28 1.28h-4.6c-.35 0-.62-.28-.62-.63v-19.1Z"/><path d="M331.61 117.83h-17.89c-5.52 0-10 4.48-10 10v22.28H76.28v-22.28c0-5.52-4.48-10-10-10H48.39c-5.52 0-10 4.48-10 10v50.67c0 5.52 4.48 10 10 10h283.22c5.52 0 10-4.48 10-10v-50.67c0-5.52-4.48-10-10-10Z" style="fill:#ffdf4b"/><path class="cls-15" d="M307.78 172.32H72.1c-4.14 0-7.5-3.36-7.5-7.5v-10.16c0-4.14 3.36-7.5 7.5-7.5h4.18v3H72.1c-2.48 0-4.5 2.02-4.5 4.5v10.16c0 2.48 2.02 4.5 4.5 4.5h235.68c2.48 0 4.5-2.02 4.5-4.5v-10.16c0-2.48-2.02-4.5-4.5-4.5h-4.18v-3h4.18c4.14 0 7.5 3.36 7.5 7.5v10.16c0 4.14-3.36 7.5-7.5 7.5Z"/><path class="cls-3" d="M85.35 150.31c.15 4.19 3.75 7.75 10.5 6.41s18.58-6.94 20.86-10.65c2.69-4.38.09-17.97-5.75-17.88-3.85.06-8.08 1.43-15.64 7.67-6.6 5.44-10.13 9.94-9.96 14.44Z"/><path class="cls-23" d="M113.08 149.36c-.79.54-1.67 1.07-2.61 1.6-4.65-5.08-9.67-12.1-11.84-17.67.9-.66 1.75-1.23 2.55-1.74 1.84 5.28 7.09 12.66 11.9 17.81Z"/><path class="cls-13" d="M216.69 185.71c6.6-.48 19.38-1.54 23.62.63 2.25 1.15 4.54 5.18 2.33 12.5-2.08 6.92-5.24 7.17-9.35 7.17H213.1l3.57-20.29ZM181.64 185.71c-6.6-.48-19.38-1.54-23.62.63-2.25 1.15-4.54 5.18-2.33 12.5 2.08 6.92 5.24 7.17 9.35 7.17h20.19l-3.57-20.29Z"/><path class="cls-16" d="M186.81 154.33s-6.92 6.45-13.08 17.99c-5.62 10.51-1.48 15.26 4.35 15.45 8.96.3 15.61-1.28 15.61-1.28V155.4l-6.88-1.08Z"/><path d="M192.34 154.33C177.41 175.16 176.32 206 176.32 206h48.77s4.8-33.94-5.25-52.83l-27.5 1.17Z" style="fill:url(#linear-gradient-2)"/><path class="cls-13" d="M218.57 155.32c-9.83 8.83-28.83 6.25-33.74 1.07 1.23-1.36 1.98-2.06 1.98-2.06l31.76.99ZM253.88 178.07c3.02-2.28 3.3-7.01.62-10.56-2.68-3.55-7.3-4.58-10.32-2.3-5.33 4.02-7.97 13.12-6.54 15.02 1.44 1.9 10.91 1.86 16.24-2.16Z"/><path class="cls-3" d="M211.55 173.52c-1.88-7.18-8.56-8.3-16.6-8.3-8.03 0-13.89 1.12-15.77 8.3-1.87 7.16-1.76 15.88 2.85 16.58 3.92.6 7.7-2.56 9.75-6.15l5.67-.08c2.05 3.59 6.67 7.18 10.58 6.33 4.56-.99 5.39-9.52 3.51-16.68Z"/><path class="cls-26" d="M200.39 166c-.32-.94 1.63-2.15 4.28-1.69s5.13 2.65 5.4 5.08c.21 1.81-1.83.92-4.23-.15-3.48-1.54-5.22-2.6-5.44-3.25ZM189.65 165.9c.3-.95-1.67-2.12-4.31-1.6s-5.07 2.75-5.3 5.19c-.17 1.82 1.85.88 4.23-.23 3.44-1.61 5.17-2.71 5.38-3.35Z"/><path class="cls-16" d="M223.16 153.17s7.29 5.67 9.73 17.33c2.44 11.67-.05 18.1-14.57 18-11.75-.08-14.33-3.08-14.5-7.25s3.16-7.92 12.74-9.13l.83-17.9 5.77-1.06Z"/><path d="M217.23 173.75c-.74 0-1.38-.54-1.48-1.29-.39-2.84-.73-5.74-.73-5.74-.09-.82.5-1.57 1.32-1.66.82-.1 1.57.5 1.66 1.32 0 0 .33 2.88.72 5.67a1.5 1.5 0 0 1-1.28 1.69c-.07 0-.14.01-.21.01Z" style="fill:#3d58d9"/><path class="cls-16" d="M176.53 172.92c2.24.58 5.57 1.92 6.82 5.79 1.55 4.8-.54 9.54-5.28 9.07l-4.24-5.5 2.7-9.36ZM214.32 177.92l1.29-5.67s3.58-.48 5.16-.23l2.38 5.06-8.83.84Z"/><path class="cls-13" d="M164.2 130.31c0 12.19 4.42 12.19 11.99 12.19v-24.37c-7.57 0-11.99 0-11.99 12.19Z"/><path class="cls-16" d="M202.64 108.33c24.11 0 33.07 2.57 33.07 24.02l.24 5.42c-.22 18.78-16.11 18.89-36.44 18.44-18.46-.4-28.65-2.41-28.65-23.86.2-19.6 7.67-24.02 31.78-24.02Z"/><circle class="cls-28" cx="221.24" cy="132.13" r="2.42"/><circle class="cls-28" cx="175.76" cy="132.13" r="2.42"/><path class="cls-21" d="M180.14 131.56c.32-5.23 4.32-7.36 17.3-7.36s16.98 2.13 17.3 7.36c.38 6.3-.46 13.25-2.81 15.87-2.69 2.99-7.97 3.67-14.49 3.67-6.52 0-11.8-.69-14.49-3.67-2.35-2.62-3.19-9.57-2.81-15.87Z"/><path class="cls-16" d="M187.42 139.98h3.34c1.29 0 2.33 1.04 2.33 2.33s-1.04 2.33-2.33 2.33h-3.34c-1.29 0-2.33-1.04-2.33-2.33s1.04-2.33 2.33-2.33ZM201.12 139.98h3.34c1.29 0 2.33 1.04 2.33 2.33s-1.04 2.33-2.33 2.33h-3.34c-1.29 0-2.33-1.04-2.33-2.33s1.04-2.33 2.33-2.33ZM246.24 130.31c0 12.19-4.42 12.19-11.99 12.19v-12.19l-1.04-12.19c7.03 0 13.03 0 13.03 12.19Z"/><path class="cls-21" d="M240.24 131.35c0 5.29-.74 5.84-4.98 5.89-.56 0-1.02-.46-1.02-1.03v-9.72c0-.58.46-1.04 1.02-1.03 4.24.05 4.98.6 4.98 5.89Z"/><path class="cls-28" d="M219.67 148.88c-.72 0-1.36-.53-1.48-1.26-.13-.82.43-1.59 1.25-1.72 2.07-.33 3.1-1.3 4.02-2.66.46-.69 1.39-.87 2.08-.41.69.46.87 1.39.41 2.08-1.05 1.55-2.68 3.41-6.03 3.94-.08.01-.16.02-.24.02Z"/><path class="cls-19" d="M196.64 108.58s3.24-1.68 6.75-4.5c3.79-3.04 7-6.08 11.75-5.35 6.84 1.06 6.19 5.15 2.83 8.41-1.5 1.46-3.59 2.68-5.47 3.19l-15.86-1.75Z"/><path class="cls-6" d="M203.64 111.25a1.499 1.499 0 0 1-.37-2.95c.44-.11 10.74-2.91 12.09-13.5.1-.82.86-1.4 1.68-1.3.82.1 1.4.86 1.3 1.68-1.61 12.64-13.8 15.9-14.32 16.03-.12.03-.25.05-.37.05Z"/><path class="cls-26" d="M194.6 99.62c4.15.38 6.63 3.41 10.29 6.88 4.12 3.9 6.85 3.9 8.25 3.65-5.71 1.71-9.58 2.23-15.83 1.65-5.75-.54-8.65-3.84-8.83-6.75-.21-3.29 2.08-5.79 6.12-5.42Z"/><path class="cls-6" d="M206.54 111.69c-2.34.34-4.68.41-7.46.23-4.08-2.53-6.15-5.76-6.27-5.95-.44-.7-.23-1.63.47-2.07s1.62-.23 2.06.47c.02.03 1.02 1.57 2.98 3.26 1.87 1.61 4.62 3.37 8.22 4.06Z"/><path class="cls-18" d="M194.6 99.62c4.15.38 6.63 3.41 10.29 6.88 4.12 3.9 6.85 3.9 8.25 3.65-5.71 1.71-9.58 2.23-15.83 1.65-5.75-.54-8.65-3.84-8.83-6.75-.21-3.29 2.08-5.79 6.12-5.42Z"/><path class="cls-20" d="M143.6 206H98.19l-8-39.46c-.27-1.32.74-2.55 2.09-2.55h42.8L143.6 206Z"/><path class="cls-27" d="M148.88 206h-5.9l-8.64-42.01h4.16c1.01 0 1.88.71 2.09 1.7l8.29 40.31Z"/><path class="cls-27" d="m145.37 201.03-1.62 4.97h39.57v-1.78c0-1.76-1.43-3.2-3.2-3.2h-34.75Z"/><path class="cls-30" d="M121.29 184.33c-2.2-1.25-3.92-3.28-4.73-5.56l-1.38-3.89a.505.505 0 0 0-.45-.33c-.19 0-.33.14-.32.33l.21 3.89c.12 2.28-.77 4.31-2.46 5.56l-.44.32c-.1.07-.14.2-.11.33v.02c.03.13.12.26.25.33l.57.32c2.2 1.25 3.92 3.28 4.73 5.56l1.38 3.89c.07.19.26.33.45.33s.33-.14.32-.33l-.21-3.89c-.12-2.28.77-4.31 2.46-5.56l.44-.32c.1-.07.14-.2.11-.33v-.02a.514.514 0 0 0-.25-.33l-.57-.32Z"/><path class="cls-23" d="M320.06 134.82c-1.87 0-3.53-1.31-3.92-3.21-1.01-5-2.27-7.94-3.75-8.72-1.5-.79-4.65-.19-9.36 1.79-2.04.85-4.38-.1-5.24-2.14-.85-2.04.1-4.38 2.14-5.24 5.24-2.2 11.27-4.1 16.21-1.48 4.92 2.61 6.72 8.65 7.84 14.21a4 4 0 0 1-3.92 4.79Z"/><path class="cls-11" d="M309.07 122.72c-.9.15-1.95.44-3.13.84-1.34-2.13-1.68-4.96-.79-7.49.09-.26.19-.5.3-.74 1.58-.43 3.18-.72 4.75-.76-1.39.58-2 1.86-2.22 2.5-.71 2.01-.26 4.27 1.09 5.65ZM321.93 122.8c-.81-.74-2.12-1-3.28-.83-1.79.27-3.64 1.58-3.9 4.46-.64-1.72-1.35-2.86-2.12-3.39 1.18-2.37 3.36-3.71 5.59-4.04.52-.08 1.03-.1 1.53-.07.89 1.15 1.6 2.47 2.18 3.87Z"/><circle class="cls-16" cx="321.47" cy="136" r="9.26" transform="rotate(-62.69 321.48 136.002)"/><path class="cls-17" d="M87.51 108.86c4.11 2.95 4.85 7.14 3.96 13.09-1.07 7.18-6.03 12.2-10.75 12.17s-12.66-3.76-8.93-16.73 13.14-10.38 15.72-8.53Z"/><path class="cls-27" d="M28.7 54.59a12.498 12.498 0 0 1-5.6-8.68l-.91-6.06c-.04-.3-.3-.52-.6-.52s-.56.22-.6.52l-.91 6.06c-.53 3.56-2.58 6.72-5.6 8.68l-.79.51c-.17.11-.28.31-.28.51v.04c0 .21.11.4.28.51l.79.51c3.03 1.95 5.07 5.11 5.6 8.68l.91 6.06c.04.3.3.52.6.52s.56-.22.6-.52l.91-6.06c.53-3.56 2.58-6.72 5.6-8.68l.79-.51c.17-.11.28-.31.28-.51v-.04c0-.21-.11-.4-.28-.51l-.79-.51Z"/><path class="cls-19" d="M358.59 54.25a6.024 6.024 0 0 1-2.7-4.18l-.44-2.92a.3.3 0 0 0-.29-.25c-.15 0-.27.11-.29.25l-.44 2.92a6.036 6.036 0 0 1-2.7 4.18l-.38.24c-.08.05-.13.15-.13.25v.02c0 .1.05.19.13.25l.38.24c1.46.94 2.45 2.47 2.7 4.18l.44 2.92a.3.3 0 0 0 .29.25c.15 0 .27-.11.29-.25l.44-2.92a6.036 6.036 0 0 1 2.7-4.18l.38-.24c.08-.05.13-.15.13-.25v-.02c0-.1-.05-.19-.13-.25l-.38-.24Z"/><path class="cls-15" d="M9.62 82.61a7.898 7.898 0 0 1-3.53-5.46l-.57-3.82a.387.387 0 0 0-.38-.33c-.19 0-.35.14-.38.33l-.57 3.82a7.898 7.898 0 0 1-3.53 5.46l-.49.32c-.11.07-.18.19-.18.32v.02c0 .13.07.25.18.32l.49.32a7.898 7.898 0 0 1 3.53 5.46l.57 3.82c.03.19.19.33.38.33s.35-.14.38-.33l.57-3.82a7.898 7.898 0 0 1 3.53-5.46l.49-.32c.11-.07.18-.19.18-.32v-.02c0-.13-.07-.25-.18-.32l-.49-.32Z"/><path d="M179.75 32.83a6.024 6.024 0 0 1-2.7-4.18l-.44-2.92a.3.3 0 0 0-.29-.25c-.15 0-.27.11-.29.25l-.44 2.92a6.036 6.036 0 0 1-2.7 4.18l-.38.24c-.08.05-.13.15-.13.25v.02c0 .1.05.19.13.25l.38.24c1.46.94 2.45 2.47 2.7 4.18l.44 2.92a.3.3 0 0 0 .29.25c.15 0 .27-.11.29-.25l.44-2.92a6.036 6.036 0 0 1 2.7-4.18l.38-.24c.08-.05.13-.15.13-.25v-.02c0-.1-.05-.19-.13-.25l-.38-.24Z" style="fill:#808aff"/><path class="cls-17" d="M379.09 35.37c-2.6-1.67-4.35-4.39-4.81-7.44l-.78-5.2a.527.527 0 0 0-1.04 0l-.78 5.2c-.46 3.06-2.21 5.77-4.81 7.44l-.68.43c-.15.1-.24.26-.24.44v.03c0 .18.09.34.24.44l.68.43c2.6 1.67 4.35 4.39 4.81 7.44l.78 5.2a.527.527 0 0 0 1.04 0l.78-5.2c.46-3.06 2.21-5.77 4.81-7.44l.68-.43c.15-.1.24-.26.24-.44v-.03c0-.18-.09-.34-.24-.44l-.68-.43Z"/><path class="cls-16" d="M252.27 144.19c1.71 4.97 5.14 7.92 9.58 7.33 5.58-.75 8.47-6.64 7.14-11.92-1.58-6.27-11.62-12.35-16.97-9.56-2.31 1.2-2.56 6.01.25 14.15Z"/><path class="cls-14" d="M252.79 145.85c-3.52-7.22-3.1-14.49-1.17-15 2.44-.64 7.75 5.94 9.89 10.36 1.95 4.03 2.17 8.18.33 9.61-1.64 1.28-6.28.72-9.06-4.97Z"/><path class="cls-16" d="M277.2 147.22c1.46 4.88 5.53 6.99 9.42 6.04 4.33-1.06 8.5-4.44 7.44-11.61-1.14-7.75-9.68-13.19-14.06-11.61-3.11 1.13-5.31 8.82-2.81 17.18Z"/><path class="cls-14" d="M276.56 145.62c-1.29-7.05.55-13.86 2.95-14.3 2.86-.53 7.94 4.89 9.25 11.53 1.19 6.06-1.02 10.21-3.95 10.6s-7.13-1.72-8.25-7.83Z"/></svg>
