<svg width="33" height="22" viewBox="0 0 33 22" fill="none" xmlns="http://www.w3.org/2000/svg">
<g id="Full Color">
<g clip-path="url(#clip0_7_463)">
<rect id="Rectangle 2" x="0.689941" width="32" height="22" fill="#EFEFEF"/>
<g id="XMLID_1_">
<path id="XMLID_17_" d="M9.08647 2.40625H15.3244C16.199 2.40625 16.7385 3.18873 16.5359 4.14901L13.63 17.856C13.4265 18.8133 12.5537 19.5938 11.6837 19.5938H5.44303C4.57028 19.5938 4.02983 18.8133 4.2325 17.856L7.1374 4.14901C7.34189 3.18873 8.21372 2.40625 9.08647 2.40625Z" fill="#E72124"/>
<path id="XMLID_16_" d="M14.8085 2.40625H21.9822C22.854 2.40625 22.4605 3.18873 22.256 4.14901L19.3502 17.856C19.1476 18.8133 19.2115 19.5938 18.3387 19.5938H11.165C10.2905 19.5938 9.75003 18.8133 9.95543 17.856L12.8585 4.14901C13.0648 3.18873 13.9339 2.40625 14.8085 2.40625Z" fill="#153362"/>
<path id="XMLID_15_" d="M21.6984 2.40625H27.9354C28.8082 2.40625 29.3514 3.18873 29.1469 4.14901L26.2411 17.856C26.0375 18.8133 25.1638 19.5938 24.292 19.5938H18.055C17.1831 19.5938 16.6418 18.8133 16.8453 17.856L19.7511 4.14901C19.9547 3.18873 20.8266 2.40625 21.6984 2.40625Z" fill="#006A65"/>
<path id="XMLID_2_" d="M10.2448 7.72271C9.57381 7.73074 9.37754 7.72271 9.31454 7.70663C9.28807 7.83219 8.83618 10.1264 8.83618 10.1264C8.73849 10.5915 8.66637 10.924 8.42719 11.1339C8.28934 11.2594 8.13049 11.3217 7.94517 11.3217C7.64939 11.3217 7.47593 11.159 7.44489 10.8486L7.44216 10.7452C7.44216 10.7452 7.53071 10.1234 7.53345 10.1184C7.53345 10.1184 8.00542 8.02806 8.09124 7.75183C8.09306 7.73576 8.0958 7.72974 8.09945 7.7217C7.17376 7.73074 7.00943 7.7217 6.99848 7.70563C6.99391 7.72672 6.96744 7.8563 6.96744 7.8563L6.48268 10.2108L6.43978 10.4137L6.36035 11.0666C6.36035 11.2605 6.39504 11.4161 6.46351 11.5528C6.68718 11.9797 7.31617 12.0399 7.67312 12.0399C8.13141 12.0399 8.55956 11.9334 8.85078 11.7376C9.35654 11.4101 9.49074 10.8978 9.60576 10.4428L9.66236 10.2078C9.66236 10.2078 10.1526 8.0371 10.2366 7.75384C10.2375 7.73576 10.2402 7.73074 10.2448 7.72271ZM11.91 9.47249C11.7922 9.47249 11.5758 9.50464 11.3832 9.6091C11.3111 9.64928 11.2435 9.69348 11.1751 9.74069L11.2371 9.48756L11.2034 9.44537C10.7935 9.53678 10.7003 9.55185 10.3233 9.6091L10.2932 9.6322C10.2457 10.033 10.2101 10.3333 10.0449 11.1248C9.98188 11.4111 9.91707 11.7054 9.85225 11.9967L9.86868 12.0339C10.2622 12.0128 10.3772 12.0128 10.714 12.0178L10.7433 11.9857C10.7834 11.7436 10.7907 11.6884 10.8875 11.1982C10.9304 10.9641 11.0226 10.4549 11.0692 10.2731C11.155 10.2319 11.2362 10.1917 11.3166 10.1917C11.5055 10.1917 11.4818 10.3705 11.4763 10.4448C11.469 10.5654 11.3978 10.9611 11.3266 11.3026L11.281 11.5196C11.2481 11.6843 11.2116 11.841 11.1787 12.0048L11.1933 12.0339C11.5758 12.0128 11.6899 12.0128 12.0186 12.0178L12.0569 11.9857C12.1163 11.609 12.1345 11.5076 12.2395 10.9591L12.2925 10.706C12.3947 10.2118 12.4458 9.96167 12.3682 9.75776C12.2861 9.52774 12.0889 9.47249 11.91 9.47249ZM13.7659 9.9898C13.5633 10.033 13.4336 10.0591 13.3067 10.0822C13.178 10.1033 13.0538 10.1234 12.8557 10.1525L12.8402 10.1686L12.8274 10.1806C12.8064 10.3434 12.7928 10.48 12.7654 10.6457C12.7389 10.8145 12.7051 11.0083 12.6476 11.2826C12.6029 11.4935 12.58 11.5678 12.5545 11.6422C12.5307 11.7175 12.5034 11.7908 12.4541 11.9967L12.465 12.0148L12.476 12.0329C12.6595 12.0228 12.7772 12.0168 12.9023 12.0148C13.0265 12.0118 13.1543 12.0148 13.3515 12.0168L13.3697 12.0038L13.3871 11.9847C13.4163 11.7968 13.419 11.7476 13.4373 11.6542C13.4546 11.5568 13.4838 11.4222 13.5578 11.0606C13.5916 10.8868 13.6326 10.72 13.6682 10.5463C13.7066 10.3705 13.744 10.2007 13.7805 10.03L13.775 10.0129L13.7659 9.9898ZM15.4247 9.48857C15.2366 9.48857 14.7884 9.50966 14.4378 9.86725C14.1895 10.1194 14.0727 10.4679 14.0005 10.7994C13.9312 11.1409 13.8472 11.7506 14.3593 11.9797C14.5191 12.052 14.7446 12.0731 14.8906 12.0731C15.2668 12.0731 15.6502 11.9596 15.9368 11.6231C16.1614 11.3509 16.2618 10.9481 16.2956 10.7783C16.4125 10.2228 16.3248 9.96569 16.2116 9.80799C16.0372 9.56691 15.7378 9.48857 15.4247 9.48857ZM15.4366 10.7381C15.421 10.8285 15.3471 11.1771 15.2458 11.3247C15.1773 11.4342 15.0924 11.5005 14.9993 11.5005C14.9737 11.5005 14.8121 11.5005 14.8094 11.2363C14.8057 11.1068 14.8313 10.9712 14.8632 10.8255C14.9472 10.4056 15.0513 10.0531 15.3115 10.0531C15.5141 10.0521 15.5278 10.3162 15.4366 10.7381ZM24.3493 12.0239C24.4059 11.6512 24.4625 11.2896 24.6123 10.5724C24.6826 10.2309 24.7583 9.88935 24.8341 9.55185L24.8204 9.51368C24.4114 9.59604 24.3037 9.61312 23.9111 9.67741L23.8792 9.70252C23.8755 9.73667 23.871 9.76982 23.8673 9.80296C23.8052 9.69448 23.7158 9.60107 23.5779 9.5418C23.4063 9.46948 22.9937 9.56892 22.6413 9.92149C22.3948 10.1726 22.2743 10.5181 22.2058 10.8496C22.1355 11.1841 22.0515 11.7948 22.5628 12.0138C22.7244 12.0881 22.8704 12.1102 23.0156 12.1042C23.1708 12.0952 23.315 12.0088 23.4483 11.8862C23.4364 11.9375 23.4246 11.9877 23.4118 12.0379L23.4355 12.0691C23.8025 12.053 23.9148 12.053 24.3119 12.054L24.3493 12.0239ZM23.7486 10.5674C23.7349 10.6377 23.7194 10.711 23.7021 10.7934C23.6765 10.9159 23.6482 11.0365 23.6199 11.158C23.5916 11.2404 23.5597 11.3177 23.5241 11.3689C23.4547 11.4734 23.2967 11.5377 23.2036 11.5377C23.1781 11.5377 23.0192 11.5377 23.0128 11.2765C23.011 11.15 23.0366 11.0154 23.0649 10.8677C23.1525 10.4579 23.2538 10.1073 23.5149 10.1073C23.6811 10.1093 23.7669 10.2781 23.7486 10.5674ZM18.4273 9.47249C18.3095 9.47249 18.0931 9.50464 17.8996 9.6091C17.8302 9.64928 17.7599 9.69348 17.6924 9.74069L17.7544 9.48756L17.7207 9.44537C17.3089 9.53678 17.2195 9.55185 16.8397 9.6091L16.8105 9.6322C16.7648 10.033 16.7265 10.3333 16.5631 11.1248C16.501 11.4111 16.438 11.7054 16.3714 11.9967L16.3905 12.0339C16.7776 12.0128 16.8954 12.0128 17.2304 12.0178L17.2615 11.9857C17.3016 11.7436 17.3089 11.6884 17.4011 11.1982C17.4468 10.9641 17.5417 10.4549 17.5883 10.2731C17.6714 10.2319 17.7544 10.1917 17.8375 10.1917C18.0219 10.1917 18.0018 10.3705 17.9945 10.4448C17.9854 10.5654 17.9179 10.9611 17.8457 11.3026L17.8001 11.5196C17.7645 11.6843 17.728 11.841 17.6951 12.0048L17.7088 12.0339C18.095 12.0128 18.2091 12.0128 18.5359 12.0178L18.5761 11.9857C18.6336 11.609 18.6491 11.5076 18.7559 10.9591L18.8061 10.706C18.912 10.2118 18.9631 9.96167 18.8865 9.75776C18.8025 9.52774 18.6044 9.47249 18.4273 9.47249ZM22.7344 8.97026C22.7609 8.85474 22.7791 8.71613 22.7791 8.58052C22.7791 8.39771 22.7472 8.22394 22.6522 8.08231C22.4094 7.71166 21.9329 7.70764 21.376 7.70362L21.1048 7.70663C20.3946 7.71567 20.1134 7.71065 19.9947 7.69458C19.9847 7.75284 19.9637 7.85429 19.9637 7.85429L19.7117 9.15006C19.7117 9.15006 19.1056 11.9003 19.0763 12.0289C19.6935 12.0208 19.9491 12.0208 20.0522 12.0329C20.0787 11.9033 20.223 11.1329 20.223 11.1329C20.223 11.1329 20.3453 10.5714 20.3517 10.5513C20.3517 10.5513 20.3937 10.494 20.432 10.4679H20.4886C21.0209 10.4679 21.6243 10.4679 22.0981 10.0882C22.4176 9.82607 22.6367 9.43935 22.7344 8.97026ZM21.732 9.04961C21.6736 9.33589 21.5056 9.57997 21.2883 9.69348C21.1058 9.79392 20.8876 9.80196 20.6612 9.80196H20.5133L20.5242 9.73968C20.5242 9.73968 20.7954 8.44693 20.7935 8.44994L20.8018 8.38566L20.8072 8.33443L20.915 8.34548C20.915 8.34548 21.4691 8.39771 21.4837 8.39771C21.7037 8.49113 21.795 8.73521 21.732 9.04961ZM27.5537 9.50966L27.5226 9.47048C27.1173 9.56189 27.0434 9.57595 26.6709 9.62919L26.6444 9.65832C26.6435 9.66234 26.6435 9.67037 26.6398 9.67741L26.638 9.67037C26.3596 10.3755 26.3705 10.2218 26.1441 10.7743C26.1405 10.7502 26.1405 10.7321 26.1405 10.707L26.0848 9.50966L26.0501 9.47048C25.6265 9.56189 25.6146 9.57595 25.2239 9.62919L25.191 9.65832C25.1901 9.67439 25.1883 9.69147 25.1865 9.70553L25.1901 9.71256C25.2367 9.98779 25.2276 9.92551 25.2741 10.3604C25.2979 10.5724 25.3289 10.7884 25.3517 10.9973C25.3892 11.3509 25.412 11.5236 25.4594 12.061C25.1938 12.5381 25.1317 12.721 24.8807 13.1418L24.8816 13.1448L24.7017 13.4582C24.6798 13.4904 24.6616 13.5115 24.6351 13.5205C24.6068 13.5366 24.5694 13.5426 24.5182 13.5426H24.4178L24.2699 14.081L24.7775 14.089C25.076 14.088 25.2623 13.9354 25.3636 13.7294L25.6822 13.1308H25.6785L25.7105 13.0876C25.9232 12.5803 27.5537 9.50966 27.5537 9.50966ZM13.7714 9.2947C13.5852 9.17316 13.2656 9.21033 13.0465 9.37807C12.8274 9.5418 12.801 9.76982 12.9854 9.89035C13.1689 10.0099 13.4939 9.97473 13.7111 9.80799C13.9257 9.64024 13.9558 9.41022 13.7714 9.2947Z" fill="white"/>
</g>
</g>
</g>
<defs>
<clipPath id="clip0_7_463">
<rect x="0.689941" width="32" height="22" rx="2" fill="white"/>
</clipPath>
</defs>
</svg>
