<svg width="114" height="162" viewBox="0 0 114 162" fill="none" xmlns="http://www.w3.org/2000/svg">
<mask id="mask0_406_3201" style="mask-type:luminance" maskUnits="userSpaceOnUse" x="-1" y="0" width="115" height="162">
<path d="M113.2 0H-0.799805V162H113.2V0Z" fill="white"/>
</mask>
<g mask="url(#mask0_406_3201)">
<path d="M83.8001 80.0999C83.8001 80.0999 56.8001 71.1999 50.7001 44.8999C43.6001 14.1999 70.0001 -8.90015 70.0001 -8.90015L39.2001 -4.80015C39.2001 -4.80015 23.7001 2.19985 7.40005 34.1999C-8.49995 65.3999 12.7001 115.6 21.5001 126.5C32.5001 140 54.9001 160.9 79.6001 156C100.6 151.8 114.1 131.3 109.9 110.4C106.1 91.2999 83.8001 80.0999 83.8001 80.0999Z" fill="#FFA9FF"/>
<mask id="mask1_406_3201" style="mask-type:luminance" maskUnits="userSpaceOnUse" x="1" y="-9" width="110" height="166">
<path d="M83.8001 80.0999C83.8001 80.0999 56.8001 71.1999 50.7001 44.8999C43.6001 14.1999 70.0001 -8.90015 70.0001 -8.90015L39.2001 -4.80015C39.2001 -4.80015 23.7001 2.19985 7.40005 34.1999C-8.49995 65.3999 12.7001 115.6 21.5001 126.5C32.5001 140 54.9001 160.9 79.6001 156C100.6 151.8 114.1 131.3 109.9 110.4C106.1 91.2999 83.8001 80.0999 83.8001 80.0999Z" fill="white"/>
</mask>
<g mask="url(#mask1_406_3201)">
<path d="M-27.2998 39.0999L55.7002 40.1999L60.3002 52.0999L-18.5998 118.7L-27.2998 39.0999Z" fill="#FF6DBB"/>
</g>
<path d="M62.8996 78.1C40.5996 82.6 26.1996 104.3 30.6996 126.6C35.1996 148.9 56.8996 163.3 79.1996 158.8C101.5 154.3 115.9 132.6 111.4 110.3C106.9 88 85.1996 73.6 62.8996 78.1ZM75.0996 138.6C63.9996 140.8 53.0996 133.6 50.8996 122.5C48.6996 111.4 55.8996 100.5 66.9996 98.3C78.0996 96.1 88.9996 103.3 91.1996 114.4C93.4996 125.5 86.2996 136.4 75.0996 138.6Z" fill="white"/>
<path d="M70.8996 128.7C76.5881 128.7 81.1996 124.088 81.1996 118.4C81.1996 112.711 76.5881 108.1 70.8996 108.1C65.2111 108.1 60.5996 112.711 60.5996 118.4C60.5996 124.088 65.2111 128.7 70.8996 128.7Z" fill="white"/>
<path d="M30.3 80.3999C33.5 86.1999 38.1 91.5999 43.1 96.0999C44.8 97.5999 46.5 98.9999 48.3 100.3C55.3 105.6 48.1 115.9 40.7 111.1C38.3 109.2 36.3 106.9 34.3 104.7C29 98.4999 24.6 91.8999 21.6 84.2999C19.4 78.5999 27.4 75.0999 30.3 80.3999Z" fill="white"/>
<path d="M21.6 72.4C19.7 72.8 17.7 71.6999 17.1 69.6999C16.4 67.3999 16.3 65.9 16.1 63.5999V63C15.9 60.8 17.6 58.9 19.7 58.8C21.9 58.6 23.8 60.3 23.9 62.4V63C24 65 24.1 65.7999 24.6 67.1999C25.3 69.2999 24.1 71.4999 22 72.0999C21.8 72.2999 21.7 72.4 21.6 72.4Z" fill="white"/>
<path d="M47.6 75.3001C50.6 78.9001 54.4 82.2001 59.2 82.8001C60.1 82.9001 61 83 61.9 83H63.3C66.5 83 69.2 85.6001 69.1 88.8001C69.1 92.3001 66 95 62.6 94.6C62.3 94.6 61 94.4 60.7 94.4C55.3 93.8 50.7 91.7 46.6 88.2C46.4 88 46.2 87.8 46 87.6C45.4 87.1 44.7 86.4001 44.2 85.8001C42.7 84.2001 41.4 82.5 40.2 80.7C37 75.8 43.8 70.8001 47.6 75.3001Z" fill="white"/>
<path d="M17.5 107.1L34.7 103L37.2 116.9L29.8 124.6L17.5 107.1Z" fill="white"/>
<path d="M30.5998 100.2L33.7998 104.3C35.5998 106.6 35.2998 109.9 33.1998 111.9C30.5998 114.3 26.1998 114.3 23.8998 111.3C23.8998 111.3 21.8998 108.8 20.3998 106.1C18.9998 103.6 25.2998 104.3 25.2998 104.3L30.5998 100.2Z" fill="#FFA9FF"/>
<path d="M41.8 83.2L46.2 87.6C47.8 89.3 47.8 92 46.2 93.6C44.4 95.4 41.4 95.3 39.8 93.2L37 89.7L35 84.4L41.8 83.2Z" fill="#FFA9FF"/>
<path d="M60.5998 158.2C39.5998 153.2 17.4998 127.8 10.5998 102.9C10.0998 101 10.9998 98.9999 12.7998 98.0999C14.7998 97.1999 17.1998 97.9999 18.0998 99.9999C20.6998 105.5 23.6998 110.8 27.0998 115.8C31.2998 121.9 36.4998 127.4 42.7998 131.3C46.0998 142.2 53.5998 149.3 60.5998 158.2Z" fill="white"/>
<path d="M97.4005 30.0999C97.4005 30.0999 97.5005 15.3999 102.801 6.2999C109.001 -4.5001 118.701 -14.1001 118.701 -14.1001C118.701 -14.1001 107.301 -12.2001 94.1005 -6.7001C80.1005 -0.800097 67.1005 14.3999 64.5005 25.1999C62.5005 33.3999 62.3005 42.7999 71.3005 49.0999C78.9005 54.3999 89.4005 52.4999 94.7005 44.7999C99.5005 37.8999 97.4005 30.0999 97.4005 30.0999Z" fill="#FFA9FF"/>
<mask id="mask2_406_3201" style="mask-type:luminance" maskUnits="userSpaceOnUse" x="63" y="-15" width="56" height="68">
<path d="M97.4005 30.0999C97.4005 30.0999 97.5005 15.3999 102.801 6.2999C109.001 -4.5001 118.701 -14.1001 118.701 -14.1001C118.701 -14.1001 107.301 -12.2001 94.1005 -6.7001C80.1005 -0.800097 67.1005 14.3999 64.5005 25.1999C62.5005 33.3999 62.3005 42.7999 71.3005 49.0999C78.9005 54.3999 89.4005 52.4999 94.7005 44.7999C99.5005 37.8999 97.4005 30.0999 97.4005 30.0999Z" fill="white"/>
</mask>
<g mask="url(#mask2_406_3201)">
<path d="M81.6005 -13.8L112.2 10.6L110.5 14.2L67.0005 7.99995L81.6005 -13.8Z" fill="#FF6DBB"/>
</g>
<path d="M93.1002 22.7998C86.5002 15.9998 75.6002 15.7998 68.7002 22.3998C61.9002 28.9998 61.7002 39.8998 68.3002 46.7998C74.9002 53.5998 85.8002 53.7998 92.7002 47.1998C99.5002 40.5998 99.7002 29.6998 93.1002 22.7998ZM74.5002 40.7998C71.2002 37.3998 71.3002 31.8998 74.7002 28.5998C78.1002 25.2998 83.6002 25.3998 86.9002 28.7998C90.2002 32.1998 90.1002 37.6998 86.7002 40.9998C83.3002 44.2998 77.8002 44.1998 74.5002 40.7998Z" fill="white"/>
<path d="M80.7004 38.9999C83.0752 38.9999 85.0004 37.0747 85.0004 34.6999C85.0004 32.3251 83.0752 30.3999 80.7004 30.3999C78.3256 30.3999 76.4004 32.3251 76.4004 34.6999C76.4004 37.0747 78.3256 38.9999 80.7004 38.9999Z" fill="white"/>
<path d="M84.9003 11.7998C83.6003 14.2998 82.7003 17.0998 82.2003 19.8998C82.0003 20.7998 81.9003 21.7998 81.9003 22.6998C81.6003 26.3998 76.3003 26.1998 76.4003 22.4998C76.5003 21.1998 76.9003 19.9998 77.2003 18.7998C78.2003 15.4998 79.5003 12.4998 81.5003 9.69984C83.1003 7.59984 86.1003 9.59984 84.9003 11.7998Z" fill="white"/>
<path d="M85.8003 6.8999C85.2003 6.2999 85.2003 5.2999 85.7003 4.6999C86.4003 3.8999 86.9003 3.4999 87.6003 2.9999L87.8003 2.8999C88.5003 2.3999 89.6003 2.4999 90.1003 3.1999C90.6003 3.8999 90.5003 4.9999 89.8003 5.4999L89.6003 5.5999C88.9003 6.0999 88.7003 6.2999 88.3003 6.7999C87.7003 7.4999 86.7003 7.5999 86.0003 6.9999C85.8003 6.9999 85.8003 6.9999 85.8003 6.8999Z" fill="white"/>
<path d="M90.6005 16.7998C90.0005 18.6998 89.7005 20.7998 90.6005 22.5998C90.7005 22.8998 91.0005 23.2998 91.2005 23.5998L91.5005 24.0998C92.2005 25.1998 91.9005 26.7998 90.8005 27.4998C89.6005 28.2998 87.9005 27.7998 87.3005 26.4998C87.2005 26.3998 87.0005 25.8998 86.9005 25.7998C85.9005 23.7998 85.6005 21.5998 85.9005 19.3998C85.9005 19.2998 85.9005 19.1998 86.0005 18.9998C86.1005 18.6998 86.1005 18.2998 86.2005 17.9998C86.4005 17.0998 86.7005 16.2998 87.1005 15.3998C88.0005 13.1998 91.4005 14.3998 90.6005 16.7998Z" fill="white"/>
<path d="M72.6002 13.3999L77.9002 18.4999L73.6002 22.4999L69.2002 21.6999L72.6002 13.3999Z" fill="white"/>
<path d="M78.0002 16.3998L77.3002 18.3998C76.9002 19.5998 75.7002 20.1998 74.5002 19.8998C73.0002 19.5998 72.0002 17.9998 72.5002 16.4998C72.5002 16.4998 73.0002 15.1998 73.6002 14.0998C74.2002 13.0998 75.3002 15.3998 75.3002 15.3998L78.0002 16.3998Z" fill="#FFA9FF"/>
<path d="M86.5003 16.4998L85.9003 18.9998C85.7003 19.9998 84.7003 20.5998 83.8003 20.3998C82.7003 20.1998 82.1003 19.0998 82.5003 17.9998L83.1003 16.1998L84.6003 14.2998L86.5003 16.4998Z" fill="#FFA9FF"/>
<path d="M64.3003 40.0998C61.3003 31.5998 65.3003 17.9998 72.5003 9.89979C73.1003 9.29979 74.0003 9.09979 74.7003 9.59979C75.5003 10.0998 75.7003 11.0998 75.2003 11.8998C73.9003 14.0998 72.6003 16.2998 71.7003 18.5998C70.5003 21.4998 69.7003 24.4998 69.8003 27.5998C66.7003 31.3998 65.9003 35.5998 64.3003 40.0998Z" fill="white"/>
</g>
</svg>
