<svg fill="none" height="251" viewBox="-30 0 357 251" width="357" xmlns="http://www.w3.org/2000/svg"><path d="m301.216 14.0266c0-7.75248-6.235-14.0266-13.939-14.0266h-14.53c-7.704 0-13.938 6.27412-13.938 14.0266 0 1.5505-1.255 2.8126-2.795 2.8126h-4.354c-6.611-.0181-11.95 5.3726-11.95 12.0073h19.116 42.408 19.098c0-5.3185-4.282-9.6095-9.549-9.6095h-4.371c-2.867 0-5.196-2.3437-5.196-5.2104z" fill="#fff" fill-opacity=".1"/><path d="m239.769 45.8293h-39.942c0-4.1011 3.294-7.4323 7.349-7.4323h4.238c.702 0 1.273-.5774 1.273-1.288 0-4.9895 3.997-9.0314 8.93-9.0314h.351c4.933 0 8.93 4.0419 8.93 9.0314v2.7093c0 1.4214 1.142 2.591 2.561 2.591h2.914c1.873-.0148 3.396 1.525 3.396 3.42z" fill="#fff" fill-opacity=".15"/><path d="m46.8362 163.379h65.0898c0-5.81-4.737-10.529-10.569-10.529-5.8322 0-10.24 0-10.24 0-1.0106 0-1.8317-.818-1.8317-1.825 0-7.068-5.7477-12.794-12.8429-12.794h-.5053c-7.0951 0-12.8428 5.726-12.8428 12.794v3.839c0 2.013-1.6422 3.67-3.6845 3.67-2.0422 0-7.6891 0-7.6891 0-2.6949-.021-4.8845 2.16-4.8845 4.845z" fill="#fff" fill-opacity=".15"/><path d="m141.512 170.776h-20.71c0-1.88 1.561-3.407 3.483-3.407h3.785c.333 0 .603-.264.603-.59 0-2.287 1.895-4.139 4.234-4.139h.166c2.339 0 4.233 1.852 4.233 4.139v1.242c0 .651.542 1.187 1.215 1.187h1.381c.888-.006 1.61.699 1.61 1.568z" fill="#fff" fill-opacity=".05"/><path d="m357.421 251h-114.811c0-10.267 8.356-18.608 18.643-18.608h24.234c1.783 0 3.231-1.445 3.231-3.224 0-12.492 10.138-22.611 22.654-22.611h.891c12.515 0 22.653 10.119 22.653 22.611v6.783c0 3.558 2.897 6.487 6.499 6.487h7.391c4.753-.037 8.615 3.817 8.615 8.562z" fill="#fff" fill-opacity=".05"/><path d="m0 250.924h76.1844c0-6.322-6.2824-11.458-14.0167-11.458h-8.0833c-1.3403 0-2.4292-.89-2.4292-1.986 0-7.692-7.6226-13.923-17.0323-13.923h-.6701c-9.4096 0-17.0322 6.231-17.0322 13.923v4.177c0 2.191-2.1779 3.995-4.8863 3.995h-5.55646c-3.57398-.023-6.47784 2.351-6.47784 5.272z" fill="#fff" fill-opacity=".05"/><path d="m270.3 180.1c.234.005.462-.073.645-.219s.308-.352.355-.581l6.5-32c.029-.132.031-.268.006-.4-.024-.132-.076-.258-.15-.37-.075-.113-.172-.208-.284-.282-.113-.074-.239-.124-.372-.148-.131-.029-.267-.031-.4-.006-.132.024-.258.076-.37.15-.112.075-.208.172-.282.284-.074.113-.124.239-.148.372l-6.5 32c-.033.263.029.529.176.749.147.221.369.381.624.451z" fill="#dae2ed"/><path d="m191.8 130.8h19.3c12.1 0 18-5.8 18-5.8v25.2h-12.1c-1.1-6.3-6.6-9.1-13.3-9.1h-11.8c-.735.11-1.486.061-2.2-.144-.715-.205-1.378-.561-1.943-1.044-.566-.482-1.021-1.081-1.336-1.754-.314-.674-.481-1.407-.488-2.151-.007-.743.145-1.479.446-2.159.302-.68.746-1.287 1.302-1.78.556-.494 1.211-.862 1.922-1.081.71-.219 1.46-.282 2.197-.187z" fill="#80a7ff"/><path d="m207.1 182.8h4.7c.584 0 1.143.232 1.556.644.412.413.644.972.644 1.556v9.8c.026 1.292.55 2.523 1.464 3.436.913.914 2.145 1.438 3.436 1.464 1.292-.026 2.523-.55 3.437-1.464.913-.913 1.437-2.144 1.463-3.436v-41.2c-.026-1.441-.617-2.815-1.646-3.825-1.028-1.01-2.412-1.575-3.854-1.575h-16.6c-1.432 0-2.806.569-3.818 1.582-1.013 1.012-1.582 2.386-1.582 3.818v18.3c-.013 1.427.256 2.842.793 4.164s1.331 2.524 2.335 3.537c1.004 1.014 2.199 1.818 3.516 2.367s2.729.832 4.156.832z" fill="#80a7ff"/><path d="m200.9 134.8c2.203-3.029 5.091-5.495 8.427-7.198s7.027-2.595 10.773-2.602h32.1c3.793 0 7.43 1.507 10.112 4.188 2.682 2.682 4.188 6.319 4.188 10.112v26.2c0 2.529-.997 4.956-2.776 6.753-1.779 1.798-4.195 2.821-6.724 2.847h-46.5c-3.775-.026-7.387-1.545-10.047-4.224-2.66-2.678-4.153-6.301-4.153-10.076v-12c-.007-5.039 1.605-9.947 4.6-14z" fill="#9cb8ff"/><path clip-rule="evenodd" d="m163.4 246.5c9.061 4.158 19.152 5.535 28.996 3.958 9.843-1.578 18.998-6.04 26.306-12.821s12.441-15.577 14.749-25.276c2.308-9.698 1.688-19.864-1.782-29.21s-9.634-17.453-17.712-23.296c-8.077-5.843-17.707-9.158-27.669-9.528-9.963-.369-19.811 2.224-28.3 7.453-8.488 5.228-15.235 12.857-19.388 21.92-5.511 12.155-5.997 25.994-1.352 38.505 4.645 12.512 14.045 22.681 26.152 28.295z" fill="#4f5d7f" fill-rule="evenodd"/><path clip-rule="evenodd" d="m237 210.5h16.4c.672-.026 1.308-.311 1.774-.796s.727-1.131.726-1.804v-8.8c0-.663-.263-1.299-.732-1.768s-1.105-.732-1.768-.732h-16.4c-.663 0-1.299.263-1.768.732-.468.469-.732 1.105-.732 1.768v8.8c0 .673.26 1.319.726 1.804s1.102.77 1.774.796z" fill="#ff5c5c" fill-rule="evenodd"/><path clip-rule="evenodd" d="m204.9 215.5h39.4c2.016 0 3.949-.801 5.374-2.226s2.226-3.358 2.226-5.374v-13.4c-.026-1.203-.522-2.347-1.382-3.188s-2.015-1.312-3.218-1.312h-42.4z" fill="#b7c2ce" fill-rule="evenodd"/><path clip-rule="evenodd" d="m268.1 188.7h-6.9c-3.82.002-7.486 1.511-10.2 4.2l-3.2 3.3c-5.136 5.093-12.067 7.965-19.3 8h-27.7v-21h67.3z" fill="#000" fill-rule="evenodd"/><path d="m269.9 175.1h-63.8v13.6h63.8c1.804 0 3.533-.716 4.808-1.992 1.276-1.275 1.992-3.005 1.992-4.808 0-1.803-.716-3.533-1.992-4.808-1.275-1.276-3.004-1.992-4.808-1.992z" fill="#000"/><path clip-rule="evenodd" d="m170.8 230.5c5.896 2.72 12.466 3.629 18.879 2.612 6.413-1.018 12.38-3.916 17.144-8.327 4.765-4.411 8.113-10.137 9.621-16.452 1.507-6.316 1.107-12.937-1.152-19.024-2.258-6.088-6.272-11.368-11.534-15.173-5.262-3.804-11.534-5.961-18.023-6.198-6.489-.236-12.902 1.459-18.427 4.87-5.524 3.411-9.912 8.385-12.608 14.292-3.574 7.896-3.888 16.884-.874 25.01 3.015 8.127 9.115 14.735 16.974 18.39z" fill="#7687b2" fill-rule="evenodd"/><path d="m238.9 171.9v-26c0-1.7.8-12.1 2-20.9h11.3c3.651.018 7.159 1.423 9.813 3.929 2.655 2.506 4.259 5.927 4.487 9.571v56.3c-.025 1.292-.55 2.523-1.463 3.437-.914.913-2.145 1.437-3.437 1.463-1.291-.026-2.523-.55-3.436-1.463-.914-.914-1.438-2.145-1.464-3.437v-9.8c0-.583-.232-1.143-.644-1.556-.413-.412-.972-.644-1.556-.644h-4.7c-2.891 0-5.663-1.148-7.707-3.193-2.044-2.044-3.193-4.816-3.193-7.707z" fill="#80a7ff"/><path d="m180.3 171.1 13.7-33.8h-3.7c-.153.014-.306-.004-.452-.053-.145-.049-.278-.128-.391-.232-.113-.103-.203-.229-.265-.37-.061-.14-.093-.292-.092-.445 0-.158.031-.314.091-.459.061-.146.149-.278.261-.39.111-.111.243-.199.389-.26.145-.06.302-.091.459-.091h27.6c.318 0 .624.126.849.351.225.226.351.531.351.849-.025.301-.162.581-.385.785-.222.203-.513.316-.815.315h-19.6c-.539.002-1.065.164-1.51.467-.446.303-.79.733-.99 1.233l-13.3 33c-.085.219-.237.405-.435.531-.198.125-.431.185-.665.169h-.4c-.301-.153-.546-.399-.7-.7-.099-.292-.099-.608 0-.9z" fill="#ebeff7"/><path d="m213.7 130.8h19.4c.757 0 1.507-.151 2.205-.443.698-.293 1.331-.722 1.861-1.262.531-.54.949-1.18 1.229-1.883.281-.703.418-1.455.405-2.212h12.2v25.2h-12.1c-1.1-6.3-6.6-9.1-13.3-9.1h-11.7c-.734.116-1.484.073-2.2-.125s-1.382-.548-1.951-1.025c-.57-.477-1.031-1.071-1.351-1.741-.321-.67-.495-1.401-.509-2.144-.015-.743.13-1.481.425-2.163s.732-1.293 1.283-1.792c.55-.499 1.201-.874 1.909-1.1s1.456-.297 2.194-.21z" fill="#80a7ff"/><g clip-rule="evenodd" fill-rule="evenodd"><path d="m254.9 125.3h-41.4c-3.563 0-6.982-1.409-9.511-3.919-2.528-2.51-3.962-5.918-3.989-9.481v-24.8c.027-3.5631 1.461-6.9713 3.989-9.4814 2.529-2.5102 5.948-3.9187 9.511-3.9186h41.4c3.563-.0001 6.982 1.4084 9.511 3.9186 2.529 2.5101 3.963 5.9183 3.989 9.4814v24.8c-.026 3.563-1.46 6.971-3.989 9.481s-5.948 3.919-9.511 3.919z" fill="#80a7ff"/><path d="m246.2 125.3h-41.5c-3.554 0-6.962-1.412-9.475-3.925s-3.925-5.921-3.925-9.475v-24.8c0-3.554 1.412-6.9623 3.925-9.4753s5.921-3.9247 9.475-3.9247h41.5c3.563-.0001 6.982 1.4084 9.511 3.9186 2.529 2.5101 3.963 5.9183 3.989 9.4814v24.8c-.026 3.563-1.46 6.971-3.989 9.481s-5.948 3.919-9.511 3.919z" fill="#9cb8ff"/><path d="m264.4 108.8h-9.9v-24.1h9.9c1.177-.0001 2.343.2334 3.429.6869 1.087.4535 2.072 1.118 2.9 1.9551.828.837 1.481 1.83 1.923 2.9214.441 1.0913.661 2.2594.648 3.4366v6.2c0 2.36-.938 4.624-2.607 6.293s-3.932 2.607-6.293 2.607z" fill="#9cb8ff"/><path d="m254.5 103.5v-13.4001c0-.2386.095-.4676.264-.6363.168-.1688.397-.2636.636-.2636h9c1.176.0261 2.295.5117 3.118 1.3528.822.8411 1.282 1.9708 1.282 3.1472v6.2c0 1.176-.46 2.306-1.282 3.147-.823.841-1.942 1.327-3.118 1.353h-9c-.239 0-.468-.095-.636-.264-.169-.168-.264-.397-.264-.636z" fill="#80a7ff"/><path d="m238.9 101c-.87 0-1.721-.258-2.444-.742-.724-.4831-1.288-1.1702-1.621-1.9742s-.42-1.6887-.25-2.5422c.169-.8536.588-1.6376 1.204-2.2529.615-.6154 1.399-1.0344 2.253-1.2042.853-.1698 1.738-.0826 2.542.2504s1.491.897 1.975 1.6205c.483.7236.741 1.5743.741 2.4446-.025 1.1589-.497 2.2633-1.317 3.083-.82.82-1.924 1.291-3.083 1.317z" fill="#000"/><path d="m190.9 87.1h30.5c1.432 0 2.806.5689 3.818 1.5816 1.013 1.0127 1.582 2.3862 1.582 3.8184v6.2c-.026 3.563-1.46 6.971-3.989 9.481s-5.948 3.919-9.511 3.919h-14.3c-3.563 0-6.982-1.409-9.511-3.919s-3.963-5.918-3.989-9.481v-6.2c0-1.4322.569-2.8057 1.582-3.8184 1.012-1.0127 2.386-1.5816 3.818-1.5816z" fill="#b8d0ff"/><path d="m207.1 112.1h-8.1c-3.563 0-6.982-1.409-9.511-3.919s-3.962-5.918-3.989-9.481v-6.2c0-1.4322.569-2.8057 1.582-3.8184 1.012-1.0127 2.386-1.5816 3.818-1.5816h24.2c1.432 0 2.806.5689 3.818 1.5816 1.013 1.0127 1.582 2.3862 1.582 3.8184v6.2c0 3.554-1.412 6.962-3.925 9.475s-5.921 3.925-9.475 3.925z" fill="#cbdaf7"/><path d="m203.4 102h5.9c.289 0 .575.057.842.167.267.111.509.273.714.477.204.205.366.447.477.714.11.267.167.553.167.842.014.297-.033.594-.138.873-.104.278-.264.533-.47.748s-.453.386-.726.503c-.274.116-.568.176-.866.176h-5.9c-.297 0-.592-.06-.866-.176-.273-.117-.52-.288-.726-.503s-.366-.47-.47-.748c-.105-.279-.151-.576-.138-.873 0-.289.057-.575.168-.842.11-.267.272-.509.476-.714.205-.204.447-.366.714-.477.267-.11.553-.167.842-.167zm-10.5 0h2.3c.289 0 .575.057.842.167.267.111.509.273.714.477.204.205.366.447.477.714.11.267.167.553.167.842.014.297-.033.594-.138.873-.104.278-.264.533-.47.748s-.453.386-.726.503c-.274.116-.568.176-.866.176h-2.3c-.297 0-.592-.06-.866-.176-.273-.117-.52-.288-.726-.503s-.366-.47-.47-.748c-.105-.279-.151-.576-.138-.873 0-.289.057-.575.168-.842.11-.267.272-.509.476-.714.205-.204.447-.366.714-.477.267-.11.553-.167.842-.167z" fill="#9cb8ff"/><path d="m205.9 117.4h-3.6c-.398 0-.779-.158-1.061-.439-.281-.282-.439-.663-.439-1.061.026-.38.195-.737.473-.997.279-.26.646-.404 1.027-.403h3.6c.381-.001.748.143 1.027.403s.448.617.473.997c0 .398-.158.779-.439 1.061-.282.281-.663.439-1.061.439z" fill="#80a7ff"/><path d="m232.2 59.1s16.2 35.8 19.4 43.8c4.5 11.6 23.9 10.2 23.9-6.3z" fill="#d0d9ea"/><path d="m194.6 73.1s11.2-16.1 40.8-16.1 43.3 21 43.3 37.5-19.4 17.9-24 6.3c-3.1-8-8.8-20.7-8.8-20.7h-51.3z" fill="#ebeff7"/><path d="m214.6 71.7-7.7-.3s4.9-10.1 21.5-14.1c2.2-.2 4.5-.3 7-.3 2.071-.0047 4.14.0954 6.2.3-7.5.9-19.8 4-27 14.4z" fill="#d0d9ea"/><path d="m245.9 80.1h-70.3s10.9-9.4 34.8-9.1 35.5 9.1 35.5 9.1z" fill="#000"/><path d="m262.9 93.3c.4 3.9 3.5 6.7 6.8 6.3s5.5-3.8 5.1-7.7-3.6-6.8-6.9-6.4-5.5 3.9-5 7.8z" fill="#d0d9ea"/><path d="m266.8 85.8c1.2.5477 2.236 1.3981 3.008 2.4676.771 1.0695 1.251 2.3213 1.392 3.6325.4 3.4-1.3 6.5-3.9 7.5-1.218-.5218-2.271-1.3652-3.046-2.4398s-1.243-2.3399-1.354-3.6603c-.5-3.4 1.2-6.5 3.9-7.5z" fill="#7687b2"/><path d="m140.4 172.9c2.3 7.4 27.3 19.1 43.1 25.1 11.7-3.6 40.3-14 44.9-22.8.485-.737.664-1.633.5-2.5l-.4-.9c-8.7-13.1-21.8-21.5-36.9-23.6-19.1-2.6-38.1 5.9-50.9 22.7-.199.288-.33.619-.382.965-.051.347-.024.701.082 1.035z" fill="#ff7f14"/><path d="m183.4 200.6s37.4-42.3 30.9-46.5c-6.763-4.404-14.409-7.271-22.4-8.4-21.5-2.9-40.9 7.5-53.2 23.7-8.7 11.5 44.7 31.2 44.7 31.2z" fill="#ff903e"/><path d="m143.9 163.5c-.04 2.343.778 4.619 2.3 6.4 7.6 10 35.1 21.2 43 24.2-2.1 5.2-4 8.6-5.1 9l-.8.2-.8-.3c-1.4-.5-36.2-13.5-45-25-3.7-4.9-2.1-8.5-.8-10.1 3.7-4.9 7.4-6 7.2-4.4z" fill="#dae2ed"/><path d="m172.9 225.9c4.979 2.292 10.525 3.055 15.937 2.193 5.413-.861 10.448-3.309 14.469-7.033 4.021-3.725 6.846-8.558 8.119-13.889s.936-10.919-.968-16.058c-1.905-5.14-5.291-9.598-9.73-12.812-4.44-3.214-9.733-5.039-15.209-5.244-5.477-.205-10.892 1.22-15.559 4.093-4.666 2.874-8.376 7.067-10.659 12.05-3.056 6.671-3.341 14.282-.791 21.163s7.725 12.469 14.391 15.537z" fill="#ebeff7"/><path d="m174.8 221.9c5.626 2.549 12.031 2.771 17.819.616 5.789-2.154 10.491-6.509 13.081-12.116 1.914-4.191 2.544-8.855 1.808-13.403s-2.803-8.775-5.941-12.149c-3.138-3.373-7.206-5.74-11.689-6.802s-9.18-.771-13.498.835c-4.318 1.607-8.062 4.458-10.76 8.193s-4.228 8.185-4.397 12.789c-.17 4.604 1.03 9.155 3.447 13.077 2.417 3.923 5.942 7.041 10.13 8.96z" fill="#dae2ed"/><path d="m174.4 187-7.3 12.7c-.241.372-.369.806-.369 1.25s.128.878.369 1.25l7.3 12.7c.224.388.544.711.929.939.386.228.823.352 1.271.361h14.8c.448-.009.885-.133 1.271-.361.385-.228.705-.551.929-.939l7.3-12.7c.241-.372.369-.806.369-1.25s-.128-.878-.369-1.25l-7.3-12.7c-.224-.388-.544-.711-.929-.939-.386-.228-.823-.352-1.271-.361h-14.8c-.448.009-.885.133-1.271.361-.385.228-.705.551-.929.939z" fill="#c5cedd"/></g><path d="m184.5 208.8c-4.473 0-8.1-3.627-8.1-8.1 0-4.474 3.627-8.1 8.1-8.1 4.474 0 8.1 3.626 8.1 8.1 0 4.473-3.626 8.1-8.1 8.1z" fill="#fff"/><path d="m277.6 148.2c6.3-1.6 7.9 3.5 17.5 4-9 5.5-10.7 2.2-19.9 8.1z" fill="#ff903e"/><path d="m184.5 251.1h44.8c2.661-.026 5.205-1.102 7.077-2.993 1.873-1.892 2.923-4.446 2.923-7.107 0-2.652-1.054-5.196-2.929-7.071s-4.419-2.929-7.071-2.929h-5.7c-2.594-.018-5.166.476-7.568 1.454-2.403.978-4.589 2.421-6.432 4.246l-2.4 2.5c-3.177 3.121-7.447 4.879-11.9 4.9h-3.8c-1.856 0-3.637.738-4.95 2.05-1.312 1.313-2.05 3.093-2.05 4.95z" fill="#ebeff7"/><path d="m244.7 231h12.4c1.602 0 2.9 1.298 2.9 2.9v.09c0 1.602-1.298 2.9-2.9 2.9h-12.4c-1.602 0-2.9-1.298-2.9-2.9v-.09c0-1.602 1.298-2.9 2.9-2.9z" fill="#ebeff7"/><path d="m231.1 245.7h9.8c1.491 0 2.7 1.2 2.7 2.68s-1.209 2.68-2.7 2.68h-9.8c-1.491 0-2.7-1.2-2.7-2.68s1.209-2.68 2.7-2.68z" fill="#ebeff7"/></svg>