<svg width="179" height="126" viewBox="0 0 179 126" fill="none" xmlns="http://www.w3.org/2000/svg">
<rect y="0.40332" width="179" height="125.597" rx="4" fill="white"/>
<rect y="0.40332" width="179" height="125.597" rx="4" fill="url(#paint0_linear_834_12694)"/>
<g clip-path="url(#clip0_834_12694)">
<path d="M83.1915 39.7783C79.5691 43.2158 77.508 45.8408 76.1964 48.0283C74.8849 50.2158 75.6968 51.5283 76.8835 51.9658C78.0701 52.4033 79.8814 51.2158 86.6266 43.3408L83.1915 39.7783Z" fill="#FF8C19"/>
<path d="M154.267 112.591C154.267 114.528 127.973 116.966 95.5579 116.966C63.1432 116.966 36.8491 114.528 36.8491 112.591C36.8491 110.653 63.1432 109.153 95.5579 109.153C127.973 109.153 154.267 110.716 154.267 112.591Z" fill="#272173"/>
<path d="M116.043 104.528C132.032 94.5908 132.095 90.6533 134.905 81.7158C140.339 78.3408 140.151 75.8408 139.277 74.2158C138.403 72.5908 137.403 71.2158 129.222 71.2158C124.163 71.2783 122.976 72.7783 121.165 78.9033C119.041 86.0908 119.229 86.5283 108.174 92.4033C100.055 96.6533 104.177 111.966 116.043 104.528Z" fill="url(#paint1_linear_834_12694)"/>
<path d="M56.5852 105.403C62.2687 107.403 72.6988 107.653 85.1901 104.153C86.0164 103.923 86.789 103.531 87.4631 103C88.1372 102.469 88.6996 101.81 89.1177 101.06C89.5358 100.31 89.8013 99.4852 89.899 98.6323C89.9967 97.7794 89.9246 96.9156 89.6869 96.0908V95.9033C89.4393 95.0267 89.0154 94.21 88.4411 93.5032C87.8668 92.7964 87.1543 92.2145 86.3473 91.7931C85.5402 91.3718 84.6557 91.1198 83.7478 91.0528C82.84 90.9858 81.9281 91.105 81.068 91.4033C74.1353 93.8408 67.3276 95.5908 58.7087 95.4033C54.1494 92.7783 50.6518 94.1533 49.715 97.6533C48.7781 101.153 52.4631 103.966 56.5852 105.403Z" fill="url(#paint2_linear_834_12694)"/>
<path d="M84.7529 86.4034C99.3052 80.7159 112.733 78.8409 117.417 88.7784C122.102 98.7159 119.853 109.153 112.234 111.966C104.614 114.778 90.7487 113.028 80.0687 108.028C69.3887 103.028 72.449 91.2159 84.7529 86.4034Z" fill="#698EFF"/>
<path d="M52.5881 72.0906C49.6527 72.4656 47.7165 74.9656 48.466 79.6531C48.9032 82.3406 47.8415 84.5281 45.9678 84.9031L46.9671 84.7781C48.2001 84.6807 49.4058 84.3631 50.5271 83.8406C54.5243 82.0281 55.8358 78.7156 56.0232 76.6531C56.2106 74.5906 55.5236 71.6531 52.5881 72.0906Z" fill="#29CC7A"/>
<path d="M55.0863 69.9032C55.3021 69.741 55.4524 69.5065 55.5097 69.2426C55.5671 68.9787 55.5276 68.7029 55.3986 68.4657C55.3295 68.3623 55.2406 68.2738 55.137 68.2051C55.0333 68.1365 54.9171 68.0891 54.7951 68.0659C54.673 68.0426 54.5475 68.0439 54.426 68.0696C54.3044 68.0953 54.1892 68.145 54.087 68.2157C51.4638 70.1532 50.7143 72.2782 50.6519 77.6532C50.6519 80.5907 50.4645 82.5282 49.6526 84.2157L50.527 83.8407H50.5894C51.0706 83.5607 51.4794 83.1717 51.7831 82.705C52.0868 82.2383 52.2769 81.7068 52.3382 81.1532C52.4696 79.9494 52.5321 78.7391 52.5256 77.5282C52.588 72.0282 53.4624 71.0907 55.0863 69.9032Z" fill="#008D3C"/>
<path d="M47.8414 79.5284C44.4063 75.7784 43.1572 72.4659 39.4723 73.5284C35.7874 74.5909 36.0996 78.2159 38.2856 81.3409C40.4716 84.4659 43.6568 85.7784 48.2161 84.6534C50.8999 84.0941 53.2557 82.5 54.774 80.2159C52.9003 83.0284 49.9649 81.8409 47.8414 79.5284Z" fill="#1CAD64"/>
<path d="M49.8401 84.153C49.0174 84.3696 48.154 84.3803 47.3262 84.1841C46.4984 83.9879 45.7316 83.5909 45.0934 83.028C43.5284 81.7931 42.3033 80.18 41.5334 78.3405C41.5334 78.3239 41.5268 78.308 41.5151 78.2963C41.5034 78.2846 41.4875 78.278 41.471 78.278C41.4213 78.1638 41.3461 78.0625 41.2512 77.9821C41.1562 77.9016 41.044 77.844 40.9233 77.8138C40.8026 77.7836 40.6766 77.7816 40.5549 77.8079C40.4333 77.8342 40.3193 77.8881 40.2218 77.9655C40.006 78.1277 39.8557 78.3622 39.7984 78.6261C39.741 78.89 39.7805 79.1658 39.9096 79.403C40.8897 81.4146 42.3746 83.1374 44.219 84.403H44.2815C44.7041 84.671 45.1753 84.8532 45.6683 84.9389C46.1612 85.0247 46.6662 85.0125 47.1545 84.903L48.2162 84.7155L49.8401 84.153Z" fill="#008D3C"/>
<path d="M63.5179 72.6531C59.5207 77.6531 56.5852 84.4656 54.6491 91.0906C54.2351 92.6482 54.3334 94.2978 54.9297 95.795C55.5259 97.2922 56.5882 98.5574 57.9593 99.4031C61.7161 101.679 65.6414 103.664 69.701 105.341C73.261 106.778 77.3207 105.653 79.2568 102.591C82.7378 96.9173 85.6858 90.9334 88.0631 84.7156C88.66 83.136 88.6871 81.3975 88.1398 79.8C87.5925 78.2026 86.5051 76.8464 85.0652 75.9656C81.0069 73.4692 76.6395 71.5151 72.0743 70.1531C70.5628 69.6552 68.9359 69.6276 67.4083 70.0739C65.8807 70.5202 64.5242 71.4195 63.5179 72.6531Z" fill="url(#paint3_linear_834_12694)"/>
<path d="M72.0119 105.341C71.7204 106.039 71.365 106.708 70.9501 107.341C70.6775 107.799 70.255 108.149 69.7542 108.331C69.2534 108.513 68.7051 108.516 68.202 108.341C65.123 107.274 62.2186 105.758 59.5831 103.841C59.2686 103.611 59.0335 103.289 58.9104 102.919C58.7872 102.549 58.7822 102.151 58.8961 101.778C59.2872 100.684 59.8341 99.6528 60.5199 98.7155C60.7637 98.3831 61.1072 98.1371 61.5004 98.0135C61.8935 97.8898 62.3158 97.8949 62.7059 98.028C65.6884 99.1005 68.5219 100.55 71.1375 102.341C71.6212 102.65 71.9764 103.125 72.1372 103.676C72.298 104.228 72.2534 104.819 72.0119 105.341Z" fill="#B7CCFF"/>
<path d="M80.6309 87.9031C80.3001 88.678 79.8809 89.412 79.3818 90.0906C79.216 90.3375 78.9678 90.5171 78.6816 90.5973C78.3954 90.6775 78.0901 90.653 77.8204 90.5281C73.9311 88.9214 70.1902 86.9765 66.6407 84.7156C66.4078 84.5787 66.2228 84.3731 66.111 84.127C65.9992 83.8809 65.9661 83.6062 66.0161 83.3406C66.2567 82.4228 66.6585 81.5551 67.2028 80.7781C67.4994 80.3666 67.923 80.0641 68.4083 79.9173C68.8936 79.7705 69.4137 79.7874 69.8884 79.9656C73.3399 81.3159 76.6461 83.012 79.7565 85.0281C80.2111 85.3329 80.5465 85.7857 80.7059 86.3096C80.8652 86.8335 80.8387 87.3965 80.6309 87.9031Z" fill="#4A72E7"/>
<path d="M67.3276 85.1531C67.3223 84.8431 67.4093 84.5385 67.5774 84.2781C67.7287 84.0669 67.952 83.9185 68.2052 83.8609C68.4584 83.8033 68.7239 83.8406 68.9515 83.9656C71.7428 85.19 74.4546 86.5886 77.0708 88.1531C77.3079 88.2967 77.4837 88.5228 77.5644 88.7881C77.6451 89.0534 77.625 89.3392 77.508 89.5906C77.3835 89.813 77.237 90.0224 77.0708 90.2156C73.7095 88.7566 70.4539 87.065 67.3276 85.1531Z" fill="#B7CCFF"/>
<path d="M113.92 110.028C126.661 110.403 136.467 104.653 141.963 100.528C148.396 100.528 149.52 98.2783 149.645 96.4658C149.77 94.6533 149.645 92.9033 142.65 88.6533C138.34 86.0283 136.904 87.1533 131.783 90.9033C126.661 94.6533 122.789 96.2158 113.608 95.5283C104.427 94.8408 99.9299 109.591 113.92 110.028Z" fill="url(#paint4_linear_834_12694)"/>
<path d="M116.356 69.9032C116.108 69.342 115.742 68.8402 115.285 68.4314C114.827 68.0227 114.288 67.7164 113.703 67.533C113.117 67.3496 112.5 67.2933 111.891 67.3679C111.282 67.4426 110.696 67.6464 110.173 67.9657C109.386 68.4632 108.776 69.1956 108.429 70.0593C108.081 70.923 108.014 71.8742 108.236 72.7782L109.61 79.1532C109.655 79.3472 109.75 79.5261 109.885 79.6715C110.021 79.8169 110.193 79.9236 110.384 79.9808C110.574 80.038 110.776 80.0436 110.97 79.997C111.163 79.9504 111.341 79.8534 111.484 79.7157L115.731 75.1532C116.351 74.4426 116.742 73.5614 116.854 72.6247C116.965 71.6881 116.792 70.7396 116.356 69.9032Z" fill="#698EFF"/>
<path d="M64.4546 114.34C70.4504 114.59 80.5059 111.778 91.4357 104.778C92.1629 104.315 92.7908 103.712 93.2828 103.004C93.7747 102.295 94.1209 101.496 94.3011 100.653C94.4813 99.8092 94.4919 98.9382 94.3324 98.0906C94.1729 97.2429 93.8463 96.4356 93.3718 95.7155L93.2469 95.5905C92.7577 94.8201 92.1147 94.1592 91.3583 93.6492C90.6018 93.1392 89.7482 92.7911 88.851 92.6268C87.9538 92.4625 87.0323 92.4855 86.1444 92.6943C85.2565 92.9032 84.4213 93.2934 83.6911 93.8405C77.8827 98.028 72.0118 101.653 64.0175 104.028C63.6909 104.122 63.3447 104.122 63.0182 104.028C57.8343 102.653 55.461 105.403 55.5234 108.903C55.5859 112.403 60.0827 114.153 64.4546 114.34Z" fill="url(#paint5_linear_834_12694)"/>
<path d="M92.5601 103.528C90.499 105.028 85.2527 108.278 83.1917 109.403L84.9404 110.028C87.3762 108.591 91.5608 105.966 93.372 104.653C93.447 104.604 93.5106 104.539 93.5583 104.463C93.6061 104.387 93.6369 104.302 93.6488 104.213C93.6606 104.124 93.6532 104.034 93.627 103.948C93.6008 103.862 93.5564 103.783 93.4969 103.716C93.3956 103.569 93.2412 103.467 93.0664 103.432C92.8916 103.397 92.71 103.432 92.5601 103.528Z" fill="#4A72E7"/>
<path d="M65.3291 95.4033C64.996 94.4182 64.8477 93.3799 64.8919 92.3408C64.8919 92.2413 64.8524 92.146 64.7821 92.0756C64.7118 92.0053 64.6165 91.9658 64.5171 91.9658C64.4712 91.9564 64.4238 91.9575 64.3784 91.9689C64.333 91.9804 64.2907 92.0019 64.2547 92.0319C64.2187 92.0619 64.1899 92.0996 64.1705 92.1423C64.151 92.1849 64.1414 92.2314 64.1424 92.2783C63.8607 93.744 63.8607 95.2501 64.1424 96.7158C64.1925 96.9089 64.2959 97.084 64.4409 97.2211C64.5858 97.3581 64.7663 97.4515 64.9618 97.4907C65.1574 97.5298 65.3599 97.513 65.5464 97.4423C65.7328 97.3716 65.8956 97.2498 66.0161 97.0908C66.8254 95.9196 67.7233 94.8122 68.7017 93.7783C68.7445 93.7544 68.7811 93.7207 68.8085 93.6801C68.8359 93.6394 68.8534 93.5928 68.8595 93.5441C68.8655 93.4954 68.8601 93.446 68.8435 93.3998C68.827 93.3536 68.7998 93.312 68.7641 93.2783C68.7035 93.2076 68.6187 93.1621 68.5264 93.1506C68.434 93.139 68.3407 93.1623 68.2645 93.2158C67.1997 93.8212 66.2138 94.5559 65.3291 95.4033Z" fill="#242145"/>
<path d="M115.606 46.5281C116.293 44.6531 114.732 42.3406 112.733 42.8406C110.735 43.3406 110.86 45.7781 110.235 48.1531C109.611 50.5281 108.674 51.9656 107.175 52.9656L107.487 54.0281C112.671 51.8406 114.919 48.4656 115.606 46.5281Z" fill="#FFC619"/>
<path d="M119.853 54.4655C119.229 53.903 117.543 53.403 111.734 57.4655L113.046 61.278C116.106 59.278 118.729 57.3405 119.666 56.5905C120.603 55.8405 120.478 55.028 119.853 54.4655Z" fill="#FF8C19"/>
<path d="M91.6856 44.7784C90.0618 44.2159 86.6891 46.7159 84.5032 52.6534L85.2526 53.7159C86.8458 52.0432 88.6035 50.5356 90.499 49.2159C93.3719 47.3409 93.3095 45.3409 91.6856 44.7784Z" fill="#FF8C19"/>
<path d="M123.913 58.4655C122.539 58.0905 119.916 60.153 115.919 60.2155C116.98 55.278 114.732 51.653 109.985 50.653C103.615 49.278 99.0555 55.403 95.9951 58.9655C92.9348 62.528 91.3734 60.028 88.5004 55.7155C85.6274 51.403 82.8169 50.278 79.0695 51.778C77.3207 50.2155 75.3221 48.3405 73.4485 49.5905C71.5748 50.8405 72.5741 54.653 75.3846 57.9655C74.0106 58.0905 72.1993 58.3405 71.2 59.153C70.8347 59.4966 70.6118 59.9651 70.5755 60.4655C70.4506 61.4655 71.2 62.528 76.6337 63.903C79.8814 69.153 83.6288 75.3405 91.7481 76.3405C95.238 76.815 98.7908 76.4313 102.099 75.2224C105.407 74.0136 108.372 72.0162 110.735 69.403C111.825 68.2188 113.17 67.2996 114.67 66.7155C117.105 65.8405 120.228 64.7155 122.227 63.028C125.474 60.3405 124.85 58.7155 123.913 58.4655Z" fill="url(#paint6_linear_834_12694)"/>
<path d="M95.1832 70.1531C95.1034 71.791 94.5621 73.3727 93.6218 74.7156C90.9362 78.5906 87.9383 82.8406 85.6274 84.0281C85.0093 84.3398 84.3139 84.4644 83.6261 84.3867C82.9384 84.309 82.2882 84.0323 81.7551 83.5906C80.6934 82.5906 81.193 81.3406 82.0674 80.7156L84.6906 78.9031C84.6906 78.9031 85.8148 75.2781 87.3762 70.4656C87.6917 69.4146 88.2477 68.4517 89 67.6531C91.7481 64.7781 95.3081 65.7781 95.1832 70.1531Z" fill="url(#paint7_linear_834_12694)"/>
<path d="M93.8716 76.5281C94.7459 75.2156 95.5579 74.0281 95.9951 73.2156C96.0779 73.083 96.1047 72.9229 96.0695 72.7705C96.0344 72.6181 95.9402 72.486 95.8077 72.4031C95.6752 72.3202 95.5152 72.2934 95.3629 72.3286C95.2107 72.3637 95.0786 72.458 94.9958 72.5906C94.4337 73.4656 93.4968 74.9031 92.4351 76.4031L93.8716 76.5281Z" fill="#FF7214"/>
<path d="M98.306 50.7782C97.3692 47.4657 90.8113 49.2782 85.6274 55.0282L86.8766 56.8407C88.0008 56.0907 91.186 55.0907 93.1846 54.8407C95.1832 54.5907 99.1804 54.1532 98.306 50.7782Z" fill="#FFC619"/>
<path d="M87.1889 55.278C87.0015 54.903 88.5629 53.403 90.499 52.4655C92.4352 51.528 94.5587 51.0905 94.746 52.153C94.9334 53.2155 93.8717 53.3405 92.3727 53.653C91.0823 53.9234 89.8401 54.387 88.6878 55.028C87.8759 55.4655 87.3762 55.7155 87.1889 55.278Z" fill="#FF8C19"/>
<path d="M74.1356 51.0279C73.4485 49.9029 72.3243 50.5904 72.5117 52.2154C72.6991 53.8404 73.7608 56.0279 75.3847 57.9654C74.198 58.0904 72.6366 58.2779 71.6373 58.9029C70.638 59.5279 71.3875 60.3404 72.5742 60.3404C75.417 60.2434 78.2064 59.5403 80.7559 58.2779C76.2591 56.8404 74.8226 52.1529 74.1356 51.0279Z" fill="black"/>
<path d="M84.628 56.0905C84.5031 56.403 84.0034 56.278 83.3164 56.0905C82.6294 55.903 82.0673 55.903 82.1297 55.528C82.1922 55.153 82.8168 55.028 83.5038 55.2155C84.1908 55.403 84.6905 55.7155 84.628 56.0905Z" fill="black"/>
<path d="M95.6203 59.3408C93.934 61.0908 92.7473 60.9658 91.4357 59.7158C92.4975 60.8408 92.1852 63.3408 91.6231 65.0908C91.061 66.8408 91.061 67.9033 91.8105 68.1533C92.5599 68.4033 95.0582 66.2783 95.6203 59.3408Z" fill="#FFE75C"/>
<path d="M96.9944 57.7158C97.6189 57.0283 99.1803 57.8408 99.7425 59.1533C100.305 60.4658 100.742 61.4033 101.241 61.7783C101.741 62.1533 102.178 61.7783 102.303 60.2158C102.428 58.6533 101.866 55.5283 99.7425 54.7783C98.7771 55.7101 97.8599 56.6905 96.9944 57.7158Z" fill="#FFE75C"/>
<path d="M105.988 54.3408C106.675 56.4033 107.737 58.9658 108.362 56.9033C108.986 54.8408 109.111 52.2783 107.862 50.4658C106.151 50.5655 104.495 51.1036 103.053 52.0283C103.74 51.5908 105.364 52.2783 105.988 54.3408Z" fill="#FFE75C"/>
<path d="M79.3818 57.7158C77.9873 57.7132 76.6139 58.0568 75.3846 58.7158C74.198 59.2783 73.5109 59.8408 73.4485 60.3408C75.9856 60.0839 78.4585 59.3859 80.7559 58.2783L79.3818 57.7158Z" fill="#EE4245"/>
<path d="M80.4435 57.2783L80.6933 57.7158L81.0056 58.1533L81.2554 58.5283L81.5677 58.9658C81.5895 59.0024 81.6036 59.0431 81.6091 59.0854C81.6146 59.1276 81.6114 59.1706 81.5997 59.2116C81.588 59.2525 81.568 59.2907 81.541 59.3237C81.5141 59.3566 81.4806 59.3838 81.4428 59.4033C81.3985 59.4388 81.3434 59.4582 81.2867 59.4582C81.2299 59.4582 81.1748 59.4388 81.1305 59.4033H81.0681L80.5684 59.0283C80.4305 58.9099 80.3234 58.7598 80.2561 58.5908C80.1475 58.4157 80.0634 58.2264 80.0063 58.0283C80.0063 57.9033 79.9438 57.6533 79.9438 57.4658C79.9438 57.3995 79.9702 57.3359 80.017 57.289C80.0639 57.2422 80.1274 57.2158 80.1937 57.2158L80.4435 57.2783Z" fill="#ED7700"/>
<path d="M159.326 114.153C166.224 114.153 171.817 108.557 171.817 101.653C171.817 94.7498 166.224 89.1533 159.326 89.1533C152.427 89.1533 146.834 94.7498 146.834 101.653C146.834 108.557 152.427 114.153 159.326 114.153Z" fill="#FF78B9"/>
<path d="M145.96 100.278C146.235 97.6333 147.288 95.1291 148.985 93.0831C150.683 91.037 152.949 89.5411 155.497 88.7846C158.044 88.0281 160.759 88.0452 163.297 88.8336C165.835 89.6219 168.082 91.1462 169.754 93.2134C171.426 95.2806 172.447 97.7977 172.689 100.446C172.93 103.094 172.381 105.755 171.111 108.091C169.84 110.427 167.906 112.333 165.552 113.568C163.199 114.803 160.532 115.311 157.889 115.028C154.355 114.65 151.115 112.885 148.878 110.121C146.642 107.356 145.593 103.816 145.96 100.278ZM147.771 100.466C147.524 102.754 147.961 105.065 149.027 107.104C150.092 109.144 151.739 110.821 153.759 111.923C155.778 113.025 158.079 113.502 160.37 113.295C162.66 113.087 164.838 112.203 166.626 110.756C168.415 109.308 169.733 107.362 170.415 105.164C171.097 102.966 171.112 100.614 170.457 98.4077C169.802 96.2012 168.508 94.2389 166.737 92.7695C164.967 91.3 162.8 90.3895 160.512 90.1534C158.998 89.9889 157.467 90.1255 156.006 90.5554C154.545 90.9853 153.183 91.7 151.999 92.6584C150.815 93.6167 149.832 94.7999 149.106 96.1398C148.381 97.4797 147.927 98.9499 147.771 100.466Z" fill="black"/>
<path d="M153.455 108.466C153.606 108.496 153.762 108.483 153.906 108.428C154.05 108.373 154.175 108.277 154.267 108.154L162.636 96.6536C162.759 96.479 162.808 96.2632 162.773 96.0527C162.738 95.8422 162.621 95.6539 162.449 95.5286C162.364 95.4546 162.266 95.3988 162.159 95.3649C162.052 95.3309 161.939 95.3194 161.828 95.3311C161.716 95.3429 161.609 95.3776 161.511 95.4331C161.414 95.4886 161.329 95.5637 161.262 95.6536L152.893 107.154C152.822 107.242 152.77 107.344 152.741 107.453C152.712 107.563 152.706 107.677 152.724 107.789C152.742 107.901 152.782 108.007 152.844 108.103C152.905 108.198 152.986 108.279 153.08 108.341L153.455 108.466Z" fill="black"/>
<path d="M150.769 104.528H151.082L164.822 101.028C164.93 101.006 165.033 100.963 165.123 100.9C165.214 100.837 165.291 100.756 165.349 100.663C165.408 100.569 165.446 100.465 165.463 100.356C165.48 100.247 165.474 100.135 165.447 100.028C165.425 99.9203 165.381 99.8177 165.318 99.727C165.255 99.6364 165.175 99.5594 165.081 99.5009C164.988 99.4425 164.883 99.4037 164.774 99.3869C164.665 99.3701 164.554 99.3757 164.447 99.4034L150.707 102.903C150.599 102.925 150.496 102.969 150.406 103.032C150.315 103.095 150.238 103.175 150.18 103.269C150.121 103.363 150.083 103.467 150.066 103.576C150.049 103.685 150.055 103.797 150.082 103.903C150.127 104.062 150.215 104.204 150.336 104.315C150.458 104.425 150.608 104.499 150.769 104.528Z" fill="black"/>
<path d="M154.954 109.841L166.196 102.278C166.196 102.278 166.446 107.028 162.948 109.403C159.451 111.778 154.954 109.841 154.954 109.841Z" fill="#FF78B9"/>
<path d="M154.642 110.653C154.499 110.603 154.374 110.51 154.285 110.387C154.196 110.265 154.146 110.118 154.142 109.966C154.112 109.815 154.125 109.658 154.18 109.514C154.235 109.37 154.33 109.245 154.454 109.153L165.696 101.591C165.824 101.504 165.972 101.453 166.125 101.442C166.279 101.431 166.432 101.461 166.571 101.528C166.702 101.589 166.813 101.686 166.891 101.808C166.968 101.93 167.009 102.071 167.008 102.216C167.07 102.466 167.258 107.528 163.448 110.091C161.717 111.176 159.668 111.639 157.639 111.403C156.607 111.311 155.596 111.058 154.642 110.653ZM156.952 109.528C158.389 109.841 160.637 109.966 162.449 108.716C163.216 108.164 163.858 107.455 164.332 106.636C164.806 105.817 165.1 104.907 165.197 103.966L156.952 109.528Z" fill="black"/>
<path d="M21.2976 50.5911C19.776 50.5754 18.2605 50.7861 16.8008 51.2161L14.365 52.5286C13.5531 50.4036 13.0534 48.0911 12.4289 46.0286C11.8043 43.9661 10.805 40.7786 10.6801 38.0286C10.5552 35.2786 5.6836 34.9036 5.80851 38.0286C6.04742 40.9833 6.63441 43.8993 7.55729 46.7161C8.43167 49.4661 9.05623 52.5286 10.2429 55.1536C12.5538 60.4036 17.3629 55.4661 21.2976 55.4036C25.2324 55.3411 24.4204 50.5911 21.2976 50.5911Z" fill="#FFF2A6"/>
<path d="M36.4744 29.3409C34.5383 27.6534 31.0407 26.1534 28.48 26.4034C25.9193 26.6534 24.1705 29.2159 23.2337 31.7159C23.1157 32.058 23.0525 32.4165 23.0463 32.7784C21.1102 37.7159 22.6091 44.9659 26.4814 48.4659C28.5425 50.3409 31.6653 50.7784 34.2884 50.4659C36.9116 50.1534 38.5354 47.7784 39.2225 45.0909C40.534 40.2784 40.659 32.9034 36.4744 29.3409ZM34.913 42.0284C34.6632 43.9659 34.6632 45.4659 32.4772 45.7159C30.2912 45.9659 28.9797 44.2159 28.2926 42.4034C27.6056 40.5909 26.294 36.5284 27.8554 33.9034C28.1397 33.4573 28.2712 32.9308 28.2302 32.4034C29.854 29.9034 33.9137 32.9659 34.6632 35.2159C35.4126 37.4659 35.1628 39.9034 34.913 42.0284Z" fill="#FFF2A6"/>
<path d="M57.085 34.5284L51.464 37.8409C49.4029 33.5909 46.7798 29.4659 46.4675 24.7784C46.2177 21.7159 41.4085 21.6534 41.5959 24.7784C42.0956 31.1534 45.718 36.0909 48.0913 41.8409C48.6535 43.2784 50.0899 44.0909 51.5889 43.2784C54.3093 41.8718 56.9566 40.3282 59.5208 38.6534C62.0815 37.0284 59.7082 32.8409 57.085 34.5284Z" fill="#FFF2A6"/>
<path d="M40.7211 81.4941L11.4043 82.9802C10.6464 83.0187 10.0631 83.6646 10.1015 84.423L11.585 113.729C11.6234 114.488 12.2689 115.071 13.0268 115.033L42.3436 113.547C43.1015 113.508 43.6848 112.862 43.6464 112.104L42.1628 82.7977C42.1245 82.0393 41.4789 81.4557 40.7211 81.4941Z" fill="url(#paint8_linear_834_12694)"/>
<path d="M26.6689 91.7158C26.53 91.7167 26.3958 91.6661 26.292 91.5737C26.1882 91.4814 26.1222 91.3539 26.1068 91.2158L25.9194 87.0283C25.9194 86.8957 25.9721 86.7685 26.0658 86.6748C26.1595 86.581 26.2866 86.5283 26.4191 86.5283C26.5516 86.5283 26.6787 86.581 26.7724 86.6748C26.8661 86.7685 26.9187 86.8957 26.9187 87.0283L27.1686 91.1533C27.1775 91.224 27.1712 91.2958 27.1501 91.3639C27.129 91.432 27.0936 91.4947 27.0463 91.548C26.999 91.6013 26.9408 91.6438 26.8757 91.6728C26.8106 91.7017 26.7401 91.7164 26.6689 91.7158Z" fill="black"/>
<path d="M43.0946 100.216L42.8448 95.9033L42.5325 95.5283C40.9711 94.1533 38.0981 94.7158 36.162 96.8408C34.2258 98.9658 33.9136 101.966 35.475 103.341C37.0364 104.716 39.9718 104.216 41.908 102.091C42.3831 101.52 42.782 100.89 43.0946 100.216Z" fill="url(#paint9_linear_834_12694)"/>
<path d="M43.1572 101.278L42.9698 98.7159C42.7933 99.8345 42.294 100.877 41.5333 101.716C39.7845 103.653 37.2238 104.216 35.8498 102.966C34.4758 101.716 34.7881 99.1534 36.5368 97.2159C37.4487 96.1258 38.747 95.4314 40.1593 95.2784C40.9089 95.2353 41.6465 95.4813 42.2203 95.9659C42.5413 96.2763 42.7777 96.6635 42.9074 97.0908L42.7824 95.0909C41.0337 93.5909 37.8484 94.2159 35.7249 96.5284C33.6014 98.8409 33.3516 102.153 35.1628 103.778C35.9289 104.419 36.9157 104.733 37.9109 104.653C39.6065 104.506 41.1763 103.698 42.2828 102.403L43.1572 101.278Z" fill="black"/>
<path d="M11.1172 97.1536L10.8049 97.5286L11.0548 101.904C11.4194 102.536 11.8834 103.106 12.4288 103.591C14.5523 105.529 17.4877 105.841 18.9242 104.216C20.3607 102.591 19.7362 99.7786 17.6127 97.8411C15.4891 95.9036 12.5537 95.5911 11.1172 97.1536Z" fill="url(#paint10_linear_834_12694)"/>
<path d="M10.8049 96.7785V98.7785C10.9096 98.3176 11.1238 97.8888 11.4295 97.5285C11.6875 97.2567 11.9973 97.0393 12.3405 96.8891C12.6837 96.7388 13.0535 96.6587 13.4281 96.6535C14.8498 96.6734 16.2112 97.2317 17.2379 98.216C19.1741 99.966 19.7362 102.529 18.5495 103.904C17.3628 105.279 14.6772 104.966 12.7411 103.216C11.8904 102.449 11.2826 101.45 10.9923 100.341L11.1172 102.904C11.3775 103.3 11.693 103.658 12.0541 103.966C13.2892 105.127 14.9189 105.775 16.6134 105.779C17.1172 105.768 17.6141 105.658 18.0751 105.454C18.5361 105.25 18.9521 104.957 19.299 104.591C20.9228 102.779 20.2983 99.591 17.9249 97.466C15.5516 95.341 12.4288 95.0285 10.8049 96.7785Z" fill="black"/>
<path d="M37.0365 100.091C37.0904 99.7396 37.1113 99.3839 37.0989 99.0286C36.9116 94.8411 31.4779 92.7161 26.7312 92.9661C21.9845 93.2161 16.8007 95.9036 17.0505 100.029C17.0612 100.406 17.1029 100.783 17.1754 101.154C14.4273 102.904 12.8659 106.216 12.9909 108.779C13.1158 111.341 14.927 113.341 17.7375 114.841L37.9109 113.779C40.5965 112.029 42.1579 109.716 42.033 107.279C41.908 104.841 39.9719 101.591 37.0365 100.091Z" fill="url(#paint11_linear_834_12694)"/>
<path d="M37.5985 99.8411C37.6611 99.5528 37.6611 99.2544 37.5985 98.9661C37.4111 94.5286 31.915 92.2161 26.7311 92.4661C24.2539 92.5503 21.842 93.283 19.7361 94.5911C17.5501 96.0286 16.4259 97.9661 16.5508 100.091C16.5405 100.363 16.5614 100.636 16.6133 100.904C14.115 102.654 12.3038 105.966 12.4287 108.779C12.5536 111.591 14.2399 113.341 16.8006 114.841H18.7992C15.6764 113.466 13.6154 111.341 13.4904 108.779C13.3655 106.216 14.7396 103.341 17.4876 101.654C17.5748 101.592 17.6399 101.504 17.6736 101.403C17.7073 101.302 17.7078 101.193 17.675 101.091C17.6065 100.762 17.5648 100.427 17.5501 100.091C17.3627 96.3411 22.1719 93.7786 26.7936 93.5286C31.4154 93.2786 36.4118 95.3411 36.5992 99.0911C36.6096 99.4256 36.5886 99.7604 36.5368 100.091C36.5251 100.206 36.5487 100.321 36.6046 100.421C36.6604 100.522 36.7457 100.603 36.849 100.654C39.722 102.091 41.4083 105.154 41.5333 107.341C41.6582 109.529 39.8469 112.216 36.849 113.904L38.8476 113.779C41.2834 112.029 42.6575 109.716 42.5326 107.279C42.4076 104.841 40.2841 101.341 37.5985 99.8411Z" fill="black"/>
<path d="M24.2536 90.9806L28.9318 90.7434C29.7589 90.7015 30.5689 90.9901 31.1834 91.5457C31.7979 92.1014 32.1667 92.8786 32.2086 93.7063L21.2928 94.2597C21.2509 93.4319 21.5393 92.6214 22.0945 92.0065C22.6498 91.3915 23.4264 91.0225 24.2536 90.9806Z" fill="#2458FF"/>
<path d="M32.2898 94.216L21.2976 94.7785C21.1697 94.7649 21.0503 94.7079 20.9594 94.6169C20.8685 94.5259 20.8115 94.4065 20.7979 94.2785C20.7465 93.3104 21.0782 92.361 21.7211 91.6358C22.3639 90.9106 23.2664 90.4679 24.233 90.4035L28.9797 90.1535C29.9425 90.1353 30.8753 90.4887 31.5847 91.1404C32.294 91.7921 32.7255 92.692 32.7895 93.6535C32.7904 93.7925 32.7398 93.9268 32.6475 94.0307C32.5553 94.1346 32.4279 94.2006 32.2898 94.216ZM21.8597 93.716L31.6653 93.216C31.5206 92.6217 31.1731 92.0967 30.6827 91.7316C30.1924 91.3664 29.5901 91.1841 28.9797 91.216L24.2955 91.466C23.6927 91.5031 23.1212 91.7473 22.6774 92.1572C22.2336 92.5671 21.9448 93.1177 21.8597 93.716Z" fill="black"/>
<path d="M23.6086 84.5908C23.625 84.9437 23.7107 85.29 23.8608 85.6098C24.011 85.9295 24.2226 86.2166 24.4835 86.4546C24.7445 86.6925 25.0498 86.8767 25.3819 86.9966C25.714 87.1165 26.0665 87.1697 26.4191 87.1533C26.7718 87.1369 27.1178 87.0511 27.4374 86.9009C27.7569 86.7507 28.0438 86.5389 28.2816 86.2778C28.5194 86.0166 28.7034 85.7111 28.8232 85.3788C28.943 85.0465 28.9962 84.6937 28.9798 84.3408C28.9838 83.8982 28.8702 83.4624 28.6508 83.0781C28.4313 82.6938 28.1138 82.3746 27.7307 82.1533L24.6079 82.3408C24.2781 82.6124 24.016 82.9571 23.8426 83.3476C23.6691 83.7382 23.589 84.1639 23.6086 84.5908Z" fill="#2458FF"/>
<path d="M23.0464 84.6533C23.0961 85.5153 23.4859 86.3222 24.1301 86.8965C24.7743 87.4708 25.6201 87.7655 26.4815 87.7158C27.3428 87.6661 28.1492 87.276 28.7231 86.6313C29.297 85.9867 29.5915 85.1403 29.5418 84.2783C29.4851 83.4701 29.1287 82.7122 28.5425 82.1533L23.8583 82.3408C23.3321 82.9965 23.0456 83.8124 23.0464 84.6533ZM26.1692 82.2783C26.4563 82.2619 26.7437 82.3022 27.0152 82.397C27.2867 82.4918 27.5369 82.6391 27.7515 82.8306C27.9661 83.0222 28.1409 83.2541 28.2659 83.5132C28.3909 83.7723 28.4637 84.0536 28.4801 84.3408C28.4965 84.6281 28.4562 84.9158 28.3615 85.1875C28.2668 85.4591 28.1195 85.7095 27.9281 85.9242C27.7368 86.139 27.505 86.3139 27.246 86.439C26.9871 86.5641 26.7061 86.6369 26.419 86.6533C26.1318 86.6702 25.8442 86.6302 25.5725 86.5356C25.3008 86.441 25.0504 86.2937 24.8357 86.1021C24.6211 85.9105 24.4463 85.6784 24.3214 85.419C24.1966 85.1597 24.1241 84.8782 24.1081 84.5908C24.0913 84.3034 24.1312 84.0156 24.2257 83.7437C24.3203 83.4718 24.4675 83.2213 24.659 83.0064C24.8504 82.7916 25.0824 82.6167 25.3416 82.4917C25.6007 82.3668 25.882 82.2943 26.1692 82.2783Z" fill="black"/>
<path d="M38.3479 105.591C40.0381 105.591 41.4083 104.22 41.4083 102.529C41.4083 100.837 40.0381 99.4663 38.3479 99.4663C36.6578 99.4663 35.2876 100.837 35.2876 102.529C35.2876 104.22 36.6578 105.591 38.3479 105.591Z" fill="#2458FF"/>
<path d="M38.5354 106.154C37.5785 106.188 36.6458 105.849 35.9346 105.207C35.2235 104.566 34.7899 103.672 34.7256 102.716C34.7862 101.832 35.1681 101.001 35.7992 100.38C36.4303 99.7589 37.2668 99.3904 38.1508 99.3443C39.0348 99.2981 39.9051 99.5775 40.5974 100.13C41.2896 100.682 41.7558 101.468 41.908 102.341C41.9595 103.293 41.6344 104.226 41.0032 104.94C40.372 105.653 39.4855 106.089 38.5354 106.154ZM38.2231 99.9661C37.544 99.9992 36.9058 100.301 36.449 100.805C35.9922 101.309 35.7542 101.974 35.7873 102.654C35.8205 103.333 36.122 103.972 36.6257 104.429C37.1293 104.886 37.7938 105.124 38.473 105.091C38.8092 105.075 39.139 104.992 39.4434 104.848C39.7478 104.704 40.0209 104.502 40.2471 104.252C40.4732 104.003 40.6481 103.711 40.7616 103.394C40.8752 103.077 40.9251 102.74 40.9087 102.404C40.8923 102.067 40.8099 101.737 40.666 101.432C40.5222 101.128 40.3198 100.855 40.0704 100.628C39.821 100.402 39.5295 100.227 39.2126 100.113C38.8956 99.9997 38.5594 99.9497 38.2231 99.9661Z" fill="black"/>
<path d="M16.1763 106.716C17.8665 106.716 19.2367 105.345 19.2367 103.653C19.2367 101.962 17.8665 100.591 16.1763 100.591C14.4861 100.591 13.116 101.962 13.116 103.653C13.116 105.345 14.4861 106.716 16.1763 106.716Z" fill="#2458FF"/>
<path d="M16.3636 107.278C15.4805 107.218 14.6501 106.835 14.0293 106.204C13.4085 105.572 13.0403 104.735 12.9942 103.851C12.9481 102.966 13.2272 102.095 13.779 101.402C14.3307 100.71 15.1168 100.243 15.9889 100.091C16.9397 100.039 17.8726 100.365 18.5856 100.996C19.2986 101.628 19.7344 102.515 19.7987 103.466C19.8333 104.423 19.4941 105.357 18.8529 106.068C18.2117 106.78 17.3189 107.214 16.3636 107.278ZM16.0513 101.091C15.7149 101.107 15.385 101.189 15.0804 101.333C14.7758 101.477 14.5025 101.679 14.2763 101.929C14.05 102.178 13.8752 102.47 13.7618 102.788C13.6484 103.105 13.5987 103.442 13.6155 103.778C13.6487 104.458 13.9502 105.096 14.4539 105.554C14.9575 106.011 15.622 106.249 16.3011 106.216C16.9803 106.183 17.6185 105.881 18.0752 105.377C18.532 104.873 18.7701 104.208 18.7369 103.528C18.7209 103.192 18.6387 102.861 18.495 102.557C18.3513 102.252 18.1489 101.978 17.8994 101.752C17.65 101.526 17.3583 101.351 17.0412 101.237C16.7241 101.124 16.3877 101.074 16.0513 101.091Z" fill="black"/>
<path d="M27.4806 113.216C30.8265 113.216 33.5389 110.502 33.5389 107.153C33.5389 103.805 30.8265 101.091 27.4806 101.091C24.1347 101.091 21.4224 103.805 21.4224 107.153C21.4224 110.502 24.1347 113.216 27.4806 113.216Z" fill="black"/>
<path d="M27.7929 113.716C26.5432 113.773 25.3031 113.472 24.2188 112.848C23.1346 112.223 22.2515 111.301 21.6737 110.191C21.0959 109.081 20.8476 107.828 20.958 106.581C21.0684 105.334 21.5329 104.145 22.2968 103.153C22.8079 102.466 23.4536 101.889 24.1945 101.459C24.9354 101.03 25.756 100.755 26.6062 100.653C27.4647 100.536 28.3379 100.591 29.1746 100.817C30.0112 101.042 30.7943 101.433 31.4778 101.966C32.8348 103.027 33.7298 104.572 33.9761 106.278C34.1855 108.012 33.7154 109.759 32.6645 111.153C32.0836 111.905 31.348 112.523 30.5074 112.965C29.6668 113.407 28.7411 113.663 27.7929 113.716ZM27.1683 101.653H26.7311C26.0157 101.746 25.3262 101.982 24.7038 102.347C24.0814 102.712 23.5389 103.199 23.1087 103.778C22.6658 104.353 22.3403 105.009 22.1508 105.709C21.9614 106.41 21.9116 107.141 22.0044 107.86C22.0972 108.58 22.3307 109.274 22.6917 109.904C23.0526 110.533 23.5339 111.085 24.108 111.528C24.6821 111.971 25.3379 112.297 26.0378 112.487C26.7377 112.676 27.4681 112.726 28.1872 112.633C28.9064 112.54 29.6002 112.307 30.2291 111.945C30.858 111.584 31.4097 111.103 31.8526 110.528C32.2961 109.959 32.619 109.305 32.8016 108.606C32.9841 107.908 33.0225 107.179 32.9143 106.466C32.8306 105.745 32.6055 105.049 32.2517 104.416C31.898 103.783 31.4227 103.226 30.8533 102.778C29.7957 101.98 28.4907 101.582 27.1683 101.653Z" fill="black"/>
<path d="M32.6022 106.904C32.6684 108.263 32.1924 109.593 31.2788 110.601C30.8264 111.1 30.2803 111.505 29.6715 111.793C29.0627 112.081 28.4032 112.246 27.7306 112.279C27.0581 112.312 26.3856 112.211 25.7517 111.984C25.1178 111.757 24.5348 111.407 24.0361 110.954C23.0288 110.04 22.4256 108.763 22.3594 107.404V106.779C23.7661 105.619 25.5062 104.939 27.3262 104.837C29.1461 104.736 30.9508 105.219 32.4773 106.216C32.5397 106.466 32.5397 106.654 32.6022 106.904Z" fill="black"/>
<path d="M27.7306 112.778C26.2497 112.847 24.8019 112.327 23.7023 111.332C22.6028 110.337 21.9405 108.947 21.8597 107.466C21.8283 107.217 21.8283 106.965 21.8597 106.716C21.8715 106.571 21.9386 106.437 22.0471 106.341C23.5551 105.137 25.4017 104.436 27.3281 104.335C29.2545 104.234 31.1642 104.739 32.7895 105.778C32.8938 105.888 32.9783 106.015 33.0393 106.153C33.0393 106.403 33.1018 106.653 33.1018 106.841C33.1699 108.339 32.6436 109.804 31.6376 110.916C30.6316 112.028 29.2274 112.698 27.7306 112.778ZM22.859 107.028V107.403C22.8276 108.05 22.9323 108.696 23.1662 109.3C23.4001 109.903 23.758 110.451 24.2168 110.908C24.6756 111.364 25.2251 111.719 25.8297 111.95C26.4343 112.18 27.0804 112.281 27.7265 112.246C28.3725 112.211 29.0039 112.04 29.5799 111.745C30.1559 111.451 30.6636 111.038 31.0702 110.534C31.4769 110.031 31.7733 109.447 31.9403 108.822C32.1074 108.197 32.1414 107.543 32.04 106.903V106.528C30.6268 105.692 28.9947 105.3 27.3558 105.403C25.7255 105.469 24.1552 106.037 22.859 107.028Z" fill="black"/>
<path d="M23.2337 100.778C23.163 100.787 23.0913 100.781 23.0232 100.76C22.9552 100.739 22.8925 100.703 22.8392 100.656C22.786 100.609 22.7435 100.55 22.7146 100.485C22.6857 100.42 22.671 100.35 22.6716 100.278L22.5466 98.5908C22.5458 98.4519 22.5964 98.3175 22.6886 98.2137C22.7809 98.1098 22.9083 98.0438 23.0463 98.0283C23.117 98.0194 23.1887 98.0257 23.2567 98.0468C23.3248 98.0679 23.3875 98.1034 23.4407 98.1507C23.4939 98.1981 23.5364 98.2562 23.5654 98.3214C23.5943 98.3865 23.609 98.4571 23.6084 98.5283V100.216C23.6272 100.278 23.632 100.343 23.6226 100.407C23.6132 100.471 23.5897 100.532 23.5539 100.586C23.518 100.639 23.4707 100.685 23.4154 100.718C23.36 100.751 23.2979 100.772 23.2337 100.778Z" fill="black"/>
<path d="M31.0406 100.403C30.9085 100.384 30.785 100.326 30.6851 100.237C30.5853 100.148 30.5135 100.032 30.4785 99.9033V98.1533C30.4785 98.0207 30.5312 97.8935 30.6249 97.7997C30.7186 97.7059 30.8456 97.6533 30.9782 97.6533C31.228 97.5908 31.4778 97.8408 31.5403 98.0908V99.8408C31.5411 99.9797 31.4906 100.114 31.3983 100.218C31.306 100.322 31.1786 100.388 31.0406 100.403Z" fill="black"/>
<path d="M31.5405 110.278C30.7025 111.342 29.4821 112.036 28.14 112.211C26.7979 112.386 25.4406 112.029 24.358 111.216C23.8249 110.806 23.3777 110.294 23.0421 109.711C22.7064 109.128 22.4889 108.484 22.4019 107.816C22.3149 107.149 22.3601 106.471 22.535 105.821C22.7099 105.171 23.011 104.562 23.4212 104.028C23.5425 103.867 23.7052 103.741 23.892 103.664C24.0789 103.587 24.283 103.562 24.4829 103.591C26.0751 103.754 27.5898 104.36 28.8549 105.341C30.1389 106.315 31.1148 107.638 31.6654 109.153C31.7526 109.334 31.7872 109.535 31.7651 109.734C31.743 109.933 31.6651 110.122 31.5405 110.278Z" fill="#FF00FF"/>
<path d="M27.7305 112.778C26.3982 112.849 25.0866 112.426 24.0456 111.591C22.8626 110.686 22.0865 109.349 21.8874 107.873C21.6884 106.397 22.0827 104.902 22.9839 103.716C23.1646 103.498 23.3954 103.327 23.6564 103.219C23.9175 103.11 24.2011 103.066 24.4828 103.091C26.1845 103.238 27.8093 103.866 29.167 104.903C30.541 105.936 31.5831 107.348 32.1649 108.966C32.2652 109.235 32.2949 109.526 32.2511 109.811C32.2074 110.095 32.0917 110.364 31.9151 110.591C31.4302 111.25 30.8011 111.79 30.0759 112.169C29.3506 112.548 28.5485 112.757 27.7305 112.778ZM24.2954 104.091C24.1029 104.107 23.9239 104.196 23.7958 104.341C23.0667 105.313 22.7497 106.534 22.9133 107.739C23.0769 108.944 23.7081 110.036 24.6702 110.778C25.1446 111.151 25.6881 111.426 26.2693 111.587C26.8505 111.747 27.4579 111.791 28.0562 111.716C28.6545 111.64 29.2319 111.447 29.7549 111.146C30.2779 110.846 30.7362 110.445 31.1032 109.966C31.1686 109.877 31.2137 109.775 31.2353 109.667C31.2569 109.559 31.2544 109.448 31.2281 109.341C30.6702 107.915 29.7433 106.664 28.5425 105.716C27.3439 104.805 25.9176 104.243 24.4204 104.091H24.2954Z" fill="black"/>
<path d="M28.2302 99.4036L25.9193 99.5286C25.8486 99.5375 25.7769 99.5312 25.7089 99.5101C25.6408 99.489 25.5781 99.4536 25.5249 99.4062C25.4716 99.3589 25.4291 99.3007 25.4002 99.2356C25.3713 99.1704 25.3566 99.0999 25.3572 99.0286C25.3572 98.896 25.4098 98.7688 25.5035 98.6751C25.5972 98.5813 25.7243 98.5286 25.8568 98.5286L28.1677 98.4036C28.2345 98.3836 28.305 98.3799 28.3735 98.3927C28.442 98.4056 28.5064 98.4346 28.5614 98.4774C28.6164 98.5202 28.6604 98.5756 28.6897 98.6388C28.719 98.7021 28.7327 98.7714 28.7298 98.8411C28.7387 98.9118 28.7324 98.9836 28.7113 99.0517C28.6902 99.1198 28.6549 99.1825 28.6075 99.2358C28.5602 99.2891 28.5021 99.3316 28.437 99.3605C28.3719 99.3895 28.3014 99.4042 28.2302 99.4036Z" fill="black"/>
<path d="M40.5965 82.0284C40.8676 82.0279 41.1286 82.1312 41.326 82.3172C41.5235 82.5031 41.6423 82.7576 41.6583 83.0284L43.1572 111.966C43.1577 112.237 43.0544 112.498 42.8686 112.696C42.6828 112.893 42.4285 113.012 42.1579 113.028L13.2407 114.528C12.9696 114.529 12.7086 114.426 12.5112 114.24C12.3138 114.054 12.1949 113.799 12.179 113.528L10.68 84.5909C10.6795 84.3196 10.7828 84.0584 10.9686 83.8608C11.1544 83.6633 11.4087 83.5443 11.6793 83.5284L40.5965 82.0284ZM40.5341 81.0284L11.6169 82.5284C11.3488 82.5362 11.0852 82.598 10.8415 82.7099C10.5978 82.8219 10.3791 82.9817 10.1985 83.18C10.0178 83.3783 9.87889 83.6109 9.78994 83.864C9.70099 84.1171 9.66385 84.3856 9.68072 84.6534L11.1797 113.591C11.1875 113.859 11.2492 114.123 11.3611 114.367C11.473 114.611 11.6327 114.829 11.8308 115.01C12.029 115.191 12.2614 115.33 12.5144 115.419C12.7673 115.508 13.0356 115.545 13.3032 115.528L42.2204 114.028C42.4884 114.021 42.7521 113.959 42.9958 113.847C43.2394 113.735 43.4581 113.575 43.6388 113.377C43.8194 113.178 43.9583 112.946 44.0473 112.693C44.1362 112.44 44.1734 112.171 44.1565 111.903L42.6576 82.9659C42.6497 82.6977 42.588 82.4338 42.4762 82.19C42.3643 81.9461 42.2045 81.7273 42.0064 81.5465C41.8083 81.3657 41.5758 81.2267 41.3228 81.1377C41.0699 81.0487 40.8017 81.0115 40.5341 81.0284Z" fill="black"/>
<path d="M53.6498 84.2157L51.5263 82.7157L51.0267 82.3407H50.9018L50.6519 82.1532L49.6526 81.3407C49.4953 81.1832 49.2819 81.0947 49.0593 81.0947C48.8368 81.0947 48.6233 81.1832 48.466 81.3407C48.3086 81.4981 48.2202 81.7117 48.2202 81.9344C48.2202 82.1571 48.3086 82.3707 48.466 82.5282C49.84 83.6532 51.2765 84.7782 52.7755 85.7782C52.9684 85.8737 53.1898 85.8947 53.3973 85.837C53.6047 85.7793 53.7836 85.6471 53.8997 85.4657C53.979 85.3722 54.0362 85.262 54.067 85.1433C54.0977 85.0246 54.1012 84.9004 54.0772 84.7801C54.0531 84.6599 54.0022 84.5466 53.9282 84.4489C53.8542 84.3511 53.759 84.2714 53.6498 84.2157Z" fill="#D4F1FF"/>
<path d="M50.2773 87.6531C48.6223 87.5372 46.975 87.3286 45.3433 87.0281C45.241 86.9898 45.1316 86.9743 45.0227 86.9827C44.9138 86.9911 44.8081 87.0232 44.7129 87.0768C44.6177 87.1304 44.5354 87.2041 44.4716 87.2929C44.4079 87.3816 44.3643 87.4833 44.344 87.5907C44.2815 87.9657 44.4689 88.5281 44.9061 88.5906C46.6773 88.963 48.4719 89.2136 50.2773 89.3407C50.4071 89.3763 50.5433 89.3815 50.6755 89.3559C50.8076 89.3302 50.932 89.2744 51.039 89.1928C51.1461 89.1111 51.2328 89.0058 51.2925 88.8851C51.3522 88.7644 51.3833 88.6316 51.3833 88.4969C51.3833 88.3622 51.3522 88.2294 51.2925 88.1087C51.2328 87.988 51.1461 87.8827 51.039 87.8011C50.932 87.7194 50.8076 87.6636 50.6755 87.6379C50.5433 87.6123 50.4071 87.6175 50.2773 87.6531Z" fill="#D4F1FF"/>
<path d="M162.698 26.9033C167.008 27.5908 170.068 28.5908 169.319 33.6533C168.569 38.7158 166.633 38.5283 161.699 37.8408C156.765 37.1533 157.764 29.9658 162.698 26.9033Z" fill="#6E8CFB"/>
<path d="M161.512 38.1533C160.709 38.0345 159.965 37.6623 159.388 37.0908C158.825 36.5248 158.434 35.8091 158.264 35.0283C158.037 33.4868 158.299 31.9127 159.014 30.5283C159.795 28.9351 161.006 27.5927 162.511 26.6533H162.761C165.072 27.0283 166.883 27.4658 168.07 28.4033C169.256 29.3408 170.006 31.2783 169.631 33.7158C169.256 36.1533 168.569 37.7158 167.195 38.2783C165.821 38.8408 164.26 38.5908 161.637 38.2158L161.512 38.1533ZM162.761 27.2158C161.387 28.1089 160.285 29.363 159.576 30.8408C158.908 32.0831 158.667 33.5104 158.889 34.9033C159.02 35.5926 159.371 36.2208 159.889 36.6939C160.407 37.1671 161.064 37.4598 161.762 37.5283C164.26 37.9033 165.884 38.0908 166.945 37.5908C168.007 37.0908 168.632 36.5283 169.006 33.5908C169.381 30.6533 168.944 29.8408 167.695 28.8408C166.446 27.8408 164.947 27.5908 162.761 27.2158Z" fill="black"/>
<path d="M163.198 28.9033C166.133 29.4033 167.82 30.4658 167.82 32.9033C167.82 35.3408 167.32 37.7783 162.199 36.4033C157.077 35.0283 163.198 28.9033 163.198 28.9033Z" fill="#BCCBFB"/>
<path d="M163.448 36.9658C162.979 36.9149 162.518 36.8101 162.074 36.6533C160.887 36.3408 160.138 35.7158 159.888 34.7783C159.263 32.3408 162.823 28.8408 162.948 28.6533L163.073 28.5283H163.261C164.539 28.6585 165.763 29.11 166.821 29.8408C167.255 30.206 167.6 30.6668 167.827 31.1871C168.055 31.7075 168.159 32.2735 168.132 32.8408C168.126 33.5116 168.063 34.1806 167.945 34.8408C167.781 35.4853 167.407 36.0569 166.883 36.4658C166.134 37.0908 165.009 37.2783 163.448 36.9658ZM163.323 29.2158C163.073 29.5283 162.386 30.2158 161.699 31.1533C161.012 32.0908 160.263 33.7783 160.512 34.6533C160.762 35.5283 161.262 35.7783 162.261 36.0908C164.26 36.6533 165.696 36.5908 166.508 36.0283C167.32 35.4658 167.508 34.1533 167.508 32.9033C167.508 31.6533 166.258 29.7783 163.323 29.2158Z" fill="black"/>
<path d="M141.463 20.5911C137.091 18.6536 133.719 17.7786 131.22 21.1536C128.722 24.5286 128.66 27.4036 129.472 29.0286C130.284 30.6536 131.97 32.0911 136.279 31.5911C140.589 31.0911 139.964 29.6536 141.463 20.5911Z" fill="#6E8CFB"/>
<path d="M133.032 31.9037C132.211 31.7974 131.428 31.491 130.753 31.0115C130.078 30.5321 129.531 29.8941 129.159 29.1537C128.698 28.0689 128.589 26.8664 128.847 25.7162C129.165 23.9857 129.893 22.3568 130.971 20.9662C131.479 20.1978 132.178 19.5749 132.999 19.1585C133.82 18.7421 134.735 18.5466 135.655 18.5912C137.466 18.5912 139.59 19.4037 141.588 20.2787L141.776 20.4037V20.5912C141.526 22.0912 141.338 23.3412 141.151 24.4037C140.776 27.2787 140.464 29.0287 139.839 30.1537C139.215 31.2787 138.028 31.7162 136.279 31.9037C135.2 32.0293 134.111 32.0293 133.032 31.9037ZM136.717 19.3412C134.531 18.9662 132.844 19.4662 131.47 21.3412C129.097 24.6537 129.035 27.4037 129.784 28.9037C131.22 31.8412 134.968 31.4037 136.217 31.2787C137.466 31.1537 138.84 30.7162 139.34 29.8412C139.839 28.9662 140.152 27.1537 140.526 24.3412C140.714 23.2787 140.839 22.0912 141.089 20.7787C139.704 20.1018 138.233 19.6182 136.717 19.3412Z" fill="black"/>
<path d="M139.84 21.5282C136.404 20.2782 134.281 20.2782 132.844 21.8407C131.408 23.4032 130.034 26.7157 131.033 28.3407C132.033 29.9657 133.969 31.1532 137.466 30.2157C140.964 29.2782 139.84 21.5282 139.84 21.5282Z" fill="#BCCBFB"/>
<path d="M134.031 30.7783L133.219 30.5283C132.188 30.1578 131.309 29.4542 130.721 28.5283C130.409 27.9658 130.096 26.8408 130.721 24.9658C131.141 23.7578 131.776 22.6356 132.595 21.6533C134.031 20.0283 136.28 19.9033 139.964 21.2783H140.152V21.4658C140.214 21.7783 141.276 29.4033 137.529 30.4658C136.397 30.8108 135.206 30.9172 134.031 30.7783ZM136.967 21.0908C136.516 20.9902 136.054 20.9482 135.593 20.9658C135.124 20.9478 134.657 21.0338 134.225 21.2174C133.793 21.4011 133.407 21.678 133.094 22.0283C131.783 23.5908 130.409 26.7158 131.283 28.2158C132.157 29.7158 133.781 30.8408 137.404 29.9033C139.028 29.4658 139.527 27.2783 139.652 25.5283C139.739 24.2788 139.718 23.0242 139.59 21.7783C138.74 21.4628 137.862 21.2325 136.967 21.0908Z" fill="black"/>
<path d="M153.767 18.9034C161.324 21.3409 164.385 24.9034 162.761 32.8409C161.137 40.7784 160.013 50.9034 145.023 48.0284C130.034 45.1534 132.657 30.1534 134.843 25.7784C137.029 21.4034 144.586 15.9034 153.767 18.9034Z" fill="#6E8CFB"/>
<path d="M145.523 48.4659L144.961 48.3409C139.84 47.4034 136.28 44.9659 134.406 41.0909C133.126 38.3632 132.608 35.3395 132.907 32.3409C133.051 30.0134 133.6 27.729 134.531 25.5909C135.208 24.2905 136.119 23.1254 137.216 22.1534C138.511 20.9981 139.962 20.0304 141.526 19.2784C145.412 17.4879 149.832 17.2421 153.892 18.5909C157.952 19.9659 160.512 21.5284 162.011 23.6534C163.51 25.7784 163.885 28.9034 163.073 32.9034C163.011 33.3409 162.886 33.7784 162.823 34.2159C162.074 37.9659 161.2 42.2784 158.764 45.2159C156.328 48.1534 151.644 49.5284 145.523 48.4659ZM151.269 18.5909C148.051 18.0354 144.74 18.4713 141.776 19.8409C138.84 21.2159 136.28 23.5284 135.093 25.9034C134.182 27.9351 133.652 30.1173 133.531 32.3409C133.237 35.252 133.733 38.1887 134.968 40.8409C136.779 44.4659 140.152 46.7784 145.086 47.7159C147.839 48.3314 150.692 48.3527 153.455 47.7784C155.337 47.319 157.023 46.2675 158.264 44.7784C160.637 41.9659 161.449 37.9659 162.199 34.0909C162.261 33.6534 162.386 33.2159 162.449 32.7784C163.261 28.9034 162.948 26.1534 161.449 24.0284C159.95 21.9034 157.64 20.5284 153.705 19.2159L151.269 18.5909Z" fill="black"/>
<path d="M161.512 30.2157C159.451 29.4032 156.14 29.5907 153.08 32.6532C150.02 35.7157 146.397 40.2157 148.271 44.7157C150.145 49.2157 154.579 49.2157 158.201 45.9032C161.824 42.5907 167.945 32.7157 161.512 30.2157Z" fill="white"/>
<path d="M152.143 48.4657H151.956C150.207 48.0907 148.833 46.7782 148.021 44.8407C147.209 42.9032 147.272 40.4657 148.583 38.0282C149.083 36.9657 150.145 35.2157 152.893 32.4032C154.158 31.0553 155.784 30.1006 157.577 29.6532C158.927 29.3539 160.334 29.4405 161.637 29.9032C162.374 30.1662 163.032 30.6148 163.546 31.2059C164.06 31.7971 164.414 32.5108 164.572 33.2782C164.759 34.5907 164.697 36.9032 162.761 40.4032C161.628 42.5302 160.175 44.4697 158.451 46.1532C156.453 47.9657 154.142 48.8407 152.143 48.4657ZM160.325 30.2157C159.454 30.0807 158.566 30.1019 157.702 30.2782C156.032 30.702 154.516 31.5904 153.33 32.8407C152.081 34.1532 150.207 36.1532 149.145 38.2782C148.084 40.4032 147.771 42.6532 148.583 44.5907C148.868 45.3706 149.333 46.0718 149.941 46.6368C150.549 47.2018 151.283 47.6144 152.081 47.8407C153.954 48.2157 156.078 47.4657 158.014 45.7157C159.683 44.0466 161.113 42.1535 162.261 40.0907C163.635 37.4657 164.26 35.0907 163.947 33.4032C163.826 32.7444 163.53 32.1302 163.09 31.6246C162.651 31.119 162.084 30.7404 161.449 30.5282L160.325 30.2157Z" fill="black"/>
<path d="M153.83 47.4035C152.018 46.9035 151.581 43.841 155.141 40.2785C158.701 36.716 160.825 36.966 162.324 37.966C163.823 38.966 164.135 42.841 160.2 45.1535C156.266 47.466 155.703 47.966 153.83 47.4035Z" fill="black"/>
<path d="M154.454 47.9034L153.767 47.7159C153.392 47.6088 153.054 47.4006 152.79 47.1139C152.525 46.8273 152.345 46.4734 152.268 46.0909C152.035 45.1874 152.146 44.2292 152.581 43.4034C153.119 42.1385 153.93 41.0076 154.954 40.0909C156.661 38.3826 158.16 37.3826 159.451 37.0909C159.972 36.9678 160.513 36.9542 161.04 37.0511C161.567 37.1479 162.068 37.353 162.511 37.6534C162.92 37.9926 163.241 38.4252 163.447 38.9147C163.654 39.4042 163.74 39.9363 163.698 40.4659C163.698 41.4034 163.323 43.7159 160.388 45.4659L159.388 46.0284C156.703 47.5909 155.828 48.1534 154.454 47.9034ZM160.887 37.6534C160.449 37.6117 160.008 37.6328 159.576 37.7159C158.389 38.0284 157.015 38.9659 155.391 40.5284C152.518 43.4034 152.705 45.4034 152.83 45.9034C152.89 46.186 153.026 46.4466 153.225 46.6562C153.423 46.8658 153.676 47.0163 153.955 47.0909C155.516 47.5909 156.078 47.2784 159.076 45.4659L160.075 44.9034C162.698 43.3409 163.011 41.2784 163.073 40.4659C163.1 40.0441 163.03 39.6216 162.867 39.2314C162.705 38.8412 162.455 38.4937 162.136 38.2159C161.759 37.952 161.335 37.7612 160.887 37.6534Z" fill="black"/>
<path d="M139.027 24.2787C142.962 24.7162 145.148 29.3412 145.273 33.7162C145.398 38.0912 144.711 43.4037 139.527 43.8412C134.343 44.2787 132.719 39.5912 132.657 33.9662C132.594 28.3412 134.343 23.7787 139.027 24.2787Z" fill="white"/>
<path d="M137.778 44.1536C136.811 43.9714 135.907 43.5406 135.155 42.9036C133.344 41.2786 132.407 38.2786 132.345 33.9661C132.282 29.6536 133.157 26.8411 134.905 25.2161C135.458 24.717 136.114 24.3462 136.827 24.1302C137.539 23.9141 138.291 23.8581 139.027 23.9661C140.038 24.111 141 24.4922 141.835 25.0785C142.671 25.6649 143.356 26.44 143.837 27.3411C144.946 29.2625 145.548 31.4349 145.585 33.6536C145.71 36.4661 145.398 38.7161 144.711 40.3411C144.319 41.4106 143.627 42.3446 142.719 43.0317C141.811 43.7188 140.725 44.1299 139.59 44.2161C138.985 44.259 138.378 44.2381 137.778 44.1536ZM138.965 24.5911C138.321 24.5108 137.667 24.5637 137.044 24.7465C136.421 24.9292 135.842 25.238 135.343 25.6536C133.719 27.1536 132.907 30.0911 132.969 33.9661C133.032 37.8411 133.969 40.9661 135.592 42.4036C136.12 42.8768 136.749 43.2239 137.431 43.4188C138.112 43.6137 138.829 43.6512 139.527 43.5286C140.591 43.4807 141.614 43.1101 142.463 42.4661C143.203 41.8307 143.763 41.0116 144.086 40.0911C144.849 38.0579 145.148 35.8798 144.961 33.7161C144.916 31.5856 144.336 29.5006 143.275 27.6536C142.842 26.8446 142.227 26.147 141.479 25.6156C140.732 25.0842 139.871 24.7336 138.965 24.5911Z" fill="black"/>
<path d="M138.403 42.4037C136.592 42.7787 133.969 42.2787 132.595 39.1537C131.221 36.0287 131.47 30.7162 135.03 30.2787C138.59 29.8412 139.59 32.6537 140.277 35.2162C140.964 37.7787 141.089 41.8412 138.403 42.4037Z" fill="black"/>
<path d="M136.404 42.7161L135.218 42.4036C133.877 41.7745 132.827 40.6566 132.282 39.2786C131.78 38.0904 131.504 36.8184 131.47 35.5286C131.422 34.2502 131.702 32.9809 132.282 31.8411C132.547 31.3363 132.93 30.9025 133.397 30.5762C133.864 30.25 134.403 30.0407 134.968 29.9661C136.717 29.7786 137.966 30.2161 138.965 31.4036C139.709 32.5329 140.258 33.7795 140.589 35.0911C141.151 37.0911 141.276 39.8411 140.339 41.4036C140.131 41.7367 139.857 42.0245 139.535 42.25C139.213 42.4754 138.85 42.6339 138.465 42.7161C137.784 42.8418 137.086 42.8418 136.404 42.7161ZM136.467 30.5911H135.03C134.568 30.6586 134.129 30.8357 133.748 31.1074C133.368 31.3792 133.058 31.7379 132.844 32.1536C132.362 33.2353 132.113 34.4066 132.113 35.5911C132.113 36.7756 132.362 37.9468 132.844 39.0286C134.468 42.5911 137.466 42.2786 138.341 42.0911C138.64 42.0444 138.925 41.93 139.174 41.7568C139.423 41.5835 139.629 41.3559 139.777 41.0911C140.402 40.0286 140.714 37.8411 139.964 35.2786C139.7 34.0439 139.19 32.875 138.465 31.8411C137.967 31.2016 137.26 30.7589 136.467 30.5911Z" fill="black"/>
<path d="M145.211 44.7158C147.272 45.3408 148.521 46.0283 148.396 47.6533C148.271 49.2783 147.522 49.4033 143.962 48.4658C140.402 47.5283 140.526 46.0283 140.964 45.2158C141.401 44.4033 142.338 43.7783 145.211 44.7158Z" fill="#BCCBFD"/>
<path d="M145.898 49.2782L143.899 48.7782C142.025 48.3199 140.901 47.6324 140.526 46.7157C140.428 46.4491 140.394 46.1632 140.426 45.8809C140.459 45.5986 140.557 45.3279 140.714 45.0907C141.463 43.8407 142.837 43.6532 145.273 44.4032C147.147 44.9657 148.896 45.7157 148.708 47.6532C148.71 47.9232 148.655 48.1905 148.548 48.438C148.44 48.6856 148.282 48.9079 148.084 49.0907C147.405 49.4274 146.624 49.4944 145.898 49.2782ZM143.774 44.6532C141.838 44.3407 141.463 45.0282 141.276 45.4032C141.173 45.5582 141.109 45.7351 141.087 45.9196C141.065 46.1042 141.087 46.2912 141.151 46.4657C141.338 46.9657 142.025 47.6532 144.024 48.2157C146.023 48.7782 147.209 48.9032 147.709 48.5907C148.209 48.2782 148.021 48.1532 148.084 47.5907C148.146 47.0282 147.459 45.7157 145.086 45.0282L143.774 44.6532Z" fill="black"/>
<path d="M142.9 45.4032C143.462 45.7157 143.712 45.8407 143.462 46.2782C143.212 46.7157 142.962 46.7157 142.525 46.5907C142.426 46.5707 142.332 46.5289 142.25 46.4683C142.169 46.4077 142.102 46.3298 142.054 46.2401C142.006 46.1505 141.979 46.0513 141.974 45.9498C141.969 45.8484 141.987 45.747 142.026 45.6532C142.213 45.2157 142.4 45.2157 142.9 45.4032Z" fill="#6E8CFB"/>
<path d="M142.713 46.9659H142.4C142.11 46.8689 141.866 46.6688 141.713 46.4034C141.618 46.141 141.618 45.8533 141.713 45.5909C141.838 45.4034 141.963 45.1534 142.213 45.0909C142.463 45.0284 142.713 45.0909 143.025 45.2159C143.337 45.3409 143.712 45.5284 143.837 45.8409C143.872 45.9434 143.885 46.0524 143.874 46.1603C143.863 46.2682 143.829 46.3725 143.774 46.4659C143.691 46.6662 143.536 46.8282 143.34 46.9206C143.143 47.013 142.92 47.0292 142.713 46.9659ZM142.4 45.5909C142.392 45.657 142.371 45.7207 142.338 45.7784C142.295 45.8549 142.274 45.9411 142.275 46.0284C142.349 46.1438 142.459 46.2316 142.588 46.2784C143.025 46.4034 143.087 46.3409 143.212 46.1534V46.0284C143.212 45.9659 143.15 45.9034 142.775 45.7159L142.4 45.5909Z" fill="black"/>
<path d="M146.647 46.653C147.397 46.903 147.647 47.0905 147.272 47.5905C147.156 47.7719 146.977 47.9041 146.769 47.9618C146.562 48.0195 146.341 47.9985 146.148 47.903C146.047 47.8868 145.952 47.8462 145.87 47.7847C145.789 47.7232 145.724 47.6427 145.681 47.5502C145.638 47.4577 145.618 47.3561 145.623 47.2541C145.628 47.1522 145.658 47.0531 145.71 46.9655C145.96 46.4655 146.148 46.4655 146.647 46.653Z" fill="#6E8CFB"/>
<path d="M146.335 48.2782H146.023C145.75 48.1785 145.526 47.9769 145.398 47.7157C145.297 47.4543 145.297 47.1646 145.398 46.9032C145.773 46.1532 146.21 46.2157 146.772 46.4032C147.209 46.5907 147.647 46.7157 147.709 47.0907C147.771 47.4657 147.584 47.7157 147.522 47.8407C147.391 48.0243 147.207 48.1643 146.996 48.2423C146.784 48.3203 146.554 48.3328 146.335 48.2782ZM146.273 46.8407C146.148 46.8407 146.085 46.9032 146.023 47.0907C145.978 47.1885 145.956 47.2956 145.96 47.4032L146.273 47.5907C146.647 47.7157 146.835 47.6532 147.022 47.4032L147.147 47.2157L146.585 46.9657L146.273 46.8407Z" fill="black"/>
<path d="M153.892 27.2783C152.955 27.2158 150.957 24.7158 150.145 22.2783C149.333 19.8408 148.459 17.1533 150.02 14.9033C151.581 12.6533 154.642 13.4658 155.641 14.2158C156.64 14.9658 158.576 16.7783 157.452 20.7783C156.328 24.7783 155.016 27.3408 153.892 27.2783Z" fill="#14CD78"/>
<path d="M153.83 27.5908C152.518 27.3408 150.644 24.6533 149.833 22.4033C149.021 20.1533 148.084 17.0908 149.77 14.7783C150.035 14.3533 150.391 13.9926 150.812 13.7224C151.233 13.4521 151.709 13.2791 152.206 13.2158C153.465 12.9992 154.759 13.2671 155.828 13.9658C157.952 15.5283 158.576 17.9033 157.764 20.9033C157.36 22.567 156.774 24.181 156.016 25.7158C155.266 27.0283 154.579 27.6533 153.892 27.5908H153.83ZM153.83 13.8408C153.334 13.7477 152.826 13.7477 152.331 13.8408C151.919 13.8951 151.524 14.0343 151.169 14.2494C150.814 14.4646 150.508 14.7511 150.27 15.0908C149.599 16.0563 149.309 17.2366 149.458 18.4033C149.607 19.6885 149.922 20.949 150.395 22.1533C150.85 23.3327 151.459 24.4465 152.206 25.4658C153.018 26.5283 153.642 26.9658 153.955 26.9658C154.267 26.9658 154.891 26.4033 155.454 25.4033C156.17 23.894 156.755 22.3257 157.202 20.7158C157.889 17.9658 157.327 15.8408 155.454 14.4658C154.965 14.1407 154.41 13.9273 153.83 13.8408Z" fill="black"/>
<path d="M153.83 22.3409C153.708 22.3256 153.597 22.2662 153.516 22.1741C153.435 22.0819 153.391 21.9634 153.392 21.8409C152.833 18.1183 153.11 14.3177 154.204 10.7159C154.329 10.4034 154.579 10.2159 154.891 10.3409C154.965 10.3538 155.036 10.3832 155.097 10.4271C155.158 10.4709 155.208 10.528 155.244 10.5941C155.281 10.6602 155.301 10.7336 155.305 10.8088C155.309 10.884 155.295 10.9591 155.266 11.0284C154.235 14.4705 153.959 18.0945 154.454 21.6534C154.472 21.7274 154.476 21.8043 154.463 21.8795C154.451 21.9547 154.424 22.0267 154.383 22.091C154.342 22.1552 154.288 22.2106 154.225 22.2535C154.163 22.2965 154.092 22.3262 154.017 22.3409H153.83Z" fill="#B1F7C5"/>
<path d="M154.829 10.341H154.891C154.965 10.3538 155.036 10.3833 155.097 10.4271C155.158 10.471 155.208 10.5281 155.244 10.5942C155.281 10.6603 155.301 10.7337 155.305 10.8089C155.309 10.8841 155.295 10.9591 155.266 11.0285C154.235 14.4706 153.959 18.0946 154.454 21.6535C154.472 21.7274 154.476 21.8043 154.463 21.8796C154.451 21.9548 154.424 22.0267 154.383 22.091C154.342 22.1553 154.288 22.2106 154.225 22.2536C154.163 22.2965 154.092 22.3263 154.017 22.341H153.83C153.708 22.3257 153.597 22.2663 153.516 22.1741C153.435 22.082 153.391 21.9634 153.392 21.841C152.833 18.1183 153.11 14.3177 154.204 10.716C154.219 10.6492 154.247 10.5862 154.286 10.5307C154.326 10.4752 154.377 10.4284 154.435 10.3933C154.494 10.3581 154.559 10.3354 154.627 10.3264C154.694 10.3174 154.763 10.3223 154.829 10.341ZM154.954 9.65346C154.66 9.623 154.364 9.69285 154.115 9.85168C153.865 10.0105 153.677 10.249 153.58 10.5285C152.484 14.2371 152.207 18.1396 152.768 21.966C152.801 22.2091 152.91 22.4358 153.077 22.6149C153.245 22.794 153.464 22.9166 153.705 22.966H154.142C154.447 22.9054 154.716 22.7273 154.891 22.4702C155.066 22.213 155.134 21.8973 155.079 21.591C154.582 18.115 154.859 14.5721 155.891 11.216C155.97 10.9095 155.931 10.5842 155.78 10.3058C155.629 10.0274 155.379 9.81658 155.079 9.71596L154.954 9.65346Z" fill="black"/>
<path d="M158.826 39.2785C158.264 39.7785 157.39 40.341 156.89 39.7785C156.39 39.216 157.015 38.4035 157.515 37.9035C158.014 37.4035 158.889 36.841 159.451 37.4035C160.013 37.966 159.326 38.7785 158.826 39.2785Z" fill="white"/>
<path d="M157.202 40.2786C156.982 40.2497 156.781 40.1379 156.64 39.9661C156.492 39.7841 156.401 39.5624 156.379 39.3288C156.357 39.0952 156.404 38.8602 156.515 38.6536C156.722 38.2729 156.997 37.9338 157.327 37.6536C157.63 37.3544 157.992 37.1204 158.389 36.9661C158.594 36.8558 158.83 36.8205 159.058 36.8661C159.286 36.9117 159.491 37.0355 159.638 37.2161C160.2 37.7786 159.95 38.6536 159.013 39.5286C158.791 39.7861 158.511 39.9879 158.197 40.1181C157.882 40.2483 157.542 40.3033 157.202 40.2786ZM159.013 37.5286C158.943 37.4913 158.863 37.4773 158.785 37.4885C158.706 37.4998 158.633 37.5357 158.576 37.5911C158.254 37.6897 157.97 37.8863 157.764 38.1536C157.482 38.3586 157.265 38.6408 157.14 38.9661C156.952 39.3411 157.077 39.4661 157.14 39.5286C157.202 39.5911 157.327 39.7786 157.764 39.5911C158.087 39.4925 158.37 39.2959 158.576 39.0286C158.841 38.8065 159.054 38.5292 159.201 38.2161C159.388 37.8411 159.263 37.6536 159.201 37.6536L159.013 37.5286Z" fill="black"/>
<path d="M134.343 33.4657C134.031 33.9657 133.406 34.5907 132.907 34.0282C132.407 33.4657 132.782 32.5907 133.094 32.0907C133.406 31.5907 134.031 30.9657 134.531 31.5282C135.03 32.0907 134.718 32.9657 134.343 33.4657Z" fill="white"/>
<path d="M133.219 34.5908C133.022 34.5476 132.845 34.4372 132.72 34.2783C132.095 33.6533 132.345 32.6533 132.782 31.9033C133.219 31.1533 133.469 31.0283 133.969 30.9658C134.268 30.9693 134.556 31.0802 134.781 31.2783C135.53 32.0908 134.843 33.2783 134.656 33.6533C134.468 34.0283 133.969 34.5283 133.469 34.5908H133.219ZM134.094 31.5908H134.031C133.742 31.7504 133.504 31.9888 133.344 32.2783C133.169 32.5229 133.042 32.7987 132.969 33.0908C132.949 33.222 132.956 33.3559 132.988 33.4847C133.02 33.6134 133.077 33.7345 133.157 33.8408L133.407 33.9658C133.696 33.8062 133.934 33.5678 134.094 33.2783C134.269 33.0337 134.396 32.758 134.468 32.4658C134.508 32.3356 134.512 32.1969 134.479 32.0648C134.446 31.9327 134.377 31.812 134.281 31.7158L134.094 31.5908Z" fill="black"/>
<path d="M158.701 46.591C158.202 47.091 157.265 47.6535 156.765 47.091C156.266 46.5285 156.89 45.716 157.39 45.216C157.889 44.716 158.826 44.1535 159.326 44.716C159.826 45.2785 159.201 46.1535 158.701 46.591Z" fill="white"/>
<path d="M157.14 47.6533C156.927 47.6029 156.733 47.4947 156.578 47.3408C156.412 47.1701 156.304 46.951 156.27 46.7151C156.237 46.4792 156.279 46.2387 156.39 46.0283C156.619 45.6437 156.891 45.2871 157.202 44.9658C157.506 44.6666 157.867 44.4326 158.264 44.2783C158.481 44.1742 158.725 44.1424 158.961 44.1874C159.197 44.2323 159.412 44.3518 159.576 44.5283C160.075 45.0908 159.825 45.9658 158.889 46.8408C158.585 47.14 158.224 47.374 157.827 47.5283C157.612 47.6259 157.376 47.6688 157.14 47.6533ZM158.889 44.8408H158.451C158.14 44.9618 157.862 45.1546 157.64 45.4033C157.375 45.6254 157.162 45.9027 157.015 46.2158C156.828 46.5908 156.952 46.7783 157.015 46.8408C157.077 46.9033 157.202 47.0283 157.64 46.9033C157.938 46.7592 158.212 46.5694 158.451 46.3408C158.721 46.1233 158.935 45.8448 159.076 45.5283C159.263 45.0908 159.138 44.9658 159.076 44.9033C159.014 44.8408 159.014 44.8408 158.889 44.8408Z" fill="black"/>
<path d="M140.089 40.4661C140.074 40.5979 140.032 40.7252 139.967 40.8408C139.902 40.9563 139.815 41.0578 139.71 41.1392C139.606 41.2206 139.486 41.2804 139.358 41.3151C139.23 41.3497 139.096 41.3586 138.965 41.3411C138.816 41.3449 138.668 41.3103 138.536 41.2406C138.403 41.171 138.291 41.0686 138.21 40.9433C138.128 40.8179 138.08 40.6738 138.071 40.5246C138.061 40.3754 138.089 40.2262 138.153 40.0911C138.211 39.8212 138.361 39.5799 138.578 39.4088C138.795 39.2377 139.064 39.1474 139.34 39.1536C139.605 39.2402 139.829 39.4225 139.968 39.6651C140.106 39.9077 140.15 40.1933 140.089 40.4661Z" fill="white"/>
<path d="M138.902 41.6535C138.558 41.6036 138.246 41.4249 138.028 41.1535C137.91 40.9943 137.831 40.8092 137.799 40.6136C137.766 40.418 137.781 40.2174 137.841 40.0285C137.926 39.6818 138.128 39.3749 138.412 39.1588C138.696 38.9428 139.045 38.8306 139.402 38.841C139.746 38.9298 140.043 39.1488 140.229 39.4518C140.416 39.7549 140.477 40.1184 140.401 40.466C140.386 40.6446 140.335 40.8182 140.25 40.9761C140.165 41.1341 140.049 41.2729 139.909 41.3842C139.768 41.4955 139.606 41.5768 139.433 41.6231C139.26 41.6694 139.08 41.6797 138.902 41.6535ZM139.277 39.466C138.965 39.4035 138.59 39.716 138.465 40.1535C138.418 40.3631 138.44 40.5823 138.528 40.7785C138.586 40.8561 138.661 40.9191 138.748 40.9625C138.835 41.0059 138.93 41.0285 139.027 41.0285C139.118 41.0371 139.209 41.0277 139.295 41.0009C139.382 40.9741 139.463 40.9303 139.532 40.8722C139.602 40.8141 139.659 40.7428 139.701 40.6623C139.743 40.5819 139.769 40.4939 139.777 40.4035C139.806 40.3091 139.816 40.2099 139.806 40.1117C139.797 40.0134 139.768 39.918 139.722 39.8309C139.675 39.7438 139.612 39.6668 139.536 39.6041C139.459 39.5415 139.372 39.4946 139.277 39.466Z" fill="black"/>
<path d="M69.3889 69.7785L68.6394 69.9035H67.2654L67.0155 69.716L66.8906 69.591H66.8282L66.5783 69.2785L66.2661 68.841C65.986 68.366 65.7558 67.8634 65.579 67.341C65.4976 67.173 65.3564 67.0415 65.1831 66.9721C65.0099 66.9027 64.817 66.9006 64.6422 66.966C64.4855 67.0579 64.3674 67.2036 64.3099 67.376C64.2525 67.5484 64.2596 67.7359 64.3299 67.9035C64.7671 69.0285 65.2668 70.1535 66.2661 70.841C67.2654 71.5285 68.452 71.5285 69.6387 71.2785C70.8254 71.0285 70.3257 70.841 70.2008 70.466C70.2025 70.3642 70.1816 70.2632 70.1395 70.1705C70.0975 70.0777 70.0353 69.9955 69.9576 69.9297C69.8799 69.8639 69.7886 69.8162 69.6902 69.7901C69.5919 69.7639 69.4889 69.76 69.3889 69.7785Z" fill="#BD1F59"/>
<path d="M62.6436 68.3409C62.6067 68.2548 62.5532 68.1767 62.4861 68.1112C62.4191 68.0457 62.3398 67.9941 62.2528 67.9593C62.1658 67.9244 62.0728 67.9071 61.9791 67.9083C61.8854 67.9094 61.7929 67.929 61.7067 67.9659C61.6206 68.0029 61.5426 68.0564 61.4772 68.1235C61.4117 68.1906 61.3601 68.27 61.3253 68.357C61.2906 68.4441 61.2732 68.5371 61.2744 68.6309C61.2755 68.7246 61.2951 68.8173 61.332 68.9034C61.3546 68.9288 61.3718 68.9585 61.3825 68.9907C61.3933 69.023 61.3973 69.0571 61.3945 69.0909C61.3945 69.2159 61.4569 69.2784 61.4569 69.4034V69.7784C61.4343 69.8038 61.4171 69.8335 61.4064 69.8657C61.3956 69.898 61.3916 69.9321 61.3945 69.9659C61.3945 70.0909 61.332 70.1534 61.332 70.2784L61.2071 70.5284C61.2071 70.4659 61.2696 70.4659 61.2071 70.4659V70.5909L61.0822 70.7159L60.8948 70.9659H60.7699L60.5825 71.1534L60.4576 71.2784C60.5201 71.2159 60.5201 71.2159 60.4576 71.2159L60.1453 71.3409H60.0204L59.3959 71.4659C59.305 71.4809 59.218 71.5141 59.1401 71.5634C59.0623 71.6127 58.9952 71.6771 58.9427 71.753C58.8903 71.8288 58.8536 71.9143 58.8349 72.0046C58.8162 72.0949 58.8158 72.188 58.8338 72.2784C58.878 72.4547 58.9847 72.609 59.1341 72.7124C59.2834 72.8159 59.4652 72.8616 59.6457 72.8409C60.1737 72.8004 60.6852 72.6383 61.1402 72.3673C61.5953 72.0962 61.9815 71.7236 62.2688 71.2784C62.5344 70.8428 62.7051 70.3559 62.7696 69.8497C62.8342 69.3435 62.7913 68.8294 62.6436 68.3409Z" fill="#BD1F59"/>
<path d="M63.518 75.4658C63.3601 74.953 63.0289 74.5111 62.5811 74.2158C62.1573 73.9886 61.6875 73.8604 61.2071 73.8408C60.6792 73.8679 60.1557 73.9517 59.6457 74.0908C59.4664 74.1373 59.3106 74.2487 59.2085 74.4033C59.1443 74.4675 59.0987 74.5479 59.0767 74.636C59.0547 74.7241 59.0571 74.8165 59.0836 74.9033C59.0985 74.9943 59.1317 75.0813 59.1809 75.1592C59.2302 75.2371 59.2946 75.3043 59.3704 75.3568C59.4461 75.4093 59.5317 75.446 59.6219 75.4647C59.7121 75.4834 59.8051 75.4838 59.8955 75.4658L60.5201 75.3408H61.9565C61.9565 75.4033 61.9566 75.4033 62.019 75.4033V75.5283C62.019 75.5908 62.019 75.5908 62.0815 75.6533V75.8408C62.1439 76.0283 62.1439 76.2158 62.2064 76.4033C62.2128 76.6784 62.2548 76.9515 62.3313 77.2158C62.4374 77.3666 62.5915 77.4768 62.7685 77.5283C62.9291 77.5911 63.1075 77.5911 63.2681 77.5283C63.4345 77.4532 63.5678 77.3198 63.6429 77.1533C63.7047 76.9709 63.7047 76.7732 63.6429 76.5908C63.7053 76.7783 63.6429 76.5908 63.5804 76.5283V76.4033C63.5804 76.2783 63.518 76.1533 63.518 76.0283C63.5386 75.8414 63.5386 75.6528 63.518 75.4658Z" fill="#BD1F59"/>
<path d="M69.2015 72.716C68.6888 72.7815 68.1857 72.9074 67.7025 73.091C67.2043 73.2479 66.7534 73.5272 66.391 73.9035C66.1325 74.2716 65.964 74.6951 65.8989 75.1402C65.8338 75.5852 65.874 76.0394 66.0162 76.466C66.047 76.6539 66.1481 76.823 66.2988 76.939C66.4496 77.0551 66.6388 77.1094 66.8282 77.091C67.0043 77.0468 67.1584 76.94 67.2618 76.7905C67.3652 76.6411 67.4109 76.4591 67.3903 76.2785C67.3903 76.091 67.3278 75.9035 67.3278 75.7785C67.3278 75.6535 67.3278 75.591 67.2653 75.5285C67.2653 75.4035 67.3278 75.341 67.3278 75.2785H67.765L68.3271 75.0285H68.5145L68.8267 74.9035H69.4513C69.6275 74.8593 69.7816 74.7525 69.885 74.603C69.9884 74.4536 70.034 74.2716 70.0134 74.091C70.1956 73.9833 70.3276 73.8075 70.3803 73.6024C70.433 73.3973 70.4021 73.1796 70.2945 72.9973C70.1868 72.815 70.0112 72.6829 69.8062 72.6301C69.6012 72.5774 69.3837 72.6083 69.2015 72.716Z" fill="#BD1F59"/>
<path d="M78.2577 97.3411L78.0703 96.9036L77.883 96.4661C77.8136 96.3691 77.7179 96.2941 77.6072 96.2498C77.4965 96.2055 77.3755 96.1938 77.2584 96.2161C77.071 96.2161 76.9461 96.4036 76.8837 96.5911C76.8325 96.774 76.8114 96.964 76.8212 97.1536V97.4661C76.8212 97.6536 76.7588 97.7786 76.7588 97.9036C76.665 98.2303 76.665 98.5769 76.7588 98.9036C76.8162 99.0718 76.915 99.2229 77.0459 99.343C77.1768 99.4631 77.3358 99.5484 77.5082 99.5911C77.6684 99.6137 77.8316 99.5971 77.9839 99.5427C78.1362 99.4882 78.273 99.3976 78.3826 99.2786C78.8823 98.6536 78.5075 97.9661 78.2577 97.3411Z" fill="#D4F1FF"/>
<path d="M83.5664 94.9032C83.5411 94.7823 83.4885 94.6689 83.4127 94.5714C83.337 94.4739 83.24 94.395 83.1292 94.3407C83.023 94.2612 82.902 94.2037 82.7733 94.1715C82.6447 94.1393 82.5109 94.1331 82.3798 94.1532H81.6927L81.318 94.0282H81.1931L81.0057 93.9032C80.9222 93.8562 80.824 93.8429 80.731 93.8662C80.6381 93.8894 80.5576 93.9474 80.5061 94.0282C80.4446 94.0969 80.4106 94.1859 80.4106 94.2782C80.4106 94.3704 80.4446 94.4594 80.5061 94.5282C80.5032 94.562 80.5073 94.5961 80.518 94.6284C80.5287 94.6606 80.5459 94.6903 80.5685 94.7157C80.831 95.148 81.1696 95.5292 81.5678 95.8407C81.7445 96.0173 81.9642 96.1448 82.2051 96.2106C82.4461 96.2763 82.7 96.2781 82.9419 96.2157C83.0713 96.1738 83.1908 96.106 83.2931 96.0163C83.3953 95.9266 83.4783 95.817 83.5367 95.6941C83.5952 95.5712 83.628 95.4377 83.6331 95.3017C83.6382 95.1657 83.6155 95.0301 83.5664 94.9032Z" fill="#D4F1FF"/>
</g>
<defs>
<linearGradient id="paint0_linear_834_12694" x1="7.48032" y1="137.186" x2="176.733" y2="74.6344" gradientUnits="userSpaceOnUse">
<stop stop-color="#FFE75C"/>
<stop offset="0.32" stop-color="#FC78C0"/>
<stop offset="0.92" stop-color="#5221DB"/>
</linearGradient>
<linearGradient id="paint1_linear_834_12694" x1="121.452" y1="76.9326" x2="122.69" y2="109.62" gradientUnits="userSpaceOnUse">
<stop offset="0.05" stop-color="#698EFF"/>
<stop offset="0.28" stop-color="#6388FA"/>
<stop offset="0.6" stop-color="#5178EC"/>
<stop offset="0.7" stop-color="#4A72E7"/>
</linearGradient>
<linearGradient id="paint2_linear_834_12694" x1="61.5754" y1="89.2658" x2="71.2696" y2="99.5527" gradientUnits="userSpaceOnUse">
<stop offset="0.05" stop-color="#698EFF"/>
<stop offset="0.28" stop-color="#6388FA"/>
<stop offset="0.6" stop-color="#5178EC"/>
<stop offset="0.7" stop-color="#4A72E7"/>
</linearGradient>
<linearGradient id="paint3_linear_834_12694" x1="71.9182" y1="85.1531" x2="68.6598" y2="102.39" gradientUnits="userSpaceOnUse">
<stop offset="0.15" stop-color="#698EFF"/>
<stop offset="0.38" stop-color="#6388FA"/>
<stop offset="0.68" stop-color="#5178EC"/>
<stop offset="0.78" stop-color="#4A72E7"/>
</linearGradient>
<linearGradient id="paint4_linear_834_12694" x1="117.074" y1="94.2595" x2="153.322" y2="113.176" gradientUnits="userSpaceOnUse">
<stop offset="0.05" stop-color="#698EFF"/>
<stop offset="0.28" stop-color="#6388FA"/>
<stop offset="0.6" stop-color="#5178EC"/>
<stop offset="0.7" stop-color="#4A72E7"/>
</linearGradient>
<linearGradient id="paint5_linear_834_12694" x1="76.6086" y1="98.6717" x2="66.0524" y2="133.58" gradientUnits="userSpaceOnUse">
<stop offset="0.05" stop-color="#698EFF"/>
<stop offset="0.5" stop-color="#5178EC"/>
<stop offset="0.61" stop-color="#4A72E7"/>
</linearGradient>
<linearGradient id="paint6_linear_834_12694" x1="90.2429" y1="90.2405" x2="99.9052" y2="50.0311" gradientUnits="userSpaceOnUse">
<stop offset="0.09" stop-color="#FF8C19"/>
<stop offset="0.17" stop-color="#FF9719"/>
<stop offset="0.4" stop-color="#FFB119"/>
<stop offset="0.61" stop-color="#FFC119"/>
<stop offset="0.77" stop-color="#FFC619"/>
</linearGradient>
<linearGradient id="paint7_linear_834_12694" x1="87.509" y1="79.4157" x2="90.6382" y2="65.603" gradientUnits="userSpaceOnUse">
<stop offset="0.3" stop-color="#FFC619"/>
<stop offset="0.32" stop-color="#FFC619" stop-opacity="0.92"/>
<stop offset="0.4" stop-color="#FFC619" stop-opacity="0.65"/>
<stop offset="0.48" stop-color="#FFC619" stop-opacity="0.42"/>
<stop offset="0.55" stop-color="#FFC619" stop-opacity="0.24"/>
<stop offset="0.61" stop-color="#FFC619" stop-opacity="0.11"/>
<stop offset="0.66" stop-color="#FFC619" stop-opacity="0.03"/>
<stop offset="0.69" stop-color="#FFC619" stop-opacity="0"/>
</linearGradient>
<linearGradient id="paint8_linear_834_12694" x1="25.9825" y1="80.4076" x2="27.0249" y2="100.969" gradientUnits="userSpaceOnUse">
<stop stop-color="white"/>
<stop offset="1" stop-color="#FFF400"/>
</linearGradient>
<linearGradient id="paint9_linear_834_12694" x1="38.476" y1="96.4199" x2="38.8336" y2="103.473" gradientUnits="userSpaceOnUse">
<stop stop-color="white"/>
<stop offset="1" stop-color="#2458FF"/>
</linearGradient>
<linearGradient id="paint10_linear_834_12694" x1="15.0664" y1="97.6069" x2="15.424" y2="104.66" gradientUnits="userSpaceOnUse">
<stop stop-color="white"/>
<stop offset="1" stop-color="#2458FF"/>
</linearGradient>
<linearGradient id="paint11_linear_834_12694" x1="27.3666" y1="106.984" x2="28.0096" y2="119.667" gradientUnits="userSpaceOnUse">
<stop stop-color="white"/>
<stop offset="0.12" stop-color="#FBFCFF"/>
<stop offset="0.26" stop-color="#EDF2FF"/>
<stop offset="0.4" stop-color="#D7E1FF"/>
<stop offset="0.54" stop-color="#B9C9FF"/>
<stop offset="0.69" stop-color="#91ABFF"/>
<stop offset="0.84" stop-color="#6086FF"/>
<stop offset="0.99" stop-color="#285BFF"/>
<stop offset="1" stop-color="#2458FF"/>
</linearGradient>
<clipPath id="clip0_834_12694">
<rect width="173" height="108" fill="white" transform="translate(0 9.40332)"/>
</clipPath>
</defs>
</svg>
