<svg fill="none" height="44" viewBox="0 0 485 44" width="485" xmlns="http://www.w3.org/2000/svg"><g fill="#fff" fill-opacity=".2"><path d="m309 17.8605c.005-1.9107-.366-3.8038-1.092-5.5711-.727-1.7673-1.794-3.37422-3.142-4.72903-1.347-1.35481-2.948-2.43096-4.711-3.16702-1.764-.73605-3.655-1.1176-5.565-1.12284h-15.14c-1.912.00262-3.805.38229-5.57 1.1173-1.765.735-3.368 1.8109-4.716 3.1661-1.349 1.35521-2.417 2.96309-3.144 4.73169-.726 1.7685-1.097 3.663-1.09 5.5749 0 .7744-.308 1.5172-.855 2.0648-.548.5476-1.291.8552-2.065.8552h-4.53c-1.639 0-3.261.3233-4.774.9515s-2.887 1.5488-4.044 2.7092c-1.157 1.1603-2.073 2.5375-2.696 4.0526s-.942 3.1384-.936 4.7767h84c0-2.6435-1.047-5.1795-2.911-7.0534-1.865-1.874-4.396-2.9334-7.039-2.9466h-4.56c-1.436 0-2.813-.5697-3.829-1.5839-1.016-1.0143-1.589-2.3904-1.591-3.8261z" opacity=".75"/><path d="m433.13 43.5303h51c-.024-2.4674-1.026-4.8245-2.787-6.5533-1.761-1.7289-4.136-2.688-6.603-2.6667h-5.41c-.425.0027-.834-.163-1.138-.4609s-.477-.7038-.482-1.1291c-.013-1.4835-.319-2.9498-.899-4.3153-.58-1.3654-1.423-2.6031-2.482-3.6423s-2.312-1.8596-3.688-2.4143c-1.376-.5546-2.848-.8326-4.331-.8181h-.45c-1.484-.0145-2.956.2634-4.333.8179-1.376.5546-2.63 1.3748-3.69 2.4139-1.059 1.0391-1.904 2.2767-2.485 3.6422s-.888 2.8321-.902 4.316v3.36c-.004.4255-.092.8461-.258 1.2377-.167.3916-.409.7465-.712 1.0446-.304.2981-.663.5334-1.058.6926s-.817.2391-1.242.2351h-3.72c-.563-.0079-1.123.0957-1.646.3049-.523.2091-.999.5197-1.402.9138-.402.3941-.723.864-.943 1.3825-.22.5186-.335 1.0755-.339 1.6388z" opacity=".75"/><path d="m22.26 12.7905c-.4279.0027-.8395-.164-1.1449-.4638s-.4798-.7082-.4851-1.1362c-.0131-1.48345-.3184-2.94982-.8985-4.31524-.5801-1.36543-1.4236-2.60313-2.4824-3.64236-1.0587-1.03923-2.3119-1.85961-3.6879-2.414238-1.3759-.554629-2.8477-.8326338-4.3312-.81812179h-.45c-1.67109-.00497362-3.32302.35589879-4.8398 1.05727979-1.51678.70138-2.86166 1.72628-3.9402 3.00272v17.93996h37.06c-.0264-2.4657-1.0299-4.8202-2.7903-6.5469-1.7604-1.7266-4.1339-2.6844-6.5997-2.6631z" opacity=".75"/><path d="m389.42 6.00053c0-3-2.17-5.460003-4.86-5.460003h-5.06c-2.68 0-4.85 2.440003-4.85 5.460003.014.13947-.001.28034-.045.41345-.044.13312-.116.25551-.21.35923-.094.10373-.209.18647-.338.24286-.128.05638-.267.08516-.407.08446h-1.51c-1.159.07475-2.243.60193-3.017 1.46796-.775.86602-1.178 2.00161-1.123 3.16201h28.08c.047-.9346-.277-1.84994-.9-2.548s-1.496-1.12268-2.43-1.18197h-1.52c-.503-.03098-.974-.25756-1.312-.63131-.339-.37374-.517-.86498-.498-1.36869z" opacity=".75"/></g></svg>