<svg width="25" height="25" viewBox="0 0 25 25" fill="none" xmlns="http://www.w3.org/2000/svg">
  <path d="M14.25 12.28L11.16 11.59C11.0618 11.548 10.9525 11.54 10.8492 11.5672C10.746 11.5944 10.6548 11.6552 10.59 11.74C10.5658 11.7632 10.5335 11.7762 10.5 11.7762C10.4664 11.7762 10.4342 11.7632 10.41 11.74C10.397 11.7278 10.3866 11.7131 10.3795 11.6968C10.3724 11.6804 10.3687 11.6628 10.3687 11.645C10.3687 11.6272 10.3724 11.6095 10.3795 11.5932C10.3866 11.5769 10.397 11.5621 10.41 11.55C10.5067 11.412 10.6481 11.3117 10.8104 11.2662C10.9726 11.2206 11.1456 11.2325 11.3 11.3L14.37 11.99C14.3882 11.9923 14.4057 11.9984 14.4213 12.0079C14.437 12.0175 14.4505 12.0302 14.4609 12.0453C14.4712 12.0604 14.4783 12.0776 14.4816 12.0956C14.4849 12.1136 14.4843 12.1322 14.48 12.15C14.4851 12.1785 14.4812 12.208 14.4688 12.2342C14.4565 12.2605 14.4363 12.2822 14.411 12.2965C14.3858 12.3108 14.3567 12.3168 14.3279 12.3139C14.299 12.3109 14.2718 12.2991 14.25 12.28Z" fill="#EBDDCC"/>
  <path d="M14.25 6.28001H14.16C13.8129 6.20237 13.4928 6.03357 13.2326 5.79099C12.9725 5.54842 12.7817 5.24086 12.68 4.90001C12.5425 4.5826 12.4581 4.24478 12.43 3.90001C12.4192 3.87704 12.4022 3.85746 12.3811 3.84337C12.36 3.82927 12.3354 3.8212 12.31 3.82001C12.2884 3.82149 12.2674 3.82762 12.2484 3.83797C12.2295 3.84833 12.2129 3.86267 12.2 3.88001C12.1782 4.22467 12.097 4.56297 11.96 4.88001C11.8403 5.19544 11.6428 5.47546 11.3857 5.69401C11.1287 5.91257 10.8206 6.06255 10.49 6.13001H10.39C10.7206 6.19746 11.0287 6.34745 11.2857 6.566C11.5428 6.78456 11.7403 7.06458 11.86 7.38001C11.997 7.69704 12.0782 8.03535 12.1 8.38001H12.36C12.3884 8.0353 12.4729 7.69753 12.61 7.38001C12.7297 7.06458 12.9273 6.78456 13.1843 6.566C13.4413 6.34745 13.7494 6.19746 14.08 6.13001L14.25 6.28001Z" fill="#FBED5A"/>
  <path d="M16.1091 7.82215C16.2321 6.96942 15.9729 6.22635 15.5301 6.16247C15.0874 6.09859 14.6287 6.73808 14.5057 7.59081C14.3826 8.44355 14.6418 9.18661 15.0846 9.2505C15.5274 9.31438 15.986 8.67489 16.1091 7.82215Z" fill="#D4DCF9"/>
  <path d="M15.15 9.38998H15.07C14.9204 9.35424 14.7839 9.27715 14.676 9.16752C14.5681 9.05789 14.4933 8.92013 14.46 8.76998C14.3374 8.3858 14.3066 7.97823 14.37 7.57998C14.4218 7.17925 14.5655 6.79593 14.79 6.45998C14.8581 6.3176 14.9663 6.19822 15.1013 6.1165C15.2363 6.03477 15.3923 5.99428 15.55 5.99998C15.7006 6.03348 15.8384 6.10983 15.9466 6.21984C16.0548 6.32985 16.1289 6.46881 16.16 6.61998C16.2829 7.00409 16.3138 7.41175 16.25 7.80998C16.12 8.72998 15.65 9.38998 15.15 9.38998ZM15.47 6.28998C15.3738 6.30421 15.2823 6.34051 15.2025 6.39602C15.1226 6.45154 15.0568 6.52477 15.01 6.60998C14.8123 6.91088 14.6858 7.25287 14.64 7.60998C14.5799 7.96392 14.6039 8.32702 14.71 8.66998C14.8 8.92998 14.95 9.08998 15.11 9.10998C15.43 9.15998 15.86 8.63998 15.98 7.79998C16.0401 7.44604 16.0161 7.08294 15.91 6.73998C15.8879 6.63678 15.8395 6.54107 15.7694 6.46219C15.6993 6.38332 15.6099 6.32398 15.51 6.28998H15.47Z" fill="black"/>
  <path d="M12.76 21L16.76 18.56C16.8374 18.5141 16.9003 18.4475 16.9416 18.3676C16.983 18.2877 17.001 18.1978 16.9937 18.1081C16.9864 18.0185 16.9541 17.9327 16.9004 17.8605C16.8467 17.7884 16.7738 17.7327 16.69 17.7L11.88 15.8" fill="#BAC6EF"/>
  <path d="M12.76 21.13C12.7374 21.1281 12.7155 21.1208 12.6964 21.1086C12.6772 21.0964 12.6613 21.0797 12.65 21.06C12.6268 21.0358 12.6138 21.0035 12.6138 20.97C12.6138 20.9364 12.6268 20.9042 12.65 20.88L16.65 18.43C16.7065 18.3997 16.7522 18.3527 16.7808 18.2954C16.8095 18.2381 16.8197 18.1733 16.81 18.11C16.8055 18.0469 16.7834 17.9863 16.7463 17.9351C16.7092 17.8839 16.6585 17.844 16.6 17.82L11.79 15.93C11.7711 15.9248 11.7535 15.9158 11.7384 15.9034C11.7232 15.891 11.7108 15.8756 11.7019 15.8582C11.6931 15.8407 11.688 15.8216 11.687 15.802C11.686 15.7825 11.6891 15.7629 11.6962 15.7447C11.7032 15.7264 11.714 15.7098 11.7278 15.6959C11.7417 15.6821 11.7582 15.6713 11.7765 15.6643C11.7948 15.6572 11.8143 15.6541 11.8339 15.6551C11.8534 15.6561 11.8726 15.6611 11.89 15.67L16.7 17.57C16.8058 17.6118 16.8978 17.6824 16.9656 17.7738C17.0334 17.8652 17.0742 17.9737 17.0836 18.087C17.093 18.2004 17.0704 18.3141 17.0186 18.4154C16.9667 18.5166 16.8875 18.6014 16.79 18.66L12.79 21.11L12.76 21.13Z" fill="black"/>
  <path d="M17.72 14.86L14.64 17.34C14.64 17.34 13.76 17.91 14.06 18.46C14.36 19.01 15.92 18.35 17.42 17.57C18.92 16.79 19.14 16.73 20.13 16.76C21.12 16.79 23.24 16.76 23.24 16.76C23.24 16.76 24.09 16.91 23.75 15.76C23.41 14.61 23 12.9 23 12.9C23.5381 12.1492 23.8275 11.2487 23.8275 10.325C23.8275 9.4013 23.5381 8.5008 23 7.75002L22.75 6.00002C22.7447 5.96915 22.7314 5.94019 22.7115 5.91601C22.6916 5.89183 22.6657 5.87327 22.6364 5.86216C22.6071 5.85105 22.5755 5.84778 22.5445 5.85266C22.5136 5.85755 22.4844 5.87043 22.46 5.89002L20.87 7.14002C19.7227 6.66352 18.4502 6.57915 17.25 6.90002L15.78 5.68002C15.7513 5.65651 15.7164 5.6419 15.6795 5.63801C15.6426 5.63412 15.6054 5.64111 15.5724 5.65812C15.5394 5.67514 15.5122 5.70143 15.494 5.73375C15.4758 5.76607 15.4675 5.80302 15.47 5.84002L15.55 7.38002C15.55 7.38002 12.94 10.49 15.55 13.03L11 12.32C11.1276 12.5423 11.2124 12.7865 11.25 13.04L11.53 14.21L16.42 15.92" fill="#FFFCEA"/>
  <path d="M12.26 21.11L3.45999 19C3.12412 18.9229 2.8163 18.7539 2.57087 18.512C2.32543 18.2701 2.15202 17.9647 2.06999 17.63L0.419986 10.91C0.377574 10.738 0.379391 10.558 0.425268 10.3869C0.471145 10.2157 0.559589 10.0589 0.682363 9.93118C0.805138 9.80341 0.958249 9.70879 1.12744 9.65614C1.29663 9.60348 1.47639 9.5945 1.64999 9.63002L9.43999 11.18C9.86326 11.2674 10.2528 11.4738 10.5628 11.7749C10.8728 12.0761 11.0904 12.4595 11.19 12.88L13 20.41C13.0267 20.5108 13.0257 20.6169 12.9972 20.7172C12.9686 20.8174 12.9136 20.9082 12.8379 20.9798C12.7621 21.0514 12.6685 21.1013 12.5668 21.1242C12.4651 21.1472 12.3591 21.1423 12.26 21.11Z" fill="#DEE2FF"/>
  <path d="M22.7 5.67999L20.87 7.13999C20.2358 6.87375 19.5576 6.72793 18.87 6.70999C18.87 6.70999 18.38 11.92 23.68 11.42C23.8604 10.7976 23.8928 10.1416 23.7747 9.50445C23.6567 8.86727 23.3914 8.26649 23 7.74999L22.7 5.67999Z" fill="#FFB880"/>
  <path d="M14 18H13.93C13.8562 17.9626 13.7918 17.9089 13.7416 17.8432C13.6914 17.7774 13.6566 17.7011 13.64 17.62C13.6039 17.4043 13.6503 17.183 13.77 17C13.7942 16.9768 13.8265 16.9638 13.86 16.9638C13.8936 16.9638 13.9258 16.9768 13.95 17C13.963 17.0122 13.9734 17.0269 13.9805 17.0432C13.9876 17.0596 13.9913 17.0772 13.9913 17.095C13.9913 17.1128 13.9876 17.1304 13.9805 17.1468C13.9734 17.1631 13.963 17.1778 13.95 17.19C13.8724 17.3117 13.8406 17.457 13.86 17.6C13.8707 17.6456 13.8915 17.6881 13.9209 17.7245C13.9504 17.7609 13.9877 17.7901 14.03 17.81C14.0532 17.8342 14.0662 17.8665 14.0662 17.9C14.0662 17.9335 14.0532 17.9658 14.03 17.99C14.0204 17.9945 14.0104 17.9978 14 18Z" fill="#BAA08C"/>
  <path d="M5.64999 14.58L5.26999 14.26C5.23869 14.2353 5.201 14.22 5.16134 14.2159C5.12168 14.2119 5.08168 14.2192 5.04602 14.237C5.01036 14.2548 4.98051 14.2825 4.95996 14.3166C4.93942 14.3508 4.92902 14.3901 4.92999 14.43C4.92999 15.13 5.19999 16.43 6.31999 16.48C7.62999 16.58 7.26999 15.31 7.09999 14.55C7.09147 14.5152 7.0742 14.4832 7.04981 14.4569C7.02543 14.4307 6.99474 14.4112 6.96067 14.4001C6.9266 14.3891 6.89028 14.387 6.85516 14.394C6.82003 14.4009 6.78727 14.4168 6.75999 14.44L6.48999 14.68C6.46838 14.7023 6.44136 14.7186 6.41157 14.7273C6.38178 14.7361 6.35024 14.737 6.31999 14.73L5.74999 14.63C5.7124 14.6237 5.67756 14.6063 5.64999 14.58Z" fill="#1F3265"/>
  <path d="M17.38 10.6198C17.5544 10.5912 17.6625 10.3648 17.6214 10.1141C17.5803 9.86337 17.4056 9.68331 17.2312 9.7119C17.0568 9.74049 16.9487 9.96691 16.9898 10.2176C17.0309 10.4683 17.2056 10.6484 17.38 10.6198Z" fill="black"/>
  <path d="M15.159 10.3014C15.3061 10.2772 15.3972 10.0854 15.3623 9.87282C15.3275 9.66027 15.18 9.50751 15.0328 9.53164C14.8856 9.55576 14.7946 9.74763 14.8295 9.96018C14.8643 10.1727 15.0118 10.3255 15.159 10.3014Z" fill="black"/>
  <path d="M16.49 11.74C16.2767 11.6082 16.1064 11.417 16 11.19C16.0392 11.1697 16.0727 11.1398 16.0972 11.1031C16.1217 11.0664 16.1364 11.024 16.14 10.98C16.14 10.84 15.99 10.73 15.81 10.73C15.63 10.73 15.48 10.84 15.48 10.98C15.4819 11.0296 15.498 11.0776 15.5264 11.1184C15.5547 11.1591 15.5942 11.1909 15.64 11.21C15.5648 11.3741 15.4517 11.5181 15.31 11.63C15.297 11.6421 15.2866 11.6569 15.2795 11.6732C15.2724 11.6895 15.2687 11.7072 15.2687 11.725C15.2687 11.7428 15.2724 11.7604 15.2795 11.7768C15.2866 11.7931 15.297 11.8078 15.31 11.82C15.3222 11.833 15.3369 11.8434 15.3532 11.8505C15.3696 11.8576 15.3872 11.8612 15.405 11.8612C15.4228 11.8612 15.4404 11.8576 15.4568 11.8505C15.4731 11.8434 15.4878 11.833 15.5 11.82C15.6433 11.7096 15.7653 11.5741 15.86 11.42C15.9886 11.6389 16.1711 11.8214 16.39 11.95C16.3994 11.9544 16.4096 11.9567 16.42 11.9567C16.4304 11.9567 16.4406 11.9544 16.45 11.95C16.4748 11.9522 16.4997 11.9467 16.5212 11.9341C16.5427 11.9216 16.5597 11.9027 16.57 11.88C16.5744 11.851 16.5688 11.8215 16.5543 11.7961C16.5398 11.7707 16.5171 11.7509 16.49 11.74Z" fill="#995400"/>
  <path d="M17.33 10.35C17.2046 10.2556 17.056 10.1968 16.9 10.18C16.7851 10.1563 16.6663 10.1603 16.5533 10.1916C16.4403 10.2229 16.3363 10.2806 16.25 10.36C16.1299 10.2861 15.9945 10.2405 15.8542 10.2267C15.7139 10.2128 15.5722 10.231 15.44 10.28C15.397 10.1993 15.3339 10.1312 15.2568 10.0821C15.1797 10.0331 15.0912 10.0048 15 9.99999C14.933 9.98578 14.8636 9.98673 14.797 10.0027C14.7304 10.0188 14.6682 10.0495 14.615 10.0926C14.5618 10.1357 14.5188 10.1902 14.4894 10.252C14.4599 10.3138 14.4446 10.3815 14.4446 10.45C14.4446 10.5185 14.4599 10.5861 14.4894 10.648C14.5188 10.7098 14.5618 10.7643 14.615 10.8074C14.6682 10.8505 14.7304 10.8812 14.797 10.8972C14.8636 10.9133 14.933 10.9142 15 10.9C15.1142 10.9055 15.227 10.8732 15.321 10.8081C15.415 10.7431 15.4849 10.6488 15.52 10.54C15.6318 10.4911 15.7546 10.4728 15.8758 10.4868C15.997 10.5009 16.1123 10.5468 16.21 10.62C16.2535 10.7475 16.3356 10.8584 16.4449 10.9372C16.5542 11.016 16.6852 11.0589 16.82 11.06H16.96C17.27 11.06 17.52 10.91 17.55 10.69C17.5479 10.6186 17.5264 10.5492 17.4876 10.4892C17.4488 10.4292 17.3943 10.3811 17.33 10.35ZM15 10.64C14.85 10.64 14.73 10.56 14.73 10.46C14.73 10.36 14.85 10.28 15 10.28C15.15 10.28 15.26 10.36 15.26 10.46C15.26 10.56 15.1 10.64 15 10.64ZM16.86 10.81C16.61 10.81 16.47 10.65 16.48 10.57C16.49 10.49 16.61 10.44 16.8 10.44H16.9C17.0114 10.4476 17.1187 10.4856 17.21 10.55C17.21 10.55 17.29 10.64 17.28 10.67C17.27 10.7 17.06 10.84 16.82 10.81H16.86Z" fill="#6D87E8"/>
  <path d="M21 4.89998C20.1463 4.5147 19.2014 4.37698 18.2732 4.50251C17.345 4.62803 16.4707 5.01177 15.75 5.60998L16.2 5.99998C16.8968 5.37795 17.8065 5.04844 18.74 5.07998C20.1363 5.17367 21.448 5.78315 22.42 6.78998H23.42C22.8103 5.94184 21.9706 5.286 21 4.89998Z" fill="#D4DCF9"/>
  <path d="M23.12 12.93C23.6565 12.1635 23.9443 11.2506 23.9443 10.315C23.9443 9.37941 23.6565 8.46646 23.12 7.7L23 7H23.42C23.4426 6.99813 23.4645 6.99078 23.4836 6.97858C23.5028 6.96639 23.5187 6.94971 23.53 6.93C23.5425 6.91062 23.5491 6.88805 23.5491 6.865C23.5491 6.84194 23.5425 6.81938 23.53 6.8C23.3494 6.50595 23.1308 6.23697 22.88 6V5.84C22.8734 5.80074 22.8572 5.76373 22.8327 5.73231C22.8083 5.70089 22.7764 5.67604 22.74 5.66C22.7057 5.64322 22.6681 5.6345 22.63 5.6345C22.5919 5.6345 22.5542 5.64322 22.52 5.66C22.0472 5.31177 21.5374 5.01665 21 4.78C20.138 4.38899 19.1844 4.24461 18.2453 4.36288C17.3061 4.48116 16.4182 4.85746 15.68 5.45C15.6428 5.42589 15.5993 5.41306 15.555 5.41306C15.5106 5.41306 15.4672 5.42589 15.43 5.45C15.3908 5.46836 15.3582 5.49839 15.3367 5.53599C15.3152 5.57358 15.3059 5.61689 15.31 5.66L15.39 7.37C15.1 7.75 13.11 10.51 15.19 12.88L11.04 12.24C10.8719 11.9463 10.6432 11.6918 10.369 11.4935C10.0949 11.2952 9.78154 11.1576 9.44999 11.09L1.66999 9.5C1.46857 9.45592 1.25911 9.46539 1.06249 9.52746C0.865862 9.58954 0.688936 9.70205 0.549333 9.85379C0.409731 10.0055 0.312327 10.1912 0.266824 10.3923C0.221321 10.5934 0.22931 10.8029 0.289992 11L1.93999 17.69C2.02671 18.0506 2.21198 18.3799 2.4751 18.6413C2.73822 18.9027 3.06883 19.0857 3.42999 19.17L12.23 21.29H12.4C12.5879 21.2889 12.7677 21.2134 12.9 21.08C12.9867 20.994 13.0505 20.8876 13.0854 20.7705C13.1204 20.6534 13.1254 20.5295 13.1 20.41L11.69 14.41L16.13 16L14.56 17.26C14.47 17.32 13.56 17.93 13.94 18.55C14.0038 18.6451 14.0927 18.7207 14.1969 18.7683C14.301 18.816 14.4163 18.8339 14.53 18.82C15.595 18.6634 16.6162 18.289 17.53 17.72C18.99 16.96 19.22 16.89 20.17 16.93C21.12 16.97 23.12 16.93 23.28 16.93C23.3862 16.9429 23.494 16.9325 23.5958 16.8997C23.6977 16.8669 23.7912 16.8124 23.87 16.74C23.9671 16.5933 24.0237 16.4236 24.0342 16.2481C24.0448 16.0725 24.0088 15.8972 23.93 15.74C23.58 14.78 23.2 13.25 23.12 12.93ZM22.71 6.69H22.47C22.354 6.56229 22.2268 6.44517 22.09 6.34L21.88 6.17C20.987 5.45131 19.8855 5.04087 18.74 5C17.8137 4.96936 16.9088 5.28286 16.2 5.88L15.92 5.64C16.6211 5.09649 17.4571 4.75437 18.338 4.65041C19.219 4.54646 20.1117 4.6846 20.92 5.05C21.4029 5.27696 21.8618 5.55166 22.29 5.87L22.52 6.04L22.64 6.15L22.96 6.44L23.2 6.72H23M18.67 5.24H18.73C19.7981 5.28918 20.8234 5.67412 21.66 6.34L20.85 7C19.7137 6.55043 18.4646 6.46996 17.28 6.77L16.41 6C17.0486 5.48534 17.8501 5.2158 18.67 5.24ZM12.67 20.86C12.616 20.9139 12.5487 20.9526 12.4749 20.9719C12.4011 20.9912 12.3235 20.9906 12.25 20.97L3.44999 18.85C3.14477 18.7708 2.86699 18.6097 2.64668 18.3841C2.42637 18.1585 2.27191 17.877 2.19999 17.57L0.549992 10.88C0.508782 10.726 0.508314 10.5639 0.548635 10.4096C0.588956 10.2553 0.668681 10.1142 0.779992 10C0.885617 9.88745 1.01813 9.80361 1.16508 9.75638C1.31203 9.70915 1.46857 9.70007 1.61999 9.73L9.40999 11.29C9.7972 11.3763 10.152 11.5705 10.4334 11.8501C10.7148 12.1297 10.9113 12.4833 11 12.87C11 12.93 11 12.99 11.06 13.07L11.26 13.91L11.33 14.24L12.79 20.44C12.8135 20.511 12.8184 20.5869 12.8044 20.6604C12.7904 20.7339 12.7579 20.8026 12.71 20.86H12.67ZM23.58 16.53C23.5318 16.5701 23.4758 16.5997 23.4156 16.617C23.3553 16.6342 23.2921 16.6386 23.23 16.63C23.23 16.63 21.09 16.63 20.12 16.63C19.15 16.63 18.85 16.63 17.34 17.46C14.76 18.8 14.26 18.56 14.17 18.39C13.93 17.97 14.69 17.46 14.7 17.45L16.48 16L17.8 15C17.8239 14.9741 17.8372 14.9402 17.8372 14.905C17.8372 14.8698 17.8239 14.8359 17.8 14.81C17.7878 14.797 17.7731 14.7866 17.7568 14.7795C17.7404 14.7724 17.7228 14.7687 17.705 14.7687C17.6872 14.7687 17.6695 14.7724 17.6532 14.7795C17.6369 14.7866 17.6222 14.797 17.61 14.81L16.34 15.81L11.59 14.15V13.97L11.36 13V12.85C11.36 12.85 11.29 12.61 11.26 12.53L15.62 13.21C15.6487 13.2127 15.6776 13.2065 15.7027 13.1922C15.7277 13.1779 15.7478 13.1561 15.76 13.13C15.7742 13.1076 15.7818 13.0816 15.7818 13.055C15.7818 13.0284 15.7742 13.0024 15.76 12.98C15.2523 12.5399 14.8864 11.9594 14.7084 11.3115C14.5305 10.6637 14.5484 9.97764 14.76 9.34C14.9571 8.67195 15.2795 8.04751 15.71 7.5C15.7199 7.47081 15.7199 7.43918 15.71 7.41L15.6 5.71L17.16 7C17.1985 7.01556 17.2415 7.01556 17.28 7C18.4501 6.68809 19.6902 6.7689 20.81 7.23C20.8324 7.24423 20.8584 7.25178 20.885 7.25178C20.9116 7.25178 20.9376 7.24423 20.96 7.23L21.87 6.5L22.32 6.9C22.3489 6.91167 22.3811 6.91167 22.41 6.9H22.75L22.87 7.71C22.87 7.71 22.87 7.71 22.87 7.77C23.397 8.49706 23.6807 9.37205 23.6807 10.27C23.6807 11.1679 23.397 12.0429 22.87 12.77C22.8603 12.7867 22.8553 12.8057 22.8553 12.825C22.8553 12.8443 22.8603 12.8633 22.87 12.88C22.87 12.88 23.32 14.69 23.65 15.79C23.72 16.17 23.72 16.41 23.62 16.53H23.58Z" fill="black"/>
  <path d="M23.8 9.99998L23.14 10.29C23.0153 10.3436 22.8809 10.3713 22.745 10.3713C22.6092 10.3713 22.4748 10.3436 22.35 10.29C22.1029 10.1741 21.8849 10.0044 21.7118 9.79326C21.5388 9.58217 21.4152 9.33504 21.35 9.06998C21.2708 8.77658 21.2521 8.47013 21.2951 8.16928C21.3381 7.86842 21.4418 7.57946 21.6 7.31998C21.7958 7.09618 22.0457 6.92628 22.3258 6.82649C22.6059 6.72671 22.9069 6.70037 23.2 6.74998" fill="#6D87E8"/>
  <path d="M23.7931 10.0049C24.4423 9.82466 24.7697 8.9624 24.5244 8.07904C24.2791 7.19567 23.5539 6.62572 22.9047 6.806C22.2555 6.98629 21.9281 7.84855 22.1734 8.73192C22.4187 9.61528 23.1438 10.1852 23.7931 10.0049Z" fill="#D4DCF9"/>
  <path d="M23.55 10.18C23.2579 10.1693 22.9771 10.064 22.75 9.88002C22.4024 9.59573 22.1568 9.20615 22.05 8.77002C21.9096 8.34464 21.9096 7.88541 22.05 7.46002C22.1127 7.27794 22.2166 7.11281 22.3536 6.97751C22.4907 6.84221 22.6571 6.7404 22.84 6.68002C23.0395 6.62084 23.2508 6.61367 23.4538 6.65918C23.6568 6.70468 23.8449 6.80136 24 6.94002C24.3429 7.22862 24.5904 7.61425 24.71 8.04619C24.8296 8.47814 24.8157 8.93616 24.67 9.36002C24.6109 9.54405 24.5082 9.71107 24.3706 9.84687C24.2331 9.98268 24.0648 10.0832 23.88 10.14C23.7722 10.1679 23.6613 10.1813 23.55 10.18ZM23.16 6.91002C23.0904 6.89881 23.0195 6.89881 22.95 6.91002C22.8063 6.95948 22.6758 7.04102 22.5684 7.14845C22.461 7.25588 22.3794 7.38637 22.33 7.53002C22.2124 7.90099 22.2056 8.29821 22.3104 8.673C22.4152 9.04779 22.627 9.38386 22.92 9.64002C23.0295 9.7465 23.165 9.8223 23.3131 9.85979C23.4611 9.89727 23.6164 9.89513 23.7633 9.85358C23.9103 9.81203 24.0437 9.73253 24.1502 9.62307C24.2567 9.51362 24.3325 9.37806 24.37 9.23002C24.4867 8.86138 24.494 8.46683 24.391 8.09412C24.2881 7.72141 24.0793 7.38653 23.79 7.13002C23.6095 6.99013 23.3883 6.9129 23.16 6.91002Z" fill="black"/>
  <path d="M22.71 10.53C22.5664 10.5276 22.4243 10.5006 22.29 10.45C22.0294 10.3197 21.8004 10.1341 21.619 9.90609C21.4377 9.67809 21.3083 9.41321 21.24 9.12999C21.1552 8.818 21.1354 8.49191 21.1818 8.17195C21.2283 7.852 21.34 7.54499 21.51 7.26999C21.7187 7.02408 21.9884 6.83736 22.292 6.72854C22.5957 6.61973 22.9226 6.59264 23.24 6.64999C23.2571 6.65242 23.2736 6.65826 23.2885 6.66716C23.3034 6.67606 23.3163 6.68785 23.3266 6.70183C23.3368 6.7158 23.3442 6.73169 23.3482 6.74854C23.3522 6.7654 23.3528 6.78289 23.35 6.79999C23.3477 6.81818 23.3416 6.83569 23.332 6.85135C23.3225 6.86701 23.3098 6.88048 23.2946 6.89087C23.2795 6.90126 23.2624 6.90833 23.2444 6.91163C23.2263 6.91492 23.2078 6.91437 23.19 6.90999C22.9226 6.86776 22.6488 6.89323 22.3938 6.98407C22.1387 7.07491 21.9105 7.22822 21.73 7.42999C21.5859 7.67305 21.4915 7.94223 21.452 8.22199C21.4125 8.50175 21.4288 8.78656 21.5 9.05999C21.5578 9.30415 21.6683 9.53272 21.8237 9.72965C21.9792 9.92658 22.1759 10.0871 22.4 10.2C22.6213 10.2895 22.8687 10.2895 23.09 10.2L23.74 9.89999C23.7732 9.88631 23.8105 9.88595 23.844 9.89898C23.8775 9.91201 23.9047 9.93744 23.92 9.96999C23.9337 10.0032 23.934 10.0405 23.921 10.074C23.908 10.1075 23.8825 10.1347 23.85 10.15L23.2 10.44C23.0447 10.5037 22.8778 10.5343 22.71 10.53Z" fill="black"/>
  <path d="M14.25 6.28001H14.16C13.8129 6.20237 13.4928 6.03357 13.2326 5.79099C12.9725 5.54842 12.7817 5.24086 12.68 4.90001C12.5425 4.5826 12.4581 4.24478 12.43 3.90001C12.4192 3.87704 12.4022 3.85746 12.3811 3.84337C12.36 3.82927 12.3354 3.8212 12.31 3.82001C12.2884 3.82149 12.2674 3.82762 12.2484 3.83797C12.2295 3.84833 12.2129 3.86267 12.2 3.88001C12.1782 4.22467 12.097 4.56297 11.96 4.88001C11.8403 5.19544 11.6428 5.47546 11.3857 5.69401C11.1287 5.91257 10.8206 6.06255 10.49 6.13001H10.39C10.7206 6.19746 11.0287 6.34745 11.2857 6.566C11.5428 6.78456 11.7403 7.06458 11.86 7.38001C11.997 7.69704 12.0782 8.03535 12.1 8.38001H12.36C12.3884 8.0353 12.4729 7.69753 12.61 7.38001C12.7297 7.06458 12.9273 6.78456 13.1843 6.566C13.4413 6.34745 13.7494 6.19746 14.08 6.13001L14.25 6.28001ZM12.3 7.94001C12.211 7.57817 12.0417 7.24103 11.8045 6.95364C11.5673 6.66625 11.2684 6.43601 10.93 6.28001C11.2685 6.12687 11.5678 5.89873 11.8051 5.61287C12.0425 5.32701 12.2117 4.99092 12.3 4.63001C12.3883 4.99092 12.5575 5.32701 12.7949 5.61287C13.0322 5.89873 13.3315 6.12687 13.67 6.28001C13.3316 6.43601 13.0327 6.66625 12.7955 6.95364C12.5584 7.24103 12.389 7.57817 12.3 7.94001Z" fill="#F7941D"/>
  <path d="M13.91 11.7H13.85L11 10.4C10.7824 10.2741 10.5253 10.2349 10.28 10.29C10.2083 10.3264 10.1459 10.3786 10.0974 10.4427C10.0489 10.5068 10.0156 10.5811 10 10.66C9.9906 10.6957 9.96745 10.7263 9.93561 10.745C9.90377 10.7637 9.86581 10.7691 9.83001 10.76C9.79613 10.7485 9.76793 10.7245 9.75119 10.6929C9.73446 10.6613 9.73046 10.6245 9.74001 10.59C9.76581 10.4705 9.81898 10.3587 9.89532 10.2633C9.97167 10.1678 10.0691 10.0914 10.18 10.04C10.3457 9.9883 10.5205 9.97227 10.6929 9.99295C10.8652 10.0136 11.0312 10.0706 11.18 10.16L14 11.44C14.0326 11.4553 14.058 11.4825 14.071 11.516C14.0841 11.5495 14.0837 11.5867 14.07 11.62C14.0587 11.6513 14.0357 11.677 14.006 11.6919C13.9762 11.7068 13.9419 11.7097 13.91 11.7Z" fill="#BAA08C"/>
  <path d="M12.76 16.62C12.7272 16.6201 12.6955 16.6078 12.6714 16.5855C12.6473 16.5633 12.6325 16.5327 12.63 16.5C12.6271 16.4644 12.6379 16.4291 12.6602 16.4012C12.6825 16.3733 12.7146 16.355 12.75 16.35L15.16 16.14C15.1945 16.14 15.2275 16.1537 15.2519 16.1781C15.2763 16.2025 15.29 16.2355 15.29 16.27C15.29 16.3045 15.2763 16.3376 15.2519 16.3619C15.2275 16.3863 15.1945 16.4 15.16 16.4L12.76 16.62Z" fill="#B99E89"/>
  <path d="M14.25 19.12C14.2206 19.1191 14.1922 19.109 14.1688 19.091C14.1455 19.073 14.1284 19.0482 14.12 19.02C14.0804 18.8436 14.0966 18.6594 14.1665 18.4927C14.2364 18.326 14.3565 18.1853 14.51 18.09L15.64 17.42C15.6652 17.3988 15.6971 17.3872 15.73 17.3872C15.7629 17.3872 15.7948 17.3988 15.82 17.42C15.8305 17.4354 15.8376 17.4528 15.8408 17.4712C15.8439 17.4895 15.8431 17.5084 15.8384 17.5264C15.8336 17.5444 15.8251 17.5612 15.8133 17.5756C15.8015 17.59 15.7867 17.6018 15.77 17.61L14.66 18.27C14.66 18.27 14.26 18.54 14.38 18.89C14.3896 18.9244 14.3856 18.9613 14.3688 18.9929C14.3521 19.0245 14.3239 19.0485 14.29 19.06L14.25 19.12Z" fill="#EBDDCC"/>
</svg>