<svg width="12" height="14" viewBox="0 0 12 14" fill="none" xmlns="http://www.w3.org/2000/svg">
<path d="M8.00001 2.33337C8.00001 1.2288 7.10458 0.333374 6.00001 0.333374C5.63182 0.333374 5.33334 0.631851 5.33334 1.00004V2.33337C5.33334 2.57371 5.29005 2.81044 5.20708 3.03274L2.36424 4.95287C0.541856 6.18377 -0.323743 8.41751 0.193365 10.555C0.479205 11.7365 1.15289 12.8314 2.28713 13.2687C2.8626 13.4905 3.54366 13.6667 4.25546 13.6667H9.60827C10.3769 13.6667 11 13.0436 11 12.275C11 12.0934 10.9645 11.9137 10.8955 11.7458L10.6307 11.1019C10.6066 11.0431 10.6285 10.9755 10.6825 10.9421L11.0388 10.7217C11.4291 10.4803 11.6667 10.054 11.6667 9.59508C11.6667 9.42228 11.6329 9.25115 11.5672 9.09133L11.2893 8.4154C11.2682 8.36412 11.274 8.30571 11.3047 8.25958L11.7073 7.65567C11.8474 7.44552 11.9222 7.1986 11.9222 6.94603C11.9222 6.23948 11.3494 5.66671 10.6429 5.66671H7.04706C7.66718 4.77391 8.00001 3.71238 8.00001 2.62423V2.33337Z" fill="white"/>
</svg>
