<svg width="33" height="22" viewBox="0 0 33 22" fill="none" xmlns="http://www.w3.org/2000/svg">
<g id="Monochrome">
<g clip-path="url(#clip0_7_477)">
<rect id="Rectangle 2" x="0.379883" width="32" height="22" fill="#EFEFEF"/>
<g id="XMLID_19_">
<path id="XMLID_34_" d="M15.0015 10.1381C14.7418 10.1381 14.6371 10.4587 14.5524 10.8411C14.5201 10.9724 14.4954 11.0961 14.4992 11.214C14.502 11.4547 14.6638 11.4547 14.6894 11.4547C14.7827 11.4547 14.8673 11.3948 14.9368 11.2949C15.0376 11.1608 15.1118 10.844 15.1271 10.7612C15.2174 10.3788 15.2041 10.1381 15.0015 10.1381Z" fill="#4E4F4F"/>
<path id="XMLID_33_" d="M21.1749 8.63311C21.1607 8.63311 20.606 8.58554 20.606 8.58554L20.4976 8.57507L20.4928 8.62264L20.4843 8.68162C20.4852 8.67877 20.215 9.85369 20.215 9.85369L20.2036 9.91077H20.3501C20.5765 9.91077 20.7954 9.90411 20.978 9.81278C21.1959 9.70908 21.3633 9.48837 21.4223 9.2277C21.486 8.94039 21.3947 8.71968 21.1749 8.63311Z" fill="#4E4F4F"/>
<path id="XMLID_32_" d="M23.2051 10.1895C22.9444 10.1895 22.8426 10.5091 22.7551 10.8811C22.7265 11.0152 22.7018 11.1379 22.7037 11.2531C22.7094 11.489 22.8683 11.489 22.894 11.489C22.9872 11.489 23.1451 11.4319 23.2136 11.3349C23.2498 11.2883 23.2821 11.2169 23.3097 11.1427C23.3373 11.0333 23.3659 10.9229 23.3915 10.8126C23.4087 10.7365 23.4239 10.6689 23.4372 10.6052C23.4572 10.3417 23.3716 10.1895 23.2051 10.1895Z" fill="#4E4F4F"/>
<path id="XMLID_20_" d="M27.626 3.18848H21.3889C20.5165 3.18848 19.6441 3.90009 19.4405 4.77248L18.493 8.8357C18.3512 8.79955 18.2247 8.79194 18.1163 8.79099C18.1086 8.79099 18.101 8.79194 18.0934 8.79194L19.0524 4.6821C19.178 4.14554 19.4976 3.68223 19.9115 3.3445C19.98 3.28932 20.0523 3.23795 20.1265 3.18943H14.4973C13.623 3.18943 12.7535 3.90104 12.547 4.77343L11.61 8.79194C11.6062 8.79194 11.6024 8.79099 11.5985 8.79099C11.453 8.74532 11.3103 8.75388 11.2028 8.78528L12.1589 4.68019C12.2873 4.14458 12.607 3.68128 13.0208 3.34355C13.0893 3.28837 13.1626 3.237 13.2358 3.18848H8.77779C7.90445 3.18848 7.03301 3.90009 6.82752 4.77248L3.92209 17.2304C3.7204 18.1009 4.26077 18.8106 5.13221 18.8106H9.7377C9.71392 18.7887 9.68918 18.7688 9.66635 18.7459C9.36667 18.451 9.20114 18.0372 9.20209 17.5929C9.20209 17.4445 9.22017 17.2913 9.25632 17.14L10.2771 12.7581H10.6872L9.64542 17.2304C9.43993 18.1009 9.9803 18.8106 10.8546 18.8106H16.6302C16.6065 18.7887 16.5808 18.7688 16.5579 18.745C16.2583 18.4501 16.0927 18.0362 16.0937 17.591C16.0937 17.4435 16.1108 17.2913 16.147 17.14L17.163 12.7848H17.5721L16.5351 17.2314C16.3306 18.1019 16.8728 18.8116 17.7452 18.8116H23.9823C24.8537 18.8116 25.7271 18.1019 25.9316 17.2314L28.837 4.77248C29.0406 3.90009 28.4993 3.18848 27.626 3.18848ZM9.29723 10.492C9.18116 10.9049 9.04797 11.371 8.5428 11.6688C8.25074 11.8477 7.82263 11.9438 7.36408 11.9438C7.00732 11.9438 6.37753 11.8886 6.15396 11.5014C6.08451 11.3777 6.05121 11.236 6.05121 11.06L6.13018 10.4663L6.17204 10.2827L6.65532 8.14407C6.65532 8.14407 6.68196 8.0261 6.68577 8.00707C6.69623 8.02229 6.86082 8.0299 7.78648 8.02229C7.78363 8.02895 7.77982 8.03371 7.77887 8.04893C7.69325 8.30009 7.22043 10.1999 7.22043 10.1999C7.21852 10.2037 7.1291 10.7688 7.1291 10.7688L7.13385 10.8611C7.1643 11.1437 7.33744 11.2911 7.63522 11.2911C7.81978 11.2911 7.97865 11.235 8.1166 11.1208C8.35539 10.9306 8.42769 10.628 8.52568 10.2047C8.52568 10.2047 8.97757 8.11933 9.00421 8.00517C9.06795 8.02039 9.26393 8.02705 9.93463 8.02039C9.93083 8.02705 9.92797 8.03181 9.92797 8.04703C9.8433 8.30389 9.35336 10.277 9.35336 10.277L9.29723 10.492ZM11.9829 10.7317L11.9296 10.962C11.825 11.4595 11.8059 11.5528 11.747 11.8943L11.7089 11.9238C11.3797 11.92 11.2665 11.92 10.8841 11.939L10.8689 11.9124C10.9022 11.7649 10.9393 11.6213 10.9716 11.4728L11.0163 11.275C11.0877 10.9648 11.159 10.6052 11.1657 10.4949C11.1714 10.4273 11.1952 10.2646 11.0059 10.2646C10.9259 10.2646 10.8441 10.3017 10.7585 10.3388C10.7119 10.5034 10.6196 10.9677 10.5777 11.1789C10.4817 11.6241 10.474 11.6755 10.4341 11.8943L10.4056 11.9238C10.0688 11.92 9.95366 11.92 9.5598 11.939L9.54363 11.9048C9.60832 11.6412 9.67301 11.373 9.7358 11.1132C9.90133 10.394 9.93653 10.12 9.9841 9.75661L10.0145 9.73473C10.3922 9.6824 10.4845 9.66908 10.8945 9.58536L10.9278 9.62437L10.866 9.8546C10.9345 9.81083 11.002 9.77183 11.0744 9.73473C11.2684 9.63959 11.4834 9.61105 11.6014 9.61105C11.7803 9.61105 11.9772 9.66147 12.059 9.86887C12.1361 10.0544 12.0847 10.2818 11.9829 10.7317ZM13.3576 10.5871C13.3224 10.7441 13.2815 10.8973 13.2472 11.0542C13.174 11.3834 13.1445 11.5052 13.1274 11.5937C13.1083 11.6783 13.1055 11.724 13.0769 11.8943L13.0589 11.9114L13.0408 11.9228C12.8429 11.9219 12.7154 11.919 12.5918 11.9219C12.4671 11.9228 12.3492 11.9285 12.1656 11.9381L12.1541 11.9219L12.1427 11.9038C12.1922 11.7173 12.2188 11.6498 12.2436 11.5822C12.2692 11.5147 12.2921 11.4481 12.3368 11.255C12.3939 11.0057 12.4281 10.8297 12.4548 10.6766C12.4824 10.5262 12.4966 10.4016 12.5166 10.2542L12.5309 10.2437L12.5461 10.2285C12.744 10.2018 12.8686 10.1838 12.998 10.1638C13.1255 10.1438 13.2548 10.1191 13.4565 10.081L13.4641 10.1L13.4708 10.1162C13.4347 10.2722 13.3966 10.4264 13.3576 10.5871ZM13.4004 9.91548C13.1835 10.0677 12.8581 10.0991 12.6745 9.99064C12.49 9.88028 12.5166 9.67384 12.7354 9.52543C12.9552 9.37321 13.2748 9.33991 13.4603 9.45027C13.6459 9.55492 13.6154 9.76327 13.4004 9.91548ZM15.9852 10.7964C15.951 10.9506 15.8511 11.3178 15.6266 11.5651C15.3393 11.8705 14.9559 11.9742 14.5801 11.9742C14.4336 11.9742 14.2091 11.9552 14.0483 11.8895C13.5364 11.6812 13.6202 11.1275 13.6896 10.8174C13.7619 10.5158 13.8789 10.1999 14.1272 9.96971C14.4783 9.6453 14.9254 9.62627 15.1147 9.62627C15.4287 9.62627 15.7265 9.69857 15.9006 9.91548C16.0138 10.0572 16.1022 10.2913 15.9852 10.7964ZM18.4977 10.7317L18.4473 10.962C18.3408 11.4595 18.3246 11.5528 18.2675 11.8943L18.2276 11.9238C17.9003 11.92 17.7861 11.92 17.4008 11.939L17.3866 11.9124C17.4189 11.7649 17.4551 11.6213 17.4912 11.4728L17.5369 11.275C17.6092 10.9648 17.6777 10.6052 17.6853 10.4949C17.692 10.4273 17.7129 10.2646 17.5283 10.2646C17.4456 10.2646 17.3618 10.3017 17.2781 10.3388C17.2324 10.5034 17.1373 10.9677 17.0916 11.1789C17.0003 11.6241 16.9927 11.6755 16.9518 11.8943L16.9214 11.9238C16.5865 11.92 16.4676 11.92 16.0813 11.939L16.0623 11.9048C16.1289 11.6412 16.1907 11.373 16.2535 11.1132C16.4171 10.394 16.4552 10.12 16.5009 9.75661L16.5304 9.73473C16.9099 9.6824 17.0003 9.66908 17.4113 9.58536L17.4446 9.62437L17.3837 9.8546C17.4503 9.81083 17.5217 9.77183 17.5892 9.73473C17.7823 9.63959 17.9983 9.61105 18.1163 9.61105C18.2942 9.61105 18.493 9.66147 18.5777 9.86887C18.6538 10.0544 18.6033 10.2818 18.4977 10.7317ZM20.1788 10.5167H20.1217C20.0827 10.5396 20.0427 10.5919 20.0427 10.5919C20.0351 10.6109 19.9124 11.1208 19.9124 11.1208C19.9124 11.1208 19.7697 11.8201 19.7421 11.9381C19.6394 11.9266 19.3835 11.9266 18.766 11.9342C18.7955 11.8182 19.4015 9.31803 19.4015 9.31803L19.6536 8.14026C19.6536 8.14026 19.6746 8.04798 19.6841 7.9947C19.802 8.00992 20.0846 8.01373 20.7953 8.00612L21.0664 8.00422C21.6229 8.00612 22.0996 8.01088 22.3422 8.34765C22.4373 8.47609 22.4687 8.63496 22.4687 8.8005C22.4687 8.92417 22.4506 9.04975 22.424 9.1544C22.325 9.58156 22.1062 9.93261 21.7875 10.1723C21.3156 10.5167 20.7106 10.5167 20.1788 10.5167ZM23.127 11.9694L23.1023 11.9419C23.1147 11.8952 23.127 11.8496 23.1394 11.803C23.0053 11.9152 22.8616 11.9932 22.7056 12.0018C22.561 12.0075 22.4145 11.9875 22.2527 11.92C21.7409 11.7202 21.8256 11.1656 21.8941 10.8611C21.9635 10.5614 22.0843 10.2466 22.3307 10.0182C22.6827 9.69762 23.0956 9.60724 23.2669 9.67289C23.4048 9.72616 23.4942 9.81083 23.5561 9.90977C23.5599 9.88028 23.5646 9.84984 23.5675 9.81939L23.5998 9.79656C23.9918 9.73948 24.0993 9.72331 24.5084 9.6472L24.5227 9.6824C24.4465 9.98969 24.3714 10.2998 24.301 10.61C24.1516 11.2616 24.0955 11.5908 24.0384 11.9285L24.0013 11.9552C23.6056 11.9542 23.4942 11.9542 23.127 11.9694ZM25.3998 12.8961L25.3675 12.9351H25.3713L25.0526 13.4792C24.9508 13.6667 24.7653 13.8046 24.4665 13.8056L23.9585 13.7979L24.106 13.309H24.2068C24.2582 13.309 24.2962 13.3042 24.3238 13.289C24.3505 13.2814 24.3685 13.2623 24.3904 13.2328L24.5702 12.9474L24.5693 12.9455C24.8204 12.5631 24.8832 12.3966 25.1486 11.9628C25.1011 11.4738 25.0792 11.3168 25.0411 10.9962C25.0183 10.8069 24.9869 10.6109 24.9631 10.4178C24.9165 10.023 24.9251 10.0791 24.8794 9.82986L24.8756 9.82225C24.8766 9.80988 24.8794 9.79561 24.8794 9.78039L24.9118 9.75375C25.3028 9.70618 25.3132 9.69287 25.7375 9.6101L25.7727 9.6453L25.8289 10.7336C25.8289 10.7565 25.8289 10.7726 25.8327 10.7945C26.0581 10.2913 26.0486 10.4311 26.3264 9.79085L26.3283 9.79751C26.3312 9.79086 26.3312 9.7842 26.3321 9.78039L26.3588 9.75375C26.7307 9.70618 26.8049 9.69287 27.2102 9.6101L27.2416 9.6453C27.2445 9.64435 25.6129 12.4356 25.3998 12.8961Z" fill="#4E4F4F"/>
</g>
</g>
</g>
<defs>
<clipPath id="clip0_7_477">
<rect x="0.379883" width="32" height="22" rx="2" fill="white"/>
</clipPath>
</defs>
</svg>
