<svg width="25" height="25" viewBox="0 0 25 25" fill="none" xmlns="http://www.w3.org/2000/svg">
  <path d="M18 12.2L21.43 11.2C21.7929 11.0818 22.1101 10.8538 22.3376 10.5474C22.5651 10.2411 22.6918 9.87151 22.7 9.48997C22.7 8.12997 22.3 7.95997 21.08 7.11997C19.2752 5.8773 17.2321 5.02262 15.08 4.60998C12.51 4.13998 11.73 4.23997 11.22 5.01997C10.71 5.79997 11.39 6.84997 11.39 6.84997C9.1867 8.70227 7.14592 10.7397 5.29001 12.94C3.39001 15.49 2.17001 17.32 2.29001 17.48C2.41001 17.64 3.13001 17.48 3.37001 17.48C3.61001 17.48 2.10001 20.2 3.70001 20.64C5.30001 21.08 4.00001 18 4.24001 17.38C4.48001 16.76 5.12001 16.6 5.32001 17.08C5.34792 17.1662 5.3941 17.2454 5.4554 17.3121C5.5167 17.3788 5.59167 17.4316 5.6752 17.4667C5.75873 17.5018 5.84886 17.5185 5.93943 17.5156C6.03 17.5127 6.11888 17.4903 6.20001 17.45C6.44001 17.32 6.13001 16.3 6.58001 16.13C7.03001 15.96 7.86001 16.06 8.51001 15.42C9.16001 14.78 10.17 13.25 11.22 13.35C12.27 13.45 13.05 13.66 13.45 13.01C13.85 12.36 14.1 12.01 14.54 12.01C14.98 12.01 15.35 12.01 15.86 12.86C16.37 13.71 16.54 13.7 16.94 13.7C17.34 13.7 17.69 13.18 18 12.2Z" fill="#FDD76E"/>
  <path d="M15.52 12.43L8.39999 15.65L8.62999 15.7L15.85 12.88L15.52 12.43Z" fill="#DF8C26"/>
  <path d="M15.86 12.88L6.32999 16.6C6.32999 16.6 6.50999 16.11 6.92999 16.05C7.34999 15.99 7.83999 16.17 8.25999 15.62C8.67999 15.07 9.95999 13.62 10.59 13.47C11.3909 13.4959 12.1926 13.4692 12.99 13.39C13.46 13.16 13.81 12.34 14.07 12.2C14.2276 12.1034 14.4053 12.0442 14.5894 12.0269C14.7735 12.0097 14.9591 12.0349 15.1319 12.1005C15.3048 12.1662 15.4603 12.2706 15.5865 12.4057C15.7127 12.5408 15.8062 12.7031 15.86 12.88Z" fill="#8B2C00"/>
  <path d="M19.92 10.67C19.92 10.67 16 6.55002 11.42 6.85002C11.42 6.85002 10.23 4.91002 12.21 4.37002C14.19 3.83002 19 5.78002 20 6.45002C21 7.12002 22.37 7.71002 22.52 8.45002C22.52 8.45002 23.16 10.57 21.83 11.03C20.5 11.49 18 12.2 18 12.2C18 12.2 18.2 10.7 18.94 10.56C19.68 10.42 19.92 10.67 19.92 10.67Z" fill="#EEC358"/>
  <path d="M3.75001 19.45C3.74004 19.3001 3.74004 19.1498 3.75001 19C3.75001 18.76 3.75001 18.43 3.59001 18.44C3.43001 18.45 3.23001 18.98 3.27001 19.44C3.31001 19.9 3.37001 20.25 3.59001 20.24C3.81001 20.23 3.78001 19.77 3.75001 19.45Z" fill="#FFE4B2"/>
  <path d="M5.05 14.29C5.12 14.23 5.22 14.29 5.17 14.39C4.85732 14.8884 4.57028 15.4024 4.31 15.93C4.23 16.22 4.36 16.52 3.84 16.74C3.64 16.83 3.44 16.91 3.26 16.97C3.22562 16.9806 3.18887 16.9806 3.15447 16.9701C3.12007 16.9596 3.08961 16.939 3.06701 16.9111C3.04441 16.8831 3.03071 16.849 3.02768 16.8131C3.02465 16.7773 3.03242 16.7414 3.05 16.71C3.61779 15.8265 4.28922 15.014 5.05 14.29Z" fill="#FFE4B2"/>
  <path d="M5.93 16.9C5.93 16.9 5.83 16.65 5.71 16.69C5.59 16.73 5.71 17.28 5.87 17.23C6.03 17.18 6 17 5.93 16.9Z" fill="#FFE4B2"/>
  <path d="M7.76001 15.12C7.76001 15.12 7.68001 15.24 7.36001 15.24C7.04001 15.24 6.96001 15.45 7.17001 15.52C7.31283 15.5444 7.45935 15.5354 7.59813 15.4937C7.73691 15.4521 7.86418 15.379 7.97001 15.28C8.11001 15.1 7.94001 15 7.76001 15.12Z" fill="#FFE4B2"/>
  <path d="M10.5 8.42999L8.12 10.67C8.10515 10.6867 8.09634 10.7079 8.09495 10.7302C8.09356 10.7525 8.09969 10.7746 8.11235 10.7931C8.12501 10.8115 8.14348 10.8251 8.16481 10.8318C8.18613 10.8385 8.20908 10.8379 8.23 10.83C8.46024 10.7196 8.68394 10.5961 8.9 10.46C9.51 10.08 10.05 10.09 10.13 9.84999L10.64 8.53999C10.6507 8.52125 10.6543 8.49929 10.6502 8.47812C10.646 8.45694 10.6344 8.43796 10.6174 8.42463C10.6005 8.4113 10.5793 8.4045 10.5577 8.40549C10.5362 8.40647 10.5157 8.41517 10.5 8.42999Z" fill="#FFE4B2"/>
  <path d="M12.82 4.38C12.82 4.38 12.41 4.49 12.41 4.8C12.41 5.11 12.85 5.19 13.68 5.33C14.51 5.47 18.51 6.33 18.42 7.1C18.33 7.87 16.26 6.68 14.05 6.17C11.84 5.66 11.5 5.56 11.28 6.17C11.28 6.16 10.75 4.48 12.82 4.38Z" fill="#D0A947"/>
  <path d="M11.5332 12.3526C12.3 12.1417 12.7934 11.5045 12.6352 10.9293C12.477 10.3542 11.7271 10.059 10.9603 10.2699C10.1935 10.4809 9.70011 11.1181 9.85831 11.6932C10.0165 12.2683 10.7664 12.5635 11.5332 12.3526Z" fill="#7C3616"/>
  <path d="M12.6978 9.46806C13.4646 9.25714 13.958 8.61993 13.7998 8.04483C13.6416 7.46972 12.8918 7.17449 12.1249 7.38542C11.3581 7.59634 10.8648 8.23355 11.0229 8.80866C11.1811 9.38376 11.931 9.67899 12.6978 9.46806Z" fill="#7C3616"/>
  <path d="M7 11C7.23242 11.0648 7.44481 11.1871 7.61768 11.3554C7.79054 11.5237 7.91834 11.7328 7.98931 11.9635C8.06029 12.1941 8.07218 12.4388 8.02388 12.6752C7.97559 12.9117 7.86866 13.1321 7.71292 13.3164C7.55718 13.5008 7.35763 13.643 7.13259 13.73C6.90755 13.8171 6.66424 13.8462 6.42501 13.8147C6.18578 13.7832 5.9583 13.6921 5.76347 13.5497C5.56864 13.4074 5.41271 13.2183 5.31 13" fill="#7C3616"/>
  <path d="M17.28 9.66002C17.0004 9.36471 16.6303 9.17098 16.2283 9.10941C15.8263 9.04784 15.4152 9.12194 15.06 9.32002C13.93 10.08 15.23 10.73 15.59 11.32C15.95 11.91 16.25 12.21 16.89 12.04C17.1072 11.9414 17.2967 11.7907 17.4417 11.6013C17.5867 11.4119 17.6827 11.1897 17.7213 10.9543C17.7599 10.7189 17.7398 10.4776 17.6628 10.2519C17.5858 10.0261 17.4543 9.82281 17.28 9.66002Z" fill="#7C3616"/>
  <path d="M19.82 10.77C19.82 10.77 15.9 6.59001 11.43 7.00001V6.73001C16 6.31001 20 10.54 20 10.58L19.82 10.77Z" fill="#5E3A0F"/>
  <path d="M21.41 7.18998L21.15 6.99998C19.3469 5.74997 17.3037 4.88841 15.15 4.46998C12.53 3.97998 11.7 4.07998 11.15 4.92998C11.0034 5.22588 10.9364 5.55489 10.9557 5.88457C10.975 6.21424 11.0799 6.5332 11.26 6.80998C9.09272 8.63539 7.08541 10.6427 5.26 12.81C4.28 14.12 3.49 15.21 3 16C2.12 17.32 2.18 17.43 2.24 17.52C2.3 17.61 2.67 17.67 3.04 17.62H3.32L3.16 18C2.84149 18.7073 2.78478 19.5047 3 20.25C3.07193 20.3784 3.16935 20.4908 3.28628 20.5802C3.40322 20.6697 3.5372 20.7342 3.68 20.77C3.78621 20.784 3.8938 20.784 4 20.77C4.14906 20.7741 4.29462 20.7244 4.41 20.63C4.8 20.27 4.64 19.4 4.49 18.56C4.39725 18.1976 4.35684 17.8238 4.37 17.45L5.28 17.2C5.37624 17.3716 5.52782 17.5056 5.71 17.58C5.90243 17.6399 6.11066 17.6219 6.29 17.53C6.46 17.43 6.46 17.19 6.47 16.9V16.65L15.81 13C16.28 13.74 16.5 13.82 16.94 13.82C17.38 13.82 17.7 13.38 18.02 12.49V12.42C18.02 12.36 18.02 12.33 18.08 12.27L21.43 11.27C21.8264 11.1431 22.1734 10.8958 22.4226 10.5624C22.6717 10.2289 22.8107 9.8261 22.82 9.40998C22.84 8.15998 22.45 7.89998 21.41 7.18998ZM6.52 16.38C6.52659 16.3538 6.539 16.3293 6.55631 16.3086C6.57362 16.2878 6.59539 16.2712 6.62 16.26C6.76948 16.2109 6.92363 16.1774 7.08 16.16L6.52 16.38ZM8.52 15.61L8.64 15.51C8.78 15.37 8.94 15.19 9.11 15C9.69 14.33 10.49 13.41 11.24 13.49H11.67C12.53 13.59 13.21 13.67 13.61 13.04C14.01 12.41 14.22 12.12 14.61 12.12C15 12.12 15.28 12.12 15.72 12.77L8.52 15.61ZM17.83 12.38C17.56 13.17 17.27 13.59 16.98 13.59C16.69 13.59 16.5 13.59 15.98 12.81C15.46 12.03 15.04 11.89 14.55 11.89C14.06 11.89 13.77 12.27 13.35 12.89C13.05 13.37 12.5 13.31 11.67 13.21H11.24C10.35 13.12 9.53 14.06 8.87 14.81C8.72947 14.9849 8.57924 15.1519 8.42 15.31C8.04152 15.6441 7.56361 15.8444 7.06 15.88C6.8837 15.9008 6.70965 15.9376 6.54 15.99C6.2 16.12 6.19 16.57 6.19 16.92C6.20529 17.0529 6.20529 17.1871 6.19 17.32C6.13356 17.346 6.07215 17.3595 6.01 17.3595C5.94786 17.3595 5.88645 17.346 5.83 17.32C5.74534 17.3017 5.66643 17.263 5.60019 17.2073C5.53394 17.1515 5.48238 17.0803 5.45 17C5.40945 16.906 5.34254 16.8257 5.25736 16.769C5.17218 16.7122 5.07237 16.6813 4.97 16.68C4.7902 16.7055 4.62074 16.7794 4.4798 16.894C4.33886 17.0085 4.23176 17.1592 4.17 17.33C4.10772 17.7714 4.13838 18.2211 4.26 18.65C4.39 19.35 4.55 20.22 4.26 20.47C4.18564 20.5077 4.10341 20.5274 4.02 20.5274C3.9366 20.5274 3.85437 20.5077 3.78 20.47C3.67243 20.4443 3.57145 20.3963 3.4836 20.3291C3.39575 20.2619 3.32298 20.1771 3.27 20.08C2.97 19.54 3.27 18.58 3.47 18.01C3.6 17.61 3.63 17.48 3.57 17.39C3.56084 17.3678 3.54572 17.3486 3.5263 17.3344C3.50689 17.3203 3.48394 17.3119 3.46 17.31H3.32H2.96C2.79051 17.3286 2.6195 17.3286 2.45 17.31C3.32521 15.7683 4.32876 14.3031 5.45 12.93C7.30096 10.7876 9.32804 8.80405 11.51 6.99998C11.5312 6.97477 11.5428 6.9429 11.5428 6.90998C11.5428 6.87706 11.5312 6.8452 11.51 6.81998C11.51 6.81998 10.89 5.81998 11.34 5.13998C11.79 4.45998 12.59 4.33998 15.07 4.78998C17.1917 5.19269 19.2093 6.02286 21 7.22998L21.26 7.40998C22.1 7.98998 22.45 8.22998 22.54 8.98998C22.3626 8.84075 22.1514 8.7372 21.9248 8.6884C21.6982 8.63959 21.4631 8.647 21.24 8.70998C20.9581 8.76864 20.696 8.89877 20.4788 9.0879C20.2617 9.27702 20.0968 9.51878 20 9.78998C19.9099 10.0091 19.8429 10.237 19.8 10.47C19.4905 10.3164 19.1385 10.2706 18.8 10.34C18.6955 10.374 18.5995 10.4299 18.5185 10.5041C18.4374 10.5783 18.3731 10.6689 18.33 10.77C18.1098 11.2923 17.9293 11.8305 17.79 12.38H17.83ZM21.42 11.09L18.17 12C18.2905 11.6164 18.4307 11.2392 18.59 10.87C18.6162 10.804 18.6567 10.7447 18.7086 10.6963C18.7604 10.6479 18.8224 10.6116 18.89 10.59C19.2353 10.5348 19.589 10.602 19.89 10.78C19.9094 10.7925 19.9319 10.7991 19.955 10.7991C19.9781 10.7991 20.0006 10.7925 20.02 10.78C20.0396 10.7711 20.0564 10.7571 20.0687 10.7395C20.081 10.722 20.0883 10.7014 20.09 10.68C20.09 10.68 20.19 9.17998 21.29 8.99998C22.39 8.81998 22.54 9.42998 22.57 9.51998C22.5578 9.87244 22.4368 10.2125 22.2238 10.4936C22.0108 10.7746 21.716 10.9829 21.38 11.09H21.42Z" fill="black"/>
</svg>