<svg fill="none" height="30" viewBox="0 0 50 30" width="50" xmlns="http://www.w3.org/2000/svg" xmlns:xlink="http://www.w3.org/1999/xlink"><clipPath id="a"><path d="m0 0h50v30h-50z"/></clipPath><g clip-path="url(#a)" clip-rule="evenodd" fill-rule="evenodd"><path d="m2 0h46c.5304 0 1.0391.210714 1.4142.585786.3751.375073.5858.883784.5858 1.414214v26c0 .5304-.2107 1.0391-.5858 1.4142s-.8838.5858-1.4142.5858h-46c-.53043 0-1.039141-.2107-1.414214-.5858-.375072-.3751-.585786-.8838-.585786-1.4142v-26c0-.53043.210714-1.039141.585786-1.414214.375073-.375072.883784-.585786 1.414214-.585786z" fill="#2e77bc"/><path d="m7.65902 11.347-.777-1.91098-.772 1.91098zm17.10298-.76c-.156.095-.34.098-.56.098h-1.379v-1.06498h1.397c.197 0 .404.009.538.086.147.07.238.219.238.42398 0 .21-.087.38-.234.457zm9.83.76-.784-1.91098-.78 1.91098zm-18.324 2.07h-1.163l-.004-3.75598-1.645 3.75498h-.996l-1.649-3.75798v3.75798h-2.30698l-.436-1.07h-2.362l-.44 1.07h-1.232l2.031-4.79498h1.686l1.929 4.53998v-4.53998h1.85098l1.485 3.25298 1.363-3.25298h1.889zm4.635 0h-3.79v-4.79698h3.79v.999h-2.655v.86398h2.591v.983h-2.591v.958h2.655v.991zm5.342-3.50398c0 .76398-.504 1.15998-.799 1.27798.248.095.46.264.561.404.16.238.188.451.188.88v.941h-1.144l-.004-.604c0-.289.027-.704-.18-.935-.165-.168-.418-.205-.826-.205h-1.218v1.744h-1.133v-4.79498h2.61c.579 0 1.006.016 1.373.23.358.214.572.527.572 1.062zm.659-1.292h1.157v4.79498h-1.157zm14.584 4.79498h-1.607l-2.15-3.59898v3.59998h-2.31l-.442-1.07h-2.356l-.428 1.07h-1.328c-.55 0-1.249-.124-1.644-.531-.399-.407-.607-.959-.607-1.83 0-.712.125-1.36198.612-1.87598.367-.382.94-.559 1.723-.559h1.098v1.029h-1.075c-.414 0-.648.062-.873.284-.194.20198-.326.58298-.326 1.08598 0 .514.1.884.312 1.126.174.19.492.247.79.247h.51l1.598-3.76998h1.7l1.92 4.53498v-4.53798h1.728l1.993 3.33998v-3.33998h1.162v4.79498zm-35.52998.942.438-1.065h.978l.436 1.065h3.81398v-.814l.34.817h1.98l.34-.83v.827h9.477l-.005-1.748h.184c.128.004.166.016.166.23v1.518h4.901v-.407c.396.214 1.01.407 1.82.407h2.062l.44-1.065h.98l.43 1.065h3.974v-1.012l.602 1.012h3.185v-6.68698h-3.152v.79l-.441-.79h-3.234v.79l-.405-.79h-4.368c-.731 0-1.374.103-1.893.39v-.39h-3.014v.39c-.33-.296-.78-.39-1.281-.39h-11.012l-.74 1.727-.758-1.727h-3.46898v.79l-.38-.79h-2.96l-1.373 3.17998v3.507zm38.09298 3.414h-2.067c-.206 0-.344.008-.46.087-.119.077-.165.192-.165.345 0 .18.101.304.248.357.12.042.248.054.437.054l.615.017c.62.015 1.035.123 1.287.386.046.036.074.078.105.119zm0 3.162c-.275.407-.812.613-1.539.613h-2.19v-1.027h2.181c.216 0 .368-.029.46-.119.0426-.0401.0764-.0887.0993-.1426.0229-.0538.0344-.1119.0337-.1704 0-.14-.055-.25-.138-.317-.083-.073-.202-.106-.4-.106-1.065-.037-2.394.033-2.394-1.485 0-.695.437-1.428 1.628-1.428h2.26v-.954h-2.1c-.634 0-1.094.154-1.42.392v-.392h-3.105c-.496 0-1.08.125-1.355.392v-.392h-5.545v.392c-.441-.322-1.186-.392-1.53-.392h-3.657v.392c-.349-.342-1.125-.392-1.599-.392h-4.093l-.937 1.024-.877-1.024h-6.114v6.692h6l.965-1.04.91 1.04 3.697.004v-1.575h.364c.49.008 1.07-.012 1.58-.235v1.806h3.05v-1.744h.148c.187 0 .206.008.206.197v1.547h9.266c.588 0 1.203-.152 1.544-.428v.428h2.939c.611 0 1.209-.087 1.663-.309v-1.246zm-4.525-1.916c.221.23.34.522.34 1.016 0 1.032-.638 1.513-1.782 1.513h-2.21v-1.027h2.201c.215 0 .368-.029.463-.119.0426-.0402.0765-.0887.0996-.1425.023-.0539.0347-.1119.0344-.1705 0-.14-.06-.25-.138-.317-.087-.073-.207-.106-.404-.106-1.06-.037-2.39.033-2.39-1.485 0-.695.433-1.428 1.622-1.428h2.275v1.021h-2.081c-.207 0-.34.008-.455.087-.124.077-.17.193-.17.345 0 .18.105.304.248.357.12.042.248.054.442.054l.61.017c.616.015 1.039.122 1.295.385zm-10.235-.296c-.152.09-.34.099-.56.099h-1.378v-1.078h1.397c.202 0 .404.005.541.087.147.078.235.226.235.431 0 .206-.088.371-.235.461zm.685.596c.252.095.459.263.556.403.16.234.183.453.188.876v.95h-1.14v-.6c0-.288.028-.715-.182-.938-.166-.172-.419-.213-.833-.213h-1.212v1.751h-1.14v-4.796h2.62c.573 0 .992.026 1.364.227.358.218.583.518.583 1.065 0 .765-.505 1.156-.804 1.275zm1.433-2.567h3.786v.992h-2.656v.872h2.591v.979h-2.591v.954l2.656.004v.995h-3.786zm-7.653 2.214h-1.466v-1.222h1.479c.41 0 .694.169.694.588 0 .415-.271.634-.707.634zm-2.596 2.145-1.741-1.953 1.741-1.892zm-4.497-.563h-2.79v-.954h2.49v-.979h-2.49v-.872h2.845l1.24 1.398zm9.018-2.217c0 1.333-.984 1.608-1.976 1.608h-1.415v1.608h-2.205l-1.397-1.587-1.451 1.587h-4.493v-4.796h4.562l1.396 1.572 1.442-1.572h3.625c.9 0 1.912.252 1.912 1.58z" fill="#fff"/></g></svg>