<svg width="248" height="180" viewBox="0 0 248 180" fill="none" xmlns="http://www.w3.org/2000/svg">
<g clip-path="url(#clip0_1841_10813)">
<rect width="248" height="180" rx="8" fill="black"/>
<g clip-path="url(#clip1_1841_10813)">
<path d="M163.494 32.3265H151.585C151.281 32.3265 151.016 32.5611 150.978 32.8739L150.408 36.94C150.351 37.3115 150.636 37.6633 151.016 37.6633H153.2C153.428 37.6633 153.561 37.8979 153.485 38.0934C153.219 38.7385 153.01 39.4618 152.915 40.2242L151.813 48.1023C151.092 53.3805 155.346 56 159.999 56C164.861 56 169.648 53.3609 170.369 48.1023L171.471 40.2242C172.155 35.0634 168.033 32.4438 163.494 32.3265ZM165.773 40.2438L164.671 47.9459C164.424 49.764 162.43 50.6046 160.588 50.6046C158.879 50.6046 157.207 49.764 157.435 48.1023L158.537 40.2242C158.784 38.5039 160.778 37.6242 162.62 37.6242C164.462 37.6242 166.039 38.5039 165.773 40.2438Z" fill="white"/>
<path d="M97.4242 32.3267H92.9799C92.676 32.3267 92.4101 32.5612 92.3721 32.874L91.0046 42.9025V42.9221L91.0616 46.7927C91.0616 46.8709 91.0046 46.9491 90.9287 46.9686L89.6561 42.2965V42.2769L85.6866 32.7176C85.5917 32.483 85.3638 32.3267 85.1168 32.3267H80.6155C80.3117 32.3267 80.0458 32.5612 80.0078 32.874L77.0069 54.964C76.9499 55.355 77.2538 55.6874 77.6147 55.6874H82.097C82.4009 55.6874 82.6668 55.4528 82.7048 55.14L83.8823 46.3626V46.3431L83.8253 41.8469L83.9583 41.8078L85.3068 46.4799V46.4995L89.0104 55.3159C89.1053 55.5505 89.3333 55.7069 89.5802 55.7069H94.4423C94.7462 55.7069 95.0121 55.4723 95.0501 55.1595L98.051 33.0695C98.1079 32.6785 97.8041 32.3267 97.4242 32.3267Z" fill="white"/>
<path d="M107.118 32.3265H102.636C102.332 32.3265 102.066 32.5611 102.028 32.8739L99.027 54.9444C98.9701 55.3354 99.274 55.6677 99.6348 55.6677H104.117C104.421 55.6677 104.687 55.4331 104.725 55.1203L107.726 33.0498C107.783 32.6784 107.498 32.3265 107.118 32.3265Z" fill="white"/>
<path d="M128.005 32.3265H111.234C110.93 32.3265 110.664 32.5611 110.626 32.8739L110.037 36.9987C109.981 37.3897 110.265 37.722 110.645 37.722H115.336C115.716 37.722 116.001 38.0543 115.944 38.4453L113.741 54.9444C113.684 55.3354 113.988 55.6677 114.349 55.6677H118.888C119.192 55.6677 119.458 55.4331 119.496 55.1203L121.756 38.2693C121.794 37.9566 122.06 37.722 122.364 37.722H127.397C127.701 37.722 127.967 37.4874 128.005 37.1746L128.593 33.0498C128.688 32.6784 128.385 32.3265 128.005 32.3265Z" fill="white"/>
<path d="M140.524 32.3265H131.996C131.692 32.3265 131.426 32.5611 131.388 32.8739L128.387 54.9444C128.33 55.3354 128.634 55.6677 128.995 55.6677H133.534C133.838 55.6677 134.104 55.4331 134.142 55.1203L135.016 48.5324C135.035 48.376 135.168 48.2587 135.32 48.2587H135.908C136.022 48.2587 136.117 48.3174 136.174 48.4151L140.505 55.394C140.619 55.5699 140.809 55.6872 141.037 55.6872H146.658C147.152 55.6872 147.456 55.1008 147.171 54.6902L142.613 47.985C142.499 47.8287 142.556 47.5941 142.727 47.5159C145.633 46.0497 147.323 44.564 147.874 40.3806C148.52 34.907 145.196 32.3265 140.524 32.3265ZM142.081 40.4783C141.929 41.8272 140.904 43.1761 139.137 43.1761H136.497C136.117 43.1761 135.832 42.8242 135.889 42.4528L136.459 38.3866C136.497 38.0739 136.763 37.8393 137.067 37.8393H139.897C141.568 37.8393 142.252 39.0708 142.081 40.4783Z" fill="white"/>
<g clip-path="url(#clip2_1841_10813)">
<path d="M106.523 17.7077C105.562 17.2903 104.542 16.9861 103.478 16.8163C103.344 17.0356 103.195 17.3327 103.09 17.5662C101.959 17.4106 100.835 17.4106 99.7179 17.5662C99.6137 17.3327 99.4573 17.0356 99.3308 16.8163C98.2587 16.9861 97.2388 17.2903 96.2858 17.7077C94.3576 20.4103 93.8365 23.0492 94.097 25.6527C95.3776 26.5371 96.6134 27.0748 97.8269 27.4285C98.1247 27.0465 98.3927 26.6361 98.6235 26.2046C98.1843 26.0489 97.7674 25.8579 97.3653 25.6315C97.4696 25.5608 97.5738 25.483 97.6706 25.4051C100.098 26.4593 102.726 26.4593 105.123 25.4051C105.227 25.483 105.324 25.5608 105.428 25.6315C105.026 25.8579 104.609 26.0489 104.17 26.2046C104.401 26.6361 104.669 27.0465 104.967 27.4285C106.18 27.0748 107.423 26.5371 108.696 25.6527C109.017 22.6389 108.19 20.0212 106.523 17.7077ZM98.9585 24.0468C98.2289 24.0468 97.6334 23.4171 97.6334 22.6459C97.6334 21.8748 98.2141 21.2451 98.9585 21.2451C99.6956 21.2451 100.299 21.8748 100.284 22.6459C100.284 23.4171 99.6956 24.0468 98.9585 24.0468ZM103.85 24.0468C103.12 24.0468 102.525 23.4171 102.525 22.6459C102.525 21.8748 103.105 21.2451 103.85 21.2451C104.587 21.2451 105.19 21.8748 105.175 22.6459C105.175 23.4171 104.594 24.0468 103.85 24.0468Z" fill="white"/>
<path d="M113.645 19.0564H116.871C117.645 19.0564 118.305 19.1731 118.844 19.4065C119.383 19.6399 119.785 19.9608 120.051 20.3766C120.317 20.7923 120.453 21.2664 120.453 21.8061C120.453 22.3313 120.317 22.8054 120.036 23.2357C119.755 23.6588 119.33 24.0016 118.761 24.2496C118.192 24.4975 117.486 24.6215 116.643 24.6215H113.645V19.0564ZM116.605 23.2066C117.129 23.2066 117.531 23.0826 117.812 22.8273C118.093 22.5793 118.237 22.2292 118.237 21.7989C118.237 21.3977 118.108 21.0768 117.858 20.8361C117.607 20.5954 117.228 20.4714 116.719 20.4714H115.71V23.2066H116.605Z" fill="white"/>
<path d="M125.478 24.6145C125.03 24.5051 124.628 24.3447 124.271 24.1259V22.8057C124.544 23.0099 124.901 23.1704 125.356 23.3017C125.812 23.433 126.252 23.4986 126.677 23.4986C126.874 23.4986 127.026 23.4767 127.124 23.4257C127.223 23.3746 127.276 23.3163 127.276 23.2433C127.276 23.1631 127.246 23.0974 127.193 23.0464C127.14 22.9953 127.033 22.9516 126.874 22.9078L125.88 22.6963C125.311 22.5723 124.909 22.3899 124.666 22.1711C124.423 21.9523 124.309 21.6533 124.309 21.2886C124.309 20.9823 124.415 20.7124 124.62 20.4863C124.833 20.2602 125.129 20.0851 125.516 19.9611C125.903 19.8371 126.35 19.7715 126.874 19.7715C127.337 19.7715 127.762 19.8152 128.149 19.9174C128.536 20.0122 128.855 20.1362 129.105 20.282V21.5293C128.847 21.3834 128.544 21.2667 128.21 21.1792C127.868 21.0917 127.519 21.0479 127.162 21.0479C126.646 21.0479 126.388 21.1354 126.388 21.3032C126.388 21.3834 126.426 21.4418 126.51 21.4855C126.593 21.5293 126.737 21.5658 126.95 21.6095L127.777 21.7554C128.316 21.8429 128.718 22.0034 128.984 22.2295C129.249 22.4556 129.378 22.7838 129.378 23.2287C129.378 23.7101 129.158 24.0967 128.718 24.3739C128.278 24.6583 127.656 24.7969 126.851 24.7969C126.381 24.7823 125.925 24.724 125.478 24.6145Z" fill="white"/>
<path d="M131.428 24.447C130.957 24.2209 130.593 23.9219 130.358 23.5426C130.115 23.1633 130.001 22.733 130.001 22.2516C130.001 21.7775 130.123 21.3472 130.373 20.9752C130.624 20.5959 130.988 20.3041 131.466 20.0853C131.944 19.8738 132.521 19.7644 133.189 19.7644C134.016 19.7644 134.699 19.9322 135.245 20.2677V21.7191C135.055 21.5951 134.828 21.4857 134.57 21.4128C134.312 21.3326 134.039 21.2961 133.75 21.2961C133.234 21.2961 132.84 21.3836 132.544 21.566C132.255 21.7483 132.111 21.9817 132.111 22.2735C132.111 22.5579 132.248 22.7913 132.536 22.9737C132.817 23.156 133.227 23.2508 133.758 23.2508C134.031 23.2508 134.304 23.2144 134.57 23.1341C134.835 23.0539 135.071 22.9664 135.26 22.8497V24.2574C134.653 24.6075 133.947 24.7825 133.151 24.7825C132.475 24.7825 131.906 24.6658 131.428 24.447Z" fill="white"/>
<path d="M137.409 24.447C136.931 24.2209 136.567 23.9219 136.316 23.5353C136.066 23.1487 135.937 22.7184 135.937 22.237C135.937 21.7629 136.066 21.3326 136.316 20.9606C136.567 20.5886 136.931 20.2968 137.401 20.0853C137.872 19.8738 138.441 19.7644 139.094 19.7644C139.747 19.7644 140.316 19.8665 140.786 20.0853C141.257 20.2968 141.621 20.5886 141.872 20.9606C142.122 21.3326 142.244 21.7556 142.244 22.237C142.244 22.7111 142.122 23.1487 141.872 23.5353C141.621 23.9219 141.265 24.2282 140.786 24.447C140.308 24.6658 139.747 24.7825 139.094 24.7825C138.449 24.7825 137.887 24.6658 137.409 24.447ZM139.921 23.0393C140.119 22.8497 140.225 22.5871 140.225 22.2735C140.225 21.9525 140.126 21.7045 139.921 21.5149C139.716 21.3253 139.443 21.2305 139.102 21.2305C138.745 21.2305 138.472 21.3253 138.267 21.5149C138.069 21.7045 137.963 21.9525 137.963 22.2735C137.963 22.5944 138.062 22.8497 138.267 23.0393C138.472 23.2362 138.745 23.3311 139.102 23.3311C139.443 23.3238 139.724 23.2289 139.921 23.0393Z" fill="white"/>
<path d="M147.321 20.0558V21.7699C147.108 21.6386 146.835 21.573 146.501 21.573C146.061 21.573 145.719 21.7042 145.484 21.9595C145.249 22.2148 145.128 22.616 145.128 23.1557V24.6145H143.101V19.9756H145.09V21.4563C145.196 20.9165 145.378 20.5154 145.621 20.2601C145.864 20.0048 146.182 19.8662 146.569 19.8662C146.858 19.8662 147.108 19.9319 147.321 20.0558Z" fill="white"/>
<path d="M154.152 18.8961V24.6217H152.126V23.5787C151.951 23.9726 151.693 24.2716 151.344 24.4759C150.995 24.6801 150.562 24.7822 150.046 24.7822C149.591 24.7822 149.188 24.6728 148.847 24.4613C148.505 24.2497 148.24 23.9507 148.057 23.5787C147.875 23.1994 147.784 22.7764 147.784 22.3096C147.777 21.8209 147.875 21.3833 148.08 20.9967C148.277 20.6102 148.566 20.3111 148.93 20.0923C149.295 19.8735 149.712 19.7641 150.183 19.7641C151.146 19.7641 151.792 20.1652 152.126 20.9748V18.8961H154.152ZM151.822 23.0025C152.027 22.8129 152.133 22.5576 152.133 22.2513C152.133 21.9522 152.034 21.7115 151.83 21.5292C151.625 21.3468 151.351 21.252 151.01 21.252C150.668 21.252 150.395 21.3468 150.19 21.5365C149.985 21.7261 149.887 21.9668 149.887 22.2731C149.887 22.5795 149.985 22.8202 150.19 23.0098C150.395 23.1994 150.661 23.2943 151.002 23.2943C151.344 23.2943 151.617 23.1994 151.822 23.0025Z" fill="white"/>
<path d="M122.32 20.253C122.903 20.253 123.375 19.8448 123.375 19.3413C123.375 18.8378 122.903 18.4296 122.32 18.4296C121.738 18.4296 121.265 18.8378 121.265 19.3413C121.265 19.8448 121.738 20.253 122.32 20.253Z" fill="white"/>
<path d="M123.375 20.8798C122.73 21.1496 121.926 21.1569 121.265 20.8798V24.6215H123.375V20.8798Z" fill="white"/>
</g>
</g>
<g filter="url(#filter0_d_1841_10813)">
<path d="M137.95 192.266C166.332 192.266 189.34 169.475 189.34 141.361C189.34 113.247 166.332 90.4556 137.95 90.4556C109.568 90.4556 86.5601 113.247 86.5601 141.361C86.5601 169.475 109.568 192.266 137.95 192.266Z" fill="url(#paint0_linear_1841_10813)"/>
<path d="M137.95 200C105.303 200 78.7525 173.7 78.7525 141.361C78.7525 109.021 105.303 82.7217 137.95 82.7217C170.598 82.7217 197.147 109.021 197.147 141.361C197.147 173.7 170.598 200 137.95 200ZM137.95 86.3769C107.35 86.3769 82.4425 111.049 82.4425 141.361C82.4425 171.672 107.35 196.345 137.95 196.345C168.55 196.345 193.458 171.672 193.458 141.361C193.458 111.049 168.55 86.3769 137.95 86.3769Z" fill="#57F287"/>
<path d="M74.7475 129.348C66.5125 133.761 74.2975 146.888 80.26 156.472C86.2225 166.056 99.1825 171.984 112.75 164.518L112.03 144.526C94.795 131.198 82.96 124.912 74.7475 129.348Z" fill="url(#paint1_linear_1841_10813)"/>
<path d="M89.935 141.539C90.1335 141.487 90.3034 141.359 90.4085 141.184C90.5136 141.01 90.5456 140.801 90.4975 140.603C90.4445 140.406 90.316 140.238 90.1395 140.134C89.9629 140.03 89.7523 139.998 89.5525 140.046C89.485 140.068 83.1175 141.584 73.2625 143.812C73.465 144.28 73.69 144.771 73.915 145.239C83.59 143.032 89.845 141.539 89.935 141.539Z" fill="#4199F0"/>
<path d="M97.1125 144.815C97.045 144.86 91.015 147.78 79.045 154.488L79.8325 155.781C91.735 149.117 97.72 146.22 97.7875 146.197C97.8791 146.153 97.9611 146.092 98.0287 146.017C98.0964 145.941 98.1484 145.854 98.1818 145.758C98.2153 145.663 98.2294 145.562 98.2235 145.462C98.2176 145.361 98.1918 145.263 98.1475 145.172C98.1032 145.081 98.0412 145 97.9652 144.933C97.8892 144.866 97.8007 144.814 97.7045 144.781C97.6084 144.748 97.5067 144.734 97.4051 144.74C97.3035 144.746 97.2041 144.771 97.1125 144.815Z" fill="#4199F0"/>
<path d="M87.325 133.493C87.3375 133.29 87.2691 133.09 87.1346 132.936C87 132.781 86.81 132.686 86.605 132.669C86.56 132.669 81.745 132.267 72.3625 131.42C72.0443 131.872 71.7942 132.368 71.62 132.891L86.4925 134.184H86.56C86.7503 134.18 86.9326 134.108 87.0732 133.981C87.2138 133.854 87.3033 133.68 87.325 133.493Z" fill="#4199F0"/>
<path d="M71.1925 139.355C70.1771 139.355 69.1717 139.157 68.2339 138.771C67.2961 138.385 66.4444 137.82 65.7274 137.108C65.0105 136.396 64.4425 135.551 64.056 134.62C63.6695 133.69 63.472 132.694 63.475 131.688V124.088C63.475 123.686 63.6362 123.301 63.9231 123.016C64.2101 122.732 64.5992 122.572 65.005 122.572C65.4108 122.572 65.8 122.732 66.0869 123.016C66.3738 123.301 66.535 123.686 66.535 124.088V131.688C66.5363 132.387 66.6972 133.077 67.0056 133.706C67.314 134.334 67.762 134.886 68.316 135.319C68.87 135.752 69.5157 136.055 70.2047 136.206C70.8938 136.357 71.6084 136.352 72.295 136.19L82.51 133.783C84.1343 133.401 85.5805 132.487 86.6138 131.188C87.6472 129.889 88.2071 128.282 88.2025 126.629V118.249C88.2481 117.875 88.4301 117.532 88.714 117.282C88.998 117.033 89.3643 116.896 89.7438 116.896C90.1232 116.896 90.4895 117.033 90.7735 117.282C91.0574 117.532 91.2394 117.875 91.285 118.249V126.629C91.2913 128.971 90.4962 131.247 89.0293 133.085C87.5624 134.922 85.5102 136.213 83.2075 136.747L72.9925 139.154C72.4021 139.288 71.7982 139.356 71.1925 139.355Z" fill="#1927BC"/>
<path d="M141.325 83.6802C138.535 84.0145 136.825 87.2908 141.37 98.2787L144.25 98.4347C147.153 87.001 144.093 83.3458 141.325 83.6802Z" fill="white"/>
<path d="M156.715 93.5536C166.233 83.5687 163.06 78.71 158.493 78.4202C152.823 78.0636 145.465 82.9001 143.17 95.827L157.48 106.882C162.79 106.057 168.01 104.92 171.633 102.536C174.895 100.351 174.468 95.3589 170.845 93.7988C167.628 92.4392 162.948 92.0381 156.715 93.5536Z" fill="white"/>
<path d="M158.808 148.582C158.808 148.582 160.585 144.236 165.985 127.899C170.508 114.214 163.96 97.6099 143.035 96.0721C129.603 95.0691 120.715 102.001 113.718 127.342C111.542 135.097 107.434 142.186 101.77 147.958C96.2575 153.575 93.715 160.395 93.6475 167.17C98.6835 175.643 106.088 182.49 114.966 186.886C123.845 191.281 133.818 193.037 143.681 191.941C153.545 190.845 162.878 186.945 170.553 180.71C178.228 174.475 183.916 166.173 186.933 156.806C187.023 156.294 187.045 156.026 187.045 156.026C187.045 156.026 174.243 152.126 158.808 148.582Z" fill="#66BCFF"/>
<path d="M140.493 126.005C142.968 121.97 142.563 116.309 133.09 105.188C123.258 93.665 113.155 88.8063 106.473 93.9547C99.7901 99.1032 107.913 110.18 114.73 118.248C103.503 124.756 101.635 129.749 103.413 134.831C105.19 139.912 112.885 140.826 119.838 138.887C126.79 136.948 137.253 131.331 140.493 126.005Z" fill="#FFE75C"/>
<path d="M129.963 120.143C122.56 108.732 115.203 103.895 112.458 102.736C109.713 101.577 108.34 103.293 109.578 106.079C110.815 108.865 115.518 115.128 118.398 118.828C112.615 122.862 108.25 125.47 108.228 128.969C108.183 132.089 114.393 131.064 119.118 128.033C122.853 125.626 127.713 122.171 129.963 120.143Z" fill="#FF962A"/>
<path d="M154.465 147.936C197.553 124.266 205.833 121.525 211.143 134.652C216.453 147.78 215.103 161.487 200.905 172.564C186.708 183.641 181.263 178.827 166.615 172.497C148.728 164.785 146.725 152.193 154.465 147.936Z" fill="url(#paint2_linear_1841_10813)"/>
<path d="M104.853 110.269L60.415 66.7637C58.93 65.2704 57.22 64.3343 55.3525 64.0669C46.555 62.8633 37.3075 77.1275 34.6975 95.9161C32.0875 114.705 37.0825 130.93 45.88 132.134C46.8802 132.252 47.8937 132.191 48.8725 131.955L103.277 119.14C104.335 118.873 105.347 117.089 105.64 114.838C105.933 112.587 105.573 111.049 104.853 110.269Z" fill="white"/>
<path d="M63.1323 99.7859C65.5709 82.1514 61.5795 67.0461 54.2173 66.0471C46.855 65.0481 38.9098 78.5338 36.4712 96.1682C34.0326 113.803 38.024 128.908 45.3862 129.907C52.7485 130.906 60.6936 117.42 63.1323 99.7859Z" fill="#7196FF"/>
<path d="M63.4075 81.964L63.025 81.8971C57.625 81.1616 52.0225 89.1629 50.56 99.7942C49.1425 109.957 52 118.828 57.0175 120.21C59.8075 114.883 62.035 107.773 63.16 99.8165C64.06 93.3307 64.0825 87.1793 63.4075 81.964Z" fill="black"/>
<path d="M148.458 115.708C148.48 114.638 149.38 113.769 150.303 113.412C151.183 113.1 152.134 113.039 153.048 113.234C153.91 113.394 154.725 113.744 155.433 114.259C156.141 114.734 156.708 115.388 157.075 116.153C157.12 116.247 157.147 116.348 157.152 116.452C157.157 116.556 157.141 116.659 157.106 116.757C157.07 116.854 157.015 116.944 156.944 117.02C156.873 117.096 156.788 117.158 156.693 117.201C156.579 117.255 156.453 117.279 156.327 117.271C156.201 117.263 156.079 117.224 155.973 117.156L155.905 117.112C154.915 116.512 153.799 116.146 152.643 116.042C152.161 116.001 151.675 116.031 151.203 116.131C150.731 116.194 150.265 116.291 149.808 116.421L149.493 116.51C149.287 116.567 149.067 116.542 148.878 116.443C148.69 116.343 148.547 116.176 148.48 115.975C148.461 115.887 148.454 115.797 148.458 115.708Z" fill="black"/>
<path d="M154.465 122.55C154.348 122.551 154.233 122.525 154.127 122.475C154.022 122.425 153.93 122.351 153.858 122.26C152.26 120.187 150.753 118.872 147.445 117.825C147.349 117.794 147.26 117.745 147.183 117.68C147.106 117.615 147.043 117.536 146.997 117.447C146.951 117.358 146.923 117.261 146.915 117.162C146.907 117.062 146.919 116.962 146.95 116.867C146.981 116.771 147.031 116.683 147.096 116.607C147.162 116.531 147.241 116.468 147.331 116.423C147.421 116.377 147.519 116.35 147.62 116.342C147.72 116.334 147.822 116.345 147.918 116.376C151.608 117.557 153.318 119.073 155.073 121.324C155.193 121.485 155.247 121.687 155.222 121.886C155.197 122.085 155.095 122.267 154.938 122.394C154.801 122.495 154.635 122.55 154.465 122.55Z" fill="#339AFF"/>
<path d="M189.34 140.603H189.497C189.587 140.581 198.587 138.82 211.975 136.948C211.817 136.48 211.637 135.99 211.457 135.499C198.182 137.349 189.295 139.088 189.182 139.11C188.98 139.131 188.793 139.23 188.665 139.387C188.536 139.544 188.475 139.745 188.496 139.946C188.517 140.147 188.618 140.331 188.776 140.459C188.934 140.586 189.137 140.646 189.34 140.625V140.603Z" fill="#66BCFF"/>
<path d="M161.462 158.991C161.434 158.787 161.327 158.603 161.162 158.478C160.998 158.353 160.791 158.297 160.585 158.322C160.386 158.35 160.205 158.454 160.083 158.613C159.961 158.771 159.907 158.971 159.933 159.169C159.933 159.236 160.495 163.626 161.17 169.711L162.812 170.647C162.092 164.005 161.462 159.035 161.462 158.991Z" fill="#66BCFF"/>
<path d="M168.775 154.867C168.641 154.718 168.454 154.626 168.253 154.609C168.052 154.593 167.852 154.653 167.695 154.778C167.615 154.841 167.549 154.919 167.501 155.007C167.453 155.096 167.424 155.193 167.416 155.294C167.407 155.394 167.42 155.495 167.452 155.59C167.485 155.686 167.537 155.773 167.605 155.848C167.695 155.982 176.942 166.947 184.907 179.139C185.522 179.183 186.138 179.183 186.752 179.139C178.585 166.546 168.887 155.001 168.775 154.867Z" fill="#66BCFF"/>
<path d="M205.72 168.195C194.965 160.417 180.25 152.438 180.093 152.326C179.91 152.231 179.697 152.21 179.499 152.268C179.302 152.327 179.135 152.46 179.035 152.638C178.985 152.726 178.953 152.822 178.941 152.922C178.93 153.021 178.939 153.122 178.969 153.219C178.998 153.315 179.047 153.404 179.113 153.48C179.179 153.557 179.259 153.619 179.35 153.664C179.508 153.775 193.998 161.62 204.64 169.31C205.023 168.931 205.383 168.574 205.72 168.195Z" fill="#66BCFF"/>
<path d="M185.628 147.178C185.429 147.178 185.237 147.255 185.094 147.392C184.952 147.529 184.868 147.716 184.863 147.913C184.856 148.014 184.871 148.114 184.906 148.209C184.94 148.303 184.994 148.39 185.063 148.463C185.133 148.536 185.217 148.594 185.31 148.634C185.403 148.673 185.504 148.694 185.605 148.694C185.763 148.694 198.61 148.939 213.933 150.187L214 148.649C198.633 147.401 185.785 147.178 185.628 147.178Z" fill="#66BCFF"/>
<path d="M159.91 170.068C159.768 170.062 159.63 170.024 159.505 169.956C156.58 168.106 152.958 165.499 150.775 161.487C150.678 161.312 150.654 161.107 150.709 160.915C150.763 160.723 150.892 160.56 151.068 160.462C151.247 160.364 151.458 160.34 151.656 160.394C151.853 160.448 152.021 160.576 152.125 160.751C154.15 164.451 157.57 166.925 160.338 168.663C160.424 168.716 160.499 168.785 160.558 168.866C160.616 168.948 160.657 169.041 160.678 169.139C160.7 169.237 160.7 169.339 160.68 169.437C160.66 169.535 160.62 169.629 160.563 169.711C160.493 169.821 160.397 169.911 160.283 169.973C160.169 170.036 160.04 170.068 159.91 170.068Z" fill="black"/>
<path d="M111.783 158.344C111.698 158.351 111.612 158.335 111.535 158.299C111.426 158.267 111.327 158.21 111.245 158.133C111.163 158.055 111.1 157.96 111.063 157.854C110.68 156.873 110.5 155.38 110.568 153.708C109.319 154.164 108.108 154.716 106.945 155.357C106.845 155.418 106.732 155.455 106.615 155.467C106.498 155.478 106.38 155.464 106.27 155.424C106.167 155.38 106.074 155.316 105.997 155.236C105.919 155.155 105.859 155.06 105.82 154.956C105.393 153.708 104.92 150.989 105.843 148.76C105.881 148.668 105.937 148.584 106.008 148.514C106.08 148.443 106.164 148.387 106.257 148.349C106.35 148.31 106.45 148.291 106.55 148.291C106.651 148.29 106.751 148.31 106.844 148.348C106.937 148.386 107.021 148.442 107.093 148.512C107.164 148.583 107.221 148.666 107.259 148.758C107.298 148.851 107.318 148.949 107.318 149.049C107.318 149.149 107.298 149.248 107.26 149.34C106.698 150.722 106.81 152.415 107.035 153.574C108.366 152.898 109.75 152.332 111.175 151.881C111.292 151.836 111.42 151.826 111.543 151.849C111.666 151.873 111.78 151.93 111.873 152.014C111.972 152.089 112.051 152.187 112.103 152.3C112.154 152.413 112.175 152.537 112.165 152.661C112.034 153.93 112.072 155.212 112.278 156.472C113.743 155.726 115.291 155.15 116.89 154.756C116.989 154.733 117.092 154.73 117.192 154.746C117.292 154.763 117.388 154.8 117.474 154.854C117.56 154.908 117.634 154.978 117.692 155.061C117.75 155.143 117.791 155.237 117.813 155.335C117.854 155.53 117.819 155.733 117.714 155.903C117.61 156.073 117.444 156.196 117.25 156.249C115.473 156.693 113.764 157.368 112.165 158.255C112.048 158.318 111.916 158.349 111.783 158.344Z" fill="#4FA8FF"/>
<path d="M129.85 154.778H129.76C129.653 154.768 129.549 154.735 129.455 154.681C129.362 154.627 129.282 154.554 129.22 154.466C128.279 152.974 127.773 151.254 127.758 149.496C127.763 149.293 127.849 149.1 127.996 148.959C128.143 148.817 128.34 148.738 128.545 148.738C128.748 148.738 128.943 148.818 129.086 148.96C129.229 149.102 129.31 149.295 129.31 149.496C129.32 150.668 129.589 151.825 130.098 152.884C131.38 151.992 132.955 151.279 134.125 151.056C134.226 151.037 134.329 151.038 134.429 151.059C134.53 151.08 134.624 151.121 134.708 151.179C134.792 151.237 134.864 151.312 134.918 151.398C134.972 151.484 135.009 151.58 135.025 151.68C135.058 151.881 135.011 152.086 134.893 152.253C134.775 152.419 134.597 152.534 134.395 152.572C133.405 152.728 131.695 153.508 130.345 154.622C130.203 154.728 130.028 154.783 129.85 154.778Z" fill="#4FA8FF"/>
<path d="M114.82 130.106C116.327 129.579 117.769 128.883 119.118 128.033C122.853 125.626 127.713 122.171 129.963 120.143C129.018 118.694 128.095 117.357 127.15 116.131C125.536 116.836 124.01 117.726 122.605 118.783C118.038 122.171 114.28 127.23 114.82 130.106Z" fill="#FF5D12"/>
<path d="M53.4851 66.0059C53.7415 66.006 53.9975 66.0284 54.2501 66.0728C61.6301 67.0757 65.6126 82.1868 63.1601 99.8165C60.7976 116.822 53.3051 129.972 46.1501 129.972C45.8936 129.972 45.6376 129.949 45.3851 129.905C38.0276 128.902 34.0451 113.791 36.4976 96.1613C38.8601 79.1557 46.3526 66.0282 53.4851 66.0059ZM53.4851 64.8024C45.5651 64.8024 37.7351 78.2196 35.2601 96.0053C32.6951 114.571 37.0601 130.016 45.2051 131.131L46.1501 131.175C54.0701 131.175 61.9001 117.758 64.3751 99.9725C66.9626 81.4068 62.5976 65.9836 54.4301 64.8692C54.117 64.8248 53.8013 64.8025 53.4851 64.8024Z" fill="white"/>
</g>
<path d="M49.2198 71.2344C46.9965 69.7968 45.4983 67.4723 45.1082 64.8464L44.4419 60.3811C44.4074 60.1628 44.2209 60 44 60C43.7791 60 43.5892 60.1628 43.5581 60.3811L42.8918 64.8464C42.5017 67.4688 41.0035 69.7968 38.7802 71.2344L38.2037 71.6085C38.0759 71.6917 38 71.8337 38 71.9861V72.0139C38 72.1663 38.0759 72.3083 38.2037 72.3915L38.7802 72.7656C41.0035 74.2032 42.5017 76.5277 42.8918 79.1536L43.5581 83.6189C43.5926 83.8372 43.7791 84 44 84C44.2209 84 44.4108 83.8372 44.4419 83.6189L45.1082 79.1536C45.4983 76.5312 46.9965 74.2032 49.2198 72.7656L49.7963 72.3915C49.924 72.3083 50 72.1663 50 72.0139V71.9861C50 71.8337 49.924 71.6917 49.7963 71.6085L49.2198 71.2344Z" fill="#FFE75C"/>
</g>
<defs>
<filter id="filter0_d_1841_10813" x="2" y="43.996" width="244.006" height="200.004" filterUnits="userSpaceOnUse" color-interpolation-filters="sRGB">
<feFlood flood-opacity="0" result="BackgroundImageFix"/>
<feColorMatrix in="SourceAlpha" type="matrix" values="0 0 0 0 0 0 0 0 0 0 0 0 0 0 0 0 0 0 127 0" result="hardAlpha"/>
<feOffset dy="12"/>
<feGaussianBlur stdDeviation="16"/>
<feColorMatrix type="matrix" values="0 0 0 0 0 0 0 0 0 0 0 0 0 0 0 0 0 0 0.24 0"/>
<feBlend mode="normal" in2="BackgroundImageFix" result="effect1_dropShadow_1841_10813"/>
<feBlend mode="normal" in="SourceGraphic" in2="effect1_dropShadow_1841_10813" result="shape"/>
</filter>
<linearGradient id="paint0_linear_1841_10813" x1="163.483" y1="163.767" x2="112.064" y2="117.791" gradientUnits="userSpaceOnUse">
<stop stop-color="#EB459F"/>
<stop offset="1" stop-color="#FF78B9"/>
</linearGradient>
<linearGradient id="paint1_linear_1841_10813" x1="82.2513" y1="130.183" x2="100.409" y2="157.242" gradientUnits="userSpaceOnUse">
<stop stop-color="#66BCFF"/>
<stop offset="0.3" stop-color="#60B7FD"/>
<stop offset="0.69" stop-color="#51A9F8"/>
<stop offset="1" stop-color="#3F99F2"/>
</linearGradient>
<linearGradient id="paint2_linear_1841_10813" x1="148.408" y1="153.004" x2="216.734" y2="153.004" gradientUnits="userSpaceOnUse">
<stop stop-color="#66BCFF"/>
<stop offset="1" stop-color="#8CD9FF"/>
</linearGradient>
<clipPath id="clip0_1841_10813">
<rect width="248" height="180" rx="8" fill="white"/>
</clipPath>
<clipPath id="clip1_1841_10813">
<rect width="94.5455" height="40" fill="white" transform="translate(77 16)"/>
</clipPath>
<clipPath id="clip2_1841_10813">
<rect width="61.1285" height="10.6122" fill="white" transform="translate(93.301 16.8163)"/>
</clipPath>
</defs>
</svg>
