<svg fill="none" height="88" viewBox="0 0 180 88" width="180" xmlns="http://www.w3.org/2000/svg"><path d="m45.648 22.5133c-2.16-8.4333-11.88-8.36-15.12-3.1533-3.744-2.9333-16.704-3.08-15.336 6.8933h41.112c-2.232-4.2533-6.264-4.62-10.656-3.74z" fill="#aec7ff" opacity=".2"/><path d="m78.408 64.9735c-1.44-9.3133-10.944-16.4266-22.536-16.4266-9.36 0-17.352 4.6933-20.88 11.44-1.7156-.8912-3.6183-1.3442-5.544-1.32-3.1561-.0045-6.1934 1.2257-8.4846 3.4365s-3.6613 5.2334-3.8274 8.4435c-9.792.66-17.136 3.52-17.136 6.82h94.248c.576-6.3067-8.28-11.3667-15.84-12.3934z" fill="#aec7ff" opacity=".2"/><path d="m70.416 52.0668c.811 1.1538 1.2398 2.541 1.224 3.96v.22c.0112.1267-.0138.254-.072.3666v.3667c-.072.0733-.072.1467-.072.2933v.3667c-.0573.086-.0828.19-.072.2933-.0261.0298-.0459.0647-.0582.1025-.0124.0378-.0171.0778-.0138.1175v.1467l-.144.3667c-.0045.0565-.0303.109-.072.1466-.0196.1098-.0696.2115-.144.2934v.1466c0 .057-.013.1131-.038.164s-.0613.0952-.106.1294h-.288l-.144.22h-.072v.1466h-.072l-.216.3667h-.072l-.216.3667v.1466c-.144.0734-.216.22-.36.3667h-.072l-.36.44c-.144.1467-.288.22-.36.3667h-.072l-.432.3666h-.288l1.872 3.3c.2592.4679.476.9588.648 1.4667v1.1.1467c.0723.163.1209.3359.144.5133l.144.3667c-.0061.1741.0183.3479.072.5133 0 .1467 0 .22.072.2933-.0118.271.0124.5423.072.8067v.2933.9534c0 .1466-.072.22-.072.3666v.22.22c-.026.0298-.0459.0646-.0582.1025-.0124.0378-.0171.0778-.0138.1175 0 .22-.072.44-.072.5867-.1402.6128-.358 1.2044-.648 1.76-.295.5352-.6581 1.0284-1.08 1.4667l-.72.5866-1.152.7334c-.3778.2225-.7928.3717-1.224.44l-7.776 1.98-7.776 1.98h-.216c-1.1187.2803-2.2927.2295-3.384-.1467l-1.584-.8067c-.489-.3763-.9466-.7933-1.368-1.2466-.6337-.2188-1.1699-.6609-1.512-1.2467h-.504c-.324-.0033-.6434-.0784-.936-.22h-.072l-.864-.3667h-.144l-.36-.22h-.144l-.216-.1466h-.144c-.1483-.055-.2748-.1581-.36-.2934h-.144c-.072-.0733-.216-.1466-.288-.2933h-.072c-.9382-.8028-1.6573-1.8383-2.088-3.0067l-.216-.66c-.072-.1466-.072-.3666-.144-.5866 0-.22-.072-.44-.072-.7334v-.66-.22c.0602-1.2938.431-2.5527 1.08-3.6666l.144-.22c0-.0734.072-.0734.144-.1467l.144-.1467c0-.0733.072-.1466.144-.22.5981-.766 1.3305-1.4125 2.16-1.9066-1.5213-.243-2.9321-.9577-4.0402-2.0469-1.108-1.0892-1.8594-2.4999-2.1518-4.0398l-.216-.88-.576-.3667c-1.3478-.9272-2.3398-2.3002-2.808-3.8866l-.576-2.1267c-.2444-.8952-.3065-1.8318-.1827-2.7524s.431-1.8056.9027-2.6009l-.288-.9534c-.4956-1.9532-.2335-4.0258.7319-5.7874.9653-1.7616 2.5597-3.0768 4.4521-3.6726l4.464-1.2466c.0081-.418.133-.825.36-1.1734.4068-.739 1.077-1.2904 1.872-1.54l8.568-2.42h.288c.5615-.1255 1.1467-.0814 1.6839.1271.5372.2084 1.003.572 1.3401 1.0463l3.528-1.1.432-.1467c1.8754-.3916 3.8267-.051 5.4671.9542 1.6404 1.0051 2.85 2.6015 3.3889 4.4725l.216.9533c.8194.436 1.5423 1.0383 2.1243 1.7698.582.7316 1.0107 1.5768 1.2597 2.4835v.3667l.504 1.6133c.242.9077.3029 1.8555.1793 2.7876-.1237.932-.4295 1.8294-.8993 2.6391l.288.88c.2022.7898.2991 1.6038.288 2.42.2406.2292.4361.5029.576.8067z" fill="#f8f9f9"/><path d="m63.648 63.7266c-.3589.0864-.7349.0629-1.0808-.0675-.3458-.1305-.6462-.3621-.8632-.6658-.2869-.4213-.4022-.9394-.3216-1.4455.0805-.506.3507-.9605.7536-1.2678 3.24-2.42 3.816-4.2534 3.456-4.7667-.2795-.4301-.3832-.9542-.2891-1.4609.0941-.5068.3787-.9561.7931-1.2524.4109-.2807.9143-.3843 1.4-.2881s.9143.3843 1.192.8014c.936 1.32 2.376 4.9867-4.32 10.0467-.1985.193-.4493.3207-.72.3666z" fill="#4086ea"/><path d="m69.48 55.9533c-.576-4.0334-4.824-3.3734-10.656-2.2v.22c.0803.2441.2084.4692.3764.6616.1681.1923.3727.3481.6015.4577.2287.1097.4769.171.7296.1802.2527.0093.5046-.0336.7405-.1262.864-.2933 3.456-.88 4.32.3667.864 1.2466-.216 2.3466-3.456 4.7666-.4029.3073-.6731.7618-.7536 1.2679-.0806.5061.0347 1.0242.3216 1.4455.217.3037.5174.5353.8632.6657.3459.1305.7219.154 1.0808.0676.2707-.0459.5215-.1737.72-.3667 4.032-3.0066 5.112-5.5733 5.112-7.4066z" fill="#0654b5"/><path d="m40.032 74.7266c-.4384.1011-.8978.0382-1.2944-.1772s-.7038-.569-.8656-.9961c-.4897-1.3072-.472-2.7553.0497-4.0496s1.5081-2.3374 2.7583-2.9171l5.256-2.4933c.2269-.1059.4721-.1653.7216-.1747.2494-.0095.4982.0313.7323.1198.234.0885.4486.2231.6315.3961s.3306.381.4346.6121c.104.2312.1623.4809.1716.735.0092.254-.0308.5075-.1177.7458s-.2191.4569-.3889.6432c-.1699.1863-.3741.3368-.601.4427l-5.256 2.42c-.3817.1771-.6831.4952-.8435.8899-.1603.3947-.1677.8367-.0205 1.2368.1676.4774.1491 1.0021-.0518 1.466-.201.4639-.569.8316-1.0282 1.0273z" fill="#4086ea"/><path d="m44.28 67.0999c-1.944.8067-3.312 2.2-3.024 4.5467-.0025-.3393.0913-.672.2701-.9583.1789-.2862.4351-.5137.7379-.655l4.104-1.9067c-.504-.8067-1.224-1.3933-2.088-1.0267z" fill="#0654b5"/><path d="m63.864 60.6468c-.33-.5474-.8197-.9759-1.4006-1.2258-.581-.2498-1.2241-.3084-1.8394-.1676l-14.544 3.5934c-.598.1566-1.1308.5049-1.5197.9934-.389.4886-.6134 1.0915-.6403 1.7199l-.36 8.0667c-.0653 1.9712.5743 3.8996 1.8 5.4266.531.6295 1.221 1.0989 1.9952 1.3574.7741.2585 1.603.2963 2.3968.1093l15.624-3.8867c.7825-.2005 1.4969-.6132 2.0675-1.1943.5705-.581.9757-1.3087 1.1725-2.1057.4029-1.9503.0959-3.9832-.864-5.72z" fill="#ff7259"/><path d="m45.36 79.0533c.531.6295 1.2209 1.0989 1.9951 1.3574s1.6031.2963 2.3969.1093l15.624-3.8867c.7825-.2004 1.4969-.6132 2.0674-1.1942.5705-.5811.9758-1.3088 1.1726-2.1058.3033-1.4657.2037-2.9882-.288-4.4l-24.696 6.0867c.1785 1.487.7791 2.8887 1.728 4.0333z" fill="#ed4c4c"/><path d="m66.24 72.8933-19.008 4.6934c-.9455.2703-1.949.2447-2.88-.0734.288.5134.648 1.0267 1.008 1.54.531.6295 1.2209 1.0989 1.9951 1.3574s1.6031.2963 2.3969.1093l15.624-3.8867c.7824-.2005 1.4969-.6132 2.0674-1.1943.5705-.581.9758-1.3087 1.1726-2.1057.0808-.6079.1289-1.22.144-1.8333-.6898.7032-1.5653 1.1872-2.52 1.3933z" fill="#ed4c4c"/><path d="m57.166 32.1459-22.0418 6.3104c-2.8711.8219-4.5443 3.8588-3.7373 6.7831l3.7408 13.5547c.807 2.9242 3.7887 4.6285 6.6598 3.8065l22.0417-6.3104c2.8711-.822 4.5444-3.8589 3.7373-6.7831l-3.7407-13.5547c-.8071-2.9243-3.7887-4.6285-6.6598-3.8065z" fill="#ff7259"/><path d="m66.888 47.1533.648 2.3467c.1972.6982.2567 1.4292.1749 2.151-.0817.7217-.303 1.4198-.6512 2.0539-.3481.6341-.8161 1.1917-1.377 1.6405-.5608.4489-1.2035.7801-1.8907.9746l-22.032 6.3067c-.6808.1999-1.3939.2596-2.0976.1755s-1.3839-.3103-2.0007-.6654-1.1579-.8319-1.5916-1.4026-.7512-1.2237-.9341-1.9209l-.648-2.3466c.1829.6971.5004 1.3502.9341 1.9208.4337.5707.9748 1.0475 1.5916 1.4026s1.297.5813 2.0007.6655c.7037.0841 1.4168.0244 2.0976-.1756l22.104-6.3067c.6808-.2022 1.3157-.539 1.8687-.9912s1.0131-1.0109 1.3541-1.6442c.3409-.6333.5561-1.3288.6332-2.0468s.0145-1.4444-.184-2.1378z" fill="#ed4c4c"/><path d="m49.2223 56.4645 4.9906-1.4287c.2941-.0842.609-.046.8755.1063.2664.1523.4625.4062.5452.7057l.7209 2.6121-7.1393 2.044-.7209-2.6121c-.08-.2876-.0492-.5954.0861-.8607.1353-.2652.3649-.4678.6419-.5666z" fill="#ffdc53"/><path d="m55.6867 56.0933-7.1393 2.0439.6468 2.3438 7.1393-2.0439z" fill="#f9b300"/><path d="m67.032 47.5934-2.664-9.7533c.7233.2691 1.3741.7081 1.8996 1.2815.5254.5734.9106 1.265 1.1244 2.0185l.576 2.0533c.212.7552.2374 1.552.0741 2.3197-.1633.7676-.5103 1.4822-1.0101 2.0803z" fill="#ffdc53"/><path d="m67.536 41.5801.432 1.6133c.2119.7552.2374 1.552.0741 2.3197-.1633.7676-.5103 1.4822-1.0101 2.0803l-.864-3.08c1.08-.88 1.584-1.98 1.368-2.9333z" fill="#f9b300"/><path d="m34.56 56.9067-2.664-9.7534c-.4999.5981-.8469 1.3127-1.0102 2.0804-.1633.7676-.1378 1.5644.0742 2.3196l.576 2.0534c.2137.7535.5989 1.445 1.1244 2.0184.5254.5734 1.1762 1.0125 1.8996 1.2816z" fill="#ffdc53"/><path d="m33.696 53.8267.864 3.08c-.7233-.269-1.3742-.7081-1.8996-1.2815s-.9107-1.2649-1.1244-2.0185l-.432-1.6133c.216.9533 1.224 1.6133 2.592 1.8333z" fill="#f9b300"/><path d="m41.7727 34.6019 8.5949-2.4607c.239-.0684.4948-.0373.7113.0864.2165.1238.3759.33.443.5734l.2533.9178-10.3971 2.9766-.2532-.9178c-.0672-.2434-.0367-.504.0848-.7245s.324-.3828.563-.4512z" fill="#70a9fa"/><path d="m43.1032 34.1598 7.3473-2.1034c.2205-.0632.4567-.0345.6566.0797.1998.1142.3469.3046.4089.5293l.2728.9884-9.0108 2.5797-.2728-.9884c-.062-.2247-.0338-.4652.0783-.6688.1122-.2035.2991-.3533.5197-.4165z" fill="#4086ea"/><path d="m57.4387 36.51-18.8534 5.3975c-1.4546.4165-2.3024 1.9552-1.8935 3.4368l2.2893 8.2952c.4089 1.4816 1.9196 2.3451 3.3742 1.9286l18.8534-5.3975c1.4547-.4165 2.3024-1.9552 1.8936-3.4368l-2.2893-8.2952c-.4089-1.4816-1.9196-2.3451-3.3743-1.9286z" fill="#ed4c4c"/><path d="m57.2882 35.9848-18.8533 5.3976c-1.4547.4165-2.3025 1.9552-1.8936 3.4368l2.2893 8.2952c.4089 1.4816 1.9196 2.3451 3.3743 1.9286l18.8533-5.3976c1.4547-.4164 2.3025-1.9551 1.8936-3.4368l-2.2893-8.2951c-.4089-1.4817-1.9196-2.3451-3.3743-1.9287z" fill="#000"/><path d="m44.4371 45.1016-3.9509 1.1311c-.2297.0658-.3662.2993-.3048.5215.0613.2223.2972.3491.5269.2834l3.9509-1.1312c.2297-.0657.3662-.2992.3048-.5214-.0613-.2223-.2972-.3491-.5269-.2834z" fill="#fff0a6"/><path d="m54.1618 43.1506 4.2282-1.2105c.2297-.0657.3661-.2992.3048-.5215-.0613-.2222-.2973-.3491-.5269-.2833l-4.2282 1.2105c-.2297.0657-.3661.2992-.3048.5215.0613.2222.2972.3491.5269.2833z" fill="#fff0a6"/><path d="m57.024 60.1333-7.272 1.8333.216 5.3534c.0083.1227.0418.2423.0984.351.0565.1088.1348.2042.2298.2803.0949.076.2045.1309.3216.1611s.2392.035.3582.0142l7.704-1.9066c.1181-.0296.2279-.0865.3209-.1663.093-.0797.1667-.1802.2154-.2937.0488-.1135.0712-.2368.0656-.3605s-.0391-.2445-.0979-.3529z" fill="#ffdc53"/><path d="m49.032 48.0332c.5122-.8693 1.2871-1.5463 2.2086-1.9296.9215-.3834 1.9401-.4525 2.9034-.1971" stroke="#fff0a6" stroke-linecap="round" stroke-linejoin="round" stroke-width=".917356"/><path d="m46.224 77.6601c-.2034.029-.4099-.0236-.576-.1467l-1.728-1.8333c-.0675-.1124-.096-.2446-.0807-.3754.0152-.1308.0732-.2526.1647-.3458.0914-.0931.211-.1522.3394-.1677.1285-.0155.2583.0134.3686.0822l1.8 1.8334c.1013.1089.1577.2533.1577.4033s-.0564.2944-.1577.4033z" fill="#22262e"/><path d="m44.64 78.3932h-.072c-.1601.001-.3148-.0584-.4345-.1667s-.1957-.2579-.2135-.4199l-.144-2.4934c-.0011-.1437.0496-.2828.1425-.3909s.2215-.1778.3615-.1957c.0758-.0103.1527-.0051.2265.0152.0737.0204.1428.0554.2031.1032s.1106.1073.1481.1751.0614.1425.0703.2198l.144 2.4933c.008.1429-.0299.2845-.1078.4035s-.1917.2091-.3242.2565z" fill="#22262e"/><path d="m43.992 77.0733h-1.584c-.9982-.1132-1.9475-.5004-2.7464-1.1204s-1.4175-1.4494-1.7896-2.3996c-.0926-.2356-.138-.4877-.1337-.7415.0044-.2538.0584-.5042.159-.7364s.2457-.4417.4268-.616c.1811-.1744.3946-.3102.6279-.3994.4687-.1708.9839-.1519 1.4394.0528.4554.2047.8164.5795 1.0086 1.0472.1051.2948.2888.5538.5304.7481.2417.1943.5317.3162.8376.3519h.936c.2461.0185.4862.0864.7064.1998s.4163.27.5769.4608c.1606.1909.2825.4121.3589.6512.0763.239.1055.491.0858.7415-.0081.4164-.1551.8175-.4168 1.1373-.2618.3199-.6226.5395-1.0232.6227z" fill="#4086ea"/><path d="m58.752 55.6601c-.1189.0305-.2442.0217-.3578-.0253s-.2095-.1297-.2737-.2361c-.0643-.1063-.0935-.2308-.0836-.3552.01-.1245.0587-.2424.1391-.3367l1.728-1.6867c.0455-.0757.1072-.1398.1806-.1877.0733-.0478.1563-.0781.2428-.0886.0865-.0104.1742-.0008.2565.0283s.1571.0767.2186.1395c.0616.0627.1084.1388.137.2227.0285.0838.038.1731.0277.2612-.0102.0881-.04.1727-.0869.2474-.047.0747-.11.1375-.1843.1839l-1.728 1.6866z" fill="#22262e"/><path d="m60.48 53.9733h-.432l-2.16-1.0266c-.0666-.0381-.1251-.0893-.1722-.1507-.047-.0613-.0815-.1315-.1016-.2066s-.0254-.1535-.0154-.2306c.0099-.0772.0348-.1516.0732-.2188.0301-.0655.0734-.1237.1271-.171.0537-.0472.1166-.0823.1846-.1031.0679-.0208.1394-.0267.2098-.0174.0704.0094.138.0337.1985.0715l2.16 1.0267c.0728.0314.1384.0778.1928.1362s.0965.1276.1235.2033.0384.1562.0336.2366c-.0049.0803-.026.1588-.0619.2305-.0959.1082-.2212.1847-.36.22z" fill="#22262e"/><path d="m60.48 53.9733h-2.52c-.0719.0106-.1453.0052-.215-.0158-.0697-.0211-.1342-.0572-.1889-.106-.0547-.0487-.0984-.109-.1281-.1766s-.0447-.1409-.044-.2149c-.0104-.0733-.0051-.1481.0156-.2191.0206-.071.0561-.1366.1039-.1923.0479-.0558.1071-.1003.1734-.1306.0664-.0302.1384-.0455.2111-.0447h2.376c.0758-.0103.1527-.0051.2265.0153.0737.0203.1428.0554.2031.1031.0603.0478.1106.1073.1481.1751s.0614.1425.0703.2198c-.007.1304-.0517.2557-.1286.3601s-.1825.1833-.3034.2266z" fill="#22262e"/><path d="m67.608 56.2466c-.3693.1023-.7606.0869-1.1211-.0442-.3604-.1311-.6728-.3717-.8949-.6892-.864-1.2466-3.456-.66-4.32-.3666-.2359.0926-.4878.1355-.7405.1262-.2526-.0093-.5008-.0706-.7296-.1802-.2288-.1097-.4334-.2654-.6014-.4577-.1681-.1924-.2962-.4175-.3765-.6617-.1424-.477-.1029-.9911.1107-1.4397.2135-.4486.5854-.7987 1.0413-.9802 2.232-.8067 6.552-1.3934 8.712 1.7599.1497.1993.2576.4277.3171.6712s.0693.4968.0288.7442c-.0405.2475-.1304.4839-.2642.6945-.1338.2107-.3087.3911-.5137.5301-.185.1573-.4094.2589-.648.2934z" fill="#4086ea"/><path d="m37.584 72.6001c.0529.3297.1498.6504.288.9533.3721.9502.9906 1.7796 1.7896 2.3996.7989.62 1.7482 1.0072 2.7464 1.1204h1.584c.389-.0801.7411-.2889 1.0015-.5939.2605-.3051.4146-.6892.4385-1.0927-4.464.7333-7.416-1.3934-7.848-2.7867z" fill="#0654b5"/><path d="m69.048 54.4868c-1.368-2.3467-5.256-1.76-10.224-.7334v.22c.0803.2442.2084.4693.3764.6616.1681.1924.3727.3481.6015.4578.2287.1096.4769.1709.7296.1802s.5046-.0337.7405-.1262c.864-.2934 3.456-.88 4.32.3666l1.512 2.3467 2.088-2.1267z" fill="#0654b5"/><g fill="#000"><path d="m37.512 71.4999v.5133c.5366-.4447 1.204-.6935 1.8956-.7068.6917-.0133 1.3678.2097 1.9204.6335v-.2934c-.4917-.5263-1.1659-.8361-1.8787-.8635s-1.408.2298-1.9373.7169z"/><path d="m41.976 65.9268-.36.22c.5611.3849.9929.9357 1.2375 1.5781.2445.6424.2901 1.3456.1305 2.0152l.36-.22c.288-1.8333-.288-3.0067-1.368-3.5933z"/><path d="m41.832 72.8199c-.383-.0397-.7694.0256-1.1193.1891-.3499.1634-.6506.4192-.8709.7408-.2202.3216-.3521.6972-.382 1.0882-.0298.3909.0434.7828.2122 1.1352l.504.3667c-.504-1.9067.072-2.86 1.8-3.3733z"/><path d="m38.592 68.2734-.288.3666c1.512-1.0266 3.24.88 3.384 1.8334l.216-.22c-.0208-.3868-.1353-.7622-.3332-1.0929s-.4731-.6064-.801-.8025c-.328-.196-.6985-.3064-1.0785-.3211-.38-.0148-.7576.0664-1.0993.2365z"/><path d="m66.456 61.6c-.576-2.5667-1.728-2.7867-2.52-2.86l-.288.2933c2.088.44 2.52 2.86 2.52 2.86z"/><path d="m65.448 56.6867-.144.44c1.944-.0734 2.952.66 3.312 1.8333l.288-.5867c-1.08-1.6133-2.16-2.0533-3.456-1.6866z"/><path d="m62.496 50.9666h-.576c-.288 1.1-.144 2.86.864 3.74h.36c-.6919-1.1109-.9248-2.4551-.648-3.74z"/><path d="m64.944 54.9999c.6077-1.1502 1.0445-2.3858 1.296-3.6666l.504.22c-.2036 1.305-.6693 2.5532-1.368 3.6666z"/></g><path d="m169.128 23.8334c-1.008-6.38-7.56-11.2934-15.552-11.2934-6.408 0-11.952 3.2267-14.328 7.8467-1.258-.6683-2.662-1.002-4.081-.9701s-2.806.4284-4.035 1.1526c-1.228.7242-2.256 1.7527-2.99 2.99s-1.148 2.6433-1.206 4.0875c-6.696.5133-11.808 2.42-11.808 4.6933h64.872c.36-4.3266-5.688-7.7733-10.872-8.5066z" fill="#aec7ff" opacity=".2"/><path d="m162.216 65.12c.958 1.9514 1.213 4.1834.72 6.3066-.265 1.2424-.767 2.4194-1.478 3.464-.712 1.0446-1.618 1.9362-2.668 2.624-1.05.6877-2.222 1.1582-3.45 1.3845-1.228.2262-2.488.2039-3.708-.0658l-28.08-6.16c-2.465-.5598-4.613-2.0885-5.976-4.2533-1.259-2.0027-1.756-4.4048-1.398-6.7546s1.546-4.4855 3.342-6.0054c-.958-1.9515-1.213-4.1835-.72-6.3067.472-2.1541 1.648-4.0812 3.335-5.4666 1.687-1.3853 3.786-2.1468 5.953-2.1601.678-.003 1.354.0708 2.016.22l1.944.44c-.014-.3925.01-.7856.072-1.1733.576-12.3933 2.952-18.4067 7.2-18.4067h.216c2.952.1467 4.32 3.1534 4.896 5.6467.735 3.7642 1.002 7.6079.792 11.44 1.271-3.2739 2.888-6.3968 4.824-9.3133 1.944-2.7867 3.888-4.1067 5.832-4.1067.496-.0158.988.0846 1.44.2933 2.736 1.1 3.096 4.4 2.88 6.9667s-1.44 7.48-3.528 12.9067l-.432 1.0266 1.944.44c2.465.5598 4.613 2.0885 5.976 4.2534 1.259 2.0026 1.756 4.4047 1.398 6.7546-.358 2.3498-1.546 4.4855-3.342 6.0054z" fill="#f8f9f9"/><path d="m157.713 50.214-28.079-6.1833c-3.964-.873-7.873 1.6925-8.73 5.7303l-.007.0359c-.858 4.0378 1.661 8.0187 5.626 8.8917l28.079 6.1834c3.964.873 7.873-1.6926 8.73-5.7303l.008-.0359c.857-4.0378-1.662-8.0188-5.627-8.8918z" fill="#ff7abc"/><path d="m155.262 61.9621-28.079-6.1834c-3.964-.873-7.873 1.6926-8.73 5.7304l-.008.0358c-.857 4.0378 1.662 8.0188 5.627 8.8918l28.079 6.1834c3.964.873 7.873-1.6926 8.73-5.7304l.008-.0358c.857-4.0378-1.662-8.0188-5.627-8.8918z" fill="#ff7abc"/><path d="m148.849 60.692c.403-.791.271-1.6741-.293-1.9723-.565-.2982-1.35.1013-1.752.8924-.403.7911-.271 1.6741.294 1.9723.564.2982 1.349-.1013 1.751-.8924z" fill="#1b1926"/><path d="m134.673 58.8198c.636-.0339 1.114-.7828 1.068-1.6726s-.598-1.5836-1.233-1.5497c-.636.0339-1.114.7828-1.068 1.6726s.598 1.5836 1.233 1.5497z" fill="#1b1926"/><path d="m154.584 45.7603c-4.248 11-6.552 11.5133-8.784 10.6333s-3.528-2.86.72-13.86 7.776-14.5933 10.008-13.7133 2.376 6.0133-1.944 16.94z" fill="#ff7abc"/><path d="m134.28 41.2869c-.576 11.8067 1.296 13.2733 3.672 13.3467 2.376.0733 4.464-1.1 5.04-12.9067s-1.152-16.5733-3.528-16.6467c-2.376-.0733-4.608 4.4-5.184 16.2067z" fill="#ff7abc"/><path d="m137.88 61.9668v.22c.202.4513.506.8476.887 1.1567s.828.5224 1.305.6224c.477.1001.971.084 1.44-.0467.47-.1307.903-.3725 1.264-.7057l.144-.1467" stroke="#1b1926" stroke-linecap="round" stroke-linejoin="round" stroke-width="2.00523"/><path d="m157.536 50.2334-4.392-.9534c.504-1.0266.936-2.2 1.44-3.52 4.32-10.9266 4.176-16.06 1.944-16.94s-5.688 2.7134-10.008 13.7134c-.72 1.9066-1.296 3.52-1.728 4.9133l10.872 6.38c.888.5381 1.573 1.3646 1.944 2.3467.399 1.0066.438 2.1242.108 3.1568-.329 1.0325-1.004 1.914-1.908 2.4898l-3.456 2.2 1.224 2.5667c.785 1.6442 1.06 3.4924.79 5.2996-.27 1.8073-1.073 3.4883-2.302 4.8204 1.515.3498 3.1.2013 4.527-.4241 1.426-.6254 2.622-1.6955 3.414-3.0564.792-1.361 1.14-2.9427.994-4.5178-.146-1.5752-.779-3.0625-1.807-4.2484 1.406-.6758 2.569-1.7849 3.322-3.1703.754-1.3855 1.061-2.9772.878-4.5501-.183-1.573-.847-3.0474-1.898-4.215-1.051-1.1675-2.435-1.9691-3.958-2.2912z" fill="#f763be"/><path d="m142.56 46.9334c.144-1.4667.288-3.1533.432-5.2067.576-11.8066-1.152-16.5733-3.528-16.6466-4.176 6.9666-3.888 20.3866-3.888 20.3866l4.104 5.94c.137.214.317.3963.528.5352.211.139.448.2314.696.2715.314.0742.643.0644.952-.0286.31-.093.591-.266.815-.5022.225-.2361.386-.5275.467-.8456.082-.3182.081-.6525-.002-.9703z" fill="#f763be"/><path d="m126.864 32.34-1.008 2.2c.218.3848.365.8075.432 1.2467l.216 3.4466c.026.3573-.018.7162-.13 1.056-.111.3399-.287.6539-.518.9241v.88c.028.3985-.035.7982-.185 1.1674-.15.3693-.382.6977-.679.9592l.288 3.3.36 4.4c.124 1.7016-.396 3.387-1.454 4.71s-2.573 2.1831-4.234 2.4034h-.72l.144 2.4933c.083 1.0827-.243 2.1568-.913 3.0022-.669.8454-1.63 1.398-2.687 1.5444h-.216c-.553.0674-1.113.0175-1.646-.1466-.533-.164-1.027-.4387-1.45-.8067-.422-.3648-.767-.8127-1.014-1.3168-.248-.5041-.393-1.054-.426-1.6165l-.432-5.2067v-.2933l-2.376.1467c-.487.9373-1.184 1.7445-2.035 2.3561-.85.6116-1.831 1.0104-2.861 1.1639h-.792l.216 2.4199c.082 1.094-.255 2.1778-.939 3.025-.684.8473-1.663 1.3925-2.733 1.5217h-.216c-1.1113.0622-2.2034-.3149-3.0484-1.0526-.8451-.7378-1.378-1.7793-1.4876-2.9074v-1.0266c-2.1791.2808-4.3871.2313-6.552-.1467l-6.768 7.7c-.5095.6153-1.2308 1.0088-2.016 1.1h-.792c-1.44-.22-3.672-.9533-6.048-3.6667-2.376-2.7133-3.024-5.06-3.024-6.5266v-.5134c-1.4032-1.4223-2.4203-3.191-2.952-5.1333-1.08-3.52-.648-5.8667-.072-7.1867.2044-.5044.5285-.9493.9431-1.2948.4147-.3455.907-.581 1.4329-.6852l.864-.1466c-.8821-2.967-1.1998-6.0783-.936-9.1667-.3511-.4982-.5739-1.0781-.648-1.6867-.0118-.3682.0124-.7366.072-1.1l.432-1.98-12.888-3.6666c-2.8442-.7926-5.2881-2.6529-6.84-5.2067l-5.904-9.7534h-.216c-.9962-.2725-1.8487-.9303-2.376-1.8333l-1.872-3.37332c-.2376-.37003-.3773-.7963-.4056-1.23748-.0282-.44119.0558-.88234.2442-1.2807.1883-.39835.4744-.74041.8307-.99302.3562-.25261.7705-.4072 1.2027-.4488.3348-.0883.6889-.06255 1.008.07334l11.592 3.22666-.288-.44c-.2368-.37986-.3743-.81506-.3995-1.26427s.0628-.89753.2555-1.30239c.2035-.38523.4911-.71777.8406-.97203.3495-.25427.7516-.42349 1.1754-.49464h1.08l32.328 9.16665c.4017-.4624.8916-.8367 1.44-1.1l.864-.22c.6323-.0755 1.2732-.0002 1.872.22 3.6108-3.24417 8.1064-5.29062 12.888-5.86665l1.584-.14667c1.268-.1336 2.544-.15813 3.816-.07333.2-.38861.469-.73658.792-1.02667.326-.22183.694-.37172 1.08-.44h.792l.504.14667c2.376.58667 4.464 1.1 6.192 2.2h.072c.359.24194.656.56907.864.95333l.576 1.39334c1.843.99117 3.462 2.36518 4.752 4.03338 2.051 2.9035 3.249 6.3417 3.453 9.9128s-.594 7.1275-2.301 10.2538z" fill="#f8f9f9"/><path d="m92.1599 19.7268-33.84-9.6067 6.336 10.56c1.2515 2.0368 3.2019 3.5267 5.472 4.18l26.928 7.6267.72-2.64z" fill="#dae2ed"/><path d="m99.576 17.9668-44.928-12.68666c-.0623-.00542-.1249.00577-.1816.03246-.0568.02669-.1057.06796-.142.11975-.0363.0518-.0588.11233-.0652.17565s.0035.12724.0288.18547l1.944 3.3c.0997.17994.234.3376.3948.46359.1608.12598.3448.21772.5412.26975l1.152.29329 33.84 9.6067 5.616 10.12-.72 2.64-.504 1.9067 11.304 3.2266 1.224-4.5466-7.488-13.4934c-.207-.3971-.493-.7458-.841-1.0236-.347-.2779-.747-.4787-1.175-.5897z" fill="#eceff6"/><path d="m97.7759 29.8468-5.616-10.12-33.84-9.6067 1.296 2.1267 31.464 8.8733 5.184 9.46-.36 1.54 1.152.3667z" fill="#c5cedd"/><path d="m93.2191 60.1747c11.6199-.8691 20.3479-11.1678 19.4939-23.0026-.853-11.8349-10.964-20.7245-22.584-19.8554-11.6197.8691-20.3476 11.1678-19.4943 23.0026.8533 11.8349 10.9647 20.7245 22.5844 19.8554z" fill="#4f5d7f"/><path d="m92.6759 52.6415c7.5351-.5636 13.1951-7.2419 12.6411-14.9164-.553-7.6745-7.1099-13.439-14.6449-12.8754-7.5349.5635-13.1947 7.2418-12.6413 14.9163.5533 7.6745 7.1102 13.4391 14.6451 12.8755z" fill="#7687b2"/><path d="m104.4 20.68c.288 3.2266-7.56 11.88-12.744 16.7933-5.112.44-17.856.88-21.096-1.8333-.1475-.0944-.2703-.2238-.3581-.377-.0877-.1532-.1378-.3258-.1459-.503v-.44c.5857-3.1577 1.8348-6.1491 3.6616-8.7693 1.8268-2.6201 4.1882-4.8069 6.9224-6.4107 6.984-4.1067 15.696-3.8134 23.328.8066.138.0609.254.1644.332.2959.077.1316.112.2846.1.4375z" fill="#ff7f14"/><path d="m92.088 38.5s-21.168-10.7067-19.296-13.42c1.9201-2.8202 4.4278-5.174 7.344-6.8933 7.848-4.62 17.064-3.5934 24.408.8066 5.184 3.1534-12.456 19.5067-12.456 19.5067z" fill="#ff903e"/><path d="m92.5231 50.5207c6.3848-.4776 11.1809-6.1366 10.7119-12.6397s-6.025-11.3878-12.4099-10.9103c-6.3849.4776-11.1808 6.1366-10.7119 12.6397s6.025 11.3878 12.4099 10.9103z" fill="#ebeff7"/><path d="m92.3859 48.6192c5.3538-.4005 9.3751-5.1456 8.9821-10.5985s-5.0521-9.5488-10.4059-9.1483c-5.3537.4004-9.3751 5.1455-8.982 10.5984.3932 5.453 5.052 9.5488 10.4058 9.1484z" fill="#dae2ed"/><path d="m85.536 34.9799 5.04-3.6667c.1603-.1014.3427-.1611.531-.1739s.3768.0218.549.1006l5.616 2.64c.1534.0947.2846.2226.3841.3747.0996.1521.165.3246.1919.5053l.576 6.2333c.0113.1936-.0218.3872-.0968.5654s-.1898.3362-.3352.4613l-5.04 3.5933c-.1604.1014-.3427.1611-.5311.1739-.1883.0128-.3768-.0217-.5489-.1005l-5.616-2.64c-.1767-.0633-.3284-.1834-.4323-.3421s-.1543-.3475-.1437-.5379l-.576-6.2334c-.0057-.1821.0304-.3631.1054-.5286s.1868-.3109.3266-.4247z" fill="#c5cedd"/><path d="m91.656 42.1668c1.8689 0 3.384-1.5432 3.384-3.4467s-1.5151-3.4467-3.384-3.4467c-1.869 0-3.384 1.5432-3.384 3.4467s1.515 3.4467 3.384 3.4467z" fill="#b7c2ce"/><path d="m122.328 35.7869-3.672.2933c.072 1.32.144 2.7133.288 4.1067l3.6-.2934c-.142-1.3641-.214-2.7349-.216-4.1066z" fill="#80a7ff"/><path d="m121.68 44.8069-15.48 1.2467c-.084.0017-.166-.0267-.232-.0803s-.111-.129-.128-.213c-.072-.22.072-.3667.288-.3667l15.48-1.2467c.216-.0733.36-.22.36-.3666l-.216-2.5667c.016-.0801.05-.1551.1-.2188.051-.0638.115-.1145.188-.1479.095 0 .187.0387.255.1074.067.0688.105.162.105.2593l.216 2.4933c.01.1349-.007.2705-.048.3988-.042.1284-.109.2472-.196.3494-.086.1022-.192.1859-.311.2463s-.248.0962-.381.1055z" fill="#e4e9f7"/><path d="m122.688 34.7255-2.225.1783c-.198.0159-.346.1925-.331.3944l.555 7.1718c.015.2019.189.3526.387.3367l2.225-.1783c.198-.0159.346-.1925.331-.3943l-.555-7.1718c-.015-.2019-.189-.3527-.387-.3368z" fill="#000"/><path d="m122.256 35.7869 1.368-.1467c.084-.0017.166.0267.232.0803s.111.129.128.213l.216 3.4467c.072.22-.072.3667-.288.3667l-1.224.1466c-.488.0392-.975-.0919-1.381-.3718-.405-.2798-.706-.6917-.851-1.1682-.075-.2911-.086-.5954-.032-.8914.054-.2959.17-.5762.342-.8211s.394-.4483.652-.5959c.257-.1476.543-.2358.838-.2582z" fill="#80a7ff"/><path d="m119.52 56.7601-1.872.1467c-.217.0481-.411.1676-.555.3399-.143.1723-.226.3879-.237.6134l.36 3.8867c.02.2602-.011.5217-.091.7696s-.208.4773-.375.6749-.371.3596-.6.4767-.478.1869-.734.2055c-.512.0215-1.012-.1559-1.4-.4964s-.634-.8185-.688-1.337l-.36-5.1333-.864-11.5133v.2933c-.023-.5679.164-1.1237.524-1.5581s.867-.7157 1.42-.7886l6.48-.5133c.28-.0302.563-.0025.832.0816.27.0841.519.2228.735.4078.215.185.391.4124.518.6686.127.2561.201.5357.219.822l.576 7.3333c.049.5647-.013 1.1337-.183 1.6736s-.444 1.0397-.806 1.4701c-.362.4305-.805.7828-1.303 1.0363-.498.2536-1.041.4031-1.596.44z" fill="#80a7ff"/><path d="m115.125 35.3278-2.225.1783c-.199.0159-.347.1925-.331.3943l.554 7.1719c.016.2019.189.3526.387.3367l2.225-.1783c.199-.0159.347-.1924.331-.3943l-.554-7.1719c-.016-.2018-.189-.3526-.387-.3367z" fill="#000"/><path d="m114.48 41.8.216 2.5667c-.013.1781-.084.3466-.201.4793-.117.1328-.275.2221-.447.2541l-15.48 1.1733" stroke="#2f3849" stroke-miterlimit="10" stroke-width="3.08771"/><path d="m120.456 37.4736c-.953-1.1267-2.154-2.0067-3.506-2.5677s-2.816-.7868-4.27-.659l-10.44.8067-2.088.1467c-1.4839.131-2.8581.8496-3.8274 2.0014-.9694 1.1518-1.4564 2.6449-1.3566 4.1586l.792 10.4133c.0364.5013.1698.9903.3924 1.439.2226.4486.5301.8479.9049 1.1751.3747.3271.8092.5756 1.2785.731.4694.1555.9642.2149 1.4562.1749l3.24-.2933 14.904-1.1734c.735-.0552 1.453-.2593 2.11-.6004.657-.341 1.24-.8122 1.716-1.3858.477-.5737.835-1.2383 1.056-1.955.221-.7166.299-1.471.23-2.2188l-.36-4.6933c-.128-2.0339-.913-3.9675-2.232-5.5z" fill="#9cb8ff"/><path d="m103.896 34.907-3.744.2933c-1.4839.131-2.8581.8496-3.8274 2.0015-.9694 1.1518-1.4564 2.6449-1.3566 4.1585l.72 9.0933c.036.4985.1697.9845.3933 1.4295.2235.4449.5323.8397.9082 1.161s.8112.5626 1.2801.7097c.469.147.9622.1969 1.4504.1465l5.616-.44c-.576-6.16-1.008-12.32-1.44-18.5533z" fill="#80a7ff"/><path d="m102.816 58.1534-1.8.1467c-.11-.0005-.22.0226-.321.0676-.101.0451-.192.1111-.266.194-.075.0828-.131.1806-.167.2871-.035.1065-.048.2194-.038.3313l.288 3.8867c.04.5138-.117 1.0235-.44 1.4206-.3228.3971-.7848.6504-1.288.706-.5045.0412-1.0049-.1196-1.3948-.4483-.3899-.3286-.6386-.7992-.6932-1.3117l-.432-5.2066-1.08-14.5934v.3667c-.0297-.2852-.0024-.5736.0802-.8479.0825-.2742.2187-.5286.4003-.7478s.4049-.3988.6564-.5278c.2515-.1291.526-.205.8071-.2232l6.552-.5133c.276-.0305.556-.0024.821.0825.265.0848.51.2246.72.4105.21.186.379.414.498.6699s.185.5341.193.8171l.864 10.34c.08 1.1558-.292 2.2968-1.033 3.1755s-1.793 1.4241-2.927 1.5178z" fill="#80a7ff"/><path d="m114.12 45.3935-15.552 1.2467c-.144 0-.36-.1467-.36-.2933-.0017-.0858.0262-.1695.0788-.2365s.1266-.1131.2092-.1302l15.552-1.2467c.082-.0171.157-.0632.209-.1302.053-.067.081-.1506.079-.2364l-.216-2.4934c0-.0972.038-.1905.105-.2592.068-.0688.159-.1074.255-.1074.144-.0734.288.0733.36.2933l.144 2.4933c.02.131.014.2648-.02.3929-.033.1282-.092.2478-.174.3513-.081.1036-.183.1887-.298.2499-.115.0613-.242.0974-.372.1059z" fill="#e4e9f7"/><path d="m115.125 35.3278-2.225.1783c-.199.0159-.347.1925-.331.3943l.554 7.1719c.016.2019.189.3526.387.3367l2.225-.1783c.199-.0159.347-.1924.331-.3943l-.554-7.1719c-.016-.2018-.189-.3526-.387-.3367z" fill="#000"/><path d="m115.344 36.3002-7.56.5866c-.293.0304-.59.0012-.872-.0858s-.545-.2301-.772-.421c-.228-.191-.416-.4259-.554-.6914-.138-.2654-.223-.556-.25-.8551l-4.752.3667.792 9.9733 4.68-.3667c.288-2.5666 2.304-3.8133 4.968-4.0333l4.536-.3667c.535-.0291 1.036-.2735 1.394-.6792s.543-.9395.514-1.4841-.269-1.0553-.667-1.4197c-.398-.3645-.922-.5528-1.457-.5236z" fill="#80a7ff"/><path d="m92.952 49.3535-3.816 1.54c-.5309.1969-.989.5564-1.3113 1.0291s-.493 1.0355-.4887 1.6109c-.0048.4157.0793.8274.2466 1.2066.1673.3791.4138.7166.7222.9888s.6714.4727 1.0636.5875c.3923.1148.8044.1411 1.2076.0771.566-.0939 1.0902-.3621 1.5021-.7685.4119-.4065.6917-.9316.8019-1.5048l.864-4.1067c.0219-.1052.0149-.2146-.0202-.3161-.035-.1015-.0968-.1912-.1786-.2594-.0817-.0681-.1803-.112-.2849-.1269-.1047-.0149-.2113-.0002-.3083.0424z" fill="#80a7ff"/><path d="m96.9292 42.6234-12.6418 4.035 1.5007 4.8775 12.6418-4.0351z" fill="#b7c2ce"/><path d="m87.984 52.2134-15.696 6.9667c-.3113.0827-.6408.0569-.936-.0734-.72-.5133-2.088-1.6866-3.024-4.6933s-.432-4.7667-.144-5.5733c.0739-.143.176-.269.2999-.3699.1239-.101.2669-.1748.4201-.2168l16.776-3.4467c.1623-.0458.3357-.0255.4835.0566.1479.0821.2585.2197.3085.3834l1.872 6.16c.0489.156.0392.325-.0273.4741-.0666.149-.1851.2676-.3327.3326z" fill="#c5cedd"/><path d="m82.368 48.9134c.4374 0 .792-.3612.792-.8067s-.3546-.8067-.792-.8067-.792.3612-.792.8067.3546.8067.792.8067z" fill="#b7c2ce"/><path d="m78.696 49.7933c.4374 0 .792-.3612.792-.8067s-.3546-.8067-.792-.8067-.792.3612-.792.8067.3546.8067.792.8067z" fill="#b7c2ce"/><path d="m94.7927 42.7648-9.7453 9.0318 3.3774 3.7805 9.7454-9.0318z" fill="#d0d9ea"/><path d="m90.72 55.3668-11.376 12.98c-.2331.2275-.5412.3583-.864.3666-.864-.1466-2.592-.66-4.68-3.0066-2.088-2.3467-2.376-4.1067-2.448-4.9867.0055-.1594.0475-.3153.1224-.4553.075-.14.181-.2603.3096-.3514l13.824-10.34c.1275-.0986.2863-.1457.4458-.1322.1595.0136.3085.0868.4182.2056l4.248 4.7666c.0994.1383.153.3053.153.4767s-.0536.3384-.153.4767z" fill="#ebeff7"/><path d="m83.952 54.8533c.4374 0 .792-.3611.792-.8066 0-.4456-.3546-.8067-.792-.8067s-.792.3611-.792.8067c0 .4455.3546.8066.792.8066z" fill="#b7c2ce"/><path d="m81.216 57.5667c.4374 0 .792-.3612.792-.8067s-.3546-.8066-.792-.8066-.792.3611-.792.8066.3546.8067.792.8067z" fill="#b7c2ce"/><path d="m97.7874 35.5652 17.2986-1.3867c3.092-.2478 5.401-3.0018 5.158-6.1511l-.817-10.5713c-.243-3.1494-2.947-5.5015-6.039-5.2536l-17.2987 1.3866c-3.0921.2479-5.4014 3.0018-5.1581 6.1512l.8169 10.5713c.2433 3.1493 2.9472 5.5014 6.0393 5.2536z" fill="#80a7ff"/><path d="m101.349 35.271 17.299-1.3867c3.092-.2478 5.401-3.0018 5.158-6.1511l-.817-10.5713c-.243-3.1494-2.947-5.5015-6.039-5.2536l-17.2988 1.3866c-3.0921.2479-5.4014 3.0018-5.158 6.1512l.8168 10.5713c.2434 3.1493 2.9473 5.5014 6.039 5.2536z" fill="#9cb8ff"/><path d="m97.1035 28.5737-4.104.3344c-.993.0809-1.9768-.2432-2.7351-.9012-.7583-.6579-1.229-1.5957-1.3084-2.607l-.2074-2.64c-.0794-1.0114.2389-2.0135.8848-2.7858.646-.7724 1.5667-1.2517 2.5597-1.3326l4.104-.3344z" fill="#9cb8ff"/><path d="m96.7875 20.5381.4406 5.7024c.0075.097-.0231.193-.0852.2669-.062.074-.1503.1198-.2455.1274l-3.7324.2992c-.495.0397-.9851-.1225-1.3627-.4509-.3775-.3285-.6115-.7962-.6504-1.3003l-.2034-2.6318c-.0389-.5042.1203-1.0034.4428-1.3879.3224-.3845.7816-.6229 1.2766-.6625l3.7324-.2992c.0952-.0077.1895.0235.2621.0867s.1176.1531.1251.25z" fill="#80a7ff"/><path d="m117.936 30.5068h1.512c.159-.0457.3-.141.404-.2725.103-.1315.163-.2927.172-.4609-.035-.162-.128-.3048-.262-.3999-.133-.0952-.297-.1356-.458-.1134h-1.512c-.149.0411-.282.1254-.385.2426-.102.1172-.168.2623-.191.4174.009.0869.035.1711.076.2478.041.0766.097.1442.164.1988.067.0545.144.095.226.1191.082.024.169.0312.254.021z" fill="#80a7ff"/><path d="m123.192 17.16-2.232.1467-7.848.66-2.664.1467c-.294.0275-.579.114-.84.2545-.26.1405-.491.3322-.678.5641-.188.2318-.328.4992-.414.7866-.085.2875-.114.5893-.084.8881l.144 2.64c.146 1.5042.857 2.8928 1.983 3.8765 1.127.9837 2.583 1.4864 4.065 1.4035l2.664-.22h1.08l2.232-.22c1.478-.1127 2.852-.8157 3.823-1.9558s1.46-2.6249 1.361-4.1309l-.216-2.7133c-.008-.3022-.078-.5993-.204-.873-.126-.2736-.306-.5178-.529-.7173-.223-.1996-.484-.3502-.767-.4425-.282-.0922-.581-.1242-.876-.0939z" fill="#b8d0ff"/><path d="m120.618 28.0191-3.373.2704c-.736.059-1.475-.0302-2.177-.2623-.701-.2321-1.351-.6027-1.911-1.0905-.561-.4879-1.022-1.0834-1.357-1.7527s-.537-1.3992-.595-2.1481l-.203-2.6318c-.023-.2976.012-.597.102-.8809.091-.2839.235-.5469.426-.7739.19-.227.423-.4136.684-.5491.261-.1356.546-.2174.838-.2408l10.121-.8113c.292-.0234.586.012.864.1043.279.0922.537.2395.76.4334s.406.4306.539.6966.214.5561.237.8537l.203 2.6318c.117 1.5124-.361 3.0101-1.328 4.1637-.967 1.1535-2.345 1.8685-3.83 1.9875z" fill="#cbdaf7"/><path d="m118.44 23.9068h-2.448c-.242.0356-.462.1592-.621.348-.159.1889-.246.43-.243.6787.009.1253.042.2476.098.3597.056.1122.133.212.226.2938.094.0818.203.1439.32.1828s.241.0537.364.0437h2.448c.123-.0093.243-.0432.353-.0999s.208-.135.289-.2304c.08-.0954.141-.2061.179-.3256s.053-.2455.043-.3708c-.009-.1253-.042-.2475-.098-.3597s-.133-.212-.226-.2938c-.094-.0818-.203-.1439-.32-.1827-.117-.0389-.241-.0538-.364-.0438z" fill="#9cb8ff"/><path d="m122.832 23.5401h-.936c-.123.0093-.243.0433-.353.0999-.11.0567-.208.135-.289.2305-.08.0954-.141.206-.179.3255s-.053.2455-.043.3708c.009.1253.042.2476.098.3597.056.1122.133.212.226.2938.094.0818.203.1439.32.1828s.241.0537.364.0437h.936c.123-.0093.243-.0432.353-.0999s.208-.135.289-.2304c.08-.0954.141-.2061.179-.3256s.053-.2455.043-.3708c-.009-.1253-.042-.2475-.098-.3597s-.133-.212-.226-.2938c-.094-.0818-.203-.1439-.32-.1827-.117-.0389-.241-.0538-.364-.0438z" fill="#9cb8ff"/><path d="m101.674 22.9566c.08 1.0376.964 1.8131 1.975 1.7321s1.765-.9879 1.685-2.0256c-.08-1.0376-.964-1.8131-1.975-1.7321s-1.766.9879-1.685 2.0256z" fill="#000"/><path d="m123.912 13.6401c1.748 2.5684 2.762 5.5809 2.927 8.7016s-.524 6.2268-1.991 8.9718l-3.096 2.2-21.24.7333-5.688-6.5267 4.104-14.3733 18.072-1.4667z" fill="#4871e5" opacity=".5"/><path d="m106.416 7.26005c-12.312 1.02667-18.432 9.97335-17.856 17.01335s8.64 6.9666 10.152 1.9066l3.168-11.0733 17.784.9533 4.248-2.42c-1.872-2.6399-8.352-7.11328-17.496-6.37995z" fill="#ebeff7"/><path d="m97.488 27.5 11.592 5.06 15.768-1.2466-1.368 2.7133-29.592 2.3467-4.176-9.0934z" fill="#ebeff7"/><path d="m112.248 5.79346-.144 2.05333c1.762 1.22724 3.338 2.70951 4.68 4.40001l1.512-4.40001c-1.584-.95333-3.6-1.46667-6.048-2.05333z" fill="#ff7f14"/><path d="m116.784 12.2467 1.512-4.40002 1.872 4.10662z" fill="#ff903e"/><path d="m94.248 19.5068-3.168 1.32-1.944-5.8666c-.0968-.3311-.0694-.6871.077-.9987.1463-.3117.4011-.5569.715-.688.1558-.0735.3244-.1147.496-.1212s.3427.0217.5035.0831.308.1548.433.2746c.1251.1198.2255.2638.2955.4235z" fill="#dae2ed"/><path d="m89.7839 17.0136 1.296 3.8133 3.168-1.32-1.656-3.5933z" fill="#b7c2ce"/><path d="m99.6071 25.4273c.1683-3.9249-2.3039-7.2226-5.5218-7.3657-3.2178-.1431-5.9628 2.9226-6.1311 6.8475-.1682 3.9248 2.304 7.2225 5.5218 7.3656 3.2179.1431 5.9629-2.9226 6.1311-6.8474z" fill="#dae2ed"/><path d="m97.2013 25.4296c.1196-2.7919-1.6512-5.1382-3.9554-5.2407-2.3041-.1024-4.269 2.0778-4.3887 4.8697s1.6512 5.1382 3.9553 5.2407c2.3042.1025 4.2691-2.0778 4.3888-4.8697z" fill="#b7c2ce"/><path d="m95.8282 25.375c.0849-1.9826-1.1666-3.6486-2.7953-3.721-1.6288-.0725-3.0181 1.4761-3.1031 3.4587-.085 1.9827 1.1665 3.6487 2.7953 3.7211s3.0181-1.4761 3.1031-3.4588z" fill="#ff903e"/><path d="m93.655 23.2357-.343-.1114c-.1136-.037-.2351.0269-.2714.1427l-1.0551 3.3673c-.0363.1157.0264.2395.1401.2765l.3429.1115c.1137.0369.2352-.027.2715-.1427l1.0551-3.3674c.0363-.1157-.0265-.2395-.1401-.2765z" fill="#ff7f14"/><path d="m77.904 20.8268-33.768-9.5333 6.336 10.4866c1.2273 2.0742 3.1838 3.595 5.472 4.2534l26.928 7.5533.72-2.5667z" fill="#dae2ed"/><path d="m85.392 19.1402-44.928-12.75996c-.0623-.00542-.1249.00577-.1816.03246s-.1057.06796-.142.11975c-.0363.0518-.0588.11233-.0652.17565-.0063.06331.0036.12723.0288.18547l1.944 3.30003c.2222.3613.5493.6432.936.8066l1.152.2934 33.768 9.5333 5.688 10.1933-.72 2.5667-.504 1.98 11.304 3.2267 1.224-4.5467-7.488-13.5667c-.4465-.7638-1.171-1.3172-2.016-1.54z" fill="#eceff6"/><path d="m83.592 31.0201-5.688-10.1933-33.768-9.5333 1.224 2.1266 31.464 8.8734 5.256 9.46-.432 1.54 1.224.2933z" fill="#c5cedd"/><path d="m44.5355 9.44578c.0956-.35125-.1064-.71496-.4513-.81237s-.702.10837-.7976.45962l-.0077.02826c-.0956.35126.1064.71497.4513.81238.3448.09743.7019-.10837.7976-.45962z" fill="#dae2ed"/><path d="m47.0973 10.3118c.0967-.34995-.1035-.71341-.4471-.81182-.3435-.09842-.7004.10547-.797.4554l-.0078.02816c-.0966.34996.1036.71336.4471.81176.3436.0985.7004-.1054.7971-.4554z" fill="#dae2ed"/><path d="m85.909 21.1506c.0956-.3512-.1064-.7149-.4513-.8124-.3448-.0974-.7019.1084-.7976.4597l-.0077.0282c-.0956.3513.1064.715.4513.8124s.702-.1084.7976-.4596z" fill="#dae2ed"/><path d="m93.2369 35.7336 5.8858-.4718.9883 12.7938c.035.446-.106.8876-.3913 1.2278-.2853.3401-.6915.5509-1.1293.586l-4.2349.3395z" fill="#000"/><path d="m96.492 32.7245-6.819.5466c-.5946.0477-1.0387.5773-.9919 1.1829l.2859 3.6993c.0468.6056.5667 1.0579 1.1614 1.0103l6.8189-.5466c.5946-.0477 1.0387-.5773.9919-1.1829l-.2858-3.6993c-.0468-.6056-.5668-1.0579-1.1614-1.0103z" fill="#ff5c5c"/><path d="m99.576 40.2601-5.4.44c-.3463.03-.695-.0113-1.0253-.1213-.3303-.1101-.6356-.2867-.8975-.5193-.262-.2326-.4754-.5165-.6274-.8348-.1521-.3183-.2398-.6644-.2578-1.0179l-.36-4.2534c-.0399-.708.194-1.4037.6516-1.9382.4575-.5346 1.1023-.8654 1.7964-.9218l5.4-.44c.123-.01.2467.0049.364.0437.1173.0389.226.101.3197.1828.0936.0818.1705.1816.2262.2938.0556.1121.089.2344.0981.3597l.648 7.6267c.01.1349-.007.2704-.048.3988-.042.1284-.109.2471-.196.3493-.087.1023-.192.186-.3113.2463-.1189.0604-.2482.0963-.3807.1056z" fill="#d0d9ea"/><path d="m140.976 6.30681 2.448-.88c.153 0 .299-.0618.407-.17183.108-.11002.169-.25924.169-.41483 0-.1556-.061-.30482-.169-.41484s-.254-.17183-.407-.17183l-2.448-.88c-.102-.03151-.195-.08814-.27-.16489s-.131-.17124-.162-.27511l-.864-2.493333c-.044-.129427-.127-.241625-.237-.321021-.109-.0793973-.24-.12205569-.375-.12205569s-.266.04265839-.375.12205569c-.11.079396-.193.191594-.237.321021l-.864 2.493333c-.028.09419-.074.18169-.136.25728s-.138.13773-.224.18272l-2.448.88c-.153 0-.299.06181-.407.17183s-.169.25924-.169.41484c0 .15559.061.30481.169.41483.108.11003.254.17183.407.17183l2.448.88c.086.04499.162.10714.224.18273s.108.16309.136.25727l.864 2.49334c.044.12943.127.24162.237.32102.109.0794.24.12205.375.12205s.266-.04265.375-.12205c.11-.0794.193-.19159.237-.32102l.864-2.49334c.031-.10386.087-.19835.162-.2751s.168-.13339.27-.1649z" fill="#f3b2cf"/><path d="m31.824 15.9134-.72 1.3933v.2933c.0045.0566.0303.1091.072.1467l.216.1467h.216l1.44-.66h.288l1.368.66h.288l.144-.1467.144-.22c.0033-.0397-.0014-.0797-.0138-.1175-.0123-.0379-.0321-.0727-.0582-.1025l-.648-1.3933c0-.0734-.072-.0734-.072-.1467s.072-.1467.072-.22l.648-1.3933c.0261-.0298.0459-.0646.0582-.1025.0124-.0378.0171-.0778.0138-.1175l-.144-.22h-.432l-1.368.66h-.36l-1.368-.66h-.432c-.0261.0297-.0459.0646-.0583.1024-.0123.0379-.017.0778-.0137.1176v.22l.648 1.3933c.026.0298.0459.0646.0582.1025.0124.0378.0171.0778.0138.1175z" fill="#ffd01a"/><path d="m107.698 77.6292c-.507-.5155-1.316-.5271-1.808-.0259s-.48 1.3253.026 1.8408l.865.8816c.506.5154 1.315.5271 1.808.0259.492-.5012.48-1.3254-.026-1.8409z" fill="#83ddc5"/><path d="m114.928 84.9627c-.506-.5155-1.315-.5271-1.807-.0259s-.481 1.3253.025 1.8408l.866.8815c.506.5155 1.315.5271 1.807.026.492-.5012.481-1.3254-.026-1.8409z" fill="#83ddc5"/><path d="m115.785 79.3843c.507-.5155.518-1.3397.026-1.8409-.492-.5011-1.301-.4895-1.807.026l-.866.8815c-.506.5155-.518 1.3397-.025 1.8408.492.5012 1.301.4896 1.807-.0259z" fill="#83ddc5"/><path d="m108.555 86.7175c.506-.5155.518-1.3396.026-1.8408-.493-.5012-1.302-.4896-1.808.0259l-.865.8816c-.506.5154-.518 1.3396-.026 1.8408s1.301.4896 1.808-.0259z" fill="#83ddc5"/><path d="m21.024 41.7267c0-.6075-.4835-1.1-1.08-1.1s-1.08.4925-1.08 1.1v2.046c0 .6075.4835 1.1 1.08 1.1s1.08-.4925 1.08-1.1z" fill="#9cb8ff"/><path d="m21.024 49.7201c0-.6075-.4835-1.1-1.08-1.1s-1.08.4925-1.08 1.1v2.046c0 .6075.4835 1.1 1.08 1.1s1.08-.4925 1.08-1.1z" fill="#9cb8ff"/><path d="m24.84 47.8135c.5965 0 1.08-.4925 1.08-1.1s-.4835-1.1-1.08-1.1h-2.0088c-.5965 0-1.08.4925-1.08 1.1s.4835 1.1 1.08 1.1z" fill="#9cb8ff"/><path d="m16.992 47.8868c.5965 0 1.08-.4925 1.08-1.1s-.4835-1.1-1.08-1.1h-2.0088c-.5964 0-1.08.4925-1.08 1.1s.4836 1.1 1.08 1.1z" fill="#9cb8ff"/></svg>