<svg width="279" height="175" viewBox="0 0 279 175" fill="none" xmlns="http://www.w3.org/2000/svg">
<g clip-path="url(#clip0_119_595)">
<mask id="mask0_119_595" style="mask-type:alpha" maskUnits="userSpaceOnUse" x="0" y="0" width="279" height="175">
<path d="M0 10C0 4.47715 4.47715 0 10 0H269C274.523 0 279 4.47715 279 10V165C279 170.523 274.523 175 269 175H10C4.47715 175 0 170.523 0 165V10Z" fill="url(#paint0_linear_119_595)"/>
</mask>
<g mask="url(#mask0_119_595)">
<rect x="-5" y="-122" width="297" height="298" fill="url(#paint1_linear_119_595)"/>
</g>
<g clip-path="url(#clip1_119_595)">
<path d="M142.347 59.7598C137.695 64.1572 135.048 67.5153 133.364 70.3136C131.679 73.112 132.722 74.7911 134.246 75.3507C135.77 75.9104 138.096 74.3913 146.758 64.3171L142.347 59.7598Z" fill="#FF8C19"/>
<path d="M214.52 152.904C214.52 155.383 180.754 158.501 139.128 158.501C97.5024 158.501 63.7364 155.383 63.7364 152.904C63.7364 150.426 97.5024 148.507 139.128 148.507C180.754 148.507 214.52 150.506 214.52 152.904Z" fill="#272173"/>
<path d="M165.435 142.59C185.968 129.877 186.048 124.84 189.657 113.407C196.635 109.089 196.394 105.891 195.271 103.812C194.148 101.733 192.865 99.9744 182.358 99.9744C175.862 100.054 174.338 101.973 172.012 109.809C169.285 119.003 169.526 119.563 155.33 127.079C144.903 132.515 150.196 152.104 165.435 142.59Z" fill="url(#paint2_linear_119_595)"/>
<path d="M89.081 143.709C96.3796 146.268 109.774 146.588 125.815 142.11C126.876 141.815 127.868 141.314 128.733 140.635C129.599 139.955 130.321 139.112 130.858 138.153C131.395 137.194 131.736 136.139 131.862 135.047C131.987 133.956 131.895 132.851 131.589 131.796V131.556C131.271 130.435 130.727 129.39 129.989 128.486C129.252 127.582 128.337 126.837 127.301 126.298C126.264 125.759 125.128 125.437 123.962 125.351C122.797 125.266 121.626 125.418 120.521 125.8C111.618 128.918 102.876 131.157 91.8079 130.917C85.953 127.559 81.4616 129.318 80.2585 133.795C79.0554 138.272 83.7875 141.87 89.081 143.709Z" fill="url(#paint3_linear_119_595)"/>
<path d="M125.253 119.403C143.941 112.127 161.185 109.729 167.2 122.441C173.215 135.154 170.328 148.506 160.543 152.104C150.758 155.702 132.953 153.463 119.238 147.067C105.523 140.671 109.453 125.559 125.253 119.403Z" fill="#698EFF"/>
<path d="M83.9478 101.093C80.1782 101.573 77.6918 104.771 78.6543 110.768C79.2157 114.206 77.8523 117.004 75.4461 117.484L76.7294 117.324C78.3128 117.199 79.8611 116.793 81.301 116.125C86.4341 113.806 88.1184 109.568 88.359 106.93C88.5996 104.291 87.7174 100.534 83.9478 101.093Z" fill="#29CC7A"/>
<path d="M87.156 98.2952C87.4331 98.0877 87.6262 97.7877 87.6998 97.4501C87.7734 97.1125 87.7227 96.7597 87.557 96.4562C87.4683 96.324 87.3541 96.2107 87.2211 96.1229C87.088 96.0351 86.9388 95.9745 86.782 95.9448C86.6253 95.915 86.4642 95.9166 86.3081 95.9495C86.1519 95.9824 86.004 96.046 85.8727 96.1364C82.5041 98.615 81.5417 101.333 81.4615 108.209C81.4615 111.967 81.2209 114.446 80.1782 116.605L81.3011 116.125H81.3813C81.9991 115.767 82.5242 115.269 82.9142 114.672C83.3042 114.075 83.5483 113.395 83.627 112.687C83.7957 111.147 83.876 109.599 83.8676 108.05C83.9478 101.014 85.0707 99.8143 87.156 98.2952Z" fill="#008D3C"/>
<path d="M77.8523 110.608C73.4411 105.81 71.837 101.573 67.105 102.932C62.3729 104.291 62.7739 108.929 65.5811 112.926C68.3882 116.924 72.4786 118.603 78.3336 117.164C81.78 116.448 84.8053 114.409 86.755 111.487C84.3489 115.085 80.5793 113.566 77.8523 110.608Z" fill="#1CAD64"/>
<path d="M80.4188 116.525C79.3623 116.802 78.2537 116.816 77.1906 116.565C76.1276 116.314 75.1429 115.806 74.3233 115.086C72.3136 113.506 70.7403 111.442 69.7516 109.089C69.7516 109.068 69.7432 109.048 69.7282 109.033C69.7131 109.018 69.6927 109.009 69.6714 109.009C69.6077 108.863 69.5111 108.734 69.3892 108.631C69.2673 108.528 69.1232 108.454 68.9682 108.415C68.8132 108.377 68.6513 108.374 68.4951 108.408C68.3389 108.441 68.1926 108.51 68.0674 108.609C67.7902 108.817 67.5972 109.117 67.5236 109.454C67.4499 109.792 67.5006 110.145 67.6663 110.448C68.925 113.022 70.8318 115.226 73.2004 116.845H73.2806C73.8233 117.187 74.4285 117.42 75.0615 117.53C75.6945 117.64 76.3431 117.624 76.97 117.484L78.3335 117.244L80.4188 116.525Z" fill="#008D3C"/>
<path d="M97.9836 101.814C92.8506 108.211 89.081 116.926 86.5946 125.401C86.0629 127.393 86.1893 129.503 86.9549 131.419C87.7206 133.334 89.0848 134.953 90.8455 136.034C95.6698 138.946 100.711 141.485 105.924 143.63C110.495 145.469 115.709 144.03 118.195 140.112C122.665 132.854 126.451 125.2 129.504 117.245C130.27 115.225 130.305 113.001 129.602 110.957C128.9 108.913 127.503 107.179 125.654 106.052C120.443 102.858 114.834 100.358 108.972 98.6162C107.03 97.9792 104.941 97.9439 102.98 98.5148C101.018 99.0858 99.276 100.236 97.9836 101.814Z" fill="url(#paint4_linear_119_595)"/>
<path d="M108.891 143.629C108.517 144.522 108.061 145.379 107.528 146.188C107.178 146.774 106.635 147.222 105.992 147.455C105.349 147.688 104.645 147.692 103.999 147.467C100.045 146.103 96.3152 144.163 92.9307 141.71C92.5269 141.417 92.225 141.005 92.0668 140.532C91.9087 140.059 91.9023 139.549 92.0485 139.072C92.5507 137.673 93.2531 136.353 94.1338 135.154C94.4469 134.729 94.888 134.414 95.3928 134.256C95.8977 134.098 96.4401 134.104 96.9409 134.275C100.771 135.647 104.41 137.501 107.769 139.792C108.39 140.188 108.846 140.795 109.052 141.5C109.259 142.206 109.202 142.963 108.891 143.629Z" fill="#B7CCFF"/>
<path d="M119.96 121.323C119.535 122.314 118.996 123.253 118.355 124.121C118.143 124.437 117.824 124.667 117.456 124.769C117.089 124.872 116.697 124.84 116.35 124.681C111.356 122.625 106.552 120.137 101.994 117.245C101.695 117.07 101.457 116.807 101.314 116.492C101.17 116.177 101.127 115.826 101.192 115.486C101.501 114.312 102.017 113.202 102.716 112.208C103.096 111.682 103.64 111.295 104.264 111.107C104.887 110.919 105.555 110.941 106.164 111.169C110.597 112.896 114.842 115.066 118.837 117.645C119.421 118.035 119.851 118.614 120.056 119.284C120.26 119.954 120.226 120.675 119.96 121.323Z" fill="#4A72E7"/>
<path d="M102.876 117.805C102.869 117.408 102.981 117.019 103.197 116.686C103.391 116.416 103.678 116.226 104.003 116.152C104.328 116.078 104.669 116.126 104.961 116.286C108.546 117.852 112.028 119.641 115.388 121.643C115.692 121.826 115.918 122.116 116.022 122.455C116.125 122.795 116.1 123.16 115.949 123.482C115.789 123.766 115.601 124.034 115.388 124.281C111.071 122.415 106.891 120.251 102.876 117.805Z" fill="#B7CCFF"/>
<path d="M162.708 149.627C179.07 150.106 191.662 142.751 198.72 137.474C206.981 137.474 208.425 134.595 208.585 132.277C208.746 129.958 208.585 127.719 199.602 122.283C194.068 118.924 192.224 120.364 185.647 125.161C179.07 129.958 174.097 131.957 162.307 131.077C150.517 130.198 144.743 149.067 162.708 149.627Z" fill="url(#paint5_linear_119_595)"/>
<path d="M165.836 98.2959C165.518 97.5779 165.049 96.9361 164.461 96.4132C163.874 95.8903 163.181 95.4984 162.429 95.2638C161.678 95.0292 160.885 94.9572 160.103 95.0526C159.321 95.1481 158.569 95.4088 157.896 95.8174C156.886 96.4538 156.103 97.3908 155.656 98.4956C155.21 99.6005 155.124 100.817 155.41 101.974L157.174 110.129C157.231 110.377 157.353 110.606 157.527 110.792C157.702 110.978 157.922 111.115 158.167 111.188C158.412 111.261 158.671 111.268 158.92 111.208C159.168 111.149 159.396 111.025 159.58 110.849L165.034 105.012C165.83 104.103 166.333 102.976 166.476 101.777C166.619 100.579 166.396 99.3659 165.836 98.2959Z" fill="#698EFF"/>
<path d="M99.1867 155.142C106.886 155.462 119.799 151.864 133.835 142.91C134.769 142.317 135.575 141.546 136.207 140.64C136.839 139.734 137.283 138.711 137.515 137.632C137.746 136.553 137.76 135.439 137.555 134.355C137.35 133.27 136.931 132.237 136.321 131.316L136.161 131.156C135.533 130.171 134.707 129.325 133.736 128.673C132.764 128.02 131.668 127.575 130.516 127.365C129.364 127.155 128.18 127.184 127.04 127.451C125.9 127.719 124.827 128.218 123.89 128.918C116.431 134.275 108.891 138.912 98.6253 141.95C98.206 142.07 97.7613 142.07 97.342 141.95C90.685 140.191 87.6373 143.709 87.7175 148.186C87.7977 152.664 93.5724 154.903 99.1867 155.142Z" fill="url(#paint6_linear_119_595)"/>
<path d="M135.278 141.311C132.632 143.23 125.895 147.387 123.248 148.826L125.494 149.626C128.622 147.787 133.995 144.429 136.321 142.75C136.417 142.687 136.499 142.604 136.56 142.507C136.622 142.41 136.661 142.301 136.677 142.187C136.692 142.073 136.682 141.957 136.649 141.847C136.615 141.738 136.558 141.636 136.482 141.551C136.351 141.363 136.153 141.233 135.929 141.188C135.704 141.143 135.471 141.187 135.278 141.311Z" fill="#4A72E7"/>
<path d="M100.31 130.917C99.8818 129.657 99.6915 128.328 99.7481 126.999C99.7481 126.872 99.6974 126.75 99.6072 126.66C99.5169 126.57 99.3945 126.519 99.2669 126.519C99.208 126.507 99.1471 126.509 99.0887 126.523C99.0304 126.538 98.9761 126.565 98.9299 126.604C98.8837 126.642 98.8467 126.691 98.8218 126.745C98.7968 126.8 98.7845 126.859 98.7857 126.919C98.424 128.794 98.424 130.721 98.7857 132.596C98.85 132.843 98.9829 133.067 99.169 133.242C99.3551 133.417 99.5869 133.537 99.838 133.587C100.089 133.637 100.349 133.616 100.589 133.525C100.828 133.435 101.037 133.279 101.192 133.076C102.231 131.577 103.384 130.161 104.641 128.838C104.696 128.807 104.743 128.764 104.778 128.712C104.813 128.66 104.835 128.601 104.843 128.538C104.851 128.476 104.844 128.413 104.823 128.354C104.801 128.295 104.767 128.241 104.721 128.198C104.643 128.108 104.534 128.05 104.415 128.035C104.297 128.02 104.177 128.05 104.079 128.118C102.712 128.893 101.446 129.833 100.31 130.917Z" fill="#242145"/>
<path d="M162.343 68.3946C163.225 65.996 161.22 63.0377 158.654 63.6773C156.087 64.317 156.247 67.4351 155.445 70.4734C154.643 73.5116 153.44 75.3506 151.515 76.6298L151.916 77.989C158.573 75.1906 161.461 70.8732 162.343 68.3946Z" fill="#FFC619"/>
<path d="M167.797 78.5486C166.995 77.829 164.829 77.1894 157.37 82.3864L159.055 87.2635C162.985 84.705 166.353 82.2265 167.556 81.267C168.759 80.3076 168.599 79.2682 167.797 78.5486Z" fill="#FF8C19"/>
<path d="M131.625 66.1564C129.539 65.4368 125.208 68.6349 122.401 76.2305L123.364 77.5897C125.41 75.45 127.667 73.5214 130.101 71.8331C133.79 69.4345 133.71 66.876 131.625 66.1564Z" fill="#FF8C19"/>
<path d="M173.01 83.6659C171.246 83.1862 167.877 85.8247 162.744 85.9046C164.107 79.5883 161.22 74.951 155.125 73.6717C146.944 71.9127 141.089 79.7482 137.159 84.3055C133.229 88.8629 131.224 85.6647 127.534 80.1479C123.845 74.6311 120.236 73.192 115.424 75.1109C113.178 73.112 110.611 70.7134 108.205 72.3125C105.799 73.9116 107.082 78.7887 110.691 83.0263C108.927 83.1862 106.601 83.506 105.318 84.5454C104.849 84.985 104.562 85.5843 104.516 86.2244C104.355 87.5037 105.318 88.8629 112.296 90.6219C116.466 97.338 121.278 105.253 131.705 106.533C136.187 107.14 140.749 106.649 144.997 105.102C149.246 103.556 153.052 101.001 156.087 97.6578C157.487 96.1429 159.215 94.967 161.14 94.2198C164.268 93.1004 168.278 91.6613 170.845 89.5025C175.015 86.0645 174.213 83.9857 173.01 83.6659Z" fill="url(#paint7_linear_119_595)"/>
<path d="M136.116 98.6172C136.014 100.712 135.319 102.736 134.111 104.454C130.662 109.411 126.812 114.848 123.845 116.367C123.051 116.766 122.158 116.925 121.275 116.826C120.392 116.726 119.557 116.372 118.872 115.807C117.509 114.528 118.15 112.929 119.273 112.129L122.642 109.811C122.642 109.811 124.086 105.173 126.091 99.017C126.496 97.6725 127.21 96.4406 128.176 95.4191C131.705 91.7412 136.277 93.0205 136.116 98.6172Z" fill="url(#paint8_linear_119_595)"/>
<path d="M134.432 106.772C135.555 105.093 136.597 103.574 137.159 102.534C137.265 102.365 137.3 102.16 137.255 101.965C137.209 101.77 137.088 101.601 136.918 101.495C136.748 101.389 136.543 101.355 136.347 101.4C136.152 101.445 135.982 101.565 135.876 101.735C135.154 102.854 133.951 104.693 132.587 106.612L134.432 106.772Z" fill="#FF7214"/>
<path d="M140.126 73.831C138.923 69.5934 130.502 71.9121 123.845 79.2678L125.449 81.5865C126.893 80.627 130.983 79.3478 133.55 79.028C136.116 78.7081 141.249 78.1485 140.126 73.831Z" fill="#FFC619"/>
<path d="M125.85 79.5876C125.609 79.1079 127.614 77.189 130.101 75.9897C132.587 74.7904 135.314 74.2307 135.555 75.5899C135.795 76.9491 134.432 77.109 132.507 77.5088C130.85 77.8547 129.255 78.4477 127.775 79.2678C126.732 79.8275 126.091 80.1473 125.85 79.5876Z" fill="#FF8C19"/>
<path d="M109.087 74.151C108.205 72.7118 106.761 73.5913 107.002 75.6701C107.243 77.7489 108.606 80.5473 110.691 83.0258C109.168 83.1857 107.162 83.4256 105.879 84.2251C104.596 85.0247 105.558 86.0641 107.082 86.0641C110.733 85.94 114.315 85.0404 117.589 83.4256C111.814 81.5867 109.97 75.5901 109.087 74.151Z" fill="black"/>
<path d="M122.562 80.6273C122.401 81.027 121.76 80.8671 120.877 80.6273C119.995 80.3874 119.273 80.3874 119.353 79.9077C119.434 79.428 120.236 79.268 121.118 79.5079C122 79.7478 122.642 80.1475 122.562 80.6273Z" fill="black"/>
<path d="M136.678 84.7847C134.512 87.0234 132.988 86.8635 131.304 85.2644C132.667 86.7036 132.266 89.9017 131.544 92.1404C130.823 94.3791 130.823 95.7383 131.785 96.0581C132.748 96.378 135.956 93.6595 136.678 84.7847Z" fill="#FFE75C"/>
<path d="M138.442 82.7061C139.244 81.8266 141.249 82.866 141.971 84.545C142.693 86.224 143.254 87.4233 143.896 87.9031C144.538 88.3828 145.099 87.9031 145.26 85.9042C145.42 83.9054 144.698 79.9077 141.971 78.9482C140.731 80.1402 139.554 81.3944 138.442 82.7061Z" fill="#FFE75C"/>
<path d="M149.991 78.3893C150.874 81.0277 152.237 84.3058 153.039 81.6674C153.841 79.0289 154.002 75.7508 152.398 73.4321C150.201 73.5596 148.075 74.248 146.222 75.431C147.104 74.8713 149.189 75.7508 149.991 78.3893Z" fill="#FFE75C"/>
<path d="M115.825 82.7063C114.034 82.703 112.27 83.1426 110.691 83.9856C109.168 84.7052 108.285 85.4247 108.205 86.0644C111.463 85.7357 114.639 84.8428 117.589 83.4259L115.825 82.7063Z" fill="#EE4245"/>
<path d="M117.188 82.1471L117.509 82.7068L117.91 83.2664L118.231 83.7462L118.632 84.3058C118.66 84.3527 118.678 84.4047 118.685 84.4588C118.692 84.5129 118.688 84.5678 118.673 84.6202C118.658 84.6726 118.632 84.7214 118.597 84.7636C118.563 84.8058 118.52 84.8405 118.471 84.8655C118.414 84.9109 118.344 84.9357 118.271 84.9357C118.198 84.9357 118.127 84.9109 118.07 84.8655H117.99L117.348 84.3858C117.171 84.2343 117.034 84.0422 116.947 83.8261C116.808 83.602 116.7 83.3599 116.627 83.1065C116.627 82.9466 116.546 82.6268 116.546 82.387C116.546 82.3021 116.58 82.2208 116.64 82.1608C116.701 82.1008 116.782 82.0671 116.867 82.0671L117.188 82.1471Z" fill="#ED7700"/>
<path d="M242.443 151.84C251.302 151.84 258.484 144.681 258.484 135.849C258.484 127.018 251.302 119.859 242.443 119.859C233.584 119.859 226.402 127.018 226.402 135.849C226.402 144.681 233.584 151.84 242.443 151.84Z" fill="#FF78B9"/>
<path d="M225.279 134.09C225.632 130.707 226.984 127.503 229.164 124.886C231.344 122.268 234.254 120.355 237.526 119.387C240.798 118.419 244.284 118.441 247.543 119.45C250.802 120.458 253.688 122.408 255.835 125.052C257.982 127.697 259.294 130.917 259.604 134.305C259.914 137.693 259.208 141.096 257.577 144.085C255.945 147.073 253.461 149.511 250.439 151.091C247.416 152.671 243.992 153.321 240.598 152.959C236.06 152.476 231.898 150.218 229.027 146.681C226.155 143.144 224.808 138.616 225.279 134.09ZM227.605 134.33C227.287 137.258 227.848 140.213 229.217 142.822C230.586 145.432 232.701 147.577 235.294 148.987C237.887 150.397 240.842 151.007 243.784 150.741C246.725 150.476 249.522 149.345 251.818 147.494C254.115 145.642 255.808 143.152 256.684 140.34C257.56 137.528 257.578 134.52 256.737 131.697C255.897 128.875 254.234 126.364 251.961 124.485C249.687 122.605 246.905 121.44 243.967 121.138C242.023 120.927 240.056 121.102 238.18 121.652C236.303 122.202 234.555 123.116 233.034 124.342C231.514 125.568 230.251 127.082 229.32 128.796C228.388 130.51 227.805 132.391 227.605 134.33Z" fill="black"/>
<path d="M234.904 144.564C235.098 144.603 235.299 144.586 235.484 144.515C235.668 144.445 235.829 144.323 235.947 144.165L246.694 129.453C246.852 129.23 246.915 128.954 246.87 128.684C246.825 128.415 246.675 128.174 246.454 128.014C246.345 127.919 246.219 127.848 246.081 127.804C245.944 127.761 245.8 127.746 245.656 127.761C245.513 127.776 245.375 127.821 245.25 127.892C245.125 127.963 245.016 128.059 244.93 128.174L234.182 142.885C234.091 142.998 234.025 143.129 233.988 143.269C233.951 143.409 233.943 143.555 233.966 143.698C233.988 143.841 234.041 143.978 234.119 144.099C234.198 144.221 234.301 144.325 234.423 144.404L234.904 144.564Z" fill="black"/>
<path d="M231.455 139.528H231.856L249.501 135.05C249.64 135.022 249.771 134.966 249.888 134.886C250.004 134.806 250.103 134.702 250.178 134.583C250.253 134.463 250.303 134.329 250.324 134.19C250.346 134.05 250.339 133.908 250.303 133.771C250.275 133.633 250.219 133.502 250.138 133.386C250.057 133.27 249.954 133.171 249.834 133.096C249.714 133.022 249.58 132.972 249.44 132.951C249.3 132.929 249.157 132.936 249.02 132.972L231.375 137.449C231.236 137.477 231.105 137.533 230.988 137.614C230.872 137.694 230.773 137.797 230.698 137.917C230.623 138.037 230.573 138.17 230.552 138.31C230.53 138.449 230.537 138.592 230.573 138.728C230.63 138.931 230.743 139.113 230.899 139.254C231.055 139.396 231.248 139.491 231.455 139.528Z" fill="black"/>
<path d="M236.829 146.323L251.266 136.648C251.266 136.648 251.587 142.725 247.095 145.763C242.604 148.801 236.829 146.323 236.829 146.323Z" fill="#FF78B9"/>
<path d="M236.428 147.362C236.244 147.297 236.085 147.179 235.97 147.022C235.855 146.865 235.791 146.677 235.786 146.482C235.747 146.289 235.764 146.089 235.835 145.905C235.906 145.721 236.028 145.561 236.187 145.443L250.624 135.769C250.788 135.658 250.978 135.592 251.175 135.578C251.372 135.564 251.569 135.602 251.747 135.689C251.916 135.766 252.058 135.89 252.158 136.046C252.258 136.202 252.31 136.383 252.308 136.568C252.389 136.888 252.629 143.364 247.737 146.642C245.514 148.03 242.883 148.622 240.278 148.321C238.952 148.203 237.654 147.879 236.428 147.362ZM239.395 145.923C241.24 146.323 244.128 146.482 246.453 144.883C247.439 144.177 248.264 143.27 248.872 142.223C249.48 141.175 249.859 140.011 249.982 138.807L239.395 145.923Z" fill="black"/>
<path d="M38.3937 80.057C36.4397 80.0369 34.4935 80.3064 32.619 80.8565L29.491 82.5355C28.4484 79.8171 27.8067 76.8588 27.0047 74.2203C26.2026 71.5819 24.9194 67.5042 24.759 63.9863C24.5986 60.4683 18.3426 59.9886 18.503 63.9863C18.8098 67.766 19.5636 71.4964 20.7488 75.0998C21.8716 78.6178 22.6737 82.5355 24.1975 85.8936C27.1651 92.6097 33.3408 86.2933 38.3937 86.2134C43.4466 86.1334 42.4039 80.057 38.3937 80.057Z" fill="#FFF2A6"/>
<path d="M57.8833 52.8729C55.397 50.7142 50.9055 48.7953 47.6172 49.1151C44.3288 49.4349 42.0831 52.713 40.88 55.9112C40.7285 56.3488 40.6473 56.8075 40.6394 57.2704C38.1531 63.5867 40.078 72.8613 45.0506 77.3387C47.6974 79.7374 51.7076 80.297 55.0762 79.8973C58.4447 79.4975 60.53 76.4593 61.4123 73.0213C63.0966 66.8648 63.257 57.4303 57.8833 52.8729ZM55.8782 69.1035C55.5574 71.5821 55.5574 73.501 52.7502 73.8208C49.9431 74.1406 48.2588 71.9019 47.3765 69.5832C46.4943 67.2646 44.81 62.0676 46.8151 58.7095C47.1802 58.1389 47.3491 57.4654 47.2963 56.7907C49.3817 53.5925 54.5949 57.5102 55.5574 60.3886C56.5198 63.2669 56.199 66.3851 55.8782 69.1035Z" fill="#FFF2A6"/>
<path d="M84.3508 59.509L77.1324 63.7465C74.4856 58.3097 71.1171 53.0328 70.716 47.0362C70.3952 43.1185 64.2195 43.0385 64.4601 47.0362C65.1017 55.1915 69.7536 61.5078 72.8013 68.8636C73.5232 70.7025 75.3679 71.7419 77.2928 70.7025C80.7862 68.9031 84.1859 66.9284 87.4787 64.7859C90.7671 62.7071 87.7193 57.3502 84.3508 59.509Z" fill="#FFF2A6"/>
<path d="M63.3371 116.06L25.6893 117.961C24.7161 118.01 23.9671 118.836 24.0164 119.807L25.9215 157.297C25.9708 158.267 26.7997 159.014 27.773 158.964L65.4207 157.063C66.394 157.014 67.143 156.188 67.0937 155.218L65.1886 117.727C65.1393 116.757 64.3103 116.01 63.3371 116.06Z" fill="url(#paint9_linear_119_595)"/>
<path d="M45.2916 129.136C45.1133 129.137 44.9409 129.073 44.8076 128.954C44.6743 128.836 44.5896 128.673 44.5698 128.497L44.3292 123.14C44.3292 122.97 44.3968 122.807 44.5171 122.687C44.6374 122.567 44.8006 122.5 44.9708 122.5C45.141 122.5 45.3042 122.567 45.4245 122.687C45.5448 122.807 45.6124 122.97 45.6124 123.14L45.9333 128.417C45.9447 128.507 45.9366 128.599 45.9095 128.686C45.8824 128.773 45.837 128.853 45.7762 128.921C45.7155 128.99 45.6408 129.044 45.5572 129.081C45.4736 129.118 45.3831 129.137 45.2916 129.136Z" fill="black"/>
<path d="M66.3853 140.01L66.0645 134.494L65.6635 134.014C63.6584 132.255 59.969 132.974 57.4826 135.693C54.9963 138.411 54.5953 142.249 56.6004 144.008C58.6055 145.767 62.3751 145.127 64.8614 142.409C65.4716 141.679 65.9839 140.872 66.3853 140.01Z" fill="url(#paint10_linear_119_595)"/>
<path d="M66.4656 141.369L66.2249 138.091C65.9982 139.522 65.3571 140.856 64.3802 141.929C62.1345 144.408 58.8462 145.127 57.0817 143.528C55.3172 141.929 55.7182 138.651 57.9639 136.172C59.1349 134.778 60.8021 133.89 62.6158 133.694C63.5784 133.639 64.5255 133.954 65.2625 134.573C65.6746 134.97 65.9783 135.466 66.1447 136.013L65.9843 133.454C63.7386 131.535 59.6482 132.335 56.9213 135.293C54.1943 138.251 53.8735 142.489 56.1994 144.568C57.1832 145.387 58.4504 145.789 59.7284 145.687C61.9058 145.498 63.9218 144.464 65.3427 142.809L66.4656 141.369Z" fill="black"/>
<path d="M25.3208 136.092L24.9197 136.572L25.2406 142.169C25.7089 142.978 26.3046 143.707 27.0051 144.327C29.732 146.806 33.5016 147.206 35.3463 145.127C37.191 143.048 36.389 139.45 33.662 136.972C30.9351 134.493 27.1655 134.093 25.3208 136.092Z" fill="url(#paint11_linear_119_595)"/>
<path d="M24.9197 135.612V138.171C25.0542 137.581 25.3293 137.033 25.7218 136.572C26.0532 136.224 26.4509 135.946 26.8917 135.754C27.3324 135.562 27.8073 135.459 28.2883 135.452C30.114 135.478 31.8623 136.192 33.1808 137.451C35.6671 139.69 36.389 142.968 34.8651 144.727C33.3412 146.486 29.8924 146.086 27.4061 143.848C26.3137 142.866 25.5331 141.588 25.1604 140.17L25.3208 143.448C25.655 143.956 26.0601 144.413 26.5238 144.807C28.11 146.292 30.2028 147.121 32.3787 147.126C33.0258 147.112 33.6638 146.971 34.2558 146.711C34.8478 146.45 35.382 146.075 35.8275 145.607C37.9128 143.288 37.1108 139.21 34.063 136.492C31.0153 133.773 27.0051 133.374 24.9197 135.612Z" fill="black"/>
<path d="M58.6057 139.85C58.675 139.4 58.7018 138.945 58.6859 138.491C58.4453 133.134 51.4675 130.415 45.372 130.735C39.2764 131.055 32.6195 134.493 32.9403 139.77C32.954 140.253 33.0076 140.734 33.1007 141.209C29.5717 143.448 27.5666 147.685 27.727 150.963C27.8874 154.241 30.2134 156.8 33.8225 158.719L59.7285 157.36C63.1773 155.121 65.1824 152.163 65.022 149.044C64.8616 145.926 62.3753 141.769 58.6057 139.85Z" fill="url(#paint12_linear_119_595)"/>
<path d="M59.3274 139.53C59.4077 139.161 59.4077 138.779 59.3274 138.41C59.0868 132.734 52.0288 129.775 45.3718 130.095C42.1906 130.203 39.0934 131.14 36.389 132.814C33.5818 134.653 32.1381 137.131 32.2985 139.85C32.2853 140.198 32.3122 140.547 32.3787 140.889C29.1706 143.128 26.8446 147.365 27.0051 150.963C27.1655 154.561 29.331 156.8 32.6194 158.719H35.1859C31.1757 156.96 28.5289 154.241 28.3685 150.963C28.2081 147.685 29.9726 144.007 33.5016 141.848C33.6135 141.77 33.6972 141.657 33.7404 141.528C33.7837 141.399 33.7844 141.259 33.7422 141.129C33.6543 140.707 33.6006 140.28 33.5818 139.85C33.3412 135.052 39.5169 131.774 45.452 131.454C51.3872 131.135 57.8035 133.773 58.0441 138.57C58.0574 138.998 58.0305 139.427 57.9639 139.85C57.9489 139.996 57.9793 140.144 58.051 140.272C58.1227 140.401 58.2323 140.505 58.3649 140.569C62.0543 142.408 64.2198 146.326 64.3802 149.124C64.5406 151.923 62.2147 155.361 58.3649 157.519L60.9315 157.359C64.0594 155.121 65.8239 152.162 65.6635 149.044C65.5031 145.926 62.7762 141.449 59.3274 139.53Z" fill="black"/>
<path d="M42.1901 128.196L48.1977 127.893C49.2599 127.839 50.3 128.208 51.0891 128.919C51.8783 129.63 52.3518 130.624 52.4056 131.683L38.3879 132.391C38.3341 131.332 38.7044 130.295 39.4175 129.509C40.1305 128.722 41.1279 128.25 42.1901 128.196Z" fill="#2458FF"/>
<path d="M52.51 132.335L38.3941 133.054C38.2298 133.037 38.0766 132.964 37.9598 132.848C37.843 132.731 37.7698 132.578 37.7524 132.415C37.6864 131.176 38.1123 129.962 38.9379 129.034C39.7635 128.106 40.9223 127.54 42.1637 127.458L48.2592 127.138C49.4956 127.115 50.6935 127.567 51.6044 128.4C52.5154 129.234 53.0694 130.385 53.1516 131.615C53.1527 131.793 53.0878 131.965 52.9693 132.098C52.8508 132.231 52.6872 132.315 52.51 132.335ZM39.1159 131.695L51.708 131.056C51.5222 130.295 51.0759 129.624 50.4462 129.157C49.8165 128.689 49.043 128.456 48.2592 128.497L42.2439 128.817C41.4698 128.864 40.7359 129.177 40.166 129.701C39.5961 130.225 39.2252 130.93 39.1159 131.695Z" fill="black"/>
<path d="M41.3615 120.022C41.3826 120.473 41.4927 120.916 41.6854 121.325C41.8782 121.734 42.1499 122.101 42.4851 122.406C42.8202 122.71 43.2122 122.946 43.6387 123.099C44.0652 123.252 44.5178 123.321 44.9707 123.3C45.4236 123.279 45.8679 123.169 46.2783 122.977C46.6887 122.785 47.057 122.514 47.3624 122.18C47.6678 121.845 47.9041 121.455 48.058 121.03C48.2118 120.604 48.2802 120.153 48.2591 119.702C48.2642 119.135 48.1184 118.578 47.8365 118.086C47.5547 117.595 47.147 117.186 46.655 116.903L42.6448 117.143C42.2212 117.491 41.8847 117.932 41.662 118.431C41.4392 118.931 41.3363 119.475 41.3615 120.022Z" fill="#2458FF"/>
<path d="M40.6398 120.101C40.7036 121.204 41.2042 122.236 42.0314 122.971C42.8587 123.706 43.9449 124.083 45.051 124.019C46.1571 123.955 47.1926 123.456 47.9296 122.632C48.6666 121.807 49.0448 120.724 48.981 119.621C48.9081 118.588 48.4504 117.618 47.6977 116.903L41.6824 117.143C41.0067 117.982 40.6388 119.025 40.6398 120.101ZM44.65 117.063C45.0186 117.042 45.3878 117.094 45.7364 117.215C46.0851 117.336 46.4063 117.525 46.6819 117.77C46.9575 118.015 47.1819 118.311 47.3425 118.643C47.503 118.974 47.5965 119.334 47.6175 119.701C47.6386 120.069 47.5868 120.437 47.4652 120.785C47.3436 121.132 47.1545 121.452 46.9088 121.727C46.663 122.002 46.3653 122.225 46.0328 122.386C45.7003 122.546 45.3394 122.639 44.9708 122.66C44.602 122.681 44.2326 122.63 43.8837 122.509C43.5348 122.388 43.2133 122.2 42.9376 121.955C42.6619 121.709 42.4374 121.413 42.2771 121.081C42.1168 120.749 42.0237 120.389 42.0032 120.021C41.9816 119.654 42.0329 119.285 42.1543 118.938C42.2756 118.59 42.4647 118.269 42.7106 117.994C42.9565 117.72 43.2543 117.496 43.5871 117.336C43.9199 117.176 44.2811 117.083 44.65 117.063Z" fill="black"/>
<path d="M60.2898 146.885C62.4603 146.885 64.2198 145.131 64.2198 142.967C64.2198 140.804 62.4603 139.05 60.2898 139.05C58.1193 139.05 56.3598 140.804 56.3598 142.967C56.3598 145.131 58.1193 146.885 60.2898 146.885Z" fill="#2458FF"/>
<path d="M60.5304 147.605C59.3016 147.649 58.1038 147.215 57.1905 146.394C56.2773 145.573 55.7205 144.43 55.6379 143.207C55.7158 142.077 56.2062 141.014 57.0166 140.219C57.827 139.424 58.9013 138.953 60.0365 138.894C61.1717 138.835 62.2893 139.192 63.1783 139.899C64.0672 140.605 64.666 141.611 64.8614 142.728C64.9275 143.945 64.51 145.139 63.6995 146.052C62.8889 146.965 61.7505 147.523 60.5304 147.605ZM60.1294 139.689C59.2572 139.732 58.4377 140.118 57.8511 140.763C57.2645 141.407 56.9589 142.258 57.0014 143.127C57.0439 143.997 57.4312 144.814 58.078 145.399C58.7247 145.983 59.5781 146.288 60.4502 146.246C60.882 146.225 61.3055 146.119 61.6964 145.935C62.0873 145.751 62.438 145.492 62.7284 145.172C63.0189 144.853 63.2434 144.48 63.3892 144.074C63.535 143.669 63.5992 143.238 63.5782 142.808C63.5571 142.377 63.4512 141.955 63.2665 141.565C63.0817 141.176 62.8218 140.826 62.5016 140.536C62.1813 140.247 61.807 140.023 61.4 139.878C60.993 139.732 60.5612 139.668 60.1294 139.689Z" fill="black"/>
<path d="M31.8173 148.326C33.9878 148.326 35.7473 146.572 35.7473 144.408C35.7473 142.245 33.9878 140.49 31.8173 140.49C29.6468 140.49 27.8873 142.245 27.8873 144.408C27.8873 146.572 29.6468 148.326 31.8173 148.326Z" fill="#2458FF"/>
<path d="M32.0578 149.045C30.9237 148.968 29.8574 148.479 29.0602 147.671C28.263 146.863 27.7902 145.792 27.7309 144.661C27.6717 143.529 28.0302 142.415 28.7387 141.529C29.4473 140.642 30.4568 140.046 31.5766 139.851C32.7977 139.785 33.9956 140.201 34.9113 141.009C35.8269 141.817 36.3865 142.952 36.4691 144.168C36.5135 145.393 36.0779 146.587 35.2546 147.498C34.4312 148.408 33.2847 148.963 32.0578 149.045ZM31.6568 141.13C31.2248 141.151 30.8011 141.256 30.41 141.44C30.0188 141.624 29.6679 141.883 29.3774 142.202C29.0868 142.522 28.8623 142.895 28.7167 143.301C28.5711 143.707 28.5073 144.137 28.5289 144.568C28.5714 145.437 28.9587 146.254 29.6054 146.839C30.2522 147.424 31.1055 147.729 31.9776 147.686C32.8498 147.644 33.6693 147.258 34.2559 146.613C34.8425 145.968 35.1482 145.118 35.1056 144.248C35.085 143.818 34.9795 143.395 34.7949 143.005C34.6104 142.615 34.3505 142.266 34.0301 141.976C33.7098 141.686 33.3352 141.462 32.928 141.317C32.5207 141.172 32.0888 141.109 31.6568 141.13Z" fill="black"/>
<path d="M46.3343 156.64C50.6309 156.64 54.1141 153.168 54.1141 148.885C54.1141 144.601 50.6309 141.129 46.3343 141.129C42.0376 141.129 38.5544 144.601 38.5544 148.885C38.5544 153.168 42.0376 156.64 46.3343 156.64Z" fill="black"/>
<path d="M46.7353 157.279C45.1304 157.353 43.5379 156.968 42.1456 156.169C40.7532 155.37 39.6191 154.191 38.8772 152.77C38.1352 151.35 37.8163 149.748 37.958 148.152C38.0998 146.557 38.6964 145.035 39.6773 143.767C40.3337 142.888 41.1628 142.15 42.1143 141.601C43.0657 141.051 44.1195 140.7 45.2114 140.569C46.3138 140.419 47.4352 140.49 48.5096 140.778C49.5839 141.067 50.5896 141.566 51.4673 142.248C53.2099 143.606 54.3592 145.583 54.6755 147.765C54.9444 149.983 54.3407 152.218 52.9912 154.001C52.2453 154.963 51.3005 155.753 50.2211 156.319C49.1417 156.885 47.9529 157.212 46.7353 157.279ZM45.9332 141.848H45.3718C44.453 141.967 43.5676 142.269 42.7683 142.736C41.9691 143.203 41.2725 143.825 40.7199 144.567C40.1512 145.302 39.7332 146.141 39.4899 147.037C39.2466 147.933 39.1827 148.868 39.3018 149.789C39.421 150.709 39.7209 151.598 40.1844 152.403C40.6479 153.208 41.2659 153.914 42.0032 154.481C42.7405 155.048 43.5826 155.465 44.4814 155.707C45.3802 155.95 46.3181 156.013 47.2416 155.895C48.1652 155.776 49.0562 155.477 49.8638 155.015C50.6714 154.553 51.3798 153.937 51.9485 153.202C52.5181 152.473 52.9328 151.637 53.1672 150.743C53.4016 149.85 53.4509 148.918 53.312 148.005C53.2046 147.083 52.9154 146.192 52.4612 145.383C52.0069 144.573 51.3966 143.861 50.6653 143.287C49.3072 142.267 47.6314 141.757 45.9332 141.848Z" fill="black"/>
<path d="M52.911 148.565C52.9961 150.304 52.3848 152.005 51.2115 153.295C50.6306 153.933 49.9292 154.451 49.1474 154.82C48.3656 155.188 47.5187 155.399 46.655 155.441C45.7914 155.483 44.9279 155.355 44.1138 155.064C43.2998 154.774 42.5511 154.326 41.9106 153.747C40.6171 152.577 39.8426 150.943 39.7575 149.205V148.405C41.5639 146.921 43.7985 146.051 46.1357 145.922C48.4728 145.792 50.7903 146.41 52.7506 147.686C52.8308 148.005 52.8308 148.245 52.911 148.565Z" fill="black"/>
<path d="M46.6551 156.081C44.7534 156.168 42.8941 155.503 41.4821 154.23C40.0701 152.957 39.2196 151.18 39.1159 149.285C39.0756 148.966 39.0756 148.644 39.1159 148.325C39.131 148.141 39.2172 147.969 39.3565 147.846C41.293 146.306 43.6644 145.408 46.1382 145.279C48.612 145.15 51.0644 145.796 53.1516 147.126C53.2855 147.266 53.394 147.429 53.4724 147.606C53.4724 147.926 53.5526 148.245 53.5526 148.485C53.64 150.402 52.9642 152.276 51.6724 153.699C50.3805 155.121 48.5772 155.977 46.6551 156.081ZM40.3991 148.725V149.205C40.3588 150.032 40.4932 150.859 40.7936 151.631C41.094 152.403 41.5536 153.104 42.1428 153.688C42.732 154.272 43.4376 154.726 44.214 155.021C44.9904 155.315 45.8202 155.445 46.6498 155.4C47.4794 155.355 48.2902 155.136 49.0299 154.759C49.7696 154.382 50.4216 153.854 50.9438 153.21C51.4659 152.566 51.8466 151.82 52.0611 151.019C52.2756 150.219 52.3192 149.383 52.1891 148.565V148.086C50.3743 147.015 48.2784 146.513 46.1738 146.646C44.0803 146.731 42.0637 147.457 40.3991 148.725Z" fill="black"/>
<path d="M40.8804 140.73C40.7896 140.741 40.6975 140.733 40.6101 140.706C40.5228 140.679 40.4422 140.634 40.3739 140.573C40.3055 140.513 40.2509 140.438 40.2138 140.355C40.1767 140.272 40.1578 140.182 40.1585 140.09L39.9981 137.932C39.997 137.754 40.062 137.582 40.1804 137.449C40.2989 137.316 40.4625 137.232 40.6398 137.212C40.7305 137.201 40.8226 137.209 40.91 137.236C40.9974 137.263 41.0779 137.308 41.1463 137.369C41.2146 137.429 41.2692 137.504 41.3063 137.587C41.3435 137.67 41.3623 137.761 41.3616 137.852V140.01C41.3857 140.09 41.3919 140.173 41.3798 140.255C41.3677 140.337 41.3376 140.415 41.2916 140.484C41.2455 140.552 41.1848 140.61 41.1137 140.653C41.0426 140.695 40.9629 140.722 40.8804 140.73Z" fill="black"/>
<path d="M50.906 140.249C50.7363 140.224 50.5776 140.15 50.4494 140.037C50.3212 139.923 50.229 139.775 50.1841 139.61V137.371C50.1841 137.201 50.2517 137.038 50.372 136.919C50.4924 136.799 50.6556 136.731 50.8258 136.731C51.1466 136.651 51.4674 136.971 51.5476 137.291V139.53C51.5487 139.707 51.4838 139.879 51.3653 140.012C51.2468 140.145 51.0832 140.229 50.906 140.249Z" fill="black"/>
<path d="M51.5477 152.882C50.4716 154.243 48.9044 155.13 47.1809 155.354C45.4574 155.578 43.7143 155.122 42.3242 154.082C41.6395 153.557 41.0653 152.902 40.6342 152.156C40.2032 151.41 39.9239 150.586 39.8122 149.733C39.7005 148.879 39.7586 148.011 39.9831 147.18C40.2077 146.349 40.5944 145.569 41.1211 144.887C41.2769 144.68 41.4858 144.519 41.7258 144.42C41.9657 144.322 42.2278 144.29 42.4846 144.327C44.5292 144.535 46.4743 145.311 48.0989 146.566C49.7477 147.811 51.001 149.505 51.7081 151.443C51.8201 151.674 51.8645 151.931 51.8361 152.186C51.8077 152.44 51.7077 152.682 51.5477 152.882Z" fill="#FF00FF"/>
<path d="M46.6551 156.08C44.9442 156.17 43.2598 155.63 41.9231 154.561C40.4039 153.404 39.4072 151.694 39.1516 149.805C38.8959 147.917 39.4023 146.004 40.5596 144.487C40.7917 144.209 41.088 143.99 41.4233 143.851C41.7586 143.712 42.1227 143.656 42.4845 143.688C44.6698 143.875 46.7562 144.68 48.4998 146.006C50.2642 147.327 51.6024 149.134 52.3496 151.203C52.4784 151.548 52.5165 151.92 52.4603 152.284C52.4042 152.648 52.2556 152.992 52.0288 153.282C51.4061 154.126 50.5982 154.816 49.6669 155.301C48.7356 155.786 47.7055 156.053 46.6551 156.08ZM42.2439 144.967C41.9966 144.987 41.7668 145.102 41.6022 145.287C40.666 146.531 40.2588 148.093 40.469 149.634C40.6791 151.175 41.4896 152.572 42.7251 153.522C43.3343 153.999 44.0323 154.35 44.7786 154.556C45.525 154.762 46.305 154.818 47.0733 154.721C47.8416 154.625 48.5831 154.377 49.2547 153.993C49.9264 153.608 50.5149 153.095 50.9861 152.483C51.0701 152.369 51.1281 152.239 51.1558 152.101C51.1835 151.962 51.1804 151.82 51.1465 151.683C50.4302 149.86 49.2398 148.259 47.6978 147.046C46.1586 145.881 44.327 145.161 42.4043 144.967H42.2439Z" fill="black"/>
<path d="M47.2967 138.97L44.3292 139.13C44.2384 139.142 44.1463 139.133 44.059 139.106C43.9716 139.079 43.891 139.034 43.8227 138.974C43.7543 138.913 43.6998 138.839 43.6626 138.755C43.6255 138.672 43.6066 138.582 43.6074 138.49C43.6074 138.321 43.675 138.158 43.7953 138.038C43.9156 137.918 44.0788 137.851 44.249 137.851L47.2165 137.691C47.3023 137.665 47.3929 137.661 47.4808 137.677C47.5688 137.693 47.6515 137.731 47.7221 137.785C47.7928 137.84 47.8492 137.911 47.8868 137.992C47.9245 138.073 47.9421 138.162 47.9384 138.251C47.9498 138.341 47.9417 138.433 47.9146 138.52C47.8876 138.607 47.8421 138.687 47.7813 138.756C47.7206 138.824 47.6459 138.878 47.5623 138.915C47.4788 138.952 47.3882 138.971 47.2967 138.97Z" fill="black"/>
<path d="M63.1771 116.743C63.5253 116.743 63.8605 116.875 64.114 117.113C64.3675 117.351 64.5201 117.676 64.5406 118.023L66.4655 155.041C66.4661 155.388 66.3335 155.722 66.0949 155.975C65.8563 156.228 65.5298 156.38 65.1823 156.4L28.0477 158.319C27.6995 158.32 27.3644 158.188 27.1108 157.95C26.8573 157.712 26.7047 157.386 26.6842 157.04L24.7593 120.021C24.7587 119.674 24.8913 119.34 25.1299 119.088C25.3685 118.835 25.695 118.683 26.0426 118.662L63.1771 116.743ZM63.0969 115.464L25.9624 117.383C25.6182 117.393 25.2796 117.472 24.9666 117.615C24.6537 117.758 24.3729 117.963 24.1409 118.217C23.9089 118.47 23.7305 118.768 23.6163 119.092C23.5021 119.415 23.4544 119.759 23.476 120.101L25.4009 157.12C25.411 157.463 25.4902 157.801 25.6339 158.113C25.7776 158.424 25.9827 158.704 26.2372 158.936C26.4916 159.167 26.7901 159.345 27.1149 159.459C27.4398 159.573 27.7842 159.62 28.1279 159.598L65.2625 157.68C65.6066 157.67 65.9453 157.591 66.2582 157.447C66.5711 157.304 66.8519 157.1 67.0839 156.846C67.3159 156.592 67.4943 156.295 67.6085 155.971C67.7228 155.647 67.7705 155.304 67.7488 154.961L65.8239 117.943C65.8138 117.6 65.7346 117.262 65.5909 116.95C65.4473 116.638 65.2421 116.358 64.9877 116.127C64.7332 115.896 64.4347 115.718 64.1099 115.604C63.7851 115.49 63.4406 115.442 63.0969 115.464Z" fill="black"/>
<path d="M93.3384 116.607L90.6115 114.688L89.9699 114.208H89.8095L89.4886 113.968L88.2054 112.929C88.0033 112.727 87.7292 112.614 87.4434 112.614C87.1576 112.614 86.8836 112.727 86.6815 112.929C86.4794 113.13 86.3659 113.404 86.3659 113.688C86.3659 113.973 86.4794 114.247 86.6815 114.448C88.446 115.887 90.2907 117.326 92.2156 118.606C92.4634 118.728 92.7477 118.755 93.0141 118.681C93.2805 118.607 93.5102 118.438 93.6593 118.206C93.7612 118.086 93.8346 117.945 93.8741 117.793C93.9136 117.642 93.9181 117.483 93.8872 117.329C93.8563 117.175 93.7909 117.03 93.6959 116.905C93.6008 116.78 93.4787 116.678 93.3384 116.607Z" fill="#D4F1FF"/>
<path d="M89.0077 121.004C86.8823 120.856 84.767 120.589 82.6715 120.205C82.5402 120.155 82.3997 120.136 82.2599 120.146C82.12 120.157 81.9842 120.198 81.862 120.267C81.7398 120.335 81.634 120.43 81.5522 120.543C81.4704 120.657 81.4144 120.787 81.3883 120.924C81.3081 121.404 81.5487 122.123 82.1101 122.203C84.3847 122.68 86.6892 123 89.0077 123.163C89.1743 123.208 89.3493 123.215 89.519 123.182C89.6886 123.149 89.8484 123.078 89.9859 122.974C90.1233 122.869 90.2347 122.735 90.3114 122.58C90.3881 122.426 90.428 122.256 90.428 122.083C90.428 121.911 90.3881 121.741 90.3114 121.587C90.2347 121.432 90.1233 121.298 89.9859 121.193C89.8484 121.089 89.6886 121.017 89.519 120.985C89.3493 120.952 89.1743 120.958 89.0077 121.004Z" fill="#D4F1FF"/>
<path d="M246.774 49.7551C252.308 50.6346 256.238 51.9139 255.276 58.3901C254.313 64.8664 251.827 64.6265 245.491 63.747C239.155 62.8675 240.438 53.6729 246.774 49.7551Z" fill="#6E8CFB"/>
<path d="M245.25 64.1463C244.219 63.9943 243.264 63.5181 242.523 62.7871C241.8 62.0629 241.299 61.1474 241.08 60.1486C240.788 58.1766 241.124 56.1629 242.042 54.3919C243.046 52.3538 244.601 50.6365 246.534 49.4348H246.854C249.822 49.9145 252.148 50.4742 253.672 51.6735C255.196 52.8728 256.158 55.3514 255.677 58.4696C255.196 61.5878 254.313 63.5866 252.549 64.3062C250.784 65.0258 248.779 64.706 245.411 64.2262L245.25 64.1463ZM246.854 50.1544C245.09 51.2969 243.675 52.9012 242.764 54.7917C241.907 56.3809 241.597 58.2068 241.882 59.9887C242.051 60.8705 242.501 61.6741 243.166 62.2793C243.831 62.8846 244.675 63.2591 245.571 63.3468C248.779 63.8265 250.865 64.0663 252.228 63.4267C253.592 62.7871 254.394 62.0675 254.875 58.3097C255.356 54.5518 254.795 53.5125 253.191 52.2332C251.587 50.9539 249.662 50.6341 246.854 50.1544Z" fill="black"/>
<path d="M247.416 52.3132C251.186 52.9529 253.351 54.3121 253.351 57.4303C253.351 60.5485 252.709 63.6667 246.133 61.9077C239.556 60.1487 247.416 52.3132 247.416 52.3132Z" fill="#BCCBFB"/>
<path d="M247.737 62.6275C247.135 62.5624 246.543 62.4282 245.972 62.2277C244.449 61.8279 243.486 61.0284 243.165 59.8291C242.363 56.7109 246.935 52.2335 247.095 51.9936L247.256 51.8337H247.496C249.138 52.0002 250.71 52.5778 252.068 53.5128C252.626 53.9799 253.069 54.5694 253.361 55.2351C253.653 55.9008 253.787 56.6247 253.752 57.3505C253.744 58.2086 253.664 59.0645 253.512 59.9091C253.301 60.7335 252.821 61.4647 252.148 61.9879C251.186 62.7874 249.742 63.0273 247.737 62.6275ZM247.576 52.7132C247.256 53.113 246.373 53.9925 245.491 55.1918C244.609 56.3911 243.646 58.5498 243.967 59.6692C244.288 60.7885 244.93 61.1084 246.213 61.5081C248.78 62.2277 250.624 62.1478 251.667 61.4282C252.71 60.7086 252.95 59.0296 252.95 57.4305C252.95 55.8314 251.346 53.4328 247.576 52.7132Z" fill="black"/>
<path d="M219.505 41.6802C213.89 39.2016 209.559 38.0823 206.351 42.3998C203.143 46.7173 203.063 50.3951 204.105 52.4739C205.148 54.5527 207.314 56.3917 212.848 55.752C218.382 55.1124 217.58 53.2735 219.505 41.6802Z" fill="#6E8CFB"/>
<path d="M208.677 56.1514C207.623 56.0153 206.618 55.6235 205.751 55.0101C204.884 54.3967 204.181 53.5806 203.705 52.6334C203.112 51.2457 202.972 49.7074 203.304 48.2359C203.712 46.0222 204.647 43.9384 206.031 42.1595C206.683 41.1766 207.58 40.3797 208.635 39.847C209.69 39.3144 210.865 39.0642 212.046 39.1212C214.372 39.1212 217.099 40.1606 219.665 41.28L219.906 41.4399V41.6797C219.585 43.5986 219.344 45.1977 219.104 46.5569C218.623 50.2348 218.222 52.4735 217.42 53.9127C216.617 55.3518 215.094 55.9115 212.848 56.1514C211.462 56.312 210.063 56.312 208.677 56.1514ZM213.409 40.0807C210.602 39.601 208.437 40.2406 206.672 42.6392C203.624 46.8767 203.544 50.3947 204.507 52.3136C206.351 56.0714 211.164 55.5117 212.768 55.3518C214.372 55.1919 216.136 54.6322 216.778 53.5129C217.42 52.3935 217.821 50.0749 218.302 46.477C218.542 45.1178 218.703 43.5986 219.024 41.9196C217.245 41.0538 215.356 40.435 213.409 40.0807Z" fill="black"/>
<path d="M217.419 42.8798C213.008 41.2808 210.281 41.2808 208.437 43.2796C206.592 45.2784 204.827 49.516 206.111 51.5948C207.394 53.6736 209.88 55.1927 214.372 53.9934C218.863 52.7941 217.419 42.8798 217.419 42.8798Z" fill="#BCCBFB"/>
<path d="M209.961 54.7128L208.918 54.393C207.593 53.9191 206.464 53.0189 205.71 51.8345C205.309 51.1149 204.908 49.6758 205.71 47.2771C206.249 45.7318 207.064 44.2962 208.116 43.0396C209.961 40.9608 212.848 40.8009 217.58 42.5599H217.821V42.7997C217.901 43.1995 219.264 52.9539 214.452 54.3131C212.999 54.7544 211.469 54.8906 209.961 54.7128ZM213.73 42.32C213.151 42.1913 212.558 42.1376 211.966 42.1601C211.364 42.1371 210.764 42.247 210.209 42.482C209.654 42.717 209.159 43.0712 208.758 43.5193C207.073 45.5182 205.309 49.5159 206.432 51.4347C207.554 53.3536 209.64 54.7928 214.292 53.5935C216.377 53.0338 217.019 50.2354 217.179 47.9967C217.29 46.3983 217.263 44.7934 217.099 43.1995C216.008 42.7958 214.879 42.5012 213.73 42.32Z" fill="black"/>
<path d="M235.305 39.5192C245.01 42.6374 248.94 47.1948 246.854 57.3489C244.769 67.503 243.325 80.4555 224.076 76.7776C204.827 73.0997 208.196 53.9109 211.003 48.3141C213.81 42.7174 223.515 35.6814 235.305 39.5192Z" fill="#6E8CFB"/>
<path d="M224.718 77.3379L223.996 77.178C217.419 75.9786 212.848 72.8605 210.442 67.9033C208.798 64.4139 208.133 60.5458 208.517 56.7098C208.702 53.7323 209.407 50.81 210.602 48.0748C211.472 46.4112 212.641 44.9208 214.051 43.6774C215.714 42.1995 217.577 40.9614 219.585 39.9995C224.575 37.7089 230.252 37.3946 235.465 39.12C240.679 40.879 243.967 42.8778 245.892 45.5963C247.817 48.3147 248.298 52.3124 247.255 57.4294C247.175 57.9891 247.015 58.5488 246.935 59.1084C245.972 63.9057 244.849 69.4225 241.721 73.1803C238.593 76.9381 232.578 78.6971 224.718 77.3379ZM232.097 39.12C227.964 38.4093 223.713 38.967 219.906 40.7191C216.136 42.4781 212.848 45.4364 211.324 48.4746C210.154 51.0736 209.474 53.8653 209.319 56.7098C208.94 60.4338 209.578 64.1906 211.164 67.5835C213.489 72.2208 217.82 75.1791 224.157 76.3784C227.693 77.1658 231.356 77.193 234.904 76.4584C237.321 75.8707 239.486 74.5255 241.08 72.6206C244.127 69.0227 245.17 63.9057 246.133 58.9485C246.213 58.3889 246.373 57.8292 246.453 57.2695C247.496 52.3124 247.095 48.7944 245.17 46.076C243.245 43.3576 240.278 41.5986 235.225 39.9196L232.097 39.12Z" fill="black"/>
<path d="M245.25 53.9925C242.604 52.9531 238.353 53.193 234.423 57.1107C230.493 61.0285 225.841 66.7851 228.247 72.5418C230.653 78.2984 236.348 78.2984 241 74.0609C245.652 69.8234 253.512 57.1907 245.25 53.9925Z" fill="white"/>
<path d="M233.22 77.3387H232.979C230.733 76.8589 228.969 75.1799 227.926 72.7013C226.884 70.2228 226.964 67.1046 228.648 63.9864C229.29 62.6272 230.653 60.3885 234.182 56.7906C235.807 55.0662 237.895 53.8449 240.198 53.2726C241.931 52.8896 243.738 53.0004 245.411 53.5924C246.358 53.9287 247.203 54.5027 247.863 55.2589C248.523 56.0151 248.977 56.9281 249.18 57.9099C249.421 59.5889 249.341 62.5472 246.855 67.0246C245.4 69.7456 243.534 72.2267 241.32 74.3804C238.754 76.699 235.786 77.8184 233.22 77.3387ZM243.727 53.9922C242.608 53.8195 241.467 53.8465 240.358 54.0721C238.213 54.6142 236.267 55.7508 234.744 57.3502C233.14 59.0293 230.733 61.5878 229.37 64.3062C228.007 67.0246 227.606 69.903 228.648 72.3815C229.014 73.3792 229.611 74.2762 230.392 74.999C231.173 75.7217 232.114 76.2495 233.14 76.5391C235.546 77.0188 238.273 76.0594 240.759 73.8207C242.902 71.6854 244.738 69.2636 246.213 66.6249C247.977 63.2668 248.779 60.2286 248.378 58.0698C248.222 57.227 247.842 56.4413 247.278 55.7945C246.714 55.1477 245.986 54.6634 245.17 54.392L243.727 53.9922Z" fill="black"/>
<path d="M235.385 75.9799C233.06 75.3403 232.498 71.4226 237.07 66.8652C241.641 62.3079 244.368 62.6277 246.293 63.9069C248.218 65.1862 248.619 70.1433 243.566 73.1016C238.513 76.0599 237.792 76.6995 235.385 75.9799Z" fill="black"/>
<path d="M236.187 76.6196L235.305 76.3797C234.824 76.2427 234.39 75.9763 234.05 75.6096C233.711 75.2429 233.479 74.7902 233.38 74.3009C233.08 73.1451 233.223 71.9193 233.781 70.8629C234.473 69.2447 235.514 67.798 236.829 66.6254C239.021 64.44 240.946 63.1607 242.604 62.7876C243.273 62.6301 243.968 62.6127 244.644 62.7366C245.321 62.8604 245.964 63.1228 246.534 63.5072C247.059 63.9411 247.471 64.4945 247.736 65.1207C248.002 65.7469 248.112 66.4275 248.058 67.1051C248.058 68.3044 247.576 71.2627 243.807 73.5014L242.524 74.221C239.075 76.2198 237.952 76.9394 236.187 76.6196ZM244.449 63.5072C243.886 63.4538 243.319 63.4807 242.764 63.5872C241.24 63.9869 239.476 65.1862 237.391 67.1851C233.701 70.8629 233.942 73.4215 234.102 74.0611C234.178 74.4225 234.354 74.7559 234.609 75.024C234.863 75.2922 235.188 75.4847 235.546 75.5802C237.551 76.2198 238.273 75.8201 242.123 73.5014L243.406 72.7818C246.774 70.783 247.175 68.1445 247.256 67.1051C247.291 66.5654 247.2 66.025 246.992 65.5258C246.783 65.0266 246.462 64.5821 246.053 64.2268C245.568 63.8891 245.024 63.645 244.449 63.5072Z" fill="black"/>
<path d="M216.377 46.3969C221.43 46.9566 224.237 52.8731 224.397 58.4699C224.558 64.0666 223.675 70.8627 217.019 71.4224C210.362 71.9821 208.276 65.9855 208.196 58.7897C208.116 51.5939 210.362 45.7573 216.377 46.3969Z" fill="white"/>
<path d="M214.773 71.8219C213.53 71.5888 212.369 71.0378 211.404 70.2229C209.078 68.1441 207.875 64.3063 207.795 58.7895C207.715 53.2727 208.838 49.6748 211.083 47.596C211.793 46.9575 212.636 46.4832 213.551 46.2068C214.466 45.9304 215.431 45.8587 216.377 45.9969C217.674 46.1823 218.909 46.6699 219.982 47.42C221.055 48.1701 221.936 49.1617 222.553 50.3144C223.977 52.7723 224.75 55.5515 224.798 58.3897C224.959 61.9876 224.558 64.866 223.676 66.9448C223.172 68.3129 222.284 69.5078 221.118 70.3867C219.952 71.2657 218.557 71.7917 217.099 71.9019C216.323 71.9568 215.543 71.93 214.773 71.8219ZM216.297 46.7964C215.469 46.6938 214.63 46.7614 213.829 46.9952C213.029 47.229 212.286 47.624 211.645 48.1557C209.56 50.0745 208.517 53.8324 208.597 58.7895C208.677 63.7466 209.88 67.7443 211.966 69.5832C212.644 70.1886 213.451 70.6327 214.326 70.882C215.201 71.1312 216.122 71.1793 217.019 71.0224C218.384 70.9611 219.699 70.487 220.788 69.6632C221.739 68.8503 222.458 67.8025 222.874 66.6249C223.853 64.024 224.237 61.2376 223.996 58.4697C223.939 55.7442 223.195 53.077 221.831 50.7142C221.275 49.6792 220.486 48.7868 219.526 48.1071C218.565 47.4273 217.46 46.9787 216.297 46.7964Z" fill="black"/>
<path d="M215.575 69.5829C213.249 70.0626 209.88 69.423 208.116 65.4253C206.351 61.4276 206.672 54.6315 211.244 54.0719C215.816 53.5122 217.099 57.1101 217.981 60.3882C218.863 63.6663 219.024 68.8633 215.575 69.5829Z" fill="black"/>
<path d="M213.009 69.9829L211.485 69.5831C209.763 68.7783 208.414 67.3483 207.715 65.5854C207.069 64.0655 206.716 62.4382 206.672 60.7882C206.611 59.1529 206.97 57.529 207.715 56.0709C208.055 55.4252 208.546 54.8703 209.146 54.4529C209.746 54.0355 210.438 53.7678 211.164 53.6723C213.41 53.4325 215.014 53.9922 216.297 55.5113C217.252 56.956 217.957 58.5507 218.382 60.2285C219.104 62.7871 219.264 66.305 218.061 68.3039C217.793 68.73 217.442 69.0982 217.029 69.3866C216.616 69.675 216.149 69.8778 215.655 69.9829C214.78 70.1437 213.883 70.1437 213.009 69.9829ZM213.089 54.4719H211.244C210.65 54.5583 210.086 54.7847 209.598 55.1324C209.109 55.4801 208.711 55.9389 208.437 56.4707C207.818 57.8546 207.498 59.3529 207.498 60.8682C207.498 62.3835 207.818 63.8818 208.437 65.2656C210.522 69.823 214.372 69.4232 215.495 69.1833C215.88 69.1236 216.246 68.9773 216.565 68.7557C216.885 68.534 217.15 68.2428 217.34 67.9041C218.142 66.5449 218.543 63.7465 217.58 60.4684C217.24 58.889 216.586 57.3936 215.655 56.0709C215.016 55.2529 214.107 54.6865 213.089 54.4719Z" fill="black"/>
<path d="M224.317 72.5409C226.964 73.3405 228.568 74.2199 228.408 76.2987C228.247 78.3775 227.285 78.5374 222.713 77.3381C218.142 76.1388 218.302 74.2199 218.863 73.1805C219.425 72.1411 220.628 71.3416 224.317 72.5409Z" fill="#BCCBFD"/>
<path d="M225.199 78.3781L222.633 77.7385C220.227 77.1522 218.783 76.2727 218.302 75.1C218.176 74.759 218.132 74.3931 218.174 74.032C218.215 73.6709 218.342 73.3247 218.542 73.0212C219.505 71.4222 221.269 71.1823 224.397 72.1417C226.804 72.8613 229.049 73.8208 228.809 76.2993C228.811 76.6446 228.741 76.9866 228.602 77.3033C228.464 77.6199 228.261 77.9044 228.007 78.1383C227.135 78.5689 226.132 78.6546 225.199 78.3781ZM222.472 72.4616C219.986 72.0618 219.505 72.9413 219.264 73.421C219.133 73.6193 219.05 73.8455 219.022 74.0816C218.994 74.3177 219.022 74.5569 219.104 74.7802C219.345 75.4198 220.227 76.2993 222.793 77.0189C225.36 77.7385 226.884 77.8984 227.525 77.4986C228.167 77.0989 227.926 76.939 228.007 76.2194C228.087 75.4998 227.205 73.8208 224.157 72.9413L222.472 72.4616Z" fill="black"/>
<path d="M221.349 73.4215C222.071 73.8213 222.392 73.9812 222.071 74.5409C221.75 75.1006 221.43 75.1006 220.868 74.9407C220.74 74.9151 220.62 74.8617 220.515 74.7841C220.411 74.7066 220.324 74.6069 220.263 74.4922C220.202 74.3775 220.167 74.2507 220.16 74.1208C220.154 73.991 220.177 73.8614 220.227 73.7414C220.467 73.1817 220.708 73.1817 221.349 73.4215Z" fill="#6E8CFB"/>
<path d="M221.109 75.4202H220.708C220.335 75.2961 220.021 75.0401 219.826 74.7006C219.703 74.3649 219.703 73.9969 219.826 73.6612C219.986 73.4214 220.146 73.1016 220.467 73.0216C220.788 72.9416 221.109 73.0216 221.51 73.1815C221.911 73.3414 222.392 73.5813 222.553 73.981C222.598 74.1122 222.614 74.2516 222.6 74.3896C222.587 74.5276 222.543 74.661 222.472 74.7806C222.365 75.0368 222.166 75.2441 221.914 75.3623C221.662 75.4805 221.375 75.5011 221.109 75.4202ZM220.708 73.6612C220.697 73.7457 220.67 73.8273 220.628 73.9011C220.573 73.9989 220.546 74.1091 220.547 74.2209C220.642 74.3684 220.783 74.4808 220.948 74.5407C221.51 74.7006 221.59 74.6207 221.751 74.3808V74.2209C221.751 74.141 221.67 74.061 221.189 73.8211L220.708 73.6612Z" fill="black"/>
<path d="M226.162 75.0211C227.125 75.3409 227.445 75.5808 226.964 76.2204C226.815 76.4526 226.585 76.6217 226.319 76.6955C226.053 76.7692 225.768 76.7424 225.52 76.6202C225.391 76.5995 225.269 76.5475 225.164 76.4689C225.06 76.3902 224.976 76.2872 224.921 76.1689C224.865 76.0506 224.84 75.9206 224.847 75.7902C224.853 75.6598 224.892 75.533 224.959 75.4209C225.28 74.7813 225.52 74.7813 226.162 75.0211Z" fill="#6E8CFB"/>
<path d="M225.761 77.0996H225.36C225.009 76.9721 224.722 76.7142 224.558 76.38C224.428 76.0456 224.428 75.6749 224.558 75.3406C225.039 74.3811 225.6 74.4611 226.322 74.7009C226.884 74.9408 227.445 75.1007 227.525 75.5804C227.606 76.0602 227.365 76.38 227.285 76.5399C227.116 76.7748 226.881 76.9538 226.609 77.0536C226.337 77.1534 226.042 77.1694 225.761 77.0996ZM225.681 75.2606C225.52 75.2606 225.44 75.3406 225.36 75.5804C225.302 75.7056 225.275 75.8425 225.28 75.9802L225.681 76.2201C226.162 76.38 226.403 76.3 226.643 75.9802L226.804 75.7403L226.082 75.4205L225.681 75.2606Z" fill="black"/>
<path d="M235.465 50.235C234.262 50.1551 231.696 46.9569 230.653 43.8387C229.61 40.7205 228.488 37.2825 230.493 34.4042C232.498 31.5259 236.428 32.5653 237.711 33.5247C238.994 34.4841 241.481 36.8028 240.037 41.9198C238.593 47.0369 236.909 50.315 235.465 50.235Z" fill="#14CD78"/>
<path d="M235.385 50.6344C233.701 50.3146 231.295 46.8766 230.252 43.9982C229.209 41.1199 228.006 37.2022 230.172 34.2439C230.512 33.7002 230.969 33.2388 231.51 32.8931C232.051 32.5474 232.662 32.326 233.3 32.245C234.916 31.968 236.578 32.3107 237.952 33.2045C240.679 35.2033 241.481 38.2416 240.438 42.0793C239.919 44.2077 239.166 46.2723 238.192 48.2358C237.23 49.9148 236.348 50.7143 235.465 50.6344H235.385ZM235.385 33.0446C234.749 32.9255 234.096 32.9255 233.46 33.0446C232.932 33.1141 232.424 33.2921 231.969 33.5673C231.513 33.8426 231.12 34.2091 230.814 34.6436C229.952 35.8788 229.58 37.3887 229.771 38.8812C229.963 40.5253 230.367 42.1378 230.974 43.6784C231.558 45.1871 232.34 46.612 233.3 47.916C234.343 49.2752 235.145 49.8348 235.546 49.8348C235.947 49.8348 236.749 49.1153 237.47 47.836C238.391 45.9052 239.142 43.899 239.716 41.8395C240.598 38.3215 239.877 35.6031 237.47 33.8441C236.843 33.4282 236.131 33.1552 235.385 33.0446Z" fill="black"/>
<path d="M235.385 43.9185C235.23 43.8989 235.086 43.823 234.983 43.7051C234.879 43.5872 234.823 43.4355 234.824 43.2789C234.106 38.5167 234.462 33.6548 235.867 29.0471C236.027 28.6474 236.348 28.4075 236.749 28.5674C236.844 28.5839 236.934 28.6216 237.013 28.6777C237.091 28.7337 237.156 28.8068 237.203 28.8913C237.249 28.9759 237.275 29.0698 237.28 29.166C237.285 29.2622 237.268 29.3582 237.23 29.4469C235.907 33.8503 235.551 38.4863 236.188 43.039C236.211 43.1336 236.215 43.2321 236.199 43.3283C236.184 43.4245 236.148 43.5165 236.096 43.5988C236.043 43.681 235.975 43.7518 235.894 43.8067C235.813 43.8617 235.722 43.8997 235.626 43.9185H235.385Z" fill="#B1F7C5"/>
<path d="M236.669 28.5671H236.749C236.844 28.5836 236.934 28.6213 237.013 28.6774C237.091 28.7334 237.156 28.8065 237.203 28.8911C237.249 28.9756 237.275 29.0695 237.28 29.1657C237.285 29.2619 237.268 29.3579 237.23 29.4466C235.907 33.85 235.551 38.486 236.187 43.0387C236.211 43.1334 236.215 43.2318 236.199 43.328C236.184 43.4242 236.148 43.5162 236.096 43.5985C236.043 43.6807 235.975 43.7515 235.894 43.8064C235.813 43.8614 235.722 43.8994 235.626 43.9182H235.385C235.23 43.8986 235.086 43.8227 234.983 43.7048C234.879 43.5869 234.823 43.4353 234.824 43.2786C234.106 38.5164 234.462 33.6545 235.867 29.0468C235.885 28.9615 235.921 28.8808 235.972 28.8098C236.023 28.7388 236.088 28.679 236.164 28.634C236.239 28.5891 236.322 28.56 236.409 28.5484C236.496 28.5369 236.584 28.5433 236.669 28.5671ZM236.829 27.6876C236.452 27.6487 236.072 27.738 235.751 27.9412C235.431 28.1444 235.189 28.4495 235.065 28.807C233.658 33.5512 233.302 38.5436 234.022 43.4385C234.065 43.7495 234.204 44.0396 234.42 44.2686C234.635 44.4977 234.916 44.6546 235.225 44.7178H235.786C236.178 44.6402 236.524 44.4125 236.749 44.0835C236.974 43.7545 237.06 43.3507 236.99 42.9588C236.351 38.5122 236.707 33.9798 238.032 29.6865C238.135 29.2945 238.084 28.8783 237.89 28.5222C237.697 28.166 237.375 27.8963 236.99 27.7676L236.829 27.6876Z" fill="black"/>
<path d="M241.802 65.5854C241.08 66.2251 239.957 66.9446 239.315 66.2251C238.674 65.5055 239.476 64.4661 240.117 63.8265C240.759 63.1868 241.882 62.4672 242.604 63.1868C243.326 63.9064 242.443 64.9458 241.802 65.5854Z" fill="white"/>
<path d="M239.716 66.8649C239.434 66.8279 239.175 66.685 238.995 66.4651C238.804 66.2324 238.688 65.9487 238.659 65.6499C238.631 65.351 238.691 65.0505 238.834 64.7861C239.099 64.2991 239.453 63.8653 239.877 63.5069C240.266 63.1241 240.73 62.8248 241.24 62.6274C241.503 62.4863 241.807 62.4411 242.1 62.4995C242.393 62.5578 242.656 62.7162 242.844 62.9472C243.566 63.6668 243.245 64.7861 242.042 65.9055C241.756 66.2348 241.397 66.4931 240.993 66.6597C240.589 66.8262 240.152 66.8965 239.716 66.8649ZM242.042 63.347C241.952 63.2993 241.849 63.2814 241.749 63.2957C241.648 63.3101 241.554 63.356 241.481 63.4269C241.067 63.553 240.702 63.8045 240.438 64.1465C240.076 64.4088 239.798 64.7697 239.636 65.1859C239.396 65.6656 239.556 65.8255 239.636 65.9055C239.716 65.9854 239.877 66.2253 240.438 65.9854C240.852 65.8593 241.217 65.6078 241.481 65.2658C241.821 64.9817 242.095 64.627 242.283 64.2264C242.524 63.7467 242.363 63.5069 242.283 63.5069L242.042 63.347Z" fill="black"/>
<path d="M210.362 58.1493C209.961 58.7889 209.159 59.5885 208.517 58.8689C207.875 58.1493 208.357 57.0299 208.758 56.3903C209.159 55.7507 209.961 54.9511 210.602 55.6707C211.244 56.3903 210.843 57.5097 210.362 58.1493Z" fill="white"/>
<path d="M208.918 59.5887C208.664 59.5335 208.437 59.3922 208.276 59.189C207.474 58.3894 207.795 57.1102 208.357 56.1507C208.918 55.1913 209.239 55.0314 209.88 54.9514C210.265 54.9558 210.635 55.0977 210.923 55.3512C211.886 56.3906 211.003 57.9097 210.763 58.3894C210.522 58.8691 209.88 59.5088 209.239 59.5887H208.918ZM210.041 55.751H209.961C209.589 55.9552 209.283 56.2601 209.078 56.6304C208.853 56.9434 208.69 57.2961 208.597 57.6698C208.571 57.8377 208.579 58.009 208.621 58.1737C208.662 58.3384 208.736 58.4933 208.838 58.6293L209.159 58.7892C209.53 58.585 209.836 58.2801 210.041 57.9097C210.266 57.5968 210.429 57.244 210.522 56.8703C210.573 56.7037 210.578 56.5263 210.535 56.3573C210.493 56.1883 210.405 56.0339 210.281 55.9109L210.041 55.751Z" fill="black"/>
<path d="M241.642 74.9402C241 75.5798 239.797 76.2994 239.155 75.5798C238.514 74.8602 239.316 73.8208 239.957 73.1812C240.599 72.5416 241.802 71.822 242.444 72.5416C243.085 73.2611 242.283 74.3805 241.642 74.9402Z" fill="white"/>
<path d="M239.636 76.2996C239.363 76.2351 239.114 76.0968 238.915 75.8998C238.701 75.6814 238.563 75.4012 238.52 75.0994C238.477 74.7976 238.53 74.49 238.674 74.2208C238.967 73.7288 239.317 73.2727 239.717 72.8616C240.106 72.4788 240.57 72.1795 241.08 71.9821C241.358 71.849 241.672 71.8082 241.975 71.8658C242.278 71.9233 242.555 72.0762 242.764 72.3019C243.406 73.0215 243.085 74.1408 241.882 75.2602C241.493 75.643 241.029 75.9423 240.519 76.1397C240.242 76.2645 239.939 76.3194 239.636 76.2996ZM241.882 72.7017H241.321C240.921 72.8565 240.564 73.1031 240.278 73.4213C239.938 73.7054 239.664 74.0601 239.476 74.4607C239.235 74.9404 239.396 75.1802 239.476 75.2602C239.556 75.3402 239.717 75.5001 240.278 75.3401C240.661 75.1558 241.013 74.913 241.321 74.6206C241.667 74.3423 241.942 73.9861 242.123 73.5812C242.363 73.0215 242.203 72.8616 242.123 72.7816C242.042 72.7017 242.042 72.7017 241.882 72.7017Z" fill="black"/>
<path d="M217.74 67.1047C217.72 67.2732 217.667 67.4361 217.584 67.584C217.5 67.7318 217.388 67.8616 217.254 67.9657C217.119 68.0699 216.965 68.1464 216.801 68.1907C216.637 68.2351 216.465 68.2464 216.297 68.2241C216.105 68.2289 215.915 68.1846 215.745 68.0955C215.575 68.0064 215.431 67.8754 215.327 67.7151C215.222 67.5547 215.161 67.3703 215.148 67.1795C215.135 66.9887 215.172 66.7978 215.254 66.625C215.328 66.2796 215.521 65.971 215.799 65.7521C216.078 65.5332 216.424 65.4178 216.778 65.4257C217.119 65.5364 217.406 65.7697 217.584 66.08C217.762 66.3904 217.818 66.7557 217.74 67.1047Z" fill="white"/>
<path d="M216.216 68.6242C215.774 68.5603 215.373 68.3317 215.094 67.9845C214.942 67.7809 214.841 67.5441 214.799 67.2939C214.757 67.0436 214.776 66.7871 214.853 66.5454C214.963 66.1019 215.222 65.7092 215.586 65.4328C215.951 65.1564 216.4 65.0129 216.858 65.0262C217.3 65.1399 217.681 65.42 217.92 65.8076C218.16 66.1953 218.239 66.6603 218.141 67.105C218.122 67.3335 218.056 67.5556 217.947 67.7577C217.838 67.9597 217.689 68.1373 217.509 68.2797C217.328 68.422 217.12 68.526 216.898 68.5852C216.676 68.6445 216.444 68.6577 216.216 68.6242ZM216.698 65.8258C216.297 65.7458 215.815 66.1456 215.655 66.7053C215.595 66.9734 215.623 67.2538 215.735 67.5048C215.81 67.6041 215.907 67.6847 216.018 67.7402C216.13 67.7957 216.252 67.8246 216.377 67.8246C216.493 67.8356 216.61 67.8236 216.721 67.7893C216.832 67.755 216.936 67.699 217.025 67.6247C217.115 67.5504 217.188 67.4591 217.242 67.3562C217.296 67.2533 217.329 67.1408 217.339 67.0251C217.376 66.9043 217.389 66.7775 217.377 66.6518C217.365 66.5261 217.328 66.4041 217.268 66.2926C217.209 66.1812 217.128 66.0826 217.03 66.0025C216.932 65.9224 216.819 65.8623 216.698 65.8258Z" fill="black"/>
<path d="M113.55 98.137L112.587 98.2969H110.823L110.502 98.057L110.342 97.8971H110.261L109.941 97.4974L109.54 96.9377C109.18 96.3301 108.884 95.687 108.657 95.0188C108.553 94.8039 108.371 94.6356 108.149 94.5469C107.926 94.4582 107.679 94.4554 107.454 94.5391C107.253 94.6566 107.101 94.843 107.028 95.0636C106.954 95.2842 106.963 95.524 107.053 95.7384C107.615 97.1776 108.256 98.6167 109.54 99.4962C110.823 100.376 112.347 100.376 113.871 100.056C115.394 99.7361 114.753 99.4962 114.592 99.0165C114.595 98.8862 114.568 98.7571 114.514 98.6384C114.46 98.5198 114.38 98.4146 114.28 98.3304C114.18 98.2463 114.063 98.1852 113.937 98.1518C113.81 98.1183 113.678 98.1133 113.55 98.137Z" fill="#BD1F59"/>
<path d="M104.888 96.2982C104.841 96.188 104.772 96.0881 104.686 96.0043C104.6 95.9205 104.498 95.8545 104.386 95.81C104.274 95.7654 104.155 95.7432 104.035 95.7447C103.914 95.7462 103.796 95.7712 103.685 95.8185C103.574 95.8657 103.474 95.9342 103.39 96.0201C103.306 96.1059 103.24 96.2074 103.195 96.3188C103.15 96.4301 103.128 96.5492 103.13 96.6691C103.131 96.7891 103.156 96.9075 103.204 97.0178C103.233 97.0502 103.255 97.0882 103.269 97.1295C103.282 97.1707 103.288 97.2143 103.284 97.2576C103.284 97.4176 103.364 97.4975 103.364 97.6574V98.1371C103.335 98.1696 103.313 98.2076 103.299 98.2488C103.285 98.2901 103.28 98.3337 103.284 98.377C103.284 98.5369 103.204 98.6169 103.204 98.7768L103.043 99.0966C103.043 99.0166 103.124 99.0166 103.043 99.0166V99.1765L102.883 99.3364L102.642 99.6563H102.482L102.241 99.8961L102.081 100.056C102.161 99.9761 102.161 99.9761 102.081 99.9761L101.68 100.136H101.519L100.717 100.296C100.601 100.315 100.489 100.357 100.389 100.421C100.289 100.484 100.203 100.566 100.135 100.663C100.068 100.76 100.021 100.87 99.997 100.985C99.973 101.1 99.9725 101.22 99.9956 101.335C100.052 101.561 100.189 101.758 100.381 101.89C100.573 102.023 100.806 102.081 101.038 102.055C101.716 102.003 102.373 101.796 102.957 101.449C103.542 101.102 104.038 100.625 104.407 100.056C104.748 99.4987 104.967 98.8759 105.05 98.2283C105.133 97.5808 105.078 96.923 104.888 96.2982Z" fill="#BD1F59"/>
<path d="M106.011 105.413C105.808 104.757 105.383 104.192 104.808 103.814C104.264 103.523 103.66 103.359 103.043 103.334C102.366 103.369 101.693 103.476 101.038 103.654C100.808 103.714 100.608 103.856 100.477 104.054C100.394 104.136 100.336 104.239 100.308 104.351C100.279 104.464 100.282 104.582 100.317 104.693C100.336 104.81 100.378 104.921 100.442 105.021C100.505 105.12 100.588 105.206 100.685 105.274C100.782 105.341 100.892 105.388 101.008 105.412C101.124 105.436 101.243 105.436 101.359 105.413L102.161 105.253H104.006C104.006 105.333 104.006 105.333 104.086 105.333V105.493C104.086 105.573 104.086 105.573 104.166 105.653V105.893C104.247 106.133 104.247 106.372 104.327 106.612C104.335 106.964 104.389 107.314 104.487 107.652C104.623 107.845 104.821 107.986 105.049 108.051C105.255 108.132 105.484 108.132 105.69 108.051C105.904 107.955 106.075 107.785 106.171 107.572C106.251 107.338 106.251 107.086 106.171 106.852C106.252 107.092 106.171 106.852 106.091 106.772V106.612C106.091 106.452 106.011 106.293 106.011 106.133C106.038 105.893 106.038 105.652 106.011 105.413Z" fill="#BD1F59"/>
<path d="M113.309 101.895C112.651 101.978 112.005 102.14 111.384 102.374C110.744 102.575 110.165 102.932 109.7 103.414C109.368 103.885 109.152 104.427 109.068 104.996C108.985 105.565 109.036 106.146 109.219 106.692C109.258 106.932 109.388 107.149 109.582 107.297C109.775 107.445 110.018 107.515 110.261 107.492C110.488 107.435 110.686 107.298 110.818 107.107C110.951 106.916 111.01 106.683 110.983 106.452C110.983 106.212 110.903 105.972 110.903 105.812C110.903 105.653 110.903 105.573 110.823 105.493C110.823 105.333 110.903 105.253 110.903 105.173H111.464L112.186 104.853H112.427L112.828 104.693H113.63C113.856 104.637 114.054 104.5 114.187 104.309C114.32 104.118 114.378 103.885 114.352 103.654C114.586 103.516 114.755 103.291 114.823 103.029C114.891 102.766 114.851 102.488 114.713 102.255C114.574 102.021 114.349 101.852 114.086 101.785C113.822 101.717 113.543 101.757 113.309 101.895Z" fill="#BD1F59"/>
<path d="M124.939 133.396L124.698 132.837L124.458 132.277C124.368 132.153 124.246 132.057 124.103 132C123.961 131.944 123.806 131.929 123.656 131.957C123.415 131.957 123.255 132.197 123.174 132.437C123.109 132.671 123.082 132.914 123.094 133.157V133.556C123.094 133.796 123.014 133.956 123.014 134.116C122.894 134.534 122.894 134.977 123.014 135.395C123.088 135.61 123.215 135.804 123.383 135.957C123.551 136.111 123.755 136.22 123.976 136.275C124.182 136.304 124.392 136.282 124.587 136.213C124.783 136.143 124.959 136.027 125.099 135.875C125.741 135.075 125.26 134.196 124.939 133.396Z" fill="#D4F1FF"/>
<path d="M131.756 130.279C131.724 130.124 131.656 129.979 131.559 129.854C131.462 129.73 131.337 129.629 131.195 129.559C131.059 129.458 130.903 129.384 130.738 129.343C130.573 129.302 130.401 129.294 130.232 129.319H129.35L128.869 129.16H128.709L128.468 129C128.361 128.94 128.235 128.923 128.115 128.952C127.996 128.982 127.893 129.056 127.826 129.16C127.747 129.248 127.704 129.361 127.704 129.479C127.704 129.597 127.747 129.711 127.826 129.799C127.823 129.843 127.828 129.886 127.842 129.927C127.855 129.969 127.878 130.007 127.907 130.039C128.244 130.592 128.678 131.08 129.19 131.478C129.417 131.704 129.699 131.867 130.008 131.951C130.318 132.036 130.644 132.038 130.954 131.958C131.121 131.904 131.274 131.818 131.405 131.703C131.537 131.588 131.643 131.448 131.718 131.291C131.793 131.134 131.835 130.963 131.842 130.789C131.849 130.615 131.819 130.441 131.756 130.279Z" fill="#D4F1FF"/>
</g>
</g>
<defs>
<linearGradient id="paint0_linear_119_595" x1="11.6593" y1="190.586" x2="267.732" y2="84.72" gradientUnits="userSpaceOnUse">
<stop stop-color="#FFE75C"/>
<stop offset="0.32" stop-color="#FC78C0"/>
<stop offset="0.92" stop-color="#5221DB"/>
</linearGradient>
<linearGradient id="paint1_linear_119_595" x1="292" y1="-122" x2="211.451" y2="228.13" gradientUnits="userSpaceOnUse">
<stop stop-color="#3736BB"/>
<stop offset="0.339235" stop-color="#4670E8"/>
<stop offset="0.492065" stop-color="#8377EB"/>
<stop offset="0.823236" stop-color="#E782F1"/>
<stop offset="0.899558" stop-color="#DF90AF"/>
</linearGradient>
<linearGradient id="paint2_linear_119_595" x1="172.38" y1="107.288" x2="173.958" y2="149.104" gradientUnits="userSpaceOnUse">
<stop offset="0.05" stop-color="#698EFF"/>
<stop offset="0.28" stop-color="#6388FA"/>
<stop offset="0.6" stop-color="#5178EC"/>
<stop offset="0.7" stop-color="#4A72E7"/>
</linearGradient>
<linearGradient id="paint3_linear_119_595" x1="95.4893" y1="123.065" x2="107.888" y2="136.272" gradientUnits="userSpaceOnUse">
<stop offset="0.05" stop-color="#698EFF"/>
<stop offset="0.28" stop-color="#6388FA"/>
<stop offset="0.6" stop-color="#5178EC"/>
<stop offset="0.7" stop-color="#4A72E7"/>
</linearGradient>
<linearGradient id="paint4_linear_119_595" x1="108.771" y1="117.805" x2="104.618" y2="139.861" gradientUnits="userSpaceOnUse">
<stop offset="0.15" stop-color="#698EFF"/>
<stop offset="0.38" stop-color="#6388FA"/>
<stop offset="0.68" stop-color="#5178EC"/>
<stop offset="0.78" stop-color="#4A72E7"/>
</linearGradient>
<linearGradient id="paint5_linear_119_595" x1="166.759" y1="129.454" x2="213.231" y2="153.8" gradientUnits="userSpaceOnUse">
<stop offset="0.05" stop-color="#698EFF"/>
<stop offset="0.28" stop-color="#6388FA"/>
<stop offset="0.6" stop-color="#5178EC"/>
<stop offset="0.7" stop-color="#4A72E7"/>
</linearGradient>
<linearGradient id="paint6_linear_119_595" x1="114.794" y1="135.098" x2="101.333" y2="179.783" gradientUnits="userSpaceOnUse">
<stop offset="0.05" stop-color="#698EFF"/>
<stop offset="0.5" stop-color="#5178EC"/>
<stop offset="0.61" stop-color="#4A72E7"/>
</linearGradient>
<linearGradient id="paint7_linear_119_595" x1="129.772" y1="124.314" x2="142.09" y2="72.8547" gradientUnits="userSpaceOnUse">
<stop offset="0.09" stop-color="#FF8C19"/>
<stop offset="0.17" stop-color="#FF9719"/>
<stop offset="0.4" stop-color="#FFB119"/>
<stop offset="0.61" stop-color="#FFC119"/>
<stop offset="0.77" stop-color="#FFC619"/>
</linearGradient>
<linearGradient id="paint8_linear_119_595" x1="126.261" y1="110.466" x2="130.25" y2="92.7898" gradientUnits="userSpaceOnUse">
<stop offset="0.3" stop-color="#FFC619"/>
<stop offset="0.32" stop-color="#FFC619" stop-opacity="0.92"/>
<stop offset="0.4" stop-color="#FFC619" stop-opacity="0.65"/>
<stop offset="0.48" stop-color="#FFC619" stop-opacity="0.42"/>
<stop offset="0.55" stop-color="#FFC619" stop-opacity="0.24"/>
<stop offset="0.61" stop-color="#FFC619" stop-opacity="0.11"/>
<stop offset="0.66" stop-color="#FFC619" stop-opacity="0.03"/>
<stop offset="0.69" stop-color="#FFC619" stop-opacity="0"/>
</linearGradient>
<linearGradient id="paint9_linear_119_595" x1="44.4103" y1="114.67" x2="45.7386" y2="140.973" gradientUnits="userSpaceOnUse">
<stop stop-color="white"/>
<stop offset="1" stop-color="#FFF400"/>
</linearGradient>
<linearGradient id="paint10_linear_119_595" x1="60.4543" y1="135.154" x2="60.9099" y2="144.178" gradientUnits="userSpaceOnUse">
<stop stop-color="white"/>
<stop offset="1" stop-color="#2458FF"/>
</linearGradient>
<linearGradient id="paint11_linear_119_595" x1="30.3922" y1="136.672" x2="30.8479" y2="145.695" gradientUnits="userSpaceOnUse">
<stop stop-color="white"/>
<stop offset="1" stop-color="#2458FF"/>
</linearGradient>
<linearGradient id="paint12_linear_119_595" x1="46.188" y1="148.667" x2="47.0074" y2="164.893" gradientUnits="userSpaceOnUse">
<stop stop-color="white"/>
<stop offset="0.12" stop-color="#FBFCFF"/>
<stop offset="0.26" stop-color="#EDF2FF"/>
<stop offset="0.4" stop-color="#D7E1FF"/>
<stop offset="0.54" stop-color="#B9C9FF"/>
<stop offset="0.69" stop-color="#91ABFF"/>
<stop offset="0.84" stop-color="#6086FF"/>
<stop offset="0.99" stop-color="#285BFF"/>
<stop offset="1" stop-color="#2458FF"/>
</linearGradient>
<clipPath id="clip0_119_595">
<rect width="279" height="175" fill="white"/>
</clipPath>
<clipPath id="clip1_119_595">
<rect width="242" height="163.679" fill="white" transform="translate(18.5)"/>
</clipPath>
</defs>
</svg>
