<svg fill="none" height="121" viewBox="0 0 135 121" width="135" xmlns="http://www.w3.org/2000/svg" xmlns:xlink="http://www.w3.org/1999/xlink"><clipPath id="a"><path d="m0 .5h135v120h-135z"/></clipPath><g clip-path="url(#a)"><path d="m44.6491 30.562c0-3.3129-2.4002-6.062-5.3652-6.062h-5.5769c-2.965 0-5.3652 2.6786-5.3652 6.062 0 .6344-.4236 1.1984-1.0589 1.1984h-1.6943c-2.5414 0-4.5886 2.3261-4.5886 5.1456h31.0615c0-2.2556-1.6237-4.1588-3.6709-4.1588h-1.6943c-1.2001 0-2.1178-.9868-2.0472-2.1852 0 0 0 .0705 0 0z" fill="#fff" opacity=".2"/><path d="m113.562 85.027h-31.062c.0706-2.8196 2.4002-5.0048 5.224-4.9343h5.6475c.4942 0 .9178-.3524.9178-.8458.0706-3.3835 2.9649-6.0621 6.3537-5.9916h.282c3.389-.141 6.212 2.5376 6.354 5.9916v1.7622c0 .9868.847 1.7622 1.835 1.6917h2.047c1.271-.0705 2.33.9164 2.401 2.3262 0-.0705 0-.0705 0 0z" fill="#fff" opacity=".2"/><path d="m38.5615 107.527h-31.0615c.07059-2.82 2.40021-5.005 5.224-4.934h5.6475c.4942 0 .9178-.353.9178-.846.0706-3.3836 2.9649-6.0622 6.3534-5.9917h.2824c3.3886-.141 6.2123 2.5376 6.3535 5.9917v1.762c0 .987.8472 1.762 1.8355 1.692h2.0472c1.2707-.071 2.3296.916 2.4002 2.326 0-.071 0-.071 0 0z" fill="#fff" opacity=".1"/><path d="m197.25 20.75h-99.75c0-8.3415 7.478-15.03658 16.798-15.03658h18.178c1.61 0 2.876-1.09755 2.876-2.63414 0-10.09756 9.089-18.32928 20.364-18.32928h.806c11.275 0 20.364 8.23172 20.364 18.32928v5.4878c.115 2.96342 2.761 5.26832 5.867 5.26832h6.673c4.142-.2195 7.709 2.9634 7.824 6.9146z" fill="#fff" opacity=".1"/><g clip-rule="evenodd" fill-rule="evenodd"><path d="m58.2111 43.7233 37.1037-13.5133-6.2243 12.1344c-1.2102 2.3786-3.285 4.2056-5.7747 5.1019l-29.5309 10.7899-1.0373-2.7923z" fill="#dae2ed"/><path d="m49.7066 42.4818 49.3103-17.9602c.2075-.0689.4149.0345.4841.2068.0346.1034.0346.2069 0 .2758l-1.9019 3.8265c-.2074.4481-.5878.7584-1.0373.9307l-1.2103.4482-37.1383 13.5132-5.4636 11.7207 1.0028 2.7923.7608 2.1028-12.414 4.5159-1.7982-4.8951 7.2617-15.5471c.4495-.8963 1.2103-1.5858 2.1439-1.9305z" fill="#eceff6"/><path d="m52.782 55.4439 5.4635-11.7206 37.1038-13.5133-1.2449 2.4476-34.5449 12.5825-5.0485 10.8588.6224 1.6547-1.314.4482z" fill="#c5cedd"/><path d="m38.9165 54.4433c-5.6019 11.8241-.5533 25.9234 11.3075 31.5424 11.8607 5.619 26.0037.5516 31.6401-11.2725 5.6365-11.8241.5533-25.9234-11.3074-31.5424-11.8954-5.5156-26.0038-.4827-31.6402 11.2725z" fill="#4f5d7f"/><path d="m46.4196 58.0278c-3.6308 7.6874-.3458 16.8571 7.3654 20.4767 7.7112 3.6197 16.9094.3448 20.5402-7.3426 3.6309-7.6874.3458-16.8571-7.3654-20.4767-7.6766-3.5852-16.8402-.3103-20.5402 7.3426z" fill="#7687b2"/><path d="m44.5186 45.8588c-.0345 3.6196 9.5094 12.4791 15.7683 17.3742 5.7747.0345 20.0906-.5516 23.4448-3.8265.3112-.2757.5187-.6549.5533-1.0686 0-.1379-.0346-.2758-.0692-.4137-2.0056-7.1358-6.7084-12.7548-13.2093-15.8229-8.1953-3.8954-17.9467-2.7923-26.1075 2.9302-.242.1723-.3804.4826-.3804.8273z" fill="#ff7f14"/><path d="m59.8717 64.4406s22.8224-13.6511 20.5056-16.4779c-2.386-2.9301-5.429-5.3087-8.8523-6.929-9.2327-4.378-19.4337-2.482-27.2832 3.0336-5.5327 3.8954 15.6299 20.3733 15.6299 20.3733z" fill="#ff903e"/><path d="m48.5645 59.0294c-3.0776 6.5153-.3112 14.2716 6.2243 17.3397s14.3159.3103 17.3934-6.2051c3.0776-6.5153.3112-14.2716-6.2243-17.3397-6.5355-3.0336-14.2813-.2757-17.3934 6.2051z" fill="#ebeff7"/><path d="m50.4655 59.9248c-2.5934 5.4812-.242 11.9965 5.2215 14.5819 5.4636 2.5855 12.0337.2413 14.6271-5.2053 2.5935-5.4467.2421-11.9965-5.2215-14.5819-5.4981-2.5855-12.0336-.2413-14.6271 5.2053z" fill="#dae2ed"/><path d="m66.9259 59.9592-5.9476-3.5507c-.3804-.2069-.8299-.2069-1.1757 0l-6.0514 3.3783c-.3804.2068-.6225.6205-.6225 1.0342l-.0691 6.929c0 .4136.2075.8273.5878 1.0341l5.9477 3.5507c.3804.2068.8299.2068 1.1757 0l6.0514-3.4128c.3804-.2068.6224-.6205.6224-1.0341l.0692-6.929c0-.3792-.2421-.7929-.5879-.9997z" fill="#c5cedd"/><path d="m56.9325 62.9923c-.8991 1.896-.0692 4.1367 1.8327 5.033s4.1495.0689 5.0486-1.827c.8991-1.896.0691-4.1368-1.7981-5.033-1.9019-.8619-4.1842-.069-5.0832 1.827z" fill="#b7c2ce"/><path d="m30.7568 86.9863h2.0748c.5186 0 .9682.4136.9682.9652v4.3091c-.0346 1.172.8645 2.1717 2.0747 2.2407 1.2103.0689 2.1785-.8618 2.2477-2.0684 0-.0689 0-.1034 0-.1723v-18.1326c0-1.31-1.0374-2.4131-2.386-2.4131 0 0 0 0-.0346 0h-7.3308c-1.314 0-2.386 1.0687-2.386 2.3786v.0345 8.0666c-.0346 2.6544 2.1094 4.7917 4.772 4.7917zm-4.9795-22.9243h4.1496v4.5504h-4.0804c.0346-1.4823.0346-3.0336-.0692-4.5504z" fill="#7196ff"/><path d="m27.2627 73.9899h17.4972c.2075 0 .3804-.1724.3804-.3792 0-.2069-.1729-.3792-.3804-.3792h-17.4972c-.2075 0-.3804-.1724-.3804-.3792v-2.7923c0-.2069-.1729-.3792-.3803-.3792-.2075 0-.3804.1723-.3804.3792v2.7923c.0346.6205.5187 1.1376 1.1411 1.1376z" fill="#e4e9f7"/><path d="m25.2236 71.7497h2.5935c.2075 0 .3804-.1724.3804-.3792v-7.9976c0-.2069-.1729-.3792-.3804-.3792h-2.5935c-.2074 0-.3803.1723-.3803.3792v7.9976c0 .2068.1383.3792.3803.3792-.0345 0-.0345 0 0 0z" fill="#000"/><path d="m25.8115 64.062h-1.5215c-.2074 0-.3803.1724-.3803.3792v3.8265c0 .2068.1729.3792.3803.3792h1.4178c1.1411 0 2.1093-.7929 2.3168-1.896.2075-1.241-.6224-2.4131-1.8673-2.6544-.1037 0-.242-.0345-.3458-.0345z" fill="#7196ff"/><path d="m33.7649 71.7497h2.5935c.2074 0 .3803-.1724.3803-.3792v-7.9976c0-.2069-.1729-.3792-.3803-.3792h-2.5935c-.2075 0-.3804.1723-.3804.3792v7.9976c0 .2068.1729.3792.3804.3792z" fill="#000"/><path d="m27.9907 65.8202c1.971-2.6889 5.1177-4.3091 8.4719-4.3091h14.1776c3.4579.0345 6.2589 2.8268 6.2589 6.3085v11.5828c0 2.3096-1.8673 4.2056-4.1841 4.2056h-20.4365c-3.4925-.0345-6.2934-2.8267-6.2934-6.3085v-5.2743c-.0346-2.2407.6916-4.4124 2.0056-6.205z" fill="#aec7ff"/><path d="m46.3525 61.5111h4.2532c3.4925.0345 6.2935 2.8268 6.2935 6.3085v10.066c0 2.3096-1.8673 4.2056-4.1841 4.2056h-6.3972c.1037-6.8255.1037-13.7201.0346-20.5801zm13.4859 14.9956 4.4262 1.3099c1.6944.4826 2.6626 2.2063 2.1785 3.8954-.4841 1.6892-2.2131 2.6544-3.9075 2.1718-1.0719-.3102-1.9018-1.1031-2.1785-2.1718l-1.314-4.4125c-.1037-.3102.0692-.6894.3804-.7928.1383-.0345.2766-.0345.4149 0z" fill="#7196ff"/><path d="m49.5671 86.9864h2.0748c.5187 0 .9682.4137.9682.9653v4.3091c-.0346 1.172.8645 2.1717 2.0748 2.2407 1.1757.0344 2.1785-.8618 2.2476-2.0684 0-.0689 0-.1034 0-.1723v-21.5109c0-1.31-1.0719-2.4131-2.3859-2.4131h-7.3309c-1.314 0-2.3859 1.1031-2.3859 2.4131v11.4449c-.0692 2.6543 2.0747 4.7916 4.7373 4.7916z" fill="#7196ff"/><path d="m35.8381 73.9894h17.4972c.2075 0 .3804-.1724.3804-.3792 0-.2069-.1729-.3792-.3804-.3792h-17.4972c-.2074 0-.3803-.1724-.3803-.3792v-2.7923c.0345-.2068-.1383-.3792-.3458-.4137-.2075-.0344-.3804.1379-.415.3448v.0689 2.7923c0 .6205.5187 1.1031 1.1411 1.1376z" fill="#e4e9f7"/><path d="m33.7649 71.7497h2.5935c.2074 0 .3803-.1724.3803-.3792v-7.9976c0-.2069-.1729-.3792-.3803-.3792h-2.5935c-.2075 0-.3804.1723-.3804.3792v7.9976c0 .2068.1729.3792.3804.3792z" fill="#000"/><path d="m33.6608 64.0621h8.5411c1.4178 0 2.5589-1.1376 2.5589-2.551h5.3598v11.1002h-5.3252c-.4841-2.7923-2.9393-3.9988-5.8785-3.9988h-5.187c-1.1411 0-2.1093-.7929-2.3168-1.896-.2075-1.241.6224-2.4131 1.8673-2.6544.1037.0345.2421 0 .3804 0z" fill="#7196ff"/><path d="m53.3018 61.6486h-19.5028c-3.4925 0-6.3281-2.8267-6.3281-6.3085v-11.7206c.0346-3.4818 2.8356-6.3085 6.3281-6.3085h19.5028c3.4925 0 6.2934 2.8267 6.328 6.3085v11.7206c-.0346 3.4818-2.8355 6.3085-6.328 6.3085z" fill="#80a7ff"/><path d="m49.1873 61.6479h-19.5028c-3.4925 0-6.3281-2.8267-6.3281-6.3429v-11.7207c.0346-3.4817 2.8356-6.274 6.3281-6.3085h19.5028c3.4925 0 6.328 2.8268 6.328 6.3085v11.7207c0 3.5162-2.8355 6.3429-6.328 6.3429z" fill="#9cb8ff"/><path d="m57.7278 53.8928h-4.6682v-11.376h4.6682c2.3168 0 4.2187 1.896 4.2187 4.2057v2.9646c0 2.3097-1.9019 4.2057-4.2187 4.2057z" fill="#9cb8ff"/><path d="m53.0596 51.3414v-6.3085c0-.2413.1729-.4137.4149-.4137h4.2187c1.1757 0 2.1094.9308 2.1094 2.1028v2.9647c0 1.172-.9337 2.1028-2.1094 2.1028h-4.2187c-.2074 0-.4149-.2068-.4149-.4481 0 0 0 .0344 0 0z" fill="#80a7ff"/><path d="m45.7281 50.2029c-1.1411 0-2.0748-.9307-2.0748-2.0683s.9337-2.0684 2.0748-2.0684 2.0748.9308 2.0748 2.0684-.9337 2.0683-2.0748 2.0683z" fill="#000"/><path d="m23.182 43.6189h14.3505c1.3832 0 2.5243 1.1376 2.5243 2.5165v2.9646c0 3.4818-2.8355 6.3085-6.3281 6.343h-6.7429c-3.4926 0-6.3281-2.8268-6.3281-6.3085v-2.9646c0-1.4134 1.1411-2.551 2.5243-2.551z" fill="#cbdaf7"/><path d="m30.7895 55.4443h-3.8038c-3.4925 0-6.328-2.8268-6.328-6.3085v-2.9646c0-1.3789 1.1411-2.5165 2.5243-2.5165h11.3766c1.3832 0 2.5243 1.1376 2.5243 2.5165v2.9646c0 3.4473-2.8009 6.274-6.2934 6.3085z" fill="#cbdaf7"/><path d="m29.0974 50.6514h2.7318c.5878.0345 1.0373.5171 1.0028 1.1031-.0346.5516-.4496.9653-1.0028.9998h-2.7318c-.5879-.0345-1.0374-.5171-1.0028-1.1032.0346-.5515.4495-.9652 1.0028-.9997zm-4.9794 0h1.0373c.5879.0345 1.0374.5171 1.0028 1.1031-.0345.5516-.4495.9653-1.0028.9998h-1.0373c-.5879-.0345-1.0374-.5171-1.0029-1.1032.0346-.5515.4842-.9652 1.0029-.9997z" fill="#9cb8ff"/><path d="m30.2378 57.9249h-1.6944c-.3804 0-.6916-.3102-.6916-.6894s.3112-.6895.6916-.6895h1.6944c.3804 0 .6916.3103.6916.6895s-.3112.6894-.6916.6894z" fill="#80a7ff"/><path d="m22.0764 39.8613s-6.0859 9.0662.4496 19.5114l3.7 2.1373 23.8598-1.0341 5.8093-7.7219-5.8093-15.4782h-20.4019z" fill="#4871e5" opacity=".4"/><path d="m41.0942 31.3122c13.901 0 21.5776 9.3765 21.5776 17.1329 0 7.7563-9.0944 8.4457-11.2383 2.9646l-4.4954-11.893-19.8486 2.5854-4.9794-2.2407c1.8327-3.0336 8.6794-8.5492 18.9841-8.5492z" fill="#ebeff7"/><path d="m52.9207 52.754-12.5869 6.6187h-17.8084l1.729 2.8957h29.0121l2.5243-5.7225z" fill="#ebeff7"/><path d="m55.8271 43.6536 3.7346 1.1721 1.6253-6.5843c.2074-.8273-.3112-1.6547-1.1412-1.827-.7261-.1724-1.4869.2068-1.7635.8962z" fill="#dae2ed"/><path d="m60.5991 40.586-1.0374 4.2746-3.7346-1.1721 1.5907-4.1022c1.0374.3447 2.1093.6895 3.1813.9997z" fill="#b7c2ce"/><path d="m53.6128 74.8862 14.5233 3.3438 1.2449-5.5156-14.5233-3.3438z" fill="#b7c2ce"/><path d="m65.6814 79.1951 18.2234 6.2395c.3458.1379.7262.069 1.0374-.1723.7607-.5861 2.1785-2.0339 2.9392-5.4122.7608-3.3783.1383-5.3088-.3112-6.1361-.1729-.3103-.4841-.5516-.8645-.5861l-19.1224-2.3441c-.3804-.0345-.7262.2068-.8299.586l-1.5561 6.9635c-.0691.3792.1383.7239.4841.8618z" fill="#c5cedd"/><path d="m70.7297 73.9891c-.1037.4826.2075.9652.6571 1.0686.4841.1035.9682-.2068 1.0719-.6549.1038-.4827-.2075-.9653-.657-1.0687-.4841-.1379-.9682.1724-1.072.655zm4.2187.586c-.1037.4826.2075.9653.657 1.0687.4842.1034.9683-.2069 1.072-.655.1037-.4826-.2075-.9652-.657-1.0687-.4841-.1378-.9682.1724-1.072.655-.0345 0-.0345 0 0 0z" fill="#b7c2ce"/><path d="m53.7847 73.9549 11.6878 9.0663 3.458-4.4469-11.6879-9.1008z" fill="#d0d9ea"/><path d="m62.8805 82.8485 13.9356 13.3409c.2766.2413.6224.3792 1.0028.2758.9336-.2068 2.8355-.9308 4.9448-3.6541 2.1094-2.7233 2.3514-4.7572 2.3168-5.688 0-.3792-.2074-.6894-.5187-.8962l-16.356-10.1695c-.3112-.2068-.7608-.1379-.9682.1724l-4.3571 5.6535c-.3112.2758-.2766.7239 0 .9652z" fill="#ebeff7"/><path d="m69.6568 80.2635c-.3112.3792-.2421.9308.1729 1.241.3804.3103.9336.2413 1.2448-.1379.3113-.3792.2421-.9307-.1383-1.241-.4495-.3102-1.0028-.2413-1.2794.1379zm3.3542 2.7578c-.3112.3792-.2421.9308.1729 1.241.3804.3103.9336.2413 1.2448-.1723.3113-.4137.2421-.9308-.1728-1.241-.415-.2758-.9683-.2069-1.2449.1723z" fill="#b7c2ce"/><path d="m50.2246 50.7213c.5187 4.2746 3.8729 7.4116 7.5037 6.9634 3.6308-.4481 6.1206-4.2745 5.5673-8.5836s-3.8729-7.3771-7.4692-6.9635c-3.5962.4137-6.1205 4.3091-5.6018 8.5837z" fill="#dae2ed"/><path d="m52.9556 50.479c.3804 3.0336 2.7663 5.2743 5.3252 4.964 2.5589-.3102 4.357-3.0335 3.9766-6.1016-.3803-3.0681-2.7663-5.2743-5.3252-4.9296s-4.357 3.0336-3.9766 6.0672z" fill="#b7c2ce"/><path d="m54.4417 50.3418c.2766 2.1718 1.971 3.7575 3.8037 3.5507s3.1122-2.1718 2.8355-4.378c-.2766-2.2063-1.971-3.7575-3.8037-3.5507s-3.1122 2.1718-2.8355 4.378z" fill="#ff903e"/><path d="m58.4896 51.9276.4149-.1724c.1038-.0344.1729-.1723.1384-.3102l-1.4524-3.6541c-.0346-.1034-.1729-.1724-.3112-.1379l-.4149.1724c-.1038.0344-.1729.1723-.1384.3102l1.4524 3.6196c.0691.1379.2075.2069.3112.1724z" fill="#ff7f14"/><path d="m53.5777 77.5408h4.8066v-16.0297h-6.6739v14.1682c0 1.0342.83 1.8615 1.8673 1.8615z" fill="#000"/><path d="m74.2219 43.7233 37.1041-13.5133-6.225 12.1344c-1.21 2.3786-3.285 4.2056-5.7745 5.1019l-29.5308 10.7555-1.0374-2.7923z" fill="#dae2ed"/><path d="m65.7143 42.4818 49.2757-17.9602c.207-.0689.415.0345.484.2068.035.1034.035.2069 0 .2758l-1.902 3.8265c-.207.4481-.588.7584-1.037.9307l-1.21.4482-37.1042 13.5132-5.4635 11.7207 1.0374 2.7923.7607 2.1028-12.414 4.5159-1.7981-4.8951 7.2616-15.5471c.415-.8963 1.1757-1.5858 2.1094-1.9305z" fill="#eceff6"/><path d="m68.7925 55.4439 5.4635-11.7206 37.104-13.5133-1.245 2.4476-34.5449 12.5825-5.0486 10.8588.6224 1.6547-1.314.4826z" fill="#c5cedd"/><path d="m111.603 28.7287c.38-.1379.588-.5516.449-.9652-.138-.3792-.553-.5861-.968-.4482-.38.1379-.588.5516-.449.9653.138.4136.553.586.968.4481zm-2.974 1.1031c.38-.1379.588-.5515.45-.9652-.139-.3792-.554-.586-.969-.4482-.415.1379-.587.5516-.449.9653.138.3792.553.586.968.4481zm-42.3597 15.4093c.3458-.2069.4841-.655.2766-.9997-.1729-.2758-.4841-.4137-.7953-.3792-.3804.1378-.5879.586-.4495.9652.1728.3792.5878.5515.9682.4137z" fill="#dae2ed"/><path d="m54.4762 64.9586h7.7113c.657 0 1.1757-.5516 1.1757-1.1721v-4.1367c0-.655-.5187-1.1721-1.1757-1.1721h-7.7113c-.657 0-1.1757.5516-1.1757 1.1721v4.1367c0 .655.5187 1.1721 1.1757 1.1721z" fill="#ff5c5c"/><path d="m51.6757 67.062h6.0514c1.6598 0 2.9738-1.3444 2.9738-2.9646v-4.7227c0-1.6547-1.3486-2.9647-2.9738-2.9992h-6.0514c-.6225 0-1.1066.5171-1.1066 1.1032v8.4457c-.0346.6205.4496 1.1032 1.1066 1.1376-.0346 0-.0346 0 0 0z" fill="#d0d9ea"/><path d="m34.4565 30.1743.3458 2.2752c-1.8673 1.5168-3.5271 3.2749-4.8757 5.2398l-2.0748-4.7227c1.6598-1.2065 3.9421-1.896 6.6047-2.7923z" fill="#ff7f14"/><path d="m29.9252 37.6912-2.0747-4.7228-1.7636 4.7228z" fill="#ff903e"/></g></g></svg>