<svg width="79" height="79" viewBox="-35 -40 158 158" fill="none" xmlns="http://www.w3.org/2000/svg">
<path d="M49.25 46.4442C52.8399 46.4442 55.75 43.5341 55.75 39.9442C55.75 36.3544 52.8399 33.4442 49.25 33.4442C45.6601 33.4442 42.75 36.3544 42.75 39.9442C42.75 43.5341 45.6601 46.4442 49.25 46.4442Z" fill="white"/>
<path fill-rule="evenodd" clip-rule="evenodd" d="M23.25 13.9442C21.4551 13.9442 20 15.3993 20 17.1942C20 18.9892 21.4551 20.4442 23.25 20.4442H33C34.7949 20.4442 36.25 21.8993 36.25 23.6942C36.25 25.4892 34.7949 26.9442 33 26.9442L18.375 26.9442C16.5801 26.9442 15.125 28.3993 15.125 30.1942C15.125 31.9892 16.5801 33.4442 18.375 33.4442L26.5 33.4442C28.2949 33.4442 29.75 34.8993 29.75 36.6942C29.75 38.4892 28.2949 39.9442 26.5 39.9442H20C18.2051 39.9442 16.75 41.3993 16.75 43.1942C16.75 44.9892 18.2051 46.4442 20 46.4442H24.0691C26.9554 57.6582 37.135 65.9442 49.25 65.9442C63.6094 65.9442 75.25 54.3036 75.25 39.9442C75.25 25.5848 63.6094 13.9442 49.25 13.9442H23.25ZM49.25 52.9442C56.4297 52.9442 62.25 47.1239 62.25 39.9442C62.25 32.7645 56.4297 26.9442 49.25 26.9442C42.0703 26.9442 36.25 32.7645 36.25 39.9442C36.25 47.1239 42.0703 52.9442 49.25 52.9442Z" fill="white"/>
<path d="M8.625 33.4442C10.4199 33.4442 11.875 31.9892 11.875 30.1942C11.875 28.3993 10.4199 26.9442 8.625 26.9442H7C5.20507 26.9442 3.75 28.3993 3.75 30.1942C3.75 31.9892 5.20507 33.4442 7 33.4442H8.625Z" fill="white"/>
</svg>