<svg fill="none" height="435" viewBox="0 0 815 435" width="815" xmlns="http://www.w3.org/2000/svg" xmlns:xlink="http://www.w3.org/1999/xlink"><linearGradient id="a" gradientUnits="userSpaceOnUse" x1="72.0919" x2="770.576" y1="44.855" y2="415.699"><stop offset="0" stop-color="#16af63"/><stop offset=".5" stop-color="#54d788"/><stop offset="1" stop-color="#91ffad"/></linearGradient><clipPath id="b"><rect height="430" rx="44" width="810.5" x="2" y="3"/></clipPath><clipPath id="c"><rect height="430" rx="44" width="810.5" x="2" y="3"/></clipPath><clipPath id="d"><path d="m-43-165h900v600h-900z"/></clipPath><mask id="e" height="600" maskUnits="userSpaceOnUse" width="900" x="-43" y="-165"><path d="m857-165h-900v600h900z" fill="#fff"/></mask><mask id="f" height="600" maskUnits="userSpaceOnUse" width="900" x="-43" y="-165"><path d="m-43-165h900v600h-900z" fill="#fff"/></mask><g clip-path="url(#b)"><rect fill="#fff" height="430" rx="44" width="810.5" x="2" y="3"/><g clip-path="url(#c)"><rect fill="#fff" height="430" rx="44" width="810.5" x="2" y="3"/><g clip-path="url(#d)"><g mask="url(#e)"><path d="m770.489 2.12402h-327.906-37.323-361.7491c-22.961 0-41.74796 18.78698-41.74796 41.74798v258.028 12.57 77.851c0 22.961 18.78696 41.747 41.74796 41.747h203.4001 124.818c5.673.458 11.275.755 16.755.927.05.002.102.003.152.005l.468-.005 89.92-.927h291.465c2.998 0 5.921-.327 8.744-.935 18.799-4.048 33.004-20.848 33.004-40.812v-95.008-71.344-182.097c0-22.961-18.787-41.74798-41.748-41.74798z" fill="url(#a)"/><path d="m641.673 433.664s-11.876-44.204-24.45-68.559c-9.836-18.73-23.434-34.554-41.663-36.493-47.368-5.039-80.627 67.525-80.627 67.525s-6.046-41.322-54.422-44.345c-42.354-2.647-72.565 45.352-72.565 45.352s-16.337-40.925-68.185-44.172c-61.612-3.859-78.171 80.295-78.171 80.295s114.212-2.1 150.139.801h107.295l90.719-.935z" fill="#57f287"/><path d="m492.738 10.125s-18.044 13.295-5.698 19.943 35.138-6.648 35.138-6.648 16.145 29.44 74.076-3.799c0 0-20.894 18.994-5.699 43.686s44.636 15.195 44.636 15.195-57.931 34.189-37.988 81.673 67.428 22.793 67.428 22.793-17.095 30.389 11.396 58.88c24.733 24.733 108.854 8.669 136.21-15.879v-182.097c0-22.961-18.787-41.74798-41.748-41.74798h-327.906c7.977 9.43198 23.147 18.47298 50.155 8.00098z" fill="#13844b"/><path d="m201.187 433.947s44.532-52.919 34.562-77.346c-6.449-15.802-25.225 5.043-25.225 5.043s22.985-43.285 7.07-49.858-24.712 37.559-24.712 37.559-1.84-24.764-14.699-20.072c-19.794 7.223-8.516 104.674-8.516 104.674z" fill="#57f287"/><path d="m675.221 433.947s-44.532-52.919-34.562-77.346c6.449-15.802 25.225 5.043 25.225 5.043s-22.985-43.285-7.07-49.858 24.711 37.559 24.711 37.559 1.841-24.764 14.7-20.072c19.794 7.223 8.516 104.674 8.516 104.674z" fill="#57f287"/><path d="m732.926 312.228c-12.693 8.754-22.547 17.862-30.203 26.742-27.009 31.326-26.611 59.801-26.611 59.801s-11.718-19.146-30.195-28.863c-6.736-3.542-14.361-5.843-22.656-5.49-2.119.09-4.124.334-6.038.687-26.135 4.826-33.601 32.345-33.601 32.345s-17.837-21.801-34.353-13.873-15.195 24.443-15.195 24.443-12.009-11.381-26.425 0c-12.552 9.91-1.321 25.113-1.321 25.113h63.415 209.49c18.799-4.048 33.004-20.848 33.004-40.812v-95.008c-17.62-5.923-45.762-8.222-79.311 14.915z" fill="#29cc7a"/><path d="m1.76294 43.872v258.028c22.76096 10.017 54.90196 14.108 86.94696 13.013 17.6871-.867 45.0301-6.652 54.5431-32.953 8.817-24.377-9.471-38.674-22.5-45.456h14.556s53.617 6.035 73.161-34.03c22.191-45.492-11.927-84.423-11.927-84.423s20.077 13.049 45.173-16.062 0-67.257 0-67.257 44.586 28.415 86.971 18.671c35.839-8.239 32.486-43.76698 32.486-43.76698s23.088 15.05798 37.142 7.02698c6.578-3.759 7.658-9.49798 6.945-14.53898h-361.7491c-22.961 0-41.74796 18.78698-41.74796 41.74798z" fill="#13844b"/><path d="m272.87 399.478c-12.651-11.639-26.802-13.15-39.605-10.446-7.474 1.579-14.486 4.592-20.475 7.873-11.446 6.27-19.151 13.502-19.151 13.502s3.989-45.654-23.499-63.409c-2.582-1.668-5.436-3.096-8.603-4.21-39.853-14.022-69.6671 24.589-69.6671 24.589s2.875-27.808-3.16-52.464c-4.151-16.962-12.518-32.432-28.942-36.329-27.753-6.585-48.054 11.449-58.00496 23.316v12.57 77.851c0 22.961 18.78696 41.747 41.74796 41.747h203.4001 124.818c-35.927-2.901-74.4-12.087-98.859-34.59z" fill="#29cc7a"/><path d="m186.245 196.766s157.538 51.395 143.013-158.6552" stroke="#13844b" stroke-miterlimit="10" stroke-width="8"/><path d="m811.732 151.147s-121.74-5.748-129.477-148.78714" stroke="#29cc7a" stroke-miterlimit="10" stroke-width="9"/><path d="m287.072 184.761s-12.295 10.929-9.563 23.906 7.514 19.124 7.514 19.124 10.245-6.831 10.928-21.857-8.879-21.173-8.879-21.173z" fill="#13844b"/><path d="m703.978 82.603s-15.907 4.19-19.337 17.001-1.945 20.455-1.945 20.455 12.226-1.461 19.629-14.555 1.653-22.901 1.653-22.901z" fill="#29cc7a"/><path d="m714.646 96.5841s7.473 10.7419 17.982 9.8079 15.816-4.131 15.816-4.131-4.43-8.7369-16.235-10.6939-17.563 5.017-17.563 5.017z" fill="#29cc7a"/><path d="m279.085 188.173s-10.808 4.201-12.552 13.629-.34 14.787-.34 14.787 8.394-1.971 12.875-11.902.017-16.514.017-16.514z" fill="#13844b"/><path d="m494.351 296.022h-329.164v-20.341h329.164z" fill="#332a26"/><path d="m199.407 309.371h263.611l-5.325 63.898-25.557 29.819h-209.568l-21.468-29.287z" fill="#96593e"/><path d="m298.564 360.922h-54.079" stroke="#b2755d" stroke-linecap="round" stroke-linejoin="round" stroke-width="2.595"/><path d="m207.269 332.02h35.731" stroke="#b2755d" stroke-linecap="round" stroke-linejoin="round" stroke-width="2.595"/><path d="m404.868 334.672h51.182" stroke="#b2755d" stroke-linecap="round" stroke-linejoin="round" stroke-width="2.595"/><path d="m358.697 368.912h51.182" stroke="#b2755d" stroke-linecap="round" stroke-linejoin="round" stroke-width="2.595"/><path d="m444.03 382.668h-236.548v23.026h236.548z" fill="#bc973b"/><path d="m224.389 401.508h-28.42l-18.317-90.014h26.69z" fill="#bc973b"/><path d="m219.156 401.508h-28.421l-20.911-90.014h29.285z" fill="#e0b848"/><path d="m435.439 401.508h28.42l18.317-90.014h-26.69z" fill="#bc973b"/><path d="m440.673 401.508h28.42l20.912-90.014h-29.286z" fill="#e0b848"/><path d="m488.87 317.411h-315.788c-5.151 0-7.812-4.008-9.365-8.777l-3.46-12.428c0-4.827 4.214-8.775 9.365-8.775h322.708c5.151 0 9.365 3.948 9.365 8.775l-3.46 12.428c-2.291 5.196-4.214 8.777-9.365 8.777z" fill="#ffd85a"/><path d="m464.563 420.544h-268.213c-5.151 0-7.812-4.277-9.365-9.366l-3.46-13.263c0-5.151 4.214-9.365 9.365-9.365h275.133c5.151 0 9.365 4.214 9.365 9.365l-3.46 13.263c-2.292 5.545-4.214 9.366-9.365 9.366z" fill="#ffd85a"/><path d="m473.385 272.687h-295.35l5.966-68.722 28.634-32.07h234.8l24.052 31.498z" fill="#96593e"/><g stroke="#b2755d" stroke-linecap="round" stroke-linejoin="round" stroke-width="2.595"><path d="m468.034 236.541h-54.078"/><path d="m305.797 218.675h-54.08"/><path d="m379.19 219.64h35.731"/><path d="m187.981 240.403h35.731"/><path d="m350.219 181.978h51.182"/><path d="m201.984 184.875h51.182"/></g><path d="m189.187 264.452h10.044s-6.389-13.212-.507-54.973c2.904-20.614 14.495-36.493 14.495-36.493l5.022-1.435s-2.152-3.945-5.022-5.021c-2.869-1.076-11.837 2.869-19.011 24.39-7.173 21.522-5.021 73.532-5.021 73.532z" fill="#bc973b"/><path d="m192.415 264.81s-3.587-21.521-.359-49.857c2.372-20.821 12.196-43.402 18.652-47.706 0 0-18.293 0-31.205 8.968-4.167 2.893-19.37 35.151-13.631 88.954z" fill="#e0b848"/><path d="m470.22 264.452h-10.043s6.388-13.212.506-54.973c-2.904-20.614-14.495-36.493-14.495-36.493l-5.021-1.435s2.152-3.945 5.021-5.021 11.837 2.869 19.01 24.39c7.174 21.522 5.022 73.532 5.022 73.532z" fill="#bc973b"/><path d="m466.992 264.81s3.587-21.521.358-49.857c-2.371-20.821-12.194-43.402-18.651-47.706 0 0 18.293 0 31.206 8.968 4.167 2.893 19.369 35.151 13.63 88.954z" fill="#e0b848"/><path d="m493.045 283.675h-324.138c-4.757 0-8.65-3.893-8.65-8.65v-9.992c0-4.757 3.893-8.65 8.65-8.65h324.138c4.758 0 8.65 3.893 8.65 8.65v9.992c0 4.757-3.892 8.65-8.65 8.65z" fill="#ffd85a"/><path d="m348.114 266.852h-23.735c-4.758 0-8.65-3.893-8.65-8.65v-84.581c0-4.757 3.892-8.65 8.65-8.65h23.735c4.758 0 8.65 3.893 8.65 8.65v84.581c0 4.757-3.892 8.65-8.65 8.65z" fill="#e0b848"/><path d="m389.91 287.702c0 29.695-23.598 53.768-52.708 53.768-29.111 0-52.71-24.073-52.71-53.768 0-29.696 23.599-53.769 52.71-53.769 29.11 0 52.708 24.073 52.708 53.769z" fill="#bc973b"/><path d="m385.065 287.702c0 26.434-21.429 47.863-47.863 47.863-26.435 0-47.864-21.429-47.864-47.863s21.429-47.863 47.864-47.863c26.434 0 47.863 21.429 47.863 47.863z" fill="#ffd85a"/><path d="m306.76 315.344c-.534-2.383-.816-4.864-.816-7.413 0-18.264 14.479-33.071 32.34-33.071 17.86 0 32.339 14.807 32.339 33.071 0 2.229-.216 4.406-.627 6.511l-14.719.376c.22-1.229.336-2.498.336-3.799 0-10.659-7.758-19.299-17.329-19.299-9.572 0-17.331 8.64-17.331 19.299 0 1.487.152 2.935.438 4.325z" fill="#afafaf"/><path d="m374.656 313.417c.616 3.241.941 6.615.941 10.082 0 24.843-11.97 44.983-37.313 44.983-24.456 0-37.315-20.14-37.315-44.983 0-3.031.249-5.992.723-8.855z" fill="#635d5a"/><path d="m349.217 332.276c0 5.684-4.608 10.292-10.291 10.292-5.684 0-10.292-4.608-10.292-10.292s4.608-10.292 10.292-10.292c5.683 0 10.291 4.608 10.291 10.292z" fill="#000"/><path d="m352.314 353.758h-26.461l8.65-16.111h9.161z" fill="#000"/><path d="m338.007 301.168c-5.749 0-10.452-4.703-10.452-10.452v-17.42c0-5.749 4.703-10.453 10.452-10.453s10.453 4.704 10.453 10.453v17.42c0 5.749-4.704 10.452-10.453 10.452z" fill="#bc973b"/><path d="m526.434 232.32s-2.63 24.423-10.528 37.239c-3.484 5.654-8.462 10.097-14.232 13.327-6.779 3.794-14.712 5.5-17.594 13.602-2.636 7.41-.315 15.322 3.891 21.662 10.486 15.806 32.421 19.113 54.148 1.196s33.26-61.795 26.209-88.019c-5.007-18.62-19.442-24.243-26.495-21.69-15.611 5.65-15.399 22.683-15.399 22.683z" fill="#4e5ae8"/><path d="m554.495 343.983s-.033 18.007-.049 27.011c-.016 8.541-.047 25.622-.047 25.622s-13.707 11.335-8.599 21.929c5.109 10.593 34.889 13.378 53.308 6.357 13.295-5.068 12.263-16.99 10.166-28.836-.946-5.343-1.477-14.054-1.913-21.105-.594-9.599-.749-20.572-1.175-28.829-.776-15.043.073-22.265-11.762-31.098-16.402-12.241-40.146 5.903-39.929 28.949z" fill="#4e5ae8"/><path d="m532.901 208.631s-27.167 59.618-6.787 107.258c14.832 34.673 87.185 39.787 119.121 29.497 39.47-12.717 38.611-55.227 30.758-95.523-7.852-40.296-22.685-62.785-22.685-62.785s-115.172 2.811-120.407 21.553z" fill="#698eff"/><path d="m646.412 176.076c6.861 19.041-12.017 43.282-42.165 54.144s-60.149 4.232-67.009-14.809c-6.86-19.04 12.018-43.282 42.165-54.144 30.148-10.861 60.149-4.232 67.009 14.809z" fill="#4e5ae8"/><path d="m653.754 245.057s22.558 9.723 32.471 21.053c4.374 4.998 7.149 11.065 8.531 17.531 1.623 7.597.911 15.679 7.801 20.825 6.302 4.705 14.548 4.824 21.847 2.677 18.198-5.352 27.831-25.334 17.127-51.382-2.985-7.264-8.133-14.366-14.595-20.854-16.707-16.777-42.195-29.446-61.764-30.171-19.268-.713-28.903 11.419-28.546 18.912.79 16.583 17.128 21.409 17.128 21.409z" fill="#698eff"/><path d="m598.258 348.328s3.145 20.653 4.717 30.98c1.09 7.16 3.27 21.48 3.27 21.48s-13.373 7.326-8.711 22.48c4.228 13.739 36.123 11.652 53.633 7.925 15.325-3.26 10.66-20.026 9.932-32.033-.372-6.135-2.064-14.78-3.834-23.772-1.895-9.623-3.879-19.644-4.433-27.41-1.072-15.025-3.848-23.438-17.142-26.237-14.452-3.043-38.101 3.549-37.432 26.587z" fill="#698eff"/><path d="m491.571 191.521 11.419-1.422c13.914-1.732 23.931-15.215 22.26-29.963l-2.932-25.88c-1.671-14.748-14.42-25.396-28.334-23.664l-11.42 1.422c-13.914 1.732-23.931 15.216-22.26 29.964l2.932 25.879c1.671 14.748 14.421 25.396 28.335 23.664z" fill="#698eff"/><path d="m488.334 171.682 13.417-1.67c2.365-.294 4.069-2.586 3.784-5.093l-4.142-36.572c-.285-2.514-2.459-4.329-4.831-4.034l-13.405 1.669c-5.545.691-9.538 6.064-8.872 11.942l2.756 24.326c.666 5.879 5.748 10.123 11.293 9.432z" fill="#b7cdff"/><path d="m581.5 54.1641s10.066-12.288 14.326-17.4148c6.558-7.8913 20.466-14.8738 33.994-6.8646 11.481 6.7968 14.867 18.8798 5.665 32.2006-9.069 13.1299-15.703 13.4731-15.703 13.4731l-63.543 7.7461z" fill="#55f186"/><path d="m606.612 61.2044c-1.015.1266-2.073-.2262-2.85-1.0559-1.339-1.4297-1.332-3.7367.014-5.1514 16.28-17.1069 17.138-42.091 17.145-42.3417.055-2.0105 1.634-3.58628 3.536-3.52733 1.897.06335 3.391 1.74383 3.337 3.75433-.031 1.1411-.965 28.1638-19.171 47.2943-.565.5939-1.277.9361-2.011 1.0277z" fill="#008c43"/><path d="m628.71 75.0171s-18.596-11.6686-41.627-36.8383c-16.825-18.3879-26.523-28.37236-44.274-21.5166-14.744 5.6943-22.288 19.8106-11.69 39.2543 12.071 22.1475 41.256 31.8161 41.256 31.8161z" fill="#25cb79"/><path d="m571.151 68.1805c-.777.0968-1.59-.0853-2.295-.578-14.796-10.3303-21.683-26.2766-21.969-26.9506-.78-1.8362-.009-3.991 1.723-4.8119 1.727-.82 3.763 0 4.544 1.8336.062.1461 6.404 14.7225 19.475 23.8491 1.588 1.1086 2.029 3.3672.988 5.0459-.579.9336-1.494 1.4914-2.466 1.6119z" fill="#008c43"/><path d="m660.7 203.309c-26.4 4.597-97.961 13.473-121.518 13.532-23.43.058-50.744-17.33-53.155-45.905l-2.577-44.522c-3.816-41.8767 14.484-55.3964 49.292-62.2223 37.179-7.2912 104.713-13.6684 117.324-14.5869 34.585-2.5199 53.631 17.9392 56.041 46.5139l5.237 50.6223c2.662 31.548-17.725 50.838-50.644 56.568z" fill="#698eff"/><path d="m716.763 165.831-11.419 1.422c-13.914 1.732-26.664-8.916-28.335-23.664l-2.932-25.88c-1.67-14.748 8.347-28.2309 22.26-29.9633l11.42-1.4218c13.914-1.7324 26.664 8.9164 28.334 23.6641l2.932 25.879c1.671 14.748-8.346 28.232-22.26 29.964z" fill="#698eff"/><path d="m715.477 145.75-13.416 1.671c-2.365.294-4.533-1.517-4.817-4.024l-4.143-36.571c-.285-2.514 1.423-4.813 3.795-5.108l13.405-1.669c5.545-.6909 10.627 3.553 11.293 9.432l2.756 24.326c.666 5.878-3.328 11.252-8.873 11.943z" fill="#b7cdff"/><path d="m616.914 183.391s3.025-.195 8.817-2.834c5.66-2.58 6.98-4.23 6.201-3.081 0 0-5.168 5.094-15.018 5.915z" fill="#ffacd6"/><path d="m605.028 184.925s18.334-.274 28.185-8.483" stroke="#080201" stroke-linecap="round" stroke-linejoin="round" stroke-width="3.51938"/><path d="m595.134 176.176-40.735 4.804c-15.311 1.806-29.266-9.995-31.009-26.223l-2.615-24.348c-1.025-9.537 5.499-18.21 14.498-19.271l59.77-7.048c8.639-1.019 16.513 5.639 17.497 14.796l3.21 29.889c1.457 13.561-7.82 25.892-20.616 27.401z" fill="#b7cdff"/><path d="m587.527 159.413-9.531 1.186c-3.269.408-6.266-2.095-6.658-5.56l-.03-.268c-.393-3.465 1.961-6.634 5.231-7.041l9.53-1.186c3.27-.407 6.265 2.095 6.658 5.56l.031.268c.392 3.465-1.962 6.633-5.231 7.041z" fill="#698eff"/><path d="m552.754 163.743-9.531 1.187c-3.269.407-6.265-2.096-6.658-5.561l-.03-.268c-.393-3.465 1.961-6.634 5.23-7.041l9.531-1.186c3.269-.407 6.265 2.095 6.658 5.56l.03.268c.393 3.465-1.961 6.633-5.23 7.041z" fill="#698eff"/><path d="m516.655 146.008c.71 6.268-3.509 11.946-9.422 12.682-5.913.737-11.283-3.748-11.993-10.016s3.509-11.946 9.422-12.683c5.914-.736 11.283 3.749 11.993 10.017z" fill="#080201"/><path d="m644.979 129.911c.71 6.268-3.509 11.946-9.422 12.683-5.914.736-11.284-3.749-11.994-10.017s3.509-11.947 9.422-12.683c5.914-.737 11.284 3.749 11.994 10.017z" fill="#080201"/><g fill="#fff" mask="url(#f)"><path d="m105.91 40.0098h12.294c2.964 0 5.495.4126 7.515 1.3249 1.879.771 3.475 2.1177 4.626 3.801 1.01 1.6833 1.586 3.5729 1.51 5.4734 0 1.9657-.5 3.8662-1.586 5.5495-1.151 1.7593-2.889 3.0842-4.843 3.9313-2.172.9883-4.909 1.4661-8.091 1.4661h-11.425zm11.349 16.0076c2.02 0 3.54-.4887 4.626-1.477 1.086-1.0534 1.662-2.4652 1.586-4.0073.076-1.4009-.435-2.7259-1.445-3.7141-.944-.9123-2.378-1.4118-4.333-1.4118h-3.833v10.5342h3.399z"/><path d="m150.361 61.4802c-1.586-.4235-3.182-1.0426-4.627-1.8896v-5.126c1.228.9123 2.672 1.5422 4.116 1.8897 1.662.4887 3.323.7059 5.061.771.576 0 1.162-.0651 1.738-.2715.358-.2063.575-.4235.575-.7059 0-.2823-.076-.5647-.293-.771-.358-.2824-.793-.4236-1.227-.4887l-3.758-.8471c-2.172-.4887-3.681-1.1946-4.626-2.0417-.945-.9122-1.444-2.172-1.368-3.4317 0-1.1186.434-2.2481 1.227-3.0951.945-.9883 2.096-1.6833 3.399-2.0309 1.662-.4887 3.399-.771 5.202-.7059 1.661 0 3.258.1412 4.843.5648 1.304.2823 2.52.771 3.682 1.4009v4.8436c-1.086-.6299-2.237-1.0535-3.388-1.3358-1.304-.3475-2.683-.4887-3.986-.4887-1.955 0-2.954.3584-2.954.9882 0 .2824.13.5539.424.6951.51.2063 1.097.3584 1.672.4995l3.171.5539c2.02.3475 3.617.9774 4.627 1.8245s1.52 2.1828 1.52 3.8661c0 1.8245-.945 3.5078-2.53 4.4201-1.662 1.0534-4.051 1.6181-7.157 1.6181-1.803-.0652-3.606-.2824-5.343-.7059z"/><path d="m172.775 60.8611c-1.661-.7711-3.116-1.9657-4.126-3.5078-.945-1.4769-1.369-3.2363-1.369-4.9956s.435-3.4317 1.445-4.9087c1.01-1.5421 2.454-2.6716 4.192-3.4426 2.096-.8471 4.344-1.3249 6.581-1.2598 3.182 0 5.777.6299 7.873 1.9657v5.6146c-.793-.4887-1.65-.9122-2.595-1.1946-1.01-.2824-2.096-.4887-3.182-.4887-1.955 0-3.465.3475-4.627 1.0534-1.585.8471-2.096 2.7367-1.227 4.2789.293.4887.717.9122 1.227 1.1946 1.086.7059 2.596 1.0534 4.692 1.0534 1.086 0 2.107-.1412 3.117-.4236.945-.2823 1.802-.6298 2.595-1.1185v5.4082c-2.454 1.401-5.202 2.096-8.025 2.0309-2.237.0651-4.551-.3476-6.571-1.2598z"/><path d="m195.255 60.8502c-1.737-.771-3.181-1.9656-4.191-3.5078-.945-1.4769-1.445-3.2254-1.445-4.9847s.435-3.4426 1.445-4.9196c1.01-1.4769 2.454-2.6607 4.191-3.3666 4.116-1.6181 8.819-1.6181 12.935 0 1.661.7059 3.106 1.8897 4.116 3.3666.945 1.477 1.444 3.2363 1.444 4.9196 0 1.7593-.499 3.5078-1.444 4.9847-1.01 1.5422-2.455 2.7368-4.116 3.5078-4.192 1.6833-8.819 1.6833-12.935 0zm9.536-5.4734c.792-.7711 1.238-1.9005 1.162-2.9539.076-1.1186-.37-2.172-1.162-2.9431-.869-.7711-2.02-1.1294-3.182-1.1294-1.162-.0652-2.303.3583-3.172 1.1294-.792.7711-1.238 1.8245-1.162 2.9431-.076 1.1185.37 2.1828 1.162 2.9539.869.771 2.01 1.1837 3.172 1.1186 1.227.0651 2.389-.3476 3.182-1.1186z"/><path d="m232.69 43.8544v6.6789c-.945-.5648-2.02-.8363-3.106-.7711-1.662 0-2.954.4778-3.899 1.4661-.869.9883-1.379 2.5304-1.379 4.6372v5.6146h-7.732v-17.9733h7.591v5.6907c.434-2.1069 1.075-3.649 2.02-4.6372.945-.9883 2.248-1.5422 3.616-1.477 1.01 0 2.02.2824 2.889.7711z"/><path d="m258.407 39.3691v22.1219h-7.733v-4.0074c-.575 1.401-1.661 2.6716-2.964 3.4426-1.521.8471-3.172 1.2598-4.909 1.1946-1.586.0652-3.182-.4126-4.551-1.2597-1.303-.8471-2.389-2.0417-3.04-3.4426-.717-1.5422-1.086-3.2363-1.086-4.9196-.076-1.7593.369-3.5078 1.086-5.0499.727-1.477 1.889-2.6607 3.258-3.5078 1.444-.8471 3.106-1.2706 4.767-1.2706 3.682 0 6.136 1.553 7.439 4.6372v-7.9387zm-8.884 15.8665c.793-.7711 1.227-1.8245 1.151-2.8779 0-1.0534-.434-2.096-1.151-2.8019-1.803-1.4769-4.409-1.4769-6.288 0-.793.7711-1.238 1.7485-1.162 2.8019-.076 1.0534.369 2.1068 1.162 2.8779.869.7711 1.944 1.1294 3.106 1.1294 1.227.0652 2.313-.3583 3.182-1.1294z"/><path d="m77.4465 34.667c-3.7576-1.6182-7.7432-2.8019-11.8591-3.5078-.5756.9882-1.0752 1.9656-1.5096 3.0191-4.3331-.6299-8.8292-.6299-13.1623 0-.4344-1.0535-.934-2.0309-1.5095-3.0191-4.0508.7059-8.0256 1.9005-11.8592 3.5838-7.4391 10.7405-9.4699 21.1987-8.4599 31.5917 4.4092 3.1603 9.3287 5.5495 14.5307 7.0916 1.1511-1.5421 2.2371-3.1603 3.1059-4.8436-1.6615-.6298-3.3231-1.4009-4.9087-2.248.4344-.2823.7928-.5647 1.2272-.8471 9.1767 4.2137 19.7978 4.2137 29.0505 0 .3584.2824.7928.6408 1.2272.8471-1.5856.9123-3.1711 1.6833-4.9087 2.248.8688 1.6833 1.9548 3.3015 3.1059 4.8436 5.202-1.5421 10.1215-3.9313 14.5307-7.0916 1.1512-12.0111-2.096-22.4042-8.6011-31.6677zm-29.4958 25.282c-2.8236 0-5.2019-2.5303-5.2019-5.5494s2.248-5.6146 5.1368-5.6146c2.8887 0 5.2019 2.5303 5.2019 5.6146 0 3.0842-2.248 5.5494-5.1368 5.5494zm19.081 0c-2.8236 0-5.1259-2.5303-5.1259-5.5494s2.2372-5.6146 5.1259-5.6146c2.8888 0 5.2128 2.5303 5.1368 5.6146 0 3.0842-2.248 5.5494-5.1368 5.5494z"/><path d="m138.436 45.4725c2.118 0 3.834-1.5096 3.834-3.3666 0-1.8571-1.716-3.3666-3.834-3.3666s-3.833 1.5095-3.833 3.3666c0 1.857 1.715 3.3666 3.833 3.3666z"/><path d="m134.614 47.7969c2.454.9882 5.278.9882 7.732 0v13.8356h-7.732z"/></g></g></g></g></g></svg>