<svg fill="none" height="30" viewBox="0 0 50 30" width="50" xmlns="http://www.w3.org/2000/svg" xmlns:xlink="http://www.w3.org/1999/xlink"><clipPath id="a"><path d="m0 0h50v30h-50z"/></clipPath><g clip-path="url(#a)" clip-rule="evenodd" fill-rule="evenodd"><path d="m2 0h46c.5304 0 1.0391.210714 1.4142.585786.3751.375073.5858.883784.5858 1.414214v26c0 .5304-.2107 1.0391-.5858 1.4142s-.8838.5858-1.4142.5858h-46c-.53043 0-1.039141-.2107-1.414214-.5858-.375072-.3751-.585786-.8838-.585786-1.4142v-26c0-1.1.9-2 2-2z" fill="#0066b2"/><path d="m42.4 19.66c0-.1605.0637-.3143.1772-.4278s.2673-.1772.4278-.1772.3143.0637.4278.1772.1772.2673.1772.4278c0 .1591-.0632.3117-.1757.4243-.1126.1125-.2652.1757-.4243.1757-.0796.0013-.1587-.0132-.2327-.0428-.0739-.0295-.1413-.0735-.198-.1294-.0568-.0558-.1019-.1224-.1327-.1959-.0308-.0734-.0466-.1523-.0466-.2319zm.6.45c.26 0 .46-.2.46-.45s-.2-.45-.46-.45c-.25 0-.46.2-.46.45s.2.45.46.45zm-.08-.19h-.12v-.52h.22c.05 0 .1 0 .14.02.04.03.06.08.06.14s-.03.11-.09.13l.1.23h-.14l-.08-.2h-.09zm0-.3h.14c.0131-.0061.0239-.0161.0311-.0287.0072-.0125.0103-.0269.0089-.0413-.0011-.01-.0044-.0196-.0095-.0283-.0052-.0086-.0122-.016-.0205-.0217h-.15v.13zm-3.52.68-.34-1.64h-3.72l-.62 1.64h-3.05l4.37-10.22s.27-.82 1.35-.82h2.36l2.34 11.04zm-3.22-3.9h2.4l-.86-4.14-1.54 4.13zm-4.28-4.48.42-2.37s-1.3-.49-2.64-.49c-1.45 0-4.9.63-4.9 3.66 0 2.85 4.05 2.88 4.05 4.38s-3.64 1.23-4.84.29l-.43 2.47s1.3.63 3.3.63 5.02-1.02 5.02-3.78c0-2.87-4.09-3.14-4.09-4.38 0-1.25 2.86-1.1 4.11-.41zm-10.15 8.38h-2.93l1.83-11.04h2.94zm-13.2-11.04h-2.31l-.05.19s2.22.45 4.35 2.14c1.2078.9473 2.1401 2.2007 2.7 3.63l.32 1.63 2.8-7.59h3.15l-4.66 11.04h-3.05l-2.55-9.6c-.94865-.5664-1.97669-.98774-3.05-1.25l.05-.19z" fill="#fff"/><path d="m13.23 15.22-.98-4.96s-.12-.99999-1.4-.99999h-4.59999l-.05.19s2.22.45 4.34999 2.13999c2.03 1.61 2.7 3.63 2.7 3.63" fill="#f9a533"/></g></svg>