<svg width="279" height="175" viewBox="0 0 279 175" fill="none" xmlns="http://www.w3.org/2000/svg">
<g clip-path="url(#clip0_157_394)">
<mask id="mask0_157_394" style="mask-type:alpha" maskUnits="userSpaceOnUse" x="0" y="0" width="279" height="175">
<path d="M0 10C0 4.47715 4.47715 0 10 0H269C274.523 0 279 4.47715 279 10V165C279 170.523 274.523 175 269 175H10C4.47715 175 0 170.523 0 165V10Z" fill="url(#paint0_linear_157_394)"/>
</mask>
<g mask="url(#mask0_157_394)">
<rect x="-5" y="-122" width="297" height="298" fill="url(#paint1_linear_157_394)"/>
</g>
<path d="M67.9804 156.902H183.731C189.239 156.902 193.711 152.422 193.711 146.892V67.7585C193.711 62.2339 189.244 57.7485 183.731 57.7485H67.9804C62.4721 57.7485 58 62.2284 58 67.7585V146.892C58.0055 152.422 62.4721 156.902 67.9804 156.902Z" fill="black"/>
<path d="M183.731 153.62H67.9804C62.4721 153.62 58 149.141 58 143.611V64.4772C58 58.9526 62.4666 54.4673 67.9804 54.4673H183.731C189.239 54.4673 193.711 58.9471 193.711 64.4772V143.611C193.705 149.141 189.239 153.62 183.731 153.62Z" fill="#242145"/>
<path d="M64.7299 69.5968C66.7587 68.9513 68.3403 68.4919 70.4018 67.9941C70.909 67.8738 71.4162 68.202 71.5253 68.7271L76.7063 92.8056C76.8154 93.3307 76.4936 93.8559 75.9864 93.9817C73.9249 94.4794 72.3106 94.7857 70.2218 95.1249C66.6115 95.7156 63.2029 93.462 62.1667 89.8738C61.0868 86.1323 60.0833 81.8986 59.5598 78.0259C59.0526 74.3118 61.2341 70.7126 64.7299 69.5968Z" fill="black"/>
<path d="M159.134 26.6138C157.471 25.5362 156.347 23.7968 156.058 21.8331L155.562 18.491C155.535 18.3269 155.398 18.2065 155.229 18.2065C155.066 18.2065 154.924 18.3269 154.897 18.491L154.4 21.8331C154.106 23.7968 152.988 25.5362 151.325 26.6138L150.894 26.8928C150.795 26.9529 150.741 27.0623 150.741 27.1772V27.1991C150.741 27.3139 150.801 27.4179 150.894 27.4835L151.325 27.7625C152.988 28.8401 154.111 30.5795 154.4 32.5432L154.897 35.8853C154.919 36.0494 155.06 36.1697 155.229 36.1697C155.393 36.1697 155.535 36.0494 155.562 35.8853L156.058 32.5432C156.353 30.5795 157.471 28.8401 159.134 27.7625L159.565 27.4835C159.663 27.4233 159.718 27.3139 159.718 27.1991V27.1772C159.718 27.0623 159.658 26.9584 159.565 26.8928L159.134 26.6138Z" fill="#57F287"/>
<path d="M167.402 31.4887C166.693 31.0292 166.213 30.2853 166.088 29.4484L165.875 28.0207C165.864 27.9496 165.804 27.9004 165.733 27.9004C165.662 27.9004 165.602 27.9551 165.592 28.0207L165.379 29.4484C165.253 30.2853 164.773 31.0292 164.064 31.4887L163.879 31.609C163.835 31.6363 163.814 31.6801 163.814 31.7293V31.7403C163.814 31.7895 163.841 31.8333 163.879 31.8606L164.064 31.9809C164.773 32.4404 165.253 33.1843 165.379 34.0212L165.592 35.4489C165.602 35.52 165.662 35.5692 165.733 35.5692C165.804 35.5692 165.864 35.5145 165.875 35.4489L166.088 34.0212C166.213 33.1843 166.693 32.4404 167.402 31.9809L167.588 31.8606C167.631 31.8333 167.653 31.7895 167.653 31.7403V31.7293C167.653 31.6801 167.626 31.6363 167.588 31.609L167.402 31.4887Z" fill="#5865F2"/>
<path d="M210.492 40.7318C209.576 40.141 208.954 39.1783 208.796 38.0953L208.523 36.2519C208.513 36.1589 208.431 36.0933 208.338 36.0933C208.245 36.0933 208.169 36.1589 208.153 36.2519L207.88 38.0953C207.716 39.1783 207.1 40.141 206.184 40.7318L205.944 40.8849C205.889 40.9177 205.857 40.9779 205.857 41.0435V41.0545C205.857 41.1201 205.889 41.1748 205.944 41.2131L206.184 41.3663C207.1 41.957 207.722 42.9197 207.88 44.0028L208.153 45.8461C208.164 45.9391 208.245 46.0047 208.338 46.0047C208.431 46.0047 208.507 45.9391 208.523 45.8461L208.796 44.0028C208.96 42.9197 209.576 41.957 210.492 41.3663L210.732 41.2131C210.787 41.1803 210.819 41.1201 210.819 41.0545V41.0435C210.819 40.9779 210.787 40.9232 210.732 40.8849L210.492 40.7318Z" fill="#FFE75C"/>
<path d="M219.578 66.5329C218.716 65.9749 218.133 65.0724 217.98 64.055L217.724 62.321C217.713 62.2335 217.636 62.1733 217.549 62.1733C217.462 62.1733 217.391 62.239 217.375 62.321L217.118 64.055C216.966 65.0724 216.382 65.9749 215.52 66.5329L215.297 66.6751C215.248 66.7079 215.215 66.7626 215.215 66.8228V66.8337C215.215 66.8939 215.242 66.9486 215.297 66.9814L215.52 67.1236C216.382 67.6816 216.966 68.5841 217.118 69.6015L217.375 71.3355C217.385 71.423 217.462 71.4832 217.549 71.4832C217.636 71.4832 217.707 71.4175 217.724 71.3355L217.98 69.6015C218.133 68.5841 218.716 67.6816 219.578 67.1236L219.801 66.9814C219.851 66.9486 219.883 66.8939 219.883 66.8337V66.8228C219.883 66.7626 219.856 66.7079 219.801 66.6751L219.578 66.5329Z" fill="#8CD9FF"/>
<path d="M213.257 84.6223C211.703 83.6213 210.656 81.9913 210.383 80.1588L209.919 77.041C209.898 76.8878 209.767 76.7729 209.609 76.7729C209.456 76.7729 209.32 76.8878 209.298 77.041L208.834 80.1588C208.561 81.9913 207.514 83.6158 205.96 84.6223L205.556 84.8848C205.469 84.945 205.415 85.0435 205.415 85.1474V85.1693C205.415 85.2732 205.469 85.3771 205.556 85.4318L205.96 85.6944C207.514 86.6954 208.561 88.3254 208.834 90.1578L209.298 93.2757C209.32 93.4289 209.45 93.5437 209.609 93.5437C209.761 93.5437 209.898 93.4289 209.919 93.2757L210.383 90.1578C210.656 88.3254 211.703 86.7008 213.257 85.6944L213.661 85.4318C213.748 85.3717 213.803 85.2732 213.803 85.1693V85.1474C213.803 85.0435 213.748 84.9395 213.661 84.8848L213.257 84.6223Z" fill="#5865F2"/>
<path d="M102.213 149.944H85.0233C82.7927 149.944 80.9821 148.128 80.9821 145.891V138.304C80.9821 136.067 82.7927 134.251 85.0233 134.251H102.213C104.444 134.251 106.255 136.067 106.255 138.304V145.891C106.255 148.128 104.449 149.944 102.213 149.944Z" fill="#423D80"/>
<path d="M93.6184 148.205C96.9829 148.205 99.7103 145.47 99.7103 142.095C99.7103 138.721 96.9829 135.985 93.6184 135.985C90.254 135.985 87.5266 138.721 87.5266 142.095C87.5266 145.47 90.254 148.205 93.6184 148.205Z" fill="#FF78B9"/>
<path d="M95.2218 142.21C95.718 141.767 96.0344 141.127 96.0344 140.41C96.0344 139.07 94.9545 137.987 93.6184 137.987C92.2822 137.987 91.2024 139.07 91.2024 140.41C91.2024 141.127 91.5187 141.767 92.015 142.21C91.0388 142.943 90.3734 144.321 90.3188 145.918C91.2024 146.689 92.3531 147.154 93.6184 147.154C94.8782 147.154 96.0289 146.684 96.9179 145.918C96.8579 144.321 96.1925 142.943 95.2218 142.21Z" fill="#5865F2"/>
<path d="M167.391 149.944H150.201C147.97 149.944 146.16 148.128 146.16 145.891V138.304C146.16 136.067 147.97 134.251 150.201 134.251H167.391C169.622 134.251 171.432 136.067 171.432 138.304V145.891C171.432 148.128 169.622 149.944 167.391 149.944Z" fill="#423D80"/>
<path d="M158.796 148.205C162.161 148.205 164.888 145.47 164.888 142.095C164.888 138.721 162.161 135.985 158.796 135.985C155.432 135.985 152.704 138.721 152.704 142.095C152.704 145.47 155.432 148.205 158.796 148.205Z" fill="#91FFAD"/>
<path d="M160.399 142.21C160.896 141.767 161.212 141.127 161.212 140.41C161.212 139.07 160.132 137.987 158.796 137.987C157.46 137.987 156.38 139.07 156.38 140.41C156.38 141.127 156.696 141.767 157.193 142.21C156.216 142.943 155.551 144.321 155.496 145.918C156.38 146.689 157.531 147.154 158.796 147.154C160.056 147.154 161.207 146.684 162.096 145.918C162.036 144.321 161.37 142.943 160.399 142.21Z" fill="#5865F2"/>
<path d="M134.745 149.944H117.555C115.324 149.944 113.513 148.128 113.513 145.891V138.304C113.513 136.067 115.324 134.251 117.555 134.251H134.745C136.975 134.251 138.786 136.067 138.786 138.304V145.891C138.786 148.128 136.981 149.944 134.745 149.944Z" fill="#423D80"/>
<path d="M126.15 148.205C129.514 148.205 132.242 145.47 132.242 142.095C132.242 138.721 129.514 135.985 126.15 135.985C122.786 135.985 120.058 138.721 120.058 142.095C120.058 145.47 122.786 148.205 126.15 148.205Z" fill="#8CD9FF"/>
<path d="M127.753 142.21C128.25 141.767 128.566 141.127 128.566 140.41C128.566 139.07 127.486 137.987 126.15 137.987C124.814 137.987 123.734 139.07 123.734 140.41C123.734 141.127 124.05 141.767 124.546 142.21C123.57 142.943 122.905 144.321 122.85 145.918C123.734 146.689 124.885 147.154 126.15 147.154C127.41 147.154 128.56 146.684 129.449 145.918C129.395 144.321 128.724 142.943 127.753 142.21Z" fill="#5865F2"/>
<path d="M191.033 93.2495C191.033 88.2172 186.245 84.1421 180.333 84.1421C175.026 84.1421 170.636 87.435 169.791 91.7453C163.944 92.4454 143.989 94.6279 122.283 94.71C122.283 94.71 122.087 112.296 125.354 111.896C128.62 111.497 156.238 110.141 172.501 108.024C185.476 106.334 189.937 99.3813 190.924 94.9124C190.951 94.7811 190.94 94.6607 190.902 94.5404C190.984 94.1138 191.033 93.6871 191.033 93.2495Z" fill="black"/>
<path d="M76.8157 65.2036H174.896C177.17 65.2036 179.019 67.0524 179.019 69.3389V125.055C179.019 127.336 177.175 129.191 174.896 129.191H76.8157C74.5414 129.191 72.6926 127.342 72.6926 125.055V69.3389C72.6981 67.0579 74.5414 65.2036 76.8157 65.2036Z" fill="url(#paint2_linear_157_394)"/>
<path d="M122.588 87.554C148.439 87.4555 171.819 84.376 171.819 84.376C171.819 84.376 191.955 84.4963 191.235 87.7564C190.242 92.2253 185.786 99.183 172.812 100.868C156.549 102.985 128.931 104.347 125.664 104.74C122.387 105.14 122.588 87.554 122.588 87.554Z" fill="#5865F2"/>
<path d="M133.087 106.886C132.989 99.8298 130.807 86.0237 116.246 86.3191C110.198 86.4449 97.4251 89.5956 90.9897 110.956C87.8374 119.385 83.8889 124.165 81.4729 129.187H131.44C132.231 124.401 133.218 116.404 133.087 106.886Z" fill="#698EFF"/>
<path d="M207.105 73.0025L202.851 53.1412L202.704 52.4575L202.589 52.4794L194.289 54.268L185.814 56.095L177.518 57.8836L169.005 59.7161L160.705 61.5047L156.418 62.4291L161.059 60.4271L167.189 57.7852L182.351 51.2486L184.647 50.2586L200.397 43.3993L197.741 37.2074C196.236 33.6902 191.976 32.1531 188.393 33.0666C188.306 33.0885 188.219 33.1104 188.131 33.1377C188.039 33.1651 187.951 33.1924 187.859 33.2198C187.652 33.2854 187.45 33.362 187.248 33.4495L171.154 40.3908L165.346 42.8961L157.405 46.3202L157.307 46.364C157.089 46.457 156.882 46.5609 156.68 46.6703C156.625 46.6977 156.576 46.7305 156.522 46.7578C156.342 46.8618 156.173 46.9657 156.003 47.0805C155.982 47.097 155.96 47.1079 155.938 47.1243C155.758 47.2501 155.584 47.3869 155.414 47.5291C155.365 47.5674 155.322 47.6111 155.273 47.6494C155.136 47.7698 155.011 47.8901 154.885 48.0159C154.853 48.0487 154.815 48.0816 154.782 48.1144C154.635 48.2675 154.498 48.4262 154.367 48.5903C154.324 48.6449 154.286 48.6996 154.242 48.7543C154.149 48.8801 154.056 49.006 153.969 49.1372C153.931 49.1919 153.893 49.2466 153.86 49.3013C153.751 49.4709 153.653 49.6459 153.56 49.821C153.522 49.8866 153.495 49.9577 153.457 50.0288C153.397 50.1546 153.337 50.2859 153.282 50.4117C153.249 50.4883 153.217 50.5594 153.189 50.636C153.118 50.8165 153.058 50.997 153.004 51.183C152.982 51.2596 152.96 51.3416 152.938 51.4237C152.906 51.5495 152.873 51.6808 152.846 51.8066C152.829 51.8941 152.808 51.9816 152.791 52.0746C152.759 52.2606 152.731 52.452 152.709 52.6435C152.584 53.8906 152.764 55.1924 153.293 56.4232L155.905 62.5221L155.867 62.5331L156.014 63.2168L158.256 73.6753L158.327 73.998L160.268 83.0726C161.157 87.2133 165.22 89.8498 169.354 88.9637L201.226 82.099C205.365 81.2238 207.994 77.1487 207.105 73.0025Z" fill="black"/>
<path d="M159.881 80.711C160.77 84.8517 164.833 87.4882 168.967 86.6021L200.839 79.7373C204.967 78.8457 207.596 74.7707 206.712 70.6245L202.458 50.7632L155.627 60.8497L159.881 80.711Z" fill="#FF78B9"/>
<path d="M202.305 50.0783L155.479 60.166L157.934 71.632L204.761 61.5443L202.305 50.0783Z" fill="#FFE75C"/>
<path d="M160.312 59.1264C159.456 63.2562 158.518 67.7689 157.825 71.1165L157.934 71.6362L166.066 69.8858L168.612 57.3433L160.312 59.1264Z" fill="#FF8C19"/>
<path d="M177.126 55.5044C176.242 59.76 175.255 64.5298 174.524 68.0633L182.879 66.2637L185.426 53.7212L177.126 55.5044Z" fill="#FF8C19"/>
<path d="M193.896 51.8901C192.985 56.2825 191.993 61.0851 191.295 64.4491L199.655 62.6495L202.202 50.1069L193.896 51.8901Z" fill="#FF8C19"/>
<path d="M186.855 31.0657L156.909 43.9802C153.026 45.654 151.237 50.1666 152.906 54.0612L155.562 60.2532L199.563 41.278L196.907 35.0861C195.238 31.1915 190.738 29.3919 186.855 31.0657Z" fill="#FFE75C"/>
<path d="M156.909 43.9798C154.258 45.123 152.584 47.5899 152.317 50.2757C154.874 52.6551 157.945 55.5159 160.661 58.043L168.454 54.6844L157.007 43.936L156.909 43.9798Z" fill="#FF8C19"/>
<path d="M164.947 40.5177C167.909 43.2746 172.615 47.6505 176.466 51.2388L184.254 47.8802L172.806 37.1318L164.947 40.5177Z" fill="#FF8C19"/>
<path d="M199.557 41.2722L199.11 40.2275L188.775 30.5293C188.126 30.6223 187.482 30.7973 186.855 31.0653L180.703 33.7183C183.436 36.2618 188.197 40.6924 192.222 44.4393L199.557 41.2722Z" fill="#FF8C19"/>
<path d="M158.583 53.8146C160.155 53.8146 161.43 52.5362 161.43 50.9593C161.43 49.3824 160.155 48.104 158.583 48.104C157.011 48.104 155.736 49.3824 155.736 50.9593C155.736 52.5362 157.011 53.8146 158.583 53.8146Z" fill="#FFE75C"/>
<path d="M180.633 95.2007C186.542 95.2007 191.333 91.1231 191.333 86.0932C191.333 81.0634 186.542 76.9858 180.633 76.9858C174.723 76.9858 169.933 81.0634 169.933 86.0932C169.933 91.1231 174.723 95.2007 180.633 95.2007Z" fill="#698EFF"/>
<path d="M136.577 91.2123C137.794 91.1631 138.862 90.4137 139.326 89.2869C141.524 83.9483 147.916 68.6762 150.075 63.0149C155.622 47.3162 178.304 57.8513 165.379 75.4808C164.539 78.3142 159.189 92.1203 157.356 97.5355C155.524 102.951 152.748 108.913 140.122 109.608C138.933 109.46 130.366 110.007 117.091 110.204C102.333 110.8 103.424 92.4212 115.013 92.175C120.02 91.8961 131.849 91.4038 136.577 91.2123Z" fill="#698EFF"/>
<path d="M85.1271 42.7622C83.5727 41.8487 82.4384 40.4046 82.0566 38.605C81.4403 35.695 82.9783 32.6975 85.6997 30.9581C86.4741 30.4603 87.3522 30.0665 88.3011 29.8094C88.3884 29.7821 88.4811 29.7602 88.5738 29.7383C92.9859 28.6662 95.4183 30.6627 99.4922 33.2281C101.957 34.7816 105.448 36.3022 108.191 37.3907L85.1271 42.7622Z" fill="#55F186"/>
<path d="M97.9762 41.3063C98.3907 41.2079 98.7506 40.8797 98.8869 40.4093C99.0942 39.7091 98.7288 38.9707 98.0743 38.7519C92.2443 36.7991 87.4613 32.0512 84.9635 25.739C84.6963 25.0662 83.971 24.7544 83.3383 25.0388C82.7112 25.3232 82.4166 26.1 82.6784 26.7728C85.4653 33.8071 90.8045 39.091 97.3326 41.279C97.5508 41.3501 97.7689 41.3556 97.9762 41.3063Z" fill="#008D3C"/>
<path d="M93.5695 40.9793L111.19 36.9425C116.601 34.0981 118.869 28.8962 117.37 23.5138C116.273 19.581 112.079 17.1195 107.476 18.2955C102.148 19.663 100.719 23.946 99.225 27.7257C95.8982 36.1275 93.5695 40.9793 93.5695 40.9793Z" fill="#26CB7A"/>
<path d="M101.592 44.0103C101.805 43.9556 102.012 43.8462 102.181 43.6657C107.411 38.2177 110.634 31.8015 111.027 26.0635C111.076 25.336 110.563 24.7015 109.882 24.6468C109.194 24.5921 108.605 25.1446 108.556 25.8721C108.393 28.2843 107.275 34.6677 100.452 41.7731C99.9612 42.2818 99.9503 43.1242 100.43 43.6438C100.747 43.9884 101.188 44.1088 101.592 44.0103Z" fill="#008D3C"/>
<path d="M138.088 44.2051C135.999 44.5551 134.385 44.8724 132.329 45.3756C131.821 45.5014 131.5 46.032 131.609 46.5517L136.675 70.1817C136.79 70.7068 137.292 71.035 137.799 70.9092C139.855 70.406 141.436 69.941 143.465 69.2846C146.956 68.1524 149.121 64.5422 148.608 60.8336C148.074 56.9609 147.256 53.1593 146.159 49.4234C145.118 45.8351 141.693 43.5979 138.088 44.2051Z" fill="#5D6FDC"/>
<path d="M140.537 49.1947C139.397 49.3479 139.01 49.3862 137.461 49.7472C136.899 49.8785 136.561 50.5403 136.703 51.2241L139.364 63.865C139.506 64.5488 140.079 64.9919 140.64 64.8496C142.184 64.4722 142.549 64.319 143.64 63.9362C144.845 63.515 145.603 62.1858 145.434 60.7855C145.123 58.2037 144.174 53.6965 143.422 51.2241C143.013 49.8785 141.797 49.0252 140.537 49.1947Z" fill="#AEBCFA"/>
<path d="M142.816 58.2745C143.978 63.728 144.267 66.1074 144.539 70.6529C144.921 76.9816 141.594 82.6922 136.119 85.2849C131.68 87.3854 120.352 90.5853 112.39 92.5216C104.427 94.458 92.9143 96.8046 88.066 96.9577C82.0778 97.1492 76.7713 93.539 74.5516 87.6534C72.9591 83.4306 72.261 81.1497 71.0994 75.6962C69.9377 70.2426 68.2471 63.4435 67.9744 58.898C67.5926 52.5693 70.9194 46.8587 76.395 44.266C80.8343 42.1656 92.1617 38.9656 100.124 37.0293C108.087 35.0929 119.599 32.7464 124.448 32.5932C130.436 32.4017 135.743 36.0119 137.962 41.8975C139.555 46.1203 141.654 52.8209 142.816 58.2745Z" fill="#698EFF"/>
<path d="M64.4351 62.443C66.4639 61.7975 68.0455 61.3381 70.107 60.8403C70.6142 60.72 71.1214 61.0481 71.2305 61.5733L76.4116 85.6518C76.5206 86.177 76.1989 86.7021 75.6917 86.8279C73.6301 87.3256 72.0158 87.632 69.9271 87.9766C66.3167 88.5673 62.9081 86.3137 61.8719 82.7254C60.792 78.984 59.7885 74.7503 59.265 70.8776C58.7578 67.1635 60.9338 63.5643 64.4351 62.443Z" fill="#698EFF"/>
<path d="M65.4333 66.9555C66.5076 66.5234 66.8676 66.3538 68.3946 65.9272C68.9509 65.7685 69.5563 66.2718 69.7417 67.0485L73.2485 81.4125C73.4394 82.1892 73.1394 82.9386 72.5831 83.0863C71.0506 83.4965 70.6579 83.5294 69.5236 83.7044C68.2692 83.9013 66.9876 82.9277 66.4858 81.3961C65.5641 78.5846 64.3152 73.4647 63.8353 70.5328C63.5735 68.9411 64.2498 67.4314 65.4333 66.9555Z" fill="#B7CCFF"/>
<path d="M112.057 84.8097L125.86 81.3035C133.196 78.8475 134.385 76.5337 133.861 71.5834C133.501 68.1483 132.459 63.5754 131.303 60.3427C130.087 56.924 126.94 56.1035 123.75 56.9295L103.167 62.2572C99.977 63.0832 97.9646 66.2885 98.679 69.4119L100.522 77.4362C101.989 83.7977 106.063 86.3577 112.057 84.8097Z" fill="#B7CCFF"/>
<path d="M125.621 75.2809L128.238 74.6136C129.635 74.258 130.938 74.7503 131.156 75.7185C131.374 76.6867 130.42 77.7588 129.024 78.1198L126.406 78.7871C125.01 79.1427 123.706 78.6504 123.488 77.6822C123.27 76.714 124.224 75.6419 125.621 75.2809Z" fill="#698EFF"/>
<path d="M110.923 79.171L113.541 78.5037C114.937 78.1482 116.24 78.6404 116.458 79.6086C116.676 80.5768 115.722 81.6489 114.326 82.0099L111.708 82.6772C110.312 83.0328 109.009 82.5405 108.79 81.5723C108.578 80.6041 109.532 79.532 110.923 79.171Z" fill="#698EFF"/>
<path d="M101.09 84.8752C99.5301 84.8643 98.2539 84.104 97.474 82.8896C95.7506 80.2039 92.2221 81.1611 92.1075 84.3829C93.9182 84.3063 95.8215 85.0065 97.2777 86.4724C98.5484 87.7469 99.241 89.366 99.3501 90.9687C99.7591 90.9523 100.179 90.9085 100.61 90.832C105.104 90.0388 105.366 84.908 101.09 84.8752Z" fill="black"/>
<path d="M92.1076 84.3782C92.0804 85.0893 92.2222 85.9153 92.5876 86.8342C93.6729 89.5747 96.1652 91.1008 99.3502 90.9585C99.2466 89.3613 98.554 87.7422 97.2778 86.4623C95.8216 85.0018 93.9183 84.3016 92.1076 84.3782Z" fill="#FF78B9"/>
<path d="M92.1307 71.2506C93.5329 70.8294 94.1379 68.7074 93.482 66.5111C92.8261 64.3147 91.1577 62.8757 89.7555 63.2969C88.3533 63.7181 87.7483 65.8401 88.4041 68.0365C89.06 70.2328 90.7284 71.6719 92.1307 71.2506Z" fill="black"/>
<path d="M88.2135 67.1915C88.8701 67.1915 89.4024 66.6576 89.4024 65.9991C89.4024 65.3405 88.8701 64.8066 88.2135 64.8066C87.5568 64.8066 87.0245 65.3405 87.0245 65.9991C87.0245 66.6576 87.5568 67.1915 88.2135 67.1915Z" fill="white"/>
<path d="M133.339 61.1705C134.523 60.7891 134.98 58.9084 134.36 56.9698C133.739 55.0312 132.276 53.7688 131.091 54.1502C129.907 54.5316 129.45 56.4124 130.071 58.351C130.691 60.2896 132.154 61.5519 133.339 61.1705Z" fill="black"/>
<path d="M130.006 56.8593C130.548 56.8593 130.987 56.4185 130.987 55.8747C130.987 55.331 130.548 54.8901 130.006 54.8901C129.463 54.8901 129.024 55.331 129.024 55.8747C129.024 56.4185 129.463 56.8593 130.006 56.8593Z" fill="white"/>
</g>
<defs>
<linearGradient id="paint0_linear_157_394" x1="11.6593" y1="190.586" x2="267.732" y2="84.72" gradientUnits="userSpaceOnUse">
<stop stop-color="#FFE75C"/>
<stop offset="0.32" stop-color="#FC78C0"/>
<stop offset="0.92" stop-color="#5221DB"/>
</linearGradient>
<linearGradient id="paint1_linear_157_394" x1="292" y1="-122" x2="211.451" y2="228.13" gradientUnits="userSpaceOnUse">
<stop stop-color="#3736BB"/>
<stop offset="0.339235" stop-color="#4670E8"/>
<stop offset="0.492065" stop-color="#8377EB"/>
<stop offset="0.823236" stop-color="#E782F1"/>
<stop offset="0.899558" stop-color="#DF90AF"/>
</linearGradient>
<linearGradient id="paint2_linear_157_394" x1="125.855" y1="42.0872" x2="125.855" y2="157.708" gradientUnits="userSpaceOnUse">
<stop offset="0.3747" stop-color="#57F287"/>
<stop offset="0.4214" stop-color="#61F184"/>
<stop offset="0.5008" stop-color="#7CF07E"/>
<stop offset="0.6033" stop-color="#A8ED72"/>
<stop offset="0.7236" stop-color="#E4E963"/>
<stop offset="0.7742" stop-color="#FFE75C"/>
</linearGradient>
<clipPath id="clip0_157_394">
<rect width="279" height="175" fill="white"/>
</clipPath>
</defs>
</svg>
