<svg fill="none" height="108" viewBox="0 0 180 108" width="180" xmlns="http://www.w3.org/2000/svg" xmlns:xlink="http://www.w3.org/1999/xlink"><filter id="a" color-interpolation-filters="sRGB" filterUnits="userSpaceOnUse" height="162.151" width="146.154" x="18.975" y="-48"><feFlood flood-opacity="0" result="BackgroundImageFix"/><feColorMatrix in="SourceAlpha" result="hardAlpha" type="matrix" values="0 0 0 0 0 0 0 0 0 0 0 0 0 0 0 0 0 0 127 0"/><feOffset/><feGaussianBlur stdDeviation="24"/><feColorMatrix type="matrix" values="0 0 0 0 0.345098 0 0 0 0 0.396078 0 0 0 0 0.94902 0 0 0 0.5 0"/><feBlend in2="BackgroundImageFix" mode="normal" result="effect1_dropShadow"/><feBlend in="SourceGraphic" in2="effect1_dropShadow" mode="normal" result="shape"/></filter><clipPath id="b"><path d="m85 71h20v20h-20z"/></clipPath><clipPath id="c"><path d="m21 0h134.442v82h-134.442z"/></clipPath><clipPath id="d"><path d="m0 0h50.0196v66.3321h-50.0196z" transform="matrix(.868164 -.496277 .503732 .86386 20.181 25.6973)"/></clipPath><clipPath id="e"><path d="m0 0h50.0196v66.3321h-50.0196z" transform="matrix(.868164 -.496277 .503732 .86386 20.181 25.6973)"/></clipPath><clipPath id="f"><path d="m0 0h50.0196v49.7491h-50.0196z" transform="matrix(.868164 -.496277 .503732 .86386 28.5344 40.0227)"/></clipPath><clipPath id="g"><path d="m0 0h33.3464v33.1661h-33.3464z" transform="matrix(.868164 -.496277 .503732 .86386 39.9486 43.0483)"/></clipPath><clipPath id="h"><path d="m0 0h50.0198v66.3323h-50.0198z" transform="matrix(.868358 .495938 -.504073 .863661 120.489 .890381)"/></clipPath><clipPath id="i"><path d="m0 0h50.0198v66.3323h-50.0198z" transform="matrix(.868358 .495938 -.504073 .863661 120.489 .890381)"/></clipPath><clipPath id="j"><path d="m0 0h50.0198v49.7493h-50.0198z" transform="matrix(.868358 .495938 -.504073 .863661 112.13 15.2126)"/></clipPath><clipPath id="k"><path d="m0 0h33.3465v33.1662h-33.3465z" transform="matrix(.868358 .495938 -.504073 .863661 115.19 26.5083)"/></clipPath><clipPath id="l"><path d="m66.975 0h50.1544v66.1513h-50.1544z"/></clipPath><clipPath id="m"><path d="m66.975 0h50.1544v66.1513h-50.1544z"/></clipPath><mask id="n" height="80" maskUnits="userSpaceOnUse" width="180" x="0" y="28"><path d="m0 36c0-4.4183 3.58172-8 8-8h164c4.418 0 8 3.5817 8 8v72h-180z" fill="#292b2f"/></mask><mask id="o" height="82" maskUnits="userSpaceOnUse" width="135" x="21" y="0"><path clip-rule="evenodd" d="m57.4546 80.7925 25.6127-14.6412h17.9447l25.615 14.6295c1.351.7718 2.027 1.1576 2.699 1.1914.579.0282 1.169-.1282 1.656-.4389.565-.3616.955-1.03 1.735-2.3667l21.002-35.9845c.683-1.1696 1.024-1.7544 1.212-2.3792.102-.3398.172-.6813.2-1.0316.02-.2271.033-.4425.022-.6716-.016-.6616-.19-1.3017-.541-2.6006l-4.213-15.5502c-.351-1.299-.525-1.9391-.845-2.52-.107-.2039-.227-.3839-.359-.5708l-5.879 10.0732c-.78 1.3368-1.17 2.0051-1.204 2.6699-.004.0677-.005.1355-.003.2033-.002-.0678-.001-.1357.002-.2034.035-.6648.425-1.3332 1.205-2.6699l5.879-10.0733c-.201-.2898-.435-.5506-.695-.7945-.478-.4483-1.069-.7859-2.251-1.4612l-21.899-12.50672c-1.351-.77177-2.027-1.15765-2.699-1.19138-.579-.02819-1.169.12819-1.656.43886-.565.36162-.955 1.02998-1.735 2.36672l-4.79 8.20782-10.454-10.34039v-.00004c-.961-.9509-1.434-1.41946-2.006-1.763991-.195-.124034-.39-.220504-.599-.316975v.000036c-.32-.151597-.6546-.261849-1.0029-.344538-.6408-.15159725-1.3235-.15159736-2.6888-.1515976l-25.2862-.0000044c-1.5604 0-2.3405 0-2.9396.303193-.5155.261848-.9474.689075-1.2121 1.198987-.3065.59261-.3065 1.36437-.3065 2.9079v9.47752l-14.2792-3.7848c-1.3131-.34808-1.9602-.51959-2.629-.53545-.2315-.01094-.449.00196-.6785.02175l-.0065-.01105c-.354.02728-.6992.09726-1.0425.19802-.6315.18588-1.2225.52373-2.4047 1.19953l-21.8935 12.5152c-1.351.7723-2.0265 1.1584-2.3921 1.7176-.314.4819-.4722 1.0658-.4438 1.6385.0339.665.4238 1.3335 1.2034 2.6706l28.9585 49.6614c.7796 1.3371 1.1695 2.0056 1.7342 2.3672.4867.3107 1.0765.467 1.655.4387.6719-.0339 1.3474-.42 2.6984-1.1923zm-.59-58.8601c-.495-.3806-.8824-1.0443-1.5977-2.27l-5.2989-9.079 5.2889 9.0702c.7202 1.235 1.1077 1.8996 1.6077 2.2788z" fill="#939bf9" fill-rule="evenodd"/></mask><g mask="url(#n)"><path d="m0 36c0-4.4183 3.58172-8 8-8h164c4.418 0 8 3.5817 8 8v64c0 4.418-3.582 8-8 8h-164c-4.41828 0-8-3.582-8-8z" fill="#36393f"/></g><g clip-path="url(#b)"><path clip-rule="evenodd" d="m96.1783 71 3.8217 3.8217v6.2466c-1.625.2325-3.0325 1.13-3.9367 2.4142l-1.0633-2.4825-3.3333 4.1667-1.6667-1.6667-2.5 3.3333h7.5v.0009c0 .8958.2083 1.7408.5683 2.4991h-8.9016c-.9192 0-1.6667-.7475-1.6667-1.6666v-15c0-.9184.7475-1.6667 1.6667-1.6667zm-8.6783 8.75c0 1.1517.9317 2.0833 2.0833 2.0833 1.1492 0 2.0834-.9316 2.0834-2.0833 0-1.1508-.9342-2.0833-2.0834-2.0833-1.1516 0-2.0833.9325-2.0833 2.0833zm7.5-7.9167v4.1667h4.1667zm1.9108 15.2441 3.9222-3.9225 3.923 3.9225-1.179 1.1775-1.91-1.91v4.6559h-1.667v-4.6559l-1.9109 1.91z" fill="#fff" fill-opacity=".16" fill-rule="evenodd"/></g><rect height="62" rx="4" stroke="#4f545c" stroke-dasharray="8 4" stroke-linejoin="round" stroke-width="2" width="162" x="9" y="37"/><g clip-path="url(#c)"><g mask="url(#o)"><g clip-path="url(#d)"><g clip-path="url(#e)"><path d="m73.8043 18.3626 20.9879 35.9926c.7797 1.3371 1.1695 2.0056 1.2035 2.6706.0283.5727-.1298 1.1566-.4438 1.6385-.3656.5591-1.0411.9453-2.3921 1.7176l-35.7052 20.4105c-1.351.7723-2.0265 1.1584-2.6984 1.1923-.5785.0283-1.1683-.128-1.655-.4387-.5647-.3617-.9545-1.0302-1.7342-2.3672l-28.9585-49.6614c-.7796-1.3371-1.1694-2.0056-1.2034-2.6706-.0284-.5727.1298-1.1566.4438-1.6385.3656-.5591 1.0411-.9453 2.3921-1.7176l21.8936-12.5152c1.1821-.6757 1.7731-1.01362 2.4046-1.19949.3433-.10076.6885-.17075 1.0425-.19803l5.8753 10.07552c.7796 1.3371 1.1694 2.0056 1.7341 2.3672.4868.3107 1.0765.467 1.6551.4387.6718-.0339 1.3473-.42 2.6984-1.1923l10.1808-5.8198c.2928.1988.5563.4301.8027.6872.4529.4733.794 1.0582 1.4762 2.2281z" fill="#d3d6fd"/><path d="m68.4022 14.2561c1.3126.3479 1.9594.5194 2.5464.8364.206.1051.3879.224.5768.3548l-10.1808 5.8197c-1.351.7723-2.0265 1.1584-2.6984 1.1923-.5785.0283-1.1683-.128-1.655-.4387-.5647-.3616-.9545-1.0301-1.7342-2.3672l-5.8752-10.07552c.2296-.01987.4472-.03284.6788-.02193.6686.01573 1.3154.18717 2.628.53515z" fill="#939bf9"/></g><g clip-path="url(#f)"><g clip-path="url(#g)"><path clip-rule="evenodd" d="m67.8785 30.2657-9.65 5.5164 1.3922 2.3876 9.6501-5.5164zm4.1767 7.1627-9.65 5.5164 1.3922 2.3876 9.6501-5.5164zm-19.9484 20.9537 24.1251-13.7909 1.3923 2.3876-24.1252 13.7909zm28.3019-6.6282-24.1252 13.7909 1.3922 2.3875 24.1252-13.7908zm-25.0551-1.5947-2.4125 1.3791-4.1767-7.1627-3.6188 2.0686-1.3922-2.3876 9.6501-5.5163 1.3922 2.3875-3.6188 2.0687z" fill="#5865f2" fill-rule="evenodd"/></g></g></g><g clip-path="url(#h)"><g clip-path="url(#i)"><path d="m153.719 43.1821-21.002 35.9844c-.78 1.3367-1.17 2.0051-1.735 2.3667-.487.3107-1.077.4671-1.656.4389-.672-.0337-1.348-.4196-2.699-1.1914l-35.7133-20.3966c-1.3513-.7718-2.027-1.1577-2.3925-1.7165-.3141-.4818-.4722-1.0654-.4437-1.6379.0341-.6648.4242-1.3332 1.2044-2.6699l28.9781-49.65018c.78-1.33673 1.17-2.0051 1.735-2.36671.487-.31068 1.077-.46705 1.656-.43886.672.03373 1.348.41961 2.699 1.19137l21.899 12.50668c1.182.6753 1.773 1.013 2.252 1.4612.259.2439.493.5048.694.7946l-5.879 10.0732c-.78 1.3368-1.17 2.0051-1.205 2.6699-.028.5725.13 1.1562.444 1.6379.366.5589 1.041.9447 2.393 1.7165l10.183 5.8158c-.028.3503-.098.6919-.2 1.0316-.188.6248-.529 1.2096-1.212 2.3793z" fill="#d3d6fd"/><path d="m154.612 36.4989c.351 1.299.525 1.9391.541 2.6007.011.2291-.002.4444-.022.6717l-10.183-5.8158c-1.352-.7718-2.027-1.1577-2.393-1.7166-.314-.4817-.472-1.0653-.444-1.6378.035-.6648.425-1.3332 1.205-2.6699l5.879-10.0733c.132.1869.252.3669.359.5708.32.5809.494 1.221.845 2.52z" fill="#939bf9"/></g><g clip-path="url(#j)"><g clip-path="url(#k)"><path clip-rule="evenodd" d="m120.694 33.2011c.496.0603.929.2281 1.341.4316.388.1897.847.4516 1.378.7548l.036.0206-1.393 2.3871c-.58-.3308-.954-.5444-1.238-.691-.292-.1346-.414-.1727-.476-.1764-.359-.046-.74.0548-1.028.2724-.059.0459-.139.1276-.323.3883-.191.2727-.407.6427-.742 1.2155l-2.11 3.6164c-.307.5251-.572.9787-.812 1.3349-.266.3732-.544.7395-.943 1.0369-.379.2923-.804.4956-1.255.6355.103.4568.137.9219.071 1.3934-.061.4904-.23.9187-.436 1.3263-.192.3838-.457.8373-.763 1.3625l-2.111 3.6163c-.334.5729-.55.9429-.698 1.2243-.136.2883-.175.4095-.179.471-.046.3553.056.7319.276 1.0166.046.0583.129.1373.392.3197.276.1892.65.4028 1.229.7336l-1.393 2.387-.036-.0206c-.531-.3032-.99-.5651-1.35-.8026-.377-.2632-.747-.5383-1.048-.9328-.672-.8611-.98-1.9599-.826-3.0498.061-.4903.23-.9186.436-1.3263.192-.3837.457-.8373.763-1.3624l2.111-3.6164c.334-.5729.55-.9429.698-1.2243.136-.2882.175-.4094.179-.471.046-.3553-.056-.7318-.276-1.0166-.046-.0583-.129-.1373-.392-.3196-.276-.1893-.65-.4029-1.229-.7337l1.393-2.387c.579.3308.953.5444 1.238.6909.291.1347.414.1728.476.1765.359.046.733-.0429 1.028-.2724.059-.0459.138-.1276.323-.3883.191-.2727.407-.6427.741-1.2156l2.111-3.6163c.307-.5252.571-.9787.811-1.3349.266-.3732.545-.7395.943-1.0369.871-.6645 1.982-.969 3.083-.8172zm11.755 20.5424c.047.0584.129.1374.393.3197.276.1893.65.4029 1.229.7336l-1.393 2.3871c-.579-.3308-.954-.5444-1.238-.691-.291-.1346-.414-.1727-.476-.1764-.359-.046-.74.0549-1.028.2724-.059.0459-.139.1276-.323.3883-.191.2727-.407.6427-.742 1.2156l-2.11 3.6163c-.307.5251-.571.9787-.812 1.3349-.266.3732-.544.7395-.943 1.0369-.87.6645-1.993.9621-3.083.8172-.495-.0604-.928-.2281-1.34-.4316-.388-.1897-.847-.4516-1.378-.7548l-.036-.0206 1.393-2.3871c.579.3308.954.5444 1.238.6909.291.1347.414.1728.476.1765.359.046.733-.0429 1.028-.2724.059-.0459.139-.1276.323-.3883.191-.2727.407-.6427.742-1.2156l2.11-3.6163c.307-.5252.571-.9787.812-1.3349.266-.3732.556-.7326.943-1.0369.379-.2923.804-.4956 1.255-.6355-.103-.4568-.137-.9219-.071-1.3934.061-.4904.23-.9187.436-1.3263.192-.3838.457-.8373.763-1.3625l2.111-3.6163c.334-.5729.55-.9429.698-1.2243.136-.2883.175-.4095.179-.471.046-.3554-.056-.7319-.276-1.0166-.046-.0583-.129-.1373-.392-.3197-.276-.1892-.65-.4029-1.229-.7336l1.393-2.387.036.0206c.531.3032.99.5651 1.35.8026.377.2632.747.5383 1.048.9328.672.8611.979 1.9599.826 3.0498-.061.4903-.231.9186-.436 1.3263-.192.3837-.457.8373-.763 1.3624l-2.111 3.6164c-.334.5729-.55.9428-.699 1.2242-.136.2883-.174.4095-.178.471-.046.3554.056.7319.275 1.0166z" fill="#5865f2" fill-rule="evenodd"/></g></g></g><g filter="url(#a)"><g clip-path="url(#l)"><g clip-path="url(#m)"><path d="m117.129 20.1899v41.5513c0 1.5435 0 2.3153-.306 2.9079-.265.5099-.697.9371-1.212 1.199-.599.3032-1.379.3032-2.94.3032h-41.2379c-1.5603 0-2.3405 0-2.9396-.3032-.5154-.2619-.9473-.6891-1.212-1.199-.3065-.5926-.3065-1.3644-.3065-2.9079v-57.33112c0-1.54353 0-2.31529.3065-2.90789.2647-.509921.6966-.937148 1.212-1.198996.5991-.30319363 1.3793-.3031935 2.9396-.30319323l25.2863.00000437c1.3653.00000024 2.0479.00000036 2.6888.15159686.3483.082689.6828.192942 1.0028.344538v11.63156c0 1.5436 0 2.3153.307 2.9079.264.51.696.9372 1.212 1.199.599.3032 1.379.3032 2.939.3032h11.759c.153.317.265.6478.348.9923.153.6339.153 1.3092.153 2.6598z" fill="#d3d6fd"/><path d="m114.524 13.9606c.961.951 1.435 1.4195 1.783 1.9846.126.1929.223.3859.321.5926h-11.759c-1.56 0-2.34 0-2.939-.3032-.516-.2619-.948-.6891-1.212-1.199-.307-.5926-.307-1.3644-.307-2.9079v-11.631606c.209.09647.404.192941.599.316975.572.344541 1.045.813111 2.006 1.764031z" fill="#939bf9"/></g><path clip-rule="evenodd" d="m78.1204 27.563h11.1454v5.5126h-11.1454zm16.7181 0h11.1455v5.5126h-11.1455zm-5.5727 11.0252h-11.1454v5.5126h11.1454zm5.5727 0h11.1455v5.5126h-11.1455zm-5.5727 11.0252h-11.1454v5.5126h11.1454zm5.5727 0h11.1455v5.5126h-11.1455z" fill="#5865f2" fill-rule="evenodd"/></g></g></g></g></svg>