<svg xmlns="http://www.w3.org/2000/svg" viewBox="0 0 262 100">
  <defs>
    <linearGradient id="sky-gradient" x1="0" x2="1" y1="0" y2="1">
      <stop style="fill: var(--primary-2, #a2ccdd); stop-color: var(--primary-2, #a2ccdd);" offset="0%"/>
      <stop style="fill: var(--primary-0, #0fa3dd); stop-color: var(--primary-0, #0fa3dd);" offset="100%"/>
    </linearGradient>
    <style>
      .sky{fill:url(#sky-gradient)}
    </style>
  </defs>
  <g class="sky">
    <path id="sky" transform="rotate(180 131 50)" d="M0 0h262v100H0z"/>
  </g>
  <g id="wrapper-layer" style="isolation: isolate">
    <g id="Layer_6" data-name="Layer 6">
      <path style="fill: var(--secondary-2, #35748a)" d="M179.72 42.32a4.25 4.25 0 0 0-1.19 2.61l-.84 4.21c-.67 3.37-1.34 6.75-1.87 10.15-.92 6-1.39 12.08-.22 18a10.6 10.6 0 0 0 2.59 5.71 2.76 2.76 0 0 0 1.63.87 2.92 2.92 0 0 0 2.41-1.37c1.76-2.31 2-5.38 2.23-8.27a67.89 67.89 0 0 0 .25-8.06c-.11-2.14-.41-4.26-.35-6.4 0-1 .14-2.08.14-3.12a29.77 29.77 0 0 0-.63-5.23c-.27-1.52-.93-11.7-4.15-9.1Z"/>
      <path style="fill: var(--secondary-3, #65a88f)" d="M179.64 52.35a.91.91 0 0 0 .42.89 1.33 1.33 0 0 1 .52 1c0 .55-.31 1-.35 1.59a1.25 1.25 0 0 0 .56 1.12.32.32 0 0 1 .13.43 1.4 1.4 0 0 0-.06 1.39 2 2 0 0 0 1.34 1 .31.31 0 0 1 .25.37c-.29 1.44 1.11 3.36 0 4.4-.51.48-1.48.69-1.44 1.39a3.11 3.11 0 0 0 .28.75c.28.76-.17 1.53-.06 2.31.15 1.1 1.34 2 1.49 3.1a13.63 13.63 0 0 0 0 1.69 3.09 3.09 0 0 0 .57 1l.5.72a.3.3 0 0 0 .55-.15c0-.4.07-.79.09-1.18a67.89 67.89 0 0 0 .25-8.06c-.11-2.14-.41-4.26-.35-6.4 0-1 .14-2.08.14-3.12a29.77 29.77 0 0 0-.63-5.23c-.25-1.34-.82-10-3.39-9.45a4.42 4.42 0 0 1 1.12 4.34.29.29 0 0 1-.41.19l-.41-.18a.3.3 0 0 0-.38.45 5.07 5.07 0 0 1 1.13 2.94.58.58 0 0 1-.86.48h-.06c.1.62.2 1.24.31 1.86a1.59 1.59 0 0 1-.13-.22.59.59 0 0 0-1.09.22Z"/>
      <path style="fill: var(--secondary-2, #35748a)" d="M168.72 42.32a4.25 4.25 0 0 0-1.19 2.61l-.84 4.21c-.67 3.37-1.34 6.75-1.87 10.15-.92 6-1.39 12.08-.22 18a10.6 10.6 0 0 0 2.59 5.71 2.76 2.76 0 0 0 1.63.87 2.92 2.92 0 0 0 2.41-1.37c1.76-2.31 2-5.38 2.23-8.27a67.89 67.89 0 0 0 .25-8.06c-.11-2.14-.41-4.26-.35-6.4 0-1 .14-2.08.14-3.12a29.77 29.77 0 0 0-.63-5.23c-.27-1.52-.93-11.7-4.15-9.1Z"/>
      <path style="fill: var(--secondary-3, #65a88f)" d="M168.64 52.35a.91.91 0 0 0 .42.89 1.33 1.33 0 0 1 .52 1c0 .55-.31 1-.35 1.59a1.25 1.25 0 0 0 .56 1.12.32.32 0 0 1 .13.43 1.4 1.4 0 0 0-.06 1.39 2 2 0 0 0 1.34 1 .31.31 0 0 1 .25.37c-.29 1.44 1.11 3.36 0 4.4-.51.48-1.48.69-1.44 1.39a3.11 3.11 0 0 0 .28.75c.28.76-.17 1.53-.06 2.31.15 1.1 1.34 2 1.49 3.1a13.63 13.63 0 0 0 0 1.69 3.09 3.09 0 0 0 .57 1l.5.72a.3.3 0 0 0 .55-.15c0-.4.07-.79.09-1.18a67.89 67.89 0 0 0 .25-8.06c-.11-2.14-.41-4.26-.35-6.4 0-1 .14-2.08.14-3.12a29.77 29.77 0 0 0-.63-5.23c-.25-1.34-.82-10-3.39-9.45a4.42 4.42 0 0 1 1.12 4.34.29.29 0 0 1-.41.19l-.41-.18a.3.3 0 0 0-.38.45 5.07 5.07 0 0 1 1.13 2.94.58.58 0 0 1-.86.48h-.06c.1.62.2 1.24.31 1.86a1.59 1.59 0 0 1-.13-.22.59.59 0 0 0-1.09.22Z"/>
      <path style="fill: var(--secondary-2, #35748a)" d="M190.72 42.32a4.25 4.25 0 0 0-1.19 2.61l-.84 4.21c-.67 3.37-1.34 6.75-1.87 10.15-.92 6-1.39 12.08-.22 18a10.6 10.6 0 0 0 2.59 5.71 2.76 2.76 0 0 0 1.63.87 2.92 2.92 0 0 0 2.41-1.37c1.76-2.31 2-5.38 2.23-8.27a67.89 67.89 0 0 0 .25-8.06c-.11-2.14-.41-4.26-.35-6.4 0-1 .14-2.08.14-3.12a29.77 29.77 0 0 0-.63-5.23c-.27-1.52-.93-11.7-4.15-9.1Z"/>
      <path style="fill: var(--secondary-3, #65a88f)" d="M190.64 52.35a.91.91 0 0 0 .42.89 1.33 1.33 0 0 1 .52 1c0 .55-.31 1-.35 1.59a1.25 1.25 0 0 0 .56 1.12.32.32 0 0 1 .13.43 1.4 1.4 0 0 0-.06 1.39 2 2 0 0 0 1.34 1 .31.31 0 0 1 .25.37c-.29 1.44 1.11 3.36 0 4.4-.51.48-1.48.69-1.44 1.39a3.11 3.11 0 0 0 .28.75c.28.76-.17 1.53-.06 2.31.15 1.1 1.34 2 1.49 3.1a13.63 13.63 0 0 0 0 1.69 3.09 3.09 0 0 0 .57 1l.5.72a.3.3 0 0 0 .55-.15c0-.4.07-.79.09-1.18a67.89 67.89 0 0 0 .25-8.06c-.11-2.14-.41-4.26-.35-6.4 0-1 .14-2.08.14-3.12a29.77 29.77 0 0 0-.63-5.23c-.25-1.34-.82-10-3.39-9.45a4.42 4.42 0 0 1 1.12 4.34.29.29 0 0 1-.41.19l-.41-.18a.3.3 0 0 0-.38.45 5.07 5.07 0 0 1 1.13 2.94.58.58 0 0 1-.86.48h-.06c.1.62.2 1.24.31 1.86a1.59 1.59 0 0 1-.13-.22.59.59 0 0 0-1.09.22Z"/>
      <path style="fill: var(--secondary-0, #0b3215)" d="M0 77.56h262V100H0z"/>
      <path style="fill: var(--secondary-1, #a6b51a)" d="M55.1 77.56 262 89.98V77.56H55.1z"/>
      <path style="fill: var(--secondary-4, #621c12)" d="M149.22 70.96h-2.86v-3.05l2.86 3.05z"/>
      <path style="fill: #fff" d="M130.1 70.96v6.6h17.31v-8.13l-7.62-10.51-9.69 12.04z"/>
      <path style="fill: var(--secondary-5, #f96748)" d="M113.43 70.18h16.66l9.7-11.76h-16.38l-9.98 11.76z"/>
      <path style="fill: var(--secondary-4, #621c12)" d="M113.43 70.18h16.67v.77h-16.67z"/>
      <path style="fill: var(--secondary-6, #fbb)" d="m130.1 70.96 9.69-11.72v-.82l-9.69 11.76v.78zM139.79 58.42l9.43 12.54h-.67l-8.76-11.72v-.82z"/>
      <path style="fill: var(--primary-1, #a7e4e4)" d="M114.21 70.96h15.89v6.6h-15.89zM138.13 70.96h3.32v6.6h-3.32z"/>
      <path style="fill: var(--secondary-5, #f96748)" transform="rotate(90 139.79 74.26)" d="M136.74 72.85h6.1v2.82h-6.1z"/>
      <path style="fill: var(--primary-1, #a7e4e4)" d="M132.68 70.18h2.87v5.07h-2.87z"/>
      <path style="fill: var(--primary-0, #0fa3dd); stop-color: var(--primary-0, #0fa3dd);" transform="rotate(90 134.12 72.72)" d="M132.08 71.78h4.07v1.87h-4.07z"/>
      <path style="fill: var(--primary-1, #a7e4e4)" d="M142.68 70.18h2.87v5.07h-2.87z"/>
      <path style="fill: var(--primary-0, #0fa3dd); stop-color: var(--primary-0, #0fa3dd);" transform="rotate(90 144.12 72.72)" d="M142.08 71.78h4.07v1.87h-4.07z"/>
      <circle style="fill: var(--primary-0, #0fa3dd); stop-color: var(--primary-0, #0fa3dd);" cx="139.79" cy="65.44" r="1.55"/>
      <path style="fill: #fff; mix-blend-mode: screen" d="M31.19 25.43a1.12 1.12 0 0 0-.78 1.31 1 1 0 0 1-.8 1.23c-.2.05-.41.06-.61.1a.74.74 0 0 0-.7.63c0 .06 0 .14-.06.14s-.07-.08-.09-.12a1.2 1.2 0 0 1-.15-.61c0-.37.29-.52.57-.67a2.74 2.74 0 0 0 .36-.23.46.46 0 0 0 .17-.43 3.55 3.55 0 0 0-.2-.63 1.55 1.55 0 0 1 .38-1.74l.12-.14a1.06 1.06 0 0 0-.36 0A1 1 0 0 0 28 25a1.08 1.08 0 0 1-1.62.56 1.69 1.69 0 0 0-.66-.2.76.76 0 0 0-.54.28s-.07.1-.12.08 0-.11 0-.16a1.61 1.61 0 0 1 .07-.37.66.66 0 0 1 .69-.51h.53a.54.54 0 0 0 .57-.46c.06-.25.09-.49.16-.73a1.62 1.62 0 0 1 1.2-1.08h.07a3.51 3.51 0 0 0-.87-.37.74.74 0 0 0-.52.13 2.11 2.11 0 0 0-.31.21 1 1 0 0 1-1.35-.14 5.43 5.43 0 0 1-.42-.53.72.72 0 0 0-.89-.3c-.05 0-.12.06-.15 0s0-.09.07-.14a.76.76 0 0 1 .09-.17.74.74 0 0 1 1.07-.19 3.7 3.7 0 0 0 .43.25.46.46 0 0 0 .61-.08c.2-.19.39-.39.59-.59a1.49 1.49 0 0 1 1.43-.34l.31.09c0-.08 0-.13-.06-.18a2.27 2.27 0 0 0-.39-.53.9.9 0 0 0-.87-.24 1 1 0 0 1-1.12-.53 2.18 2.18 0 0 1-.18-.84c0-.52-.15-.68-.64-.83 0 0-.09 0-.1-.06s0-.05.09-.07a1.6 1.6 0 0 1 .37-.12.7.7 0 0 1 .83.4c.05.12.12.23.18.35a.61.61 0 0 0 .84.32 3.14 3.14 0 0 1 .91-.19 1.54 1.54 0 0 1 1.1.47s.07.13.14.1 0-.11 0-.16a2.57 2.57 0 0 0-.08-.62.86.86 0 0 0-.59-.58 1 1 0 0 1-.62-1.38 3.43 3.43 0 0 1 .19-.44.77.77 0 0 0-.13-1.06s-.06 0-.06-.08 0 0 .07 0a1 1 0 0 1 .9.5.94.94 0 0 1 0 .37v.41a.58.58 0 0 0 .51.66c.19.05.4.09.59.15a1.52 1.52 0 0 1 1 1.06l.06.18a1.15 1.15 0 0 0 .16-1.49 1 1 0 0 1-.16-1.22 1.93 1.93 0 0 1 .65-.59l.17-.11a.76.76 0 0 0 .28-.89.27.27 0 0 1 0-.12 2.23 2.23 0 0 1 .5.47.59.59 0 0 1 0 .67c-.08.16-.19.32-.29.48a.54.54 0 0 0 .08.8 4.12 4.12 0 0 1 .67.77 1.54 1.54 0 0 1 .1 1.29.5.5 0 0 1-.05.13s0 .06 0 .08h.07a2.32 2.32 0 0 0 .58-.45.94.94 0 0 0 .17-.74 1.39 1.39 0 0 1 0-.61.86.86 0 0 1 .41-.47 2.2 2.2 0 0 1 1-.21.78.78 0 0 0 .78-.59c0-.05 0-.14.08-.13s.06.08.08.13a1.4 1.4 0 0 1 .1.35.65.65 0 0 1-.36.76l-.44.23a.56.56 0 0 0-.31.74 6.82 6.82 0 0 1 .19.78 1.43 1.43 0 0 1-.4 1.21l-.15.17c.68 0 1.13-.07 1.35-.73a1.12 1.12 0 0 1 .16-.28.92.92 0 0 1 .94-.33 2.25 2.25 0 0 1 .71.26.75.75 0 0 0 1-.13s.06-.1.12-.07 0 .09 0 .14a2 2 0 0 1 0 .24.72.72 0 0 1-.82.62h-.51a.48.48 0 0 0-.5.38c-.1.27-.13.55-.23.82a2 2 0 0 1-.48.67c-.18.16-.43.17-.6.32a.92.92 0 0 0 1.23 0 1.09 1.09 0 0 1 1.76.3c.07.09.13.18.2.26a.72.72 0 0 0 .88.25s.11-.05.14 0 0 .1-.05.14a1.24 1.24 0 0 1-.47.44.74.74 0 0 1-.73-.09l-.32-.2a.53.53 0 0 0-.76.1 2.66 2.66 0 0 0-.32.35 1.6 1.6 0 0 1-1.65.56s-.09-.05-.12 0 0 .07 0 .11a2.59 2.59 0 0 0 .42.51.88.88 0 0 0 .81.17 1 1 0 0 1 1.3 1v.42a.74.74 0 0 0 .63.69s.13 0 .13.07-.08.07-.13.09a1.25 1.25 0 0 1-.25.09.71.71 0 0 1-.94-.4l-.19-.34a.56.56 0 0 0-.71-.28c-.19.06-.38.13-.57.18a1.54 1.54 0 0 1-1.63-.43h-.06a1.12 1.12 0 0 0 .97 1.13 1.08 1.08 0 0 1 .52.34 1.15 1.15 0 0 1 .1 1.12 3.56 3.56 0 0 1-.17.41.75.75 0 0 0 .19.92s.12.07.09.13-.1 0-.15 0h-.17c-.63-.11-.73-.43-.73-1v-.39a.48.48 0 0 0-.36-.44 3.65 3.65 0 0 0-.55-.13 1.59 1.59 0 0 1-1.38-1.32v-.08a3.15 3.15 0 0 0-.33.93 1 1 0 0 0 .3.7 1 1 0 0 1 0 1.34 3.07 3.07 0 0 1-.58.5.77.77 0 0 0-.29.89c0 .05.07.12 0 .15s-.1 0-.14-.06a1.46 1.46 0 0 1-.36-.34.72.72 0 0 1 0-.87l.16-.26a.6.6 0 0 0-.17-.87 3.79 3.79 0 0 1-.51-.47 1.53 1.53 0 0 1-.34-1.39c.03-.01.04-.07.06-.15Z" id="mW1bRT"/>
      <path style="fill: var(--secondary-0, #0b3215)" d="M82.72 42.32a4.25 4.25 0 0 0-1.19 2.61l-.84 4.21c-.67 3.37-1.34 6.75-1.87 10.15-.92 6-1.39 12.08-.22 18A10.6 10.6 0 0 0 81.19 83a2.76 2.76 0 0 0 1.63.87 2.92 2.92 0 0 0 2.41-1.37c1.76-2.31 2-5.38 2.23-8.27a67.89 67.89 0 0 0 .25-8.06c-.11-2.14-.41-4.26-.35-6.4 0-1 .14-2.08.14-3.12a29.77 29.77 0 0 0-.63-5.23c-.27-1.52-.93-11.7-4.15-9.1Z"/>
      <path style="fill: var(--secondary-1, #a6b51a)" d="M82.64 52.35a.91.91 0 0 0 .42.89 1.33 1.33 0 0 1 .52 1c0 .55-.31 1-.35 1.59a1.25 1.25 0 0 0 .56 1.17.32.32 0 0 1 .13.43 1.4 1.4 0 0 0-.06 1.39 2 2 0 0 0 1.34 1 .31.31 0 0 1 .25.37c-.29 1.44 1.11 3.36 0 4.4C85 65 84 65.21 84 65.91a3.11 3.11 0 0 0 .28.75c.28.76-.17 1.53-.06 2.31.15 1.1 1.34 2 1.49 3.1a13.63 13.63 0 0 0 0 1.69 3.09 3.09 0 0 0 .57 1l.5.72a.3.3 0 0 0 .55-.15c0-.4.07-.79.09-1.18a67.89 67.89 0 0 0 .25-8.06c-.11-2.14-.41-4.26-.35-6.4 0-1 .14-2.08.14-3.12a29.77 29.77 0 0 0-.63-5.23c-.25-1.34-.82-10-3.39-9.45a4.42 4.42 0 0 1 1.12 4.34.29.29 0 0 1-.41.19l-.41-.18a.3.3 0 0 0-.38.45 5.07 5.07 0 0 1 1.13 2.94.58.58 0 0 1-.86.48h-.06c.1.62.2 1.24.31 1.86a1.59 1.59 0 0 1-.13-.22.59.59 0 0 0-1.05.25Z"/>
      <path style="fill: var(--secondary-0, #0b3215)" d="M71.72 42.32a4.25 4.25 0 0 0-1.19 2.61l-.84 4.21c-.67 3.37-1.34 6.75-1.87 10.15-.92 6-1.39 12.08-.22 18A10.6 10.6 0 0 0 70.19 83a2.76 2.76 0 0 0 1.63.87 2.92 2.92 0 0 0 2.41-1.37c1.76-2.31 2-5.38 2.23-8.27a67.89 67.89 0 0 0 .25-8.06c-.11-2.14-.41-4.26-.35-6.4 0-1 .14-2.08.14-3.12a29.77 29.77 0 0 0-.63-5.23c-.27-1.52-.93-11.7-4.15-9.1Z"/>
      <path style="fill: var(--secondary-1, #a6b51a)" d="M71.64 52.35a.91.91 0 0 0 .42.89 1.33 1.33 0 0 1 .52 1c0 .55-.31 1-.35 1.59a1.25 1.25 0 0 0 .56 1.17.32.32 0 0 1 .13.43 1.4 1.4 0 0 0-.06 1.39 2 2 0 0 0 1.34 1 .31.31 0 0 1 .25.37c-.29 1.44 1.11 3.36 0 4.4C74 65 73 65.21 73 65.91a3.11 3.11 0 0 0 .28.75c.28.76-.17 1.53-.06 2.31.15 1.1 1.34 2 1.49 3.1a13.63 13.63 0 0 0 0 1.69 3.09 3.09 0 0 0 .57 1l.5.72a.3.3 0 0 0 .55-.15c0-.4.07-.79.09-1.18a67.89 67.89 0 0 0 .25-8.06c-.11-2.14-.41-4.26-.35-6.4 0-1 .14-2.08.14-3.12a29.77 29.77 0 0 0-.63-5.23c-.25-1.34-.82-10-3.39-9.45a4.42 4.42 0 0 1 1.12 4.34.29.29 0 0 1-.41.19l-.41-.18a.3.3 0 0 0-.38.45 5.07 5.07 0 0 1 1.13 2.94.58.58 0 0 1-.86.48h-.06c.1.62.2 1.24.31 1.86a1.59 1.59 0 0 1-.13-.22.59.59 0 0 0-1.05.25Z"/>
      <path style="fill: var(--secondary-0, #0b3215)" d="M93.72 42.32a4.25 4.25 0 0 0-1.19 2.61l-.84 4.21c-.67 3.37-1.34 6.75-1.87 10.15-.92 6-1.39 12.08-.22 18A10.6 10.6 0 0 0 92.19 83a2.76 2.76 0 0 0 1.63.87 2.92 2.92 0 0 0 2.41-1.37c1.76-2.31 2-5.38 2.23-8.27a67.89 67.89 0 0 0 .25-8.06c-.11-2.14-.41-4.26-.35-6.4 0-1 .14-2.08.14-3.12a29.77 29.77 0 0 0-.63-5.23c-.27-1.52-.93-11.7-4.15-9.1Z"/>
      <path style="fill: var(--secondary-1, #a6b51a)" d="M93.64 52.35a.91.91 0 0 0 .42.89 1.33 1.33 0 0 1 .52 1c0 .55-.31 1-.35 1.59a1.25 1.25 0 0 0 .56 1.17.32.32 0 0 1 .13.43 1.4 1.4 0 0 0-.06 1.39 2 2 0 0 0 1.34 1 .31.31 0 0 1 .25.37c-.29 1.44 1.11 3.36 0 4.4C96 65 95 65.21 95 65.91a3.11 3.11 0 0 0 .28.75c.28.76-.17 1.53-.06 2.31.15 1.1 1.34 2 1.49 3.1a13.63 13.63 0 0 0 0 1.69 3.09 3.09 0 0 0 .57 1l.5.72a.3.3 0 0 0 .55-.15c0-.4.07-.79.09-1.18a67.89 67.89 0 0 0 .25-8.06c-.11-2.14-.41-4.26-.35-6.4 0-1 .14-2.08.14-3.12a29.77 29.77 0 0 0-.63-5.23c-.25-1.34-.82-10-3.39-9.45a4.42 4.42 0 0 1 1.12 4.34.29.29 0 0 1-.41.19l-.41-.18a.3.3 0 0 0-.38.45 5.07 5.07 0 0 1 1.13 2.94.58.58 0 0 1-.86.48h-.06c.1.62.2 1.24.31 1.86a1.59 1.59 0 0 1-.13-.22.59.59 0 0 0-1.05.25Z"/>
    </g>
  </g>
</svg>
