<svg fill="none" height="121" viewBox="0 0 135 121" width="135" xmlns="http://www.w3.org/2000/svg" xmlns:xlink="http://www.w3.org/1999/xlink"><clipPath id="a"><path d="m0 .5h135v120h-135z"/></clipPath><clipPath id="b"><path d="m0 0h68.25v81.75h-68.25z" transform="matrix(-1 0 0 1 102 17)"/></clipPath><g clip-path="url(#a)"><g fill="#fff"><path d="m44.6491 30.562c0-3.3129-2.4002-6.062-5.3652-6.062h-5.5769c-2.965 0-5.3652 2.6786-5.3652 6.062 0 .6344-.4236 1.1984-1.0589 1.1984h-1.6943c-2.5414 0-4.5886 2.3261-4.5886 5.1456h31.0615c0-2.2556-1.6237-4.1588-3.6709-4.1588h-1.6943c-1.2001 0-2.1178-.9868-2.0472-2.1852 0 0 0 .0705 0 0z" opacity=".2"/><path d="m113.562 85.027h-31.062c.0706-2.8196 2.4002-5.0048 5.224-4.9343h5.6475c.4942 0 .9178-.3524.9178-.8458.0706-3.3835 2.9649-6.0621 6.3537-5.9916h.282c3.389-.141 6.212 2.5376 6.354 5.9916v1.7622c0 .9868.847 1.7622 1.835 1.6917h2.047c1.271-.0705 2.33.9164 2.401 2.3262 0-.0705 0-.0705 0 0z" opacity=".2"/><path d="m38.5615 107.527h-31.0615c.07059-2.82 2.40021-5.005 5.224-4.934h5.6475c.4942 0 .9178-.353.9178-.846.0706-3.3836 2.9649-6.0622 6.3534-5.9917h.2824c3.3886-.141 6.2123 2.5376 6.3535 5.9917v1.762c0 .987.8472 1.762 1.8355 1.692h2.0472c1.2707-.071 2.3296.916 2.4002 2.326 0-.071 0-.071 0 0z" opacity=".1"/><path d="m197.25 20.75h-99.75c0-8.3415 7.478-15.03658 16.798-15.03658h18.178c1.61 0 2.876-1.09755 2.876-2.63414 0-10.09756 9.089-18.32928 20.364-18.32928h.806c11.275 0 20.364 8.23172 20.364 18.32928v5.4878c.115 2.96342 2.761 5.26832 5.867 5.26832h6.673c4.142-.2195 7.709 2.9634 7.824 6.9146z" opacity=".1"/></g><g clip-path="url(#b)"><path d="m91.4936 68.8466c.0991.002.1957-.0307.2732-.0922.0774-.0616.1306-.1482.1504-.2448l2.7537-13.4776c.0123-.0553.0133-.1126.0028-.1684-.0106-.0558-.0323-.1088-.0639-.156-.0317-.0472-.0726-.0876-.1203-.1187-.0478-.0311-.1013-.0523-.1575-.0623-.0557-.0122-.1133-.0131-.1694-.0027-.0561.0105-.1095.0321-.157.0636-.0474.0314-.088.0721-.1193.1196-.0313.0474-.0526.1006-.0627.1565l-2.7537 13.4776c-.0142.1107.0123.2227.0745.3156.0623.0929.1562.1602.2644.1898z" fill="#dae2ed"/><path d="m58.2369 48.0827h8.1765c5.1261 0 7.6257-2.4428 7.6257-2.4428v10.6136h-5.1262c-.466-2.6534-2.7961-3.8327-5.6345-3.8327h-4.9991c-.3115.0462-.6294.0255-.9322-.0608s-.5835-.2361-.8231-.4394-.4325-.4553-.5658-.739c-.1334-.2837-.2039-.5925-.207-.9057-.003-.3131.0615-.6232.1892-.9095.1278-.2862.3158-.5419.5514-.7497.2355-.2079.5132-.3631.8143-.4552.301-.0921.6184-.119.9308-.0788z" fill="#80a7ff"/><path d="m64.719 69.9838h1.9911c.2472 0 .4843.0976.6591.2714.1748.1737.273.4094.273.6552v4.1275c.0108.5439.233 1.0626.62 1.4473.387.3848.9087.6056 1.4559.6164.5471-.0108 1.0689-.2316 1.4558-.6164.387-.3847.6092-.9034.62-1.4473v-17.3524c-.0111-.6071-.2614-1.1855-.6972-1.6108-.4358-.4254-1.0221-.6637-1.6328-.6636h-7.0326c-.6068 0-1.1886.2397-1.6177.6662-.429.4265-.67 1.005-.67 1.6082v7.7075c-.0056.6008.1086 1.1969.336 1.7536.2275.5568.5636 1.0632.989 1.49.4254.4269.9317.7657 1.4896.9969.5579.2313 1.1564.3503 1.7608.3503z" fill="#80a7ff"/><path d="m62.0921 49.7674c.9335-1.2758 2.1566-2.3145 3.5701-3.0318 1.4134-.7172 2.9771-1.0926 4.564-1.0957h13.5992c1.6067 0 3.1476.6345 4.2837 1.764 1.1362 1.1295 1.7744 2.6614 1.7744 4.2588v11.0348c.0001 1.0651-.4226 2.0871-1.1761 2.8442-.7536.7571-1.7772 1.1879-2.8485 1.199h-19.6997c-1.5994-.0111-3.1295-.6505-4.2565-1.7788s-1.7594-2.6539-1.7594-4.244v-5.054c-.0031-2.1224.6801-4.1896 1.9488-5.8965z" fill="#9cb8ff"/><path clip-rule="evenodd" d="m46.2053 96.8126c3.8387 1.7512 8.1136 2.3313 12.284 1.6668 4.1703-.6644 8.0488-2.5435 11.1447-5.3996 3.096-2.8561 5.2704-6.5608 6.2483-10.6456.9778-4.0848.7151-8.3662-.7549-12.3025-1.47-3.9364-4.0812-7.3509-7.5034-9.8117-3.4223-2.4608-7.5017-3.8573-11.7224-4.0129-4.2206-.1556-8.3929.9367-11.989 3.1388-3.5962 2.202-6.4546 5.4149-8.2138 9.2322-2.3347 5.1193-2.5405 10.9482-.5727 16.2176s5.9499 9.5525 11.0792 11.9169z" fill="#4f5d7f" fill-rule="evenodd"/><path clip-rule="evenodd" d="m77.3858 81.6503h6.9479c.2847-.0109.5541-.131.7516-.3352s.3077-.4765.3075-.7598v-3.7063c0-.2793-.1116-.5471-.3102-.7446-.1986-.1974-.468-.3084-.7489-.3084h-6.9479c-.2809 0-.5502.111-.7489.3084-.1986.1975-.3102.4653-.3102.7446v3.7063c-.0002.2833.11.5556.3075.7598s.4669.3243.7516.3352z" fill="#ff5c5c" fill-rule="evenodd"/><path clip-rule="evenodd" d="m63.7867 83.7562h16.6918c.8539 0 1.6729-.3372 2.2767-.9375s.943-1.4145.943-2.2634v-5.6438c-.011-.5065-.2212-.9885-.5855-1.3428s-.8537-.5526-1.3632-.5525h-17.9628z" fill="#b7c2ce" fill-rule="evenodd"/><path clip-rule="evenodd" d="m90.5615 72.4687h-2.9232c-1.6185.0006-3.1714.6363-4.3212 1.7689l-1.3557 1.3899c-2.1761 2.1449-5.1121 3.3548-8.1764 3.3694h-11.7351v-8.8447h28.5116z" fill="#000" fill-rule="evenodd"/><path d="m91.324 66.7407h-27.0288v5.728h27.0288c.7641 0 1.4968-.3017 2.0371-.8388.5402-.5371.8437-1.2656.8437-2.0252 0-.7596-.3035-1.488-.8437-2.0251-.5403-.5371-1.273-.8389-2.0371-.8389z" fill="#000"/><path clip-rule="evenodd" d="m49.3402 90.0738c2.4978 1.1455 5.2814 1.5283 7.9981 1.0999 2.7168-.4285 5.2446-1.649 7.2631-3.5068 2.0185-1.8579 3.437-4.2695 4.0757-6.9295.6387-2.6599.469-5.4485-.4878-8.0124-.9567-2.564-2.6574-4.788-4.8865-6.3903-2.2292-1.6022-4.8865-2.5107-7.6355-2.6103-2.7489-.0996-5.4658.6141-7.8063 2.0508-2.3406 1.4367-4.1996 3.5317-5.3416 6.0196-1.5143 3.3257-1.6473 7.1111-.3701 10.5337 1.2771 3.4227 3.8613 6.206 7.1909 7.7453z" fill="#7687b2" fill-rule="evenodd"/><path d="m78.1908 65.393v-10.9506c0-.716.3389-5.0962.8473-8.8025h4.7873c1.5467.0077 3.0327.5991 4.1574 1.6547s1.8041 2.4965 1.9007 4.0311v23.7122c-.0108.5439-.233 1.0626-.62 1.4474-.3869.3847-.9087.6056-1.4558.6163-.5472-.0107-1.0689-.2316-1.4559-.6163-.387-.3848-.6092-.9035-.62-1.4474v-4.1275c0-.2458-.0982-.4815-.273-.6552-.1748-.1738-.4119-.2714-.6591-.2714h-1.9911c-1.2247 0-2.3993-.4837-3.2653-1.3446-.866-.861-1.3525-2.0287-1.3525-3.2462z" fill="#80a7ff"/><path d="m53.3649 65.056 5.804-14.2357h-1.5675c-.0647.0059-.1299-.0017-.1914-.0224-.0615-.0206-.118-.0538-.1659-.0974-.0479-.0437-.086-.0967-.112-.1559-.0261-.0591-.0394-.123-.0391-.1876 0-.0663.0131-.1321.0387-.1934.0255-.0613.063-.117.1102-.1639.0472-.047.1032-.0842.1649-.1096s.1278-.0385.1946-.0385h11.6927c.1348 0 .2641.0533.3595.1481.0953.0947.1489.2233.1489.3573-.0107.1266-.0689.2446-.1631.3305-.0942.0858-.2175.1333-.3453.1328h-8.3035c-.2283.0007-.4511.0692-.6398.1968-.1888.1276-.3348.3084-.4194.5192l-5.6345 13.8988c-.0359.0921-.1005.1704-.1843.2234-.0839.0531-.1826.0781-.2817.0714h-.1695c-.1277-.0646-.2315-.1678-.2965-.2948-.042-.1229-.042-.2562 0-.3791z" fill="#ebeff7"/><path d="m67.5148 48.0827h8.2188c.3207.0001.6382-.0634.934-.1867.2957-.1233.5638-.3039.7886-.5313s.4018-.497.5207-.7932c.1188-.2961.1771-.6128.1715-.9316h5.1685v10.6136h-5.1262c-.466-2.6534-2.7961-3.8327-5.6345-3.8327h-4.9567c-.3109.0489-.6288.031-.9322-.0526-.3034-.0835-.5852-.2307-.8265-.4317-.2413-.2009-.4365-.451-.5725-.7333-.1359-.2822-.2094-.5902-.2155-.9031s.0553-.6235.1801-.9108.3101-.5447.5434-.7548.5092-.3681.809-.4633c.2999-.0952.6168-.1253.9295-.0885z" fill="#80a7ff"/><g clip-rule="evenodd" fill-rule="evenodd"><path d="m84.9692 45.7662h-17.5391c-1.5095.0001-2.9579-.5932-4.0292-1.6504-1.0714-1.0572-1.6789-2.4926-1.6901-3.9933v-10.4451c.0112-1.5007.6187-2.9361 1.6901-3.9933 1.0713-1.0573 2.5197-1.6505 4.0292-1.6505h17.5391c1.5095 0 2.9579.5932 4.0292 1.6505 1.0714 1.0572 1.6789 2.4926 1.6901 3.9933v10.4451c-.0112 1.5007-.6187 2.9361-1.6901 3.9933-1.0713 1.0572-2.5197 1.6505-4.0292 1.6504z" fill="#80a7ff"/><path d="m81.2834 45.7662h-17.5815c-1.5056 0-2.9495-.5946-4.0141-1.653-1.0647-1.0584-1.6628-2.4939-1.6628-3.9907v-10.4451c0-1.4968.5981-2.9324 1.6628-3.9908 1.0646-1.0584 2.5085-1.653 4.0141-1.653h17.5815c1.5095 0 2.9579.5932 4.0292 1.6505 1.0714 1.0572 1.6789 2.4926 1.6901 3.9933v10.4451c-.0112 1.5007-.6187 2.9361-1.6901 3.9933-1.0713 1.0572-2.5197 1.6505-4.0292 1.6504z" fill="#9cb8ff"/><path d="m88.9939 38.8168h-4.1941v-10.1503h4.1941c.4988 0 .9925.0983 1.4528.2893.4602.191.8778.4709 1.2285.8234.3506.3526.6275.7708.8145 1.2305.1869.4596.2803.9516.2747 1.4474v2.6113c0 .9941-.3972 1.9475-1.1043 2.6505s-1.6662 1.0979-2.6662 1.0979z" fill="#9cb8ff"/><path d="m84.7997 36.5846v-5.6437c0-.1005.0402-.197.1117-.268.0715-.0711.1685-.1111.2696-.1111h3.8128c.4983.011.9724.2156 1.3208.5698.3484.3543.5434.8301.5433 1.3255v2.6113c.0001.4954-.1949.9712-.5433 1.3255-.3484.3542-.8225.5588-1.3208.5698h-3.8128c-.1011 0-.1981-.04-.2696-.111-.0715-.0711-.1117-.1675-.1117-.2681z" fill="#80a7ff"/><path d="m78.1909 35.5317c-.3687 0-.7291-.1087-1.0356-.3123-.3066-.2036-.5455-.4931-.6866-.8317s-.178-.7112-.1061-1.0707c.072-.3595.2495-.6897.5102-.9488.2607-.2592.5928-.4357.9544-.5072s.7364-.0348 1.077.1054c.3406.1403.6318.3778.8366.6826.2048.3047.3141.663.3141 1.0295-.0108.4882-.2106.9533-.5579 1.2986-.3473.3452-.8151.5439-1.3061.5546z" fill="#000"/><path d="m57.8557 29.6774h12.9213c.6067 0 1.1886.2396 1.6176.6661.4291.4265.6701 1.005.6701 1.6082v2.6113c-.0112 1.5007-.6187 2.9361-1.69 3.9933-1.0714 1.0572-2.5197 1.6505-4.0293 1.6504h-6.0582c-1.5095.0001-2.9578-.5932-4.0292-1.6504s-1.6789-2.4926-1.69-3.9933v-2.6113c0-.6032.241-1.1817.67-1.6082s1.0109-.6661 1.6177-.6661z" fill="#b8d0ff"/><path d="m64.7186 40.2067h-3.4316c-1.5095.0001-2.9578-.5932-4.0292-1.6504s-1.6789-2.4926-1.69-3.9933v-2.6113c0-.6032.241-1.1817.67-1.6082s1.0109-.6661 1.6177-.6661h10.2523c.6067 0 1.1886.2396 1.6177.6661.429.4265.67 1.005.67 1.6082v2.6113c0 1.4968-.5981 2.9323-1.6627 3.9907s-2.5086 1.653-4.0142 1.653z" fill="#cbdaf7"/><path d="m63.1512 35.9529h2.4995c.1224 0 .2436.0239.3567.0705s.2158.1148.3024.2009c.0865.086.1552.1882.202.3006.0469.1124.071.2329.071.3546.0057.1251-.0142.2502-.0584.3675-.0443.1173-.112.2245-.1992.3151-.0871.0905-.1918.1626-.3077.2117-.1159.0492-.2407.0745-.3668.0744h-2.4995c-.126.0001-.2508-.0252-.3667-.0744-.116-.0491-.2206-.1212-.3078-.2117-.0871-.0906-.1548-.1978-.1991-.3151s-.0641-.2424-.0584-.3675c0-.1217.0241-.2422.0709-.3546.0469-.1124.1155-.2146.2021-.3006.0865-.0861.1893-.1543.3023-.2009.1131-.0466.2343-.0705.3567-.0705zm-4.4483 0h.9744c.1224 0 .2436.0239.3567.0705.113.0466.2158.1148.3023.2009.0866.086.1552.1882.2021.3006.0468.1124.0709.2329.0709.3546.0057.1251-.0141.2502-.0584.3675s-.112.2245-.1991.3151c-.0872.0905-.1918.1626-.3078.2117-.1159.0492-.2407.0745-.3667.0744h-.9744c-.1261.0001-.2508-.0252-.3667-.0744-.116-.0491-.2207-.1212-.3078-.2117-.0871-.0906-.1549-.1978-.1991-.3151-.0443-.1173-.0642-.2424-.0584-.3675 0-.1217.0241-.2422.0709-.3546s.1155-.2146.202-.3006c.0866-.0861.1893-.1543.3024-.2009s.2343-.0705.3567-.0705z" fill="#9cb8ff"/><path d="m64.2105 42.4389h-1.5252c-.1685 0-.3301-.0665-.4493-.185s-.1861-.2792-.1861-.4467c.0107-.1602.0824-.3102.2004-.4198.1181-.1095.2736-.1702.435-.1699h1.5252c.1614-.0003.317.0604.435.1699.118.1096.1897.2596.2004.4198 0 .1675-.0669.3282-.1861.4467s-.2808.185-.4493.185z" fill="#80a7ff"/><path d="m75.3525 17.8845s6.8631 15.078 8.2188 18.4474c1.9064 4.8856 10.1252 4.296 10.1252-2.6534z" fill="#d0d9ea"/><path d="m59.4231 23.7809s4.7448-6.7809 17.2849-6.7809c12.54 0 18.344 8.8447 18.344 15.794 0 6.9494-8.2188 7.5391-10.1676 2.6534-1.3133-3.3693-3.7281-8.7183-3.7281-8.7183h-21.7332z" fill="#ebeff7"/><path d="m67.8962 23.1913-3.2621-.1264s2.0759-4.2538 9.1084-5.9385c.9321-.0843 1.9065-.1264 2.9656-.1264.8771-.002 1.7538.0402 2.6266.1264-3.1774.379-8.3883 1.6847-11.4385 6.0649z" fill="#d0d9ea"/><path d="m81.1562 26.7291h-29.7825s4.6178-3.959 14.743-3.8326c10.1252.1263 15.0395 3.8326 15.0395 3.8326z" fill="#000"/><path d="m88.3584 32.2887c.1695 1.6426 1.4828 2.8218 2.8808 2.6534 1.3981-.1685 2.3301-1.6005 2.1606-3.2431-.1694-1.6425-1.5251-2.864-2.9232-2.6955-1.398.1685-2.33 1.6426-2.1182 3.2852z" fill="#d0d9ea"/><path d="m90.0107 29.1298c.5082.2307.9473.5888 1.2741 1.0393.3268.4504.5301.9777.5899 1.5299.1695 1.432-.5507 2.7376-1.6522 3.1588-.516-.2197-.9621-.575-1.2905-1.0276-.3283-.4525-.5266-.9855-.5735-1.5416-.2119-1.432.5083-2.7376 1.6522-3.1588z" fill="#7687b2"/><path d="m36.4614 65.8141c.9744 3.1167 11.5656 8.0445 18.2593 10.5715 4.9567-1.5162 17.0731-5.8964 19.0219-9.6028.2053-.3104.2812-.6879.2118-1.0529l-.1695-.3791c-3.6857-5.5174-9.2355-9.0552-15.6326-9.9397-8.0918-1.095-16.1411 2.4849-21.5638 9.5607-.0844.1215-.1397.2605-.1617.4065s-.0102.2951.0346.4358z" fill="#ff7f14"/><path d="m54.6784 77.4807s15.8445-17.8157 13.0907-19.5846c-2.865-1.8548-6.1044-3.0624-9.4897-3.5379-9.1085-1.2214-17.3273 3.1588-22.5382 9.9819-3.6857 4.8435 18.9372 13.1406 18.9372 13.1406z" fill="#ff903e"/><path d="m37.9442 61.8551c-.017.9866.3296 1.9453.9744 2.6955 3.2197 4.2117 14.8701 8.9289 18.2169 10.1924-.8897 2.1901-1.6946 3.6221-2.1606 3.7906l-.3389.0842-.339-.1263c-.5931-.2106-15.3361-5.6859-19.0642-10.5294-1.5675-2.0637-.8897-3.58-.3389-4.2539 1.5675-2.0637 3.135-2.527 3.0503-1.8531z" fill="#dae2ed"/><path d="m50.23 88.1364c2.1091.9652 4.4589 1.2867 6.7519.9238s4.4261-1.3939 6.1296-2.9625c1.7034-1.5686 2.9004-3.6043 3.4397-5.8494.5392-2.2452.3964-4.599-.4104-6.7635-.8068-2.1644-2.2413-4.0423-4.122-5.396-1.8808-1.3536-4.1231-2.1222-6.4434-2.2085-2.3202-.0862-4.6141.5138-6.5912 1.724-1.9772 1.2103-3.5487 2.9764-4.5159 5.075-1.2949 2.8097-1.4154 6.0153-.3352 8.9133s3.273 5.2515 6.0969 6.5438z" fill="#ebeff7"/><path d="m51.0347 86.4517c2.3834 1.0736 5.097 1.1669 7.5492.2596s4.4442-2.7417 5.5416-5.1031c.8111-1.765 1.0776-3.7293.7659-5.6448s-1.1876-3.6962-2.517-5.1169c-1.3294-1.4208-3.0526-2.4178-4.9519-2.8651-1.8992-.4473-3.8892-.3248-5.7185.352-1.8292.6768-3.4156 1.8775-4.5585 3.4505-1.143 1.5729-1.7912 3.4473-1.8629 5.3864-.0716 1.9391.4366 3.8558 1.4605 5.5078 1.0238 1.6521 2.5173 2.9652 4.2916 3.7736z" fill="#dae2ed"/><path d="m50.8656 71.7527-3.0927 5.3489c-.1021.1569-.1564.3397-.1564.5265s.0543.3697.1564.5265l3.0927 5.3489c.0948.1633.2304.2995.3937.3955.1633.0959.3487.1483.5383.152h6.27c.1897-.0037.3751-.0561.5384-.152.1633-.096.2989-.2322.3937-.3955l3.0926-5.3489c.1021-.1568.1565-.3397.1565-.5265s-.0544-.3696-.1565-.5265l-3.0926-5.3489c-.0948-.1633-.2304-.2995-.3937-.3954-.1633-.096-.3487-.1483-.5384-.1521h-6.27c-.1896.0038-.375.0561-.5383.1521-.1633.0959-.2989.2321-.3937.3954z" fill="#c5cedd"/></g><path d="m55.1441 80.9343c-1.8952 0-3.4315-1.5274-3.4315-3.4115s1.5363-3.4115 3.4315-3.4115 3.4316 1.5274 3.4316 3.4115-1.5364 3.4115-3.4316 3.4115z" fill="#fff"/><path d="m94.5861 55.4111c2.669-.6739 3.3469 1.4741 7.4139 1.6847-3.8128 2.3165-4.5331.9266-8.4306 3.4115z" fill="#ff903e"/><path d="m55.1443 98.75h18.9796c1.1274-.0111 2.2049-.4642 2.9982-1.2607.7933-.7966 1.2383-1.8722 1.2383-2.9932 0-1.117-.4464-2.1883-1.2409-2.9781-.7945-.7899-1.8721-1.2336-2.9956-1.2336h-2.4149c-1.0989-.0078-2.1885.2003-3.2063.6123s-1.9438 1.0197-2.7248 1.7884l-1.0167 1.0529c-1.3461 1.3143-3.1548 2.0548-5.0414 2.0638h-1.6099c-.7865 0-1.5408.3106-2.097.8635-.5561.5529-.8686 1.3028-.8686 2.0847z" fill="#ebeff7"/><path d="m80.648 90.2844h5.2533c.6785 0 1.2286.5469 1.2286 1.2214v.0379c0 .6746-.5501 1.2214-1.2286 1.2214h-5.2533c-.6785 0-1.2285-.5468-1.2285-1.2214v-.0379c0-.6745.55-1.2214 1.2285-1.2214z" fill="#ebeff7"/><path d="m74.8865 96.4756h4.1518c.6317 0 1.1438.5054 1.1438 1.1288s-.5121 1.1287-1.1438 1.1287h-4.1518c-.6317 0-1.1438-.5053-1.1438-1.1287s.5121-1.1288 1.1438-1.1288z" fill="#ebeff7"/></g></g></svg>