<svg enable-background="new 0 0 192.9 80.4" viewBox="0 0 192.9 80.4" xmlns="http://www.w3.org/2000/svg"><path clip-rule="evenodd" d="m152.7 80.4h-112.5c-22.2 0-40.2-18-40.2-40.2s18-40.2 40.2-40.2h112.6c22.2 0 40.2 18 40.2 40.2s-18.1 40.2-40.3 40.2" fill="#ffeb00" fill-rule="evenodd"/><path clip-rule="evenodd" d="m45.1 19.3c-12.1 0-21.9 7.7-21.9 17.3 0 6.1 4.1 11.5 10.2 14.6l-2.1 7.8c-.1.2 0 .5.2.7.1.1.3.2.4.2s.3-.1.4-.1l8.9-6c1.3.2 2.6.3 4 .3 12.1 0 21.9-7.8 21.9-17.3 0-9.8-9.8-17.5-22-17.5z" fill-rule="evenodd"/><path d="m85.6 51v11.2h-8v-41.3h5.6l1 2.6c1.7-1.7 4.3-3.5 8.4-3.5 7.8 0 11.5 5.8 11.5 15.3 0 9.9-5.7 16.2-13.9 16.2-1.6.1-2.8 0-4.6-.5zm0-23.4v17.8c.4.1 1.5.2 2.6.2 5.7 0 7.9-4 7.9-10.3 0-5.5-1.5-8.8-6-8.8-1.6-0-3.2.4-4.5 1.1z"/><path d="m121.4 32.6h4.5v-1c0-3.3-1.9-4.8-5.1-4.8-2.5 0-5.6.7-8.2 2l-2.2-5.3c2.8-2 7.2-3.3 11.1-3.3 7.6 0 11.8 4 11.8 11.7v18.9h-5.6l-.8-2.5c-3.2 2.3-6.2 3.3-8.8 3.3-5.8 0-9.1-3.5-9.1-9.4-0-6.3 4.3-9.6 12.4-9.6zm4.6 10.5v-5.5h-3.7c-4.1 0-6.2 1.5-6.2 4.4 0 2.2 1.1 3.3 3.5 3.3 2.2.1 5-1 6.4-2.2z"/><path d="m157.5 47.7c-2.8 7.4-6.1 12.8-11 15.8l-4.9-4.5c2.8-2.5 4.9-4.9 6.6-8.1l-10.6-28.9 7.9-2.1 6.8 23.4 6.7-23.5 7.8 2.2z"/></svg>