<svg xmlns="http://www.w3.org/2000/svg" width="86" height="100" fill="none">
  <path fill="#8CD9FF"
    d="m29.223 87.992-.029-.02c-16.583-11.53-26.48-30.26-26.48-50.104V20.65l1.967-.413c10.257-2.156 15.497-6.927 16.99-15.474l.358-2.05h41.257l.358 2.05c1.493 8.547 6.733 13.318 16.99 15.474l1.968.413v17.218c0 19.842-9.9 38.572-26.48 50.103l-.061.04-13.406 8.748-13.435-8.767h.003Z" />
  <path fill="#2636C7"
    d="M61.208 5.187c1.904 10.89 9.238 15.436 18.92 17.47v15.211c0 19.077-9.465 36.978-25.418 48.072l-12.052 7.864-12.053-7.864C14.655 74.846 5.187 56.945 5.187 37.868V22.657c9.683-2.034 17.017-6.58 18.92-17.47h37.1Zm4.16-4.949h-45.42l-.718 4.099c-.696 3.982-2.282 6.963-4.848 9.116-2.372 1.991-5.713 3.416-10.214 4.364l-3.932.826V37.87c0 10.162 2.526 20.31 7.3 29.342 4.768 9.018 11.766 16.9 20.239 22.792l.06.042.062.04 12.052 7.864 2.706 1.766 2.706-1.766 12.053-7.864.06-.04.061-.042c8.473-5.891 15.471-13.774 20.24-22.792 4.776-9.034 7.3-19.18 7.3-29.342V18.64l-3.932-.827c-4.502-.945-7.843-2.372-10.215-4.364-2.566-2.15-4.152-5.133-4.848-9.116L65.362.236l.006.002Z" />
  <path stroke="#45AAF7" stroke-miterlimit="10" stroke-width=".951"
    d="M27.54 9.704h30.236c1.65 9.606 8.952 14.565 17.34 16.36V38.53c0 16.826-8.2 32.615-22.018 42.398l-10.44 6.937-10.44-6.937C18.399 71.145 10.199 55.354 10.199 38.53V26.064c8.388-1.795 15.693-6.752 17.34-16.36Z" />
  <path fill="#000"
    d="M51.07 37.85a20.096 20.096 0 0 0-5.002-1.539c-.217.381-.469.895-.64 1.3a18.688 18.688 0 0 0-5.542 0 14.503 14.503 0 0 0-.647-1.3c-1.755.3-3.434.82-5.004 1.541-3.164 4.681-4.022 9.249-3.593 13.75a20.091 20.091 0 0 0 6.132 3.076 14.58 14.58 0 0 0 1.314-2.118 13.231 13.231 0 0 1-2.068-.985c.172-.127.341-.257.508-.392 3.988 1.827 8.322 1.827 12.262 0 .167.135.334.268.508.392-.656.387-1.348.718-2.073.988.379.744.818 1.453 1.313 2.118a20.115 20.115 0 0 0 6.138-3.077c.503-5.218-.86-9.743-3.604-13.752l-.002-.003ZM38.63 48.831c-1.196 0-2.179-1.093-2.179-2.428 0-1.334.962-2.428 2.18-2.428 1.217 0 2.2 1.094 2.179 2.428 0 1.335-.962 2.428-2.18 2.428Zm8.052 0c-1.197 0-2.179-1.093-2.179-2.428 0-1.334.961-2.428 2.18-2.428 1.217 0 2.2 1.094 2.178 2.428 0 1.335-.96 2.428-2.179 2.428Z" />
  <path stroke="#45AAF7" stroke-linecap="round" stroke-miterlimit="10" stroke-width=".956"
    d="M57.083 9.717c0 2.354-1.93 4.263-4.308 4.263H32.588c-2.38 0-4.308-1.909-4.308-4.263" />
  <path fill="#45AAF7" stroke="#45AAF7" stroke-miterlimit="10" stroke-width=".474"
    d="M61.208 5.187c1.904 10.89 9.238 15.436 18.92 17.47v15.211c0 19.077-9.465 36.978-25.418 48.072l-12.052 7.864-12.053-7.864C14.655 74.847 5.187 56.945 5.187 37.868V22.657c9.683-2.034 17.017-6.58 18.92-17.47h37.1Zm4.16-4.949h-45.42l-.718 4.099c-1.329 7.604-5.692 11.51-15.063 13.477l-3.931.826v19.228c0 20.652 10.297 40.142 27.541 52.137l.061.042.061.04 12.053 7.864 2.706 1.766 2.706-1.766 12.052-7.864.061-.04.061-.042C74.783 78.013 85.08 58.523 85.08 37.868V18.64l-3.932-.826c-9.368-1.97-13.734-5.873-15.063-13.477L65.368.238Z" />
</svg>