<svg viewBox="0 0 115 75" xmlns="http://www.w3.org/2000/svg"><path d="m24.47 73.57c-3.51 0-6.28-.97-8.02-3.12-7.23-8.98 9.57-31.35 30-47.8 20.42-16.44 45.86-28.09 53.09-19.11 3.26 4.05 1.76 11.35-4.22 20.56-5.7 8.77-14.86 18.45-25.77 27.24-15.53 12.5-33.96 22.23-45.08 22.23zm66.95-70.35c-8.87 0-25.26 7.18-43.2 21.63-23.54 18.95-34.29 37.96-29.57 43.82s25.58-.59 49.12-19.54c10.69-8.61 19.63-18.05 25.18-26.58 5.19-7.98 6.79-14.27 4.39-17.25-1.12-1.39-3.16-2.09-5.92-2.09z" fill="#8088ff"/><circle cx="98" cy="17" fill="#fff" r="4"/><path d="m98 22c-2.76 0-5-2.24-5-5s2.24-5 5-5 5 2.24 5 5-2.24 5-5 5zm0-8c-1.65 0-3 1.35-3 3s1.35 3 3 3 3-1.35 3-3-1.35-3-3-3z" fill="#3442d7"/><circle cx="74" cy="6" fill="#fff" r="3"/><path d="m74 10c-2.21 0-4-1.79-4-4s1.79-4 4-4 4 1.79 4 4-1.79 4-4 4zm0-6c-1.1 0-2 .9-2 2s.9 2 2 2 2-.9 2-2-.9-2-2-2z" fill="#0070cc"/><circle cx="17" cy="69" fill="#fff" r="3"/><path d="m17 73c-2.21 0-4-1.79-4-4s1.79-4 4-4 4 1.79 4 4-1.79 4-4 4zm0-6c-1.1 0-2 .9-2 2s.9 2 2 2 2-.9 2-2-.9-2-2-2z" fill="#3442d7"/><rect fill="#00439c" height="42.89" rx="7.6" width="68" x="50.4" y="27"/><path d="m58 27c-4.2 0-7.6 3.4-7.6 7.6v22.29h7.75c5.52 0 10-4.48 10-10v-19.89h-10.16z" opacity=".5"/><rect fill="#5865f0" height="42.89" rx="7.6" width="68" x="-3.4" y="10.5"/><path d="m38.03 28.2c-1.41-.64-2.89-1.1-4.42-1.36-.21.37-.4.76-.57 1.15-1.63-.25-3.28-.25-4.91 0-.17-.39-.36-.78-.57-1.15-1.53.26-3.01.72-4.42 1.36-2.8 4.14-3.56 8.18-3.18 12.16 1.64 1.21 3.47 2.13 5.42 2.72.44-.59.83-1.22 1.16-1.87-.63-.24-1.25-.53-1.83-.87.15-.11.3-.23.45-.34 3.43 1.61 7.41 1.61 10.84 0 .15.12.3.23.45.34-.58.34-1.2.64-1.83.87.33.66.72 1.28 1.16 1.87 1.95-.59 3.79-1.51 5.43-2.72.44-4.61-.76-8.61-3.19-12.16zm-11 9.71c-1.06 0-1.93-.96-1.93-2.14s.84-2.15 1.93-2.15 1.95.97 1.93 2.15-.85 2.14-1.93 2.14zm7.12 0c-1.06 0-1.93-.96-1.93-2.14s.84-2.15 1.93-2.15 1.94.97 1.93 2.15-.85 2.14-1.93 2.14z" fill="#fff"/><path d="m-3.32 17h67.83c-.53-3.67-3.69-6.5-7.51-6.5h-52.81c-3.82 0-6.98 2.83-7.51 6.5z" fill="#3442d7"/><g fill="#fff"><path d="m81.73 39.43v16.63l3.77 1.19v-13.95c0-.66.29-1.09.76-.94.61.17.73.78.73 1.43v5.57c2.34 1.13 4.19 0 4.19-2.99s-1.08-4.42-4.27-5.52c-1.26-.42-3.58-1.12-5.19-1.42"/><path d="m86.22 54.83 6.05-2.15c.68-.25.79-.6.24-.78-.56-.18-1.57-.13-2.26.12l-4.03 1.42v-2.27l.23-.08s1.17-.41 2.8-.59c1.64-.18 3.64.02 5.22.62 1.78.56 1.98 1.39 1.53 1.96-.46.57-1.56.98-1.56.98l-8.22 2.95z"/><path d="m74.83 54.6c-1.82-.51-2.12-1.58-1.29-2.2.77-.57 2.07-.99 2.07-.99l5.4-1.92v2.19l-3.88 1.39c-.69.25-.79.59-.24.77.56.19 1.56.14 2.25-.12l1.87-.67v1.95c-.12.02-.25.04-.38.06-1.86.31-3.84.18-5.8-.47z"/><path d="m94.72 55.47c.53 0 .89.39.89.89s-.36.89-.89.89-.9-.39-.9-.89.37-.89.9-.89zm0 1.65c.45 0 .75-.34.75-.76s-.3-.76-.75-.76-.75.34-.75.76.29.76.75.76zm-.35-1.28h.41c.19 0 .33.06.33.27 0 .12-.06.21-.19.25.07.02.11.07.15.19.03.11.07.23.1.32h-.19c-.03-.08-.06-.21-.08-.28-.03-.12-.06-.16-.22-.16h-.12v.44h-.19zm.19.46h.16c.13 0 .21-.05.21-.17 0-.14-.1-.16-.2-.16h-.18v.33z"/></g></svg>