<svg fill="none" height="68" viewBox="0 0 57 68" width="57" xmlns="http://www.w3.org/2000/svg" xmlns:xlink="http://www.w3.org/1999/xlink"><clipPath id="a"><path d="m0 0h56.4389v68h-56.4389z"/></clipPath><g clip-path="url(#a)"><path d="m8.6883 43.1262c-.08196.0017-.1619-.0255-.22591-.0767-.06402-.0512-.10804-.1232-.12442-.2035l-2.27718-11.2108c-.01018-.046-.01094-.0937-.00225-.1401s.02667-.0905.05284-.1298c.02618-.0392.06001-.0728.09948-.0987.03947-.0258.08375-.0434.1302-.0518.04607-.0101.09373-.0109.14011-.0022s.09052.0267.12978.0528c.03926.0262.07283.06.0987.0995.02586.0395.04348.0838.05181.1302l2.27718 11.2107c.01175.0921-.01014.1853-.06163.2626-.05149.0772-.12913.1333-.21864.1578z" fill="#dae2ed"/><path d="m36.1896 25.8547h-6.7615c-4.239 0-6.306-2.0319-6.306-2.0319v8.8284h4.2391c.3853-2.2071 2.3122-3.188 4.6594-3.188h4.134c.2576.0384.5204.0212.7708-.0506s.4825-.1964.6807-.3655c.1981-.1691.3577-.3787.4679-.6147s.1686-.4929.1711-.7533c.0026-.2605-.0508-.5185-.1564-.7566-.1057-.2381-.2611-.4507-.456-.6236-.1948-.1729-.4244-.302-.6734-.3787-.2489-.0766-.5114-.0989-.7697-.0655z" fill="#80a7ff"/><path d="m30.8295 44.0721h-1.6466c-.2044 0-.4005.0812-.545.2258-.1445.1445-.2257.3406-.2257.545v3.4332c-.009.4525-.1927.884-.5127 1.204-.3201.32-.7515.5037-1.204.5127-.4525-.009-.8839-.1927-1.2039-.5127s-.5038-.7515-.5127-1.204v-14.4338c.0092-.5049.2162-.986.5766-1.3398.3603-.3539.8452-.552 1.3502-.552h5.8156c.5017 0 .9829.1994 1.3377.5541.3548.3548.5541.836.5541 1.3377v6.4112c.0046.4998-.0898.9956-.2779 1.4587s-.466.8843-.8178 1.2394c-.3518.355-.7705.6369-1.2319.8292-.4613.1923-.9562.2914-1.456.2913z" fill="#80a7ff"/><path d="m33.0015 27.2561c-.7719-1.0613-1.7834-1.9253-2.9522-2.5219s-2.4619-.9088-3.7742-.9114h-11.2457c-1.3287 0-2.603.5278-3.5425 1.4673s-1.4673 2.2138-1.4673 3.5425v9.1787c-.0001.886.3495 1.7362.9726 2.3659.6232.6297 1.4697.9881 2.3556.9973h16.2905c1.3226-.0092 2.5879-.5411 3.5199-1.4796.9319-.9385 1.4549-2.2075 1.4549-3.5301v-4.2041c.0026-1.7654-.5624-3.4848-1.6116-4.9046z" fill="#9cb8ff"/><path clip-rule="evenodd" d="m46.1391 66.3885c-3.1744 1.4566-6.7095 1.9391-10.1581 1.3864-3.4487-.5527-6.6559-2.1157-9.2161-4.4914s-4.3584-5.4573-5.167-8.8551-.5914-6.959.6242-10.2333 3.375-6.1145 6.205-8.1614 6.2034-3.2085 9.6937-3.3379c3.4902-.1295 6.9405.7791 9.9143 2.6108s5.3376 4.5042 6.7923 7.6795c1.9306 4.2582 2.1009 9.1067.4736 13.4898s-4.9202 7.9459-9.1619 9.9126z" fill="#4f5d7f" fill-rule="evenodd"/><path clip-rule="evenodd" d="m20.3545 53.7764h-5.7455c-.2355-.0091-.4583-.109-.6216-.2789-.1633-.1698-.2545-.3963-.2543-.632v-3.0829c0-.2323.0923-.4551.2566-.6193.1642-.1643.387-.2566.6193-.2566h5.7455c.2322 0 .455.0923.6193.2566.1642.1642.2565.387.2565.6193v3.0829c.0002.2357-.091.4622-.2543.632-.1633.1699-.3861.2698-.6215.2789z" fill="#ff5c5c" fill-rule="evenodd"/><path clip-rule="evenodd" d="m31.6002 55.5281h-13.8032c-.7061 0-1.3834-.2805-1.8827-.7799-.4993-.4993-.7798-1.1765-.7798-1.8827v-4.6945c.0091-.4213.183-.8222.4842-1.1169s.7059-.4597 1.1273-.4596h14.8542z" fill="#b7c2ce" fill-rule="evenodd"/><path clip-rule="evenodd" d="m9.45905 46.1391h2.41735c1.3384.0005 2.6226.5293 3.5734 1.4714l1.121 1.1561c1.7995 1.7841 4.2275 2.7905 6.7615 2.8027h9.7043v-7.357h-23.57755z" fill="#000" fill-rule="evenodd"/><path d="m8.82844 41.3745h22.35136v4.7646h-22.35136c-.63182 0-1.23776-.251-1.68453-.6977-.44676-.4468-.69775-1.0528-.69775-1.6846 0-.6318.25099-1.2377.69775-1.6845.44677-.4468 1.05271-.6978 1.68453-.6978z" fill="#000"/><path clip-rule="evenodd" d="m43.5466 60.7831c-2.0655.9529-4.3674 1.2713-6.614.9149s-4.337-1.3716-6.0062-2.917c-1.6692-1.5453-2.8421-3.5513-3.3703-5.7639s-.3878-4.5321.4033-6.6648c.7912-2.1327 2.1976-3.9826 4.041-5.3154 1.8433-1.3328 4.0408-2.0885 6.314-2.1713 2.2733-.0829 4.5199.5108 6.4555 1.7059 1.9355 1.195 3.4728 2.9376 4.4171 5.0071 1.2523 2.7663 1.3623 5.915.3061 8.762-1.0561 2.847-3.1931 5.1621-5.9465 6.4425z" fill="#7687b2" fill-rule="evenodd"/><path d="m19.6888 40.2535v-9.1087c0-.5956-.2802-4.2391-.7006-7.322h-3.9588c-1.2791.0064-2.5079.4983-3.438 1.3764-.9301.878-1.4919 2.0765-1.5718 3.3531v19.7238c.0089.4525.1927.884.5127 1.204s.7514.5037 1.2039.5127c.4525-.009.8839-.1927 1.2039-.5127.3201-.32.5038-.7515.5128-1.204v-3.4332c0-.2044.0812-.4005.2257-.545.1445-.1446.3406-.2258.545-.2258h1.6466c1.0127 0 1.984-.4023 2.7002-1.1184.7161-.7162 1.1184-1.6875 1.1184-2.7002z" fill="#80a7ff"/><path d="m40.2184 39.9732-4.7995-11.8413h1.2962c.0535.0049.1074-.0015.1582-.0186.0509-.0172.0977-.0448.1372-.0811.0396-.0363.0712-.0804.0927-.1296s.0325-.1024.0323-.1561c0-.0552-.0109-.1099-.032-.1609s-.0521-.0973-.0911-.1363c-.0391-.0391-.0854-.0701-.1364-.0912s-.1057-.032-.1609-.032h-9.6692c-.1115 0-.2185.0443-.2973.1232-.0789.0788-.1231.1857-.1231.2972.0088.1053.0569.2035.1348.2749s.1799.1109.2856.1105h6.8665c.1888.0005.373.0576.5291.1637s.2768.2565.3468.4319l4.6594 11.561c.0297.0766.0831.1418.1524.1859.0694.0441.151.0649.233.0593h.1401c.1056-.0537.1915-.1396.2452-.2452.0347-.1022.0347-.2131 0-.3153z" fill="#ebeff7"/><path d="m28.5173 25.8547h-6.7965c-.2652.0001-.5278-.0527-.7724-.1553-.2446-.1025-.4663-.2527-.6522-.4419s-.3322-.4134-.4305-.6598c-.0983-.2463-.1465-.5098-.1418-.7749h-4.2741v8.8284h4.239c.3854-2.2071 2.3122-3.188 4.6595-3.188h4.0989c.2571.0406.52.0257.7708-.0438.2509-.0695.484-.1919.6835-.3591.1996-.1671.361-.3751.4734-.6099s.1732-.491.1783-.7513c.005-.2602-.0458-.5186-.149-.7575-.1032-.239-.2564-.4531-.4493-.6279s-.4211-.3062-.6691-.3854c-.248-.0791-.51-.1042-.7685-.0736z" fill="#80a7ff"/><g clip-rule="evenodd" fill-rule="evenodd"><path d="m14.0835 23.9279h14.5038c1.2483 0 2.446-.4935 3.332-1.3729.8859-.8794 1.3883-2.0733 1.3975-3.3216v-8.6883c-.0092-1.24829-.5116-2.44228-1.3975-3.32167-.886-.8794-2.0837-1.37287-3.332-1.37284h-14.5038c-1.2483-.00003-2.446.49344-3.332 1.37284-.88594.87939-1.38831 2.07338-1.39756 3.32167v8.6883c.00925 1.2483.51162 2.4422 1.39756 3.3216.886.8794 2.0837 1.3729 3.332 1.3729z" fill="#80a7ff"/><path d="m17.1314 23.9279h14.5389c1.245 0 2.4391-.4946 3.3195-1.375s1.375-2.0745 1.375-3.3195v-8.6883c0-1.24508-.4946-2.43914-1.375-3.31952-.8804-.88039-2.0745-1.37499-3.3195-1.37499h-14.5389c-1.2483-.00003-2.446.49344-3.332 1.37284-.8859.87939-1.3883 2.07338-1.3975 3.32167v8.6883c.0092 1.2483.5116 2.4422 1.3975 3.3216.886.8794 2.0837 1.3729 3.332 1.3729z" fill="#9cb8ff"/><path d="m10.7553 18.1473h3.4683v-8.44302h-3.4683c-.4124-.00003-.82078.08177-1.20137.24065-.38059.15887-.72588.39167-1.01588.68497-.28999.2932-.51892.6411-.67354 1.0234-.15462.3824-.23185.7916-.22721 1.204v2.1721c0 .8269.3285 1.62.91323 2.2047.58474.5847 1.37781.9132 2.20477.9132z" fill="#9cb8ff"/><path d="m14.2236 16.2906v-4.6945c0-.0836-.0332-.1638-.0924-.223-.0591-.0591-.1393-.0923-.2229-.0923h-3.153c-.412.0091-.80408.1793-1.0922.4739-.28812.2947-.4494.6905-.44929 1.1026v2.1721c-.00011.4121.16117.8079.44929 1.1025.28812.2947.6802.4648 1.0922.474h3.153c.0836 0 .1638-.0332.2229-.0924.0592-.0591.0924-.1393.0924-.2229z" fill="#80a7ff"/><path d="m19.6888 15.4147c.3049 0 .6029-.0904.8564-.2598.2535-.1693.4511-.4101.5678-.6917.1166-.2817.1472-.5916.0877-.8907-.0595-.299-.2063-.5736-.4219-.7892s-.4902-.3624-.7893-.4219c-.299-.0595-.6089-.0289-.8906.0877-.2816.1167-.5224.3143-.6918.5678-.1693.2535-.2598.5515-.2598.8564.009.406.1742.7929.4614 1.0801.2872.2871.6741.4524 1.0801.4613z" fill="#000"/><path d="m36.5049 10.5451h-10.6852c-.5018 0-.9829.1993-1.3377.5541s-.5541.8359-.5541 1.3377v2.1721c.0092 1.2482.5116 2.4422 1.3975 3.3216.886.8794 2.0837 1.3729 3.332 1.3729h5.0098c1.2483 0 2.446-.4935 3.3319-1.3729.886-.8794 1.3884-2.0734 1.3976-3.3216v-2.1721c0-.5018-.1993-.9829-.5541-1.3377s-.836-.5541-1.3377-.5541z" fill="#b8d0ff"/><path d="m30.8295 19.3035h2.8377c1.2483 0 2.446-.4935 3.3319-1.3729.886-.8794 1.3884-2.0734 1.3976-3.3216v-2.1721c0-.5018-.1993-.9829-.5541-1.3377s-.836-.5541-1.3377-.5541h-8.4781c-.5018 0-.9829.1993-1.3377.5541s-.5541.8359-.5541 1.3377v2.1721c0 1.245.4946 2.4391 1.375 3.3195s2.0744 1.375 3.3195 1.375z" fill="#cbdaf7"/><path d="m32.1257 15.7651h-2.067c-.1012 0-.2014.0199-.2949.0586-.0935.0388-.1785.0955-.2501.1671-.0715.0716-.1283.1565-.167.2501-.0388.0935-.0587.1937-.0587.2949-.0047.1041.0117.2081.0483.3057s.0926.1868.1647.2621c.072.0753.1586.1352.2545.1761.0958.0409.199.062.3032.0619h2.067c.1042.0001.2074-.021.3033-.0619.0958-.0409.1824-.1008.2545-.1761.072-.0753.128-.1645.1646-.2621.0367-.0976.0531-.2016.0483-.3057 0-.1012-.0199-.2014-.0586-.2949-.0388-.0936-.0955-.1785-.1671-.2501s-.1565-.1283-.25-.1671c-.0936-.0387-.1938-.0586-.295-.0586zm3.6785 0h-.8057c-.1013 0-.2015.0199-.295.0586-.0935.0388-.1785.0955-.25.1671-.0716.0716-.1284.1565-.1671.2501-.0387.0935-.0587.1937-.0587.2949-.0047.1041.0117.2081.0483.3057s.0926.1868.1647.2621c.072.0753.1586.1352.2545.1761s.199.062.3033.0619h.8057c.1043.0001.2074-.021.3033-.0619s.1824-.1008.2545-.1761c.072-.0753.1281-.1645.1647-.2621s.053-.2016.0483-.3057c0-.1012-.02-.2014-.0587-.2949-.0387-.0936-.0955-.1785-.1671-.2501-.0715-.0716-.1565-.1283-.25-.1671-.0935-.0387-.1938-.0586-.295-.0586z" fill="#9cb8ff"/><path d="m31.2499 21.1602h1.2612c.1393 0 .273-.0553.3716-.1539.0985-.0985.1539-.2322.1539-.3716-.0089-.1332-.0682-.258-.1658-.3491s-.2262-.1416-.3597-.1413h-1.2612c-.1335-.0003-.2622.0502-.3598.1413s-.1568.2159-.1657.3491c0 .1394.0553.2731.1539.3716.0985.0986.2322.1539.3716.1539z" fill="#80a7ff"/><path d="m22.0361.735703s-5.6755 12.541997-6.7965 15.344697c-1.5765 4.0639-8.37304 3.5734-8.37304-2.2071z" fill="#d0d9ea"/><path d="m35.2087 5.64039s-3.9238-5.64039-14.2937-5.64039-15.16951 7.35703-15.16951 13.1376c0 5.7805 6.79651 6.271 8.40801 2.2071 1.0861-2.8027 3.083-7.25196 3.083-7.25196h17.9722z" fill="#ebeff7"/><path d="m28.202 5.14993 2.6975-.1051s-1.7166-3.53839-7.5322-4.939726c-.7707-.070067-1.5765-.10510048-2.4523-.10510048-.7253-.00167002-1.4503.03340848-2.1721.10510048 2.6275.315301 6.9367 1.401336 9.4591 5.044826z" fill="#d0d9ea"/><path d="m17.2365 8.09273h24.6285s-3.8186-3.29315-12.1916-3.18805c-8.373.10511-12.4369 3.18805-12.4369 3.18805z" fill="#000"/><path d="m11.2808 12.7172c-.1401 1.3663-1.2262 2.3472-2.38229 2.2071-1.15611-.1402-1.92684-1.3313-1.78671-2.6976s1.26121-2.38229 2.41731-2.24216c1.15609.14016 1.92689 1.36626 1.75169 2.73266z" fill="#d0d9ea"/><path d="m9.91448 10.0896c-.42026.1919-.78337.4898-1.05363.8645-.27027.3747-.43839.8133-.48784 1.2726-.14014 1.1911.45543 2.2772 1.3663 2.6275.42669-.1828.79559-.4782 1.06719-.8547.2715-.3765.4355-.8198.4743-1.2823.1752-1.1912-.4204-2.2772-1.36632-2.6276z" fill="#7687b2"/><path d="m54.1968 40.6038c-.8058 2.5925-9.5641 6.6914-15.0994 8.7934-4.0989-1.2612-14.1185-4.9047-15.7301-7.9876-.1697-.2582-.2326-.5722-.1751-.8759l.1401-.3153c3.0479-4.5893 7.6373-7.5322 12.9274-8.2679 6.6914-.9108 13.3477 2.067 17.832 7.9526.0698.1011.1155.2168.1337.3382s.0084.2454-.0286.3625z" fill="#ff7f14"/><path d="m39.1324 50.3081s-13.1025-14.8192-10.8253-16.2906c2.3692-1.5428 5.048-2.5473 7.8475-2.9428 7.5322-1.016 14.3287 2.6275 18.6378 8.3029 3.0479 4.0289-15.66 10.9305-15.66 10.9305z" fill="#ff903e"/><path d="m52.9706 37.3107c.014.8206-.2726 1.6181-.8057 2.2421-2.6626 3.5034-12.2968 7.4271-15.0644 8.4781.7357 1.8218 1.4013 3.0129 1.7867 3.153l.2802.0701.2803-.1051c.4905-.1752 12.6821-4.7295 15.7651-8.7584 1.2962-1.7166.7357-2.9778.2802-3.5384-1.2962-1.7166-2.5924-2.102-2.5224-1.5414z" fill="#dae2ed"/><path d="m42.8109 59.1716c-1.7441.8028-3.6872 1.0703-5.5834.7684s-3.6602-1.1594-5.0689-2.4642c-1.4086-1.3047-2.3985-2.998-2.8444-4.8656-.446-1.8676-.3279-3.8254.3393-5.6259.6672-1.8004 1.8535-3.3624 3.4087-4.4884 1.5553-1.126 3.4096-1.7653 5.3283-1.837s3.8156.4273 5.4506 1.434 2.9346 2.4758 3.7344 4.2214c1.0708 2.3371 1.1705 5.0036.2772 7.4141-.8933 2.4106-2.7066 4.3682-5.0418 5.4432z" fill="#ebeff7"/><path d="m42.1453 57.7702c-1.9709.893-4.2149.9706-6.2428.2159-2.0278-.7547-3.6751-2.2805-4.5826-4.2447-.6706-1.4681-.891-3.1021-.6333-4.6954.2578-1.5934.9821-3.0745 2.0814-4.2563 1.0994-1.1817 2.5244-2.0111 4.0949-2.3832 1.5706-.372 3.2162-.2701 4.7289.2928 1.5127.563 2.8245 1.5618 3.7697 2.8701.9452 1.3084 1.4812 2.8676 1.5405 4.4805.0592 1.613-.3611 3.2073-1.2077 4.5814-.8467 1.3742-2.0817 2.4665-3.549 3.1389z" fill="#dae2ed"/><path d="m42.2854 45.5435 2.5575 4.4493c.0844.1304.1294.2825.1294.4379s-.045.3075-.1294.4379l-2.5575 4.4493c-.0784.1358-.1905.2491-.3255.3289-.1351.0798-.2884.1234-.4452.1265h-5.185c-.1568-.0031-.3101-.0467-.4452-.1265-.135-.0798-.2471-.1931-.3255-.3289l-2.5575-4.4493c-.0844-.1304-.1293-.2825-.1293-.4379s.0449-.3075.1293-.4379l2.5575-4.4493c.0784-.1358.1905-.2491.3255-.3289.1351-.0798.2884-.1234.4452-.1265h5.185c.1568.0031.3101.0467.4452.1265.135.0798.2471.1931.3255.3289z" fill="#c5cedd"/></g><path d="m38.747 53.1808c1.5673 0 2.8377-1.2705 2.8377-2.8377s-1.2704-2.8377-2.8377-2.8377c-1.5672 0-2.8377 1.2705-2.8377 2.8377s1.2705 2.8377 2.8377 2.8377z" fill="#fff"/><path d="m6.13086 31.9505c-2.20711-.5605-2.76764 1.2262-6.13086 1.4014 3.15301 1.9268 3.74858.7707 6.97166 2.8377z" fill="#ff903e"/><path d="m38.747 68h-15.695c-.9323-.0092-1.8233-.3861-2.4794-1.0487-.656-.6626-1.024-1.5573-1.0239-2.4897 0-.9291.3691-1.8202 1.0261-2.4772s1.5481-1.0261 2.4772-1.0261h1.9969c.9088-.0065 1.8099.1666 2.6515.5093.8417.3427 1.6074.8482 2.2532 1.4876l.8408.8758c1.1131 1.0933 2.6088 1.7091 4.169 1.7167h1.3313c.6504 0 1.2742.2583 1.7341.7182s.7182 1.0837.7182 1.7341z" fill="#ebeff7"/><path d="m17.6569 60.9583h-4.3442c-.5611 0-1.0159.4548-1.0159 1.0159v.0316c0 .5611.4548 1.0159 1.0159 1.0159h4.3442c.5611 0 1.0159-.4548 1.0159-1.0159v-.0316c0-.5611-.4548-1.0159-1.0159-1.0159z" fill="#ebeff7"/><path d="m22.4214 66.1082h-3.4333c-.5224 0-.9459.4203-.9459.9389 0 .5185.4235.9389.9459.9389h3.4333c.5224 0 .9459-.4204.9459-.9389 0-.5186-.4235-.9389-.9459-.9389z" fill="#ebeff7"/></g></svg>