<svg width="21" height="20" viewBox="0 0 21 20" fill="none" xmlns="http://www.w3.org/2000/svg">
<path fill-rule="evenodd" clip-rule="evenodd" d="M5.5 7.50004H6.33333V5.00004C6.33333 2.69885 8.19881 0.833374 10.5 0.833374C12.8012 0.833374 14.6667 2.69885 14.6667 5.00004V7.50004H15.5C16.8807 7.50004 18 8.61933 18 10V16.6667C18 18.0474 16.8807 19.1667 15.5 19.1667H5.5C4.11929 19.1667 3 18.0474 3 16.6667V10C3 8.61933 4.11929 7.50004 5.5 7.50004ZM13 5.00004V7.50004H8V5.00004C8 3.61933 9.11929 2.50004 10.5 2.50004C11.8807 2.50004 13 3.61933 13 5.00004ZM12.1667 11.6667C12.1667 12.2836 11.8315 12.8222 11.3333 13.1104V15C11.3333 15.4603 10.9602 15.8334 10.5 15.8334C10.0398 15.8334 9.66667 15.4603 9.66667 15V13.1104C9.1685 12.8222 8.83333 12.2836 8.83333 11.6667C8.83333 10.7462 9.57953 10 10.5 10C11.4205 10 12.1667 10.7462 12.1667 11.6667Z" fill="white"/>
</svg>
