<svg fill="none" height="435" viewBox="0 0 815 435" width="815" xmlns="http://www.w3.org/2000/svg" xmlns:xlink="http://www.w3.org/1999/xlink"><linearGradient id="a" gradientUnits="userSpaceOnUse" x1="34.2909" x2="802.093" y1="-100.075" y2="531.113"><stop offset="0" stop-color="#ff16a6"/><stop offset=".42" stop-color="#fe4b72"/><stop offset=".64" stop-color="#fe803f"/><stop offset=".82" stop-color="#feb44e"/><stop offset="1" stop-color="#fee75c"/></linearGradient><clipPath id="b"><rect height="430" rx="44" width="810.5" x="2" y="3"/></clipPath><clipPath id="c"><path d="m-43-167h900v600h-900z"/></clipPath><mask id="d" height="600" maskUnits="userSpaceOnUse" width="900" x="-43" y="-167"><path d="m857-167h-900v600h900z" fill="#fff"/></mask><mask id="e" height="600" maskUnits="userSpaceOnUse" width="900" x="-43" y="-167"><path d="m-43-167h900v600h-900z" fill="#fff"/></mask><g clip-path="url(#b)"><rect fill="#fff" height="430" rx="44" width="810.5" x="2" y="3"/><g clip-path="url(#c)"><g mask="url(#d)"><path d="m606.406 231.375s-46.665 0-93.329 0c-17.56 0-29.714 5.642-38.043 12.68-11.014 9.307-17.105 23.192-17.105 37.612v97.073c0 27.558 22.34 49.898 49.898 49.898h147.869c27.558 0 49.898-22.34 49.898-49.898v-97.112c0-13.812-5.57-27.174-15.811-36.441-8.349-7.555-20.845-13.812-39.338-13.812-46.664 0-93.328 0-93.328 0" fill="#698eff"/><path d="m455.472 363.084s43.953-12.338 43.953-43.953 0-69.54 0-69.54h28.924v35.612s1.542 11.566 11.566 11.566h49.729l1.249 135.66h-84.189s-59.175 3.652-51.232-69.345z" fill="#fff"/><path d="m703.331 363.084s-43.953-12.338-43.953-43.953 0-69.54 0-69.54h-28.924v35.612s-1.543 11.566-11.567 11.566-49.728 0-49.728 0l-1.249 135.66h84.189s59.175 3.652 51.232-69.345z" fill="#fff"/><path d="m770.657 433h-726.9791c-22.961 0-41.74699-18.786-41.74699-41.747v-348.4488c0-22.961 18.78599-41.74805 41.74699-41.74805h726.9791c22.961 0 41.747 18.78705 41.747 41.74805v348.4488c0 22.961-18.786 41.747-41.747 41.747z" fill="url(#a)"/><path d="m109.476 313.337h316.857v-182.135h-316.857z" fill="#7f005b"/><path d="m132.66 199.74h2.795v-57.845h-2.795z" fill="#fff"/><path d="m134.963 199.198s2.311 0 2.641 1.839-.99 3.253-.99 3.253.922 1.568 1.131 3.348c.283 2.405-.66 3.583-2.499 3.583s-2.451-.047-2.451-.047l.377-12.636z" fill="#fff"/><path d="m133.363 199.198s-2.311 0-2.641 1.839.991 3.253.991 3.253-.923 1.568-1.132 3.348c-.283 2.405.66 3.583 2.499 3.583s2.452-.047 2.452-.047l-.378-12.636z" fill="#fff"/><path d="m101.454 142.869h337.621v-26.412h-337.621z" fill="#d80090"/><path d="m101.454 330.982h337.621v-33.873h-337.621z" fill="#d80090"/><path d="m107.383 298.642h9.163v-168.71h-9.163z" fill="#d80090"/><path d="m423.443 298.642h9.163v-168.71h-9.163z" fill="#d80090"/><path d="m336.486 206.974c7.578-.176 12.564.129 17.765-3.181 4.925-3.134 9.849-4.677 12.867-4.33 3.018-.347 7.941 1.196 12.866 4.33 5.201 3.31 10.187 3.005 17.765 3.181 8.314.193 9.541 4.148 9.541 4.148h-41.928-5.893-32.523s1.226-3.955 9.54-4.148z" opacity=".6" stroke="#e557c4" stroke-miterlimit="10"/><path d="m156.134 177.368c12.088-1.051 14.954.091 23.28-5.207 7.883-5.017 14.449-6.177 19.28-5.622 4.831-.555 10.91.253 20.574 5.999 3.37 2.004 10.997 5.959 19.796 6.186 9.921.256 21.281-2.319 29.431-2.118 2.817.069 6.732.522 9.634 1.509 9.536 3.242 4.515 7.087 4.515 7.087h-86.76-9.434-45.632s1.225-6.609 15.316-7.834z" opacity=".6" stroke="#e557c4" stroke-miterlimit="10"/><path d="m117.923 296.531s27.946-27.098 42.624-27.663 12.985 8.468 12.985 8.468 52.221-46.012 87.788-42.06 32.18 20.325 32.18 20.325 51.657-22.865 73.392-6.775 12.421 31.615 12.421 31.615 49.681-18.066 40.648 16.09c0 0-302.603-.565-302.038 0z" fill="#7f005b" opacity=".32"/><path d="m812.145 371.456h-810.54905v-20.284h810.54905z" fill="#7f005b" opacity=".32"/><g stroke="#fff" stroke-miterlimit="10"><path d="m36.51 371.824v60.536"/><path d="m73.708 371.824v60.536"/><path d="m110.907 371.824v60.536"/><path d="m148.106 371.824v60.536"/><path d="m185.304 371.824v60.536"/><path d="m222.503 371.824v60.536"/><path d="m259.701 371.824v60.536"/><path d="m296.9 371.824v60.536"/><path d="m334.099 371.824v60.536"/><path d="m371.297 371.824v60.536"/><path d="m408.496 371.824v60.536"/><path d="m445.694 371.824v60.536"/><path d="m482.893 371.824v60.536"/><path d="m520.092 371.824v60.536"/><path d="m557.29 371.824v60.536"/><path d="m594.489 371.824v60.536"/><path d="m631.687 371.824v60.536"/><path d="m668.886 371.824v60.536"/><path d="m706.085 371.824v60.536"/><path d="m743.283 371.824v60.536"/><path d="m780.482 371.824v60.536"/></g><path d="m812.49 367.944s-398.949 0-470.353 0-78.791 60.735-78.791 60.735v4.966h495.202c18.992 0 26.234-.839 34.528-6.618 21.924-15.277 19.414-35.442 19.414-35.442z" fill="#443995"/><path d="m649.41 251.408c3.879 22.738-20.889 45.933-55.321 51.807-34.433 5.874-65.49-7.797-69.369-30.535-3.88-22.738 20.888-45.933 55.321-51.808 34.433-5.874 65.49 7.798 69.369 30.536z" fill="#4b67ec"/><path d="m617.466 52.5669h-74.809v60.9801h74.809z" fill="#f3dc2c"/><path d="m618.409 46.2802c0 21.1792-17.168 38.3476-38.347 38.3476s-38.348-17.1684-38.348-38.3476 17.169-38.34758 38.348-38.34758 38.347 17.16838 38.347 38.34758z" fill="#f3dc2c"/><path d="m563.431 73.5054c0 15.17-13.382 27.4686-29.889 27.4686s-29.89-12.2986-29.89-27.4686 13.383-27.4683 29.89-27.4683 29.889 12.2983 29.889 27.4683z" fill="#f3dc2c"/><path d="m656.471 73.5054c0 15.17-13.382 27.4686-29.889 27.4686s-29.889-12.2986-29.889-27.4686 13.382-27.4683 29.889-27.4683 29.889 12.2983 29.889 27.4683z" fill="#f3dc2c"/><path d="m618.409 46.2803c0 7.5101-2.159 14.516-5.89 20.4308" stroke="#d80090" stroke-linecap="round" stroke-linejoin="round" stroke-width="4.96699"/><path d="m543.196 46.2803c0 7.5101 2.159 14.516 5.89 20.4308" stroke="#d80090" stroke-linecap="round" stroke-linejoin="round" stroke-width="4.96699"/><path d="m563.094 112.989v-20.3694" stroke="#d80090" stroke-linecap="round" stroke-linejoin="round" stroke-width="4.96699"/><path d="m597.043 112.989v-20.3694" stroke="#d80090" stroke-linecap="round" stroke-linejoin="round" stroke-width="4.96699"/><path d="m709.481 240.216-13.492.17c-16.441.207-30.062-13.075-30.269-29.516l-.364-28.851c-.207-16.44 13.075-30.062 29.516-30.269l13.494-.17c16.44-.207 30.061 13.076 30.268 29.516l.364 28.851c.207 16.441-13.076 30.062-29.517 30.269z" fill="#698eff"/><path d="m710.361 219.868-15.853.2c-2.795.036-5.11-2.223-5.146-5.018l-.513-40.77c-.036-2.803 2.229-5.125 5.032-5.16l15.838-.2c6.554-.082 11.983 5.212 12.065 11.765l.342 27.119c.083 6.553-5.212 11.982-11.765 12.064z" fill="#b7cdff"/><path d="m441.758 241.292 13.495.061c16.442.075 29.956-13.316 30.031-29.758l.132-28.853c.075-16.443-13.317-29.956-29.759-30.032l-13.494-.061c-16.442-.075-29.956 13.316-30.031 29.758l-.132 28.854c-.075 16.442 13.316 29.955 29.758 30.031z" fill="#698eff"/><path d="m440.716 220.952 15.854.072c2.795.012 5.093-2.264 5.105-5.059l.187-40.773c.012-2.803-2.271-5.108-5.074-5.12l-15.84-.072c-6.554-.03-11.94 5.308-11.97 11.861l-.124 27.12c-.029 6.553 5.308 11.941 11.862 11.971z" fill="#b7cdff"/><path d="m639.64 276.547c-31.35 1.834-103 2.81-130.496-.004-27.348-2.798-57.168-25.28-56.605-57.035l-.857-49.321c.494-46.571 23.445-59.219 64.87-62.481 44.248-3.484 114.014-2.214 128.838-1.685 40.656 1.452 60.465 26.305 59.902 58.06l.13 56.375c-.622 35.058-26.691 53.805-65.782 56.091z" fill="#698eff"/><path d="m604.689 225.923-48.103.311c-18.08.117-32.97-14.581-33.086-32.661l-.176-27.126c-.069-10.626 8.57-19.377 19.196-19.446l70.579-.457c10.202-.066 18.603 8.227 18.669 18.43l.216 33.298c.097 15.11-12.185 27.553-27.295 27.651z" fill="#b7cdff"/><path d="m604.46 206.509-11.261.142c-3.864.049-7.063-3.072-7.112-6.935l-.004-.299c-.049-3.864 3.072-7.064 6.935-7.113l11.262-.141c3.863-.049 7.064 3.072 7.113 6.935l.003.299c.049 3.864-3.072 7.063-6.936 7.112z" fill="#698eff"/><path d="m563.372 207.027-11.262.142c-3.863.049-7.063-3.072-7.112-6.936l-.004-.298c-.049-3.864 3.072-7.064 6.936-7.112l11.262-.143c3.863-.049 7.063 3.072 7.111 6.936l.005.299c.048 3.863-3.072 7.064-6.936 7.112z" fill="#698eff"/><path d="m625.918 228.365c-3.367.958-15.15 5.379-20.526 8.79-4.725 2.998-8.229 5.638-4.232 11.813 3.998 6.175 16.867 12.008 28.351 8.404 11.484-3.603 17.223-14.742 17.253-21.545 0 0 .507-5.54-2.989-8.493-3.496-2.954-12.343-.537-17.857 1.031z" fill="#e9459c"/><path d="m608.105 254.962s14.046-17.771 38.675-20.973c0 0 2.194 12.329-12.308 21.364-12.489 7.782-26.367-.391-26.367-.391z" fill="#ffacd6"/><path d="m666.048 183.673c.088 6.988-5.506 12.725-12.493 12.813-6.988.087-12.725-5.506-12.813-12.494-.087-6.988 5.506-12.725 12.494-12.812 6.988-.088 12.724 5.506 12.812 12.493z" fill="#080201"/><path d="m514.396 184.281c.088 6.987-5.506 12.724-12.494 12.812s-12.724-5.506-12.812-12.494c-.088-6.987 5.506-12.724 12.493-12.812 6.988-.088 12.725 5.506 12.813 12.494z" fill="#080201"/><path d="m524.436 263.286c7.219-.115 12.836-1.109 19.018-4.157l.354-.176c6.157-3.097 10.334-6.981 14.776-12.673 7.061-9.05 16.894-13.482 25.46-15.05l-7.231-14.521c-1.62-3.253-5.605-4.588-8.858-2.968l-79.227 39.456c-3.252 1.62-4.587 5.605-2.968 8.857l7.947 15.957c6.197-7.172 17.028-14.507 30.729-14.725z" fill="#fff"/><path d="m614.941 293.27-30.897-62.04c-8.566 1.568-18.399 6-25.46 15.05-4.442 5.692-8.619 9.575-14.776 12.673l-.354.176c-6.182 3.048-11.799 4.042-19.018 4.157-13.701.218-24.532 7.553-30.729 14.725l29.899 60.036c7.669-12.659 21.511-25.094 39.352-33.979 18.311-9.119 37.065-12.618 51.983-10.798z" fill="#ff78b9"/><path d="m548.49 373.197 79.227-39.456c3.253-1.62 4.588-5.605 2.968-8.858l-15.744-31.613c-14.918-1.82-33.672 1.679-51.983 10.798-17.841 8.885-31.683 21.32-39.352 33.979l16.027 32.182c1.62 3.252 5.605 4.588 8.857 2.968z" fill="#f3dc2c"/><path d="m662.999 274.006 1.981.757s4.394 1.678 5.859-2.158c1.466-3.836 2.459-6.435 2.459-6.435s1.135-2.971-3.259-4.649c-1.98-.757-6.507-2.486-10.884-4.159-5.339-2.04-10.454-3.994-10.454-3.994-4.378-1.673-8.905-3.402-10.884-4.158-4.394-1.679-5.529 1.291-5.529 1.291s-.993 2.599-2.459 6.436c-1.466 3.836 2.928 5.515 2.928 5.515l1.98.756" fill="#e0e0e0"/><path d="m634.737 263.208c-2.513 1.38-1.488 3.864-1.488 3.864s-1.462 4.628-6.183 7.401c-4.72 2.772-18.411 10.659-23.903 25.035-5.493 14.376-18.382 48.113-18.382 48.113s-2.583 7.434 8.107 11.518c3.528 1.348 7.715 2.948 11.674 4.46 0 0 6.593 2.519 13.986 5.344 3.958 1.512 8.145 3.112 11.673 4.46 10.689 4.084 13.723-3.178 13.723-3.178s12.889-33.737 18.382-48.113c5.492-14.376.548-29.382-1.121-34.596s.326-9.638.326-9.638 2.421-1.168 1.468-3.872" fill="#aad7f4"/><path d="m608.589 301.583c-4.485 11.738-17.011 44.523-17.011 44.523s-2.108 6.07 6.62 9.404c2.881 1.101 6.301 2.407 9.533 3.642 0 0 5.384 2.057 11.42 4.364 3.233 1.235 6.652 2.541 9.532 3.641 8.728 3.335 11.205-2.594 11.205-2.594s12.526-32.785 17.01-44.523z" fill="#fff"/><path d="m633.779 247.831 31.013 11.848" stroke="#6996af" stroke-linecap="round" stroke-linejoin="round" stroke-width="4.13915"/><path d="m591.96 316.924c1.267 14.158-6.565 25.448-24.297 24.423-15.45-.893-24.728-13.275-21.321-27.059 3.64-14.73 14.212-27.885 24.479-27.582 11.042.325 19.739 14.573 21.139 30.218z" fill="#fff"/><path d="m591.96 316.924c1.267 14.158-6.565 25.448-24.297 24.423-15.45-.893-24.728-13.275-21.321-27.059 3.64-14.73 14.212-27.885 24.479-27.582 11.042.325 19.739 14.573 21.139 30.218z" stroke="#c1c1c1" stroke-linecap="round" stroke-linejoin="round" stroke-width="3.31132"/><path d="m626.602 336.435c-.735 14.195-10.076 24.272-27.488 20.767-15.171-3.055-22.617-16.617-17.308-29.786 5.673-14.072 17.989-25.612 28.112-23.87 10.886 1.874 17.495 17.202 16.684 32.889z" fill="#fff"/><path d="m626.602 336.435c-.735 14.195-10.076 24.272-27.488 20.767-15.171-3.055-22.617-16.617-17.308-29.786 5.673-14.072 17.989-25.612 28.112-23.87 10.886 1.874 17.495 17.202 16.684 32.889z" stroke="#c1c1c1" stroke-linecap="round" stroke-linejoin="round" stroke-width="3.31132"/><path d="m552.362 317.475c6.139 12.82 2.751 26.136-14.219 31.378-14.787 4.568-27.809-3.786-29.44-17.892-1.742-15.072 3.561-31.094 13.286-34.402 10.458-3.557 23.589 6.749 30.373 20.916z" fill="#fff"/><path d="m552.362 317.475c6.139 12.82 2.751 26.136-14.219 31.378-14.787 4.568-27.809-3.786-29.44-17.892-1.742-15.072 3.561-31.094 13.286-34.402 10.458-3.557 23.589 6.749 30.373 20.916z" stroke="#c1c1c1" stroke-linecap="round" stroke-linejoin="round" stroke-width="3.31132"/><path d="m522.559 323.79s8.006-1.654 17.294-3.174c9.288-1.521 33.23-.317 39.714 23.384 6.485 23.702-10.598 38.412-34.448 44.173-28.086 6.784-85.957-.103-102.628-29.523-33.791-59.63 49.335-79.518 49.335-79.518l14.828 46.485" fill="#698eff"/><path d="m641.399 323.79s-8.006-1.654-17.294-3.174c-9.289-1.521-33.23-.317-39.715 23.384-6.484 23.702 10.598 38.412 34.448 44.173 28.087 6.784 85.957-.103 102.629-29.523 33.79-59.63-49.336-79.518-49.336-79.518l-14.828 46.485" fill="#698eff"/><path d="m564.706 426.687h34.976c34.171 0 63.486-21.856 74.655-52.278h-184.285c11.169 30.422 40.483 52.278 74.654 52.278z" fill="#d11583"/><path d="m679.16 347.209c0-5.765-4.717-10.482-10.483-10.482h-172.967c-5.765 0-10.482 4.717-10.482 10.482 0 3.182.195 6.321.563 9.408h192.805c.369-3.087.564-6.226.564-9.408z" fill="#d11583"/><path d="m485.792 356.617c.736 6.17 2.18 12.13 4.259 17.792h184.286c2.079-5.662 3.523-11.622 4.26-17.792z" fill="#fff"/><g fill="#fff" mask="url(#e)"><path d="m105.91 38.0098h12.294c2.964 0 5.495.4126 7.515 1.3249 1.879.771 3.475 2.1177 4.626 3.801 1.01 1.6833 1.586 3.5729 1.51 5.4734 0 1.9657-.5 3.8662-1.586 5.5495-1.151 1.7593-2.889 3.0842-4.843 3.9313-2.172.9883-4.909 1.4661-8.091 1.4661h-11.425zm11.349 16.0076c2.02 0 3.54-.4887 4.626-1.477 1.086-1.0534 1.662-2.4652 1.586-4.0073.076-1.4009-.435-2.7259-1.445-3.7141-.944-.9123-2.378-1.4118-4.333-1.4118h-3.833v10.5342h3.399z"/><path d="m150.361 59.4802c-1.586-.4235-3.182-1.0426-4.627-1.8896v-5.126c1.228.9123 2.672 1.5422 4.116 1.8897 1.662.4887 3.323.7059 5.061.771.576 0 1.162-.0651 1.738-.2715.358-.2063.575-.4235.575-.7059 0-.2823-.076-.5647-.293-.771-.358-.2824-.793-.4236-1.227-.4887l-3.758-.8471c-2.172-.4887-3.681-1.1946-4.626-2.0417-.945-.9122-1.444-2.172-1.368-3.4317 0-1.1186.434-2.2481 1.227-3.0951.945-.9883 2.096-1.6833 3.399-2.0309 1.662-.4887 3.399-.771 5.202-.7059 1.661 0 3.258.1412 4.843.5648 1.304.2823 2.52.771 3.682 1.4009v4.8436c-1.086-.6299-2.237-1.0535-3.388-1.3358-1.304-.3475-2.683-.4887-3.986-.4887-1.955 0-2.954.3584-2.954.9882 0 .2824.13.5539.424.6951.51.2063 1.097.3584 1.672.4995l3.171.5539c2.02.3475 3.617.9774 4.627 1.8245s1.52 2.1828 1.52 3.8661c0 1.8245-.945 3.5078-2.53 4.4201-1.662 1.0534-4.051 1.6181-7.157 1.6181-1.803-.0652-3.606-.2824-5.343-.7059z"/><path d="m172.775 58.8611c-1.661-.7711-3.116-1.9657-4.126-3.5078-.945-1.4769-1.369-3.2363-1.369-4.9956s.435-3.4317 1.445-4.9087c1.01-1.5421 2.454-2.6716 4.192-3.4426 2.096-.8471 4.344-1.3249 6.581-1.2598 3.182 0 5.777.6299 7.873 1.9657v5.6146c-.793-.4887-1.65-.9122-2.595-1.1946-1.01-.2824-2.096-.4887-3.182-.4887-1.955 0-3.465.3475-4.627 1.0534-1.585.8471-2.096 2.7367-1.227 4.2789.293.4887.717.9122 1.227 1.1946 1.086.7059 2.596 1.0534 4.692 1.0534 1.086 0 2.107-.1412 3.117-.4236.945-.2823 1.802-.6298 2.595-1.1185v5.4082c-2.454 1.401-5.202 2.096-8.025 2.0309-2.237.0651-4.551-.3476-6.571-1.2598z"/><path d="m195.255 58.8502c-1.737-.771-3.181-1.9656-4.191-3.5078-.945-1.4769-1.445-3.2254-1.445-4.9847s.435-3.4426 1.445-4.9196c1.01-1.4769 2.454-2.6607 4.191-3.3666 4.116-1.6181 8.819-1.6181 12.935 0 1.661.7059 3.106 1.8897 4.116 3.3666.945 1.477 1.444 3.2363 1.444 4.9196 0 1.7593-.499 3.5078-1.444 4.9847-1.01 1.5422-2.455 2.7368-4.116 3.5078-4.192 1.6833-8.819 1.6833-12.935 0zm9.536-5.4734c.792-.7711 1.238-1.9005 1.162-2.9539.076-1.1186-.37-2.172-1.162-2.9431-.869-.7711-2.02-1.1294-3.182-1.1294-1.162-.0652-2.303.3583-3.172 1.1294-.792.7711-1.238 1.8245-1.162 2.9431-.076 1.1185.37 2.1828 1.162 2.9539.869.771 2.01 1.1837 3.172 1.1186 1.227.0651 2.389-.3476 3.182-1.1186z"/><path d="m232.69 41.8544v6.6789c-.945-.5648-2.02-.8363-3.106-.7711-1.662 0-2.954.4778-3.899 1.4661-.869.9883-1.379 2.5304-1.379 4.6372v5.6146h-7.732v-17.9733h7.591v5.6907c.434-2.1069 1.075-3.649 2.02-4.6372.945-.9883 2.248-1.5422 3.616-1.477 1.01 0 2.02.2824 2.889.7711z"/><path d="m258.407 37.3691v22.1219h-7.733v-4.0074c-.575 1.401-1.661 2.6716-2.964 3.4426-1.521.8471-3.172 1.2598-4.909 1.1946-1.586.0652-3.182-.4126-4.551-1.2597-1.303-.8471-2.389-2.0417-3.04-3.4426-.717-1.5422-1.086-3.2363-1.086-4.9196-.076-1.7593.369-3.5078 1.086-5.0499.727-1.477 1.889-2.6607 3.258-3.5078 1.444-.8471 3.106-1.2706 4.767-1.2706 3.682 0 6.136 1.553 7.439 4.6372v-7.9387zm-8.884 15.8665c.793-.7711 1.227-1.8245 1.151-2.8779 0-1.0534-.434-2.096-1.151-2.8019-1.803-1.4769-4.409-1.4769-6.288 0-.793.7711-1.238 1.7485-1.162 2.8019-.076 1.0534.369 2.1068 1.162 2.8779.869.7711 1.944 1.1294 3.106 1.1294 1.227.0652 2.313-.3583 3.182-1.1294z"/><path d="m77.4465 32.667c-3.7576-1.6182-7.7432-2.8019-11.8591-3.5078-.5756.9882-1.0752 1.9656-1.5096 3.0191-4.3331-.6299-8.8292-.6299-13.1623 0-.4344-1.0535-.934-2.0309-1.5095-3.0191-4.0508.7059-8.0256 1.9005-11.8592 3.5838-7.4391 10.7405-9.4699 21.1987-8.4599 31.5917 4.4092 3.1603 9.3287 5.5495 14.5307 7.0916 1.1511-1.5421 2.2371-3.1603 3.1059-4.8436-1.6615-.6298-3.3231-1.4009-4.9087-2.248.4344-.2823.7928-.5647 1.2272-.8471 9.1767 4.2137 19.7978 4.2137 29.0505 0 .3584.2824.7928.6408 1.2272.8471-1.5856.9123-3.1711 1.6833-4.9087 2.248.8688 1.6833 1.9548 3.3015 3.1059 4.8436 5.202-1.5421 10.1215-3.9313 14.5307-7.0916 1.1512-12.0111-2.096-22.4042-8.6011-31.6677zm-29.4958 25.282c-2.8236 0-5.2019-2.5303-5.2019-5.5494s2.248-5.6146 5.1368-5.6146c2.8887 0 5.2019 2.5303 5.2019 5.6146 0 3.0842-2.248 5.5494-5.1368 5.5494zm19.081 0c-2.8236 0-5.1259-2.5303-5.1259-5.5494s2.2372-5.6146 5.1259-5.6146c2.8888 0 5.2128 2.5303 5.1368 5.6146 0 3.0842-2.248 5.5494-5.1368 5.5494z"/><path d="m138.436 43.4725c2.118 0 3.834-1.5096 3.834-3.3666 0-1.8571-1.716-3.3666-3.834-3.3666s-3.833 1.5095-3.833 3.3666c0 1.857 1.715 3.3666 3.833 3.3666z"/><path d="m134.614 45.7969c2.454.9882 5.278.9882 7.732 0v13.8356h-7.732z"/></g></g></g></g></svg>