<svg fill="none" height="222" viewBox="0 0 272 222" width="272" xmlns="http://www.w3.org/2000/svg" xmlns:xlink="http://www.w3.org/1999/xlink"><clipPath id="a"><path d="m0 0h11.4152v11.4152h-11.4152z" transform="matrix(.77269258 -.63478041 .63478041 .77269258 16.3586 163.818)"/></clipPath><clipPath id="b"><path d="m0 0h11.4152v11.4152h-11.4152z" transform="matrix(.97818134 .20775292 -.20775292 .97818134 198.537 135.42)"/></clipPath><clipPath id="c"><path d="m0 0h30.85v30.85h-30.85z" transform="matrix(.93573614 -.35270084 .35270084 .93573614 34.9523 50.8534)"/></clipPath><clipPath id="d"><path d="m0 0h18.1326v18.1326h-18.1326z" transform="matrix(.98043401 -.19684802 .19684802 .98043401 75.7005 40.1077)"/></clipPath><clipPath id="e"><path d="m0 0h20.7538v20.7538h-20.7538z" transform="matrix(.92745037 -.37394626 .37394626 .92745037 50.4707 116.139)"/></clipPath><clipPath id="f"><path d="m0 0h20.3635v20.3635h-20.3635z" transform="matrix(.97311901 .23030281 -.23030281 .97311901 217.646 109.314)"/></clipPath><clipPath id="g"><path d="m0 0h11.2005v11.2005h-11.2005z" transform="matrix(.97311901 .23030281 -.23030281 .97311901 246.097 144.006)"/></clipPath><clipPath id="h"><path d="m0 0h11.2005v11.2005h-11.2005z" transform="matrix(.97311901 .23030281 -.23030281 .97311901 246.097 85.3647)"/></clipPath><clipPath id="i"><path d="m0 0h11.4152v11.4152h-11.4152z" transform="matrix(.90199912 -.43173786 .43173786 .90199912 29.295 96.1197)"/></clipPath><clipPath id="j"><path d="m0 0h11.4152v11.4152h-11.4152z" transform="matrix(.90199912 -.43173786 .43173786 .90199912 26.6034 131.881)"/></clipPath><clipPath id="k"><path d="m0 0h11.4152v11.4152h-11.4152z" transform="matrix(.97808078 -.2082258 .2082258 .97808078 47.6045 156.052)"/></clipPath><clipPath id="l"><path d="m0 0h23.9672v23.9672h-23.9672z" transform="matrix(.90388927 .4277665 -.4277665 .90388927 174.501 43.285)"/></clipPath><g clip-path="url(#a)"><path d="m27.0085 160.355c-.1694-.091-.3778-.071-.5263.051l-1.9779 1.625-2.6494-1.184c-.3295-.147-.7378.189-.6575.54l.6475 2.829-1.978 1.625c-.1485.122-.2091.322-.1529.506.0563.184.2183.317.4096.336l3.0718.305 1.2717 2.925c.0797.183.2648.297.4638.286.2-.011.3707-.146.4277-.336l.9031-2.982 3.0995-.307c.0957-.009.1836-.047.2549-.105.076-.063.1327-.149.1587-.249.0495-.193-.0269-.397-.1911-.511l-2.6227-1.815.2976-3.072c.0189-.192-.0806-.377-.2501-.467z" fill="#2d3136"/></g><g clip-path="url(#b)"><path d="m207.888 141.581c-.034-.189-.18-.339-.368-.379l-2.504-.532-.728-2.809c-.091-.349-.608-.459-.833-.177l-1.806 2.271-2.504-.532c-.188-.04-.382.038-.491.197-.109.158-.112.368-.007.529l1.679 2.591-1.493 2.819c-.093.176-.067.392.066.541s.345.199.53.124l2.893-1.154 2.174 2.23c.067.069.151.114.241.134.097.02.199.011.294-.032.182-.081.293-.268.28-.468l-.218-3.182 2.587-1.684c.161-.105.243-.298.208-.487z" fill="#2d3136"/></g><path d="m154.827 89.9304c.677 1.3567 2.063 2.2141 3.579 2.2141h31.844c.772 0 1.476.4716 1.768 1.1823.301.7307.127 1.5716-.412 2.1098l-.005.005-27.122 27.1824c-1.024 1.027-1.412 2.527-1.015 3.922l10.875 38.158v.001c.223.785-.066 1.617-.708 2.09-.34.247-.735.368-1.131.368-.373 0-.739-.106-1.062-.322l-32.216-21.526c-1.345-.898-3.099-.898-4.444 0l-32.222 21.526-.011.007c-.65.437-1.517.429-2.175-.052-.6422-.472-.9325-1.305-.7091-2.091 0-.001.0001-.001.0002-.001l10.8749-38.158c.397-1.395.009-2.895-1.016-3.922l-27.1216-27.1824-.0049-.005c-.5389-.5382-.7131-1.3791-.4121-2.1098.2928-.7107.996-1.1823 1.7685-1.1823h31.8431c1.517 0 2.903-.8576 3.58-2.2146l16.11-32.2979c.169-.3378.699-.7987 1.714-.7987 1.014 0 1.545.4604 1.714.7981v.0006z" fill="#36393e" stroke="#2d3136" stroke-linejoin="round" stroke-width="8"/><g clip-path="url(#c)"><path d="m65.2155 51.2416c-.3548-.3798-.9059-.508-1.3918-.3248l-6.4735 2.44-5.7515-5.3314c-.7154-.6624-2.0517-.1588-2.1518.8111l-.8002 7.8008-6.4736 2.4401c-.4859.1831-.8153.6432-.831 1.1627-.0157.5194.2828 1.0017.7563 1.2156l7.5966 3.4478.7131 8.5907c.0448.5379.4191.9916.9379 1.1361.5217.1448 1.0754-.0515 1.3869-.4897l4.9011-6.845 8.1987 1.9074c.253.0588.5106.0388.7439-.0491.249-.0939.4689-.2649.6224-.499.2944-.451.2761-1.0388-.0453-1.4725l-5.1348-6.9241 3.4308-7.6043c.2145-.4732.1205-1.0325-.2342-1.4124z" fill="#2d3136"/></g><g clip-path="url(#d)"><path d="m93.2176 43.2074c-.1697-.254-.4772-.3807-.7764-.3206l-3.9867.8004-2.8297-3.6387c-.352-.4522-1.175-.287-1.3252.266l-1.2051 4.4489-3.9867.8004c-.2993.0601-.534.2957-.5925.5955s.0689.6079.3232.7769l4.0788 2.7214-.4023 5.0508c-.0251.3163.1489.615.4361.7481.2889.1335.6287.0722.851-.1524l3.493-3.5048 4.5745 1.8851c.1411.0582.2924.071.4361.0422.1534-.0308.2972-.1091.4084-.2303.2136-.2337.2588-.5764.1136-.8585l-2.3207-4.504 2.7123-4.0849c.1694-.2541.168-.5875-.0017-.8415z" fill="#2d3136"/></g><g clip-path="url(#e)"><path d="m70.8304 115.936c-.2444-.25-.617-.328-.941-.197l-4.3164 1.74-3.95-3.497c-.4913-.435-1.3823-.076-1.4348.578l-.4185 5.259-4.3164 1.74c-.324.131-.5384.446-.5411.795-.0026.35.2056.67.5273.806l5.1621 2.202.6114 5.767c.0384.361.2971.661.6482.75.3531.089.7225-.051.9253-.351l3.1912-4.678 5.5434 1.157c.171.035.344.018.4996-.045.166-.067.3112-.185.4109-.345.191-.308.1697-.703-.0531-.99l-3.5596-4.578 2.1907-5.167c.137-.321.0652-.696-.1792-.946z" fill="#2d3136"/></g><g clip-path="url(#f)"><path d="m234.071 120.687c-.055-.338-.309-.612-.643-.691l-4.443-1.051-1.183-5.04c-.147-.627-1.064-.844-1.477-.35l-3.315 3.976-4.444-1.052c-.333-.079-.683.051-.883.33-.201.279-.215.653-.035.944l2.887 4.69-2.777 4.965c-.174.311-.137.698.094.968.232.272.608.369.94.244l5.207-1.94 3.785 4.068c.117.125.265.21.426.247.171.041.354.028.524-.043.328-.139.535-.467.519-.823l-.258-5.684 4.683-2.898c.292-.18.447-.521.393-.86z" fill="#2d3136"/></g><g clip-path="url(#g)"><path d="m255.131 150.262c-.03-.186-.17-.337-.353-.38l-2.445-.579-.65-2.772c-.081-.344-.586-.464-.812-.192l-1.824 2.187-2.444-.579c-.183-.043-.376.029-.486.182s-.118.359-.019.519l1.588 2.579-1.528 2.732c-.095.171-.075.383.052.532.128.15.334.203.517.134l2.864-1.067 2.082 2.238c.064.069.146.115.234.136.094.022.195.015.289-.024.18-.076.294-.257.285-.453l-.142-3.126 2.576-1.594c.16-.099.246-.287.216-.473z" fill="#2d3136"/></g><g clip-path="url(#h)"><path d="m255.131 91.6205c-.03-.1863-.17-.3367-.353-.3801l-2.445-.5785-.65-2.772c-.081-.3446-.586-.464-.812-.1923l-1.824 2.1866-2.444-.5784c-.183-.0435-.376.0283-.486.1815s-.118.359-.019.5194l1.588 2.5792-1.528 2.7314c-.095.1711-.075.3836.052.5323.128.1495.334.2027.517.1339l2.864-1.0669 2.082 2.2375c.064.069.146.1153.234.1361.094.0223.195.0154.289-.024.18-.0761.294-.2568.285-.4526l-.142-3.1265 2.576-1.5938c.16-.0989.246-.2864.216-.4728z" fill="#2d3136"/></g><g clip-path="url(#i)"><path d="m40.464 95.3014c-.1428-.1288-.3501-.1585-.5234-.0756l-2.309 1.1052-2.2897-1.7827c-.2847-.2215-.7614.0066-.7675.3673l-.0472 2.9013-2.309 1.1052c-.1733.0829-.2801.263-.2694.455s.1361.3603.3174.4241l2.9101 1.0298.5358 3.144c.0336.197.186.353.3819.389.1969.037.3948-.053.4957-.224l1.5894-2.679 3.0831.442c.0951.014.1894-.002.2727-.041.0888-.043.1644-.113.2136-.204.0941-.176.0687-.392-.0635-.542l-2.113-2.389 1.0232-2.9124c.0641-.1813.0116-.3845-.1312-.5132z" fill="#2d3136"/></g><g clip-path="url(#j)"><path d="m37.7725 131.063c-.1428-.129-.3501-.158-.5234-.076l-2.309 1.106-2.2897-1.783c-.2848-.222-.7614.007-.7675.367l-.0472 2.902-2.309 1.105c-.1733.083-.2801.263-.2694.455s.1361.36.3174.424l2.9101 1.03.5358 3.144c.0336.197.186.352.3819.389.1969.037.3948-.053.4957-.225l1.5894-2.679 3.0831.443c.0951.014.1894-.002.2726-.042.0888-.042.1645-.112.2136-.203.0942-.176.0688-.392-.0635-.542l-2.1129-2.389 1.0232-2.913c.0641-.181.0116-.384-.1312-.513z" fill="#2d3136"/></g><g clip-path="url(#k)"><path d="m58.6541 157.875c-.1087-.158-.3032-.236-.4911-.196l-2.5038.533-1.8079-2.27c-.2249-.282-.7417-.172-.8322.178l-.7261 2.809-2.5037.533c-.188.04-.334.19-.3686.379-.0347.189.0478.382.2091.487l2.5875 1.683-.2163 3.182c-.0135.2.0982.387.28.468.1828.082.3963.041.5346-.102l2.1732-2.232 2.8934 1.153c.0892.036.1846.043.2748.024.0963-.021.1863-.071.2554-.148.1328-.149.1587-.365.0652-.541l-1.4938-2.819 1.6775-2.591c.1048-.161.1015-.371-.0072-.53z" fill="#2d3136"/></g><path d="m218.614 165.208c-.076-.172-.249-.283-.438-.278l-2.511.059-1.33-2.518c-.166-.313-.684-.301-.835.02l-1.211 2.576-2.511.059c-.188.004-.356.123-.424.299s-.024.377.113.507l2.189 2.094-.787 3.029c-.05.189.024.39.185.502s.374.111.534-.002l2.501-1.757 2.58 1.639c.079.05.17.074.261.072.096-.002.192-.034.273-.096.155-.119.219-.323.161-.51l-.928-2.989 2.089-2.194c.13-.136.165-.339.089-.512z" fill="#2d3136"/><g clip-path="url(#l)"><path d="m190.623 60.4012c.021-.4032-.205-.7803-.57-.9529l-4.858-2.2991-.127-6.0914c-.016-.7573-1.019-1.2319-1.614-.7642l-4.79 3.7645-4.859-2.2991c-.364-.1726-.799-.1082-1.098.1635-.298.2716-.407.6988-.271 1.0788l2.176 6.1052-4.414 5.0364c-.277.3155-.328.7695-.129 1.1374.201.3696.61.573 1.023.5104l6.47-.9575 3.36 5.6099c.104.1731.254.3062.429.3891.187.0884.401.119.615.0783.411-.079.73-.4066.798-.8203l1.096-6.6068 6.101-2.1888c.38-.1357.641-.4902.662-.8934z" fill="#2d3136"/></g><path d="m243.26 50.3269c-.121-.5815-.583-1.0341-1.166-1.144l-7.769-1.4641-2.448-8.6219c-.304-1.0717-1.908-1.3739-2.582-.4866l-5.416 7.1401-7.77-1.4641c-.583-.1099-1.178.1436-1.502.6414s-.319 1.1459.016 1.6361l5.368 7.8792-4.408 8.8104c-.276.5518-.18 1.2171.241 1.6664.423.4513 1.08.5886 1.645.3459l8.851-3.7705 6.871 6.7332c.212.2077.475.3413.755.394.299.0563.616.0201.905-.1173.555-.2654.886-.8502.83-1.4645l-.899-9.8104 7.867-5.3852c.491-.3346.731-.9365.611-1.5181z" fill="#2d3136"/><g stroke="#36393e"><path d="m35.9364 108.632-1.9696 16.647"/><path d="m62.2576 135.987-4.7306 16.567"/><path d="m38.0308 141.648 11.8302 12.526"/><path d="m56.5579 113.952-13.7974-10.32"/><path d="m245.202 100.512-12 15"/><path d="m232.202 130.512 13 15"/><path d="m222.202 164.512 20-9"/></g></svg>