<svg xmlns="http://www.w3.org/2000/svg" viewBox="0 0 262 100">
  <defs>
    <radialGradient id="fog-gradient-primary" cx=".5" cy=".5" r=".6" fx=".76" fy=".33" spreadMethod="pad">
      <stop class="primary-1" offset="0%"/>
      <stop class="primary-0" offset="70%"/>
    </radialGradient>
    <radialGradient id="fog-gradient-secondary" cx=".5" cy=".5" r=".6" fx=".76" fy=".33" spreadMethod="pad">
      <stop class="secondary-1" offset="0%"/>
      <stop class="secondary-0" offset="70%"/>
    </radialGradient>
    <style>
      .primary-fill{fill:url(#fog-gradient-primary)}
      .primary-0{fill:#c9f; stop-color:#c9f}
      .primary-1{fill:#fff; stop-color:#fff}
      .secondary-fill{fill:url(#fog-gradient-secondary)}
      .secondary-0{fill:#2d3dee; stop-color:#2d3dee}
      .secondary-1{fill:#fff; stop-color:#fff}
    </style>
  </defs>
  <g id="wrapper-layer">
    <path fill="black" d="M0 0h262v100H0z" id="Layer_3" data-name="Layer 3"/>
  </g>
  <g id="Layer_6" data-name="Layer 6">
    <g class="primary-fill">
      <path id="clan-banner-warp-tunnel-primary" d="m262 99.21-8.77-10.66v-7l8.41 8.67a.51.51 0 0 0 .36.15v-1.23l-8.77-9V68.18l8.47 6.27a.55.55 0 0 0 .3.09v-1.12l-8.77-6.48V54.86l8.57 3.83a.45.45 0 0 0 .2 0v-1l-8.77-3.92v-12.2l8.69 1.34h.08v-1l-8.77-1.36V28.31l8.77-1.2v-1h-.07l-8.7 1.19V15.1l8.77-3.77v-1a.48.48 0 0 0-.2 0L253.23 14V6.06L262 .59V0h-.95l-8.47 5.28h-8.28L250.9 0h-1.61l-6.59 5.25h-15.89L230.22 0H229l-3.42 5.21h-17.87V0h-1v5.16h-17L186.56 0h-1.18l3.21 5.11h-15.27L167.13 0h-1.58l6.19 5.07L154.37 5l-9.44-5h-2.12l9.42 5h-15.46l-12.41-5h-2.69l12.39 5h-14.51l-15.24-5h-3.24l15.21 4.93h-14L84.33 0h-3.8l17.88 4.88H85.92L65.37 0H61l20.5 4.84H68.69L45.47 0h-4.94l23.18 4.79H52.63L26.93 0h-5.49l25.63 4.75H31.93L3.1 0H0v.51l31.39 5.13v11.79L.05 14.58H0v1l31.39 2.86v9.48L0 26.92v1l31.39 1v9.94L0 39.9v1l31.37-1v11.45L0 54.59v1h.05l31.34-3.24v11.37L0 69.12v1h.08l31.31-5.38v11.41L0 83.79v1h.12l31.27-7.61v12.29L0 99.48v.52h1.65L32 90.33l15.09-.07-27.4 9.74h3l27.42-9.76 14.81-.07L40.31 100H43l24.62-9.84 15-.08L60.93 100h2.41l21.74-9.93 16.07-.07-18.61 10h2.11l18.63-10 15.47-.08L103.14 100H105l15.62-10.11 15.73-.08-12.6 10.19h1.59l12.6-10.2 16-.08-9.24 9.94a.5.5 0 0 0-.13.34h1.18l9.56-10.28 16.41-.08-6.29 10.1a.41.41 0 0 0-.07.26h1.08l6.47-10.37 16.45-.08-3.2 10.3a.39.39 0 0 0 0 .15h1l3.25-10.46 16.59-.08V100h1V89.46l16.43-.09 3.29 10.63h1a.76.76 0 0 0 0-.15l-3.3-10.48 16.27-.08 6.75 10.71h1.08a.54.54 0 0 0-.07-.27l-6.58-10.45h9.62l8.86 10.72h.65Zm-18.95-93h7.94l-5.49 3.48h-6.74Zm-11.49 51.58v-5.64l3.54 2.62v6.67Zm3.54 5.08v3.65l-3.54-4.31v-3Zm-3.54-12v-5.7l3.54 1.58v6.78Zm0-6.84v-5.82l3.54.55v6.89Zm0-6.87v-5.88l3.54-.49v7Zm0-6.93V24.4l3.54-1.52v6.9Zm0-7v-3.67l3.54-2.2v4.43Zm2.29-6.23-2.93 1.83h-3.58l2.29-1.83Zm-3-1 2.25-1.8h5.21l-2.86 1.8Zm-2.95 38.11v-4.64l2.63 1.94v5.35Zm2.63 4.13V61l-2.63-3.19v-2.32Zm-2.63-10v-4.69l2.63 1.17v5.45Zm0-5.78v-4.8l2.63.41v5.56Zm0-5.81v-4.87l2.63-.36v5.63Zm0-5.87V26l2.63-1.13v5.58Zm0-5.9v-3.06l2.63-1.63v3.55Zm1.39-5.09-2 1.26h-2.8l1.6-1.28Zm-4.17 31.41v-3.79l1.78 1.32V53Zm1.78 3.27v2.13l-1.78-2.17v-1.8Zm-1.78-8.29V42.3l1.78.8v4.39Zm0-5v-4l1.78.28V42Zm0-5v-4.02l1.78-.25v4.58Zm0-5.06v-4l1.78-.76v4.54Zm0-5.09v-2.5l1.78-1.11v2.88Zm.53-4-1.18.73h-2.19l.92-.73Zm-3.4 26.17v-2.93l1.9 1.4v3.49Zm1.9 3.39v1.62l-1.9-2.31v-1.26Zm-1.9-7.59v-3l1.9.85v3.58Zm0-4.12v-3.11l1.9.3v3.69Zm0-4.15v-3.18l1.9-.26v3.76Zm0-4.22V28.4l1.9-.82v3.7Zm0-4.23v-1.92l1.9-1.18v2.31Zm.65-3.53-1.61 1h-1.48l1.25-1ZM221.25 26v1.75l-1.62.69V27Zm-1.62 19.52v-2.19l1.62 1.2v2.64Zm1.62 3.1v1.08l-1.62-2V47Zm-1.62-6.52v-2.27l1.62.73v2.73Zm0-3.35v-2.38l1.62.25v2.84Zm0-3.38v-2.46l1.62-.22v2.92Zm0-3.46v-2.39l1.62-.7v2.86Zm-.87-5.54h-.93l.73-.58h1.14Zm-.13 1.26v1.24l-1.84.79v-.88Zm-1.84 15v-1.4l1.84 1.36v1.89Zm1.84 3.34v.59L216 43.28h.1ZM216.79 40v-1.44l1.84.83v2Zm0-2.52v-1.55l1.84.28v2.08Zm0-2.55V33.3l1.84-.25v2.15Zm0-2.63v-1.56l1.84-.79V32Zm-.65-4.3h-.37l.83-.66h.59Zm-.35 1.4v.69l-1.28.55v-.44Zm0 1.78v1.26l-1.28.17v-.88Zm0 2.27v1.32l-1.28-.2v-1Zm0 2.33V37l-1.28-.57v-.88Zm0 2.35v1.13l-1.28-1v-.76Zm0 2.37v1.06l-1.28-1.32v-.68Zm-1.1 2.79 1.42 1.71H215l-1.09-1.74Zm2.24 2.71 1.36 1.65h-1.61L215.63 46Zm2.18 2.64 1.66 2h-2.2l-1.27-2Zm2.48 3 2 2.44h-2.87l-1.52-2.43Zm2.82 3.43 2 2.39h-3.51l-1.51-2.39Zm2.78 3.39 2.81 3.4h-4.37l-2.14-3.41Zm3.63 4.4 3.72 4.52h-5.43l-2.85-4.53Zm4.54 5.52 3.64 4.5h-6.49l-2.81-4.47Zm.74-.68v-3.8l3.49 3.6V72Zm0-5.26v-7l3.49 2.59v8Zm0-8.2V47.2l3.49 1.56v8.09Zm0-8.17v-7.15l3.49.54v8.2Zm0-8.2v-7.21l3.49-.48v8.26Zm0-8.25v-7.2l3.49-1.5v8.22Zm0-8.29v-4.6l3.49-2.18v5.31Zm-1.71-8.21 3.11-2.48h6.4l-4 2.46Zm-1.61 0H221.6l1.66-2.53h12.65Zm-1.25 1L229.28 16h-9.5l1.16-1.77ZM228 16.94l-2.29 1.83h-7.81l1.19-1.82Zm-3.54 2.83-1.61 1.28h-6.45l.85-1.3Zm-2.86 2.28-.92.73h-5.38l.47-.72Zm-2.17 1.73-1.25 1h-4.2l.63-1Zm-2.49 2-.72.57h-3.26l.37-.56Zm-2 1.56-.84.67h-2.29l.46-.7Zm-1.15 15h-.58l-.59-.93h.41Zm-1-13.29-.86.69h-1.28l.45-.69Zm-2 11.36H210l-.39-1.23h.47Zm.63 1 .59.93h-1.47l-.3-.93Zm1.22 1.93 1.18 1.66h-2.34l-.54-1.74Zm1.81 2.66 1.06 1.68h-3.17L211.8 46Zm1.68 2.67 1.26 2h-4.11l-.63-2Zm1.89 3 1.52 2.42h-5.19l-.76-2.4Zm2.15 3.42 1.51 2.39h-6.27l-.75-2.39Zm2.13 3.39 2.15 3.41h-7.65l-1.07-3.42Zm2.78 4.41 2.85 4.52h-9.39l-1.43-4.52Zm3.48 5.52 2.81 4.47h-11.11l-1.41-4.48ZM232 73.9l3.61 5.73-13.22.09-1.82-5.79Zm1.18 0h6.68l4.68 5.68-7.76.06Zm7.41-.7v-4.67l4.5 4.63v5.5Zm0-6.1v-8.26l4.5 3.32v9.57Zm0-9.51v-8.38l4.5 2v9.7Zm0-9.48v-8.5l4.5.7v9.81Zm0-9.51V30l4.5-.61v9.91Zm0-9.57v-8.51l4.5-1.93v9.83Zm0-9.6v-5.5l4.5-2.8v6.37ZM226.15 6.21h15.3l-4.29 3.42h-13.25Zm-18.41 0h17.22l-2.24 3.42h-15Zm0 4.43h14.32l-1.66 2.53h-12.66Zm0 3.57h12l-1.16 1.77h-10.84Zm0 2.76h10.19l-1.19 1.82h-9Zm0 2.81h8.34l-.85 1.3h-7.49Zm0 2.32h6.84l-.48.72h-6.36Zm0 1.71h5.71l-.63 1h-5.08Zm0 1.94h4.43l-.37.56h-4.06Zm0 1.54h3.41l-.47.72h-2.94Zm0 1.75H210l-.46.69h-1.83Zm-1-22.83v3.37h-14.19l-2.15-3.46ZM204.13 28l-.5-.8h3.11v.8Zm2.61 1v.69h-1.54l-.44-.69Zm.26 12.35v.93h-1.81l.29-.93Zm-1.21-1 .39-1.23h.82v1.23Zm1.21 2.93V45h-2.66l.54-1.74Zm-4 2.74-.57 1.84h-3.41l1.11-1.86Zm-2.17-1 1.08-1.74h1.94l-.61 1.72Zm-8.12-1.74h1.21L191.71 45H190Zm-.89-16.22h1.9l1.71.91h-1.29Zm-7.53-.06 3.13 1h-.6l-3.77-1Zm-1.19-1.44h2.21l1.12.45h-2Zm-2.53 14.33v-.79l1.81-.32v.67Zm1.81.59v.87l-1.81.58v-1Zm-1.81-2.4v-1.14l1.81-.19v1Zm0-2.13v-1l1.81-.06v.91Zm0-3.24V32l1.81.16v.57Zm0-1.68V30l1.81.29v.86Zm-1.33-5.09-1.53-.42h2.08l1.31.42Zm.33 3.94v1.06l-2-.18v-1.23Zm0 2.07v.73l-2-.06v-.86Zm0 1.73v.27l-2 .07v-.4Zm0 1.27V36l-2 .21V35Zm0 2.11v1.19l-2 .35v-1.35Zm0 2.21v.87l-2 .49v-1Zm0 1.9v1.08l-2 .65v-1.26Zm2.43 2.11h.14L177.85 45h-.67ZM178 46h1.1l-4.81 2.19h-1.85Zm7.12-13.59v.41l-1.78-.06v-.51Zm-1.78-1.16v-.78l1.78.29v.65Zm1.78 3.47v.72l-1.78.18v-.82Zm0 1.72v.81l-1.78.31v-.93Zm0 1.83v.47l-1.78.43v-.6Zm0 1.5v.66l-1.78.56v-.79Zm2.37 3.49h.51L184.78 45h-1.05Zm.52-8.63v.51l-1.89.2v-.65Zm-1.89-1.78v-.34l1.89.17v.23Zm1.89 3.3v.61l-1.89.32v-.74Zm0 1.62v.26l-1.89.46v-.4Zm0 1.29v.45l-1.89.6v-.59ZM185 46h1.55l-3.22 2.08h-2.26Zm-33.6-13.26v2.11l-9 .3v-2.7Zm-9-1.29v-2.91l9 .82v2.4Zm9 4.4v3.07l-9 .94v-3.69Zm0 4.08v3.12l-9 1.56v-3.73Zm0 4.14V47l-9 2.2v-3.56Zm0 3.9v3.23l-9 2.88v-3.89Zm.58 4.08h2.41l-6.18 2.2h-3.11Zm24.52-20.42v.92l-3.15-.11v-1.1Zm-3.15-1.29v-1.49l3.15.52v1.27Zm3.15 3.21V34l-3.15.11v-.67Zm0 1.46v1.32l-3.15.33v-1.52Zm0 2.33v1.4l-3.15.54v-1.6Zm0 2.41v1.08l-3.15.77v-1.29Zm0 2.11v1.34l-3.15 1v-1.55ZM174.37 46h1l-5.64 2.25H168Zm-6.09 5h-2.68l4.3-1.72h2.17Zm6.27-1.76h2.48L173.76 51h-3ZM162.87 51h-2.56l4.75-1.69h2.06Zm9.51-15.83v1.61l-4.27.44v-1.91Zm-4.27-.86v-1l4.27.13v.74Zm4.27 3.47v1.69l-4.27.73v-2Zm0 2.7v1.38l-4.27 1v-1.64Zm0-8-4.27-.13v-1.47l4.27.39Zm-6.53-8.71h1.54l2.68.73h-1.15Zm2.26 20.21 4.27-1v1.63l-4.27 1.36ZM171 46h.4l-6.51 2.31h-1.2Zm-3.88-13.76-6.28-.2v-1.82l6.28.57Zm0 1v1.08l-6.28.21v-1.47Zm0 2.08v2l-6.28.65v-2.42Zm0 3v2.05l-6.28 1.08V39Zm0 3.06v1.76l-6.28 1.52v-2.2Zm0 2.79v2l-6.28 2V45.7Zm-5.12 5.2L157.28 51h-2.08l5.21-1.66ZM159.83 32l-7.4-.24v-2.3l7.4.67Zm0 1v1.56l-7.4.24v-2Zm0 2.56v2.49l-7.4.76v-3Zm0 3.49v2.55l-7.4 1.27v-3Zm0 3.56v2.28l-7.4 1.8v-2.8Zm0 3.31v2.57l-7.4 2.36v-3.11ZM157.45 52h2.88l-5.56 2.22h-3.54Zm5.61 0h3l-4.91 2.24h-3.68Zm5.44 0h3.38l-4.21 2.27h-4.1Zm5.51 0h3.44l-3.52 2.28h-4.14Zm1.88-1 3.3-1.78h2.59L179 50.91Zm3.05-2.77h-2.14l4.75-2.23h1.37Zm-5-23.68-2.76-.75h3.07l2.37.77Zm-1.58 4.21v1.58l-4.27-.39V28Zm-4.85-6-2.46-.67h4l2.08.68Zm-.42 5.11v2l-6.28-.57v-2.5Zm-3.63-3.42-3.37-.7h1.36l3 .7Zm-1.89-1.69-2.81-.67h2.5l2.44.67Zm-1.76 3.92v2.48l-7.4-.67v-3Zm-4.57-3.93-3.18-.66h2.35l2.79.66Zm-2.55 1.63H152l-3.88-.64h1.18Zm-3.35-1.64-3.5-.65h1.29l3.14.65Zm2.07 2.56v3.1l-9-.82v-3.79Zm-9.5-2.56-3.91-.69h2.37l3.47.65Zm-.54.92v3.83l-9.77-.89v-4.5h.19Zm0 4.83v3l-9.77-.31v-3.62Zm0 4v2.71l-9.77.32v-3.39Zm0 3.76V40l-9.77 1v-4.48Zm0 4.79v3.76l-9.77 1.68V42Zm0 4.83v3.53l-9.77 2.38V47.5Zm0 4.61v4l-9.77 3.11V52.8Zm.58 4.84h3.44l-6.81 2.42h-4.24Zm6.44 0h3.85l-6.06 2.42h-4.6Zm6.55 0h4l-5.29 2.42h-4.76Zm6.41 0h4.43l-4.48 2.41h-5.24Zm6.55 0h4.46l-3.73 2.41h-5.21Zm6.3 0h4.91l-3 2.41h-5.61Zm1.55-1 3.54-2.29h3.9l-2.84 2.3Zm5.1-3.3 2.79-1.8h3.05l-2.25 1.82Zm4.37-2.82 3.2-2.2h2.05L188 48Zm2.91-3.2h-1.24l3.22-1.74h.69Zm2.53-17-3-1H189l2.39 1Zm-2.61 3.26v.44l-1.89-.17v-.58Zm-3.18 12h.25L181.33 45h-.79ZM180 24.52l-2.42-.79h3.26l2 .8Zm-5.52-1.79-2.09-.68h4.25l1.7.68Zm-5.17-1.68-4.37-1.41h5.72l3.49 1.4Zm-3.25 0h-4.6l-5.25-1.43h5.47Zm-8.39 0h-3.07l-6.2-1.45h3.94Zm-7.42 0h-2.95l-7.11-1.47H144Zm-7.88 0h-1.85l-8-1.48h2.71Zm-7.33 0h-3.14l-9.24-1.51h4.24Zm-4.37.8v4.61l-13-1.19v-5.54Zm0 5.61v3.64l-13-.42v-4.4Zm0 4.63v3.46l-13 .43v-4.3Zm0 4.46v4.53l-13 1.35V37Zm0 5.54v4.55l-13 2.25v-5.44Zm0 5.57V52l-13 3.17v-5.26Zm0 5.38v4.78l-13 4.16v-5.76Zm.58 5.65h4.57L126 62.15h-5.71Zm7.58 0h4.91L135 62.13h-6Zm7.62 0h5.07l-7.57 3.46h-6.15Zm7.48 0h5.57l-6.5 3.4h-6.72Zm7.69 0h5.53l-5.32 3.44h-6.62Zm7.38 0h6L170.66 62h-7Zm7.56 0h6.43L179.74 62h-7.48Zm1.24-1 3-2.41h5.39l-2.24 2.4Zm4.2-3.5 2.85-2.31h4.39l-2.24 2.3Zm4.1-3.32 2.22-1.87h3.54l-1.73 1.85Zm3.48-2.87 2.48-2h2.57l-1.83 2Zm-.39-22-1.19-.43h2.81l.88.47Zm-3.68-1.48-2-.81h3.9l1.57.84ZM181 22.74l-1.71-.69h4.94l1.29.69Zm-4.2-1.69-3.47-1.39h6.43l2.59 1.38Zm-6-2.4-4.47-1.79h8.14l3.37 1.8Zm-2.7 0h-6.32l-5.51-1.79h7.37Zm-9.59 0h-6.05L146 16.83h7Zm-9.87 0h-4.52l-7.53-1.77h5.54Zm-8.92 0h-4.47l-8.55-1.85h5.52Zm-9.46 0H127l-9.52-1.77h4.26Zm-8.83 0h-4.86l-10.87-1.88h6.24Zm-4.86 1v5.62l-16.46-1.5v-6.9Zm0 6.62v4.46l-16.46-.53v-5.51Zm0 5.46V36l-16.46.54v-5.42Zm0 5.38v5.51l-16.46 1.71v-6.76Zm0 6.52v5.52l-16.45 2.75v-6.65Zm0 6.53v5.35l-16.46 4v-6.59Zm0 6.38v5.85l-16.46 5.25v-7.17Zm.58 6.71h6l-12.8 4.56h-7.55Zm9 0h6.31l-11.39 4.55h-7.72Zm9 0h6.47l-10 4.55h-7.9Zm8.89 0h7l-8.46 4.55h-8.55Zm9.17 0h6.94l-7 4.54h-8.37Zm8.78 0h7.35l-5.61 4.54h-8.76Zm9 0h7.79l-4.22 4.54h-9.18Zm9.16 0h8.18l-2.82 4.53h-9.58Zm.93-1 3.2-3.44h6.82L189 62Zm4.13-4.44 2.23-2.4h5.78l-1.5 2.4Zm3.17-3.41 2.16-2.32h4.76l-1.46 2.34Zm3.1-3.33 1.76-2.07h3.9L196 50.82Zm2.7-3.07 1.82-2h3l-1.19 1.9Zm1.38-3h-2.26l2.14-1.74h1.73Zm-.48-2.74h-.89l1.44-.93h.6Zm-1.18-16.2-.9-.48h3.82l.6.49Zm-2.8-1.49-1.58-.85h5l1.06.87Zm-3.47-1.85-1.3-.69h6.12l.86.7Zm-3.17-1.69-2.59-1.38h7.71l1.65 1.36ZM180 18.67l-3.38-1.8h9.54l2.2 1.8Zm-5.26-2.8-3.2-1.7h11.3l2.1 1.72Zm-2.13 0h-8.76l-4.2-1.68h9.76Zm-11.45 0h-8l-5.16-1.7h9Zm-11.23 0h-7.65l-6.05-1.65h8.57Zm-11.47 0h-6.11l-6.93-1.64h7ZM128 15.8h-6.13L114 14.18h7.06Zm-11.1 0H112l-8.64-1.6h5.68Zm-10.35 0h-7l-9.69-1.58h8.07Zm-7.39.94v6.86l-16.6-1.51v-7.91h1.09Zm0 7.89v5.49l-16.56-.53V23.1Zm0 6.49v5.52l-16.56.55v-6.6Zm0 6.52v6.74l-16.6 1.68v-7.9Zm0 7.74v6.72l-16.6 2.82v-7.85Zm0 7.74v6.59l-16.56 4v-7.77Zm0 7.62v7.17l-16.6 5.25v-8.42Zm.58 8h7.88L94.71 73.3H85.3Zm10.88 0h8l-11.44 4.57h-9.47Zm10.75 0h8.21l-10 4.56h-9.65Zm10.63 0h8.89l-8.47 4.55h-10.41Zm11 0h8.68l-7 4.54h-10.12Zm10.53 0h9.07l-5.6 4.38h-10.49Zm10.67 0h9.49l-4.21 4.52H158.6Zm10.85 0h9.89l-2.81 4.52h-11.28Zm11.07 0h9.85l-1.4 4.5h-11.26Zm.63-1 2.79-4.74h8.12l-1.41 4.54Zm3.42-5.74 2.14-3.43H199L198 62Zm2.76-4.43 1.5-2.4h5.66l-.74 2.4Zm2.12-3.4 1.47-2.35h4.62l-.74 2.36Zm2.09-3.35 1.18-1.9h3.73l-.6 1.92Zm2.44-5.82h-2.65l1.61-1.74h2.12Zm-1.48-2.74h-1.43l1.15-.93H199ZM196.56 29h.68l1.32.71h-.13Zm.93-1-1.67-.89h2.84l1 .86Zm1.51-1.86-.61-.5h3.08l.32.51Zm-1.84-1.51-1.07-.88h4.18l.57.89Zm-2.29-1.88-.86-.7h5.19l.45.7Zm-2.08-1.7-1.65-1.36h6.59l.84 1.34Zm-2.88-2.36-2.2-1.8H196l1.13 1.81Zm-3.42-2.8-2.1-1.73h9.86l1.09 1.74Zm-3.32-2.73L180 10.51h12.05l1.64 2.62Zm-1.58 0h-12l-5.07-2.71h13.79Zm-14.08 0h-10.36l-6.83-2.75h12.12Zm-13.06 0H145l-8.6-2.79h11.26Zm-12.77 0h-9.14l-10.34-2.82h10.87Zm-12.93 0h-7.59L109 10.31h9.34Zm-11.94 0h-7.66L95.1 10.27h9.52Zm-12.59 0H98l-15.91-2.93h8Zm-11.72 0h-8.77l-18.35-3h11.14Zm-11 .66V22l-22.56-2.06v-9.78h.13Zm0 9.17v6.52l-22.56-.71V21Zm0 7.52v6.66l-22.62.75V29.8Zm0 7.66v8L58.94 48.5v-9.56Zm0 9v7.92L58.94 59v-9.49Zm0 8.94V64l-22.62 5.5V60Zm0 8.87v8.49l-22.56 7.22V70.48Zm.58 9.36h9.73l-18.06 6.42-12 .09Zm12.74 0h9.78l-16 6.39-11.9.08Zm12.5 0h10l-13.83 6.31-12.07.09Zm12.39 0h10.74l-11.55 6.11-12.9.09Zm12.87 0h10.44l-9.55 6.18-12.47-.09Zm12.29 0h10.8l-7.56 6.12-12.78.09Zm12.4 0h11.19l-5.63 6-13.12.09Zm12.56 0h11.58l-3.73 6-13.48.1Zm12.76 0h11.58l-1.85 5.92-13.39-.26Zm12.62 0L207 74v5.86l-13.52.09Zm.32-1 1.4-4.5h10V73Zm1.71-5.51 1.47-4.83H207v4.53ZM199 62l1.06-3.42h6.87V62Zm1.37-4.42.75-2.4H207v2.39Zm1.06-3.4.74-2.37h4.76v2.39Zm1.05-3.37.6-1.92h3.85v1.94Zm.91-2.93L204 46h3v1.79Zm1.28-7.5h-1l.77-1.23h.65Zm-.31 1-.29.93h-1.63l.58-.93Zm-1.9-1h-1.22l1.15-1.23h.84Zm-.62 1-.58.93h-1.81l.86-.93Zm-2-1H199l1.52-1.23h.47Zm1-11.36.84.69h-1.1l-1.3-.69Zm.36-1-1-.84h2.18l.62.82Zm2.3 1 .44.69h-.68l-.76-.71Zm-.5-2.84-.33-.52h4.07v.53Zm-1-1.52-.56-.9h5.26v.93Zm-1.19-1.9-.45-.71h6.34v.71Zm-1.07-1.71-.84-1.34h7.8v1.32Zm-1.47-2.34-1.14-1.81h9.57v1.82Zm-1.77-2.81-1.09-1.74h11.29v1.75Zm-1.72-2.74-1.64-2.62h13.56v2.58Zm-5.6-7 2.15 3.42h-12.65l-4.18-3.42ZM173 6.07l4.18 3.43h-14.45L156.26 6ZM154.12 6l6.43 3.42h-12.74L139.27 6Zm-17.55 0 8.53 3.43h-11.87L122.66 6Zm-17.18 0L130 9.36h-11.46l-12.6-3.46Zm-17.28-.05 12.55 3.43h-9.92L90.21 5.86Zm-16.31 0 14.53 3.43H90.2L73.61 5.82Zm-17.19 0 16.58 3.29h-8.58L58.1 5.78Zm-16.07 0L71 9.2H59.11l-21-3.43Zm-20.15 0L57.94 10v9.87l-25.55-2.34Zm0 12.73 25.55 2.33v7.91L32.39 28Zm0 10.42 25.55.82V38l-25.55.85Zm0 10.88L57.94 39v9.6l-25.55 2.64Zm0 12.42 25.55-2.64v9.55l-25.55 4.24Zm0 12.32 25.55-4.4v9.38l-25.55 6.21Zm0 12.37 25.55-6.22V81l-25.55 8.15Zm17.52 12.3-14.75.08 23.36-7.45 12.36-.09Zm17.53-.08-14.5.07 21-7.47 12.23-.08Zm17.43-.09-14.71.07 18.73-7.48 12.4-.09ZM103 89l-15.73.08 16.43-7.51 13.3-.11Zm17.28-.09-15.12.09 14-7.53 12.84-.12Zm17.27-.08-15.41.07 11.65-7.54 13.1-.09Zm17.32-.09-15.72.08 9.35-7.56 13.42-.1Zm17.48-.09-16.1.08 7.05-7.58 13.81-.15Zm17.32-.08-16.14.08L178.3 81l13.77-.1Zm1.05 0 2.37-7.62 13.91-.12v7.63ZM201 36.07h-1.54V33h9.83v3.04Zm6.93 3h.63l.39 1.23h-1Zm0 2.23h1.33l.3.93H208Zm0 1.93h1.94l.55 1.74H208ZM208 46h2.8l.55 1.73H208Zm3.66 2.73.62 2H208v-2Zm.93 3 .76 2.41H208v-2.39Zm1.07 3.4.75 2.4H208v-2.39Zm-5.66 3.4h6.73l1.07 3.42-7.8.05Zm0 4.47h8.12l1.42 4.53H208Zm0 5.53h9.85l1.41 4.48L208 73Zm0 5.47h11.57l1.82 5.79-13.39.03Zm0 14.48v-7.66l13.71-.1 2.4 7.65Zm17.16-.08-2.41-7.65 13.53-.1 4.83 7.67Zm17.13-.09-4.83-7.67h7.94l6.32 7.68Zm10-.94-6.14-7.46v-5.72l6.14 6.32Zm0-8.26-6.14-6.32V62.9l6.14 4.54Zm0-12.88-6.14-4.54v-10l6.14 2.74Zm0-12.89-6.14-2.74V40.46l6.14.95Zm0-12.91-6.14-.95V29.29l6.14-.84Zm0-13-6.14.84V18.16l6.14-2.63Zm0-13-6.14 2.63v-6.55l6.14-3.83Z"/>
    </g>
    <g class="secondary-fill">
      <path id="clan-banner-warp-tunnel-secondary" d="M249.23 54.86 262 60.57v-1.1l-12.77-5.71V41.57l12.77 2v-1l-12.77-2V28.31L262 26.56v-1l-12.77 1.74V15.1L262 9.62V8.53L249.23 14V6.06L259 0h-1.9l-8.47 5.28h-8.28L246.9 0h-1.61l-6.59 5.25h-15.89L226.22 0H225l-3.42 5.21h-17.87V0h-1v5.16h-17L182.56 0h-1.18l3.21 5.11h-15.27L163.13 0h-1.58l6.19 5.07L150.37 5l-9.44-5h-2.12l9.42 5h-15.46l-12.41-5h-2.69l12.39 5h-14.51l-15.24-5h-3.24l15.21 4.93h-14L80.33 0h-3.8l17.88 4.88H81.92L61.37 0H57l20.5 4.84H64.69L41.47 0h-4.94l23.18 4.79H48.63L22.93 0h-5.49l25.63 4.75H27.93L0 .15v1l27.39 4.49v11.79L0 14.94v1l27.39 2.49v9.48L0 27v1l27.39.88v9.94L0 39.77v1l27.39-.91v11.49L0 54.18v1l27.39-2.83v11.37L0 68.44v1l27.39-4.71v11.42L0 82.81v1l27.39-6.66v12.32L0 98.2v1l28-8.92 15.09-.07-27.4 9.79h3l27.42-9.76 14.81-.07L36.31 100H39l24.62-9.84 15-.08L56.93 100h2.41l21.74-9.93L97.15 90l-18.61 10h2.11l18.63-10 15.47-.08L99.14 100H101l15.62-10.11 15.73-.08-12.6 10.19h1.59l12.6-10.2 16-.08-9.24 9.94a.5.5 0 0 0-.13.34h1.18l9.56-10.28 16.41-.08-6.29 10.1a.41.41 0 0 0-.07.26h1.08l6.47-10.37 16.45-.08-3.2 10.3a.39.39 0 0 0 0 .15h1l3.25-10.46 16.59-.08V100h1V89.46l16.43-.09 3.29 10.63h1a.76.76 0 0 0 0-.15l-3.3-10.48 16.27-.08 6.75 10.71h1.08a.54.54 0 0 0-.07-.27l-6.58-10.45h9.62l8.86 10.72h1.14a.55.55 0 0 0-.1-.32l-9.16-11.13V81L262 94v-1.48l-12.77-13V67.8L262 77.14V75.9l-12.77-9.34ZM239.05 6.25h7.94l-5.49 3.44h-6.74Zm-27.26 24.92v1.26l-1.28.18v-.89Zm-1.28-.54v-.44l1.28-.8v.69Zm1.28 2.81v1.32l-1.28-.2v-1Zm0 2.33V37l-1.28-.57v-.88Zm0 2.35v1.08l-1.28-.94v-.72Zm0 2.32v1l-1.28-1.3v-.64Zm-1.1 2.84 1.42 1.72H211l-1.09-1.74Zm16.87 14.23V52l3.54 2.59v6.56Zm3.54 5v4l-3.54-4.31v-3.27Zm-3.54-11.81v-5.53l3.54 1.58v6.56Zm0-6.65v-5.84l3.54.55v6.89Zm0-6.87v-5.9l3.54-.49v7Zm0-6.93V24.4l3.54-1.52v6.9Zm0-7v-3.69l3.54-2.2v4.43Zm2.29-6.25-2.93 1.83h-3.58l2.29-1.83Zm-3-1 2.25-1.8h5.21l-2.86 1.8Zm-2.95 37.87v-4.56l2.63 1.92v5.26Zm2.63 4.1V61l-2.63-3.19v-2.56Zm-2.63-9.85v-4.57l2.63 1.17V50Zm0-5.62v-4.8l2.63.41v5.56Zm0-5.81v-4.91l2.63-.36v5.63Zm0-5.87V26l2.63-1.13v5.58Zm0-5.9v-3.1l2.63-1.63v3.55Zm1.39-5.09-2 1.26h-2.8l1.6-1.28ZM221.15 51v-3.72l1.78 1.3v4.23Zm1.78 3.24v2.36l-1.78-2.17v-2ZM221.15 46v-3.7l1.78.8v4.24Zm0-4.84v-4l1.78.28V42Zm0-5v-4l1.78-.25v4.58Zm0-5.06v-4l1.78-.76v4.56Zm0-5.09v-2.5l1.78-1.11v2.9Zm.53-4-1.18.73h-2.19l.92-.73Zm-3.43 26v-2.85l1.9 1.39V50Zm1.9 3.35v1.81l-1.9-2.31v-1.39Zm-1.9-7.48V41l1.9.85v3.46Zm0-4v-3.11l1.9.3v3.69Zm0-4.15v-3.18l1.9-.26v3.76Zm0-4.22V28.4l1.9-.82v3.7Zm0-4.23v-1.92l1.9-1.18v2.31Zm.65-3.53-1.61 1h-1.48l1.25-1ZM217.25 26v1.75l-1.62.69V27Zm-1.62 19.4v-2.15l1.62 1.18V47Zm1.62 3.06v1.24l-1.62-2v-.91ZM215.63 42v-2.17l1.62.73v2.63Zm0-3.27v-2.36l1.62.25v2.84Zm0-3.38v-2.44l1.62-.22v2.92Zm0-3.46v-2.37l1.62-.7v2.86Zm-.87-5.54h-.93l.73-.58h1.14Zm-.13 1.26v1.24l-1.84.79v-.88Zm0 2.33V32l-1.84.25v-1.51Zm0 3.1v2.16l-1.84-.28V33.3Zm0 3.16v2.08l-1.84-.82v-1.53Zm0 3.18v1.89l-1.84-1.35v-1.36Zm0 3.13v1.85l-1.84-1.88v-1.31Zm0 3.27v.72L212 43.28h.18Zm-1.7.23 1.36 1.65h-1.61L211.63 46Zm2.18 2.64 1.66 2h-2.2l-1.27-2Zm2.48 3 2 2.44h-2.87l-1.52-2.43Zm2.82 3.43 2 2.39h-3.51l-1.51-2.39Zm2.78 3.39 2.81 3.4h-4.37l-2.14-3.41Zm3.63 4.4 3.72 4.52h-5.43l-2.85-4.53Zm4.54 5.52 3.64 4.49h-6.49l-2.81-4.47Zm.74-.68v-4.16l3.49 3.55V72Zm0-5.61v-6.82l3.49 2.56v7.84Zm0-8.08V47.2l3.49 1.56v7.84Zm0-7.94v-7.16l3.49.54v8.2Zm0-8.2v-7.22l3.49-.48v8.26Zm0-8.25v-7.2l3.49-1.5v8.22Zm0-8.29v-4.61l3.49-2.18v5.31Zm-1.71-8.21 3.11-2.48h6.4l-4 2.46Zm-1.61 0H217.6l1.66-2.53h12.65Zm-1.25 1L225.28 16h-9.5l1.16-1.77ZM224 16.94l-2.29 1.83h-7.81l1.19-1.82Zm-3.54 2.83-1.61 1.28h-6.45l.85-1.3Zm-2.86 2.28-.92.73h-5.38l.47-.72Zm-2.17 1.73-1.25 1h-4.2l.63-1Zm-2.49 2-.72.57h-3.26l.37-.56Zm-2 1.56-.84.67h-2.29l.46-.7Zm-1.15 15h-.58l-.59-.93h.41Zm-1-13.29-.86.69h-1.28l.45-.69Zm-2 11.36H206l-.39-1.23h.47Zm.63 1 .59.93h-1.47l-.3-.93Zm1.22 1.93 1.18 1.66h-2.34l-.54-1.74Zm1.81 2.66 1.06 1.68h-3.17L207.8 46Zm1.68 2.67 1.26 2h-4.11l-.63-2Zm1.89 3 1.52 2.42h-5.19l-.76-2.4Zm2.15 3.42 1.51 2.39h-6.27l-.75-2.39Zm2.13 3.39 2.15 3.41h-7.65l-1.07-3.42Zm2.78 4.41 2.85 4.52h-9.39l-1.43-4.52Zm3.48 5.52 2.81 4.47h-11.11l-1.41-4.48ZM228 73.9l3.61 5.73-13.22.09-1.82-5.79Zm1.18 0h6.68l4.68 5.68-7.76.06Zm7.41-.7v-5.08l4.5 4.57v6Zm0-6.51v-8.12l4.5 3.28v9.42Zm0-9.36v-8.12l4.5 2v9.4Zm0-9.22v-8.5l4.5.7v9.81Zm0-9.51V30l4.5-.61v9.91Zm0-9.57v-8.51l4.5-1.93v9.83Zm0-9.6v-5.5l4.5-2.8v6.37ZM222.15 6.21h15.3l-4.29 3.42h-13.25Zm-18.41 0h17.22l-2.24 3.42h-15Zm0 4.43h14.32l-1.66 2.53h-12.66Zm0 3.57h12l-1.16 1.77h-10.84Zm0 2.76h10.19l-1.19 1.82h-9Zm0 2.81h8.34l-.85 1.3h-7.49Zm0 2.32h6.84l-.48.72h-6.36Zm0 1.71h5.71l-.63 1h-5.08Zm0 1.94h4.43l-.37.56h-4.06Zm0 1.54h3.41l-.47.72h-2.94Zm0 1.75H206l-.46.69h-1.83Zm-1-22.83v3.37h-14.19l-2.15-3.46ZM200.13 28l-.5-.8h3.11v.8Zm2.61 1v.69h-1.54l-.44-.69Zm.26 12.35v.93h-1.81l.29-.93Zm-1.21-1 .39-1.23h.82v1.23Zm1.21 2.93V45h-2.66l.54-1.74Zm-4 2.74-.57 1.84h-3.41l1.11-1.86Zm-2.17-1 1.08-1.74h1.94l-.61 1.72Zm-8.12-1.74h1.21L187.71 45H186Zm-.89-16.22h1.9l1.71.91h-1.29Zm-7.53-.06 3.13 1h-.6l-3.77-1Zm-1.19-1.44h2.21l1.12.45h-2Zm-2.53 14.33v-.79l1.81-.32v.67Zm1.81.59v.87l-1.81.58v-1Zm-1.81-2.4v-1.14l1.81-.19v1Zm0-2.13v-1l1.81-.06v.91Zm0-3.24V32l1.81.16v.57Zm0-1.68V30l1.81.29v.86Zm-1.33-5.09-1.53-.42h2.08l1.31.42Zm.33 3.94v1.06l-2-.18v-1.23Zm0 2.07v.73l-2-.06v-.86Zm0 1.73v.27l-2 .07v-.4Zm0 1.27V36l-2 .21V35Zm0 2.11v1.19l-2 .35v-1.35Zm0 2.21v.87l-2 .49v-1Zm0 1.9v1.08l-2 .65v-1.26Zm2.43 2.11h.14L173.85 45h-.67ZM174 46h1.1l-4.81 2.19h-1.85Zm7.12-13.59v.41l-1.78-.06v-.51Zm-1.78-1.16v-.78l1.78.29v.65Zm1.78 3.47v.72l-1.78.18v-.82Zm0 1.72v.81l-1.78.31v-.93Zm0 1.83v.47l-1.78.43v-.6Zm0 1.5v.66l-1.78.56v-.79Zm2.37 3.49h.51L180.78 45h-1.05Zm.52-8.63v.51l-1.89.2v-.65Zm-1.89-1.78v-.34l1.89.17v.23Zm1.89 3.3v.61l-1.89.32v-.74Zm0 1.62v.26l-1.89.46v-.4Zm0 1.29v.45l-1.89.6v-.59ZM181 46h1.55l-3.22 2.08h-2.26Zm-33.6-13.26v2.11l-9 .3v-2.7Zm-9-1.29v-2.91l9 .82v2.4Zm9 4.4v3.07l-9 .94v-3.69Zm0 4.08v3.12l-9 1.56v-3.73Zm0 4.14V47l-9 2.2v-3.56Zm0 3.9v3.23l-9 2.88v-3.89Zm.58 4.08h2.41l-6.18 2.2h-3.11Zm24.52-20.42v.92l-3.15-.11v-1.1Zm-3.15-1.29v-1.49l3.15.52v1.27Zm3.15 3.21V34l-3.15.11v-.67Zm0 1.46v1.32l-3.15.33v-1.52Zm0 2.33v1.4l-3.15.54v-1.6Zm0 2.41v1.08l-3.15.77v-1.29Zm0 2.11v1.34l-3.15 1v-1.55ZM170.37 46h1l-5.64 2.25H164Zm-6.09 5h-2.68l4.3-1.72h2.17Zm6.27-1.76h2.48L169.76 51h-3ZM158.87 51h-2.56l4.75-1.69h2.06Zm9.51-15.83v1.61l-4.27.44v-1.91Zm-4.27-.86v-1l4.27.13v.74Zm4.27 3.47v1.69l-4.27.73v-2Zm0 2.7v1.38l-4.27 1v-1.64Zm0-8-4.27-.13v-1.47l4.27.39Zm-6.53-8.71h1.54l2.68.73h-1.15Zm2.26 20.21 4.27-1v1.63l-4.27 1.36ZM167 46h.4l-6.51 2.31h-1.2Zm-3.88-13.76-6.28-.2v-1.82l6.28.57Zm0 1v1.08l-6.28.21v-1.47Zm0 2.08v2l-6.28.65v-2.42Zm0 3v2.05l-6.28 1.08V39Zm0 3.06v1.76l-6.28 1.52v-2.2Zm0 2.79v2l-6.28 2V45.7Zm-5.12 5.2L153.28 51h-2.08l5.21-1.66ZM155.83 32l-7.4-.24v-2.3l7.4.67Zm0 1v1.56l-7.4.24v-2Zm0 2.56v2.49l-7.4.76v-3Zm0 3.49v2.55l-7.4 1.27v-3Zm0 3.56v2.28l-7.4 1.8v-2.8Zm0 3.31v2.57l-7.4 2.36v-3.11ZM153.45 52h2.88l-5.56 2.22h-3.54Zm5.61 0h3l-4.91 2.24h-3.68Zm5.44 0h3.38l-4.21 2.27h-4.1Zm5.51 0h3.44l-3.52 2.28h-4.14Zm1.88-1 3.3-1.78h2.59L175 50.91Zm3.05-2.77h-2.14l4.75-2.23h1.37Zm-5-23.68-2.76-.75h3.07l2.37.77Zm-1.58 4.21v1.58l-4.27-.39V28Zm-4.85-6-2.46-.67h4l2.08.68Zm-.42 5.11v2l-6.28-.57v-2.5Zm-3.63-3.42-3.37-.7h1.36l3 .7Zm-1.89-1.69-2.81-.67h2.5l2.44.67Zm-1.76 3.92v2.48l-7.4-.67v-3Zm-5.05-2.93h.37l3.17.66Zm.48-1-3.18-.66h2.35l2.79.66Zm-2.55 1.63H148l-3.88-.64h1.18Zm-3.35-1.64-3.5-.65h1.29l3.14.65Zm2.07 2.56v3.1l-9-.82v-3.79Zm-9.5-2.56-3.91-.69h2.37l3.47.65Zm-.54.92v3.83l-9.77-.89v-4.5h.19Zm0 4.83v3l-9.77-.31v-3.62Zm0 4v2.71l-9.77.32v-3.39Zm0 3.76V40l-9.77 1v-4.48Zm0 4.79v3.76l-9.77 1.68V42Zm0 4.83v3.53l-9.77 2.38V47.5Zm0 4.61v4l-9.77 3.11V52.8Zm.58 4.84h3.44l-6.81 2.42h-4.24Zm6.44 0h3.85l-6.06 2.42h-4.6Zm6.55 0h4l-5.29 2.42h-4.76Zm6.41 0h4.43l-4.48 2.41h-5.24Zm6.55 0h4.46l-3.73 2.41h-5.21Zm6.3 0h4.91l-3 2.41h-5.61Zm1.55-1 3.54-2.29h3.9l-2.84 2.3Zm5.1-3.3 2.79-1.8h3.05l-2.25 1.82Zm4.37-2.82 3.2-2.2h2.05L184 48Zm2.91-3.2h-1.24l3.22-1.74h.69Zm2.53-17-3-1H185l2.39 1Zm-2.61 3.26v.44l-1.89-.17v-.58Zm-3.18 12h.25L177.33 45h-.79ZM176 24.52l-2.42-.79h3.26l2 .8Zm-5.52-1.79-2.09-.68h4.25l1.7.68Zm-5.17-1.68-4.37-1.41h5.72l3.49 1.4Zm-3.25 0h-4.6l-5.25-1.43h5.47Zm-8.39 0h-3.07l-6.2-1.45h3.94Zm-7.42 0h-2.95l-7.11-1.47H140Zm-7.88 0h-1.85l-8-1.48h2.71Zm-7.33 0h-3.14l-9.24-1.51h4.24Zm-4.37.8v4.61l-13-1.19v-5.54Zm0 5.61v3.64l-13-.42v-4.4Zm0 4.63v3.46l-13 .43v-4.3Zm0 4.46v4.53l-13 1.35V37Zm0 5.54v4.55l-13 2.25v-5.44Zm0 5.57V52l-13 3.17v-5.26Zm0 5.38v4.78l-13 4.16v-5.76Zm.58 5.65h4.57L122 62.15h-5.71Zm7.58 0h4.91L131 62.13h-6Zm7.62 0h5.07l-7.57 3.46h-6.15Zm7.48 0h5.57l-6.5 3.4h-6.72Zm7.69 0h5.53l-5.32 3.44h-6.62Zm7.38 0h6L166.66 62h-7Zm7.56 0h6.43L175.74 62h-7.48Zm1.24-1 3-2.41h5.39l-2.24 2.4Zm4.2-3.5 2.85-2.31h4.39l-2.24 2.3Zm4.1-3.32 2.22-1.87h3.54l-1.73 1.85Zm3.48-2.87 2.48-2h2.57l-1.83 2Zm-.39-22-1.19-.43h2.81l.88.47Zm-3.68-1.48-2-.81h3.9l1.57.84ZM177 22.74l-1.71-.69h4.94l1.29.69Zm-4.2-1.69-3.47-1.39h6.43l2.59 1.38Zm-6-2.4-4.47-1.79h8.14l3.37 1.8Zm-2.7 0h-6.32l-5.51-1.79h7.37Zm-9.59 0h-6.05L142 16.83h7Zm-9.87 0h-4.52l-7.53-1.77h5.54Zm-8.92 0h-4.47l-8.55-1.85h5.52Zm-9.46 0H123l-9.52-1.77h4.26Zm-8.83 0h-4.86l-10.87-1.88h6.24Zm-4.86 1v5.62l-16.46-1.5v-6.9Zm0 6.62v4.46l-16.46-.53v-5.51Zm0 5.46V36l-16.46.54v-5.42Zm0 5.38v5.51l-16.45 1.63v-6.68Zm0 6.52v5.52L96.12 51.9v-6.65Zm0 6.53v5.35l-16.46 4v-6.59Zm0 6.38v5.85l-16.45 5.17v-7.09Zm.58 6.71h6l-12.8 4.56h-7.49Zm9 0h6.31l-11.39 4.55h-7.72Zm9 0h6.47l-10 4.55h-7.9Zm8.89 0h7l-8.46 4.55h-8.55Zm9.17 0h6.94l-7 4.54h-8.37Zm8.78 0h7.35l-5.61 4.54h-8.76Zm9 0h7.79l-4.22 4.54h-9.18Zm9.16 0h8.18l-2.82 4.53h-9.58Zm.93-1 3.2-3.44h6.82L185 62Zm4.13-4.44 2.23-2.4h5.78l-1.5 2.4Zm3.17-3.41 2.16-2.32h4.76l-1.46 2.34Zm3.1-3.33 1.76-2.07h3.9L192 50.82Zm2.7-3.07 1.82-2h3l-1.19 1.9Zm1.38-3h-2.26l2.14-1.74h1.73Zm-.48-2.74h-.89l1.44-.93h.6Zm-1.18-16.2-.9-.48h3.82l.6.49Zm-2.8-1.49-1.58-.85h5l1.06.87Zm-3.47-1.85-1.3-.69h6.12l.86.7Zm-3.17-1.69-2.59-1.38h7.71l1.65 1.36ZM176 18.67l-3.38-1.8h9.54l2.2 1.8Zm-5.26-2.8-3.2-1.7h11.3l2.1 1.72Zm-2.13 0h-8.76l-4.2-1.68h9.76Zm-11.45 0h-8l-5.16-1.7h9Zm-11.23 0h-7.65l-6.05-1.65h8.57Zm-11.47 0h-6.11l-6.93-1.64h7ZM124 15.8h-6.13L110 14.18h7.06Zm-11.1 0H108l-8.64-1.6h5.68Zm-10.35 0h-7l-9.69-1.58h8.07Zm-7.39.94v6.86l-16.6-1.51v-7.91h1.09Zm0 7.89v5.49l-16.56-.53V23.1Zm0 6.49v5.52l-16.56.55v-6.6Zm0 6.52v6.74l-16.6 1.68v-7.9Zm0 7.74v6.72l-16.6 2.82v-7.85Zm0 7.74v6.59l-16.56 4v-7.77Zm0 7.62v7.17l-16.6 5.25v-8.42Zm.58 8h7.88L90.71 73.3H81.3Zm10.88 0h8l-11.44 4.57h-9.47Zm10.75 0h8.21l-10 4.56h-9.65Zm10.63 0h8.89l-8.47 4.55h-10.41Zm11 0h8.68l-7 4.54h-10.12Zm10.53 0h9.07l-5.6 4.38h-10.49Zm10.67 0h9.49l-4.21 4.52H154.6Zm10.85 0h9.89l-2.81 4.52h-11.28Zm11.07 0h9.85l-1.4 4.5h-11.26Zm.63-1 2.79-4.74h8.12l-1.41 4.54Zm3.42-5.74 2.14-3.43H195L194 62Zm2.76-4.43 1.5-2.4h5.66l-.74 2.4Zm2.12-3.4 1.47-2.35h4.62l-.74 2.36Zm2.09-3.35 1.18-1.9h3.73l-.6 1.92Zm2.44-5.82h-2.65l1.61-1.74h2.12Zm-1.48-2.74h-1.43l1.15-.93H195ZM193.49 28l-1.67-.89h2.84l1 .86Zm1.51-1.86-.61-.5h3.08l.32.51Zm-1.84-1.51-1.07-.88h4.18l.57.89Zm-2.29-1.88-.86-.7h5.19l.45.7Zm-2.08-1.7-1.65-1.36h6.59l.84 1.34Zm-2.88-2.36-2.2-1.8H192l1.13 1.81Zm-3.42-2.8-2.1-1.73h9.86l1.09 1.74Zm-3.32-2.73L176 10.51h12.05l1.64 2.62Zm-1.58 0h-12l-5.07-2.71h13.79Zm-14.08 0h-10.36l-6.83-2.75h12.12Zm-13.06 0H141l-8.6-2.79h11.26Zm-12.77 0h-9.14l-10.34-2.82h10.87Zm-12.93 0h-7.59L105 10.31h9.34Zm-11.94 0h-7.66L91.1 10.27h9.52Zm-12.59 0H94l-15.91-2.93h8Zm-11.72 0h-8.77l-18.35-3h11.14Zm-11 .66V22l-22.56-2.06v-9.78h.13Zm0 9.17v6.52l-22.56-.71V21Zm0 7.52v6.66l-22.62.75V29.8Zm0 7.66v8L54.94 48.5v-9.56Zm0 9v7.92L54.94 59v-9.49Zm0 8.94V64l-22.62 5.5V60Zm0 8.87v8.49l-22.56 7.22V70.48Zm.58 9.36h9.73l-18.06 6.42-12 .09Zm12.74 0h9.78l-16 6.39-11.9.08Zm12.5 0h10l-13.81 6.21-12.07.09Zm12.39 0h10.74l-11.55 6.11-12.9.09Zm12.87 0h10.44l-9.55 6.18-12.47-.09Zm12.29 0h10.8l-7.56 6.12-12.78.09Zm12.4 0h11.19l-5.63 6-13.12.09Zm12.56 0h11.58l-3.73 6-13.48.1Zm12.76 0h11.58l-1.85 5.92-13.39-.26Zm12.62 0L203 74v5.86l-13.52.09Zm.32-1 1.4-4.5h10V73Zm1.71-5.51 1.47-4.83H203v4.53ZM195 62l1.06-3.42h6.87V62Zm1.37-4.42.75-2.4H203v2.39Zm1.06-3.4.74-2.37h4.76v2.39Zm1.05-3.37.6-1.92h3.85v1.94Zm.91-2.93L200 46h3v1.79Zm1.28-7.5h-1l.77-1.23h.65Zm-.31 1-.29.93h-1.63l.58-.93Zm-1.9-1h-1.22l1.15-1.23h.84Zm-.62 1-.58.93h-1.81l.86-.93Zm-2-1H195l1.52-1.23h.47Zm1-11.36.84.69h-1.1l-1.3-.69Zm.36-1-1-.84h2.18l.62.82Zm2.3 1 .44.69h-.68l-.76-.71Zm-.5-2.84-.33-.52h4.07v.53Zm-1-1.52-.56-.9h5.26v.93Zm-1.19-1.9-.45-.71h6.34v.71Zm-1.07-1.71-.84-1.34h7.8v1.32Zm-1.47-2.34-1.14-1.81h9.57v1.82Zm-1.77-2.81-1.09-1.74h11.29v1.75Zm-1.72-2.74-1.64-2.62h13.56v2.58Zm-5.6-7 2.15 3.42h-12.65l-4.18-3.42ZM169 6.07l4.18 3.43h-14.45L152.26 6ZM150.12 6l6.43 3.42h-12.74L135.27 6Zm-17.55 0 8.53 3.43h-11.87L118.66 6Zm-17.18 0L126 9.36h-11.46l-12.6-3.46Zm-17.28-.11 12.55 3.43h-9.92L86.21 5.86Zm-16.31 0 14.53 3.39H86.2L69.61 5.82Zm-17.19 0 16.58 3.35h-8.58L54.1 5.78Zm-16.07 0L67 9.2H55.11l-21-3.43Zm-20.15 0L53.94 10v9.87l-25.55-2.34Zm0 12.73 25.55 2.33v7.91L28.39 28Zm0 10.42 25.55.82V38l-25.55.85Zm0 10.88L53.94 39v9.6l-25.55 2.64Zm0 12.42 25.55-2.64v9.55l-25.55 4.3Zm0 12.32 25.55-4.4v9.44l-25.55 6.21Zm0 12.37 25.55-6.22V81l-25.55 8.15Zm17.52 12.3-14.75.08 23.36-7.45 12.36-.09Zm17.53-.08-14.5.07 21-7.47 12.23-.08Zm17.43-.09-14.71.07 18.73-7.48 12.4-.09ZM99 89l-15.73.08 16.43-7.51 13.3-.11Zm17.28-.09-15.12.09 14-7.53 12.84-.12Zm17.27-.08-15.41.07 11.65-7.54 13.1-.09Zm17.32-.09-15.72.08 9.35-7.56 13.42-.1Zm17.48-.09-16.1.08 7.05-7.58 13.81-.15Zm17.32-.08-16.14.08L174.3 81l13.77-.1Zm1.05 0 2.37-7.62 13.91-.12v7.63ZM197 36.07h-1.54V33h9.83v3.04Zm6.93 3h.63l.39 1.23h-1Zm0 2.23h1.33l.3.93H204Zm0 1.93h1.94l.55 1.74H204ZM204 46h2.8l.55 1.73H204Zm3.66 2.73.62 2H204v-2Zm.93 3 .76 2.41H204v-2.39Zm1.07 3.4.75 2.4H204v-2.39Zm-5.66 3.4h6.73l1.07 3.42-7.8.05Zm0 4.47h8.12l1.42 4.53H204Zm0 5.53h9.85l1.41 4.48L204 73Zm0 5.47h11.57l1.82 5.79-13.39.03Zm0 14.48v-7.66l13.71-.1 2.4 7.65Zm17.16-.08-2.41-7.65 13.53-.1 4.83 7.67Zm17.13-.09-4.83-7.67h7.94l6.32 7.68Zm10-.94-6.14-7.46v-6.2l6.08 6.29Zm0-8.82-6.14-6.24v-9.7l6.14 4.49Zm0-12.69-6.14-4.48v-9.71l6.14 2.74Zm0-12.52-6.14-2.74V40.46l6.14.95Zm0-12.91-6.14-.95V29.29l6.14-.84Zm0-13-6.14.84V18.16l6.14-2.63Zm0-13-6.14 2.63v-6.55l6.14-3.83Z"/>
    </g>
  </g>
</svg>
