<svg width="15" height="20" viewBox="0 0 15 20" fill="none" xmlns="http://www.w3.org/2000/svg">
<path fill-rule="evenodd" clip-rule="evenodd" d="M4.74366 1.87526C5.47767 1.22741 6.44381 0.833374 7.49996 0.833374C9.80114 0.833374 11.6666 2.69885 11.6666 5.00004V7.50004H12.5C13.8807 7.50004 15 8.61933 15 10V16.6667C15 18.0474 13.8807 19.1667 12.5 19.1667H2.5C1.11929 19.1667 0 18.0474 0 16.6667V10C0 8.61933 1.11929 7.50004 2.5 7.50004H9.99996V5.00004C9.99996 3.61933 8.88067 2.50004 7.49996 2.50004C6.86536 2.50004 6.28776 2.7354 5.84655 3.12482C5.50149 3.42938 4.97488 3.39654 4.67032 3.05149C4.36577 2.70643 4.3986 2.17981 4.74366 1.87526ZM9.16667 11.6667C9.16667 12.2836 8.8315 12.8222 8.33333 13.1104V15C8.33333 15.4603 7.96024 15.8334 7.5 15.8334C7.03976 15.8334 6.66667 15.4603 6.66667 15V13.1104C6.1685 12.8222 5.83333 12.2836 5.83333 11.6667C5.83333 10.7462 6.57953 10 7.5 10C8.42047 10 9.16667 10.7462 9.16667 11.6667Z" fill="white"/>
</svg>
