<svg fill="none" height="98" viewBox="0 0 110 98" width="110" xmlns="http://www.w3.org/2000/svg" xmlns:xlink="http://www.w3.org/1999/xlink"><linearGradient id="a" gradientUnits="userSpaceOnUse" x1="52.1026" x2="52.4931" y1="14.4511" y2="18.6045"><stop offset="0" stop-color="#66bcff"/><stop offset="1" stop-color="#3f99f2"/></linearGradient><linearGradient id="b"><stop offset="0" stop-color="#ffe75c"/><stop offset="1" stop-color="#ffc619"/></linearGradient><linearGradient id="c" gradientUnits="userSpaceOnUse" x1="79.041" x2="80.1221" xlink:href="#b" y1="27.9007" y2="39.3984"/><linearGradient id="d"><stop offset="0" stop-color="#ffe75c"/><stop offset="1" stop-color="#fff7de"/></linearGradient><linearGradient id="e" gradientUnits="userSpaceOnUse" x1="85.698" x2="80.2415" xlink:href="#d" y1="32.6405" y2="28.6989"/><linearGradient id="f" gradientUnits="userSpaceOnUse" x1="30.3966" x2="31.4344" xlink:href="#b" y1="36.5103" y2="48.0589"/><linearGradient id="g" gradientUnits="userSpaceOnUse" x1="21.1405" x2="25.7331" xlink:href="#d" y1="37.723" y2="32.8333"/><linearGradient id="h" gradientUnits="userSpaceOnUse" x1="48.0673" x2="61.5969" y1="21.9499" y2="57.945"><stop offset="0" stop-color="#ffc618"/><stop offset=".31" stop-color="#ffad19"/><stop offset="1" stop-color="#ff7d12"/></linearGradient><linearGradient id="i" gradientUnits="userSpaceOnUse" x1="56.3287" x2="55.8704" y1="59.2534" y2="54.3797"><stop offset=".02" stop-color="#ffb619"/><stop offset="1" stop-color="#ffc619"/></linearGradient><linearGradient id="j"><stop offset="0" stop-color="#8cd9ff"/><stop offset="1" stop-color="#66bcff"/></linearGradient><linearGradient id="k" gradientUnits="userSpaceOnUse" x1="13.5314" x2="44.3873" xlink:href="#j" y1="66.9889" y2="66.9889"/><linearGradient id="l" gradientUnits="userSpaceOnUse" x1="63.1952" x2="88.248" xlink:href="#j" y1="78.5768" y2="78.5768"/><linearGradient id="m" gradientUnits="userSpaceOnUse" x1="54.6518" x2="54.6518" y1="66.3616" y2="97.8693"><stop offset="0" stop-color="#ff5d12"/><stop offset=".5" stop-color="#ff7d12"/><stop offset=".99" stop-color="#ffc619"/></linearGradient><linearGradient id="n" gradientUnits="userSpaceOnUse" x1="54.4933" x2="54.4933" y1="72.4725" y2="81.8446"><stop offset=".26" stop-color="#ffb619"/><stop offset="1" stop-color="#ffc619"/></linearGradient><clipPath id="o"><path d="m0 0h110v99h-110z"/></clipPath><mask id="p" height="29" maskUnits="userSpaceOnUse" width="26" x="63" y="64"><path d="m84.1942 92.957c-.7579.0012-1.501-.2101-2.1446-.6098-.6436-.3998-1.1619-.9719-1.4958-1.6512-2.3892-4.8839-10.6326-16.4718-15.1959-18.8685-.9504-.4999-1.6631-1.3564-1.9811-2.381-.1574-.5073-.2133-1.0406-.1643-1.5695.049-.5288.2018-1.0428.4498-1.5127.2479-.4699.5862-.8864.9954-1.2258.4091-.3394.8813-.595 1.3894-.7522 1.0262-.3175 2.1367-.215 3.0872.285 7.1902 3.776 16.4187 17.7888 18.6834 22.4748.4708.9641.5391 2.0753.1898 3.0896-.3492 1.0143-1.0875 1.8488-2.0525 2.32-.5482.2673-1.1507.4046-1.7608.4013z" fill="url(#l)"/></mask><mask id="q" height="20" maskUnits="userSpaceOnUse" width="32" x="13" y="57"><path d="m30.2615 76.8754c-1.9724.0147-3.9272-.3699-5.7466-1.1306-4.6538-1.9558-8.266-6.3931-10.7571-13.1932-.1818-.4996-.2632-1.03-.2397-1.561.0236-.531.1516-1.0522.3769-1.5338.455-.9726 1.2783-1.7249 2.2888-2.0915 1.0106-.3665 2.1256-.3172 3.0998.137.9741.4542 1.7277 1.2762 2.0948 2.2852 1.6985 4.5956 3.7763 7.4558 6.2618 8.4789 3.3517 1.4075 7.5356-.4918 10.5986-1.8767l.4076-.1865c.4884-.2588 1.0247-.4149 1.5758-.4588.5512-.0439 1.1055.0254 1.6288.2036s1.0044.4616 1.4138.8326.7384.8219.9665 1.3247c.2282.5028.3508 1.0469.3602 1.5989.0095.5519-.0944 1.0999-.3052 1.6102-.2109.5103-.5242.9721-.9207 1.3569-.3964.3848-.8676.6844-1.3845.8803l-.3963.1809c-2.7459 1.2888-6.8336 3.1429-11.3233 3.1429z" fill="url(#k)"/></mask><g clip-path="url(#o)"><path d="m102.385 0h-94.77009c-4.2056 0-7.61491 3.40388-7.61491 7.60278v57.08582c0 4.1989 3.40931 7.6028 7.61491 7.6028h94.77009c4.206 0 7.615-3.4039 7.615-7.6028v-57.08582c0-4.1989-3.409-7.60278-7.615-7.60278z" fill="#5865f2"/><path d="m84.2791 25.2668-14.2503-15.9743h-17.0359v-.52004h17.2737l.0736.08479 14.3296 16.06475z" fill="#808aff"/><path d="m53.7856 7.57422h6.7939c.2102 0 .4118.08338.5605.23179.1486.14841.2322.34969.2322.55958v.67831h-8.3793v-.67831c0-.20989.0835-.41117.2322-.55958.1486-.14841.3502-.23179.5605-.23179z" fill="#808aff"/><path d="m102.362 25.092c.002 2.9831-.744 5.9191-2.171 8.5402-1.4266 2.621-3.4881 4.8436-5.9962 6.4648-2.5081 1.6213-5.3829 2.5895-8.3621 2.8164-2.9792.227-5.9679-.2947-8.6933-1.5173-2.7254-1.2225-5.1007-3.1071-6.9092-5.4818-1.8084-2.3746-2.9924-5.1636-3.4439-8.1125-.4514-2.9488-.156-5.9636.8594-8.7691 1.0154-2.8056 2.7184-5.3126 4.9536-7.2922.7391-.6567 1.5306-1.2522 2.3665-1.78058 2.752-1.72464 5.9232-2.66668 9.1719-2.72456h.334c2.3494-.00149 4.6761.45933 6.847 1.35611 2.1709.89679 4.1435 2.21193 5.805 3.87033 1.6616 1.6583 2.9793 3.6274 3.8783 5.7946.899 2.1671 1.361 4.4899 1.36 6.8356z" fill="#808aff"/><path d="m101.23 18.8345-16.7583 6.2575v-17.85664c3.6447-.00311 7.2032 1.10628 10.1985 3.17944 2.9953 2.0732 5.2842 5.011 6.5598 8.4197z" fill="#fff" opacity=".2"/><path d="m84.4717 7.23535v17.85665l-11.8894-13.3515c.7391-.6567 1.5306-1.2522 2.3665-1.78058 2.752-1.72465 5.9232-2.66668 9.1719-2.72457z" fill="#fff" opacity=".4"/><g fill="#808aff"><path d="m17.8908 33.1865h-9.16619c-.60035 0-1.08704.4859-1.08704 1.0853v29.7045c0 .5994.48669 1.0853 1.08704 1.0853h9.16619c.6004 0 1.087-.4859 1.087-1.0853v-29.7045c0-.5994-.4866-1.0853-1.087-1.0853z"/><path d="m44.8289 43.4404h-9.1662c-.6003 0-1.087.4859-1.087 1.0853v19.4507c0 .5994.4867 1.0853 1.087 1.0853h9.1662c.6004 0 1.087-.4859 1.087-1.0853v-19.4507c0-.5994-.4866-1.0853-1.087-1.0853z"/><path d="m71.7726 43.4404h-9.1662c-.6003 0-1.087.4859-1.087 1.0853v19.4507c0 .5994.4867 1.0853 1.087 1.0853h9.1662c.6004 0 1.0871-.4859 1.0871-1.0853v-19.4507c0-.5994-.4867-1.0853-1.0871-1.0853z"/><path d="m85.2416 49.3926h-9.1662c-.6003 0-1.087.4859-1.087 1.0853v13.4984c0 .5994.4867 1.0853 1.087 1.0853h9.1662c.6004 0 1.0871-.4859 1.0871-1.0853v-13.4984c0-.5994-.4867-1.0853-1.0871-1.0853z"/><path d="m31.3598 17.8682h-9.1662c-.6003 0-1.087.4859-1.087 1.0853v45.0174c0 .5994.4867 1.0853 1.087 1.0853h9.1662c.6004 0 1.087-.4859 1.087-1.0853v-45.0174c0-.5994-.4866-1.0853-1.087-1.0853z"/><path d="m21.9672 7.57422h-13.40112c-.5128 0-.92851.41504-.92851.92703v1.68445c0 .512.41571.9271.92851.9271h13.40112c.5128 0 .9285-.4151.9285-.9271v-1.68445c0-.51199-.4157-.92703-.9285-.92703z"/><path d="m32.7866 7.57422h-7.196c-.3001 0-.5435.24295-.5435.54265v1.13618c0 .2997.2434.54265.5435.54265h7.196c.3002 0 .5435-.24295.5435-.54265v-1.13618c0-.2997-.2433-.54265-.5435-.54265z"/><path d="m99.3675 65.0559c.8255 0 1.4945-.6681 1.4945-1.4923s-.669-1.4923-1.4945-1.4923-1.4947.6681-1.4947 1.4923.6692 1.4923 1.4947 1.4923z"/><path d="m95.1608 65.0559c.8255 0 1.4947-.6681 1.4947-1.4923s-.6692-1.4923-1.4947-1.4923-1.4947.6681-1.4947 1.4923.6692 1.4923 1.4947 1.4923z"/><path d="m90.9485 65.0559c.8255 0 1.4947-.6681 1.4947-1.4923s-.6692-1.4923-1.4947-1.4923-1.4946.6681-1.4946 1.4923.6691 1.4923 1.4946 1.4923z"/><path d="m58.3035 43.4404h-9.1662c-.6003 0-1.087.4859-1.087 1.0853v19.4507c0 .5994.4867 1.0853 1.087 1.0853h9.1662c.6004 0 1.0871-.4859 1.0871-1.0853v-19.4507c0-.5994-.4867-1.0853-1.0871-1.0853z"/></g><path d="m62.0685 20.3098-18.6381 1.7353.5266-3.2615c.2547-1.5884 2.2137-2.9168 4.6991-3.1485l7.0771-.667c2.4854-.2374 4.6538.7065 5.2087 2.2214z" fill="url(#a)"/><path d="m86.3401 33.7686.4755 4.9969c.1534 1.5126-.2249 3.0314-1.07 4.296-.5002.7975-1.1726 1.4733-1.968 1.9779-.7954.5047-1.6937.8254-2.6293.9389-3.9065.3674-7.4563-3.3916-7.9263-8.4789-.4699-5.0874 2.3043-9.4117 6.2278-9.7791.9399-.0654 1.8824.0804 2.7584.4267.8759.3463 1.663.8843 2.3032 1.5744 1.0624 1.0957 1.7091 2.5269 1.8287 4.0472z" fill="url(#c)"/><path d="m85.27 31.9599c-.5769-.9984-1.3045-1.9021-2.1571-2.6793-.1433-.13-.3116-.2296-.4946-.2928s-.3769-.0887-.5701-.075-.3815.0664-.5537.1549-.3246.2109-.4481.3598l-.0283.034c-.101.1242-.1712.2705-.205.4269-.0337.1565-.03.3187.0108.4734.0408.1548.1176.2977.2241.4173.1066.1195.2399.2123.3891.2707 1.0672.4027 2.0688.9608 2.9724 1.6563.108.0853.2435.1283.3811.121.1376-.0072.2678-.0644.3662-.1606.0976-.0867.1622-.2044.1828-.3331.0207-.1288-.0039-.2607-.0696-.3735z" fill="url(#e)"/><path d="m22.3804 40.9872.47 4.9969c.1333 1.5158.7897 2.9384 1.857 4.0247.6417.6878 1.4291 1.2238 2.3048 1.569.8756.3452 1.8174.4909 2.7567.4264 3.9008-.3675 6.6807-4.7482 6.2278-9.7847s-4.0254-8.8181-7.9263-8.4507c-.9352.1124-1.8333.4322-2.6288.9359-.7954.5037-1.468 1.1785-1.9685 1.9752-.8556 1.2648-1.2421 2.7883-1.0927 4.3073z" fill="url(#f)"/><path d="m23.0938 39.0027c.3855-1.0849.9313-2.1061 1.6192-3.0298.1164-.155.2631-.2849.4313-.3816.1681-.0967.3542-.1583.547-.181.1927-.0228.388-.0062.5741.0488.1861.0549.3591.147.5085.2707l.0283.0283c.1229.1027.2199.2329.283.3801.063.1471.0904.3071.08.4668-.0105.1597-.0586.3147-.1404.4524-.0817.1377-.1949.2542-.3302.34-.9729.5927-1.8541 1.324-2.6157 2.1706-.0908.1033-.2161.17-.3526.1877-.1366.0177-.2748-.0149-.389-.0916-.1096-.0665-.1934-.1681-.2376-.2882s-.0463-.2517-.0059-.3732z" fill="url(#g)"/><path d="m80.803 26.9738c-.4314-1.8131-1.3627-3.4694-2.6886-4.7812-1.3259-1.3117-2.9932-2.2265-4.8131-2.6407-13.7341-3.1741-28.1285-1.8236-41.0299 3.8495-1.7186.7419-3.1934 1.9518-4.2557 3.4912s-1.6692 3.3462-1.7513 5.2138c-.2643 6.1611.3206 12.3293 1.7381 18.3315.4307 1.8134 1.3619 3.47 2.6879 4.7819 1.3259 1.3119 2.9936 2.2264 4.8138 2.64 6.829 1.5765 13.8674 2.048 20.8461 1.3962 6.9719-.6621 13.7932-2.431 20.2064-5.24 1.7141-.7473 3.1836-1.9599 4.2416-3.4998 1.0579-1.5399 1.6617-3.3453 1.7428-5.2109.1303-3.075.0509-6.1552-.2378-9.2194-.2933-3.0677-.7946-6.1121-1.5003-9.1121z" fill="url(#h)"/><path d="m48.2598 20.0669-.3906.1187-.3907.1074-.7813.2261-1.5626.4353-.7813.2148-.7587.2204c-.2547.0792-.5152.1414-.7756.2148l-.7757.2262-.8039.2148-.77.2261-.7813.2261-.7756.2317-1.5457.4466-.7813.2204-.3906.1187-.3963.1018c-.0773.0191-.159.0073-.2277-.0328-.0688-.0401-.1191-.1054-.1404-.182-.0158-.0663-.0095-.1359.0181-.1982.0277-.0623.075-.1138.1348-.1466.4869-.2487.9908-.4635 1.489-.6953l.753-.3165.77-.294c.5095-.1978 1.0304-.3674 1.5513-.5652.5209-.1979 1.0474-.3222 1.5739-.4749.5266-.1526 1.0588-.2826 1.5909-.407.5322-.1243 1.0701-.243 1.608-.3448l.8096-.1413.8096-.1243c.5661-.0679 1.087-.1414 1.6362-.1809.0687-.0032.136.0204.1878.0657.0517.0453.0838.1089.0896.1773.005.0598-.0109.1195-.0449.169-.0341.0494-.0842.0856-.1419.1024z" fill="#fff" opacity=".4489"/><path d="m74.1675 29.1166c-.2789-.9433-.8091-1.7933-1.534-2.4593-.7249-.6661-1.6173-1.1231-2.582-1.3223-11.2621-2.2943-22.9529-1.1985-33.5905 3.1485-.9164.3779-1.7117.9991-2.2996 1.7963-.5878.7972-.9458 1.7399-1.0351 2.7258-.4342 4.4041-.0699 8.8503 1.0757 13.1254.2498.9596.7625 1.8307 1.4806 2.5156.718.6849 1.6129 1.1566 2.5844 1.3621 5.6744 1.1889 11.4958 1.5166 17.268.9722 5.7691-.5433 11.4238-1.9476 16.7755-4.166.9161-.3849 1.7071-1.0163 2.2849-1.8237.5777-.8075.9196-1.7592.9875-2.7492.3156-4.4244-.1637-8.8695-1.4154-13.1254z" fill="#ed5b00"/><path d="m74.5581 30.7556c-.2688-.9542-.7957-1.8161-1.5227-2.4911-.7271-.6751-1.6262-1.1372-2.5989-1.3358-11.433-2.3337-23.3028-1.2201-34.1001 3.1994-.9182.3753-1.7152.9958-2.3034 1.7935-.5883.7977-.9451 1.7418-1.0313 2.7286-.3801 4.4106.0419 8.8535 1.2456 13.1141.2706.9533.798 1.8142 1.5247 2.489.7268.6747 1.625 1.1375 2.5969 1.3378 5.6861 1.1596 11.5129 1.472 17.2907.927 5.7756-.5375 11.4399-1.9242 16.8094-4.1151.9179-.3758 1.7145-.9964 2.3026-1.794.5882-.7976.9453-1.7414 1.0321-2.7281.201-2.1999.201-4.4136 0-6.6135-.2192-2.2035-.636-4.3828-1.2456-6.5118z" fill="#000"/><path d="m63.1613 57.7189.2774-2.945c.0188-.2061-.0108-.4137-.0863-.6064-.0754-.1927-.1948-.3652-.3486-.504-.1537-.1387-.3377-.2398-.5374-.2953-.1996-.0555-.4095-.0638-.6129-.0244-1.9769.3908-3.9724.6813-5.9787.8705-2.0116.1912-4.0317.278-6.0523.26-.2068-.0007-.411.0465-.5964.1379s-.347.2245-.4722.3889c-.1251.1644-.2103.3555-.2489.5584-.0386.2028-.0294.4119.0266.6106l.821 2.8263c.0431.1513.1343.2844.26.3793.1256.0948.2788.1462.4364.1464 2.1061 0 4.2066-.0942 6.3014-.2826 2.0948-.1885 4.1707-.4862 6.2278-.8932.1514-.029.2896-.1055.3944-.2183.1049-.1129.171-.2562.1887-.4091z" fill="url(#i)"/><path d="m42.6887 40.3992c1.1757 0 2.1288-.9516 2.1288-2.1254s-.9531-2.1254-2.1288-2.1254-2.1288.9516-2.1288 2.1254.9531 2.1254 2.1288 2.1254z" fill="#57f287"/><path d="m64.271 37.8777c1.1757 0 2.1288-.9515 2.1288-2.1254 0-1.1738-.9531-2.1253-2.1288-2.1253s-2.1288.9515-2.1288 2.1253c0 1.1739.9531 2.1254 2.1288 2.1254z" fill="#57f287"/><path d="m58.581 41.2021h-.1925c-2.9985-.0006-5.9863.3561-8.9001 1.0627.1868 1.6336 2.3779 2.719 4.8917 2.425 2.5137-.2939 4.3934-1.854 4.2009-3.4877z" fill="#57f287"/><path d="m88.633 95.6932c-.1283-.001-.2548-.0304-.3704-.0861-.1155-.0557-.2172-.1364-.2977-.2361-1.143-1.5111-2.0339-3.1965-2.6383-4.9913-.0456-.1086-.0682-.2255-.0664-.3433.0019-.1177.0281-.2338.0771-.341.049-.1071.1197-.203.2076-.2816.0879-.0785.1911-.1381.3032-.1748.1121-.0368.2306-.05.348-.0389.1174.0112.2313.0465.3344.1038.1031.0572.1932.1351.2647.2288.0715.0938.1228.2012.1506.3157.5413 1.6027 1.3365 3.1084 2.3552 4.4599.1001.1256.1627.2768.1806.4363s-.0096.3208-.0794.4654-.1789.2666-.315.3521c-.136.0855-.2935.1309-.4542.1311z" fill="#000"/><path d="m90.5863 93.0758c-.0824.0003-.1643-.0112-.2435-.0339-1.8057-.5893-3.5036-1.4675-5.0275-2.6002-.1622-.1424-.2644-.3409-.286-.5554-.0216-.2146.0389-.4294.1694-.6012.1306-.1719.3214-.288.5342-.3251.2127-.0371.4317.0076.6128.1251 1.3596 1.0072 2.8714 1.7915 4.4784 2.3232.1933.0607.3587.188.4667.3592.108.1711.1516.375.123.5753-.0285.2003-.1274.3839-.279.5182-.1515.1342-.3459.2104-.5485.2148z" fill="#000"/><path d="m85.3322 96.6037c-.1909.0002-.3763-.0638-.5263-.1818-.15-.1179-.2558-.2829-.3003-.4682-.405-1.8558-.5026-3.7653-.2887-5.6526.027-.2249.1424-.4299.3208-.5698.1783-.1399.4051-.2034.6303-.1764s.4305.1422.5707.3203c.1401.1781.2037.4045.1766.6294-.1823 1.6814-.0983 3.3811.2492 5.0364.0276.1248.0272.2542-.0012.3788-.0285.1247-.0842.2415-.1632.342-.0791.1005-.1795.1823-.294.2395s-.2403.0883-.3682.0911z" fill="#000"/><path d="m30.2615 76.8754c-1.9724.0147-3.9272-.3699-5.7466-1.1306-4.6538-1.9558-8.266-6.3931-10.7571-13.1932-.1818-.4996-.2632-1.03-.2397-1.561.0236-.531.1516-1.0522.3769-1.5338.455-.9726 1.2783-1.7249 2.2888-2.0915 1.0106-.3665 2.1256-.3172 3.0998.137.9741.4542 1.7277 1.2762 2.0948 2.2852 1.6985 4.5956 3.7763 7.4558 6.2618 8.4789 3.3517 1.4075 7.5356-.4918 10.5986-1.8767l.4076-.1865c.4884-.2588 1.0247-.4149 1.5758-.4588.5512-.0439 1.1055.0254 1.6288.2036s1.0044.4616 1.4138.8326.7384.8219.9665 1.3247c.2282.5028.3508 1.0469.3602 1.5989.0095.5519-.0944 1.0999-.3052 1.6102-.2109.5103-.5242.9721-.9207 1.3569-.3964.3848-.8676.6844-1.3845.8803l-.3963.1809c-2.7459 1.2888-6.8336 3.1429-11.3233 3.1429z" fill="url(#k)"/><path d="m84.1942 92.957c-.7579.0012-1.501-.2101-2.1446-.6098-.6436-.3998-1.1619-.9719-1.4958-1.6512-2.3892-4.8839-10.6326-16.4718-15.1959-18.8685-.9504-.4999-1.6631-1.3564-1.9811-2.381-.1574-.5073-.2133-1.0406-.1643-1.5695.049-.5288.2018-1.0428.4498-1.5127.2479-.4699.5862-.8864.9954-1.2258.4091-.3394.8813-.595 1.3894-.7522 1.0262-.3175 2.1367-.215 3.0872.285 7.1902 3.776 16.4187 17.7888 18.6834 22.4748.4708.9641.5391 2.0753.1898 3.0896-.3492 1.0143-1.0875 1.8488-2.0525 2.32-.5482.2673-1.1507.4046-1.7608.4013z" fill="url(#l)"/><g fill="#3f99f2" mask="url(#p)"><path d="m68.9305 78.21c-.0939-.0017-.1865-.0229-.2718-.0622-.0759-.0362-.1439-.0871-.2001-.1497-.0562-.0625-.0995-.1356-.1273-.2149-.0279-.0793-.0398-.1632-.0351-.2472.0047-.0839.0259-.166.0624-.2417 1.4777-3.0863 7.4338-8.4789 12.0197-8.0832.1664.0171.3193.0992.4253.2284.1061.1291.1567.2949.1409.4612-.0186.1655-.1012.3172-.2302.4228-.1291.1056-.2943.1567-.4605.1424-3.6914-.3335-9.3078 4.3526-10.7572 7.3484-.0459.1136-.1238.2114-.2243.2817-.1005.0702-.2192.1098-.3418.114z"/><path d="m72.7634 83.5916c-.1446.0007-.2849-.0493-.3963-.1413-.1323-.1046-.2179-.2572-.238-.4244-.0202-.1673.0267-.3358.1304-.4687 2.9214-3.6855 8.6566-7.2636 12.7783-7.9758.0829-.0142.1678-.0118.2498.0068.082.0187.1595.0533.2281.1018.0686.0486.1269.1101.1717.1812s.0751.1503.0892.233c.0142.0828.0118.1675-.0068.2494-.0187.0818-.0534.1592-.102.2277s-.1103.1268-.1815.1715c-.0711.0447-.1505.075-.2334.0891-3.8555.667-9.2341 4.0303-11.9856 7.5067-.0609.075-.1377.1357-.2248.1778-.0871.042-.1824.0643-.2791.0652z"/><path d="m76.0698 90.1997c-.168-.0006-.3289-.0677-.4473-.1866-.0601-.0584-.1079-.1283-.1405-.2055s-.0494-.1601-.0494-.2439c0-.0837.0168-.1666.0494-.2438s.0804-.1471.1405-.2055c1.9511-1.9876 4.1221-3.7475 6.4712-5.2457 2.6044-1.5997 4.8747-2.3402 6.76-2.2045.0841.0057.1662.028.2417.0655.0754.0375.1427.0896.198.1531.0552.0636.0973.1374.1239.2173.0266.0798.0371.1641.0309.2481-.0172.165-.0986.3167-.2267.4225-.1282.1057-.2927.157-.4584.1427-3.5611-.2543-8.6679 3.4877-12.2631 7.0771-.1109.1227-.2651.1976-.4302.2092z"/></g><path d="m70.5724 66.8251c-.3589-1.2413-1.1125-2.3324-2.1472-3.1084-1.0346-.776-2.294-1.1948-3.5881-1.1933h-20.3819c-1.2936.0003-2.5521.4198-3.5864 1.1956-1.0343.7757-1.7883 1.8657-2.1488 3.1061l-4.5294 15.6408c-1.1106 3.836-.7409 7.9484 1.0361 11.5257.7503 1.5021 1.9044 2.7662 3.3333 3.6507 1.4288.8845 3.076 1.3545 4.7572 1.3575h22.6466c1.6812-.003 3.3284-.473 4.7572-1.3575 1.4289-.8845 2.583-2.1486 3.3333-3.6507 1.777-3.5773 2.1467-7.6897 1.036-11.5257z" fill="url(#m)"/><path d="m47.9711 66.0342h13.0218l2.6609 13.928c.0541.2847.0447.5778-.0276.8585-.0722.2807-.2055.542-.3904.7654-.1848.2234-.4167.4034-.6791.5272s-.5489.1884-.8392.1891h-14.4711c-.2917.0018-.5801-.061-.8446-.1837s-.4986-.3024-.6853-.5261-.3215-.4859-.3947-.7678-.083-.5764-.0287-.8626z" fill="url(#n)"/><path d="m33.7094 88.9102h41.8791v.0169l-.2321 1.3397v.0169h-41.4093z" fill="#ed5700"/><path d="m60.891 65.395.1245.6387h-13.0217l.1245-.6387c.0552-.2884.209-.5488.4352-.7364.2262-.1877.5106-.291.8047-.2924h10.3155c.2902.0065.5694.1122.7909.2995.2215.1872.372.4446.4264.7293z" fill="#ff9f19"/><path d="m16.7697 46.5944c-.0194-.1667-.0729-.3276-.1572-.4728-.0842-.1452-.1974-.2716-.3325-.3714s-.2893-.1708-.453-.2087c-.1638-.0379-.3335-.0419-.4988-.0117-.1654.0302-.3227.094-.4624.1874-.1396.0933-.2586.2143-.3495.3554-.091.1411-.152.2994-.1792.465-.0272.1655-.0202.3349.0208.4977.2491 1.3679.368 1.9445.6398 3.2389-3.1366.4522-4.5294 1.368-4.8124 2.7585-.1246.6557.3227 1.8428 1.3474 2.8941-.7133 2.5324 1.3022 3.7251 3.046 4.5843.2491.4975 1.4154.5653 2.7459.1639 1.3305-.4013 2.2646-1.2153 2.1684-1.7749.0223-.1385.0223-.2797 0-.4183-.0963-.3787-.1868-.7461-.2774-1.1305l-1.5683-6.4327c-.3737-1.7014-.5605-2.5832-.8776-4.3242z" fill="#000"/><g fill="#3f99f2" mask="url(#q)"><path d="m20.3424 76.4185c-.1511.0026-.2982-.0484-.4153-.1438-.117-.0954-.1965-.229-.2243-.3773s-.0021-.3016.0724-.4328c.0746-.1312.1933-.2318.335-.284 6.0636-2.3684 6.9582-8.1285 6.5902-9.8412-.0262-.0845-.0346-.1736-.0245-.2615s.0383-.1727.0829-.2492c.0447-.0764.1047-.1427.1764-.1948.0717-.052.1534-.0886.2399-.1075.0866-.0189.1762-.0196.263-.002.0869.0175.1692.0528.2417.1037.0724.051.1335.1164.1793.1921s.0754.1601.0868.2479c.5662 2.6171-1.0474 8.8294-7.3601 11.3052-.0775.0305-.1601.0458-.2434.0452z"/><path d="m30.6465 80.2679c-.1644.0009-.3227-.0619-.4416-.1752-.1189-.1206-.1856-.283-.1856-.4522 0-.1693.0667-.3317.1856-.4523 1.0417-1.0966 1.7947-3.6007 2.0269-6.7096.2038-2.8263-.085-5.6131-.7247-6.9019-.048-.1456-.042-.3037.0171-.4452.059-.1416.1671-.2572.3045-.3258.1373-.0686.2948-.0855.4437-.0477.1488.0377.2791.1277.367.2535 1.523 3.075 1.2512 12.1361-1.523 15.0586-.0607.0631-.1337.1132-.2145.1472s-.1677.0512-.2554.0506z"/><path d="m14.7543 68.3971c-.4077 0-.8266 0-1.2682-.0509-.0874-.0008-.1736-.0195-.2535-.0548-.0798-.0354-.1516-.0867-.2108-.1507-.0592-.0641-.1047-.1396-.1336-.2219s-.0406-.1697-.0344-.2566c.0062-.087.0302-.1718.0704-.2492.0403-.0774.096-.1457.1637-.2008s.146-.0957.2301-.1194.1721-.03.2587-.0185c5.0615.3562 8.4585-1.5092 10.106-5.5508.0281-.0824.0728-.1581.1312-.2226.0585-.0645.1295-.1164.2088-.1525s.1651-.0556.2522-.0574c.0871-.0019.1737.0141.2544.0469s.1538.0816.2149.1436.1089.1358.1404.2169c.0316.0811.0462.1678.043.2547s-.0242.1723-.0616.2508c-1.2116 2.9677-3.9179 6.3932-10.1117 6.3932z"/></g></g></svg>