<svg width="1128" height="670" viewBox="0 0 1128 670" fill="none" xmlns="http://www.w3.org/2000/svg">
<g clip-path="url(#clip0_919_65026)">
<mask id="mask0_919_65026" style="mask-type:alpha" maskUnits="userSpaceOnUse" x="0" y="0" width="1128" height="600">
<path d="M559.5 600H0V0H1128V600H559.5Z" fill="url(#paint0_linear_919_65026)"/>
</mask>
<g mask="url(#mask0_919_65026)">
<path d="M566.905 554.697C361.963 685.282 216.886 675.85 0 675.85V0H1128V451.568C922.733 451.568 752 436.759 566.905 554.697Z" fill="url(#paint1_linear_919_65026)"/>
<path d="M875.9 0H891.1L0 526.1V600V453.1L875.9 0Z" fill="url(#paint2_linear_919_65026)"/>
<path d="M1010.6 0H1027L1025.2 96.9L490.3 581.9L1010.6 0Z" fill="url(#paint3_linear_919_65026)"/>
<path opacity="0.43" d="M484.4 0L0 372.7V351.3C308.4 60.7 484.4 0 484.4 0Z" fill="url(#paint4_linear_919_65026)"/>
<g style="mix-blend-mode:screen" opacity="0.7">
<path d="M849.6 176L846.4 169.8L849.6 163.6L852.8 169.8L849.6 176Z" fill="white"/>
</g>
<path d="M1058.4 347L1055.8 341.9L1058.4 336.9L1061 341.9L1058.4 347Z" fill="#66BCFF"/>
<path d="M1128 33.7C1121.91 22.0961 1115.16 10.8449 1107.8 0L787.8 0C798.2 21.7 814.3 42.7 836.6 60.7C823.8 131.9 878.5 186.3 948.5 186.3C1005.7 228.3 1066.2 246.3 1121.1 210.9C1123.53 209.38 1125.83 207.675 1128 205.8V33.7Z" fill="#D0BAFF"/>
<path d="M1128 26.5C1123.3 17.8 1118.1 8.9 1112.3 0H790.6C801.808 19.3515 816.527 36.4435 834 50.4C821.2 121.7 875.9 176.1 945.9 176.1C1003.1 218 1070.2 242.8 1126.6 207L1128 206.1V26.5Z" fill="#C1A3FF"/>
<path d="M1128 26.5C1123.3 17.8 1118.1 8.9 1112.3 0H875.9C885.5 89 946.4 105.5 970 110.6C995.9 116.2 997.9 117 1003 137.3C1018.1 196.3 1079.8 233.7 1128 205.3V26.5Z" fill="#B095FF"/>
<path d="M116.4 410.4C87.9 414.8 82.4 416.6 65.4 404.3C56.4 397.8 28.3 380.4 0 379V660H247.6C244.3 636.1 234.2 612.1 218.8 589C283 563.9 288.6 503.7 251.1 454C213.6 404.3 152.4 405 116.4 410.4Z" fill="#CAB0FF"/>
<path d="M110.3 412.7C82.8 415.7 77.5 417.3 61.2 404.6C52.7 398.1 26.7 380.6 0 377.7V660H237.8C233.9 637.4 224.2 614.5 209.9 592.2C272.8 570.5 277.8 511.3 240.9 460.9C204 410.5 145 409 110.3 412.7Z" fill="#C09EFF"/>
<path d="M149.5 593.6C158.7 588.2 195.7 551 159.9 505.3C124.1 459.6 92 453 73.7 447.9C58.9 443.8 36.9 388.6 0 378.9V660H178.1C172.246 648.365 165.666 637.11 158.4 626.3C146.3 608.5 140.2 599 149.5 593.6Z" fill="#AD93FF"/>
<path d="M6.39991 -20C-19.3001 11.3 -32.1001 45.3 -31.0001 72C-29.2001 111.7 10.6999 113.6 44.4999 98.7C80.7999 115.3 126.1 92.3 150.5 36.7C192.2 32.9 210.7 4.3 219.4 -20H6.39991Z" fill="#D0BAFF"/>
<path d="M1.39999 -20C-22 10.2 -33.6 42.4 -32.5 68C-30.8 108 9.4 109.9 43.3 94.8C79.9 111.6 125.5 88.4 150 32.5C189.4 28.9 208.2 3.3 217.6 -20H1.39999Z" fill="#C1A3FF"/>
<path d="M1.39999 -20C-22 10.2 -33.6 42.4 -32.5 68C-32 81.6 -26.9 90.8 -19.2 96.4C1.7 109.9 39.5 95.1 72.1 43.6C106.8 55.9 140.8 23.4 155.1 -20L1.39999 -20Z" fill="#B095FF"/>
<path opacity="0.22" d="M686.7 484.4C714 469.8 721.1 457.7 721.5 451.5C721.9 445.3 711.8 440.8 693 453.3C692.329 453.681 691.572 453.888 690.8 453.9C667.2 452.7 651.6 468.9 645.2 478.3C635.2 493.1 645.9 506.3 686.7 484.4Z" fill="#C9FAFF"/>
<path d="M977.74 279.57C998.695 280.866 1008.48 275.216 1009.08 268.056C1009.68 260.897 1002.62 254.466 999.266 253.055C994.855 243.015 983.903 237.445 974.886 243.228C970.313 246.348 966.977 250.971 965.456 256.294C950.529 260.639 938.844 277.201 977.74 279.57Z" fill="#C1B0FF"/>
<path d="M977.739 279.57C997.702 280.747 1007.56 275.63 1008.91 268.963C1010.26 262.296 1004.07 259.979 996.469 260.212C992.618 247.54 980.315 250.832 968.362 259.928C961.396 261.062 950.27 263.791 951.474 269.678L951.824 270.284C953.208 274.681 960.469 278.456 977.739 279.57Z" fill="#B19CFF"/>
<path opacity="0.43" d="M362.3 413L385.9 442.1C389.7 447 394 451.5 398.2 456.2L410.7 470C414.8 474.5 413.9 482.2 408.8 487.1C403.7 492 397.9 492.2 393.7 489.1L392.4 488.2C387.145 484.426 382.165 480.282 377.5 475.8C375.2 473.7 373 471.4 370.7 469.1C368.4 466.8 366.5 464.3 364.3 461.8C360.3 456.8 356.4 451.7 352.8 446.3C349.07 440.961 345.696 435.383 342.7 429.6L342 428.3C339.2 422.8 341.7 415.3 347.6 411.5C353.5 407.7 359 408.9 362.3 413Z" fill="#FD96FF"/>
<path d="M633.2 141.3C634.028 141.3 634.7 140.628 634.7 139.8C634.7 138.972 634.028 138.3 633.2 138.3C632.372 138.3 631.7 138.972 631.7 139.8C631.7 140.628 632.372 141.3 633.2 141.3Z" fill="#B7CCFF"/>
<path d="M1085.6 433.4C1086.43 433.4 1087.1 432.728 1087.1 431.9C1087.1 431.072 1086.43 430.4 1085.6 430.4C1084.77 430.4 1084.1 431.072 1084.1 431.9C1084.1 432.728 1084.77 433.4 1085.6 433.4Z" fill="#B7CCFF"/>
<path d="M453.7 457.5C454.529 457.5 455.2 456.828 455.2 456C455.2 455.172 454.529 454.5 453.7 454.5C452.872 454.5 452.2 455.172 452.2 456C452.2 456.828 452.872 457.5 453.7 457.5Z" fill="#B7CCFF"/>
<path d="M723.5 283.7C725.102 283.7 726.4 282.402 726.4 280.8C726.4 279.198 725.102 277.9 723.5 277.9C721.898 277.9 720.6 279.198 720.6 280.8C720.6 282.402 721.898 283.7 723.5 283.7Z" fill="url(#paint5_linear_919_65026)"/>
<path d="M1035.4 275.2C1037 275.2 1038.3 273.902 1038.3 272.3C1038.3 270.698 1037 269.4 1035.4 269.4C1033.8 269.4 1032.5 270.698 1032.5 272.3C1032.5 273.902 1033.8 275.2 1035.4 275.2Z" fill="url(#paint6_linear_919_65026)"/>
<path d="M634.9 217.2C635.618 217.2 636.2 216.618 636.2 215.9C636.2 215.182 635.618 214.6 634.9 214.6C634.182 214.6 633.6 215.182 633.6 215.9C633.6 216.618 634.182 217.2 634.9 217.2Z" fill="#FFE75C"/>
<path d="M574.9 27.2C575.618 27.2 576.2 26.618 576.2 25.9C576.2 25.182 575.618 24.6 574.9 24.6C574.182 24.6 573.6 25.182 573.6 25.9C573.6 26.618 574.182 27.2 574.9 27.2Z" fill="#FFE75C"/>
<path d="M450.7 384.3C451.142 384.3 451.5 383.942 451.5 383.5C451.5 383.058 451.142 382.7 450.7 382.7C450.258 382.7 449.9 383.058 449.9 383.5C449.9 383.942 450.258 384.3 450.7 384.3Z" fill="#FFE75C"/>
<path d="M365.1 323.9C365.652 323.9 366.1 323.452 366.1 322.9C366.1 322.348 365.652 321.9 365.1 321.9C364.548 321.9 364.1 322.348 364.1 322.9C364.1 323.452 364.548 323.9 365.1 323.9Z" fill="#B7CCFF"/>
<path d="M263.9 214.5C264.452 214.5 264.9 214.052 264.9 213.5C264.9 212.948 264.452 212.5 263.9 212.5C263.348 212.5 262.9 212.948 262.9 213.5C262.9 214.052 263.348 214.5 263.9 214.5Z" fill="#B7CCFF"/>
<path d="M334.7 305.1C335.142 305.1 335.5 304.742 335.5 304.3C335.5 303.858 335.142 303.5 334.7 303.5C334.258 303.5 333.9 303.858 333.9 304.3C333.9 304.742 334.258 305.1 334.7 305.1Z" fill="#B7CCFF"/>
<path d="M480.8 156.4C481.131 156.4 481.4 156.131 481.4 155.8C481.4 155.469 481.131 155.2 480.8 155.2C480.469 155.2 480.2 155.469 480.2 155.8C480.2 156.131 480.469 156.4 480.8 156.4Z" fill="#B7CCFF"/>
<path d="M144.6 329.8C144.931 329.8 145.2 329.531 145.2 329.2C145.2 328.869 144.931 328.6 144.6 328.6C144.269 328.6 144 328.869 144 329.2C144 329.531 144.269 329.8 144.6 329.8Z" fill="#B7CCFF"/>
<path d="M44 101.8C44.3314 101.8 44.6 101.531 44.6 101.2C44.6 100.869 44.3314 100.6 44 100.6C43.6687 100.6 43.4 100.869 43.4 101.2C43.4 101.531 43.6687 101.8 44 101.8Z" fill="#B7CCFF"/>
<path d="M438.1 109.9C438.431 109.9 438.7 109.631 438.7 109.3C438.7 108.969 438.431 108.7 438.1 108.7C437.769 108.7 437.5 108.969 437.5 109.3C437.5 109.631 437.769 109.9 438.1 109.9Z" fill="#B7CCFF"/>
<path d="M80.5 243.6C80.8314 243.6 81.1 243.331 81.1 243C81.1 242.669 80.8314 242.4 80.5 242.4C80.1687 242.4 79.9 242.669 79.9 243C79.9 243.331 80.1687 243.6 80.5 243.6Z" fill="#B7CCFF"/>
<path d="M681.4 396.2C681.731 396.2 682 395.931 682 395.6C682 395.269 681.731 395 681.4 395C681.069 395 680.8 395.269 680.8 395.6C680.8 395.931 681.069 396.2 681.4 396.2Z" fill="#B7CCFF"/>
<path d="M347.8 85.6C348.131 85.6 348.4 85.3314 348.4 85C348.4 84.6687 348.131 84.4 347.8 84.4C347.469 84.4 347.2 84.6687 347.2 85C347.2 85.3314 347.469 85.6 347.8 85.6Z" fill="#B7CCFF"/>
<path d="M447.8 55.6C448.131 55.6 448.4 55.3314 448.4 55C448.4 54.6686 448.131 54.4 447.8 54.4C447.469 54.4 447.2 54.6686 447.2 55C447.2 55.3314 447.469 55.6 447.8 55.6Z" fill="#B7CCFF"/>
<path d="M538.1 101.2C538.763 101.2 539.3 100.663 539.3 100C539.3 99.3372 538.763 98.8 538.1 98.8C537.437 98.8 536.9 99.3372 536.9 100C536.9 100.663 537.437 101.2 538.1 101.2Z" fill="#B7CCFF"/>
<path d="M382 156.4C382.663 156.4 383.2 155.863 383.2 155.2C383.2 154.537 382.663 154 382 154C381.337 154 380.8 154.537 380.8 155.2C380.8 155.863 381.337 156.4 382 156.4Z" fill="#B7CCFF"/>
<path d="M67.9001 128.5C68.5628 128.5 69.1001 127.963 69.1001 127.3C69.1001 126.637 68.5628 126.1 67.9001 126.1C67.2373 126.1 66.7001 126.637 66.7001 127.3C66.7001 127.963 67.2373 128.5 67.9001 128.5Z" fill="#B7CCFF"/>
<path d="M296.1 372.8C296.763 372.8 297.3 372.263 297.3 371.6C297.3 370.937 296.763 370.4 296.1 370.4C295.437 370.4 294.9 370.937 294.9 371.6C294.9 372.263 295.437 372.8 296.1 372.8Z" fill="#B7CCFF"/>
<path d="M785.5 429.3C786.163 429.3 786.7 428.763 786.7 428.1C786.7 427.437 786.163 426.9 785.5 426.9C784.837 426.9 784.3 427.437 784.3 428.1C784.3 428.763 784.837 429.3 785.5 429.3Z" fill="#B7CCFF"/>
<path d="M758.7 396.8C759.363 396.8 759.9 396.263 759.9 395.6C759.9 394.937 759.363 394.4 758.7 394.4C758.037 394.4 757.5 394.937 757.5 395.6C757.5 396.263 758.037 396.8 758.7 396.8Z" fill="#B7CCFF"/>
<path d="M908.4 252.5C908.952 252.5 909.4 252.052 909.4 251.5C909.4 250.948 908.952 250.5 908.4 250.5C907.848 250.5 907.4 250.948 907.4 251.5C907.4 252.052 907.848 252.5 908.4 252.5Z" fill="#B7CCFF"/>
<path d="M982.9 251.8C983.452 251.8 983.9 251.352 983.9 250.8C983.9 250.248 983.452 249.8 982.9 249.8C982.348 249.8 981.9 250.248 981.9 250.8C981.9 251.352 982.348 251.8 982.9 251.8Z" fill="#B7CCFF"/>
<path d="M837.2 396.6C837.752 396.6 838.2 396.152 838.2 395.6C838.2 395.048 837.752 394.6 837.2 394.6C836.648 394.6 836.2 395.048 836.2 395.6C836.2 396.152 836.648 396.6 837.2 396.6Z" fill="#B7CCFF"/>
<path d="M423.2 109.3C423.752 109.3 424.2 108.852 424.2 108.3C424.2 107.748 423.752 107.3 423.2 107.3C422.648 107.3 422.2 107.748 422.2 108.3C422.2 108.852 422.648 109.3 423.2 109.3Z" fill="#B7CCFF"/>
<path d="M948.7 249.3C949.252 249.3 949.7 248.852 949.7 248.3C949.7 247.748 949.252 247.3 948.7 247.3C948.148 247.3 947.7 247.748 947.7 248.3C947.7 248.852 948.148 249.3 948.7 249.3Z" fill="#B7CCFF"/>
<path d="M963 236.2C963.552 236.2 964 235.752 964 235.2C964 234.648 963.552 234.2 963 234.2C962.448 234.2 962 234.648 962 235.2C962 235.752 962.448 236.2 963 236.2Z" fill="#B7CCFF"/>
<path d="M706.1 68.7L704.6 65.7L706.1 62.7L707.7 65.7L706.1 68.7Z" fill="#B7CCFF"/>
<path d="M540.4 470.5L537.7 465.4L540.4 460.4L543 465.4L540.4 470.5Z" fill="#91FFAD"/>
<path d="M813.1 137.4L810.5 132.3L813.1 127.3L815.7 132.3L813.1 137.4Z" fill="#91FFAD"/>
<path d="M706.1 68.7L704.6 65.7L706.1 62.7L707.7 65.7L706.1 68.7Z" fill="#B7CCFF"/>
<path d="M315.2 444L313.7 441L315.2 438L316.8 441L315.2 444Z" fill="#B7CCFF"/>
<path d="M471.1 278.8C471.652 278.8 472.1 278.352 472.1 277.8C472.1 277.248 471.652 276.8 471.1 276.8C470.548 276.8 470.1 277.248 470.1 277.8C470.1 278.352 470.548 278.8 471.1 278.8Z" fill="#B7CCFF"/>
<path d="M194.9 231C195.452 231 195.9 230.552 195.9 230C195.9 229.448 195.452 229 194.9 229C194.348 229 193.9 229.448 193.9 230C193.9 230.552 194.348 231 194.9 231Z" fill="#B7CCFF"/>
<path d="M224.1 266.8C224.652 266.8 225.1 266.352 225.1 265.8C225.1 265.248 224.652 264.8 224.1 264.8C223.548 264.8 223.1 265.248 223.1 265.8C223.1 266.352 223.548 266.8 224.1 266.8Z" fill="#B7CCFF"/>
<path d="M196.9 193.9C197.452 193.9 197.9 193.452 197.9 192.9C197.9 192.348 197.452 191.9 196.9 191.9C196.348 191.9 195.9 192.348 195.9 192.9C195.9 193.452 196.348 193.9 196.9 193.9Z" fill="#B7CCFF"/>
<path d="M947.2 298.9C947.752 298.9 948.2 298.452 948.2 297.9C948.2 297.348 947.752 296.9 947.2 296.9C946.648 296.9 946.2 297.348 946.2 297.9C946.2 298.452 946.648 298.9 947.2 298.9Z" fill="#B7CCFF"/>
<path d="M877.7 391.8C878.252 391.8 878.7 391.352 878.7 390.8C878.7 390.248 878.252 389.8 877.7 389.8C877.148 389.8 876.7 390.248 876.7 390.8C876.7 391.352 877.148 391.8 877.7 391.8Z" fill="#B7CCFF"/>
<path d="M1097.5 262.1C1098.05 262.1 1098.5 261.652 1098.5 261.1C1098.5 260.548 1098.05 260.1 1097.5 260.1C1096.95 260.1 1096.5 260.548 1096.5 261.1C1096.5 261.652 1096.95 262.1 1097.5 262.1Z" fill="#B7CCFF"/>
<path d="M1021.5 305.3C1022.05 305.3 1022.5 304.852 1022.5 304.3C1022.5 303.748 1022.05 303.3 1021.5 303.3C1020.95 303.3 1020.5 303.748 1020.5 304.3C1020.5 304.852 1020.95 305.3 1021.5 305.3Z" fill="#B7CCFF"/>
<path d="M662.4 92.6C662.952 92.6 663.4 92.1523 663.4 91.6C663.4 91.0477 662.952 90.6 662.4 90.6C661.848 90.6 661.4 91.0477 661.4 91.6C661.4 92.1523 661.848 92.6 662.4 92.6Z" fill="#B7CCFF"/>
<g style="mix-blend-mode:screen" opacity="0.7">
<path d="M453.7 296.5L450.5 290.2L453.7 284L457 290.2L453.7 296.5Z" fill="white"/>
</g>
<g style="mix-blend-mode:screen" opacity="0.29">
<path d="M734.9 202.4L734 200.6L734.9 198.8L735.9 200.6L734.9 202.4Z" fill="white"/>
</g>
<path d="M154.2 182.2C152.435 181.094 150.931 179.618 149.791 177.875C148.652 176.131 147.904 174.161 147.6 172.1L146.6 165C146.548 164.846 146.456 164.709 146.333 164.604C146.209 164.498 146.06 164.428 145.9 164.4C145.73 164.398 145.566 164.458 145.437 164.568C145.308 164.679 145.224 164.832 145.2 165L144.1 172.1C143.814 174.154 143.084 176.121 141.962 177.866C140.839 179.61 139.351 181.089 137.6 182.2L136.6 182.8C136.426 182.954 136.319 183.169 136.3 183.4C136.319 183.631 136.426 183.846 136.6 184L137.6 184.6C139.351 185.711 140.839 187.19 141.962 188.934C143.084 190.679 143.814 192.646 144.1 194.7L145.2 201.8C145.224 201.968 145.308 202.121 145.437 202.232C145.566 202.342 145.73 202.402 145.9 202.4C146.06 202.372 146.209 202.302 146.333 202.196C146.456 202.091 146.548 201.954 146.6 201.8L147.6 194.7C147.904 192.639 148.652 190.669 149.791 188.925C150.931 187.182 152.435 185.706 154.2 184.6L155.1 184C155.274 183.846 155.381 183.631 155.4 183.4C155.381 183.169 155.274 182.954 155.1 182.8L154.2 182.2Z" fill="#66BCFF"/>
<path d="M678 264.5C677.261 264.051 676.634 263.439 676.166 262.711C675.698 261.984 675.402 261.159 675.3 260.3L674.8 257.4C674.8 257.3 674.7 257.2 674.5 257.2L674.2 257.4L673.8 260.3C673.698 261.159 673.402 261.984 672.934 262.711C672.467 263.439 671.839 264.051 671.1 264.5L670.7 264.7C670.7 264.8 670.6 264.9 670.6 265C670.606 265.077 670.642 265.149 670.7 265.2L671.1 265.5C671.844 265.943 672.476 266.554 672.944 267.282C673.413 268.011 673.706 268.839 673.8 269.7L674.2 272.6L674.5 272.8C674.7 272.8 674.8 272.7 674.8 272.6L675.3 269.7C675.395 268.839 675.688 268.011 676.156 267.282C676.625 266.554 677.256 265.943 678 265.5L678.3 265.2C678.353 265.2 678.404 265.179 678.442 265.141C678.479 265.104 678.5 265.053 678.5 265C678.5 264.9 678.4 264.8 678.3 264.7L678 264.5Z" fill="white"/>
<path d="M304 45.2C302.256 44.0698 300.769 42.5873 299.632 40.8479C298.495 39.1085 297.735 37.1507 297.4 35.1L296.4 28C296.376 27.8322 296.291 27.6788 296.163 27.5685C296.034 27.4581 295.87 27.3983 295.7 27.4C295.3 27.4 295 27.6 295 28L293.9 35.1C293.589 37.1462 292.849 39.1037 291.729 40.8442C290.608 42.5846 289.133 44.069 287.4 45.2L286.4 45.8C286.304 45.8669 286.226 45.9569 286.173 46.0617C286.121 46.1666 286.096 46.2829 286.1 46.4C286.085 46.5185 286.105 46.639 286.158 46.7459C286.212 46.8528 286.296 46.9412 286.4 47L287.4 47.6C289.145 48.7419 290.627 50.2419 291.748 52.0005C292.868 53.7591 293.602 55.736 293.9 57.8L295 64.9C295.024 65.0678 295.109 65.2212 295.237 65.3315C295.366 65.4419 295.53 65.5017 295.7 65.5C295.86 65.4724 296.009 65.4021 296.133 65.2965C296.256 65.1908 296.348 65.0538 296.4 64.9L297.4 57.8C297.716 55.7296 298.467 53.7499 299.605 51.9916C300.743 50.2332 302.241 48.7364 304 47.6L304.9 47C305.004 46.9412 305.088 46.8528 305.142 46.7459C305.195 46.639 305.215 46.5185 305.2 46.4C305.204 46.2829 305.179 46.1666 305.127 46.0617C305.074 45.9569 304.996 45.8669 304.9 45.8L304 45.2Z" fill="#FFE75C"/>
<path d="M674.4 58.3C673.066 57.4475 671.929 56.3193 671.067 54.9912C670.204 53.6631 669.636 52.1659 669.4 50.6L668.6 45.2C668.577 45.0854 668.514 44.9826 668.422 44.9095C668.331 44.8364 668.217 44.7976 668.1 44.8C667.983 44.7976 667.869 44.8364 667.778 44.9095C667.686 44.9826 667.623 45.0854 667.6 45.2L666.7 50.6C666.508 52.1674 665.969 53.6722 665.121 55.0044C664.273 56.3366 663.139 57.4625 661.8 58.3L661.1 58.7C661.004 58.7415 660.923 58.812 660.87 58.9017C660.816 58.9914 660.791 59.0958 660.8 59.2C660.791 59.3043 660.816 59.4086 660.87 59.4983C660.923 59.588 661.004 59.6585 661.1 59.7L661.8 60.1C663.139 60.9375 664.273 62.0634 665.121 63.3956C665.969 64.7278 666.508 66.2326 666.7 67.8L667.6 73.2C667.623 73.3147 667.686 73.4175 667.778 73.4905C667.869 73.5636 667.983 73.6024 668.1 73.6C668.217 73.6024 668.331 73.5636 668.422 73.4905C668.514 73.4175 668.577 73.3147 668.6 73.2L669.4 67.8C669.636 66.2342 670.204 64.7369 671.067 63.4089C671.929 62.0808 673.066 60.9526 674.4 60.1L675.1 59.7C675.222 59.5615 675.293 59.3848 675.3 59.2C675.293 59.0153 675.222 58.8386 675.1 58.7L674.4 58.3Z" fill="#8CD9FF"/>
<path opacity="0.6" d="M514.4 34.1C513.832 33.7592 513.348 33.2944 512.984 32.7403C512.62 32.1862 512.386 31.5571 512.3 30.9L512 28.6H511.5L511.2 30.9C511.094 31.5509 510.852 32.1721 510.491 32.7234C510.129 33.2748 509.655 33.7438 509.1 34.1L508.8 34.3V34.5C508.8 34.6 508.8 34.7 508.9 34.7L509.2 34.9C509.755 35.2562 510.229 35.7252 510.591 36.2766C510.952 36.8279 511.194 37.4491 511.3 38.1L511.6 40.4L511.8 40.6L512.1 40.4L512.4 38.1C512.487 37.4429 512.72 36.8138 513.084 36.2597C513.447 35.7056 513.932 35.2408 514.5 34.9L514.8 34.7V34.5V34.3L514.4 34.1Z" fill="#FFF2A6"/>
<path opacity="0.7" d="M804.1 270.8C803.529 270.438 803.045 269.955 802.682 269.384C802.319 268.814 802.086 268.171 802 267.5L801.6 265.3C801.6 265.247 801.579 265.196 801.542 265.159C801.504 265.121 801.453 265.1 801.4 265.1C801.347 265.1 801.296 265.121 801.259 265.159C801.221 265.196 801.2 265.247 801.2 265.3L800.9 267.5C800.795 268.165 800.555 268.801 800.194 269.369C799.832 269.936 799.358 270.424 798.8 270.8L798.5 271C798.4 271 798.4 271.1 798.4 271.2C798.406 271.277 798.442 271.349 798.5 271.4H798.8C799.358 271.776 799.832 272.264 800.194 272.831C800.555 273.399 800.795 274.035 800.9 274.7L801.2 276.9C801.2 276.953 801.221 277.004 801.259 277.041C801.296 277.079 801.347 277.1 801.4 277.1C801.453 277.1 801.504 277.079 801.542 277.041C801.579 277.004 801.6 276.953 801.6 276.9L802 274.7C802.086 274.029 802.319 273.386 802.682 272.816C803.045 272.245 803.529 271.762 804.1 271.4H804.4V271.2V271L804.1 270.8Z" fill="#96FFFD"/>
<path d="M726.1 114C725.545 113.644 725.071 113.175 724.709 112.623C724.348 112.072 724.106 111.451 724 110.8L723.7 108.5C723.7 108.447 723.679 108.396 723.641 108.359C723.604 108.321 723.553 108.3 723.5 108.3L723.2 108.5L722.9 110.8C722.794 111.451 722.552 112.072 722.19 112.623C721.829 113.175 721.355 113.644 720.8 114L720.5 114.2C720.5 114.3 720.4 114.3 720.4 114.4V114.6L720.7 114.8C721.255 115.156 721.729 115.625 722.09 116.177C722.452 116.728 722.694 117.349 722.8 118L723.1 120.3L723.4 120.5C723.453 120.5 723.504 120.479 723.541 120.441C723.579 120.404 723.6 120.353 723.6 120.3L723.9 118C724.006 117.349 724.248 116.728 724.609 116.177C724.971 115.625 725.445 115.156 726 114.8L726.3 114.6C726.4 114.6 726.4 114.5 726.4 114.4C726.4 114.3 726.4 114.3 726.3 114.2L726.1 114Z" fill="#765EFF"/>
<path d="M647.5 365.3C646.665 364.739 645.952 364.017 645.402 363.175C644.852 362.333 644.478 361.389 644.3 360.4L643.8 357C643.8 356.92 643.768 356.844 643.712 356.788C643.656 356.732 643.579 356.7 643.5 356.7C643.42 356.7 643.344 356.732 643.288 356.788C643.231 356.844 643.2 356.92 643.2 357L642.6 360.4C642.463 361.391 642.116 362.341 641.581 363.186C641.046 364.031 640.337 364.752 639.5 365.3L639 365.6C638.964 365.641 638.936 365.688 638.919 365.74C638.902 365.791 638.895 365.846 638.9 365.9C638.9 366 638.9 366.2 639 366.2L639.5 366.5C640.337 367.048 641.046 367.769 641.581 368.614C642.116 369.459 642.463 370.409 642.6 371.4L643.2 374.8C643.2 374.879 643.231 374.956 643.288 375.012C643.344 375.068 643.42 375.1 643.5 375.1C643.579 375.1 643.656 375.068 643.712 375.012C643.768 374.956 643.8 374.879 643.8 374.8L644.3 371.4C644.478 370.41 644.852 369.467 645.402 368.625C645.952 367.783 646.665 367.061 647.5 366.5L648 366.2C648.1 366.2 648.1 366 648.1 365.9C648.104 365.846 648.098 365.791 648.081 365.74C648.064 365.688 648.036 365.641 648 365.6L647.5 365.3Z" fill="#8C4FFD"/>
<g style="mix-blend-mode:screen" opacity="0.7">
<path d="M216.6 440.4L213.3 434.3L216.6 428.1L219.8 434.3L216.6 440.4Z" fill="white"/>
</g>
<path opacity="0.7" d="M1007.2 85.8L989 50.8L1007.2 15.8L1025.4 50.8L1007.2 85.8Z" fill="#FD96FF"/>
<path opacity="0.7" d="M565 263.6L552.4 239.3L565 215L577.7 239.3L565 263.6Z" fill="#96FFFD"/>
<path d="M169.3 232.7C169.852 232.7 170.3 232.252 170.3 231.7C170.3 231.148 169.852 230.7 169.3 230.7C168.748 230.7 168.3 231.148 168.3 231.7C168.3 232.252 168.748 232.7 169.3 232.7Z" fill="#7C78FF"/>
<path d="M413.3 179.2C414.073 179.2 414.7 178.573 414.7 177.8C414.7 177.027 414.073 176.4 413.3 176.4C412.527 176.4 411.9 177.027 411.9 177.8C411.9 178.573 412.527 179.2 413.3 179.2Z" fill="#B7CCFF"/>
<path d="M55.2 192.3C58.9 181.2 64.3 172.9 67 173.8C69.7 174.7 65.9 183.5 62.1 194.7C58.3 205.9 55.9 215.1 53.3 214.2C50.7 213.3 51.4 203.4 55.2 192.3Z" fill="#8C4FFD"/>
<path d="M855.6 372.7C856.207 372.7 856.7 372.208 856.7 371.6C856.7 370.992 856.207 370.5 855.6 370.5C854.992 370.5 854.5 370.992 854.5 371.6C854.5 372.208 854.992 372.7 855.6 372.7Z" fill="url(#paint7_linear_919_65026)"/>
<path d="M780.8 164.3C781.407 164.3 781.9 163.807 781.9 163.2C781.9 162.592 781.407 162.1 780.8 162.1C780.192 162.1 779.7 162.592 779.7 163.2C779.7 163.807 780.192 164.3 780.8 164.3Z" fill="#7C78FF"/>
<path d="M730.8 14.3C731.407 14.3 731.9 13.8075 731.9 13.2C731.9 12.5925 731.407 12.1 730.8 12.1C730.192 12.1 729.7 12.5925 729.7 13.2C729.7 13.8075 730.192 14.3 730.8 14.3Z" fill="#7C78FF"/>
</g>
</g>
<defs>
<linearGradient id="paint0_linear_919_65026" x1="564" y1="236.5" x2="564" y2="600" gradientUnits="userSpaceOnUse">
<stop/>
<stop offset="0.374078" stop-opacity="0.501857"/>
<stop offset="0.870202" stop-opacity="0"/>
</linearGradient>
<linearGradient id="paint1_linear_919_65026" x1="564" y1="8.8556" x2="564" y2="660.441" gradientUnits="userSpaceOnUse">
<stop stop-color="#4C33FF"/>
<stop offset="1" stop-color="#FF75FA"/>
</linearGradient>
<linearGradient id="paint2_linear_919_65026" x1="812.31" y1="-37.79" x2="-48.96" y2="583" gradientUnits="userSpaceOnUse">
<stop stop-color="#D044E0" stop-opacity="0.1"/>
<stop offset="0.42" stop-color="#CF44E0" stop-opacity="0.11"/>
<stop offset="0.57" stop-color="#CA45E2" stop-opacity="0.13"/>
<stop offset="0.68" stop-color="#C147E5" stop-opacity="0.18"/>
<stop offset="0.77" stop-color="#B549E9" stop-opacity="0.24"/>
<stop offset="0.85" stop-color="#A54BEE" stop-opacity="0.33"/>
<stop offset="0.92" stop-color="#924FF5" stop-opacity="0.43"/>
<stop offset="0.98" stop-color="#7B53FC" stop-opacity="0.55"/>
<stop offset="1" stop-color="#7354FF" stop-opacity="0.6"/>
</linearGradient>
<linearGradient id="paint3_linear_919_65026" x1="540.92" y1="524.42" x2="1117.6" y2="-51.03" gradientUnits="userSpaceOnUse">
<stop stop-color="#BB7DE8" stop-opacity="0.3"/>
<stop offset="0.4" stop-color="#B075EC" stop-opacity="0.3"/>
<stop offset="0.73" stop-color="#8F5CF7" stop-opacity="0.3"/>
<stop offset="0.88" stop-color="#774AFF" stop-opacity="0.3"/>
</linearGradient>
<linearGradient id="paint4_linear_919_65026" x1="69.16" y1="289.79" x2="296.92" y2="144.25" gradientUnits="userSpaceOnUse">
<stop stop-color="#DF89E8" stop-opacity="0.3"/>
<stop offset="0.46" stop-color="#DD88E9" stop-opacity="0.31"/>
<stop offset="0.63" stop-color="#D684EA" stop-opacity="0.33"/>
<stop offset="0.75" stop-color="#CA7EEE" stop-opacity="0.37"/>
<stop offset="0.85" stop-color="#B975F2" stop-opacity="0.44"/>
<stop offset="0.93" stop-color="#A369F8" stop-opacity="0.51"/>
<stop offset="1" stop-color="#8B5CFF" stop-opacity="0.6"/>
</linearGradient>
<linearGradient id="paint5_linear_919_65026" x1="720.57" y1="280.8" x2="726.36" y2="280.8" gradientUnits="userSpaceOnUse">
<stop stop-color="#C7D4FF"/>
<stop offset="1" stop-color="#A8BDFF"/>
</linearGradient>
<linearGradient id="paint6_linear_919_65026" x1="1032.47" y1="272.33" x2="1038.27" y2="272.33" gradientUnits="userSpaceOnUse">
<stop stop-color="#C7D4FF"/>
<stop offset="1" stop-color="#A8BDFF"/>
</linearGradient>
<linearGradient id="paint7_linear_919_65026" x1="857.16" y1="373.15" x2="853.74" y2="369.73" gradientUnits="userSpaceOnUse">
<stop stop-color="#593FD1"/>
<stop offset="0.68" stop-color="#8354FF"/>
</linearGradient>
<clipPath id="clip0_919_65026">
<rect width="1128" height="600" fill="white"/>
</clipPath>
</defs>
</svg>
