<svg xmlns="http://www.w3.org/2000/svg" width="248" height="121" viewBox="0 0 248 121" fill="none">
  <path d="M53.6599 121H51.1437C50.5127 121 50 120.496 50 119.877V107H59L54.7564 120.217C54.6065 120.682 54.1648 121 53.6678 121H53.6599Z" fill="#FF8C19"/>
  <path d="M74.6599 121H72.1437C71.5127 121 71 120.496 71 119.877V107H80L75.7564 120.217C75.6065 120.682 75.1648 121 74.6678 121H74.6599Z" fill="#ED5F00"/>
  <path d="M168.34 121H170.856C171.487 121 172 120.496 172 119.877V107H163L167.244 120.217C167.394 120.682 167.835 121 168.332 121H168.34Z" fill="#FF8C19"/>
  <path d="M199.34 121H201.856C202.487 121 203 120.496 203 119.877V107H194L198.244 120.217C198.394 120.682 198.835 121 199.332 121H199.34Z" fill="#ED5F00"/>
  <path d="M208.992 47.2143V104.884C208.992 108.257 206.244 111 202.847 111H47.5575C46.1451 111 45 109.86 45 108.455V69.5879H64.2766L71.6284 43.241C73.9874 37.0721 79.9269 33 86.5535 33H194.701C202.602 33 209 39.374 209 47.2295L208.992 47.2143Z" fill="url(#paint0_linear_4081_61411)"/>
  <path d="M160 88H57V110H160V88Z" fill="#FFDF4B"/>
  <path d="M47.0077 69H69.5275C76.4105 69 82 74.4543 82 81.1708V88H47V69H47.0077Z" fill="#FFC619"/>
  <path d="M44.0075 69H48.4843C53.1876 69 57 72.7977 57 77.4828V110H45.2834C44.5738 110 44 109.428 44 108.722V69H44.0075Z" fill="#FFDF4B"/>
  <path d="M49.6852 111H45.8965C41.5398 111 38 107.578 38 103.367V77.8586C38 73.5194 41.6409 70 46.1299 70H51L51 109.722C51 110.428 50.4087 111 49.6774 111H49.6852Z" fill="#FFDF4B"/>
  <path d="M160.178 111H172L171.822 69H167.753C163.475 69 160 72.4532 160 76.7217L160.178 111Z" fill="#FFDF4B"/>
  <path d="M174.762 69H195.698C203.041 69 209 74.8883 209 82.1453V103.856C209 107.248 206.215 110 202.783 110H174.762C173.24 110 172 108.774 172 107.27V71.7298C172 70.2258 173.24 69 174.762 69Z" fill="#FFC619"/>
  <path d="M171.474 110H169V69H172.652C176.707 69 180 72.3766 180 76.5503V101.239C180 106.082 176.18 110 171.474 110Z" fill="#FFDF4B"/>
  <path d="M162.314 104H54.6862C51.5474 104 49 101.377 49 98.1457V91.8543C49 88.6227 51.5474 86 54.6862 86H57.3397V88.3417H54.6862C52.8059 88.3417 51.2745 89.9185 51.2745 91.8543V98.1457C51.2745 100.082 52.8059 101.658 54.6862 101.658H162.314C164.194 101.658 165.726 100.082 165.726 98.1457V91.8543C165.726 89.9185 164.194 88.3417 162.314 88.3417H159.607V86H162.314C165.453 86 168 88.6227 168 91.8543V98.1457C168 101.377 165.453 104 162.314 104Z" fill="#FFC619"/>
  <path d="M120.246 57C116.514 57 117.419 60.0969 113.38 64.8245C110.897 67.7344 107.801 69.3353 105.663 68.3778C103.525 67.4203 100 67.0014 100 72.29C100 77.5787 106.338 79 109.955 79C118.016 79 122.76 71.0109 125.074 67.5549C128.063 63.0966 123.105 57 120.246 57Z" fill="#4970DE"/>
  <path d="M124 78.0747H119.615C113.74 78.0747 108.979 82.8776 108.979 88.8035V89.7974H107.196V95.9206C107.196 97.1801 106.256 98.25 105.022 98.3941C102.074 98.9328 96.688 99.3502 93.5363 98.5686C91.7912 98.1361 91.8664 97.4533 92.1673 95.2301V90.5486C92.1673 87.0963 93.0323 83.993 94.7398 81.7243C96.4473 79.4708 99.0273 78.0747 102.427 78.0747H108.542L114.267 69L123.992 78.0747H124Z" fill="url(#paint1_linear_4081_61411)"/>
  <path d="M144 57L140.989 82.9338C140.518 86.6016 137.353 89.3239 133.617 89.3239H125.874V95.4928C125.874 96.7586 124.94 97.8338 123.674 97.9939C120.764 98.97 114.048 99.1148 111.23 98.9318C109.509 98.8175 108.729 97.6508 109.084 96.1867V88.325C109.084 82.3696 113.971 77.5427 120 77.5427H124.5L114.519 68.4228L119.969 57H144Z" fill="#6990FF"/>
  <path d="M117.659 59L133 59.8468C133 59.8468 124.919 64.4393 118.712 63.9657C113.295 63.5495 117.666 59 117.666 59H117.659Z" fill="#4970DE"/>
  <path d="M124.149 78.9245C120.67 79.6652 116.492 74.7139 116.492 74.7139L109.872 74.441C109.872 74.441 108.789 79.8211 105.74 78.5424C102.684 77.2636 99.6196 64.6633 104.75 62.8855C108.075 61.7315 115.709 61.7081 119.234 62.7997C120.747 63.2676 121.814 64.0629 122.482 64.7256C122.805 65.0531 123.035 65.3494 123.173 65.5599C123.411 65.9108 123.688 66.2695 123.918 66.6672C123.918 66.6672 123.926 66.6672 123.926 66.6828C126.622 71.213 126.683 78.3865 124.149 78.9245Z" fill="white"/>
  <path d="M104.002 67.0947C104.032 65.0817 106.243 63.6406 108.165 64.0789C109.392 64.2571 110.864 65.6611 109.369 66.5748C108.736 66.8793 107.966 67.0353 107.364 67.2582C106.869 67.377 106.411 67.6519 105.855 67.8153L105.069 67.9787C104.513 68.105 103.964 67.6519 104.002 67.0947Z" fill="#29CC7A"/>
  <path d="M114.413 64.8529C116.039 63.6463 118.423 63.7308 119.961 65.0373C120.854 65.7213 121.683 67.5964 120.136 67.9806C119.881 68.0421 119.57 67.9422 119.323 67.8884C118.55 67.6809 118 67.5349 117.299 67.3659C116.446 67.1507 115.425 67.0047 114.62 66.5974C113.895 66.2976 113.783 65.2986 114.405 64.8452L114.413 64.8529Z" fill="#29CC7A"/>
  <path d="M141.928 57.0031C145.306 56.8495 145.705 62.4705 145.866 64.828C145.974 66.3868 146.012 67.7997 145.997 68.9823C145.966 72.745 144.753 81.2686 134.504 79.8403C121.753 78.0588 121.607 75.3481 121.139 72.8985C120.724 70.7484 121.254 68.7135 122.536 67.6538C125.607 65.1198 133.153 68.1683 133.153 68.1683L133.867 64.3595C134.42 62.0251 136.477 57.0492 138.872 57.0108H141.928V57.0031Z" fill="#6990FF"/>
  <path d="M134.946 64.3918L133.93 67.2727C133.779 67.7176 133.332 68 132.854 68C132.74 68 132.619 67.9859 132.505 67.9506C128.488 66.7502 125.714 66.7149 124.425 66.9197C124.425 66.9126 124.417 66.9126 124.417 66.9055C124.19 66.5454 123.917 66.2206 123.682 65.9029C123.546 65.7122 123.318 65.4439 123 65.1474C123.099 65.0767 123.212 65.0273 123.334 64.992C124.865 64.5542 127.935 64.5189 132.119 65.6275L132.778 63.7281C132.975 63.1773 133.62 62.8737 134.218 63.0502C134.81 63.2338 135.136 63.834 134.946 64.3918Z" fill="#3D58D9"/>
  <path d="M112 34.2697C112 30.807 109.09 28 105.5 28C101.91 28 99 30.807 99 34.2697V43.7303C99 47.193 101.91 50 105.5 50C109.09 50 112 47.193 112 43.7303V34.2697Z" fill="white"/>
  <path d="M143.573 57.9803C133.85 59.9302 122.928 60.7951 115.389 59.0804C108.484 57.5023 104.115 54.862 103.412 47.1308C103 42.6165 102.74 38.2236 103.412 32.4043C104.085 26.5851 106.575 25.227 109.37 23.6717C111.852 22.2832 114.732 21.6687 117.612 21.6687C126.304 20.7582 134.339 20.7962 141.786 21.6687C144.131 21.6687 146.468 22.0784 148.584 23.0343C151.624 24.4152 155 27.1162 155 32.3437V42.5406C155 53.3901 149.432 56.8119 143.573 57.9879V57.9803Z" fill="#6990FF"/>
  <path d="M162 34.2697C162 30.807 159.09 28 155.5 28C151.91 28 149 30.807 149 34.2697V43.7303C149 47.193 151.91 50 155.5 50C159.09 50 162 47.193 162 43.7303V34.2697Z" fill="white"/>
  <path d="M145.546 51C145.085 51 144.632 50.8076 144.327 50.4377C143.803 49.8015 143.921 48.8841 144.593 48.381L155.501 40.3095C156.181 39.8139 157.15 39.9248 157.673 40.5611C158.197 41.1973 158.079 42.1147 157.407 42.6178L146.499 50.6893C146.218 50.8964 145.882 51 145.546 51Z" fill="white"/>
  <path d="M159 30.9656C158.787 24.0278 155.049 17 141.131 17H117.321C107.095 17 103 23.3085 103 28.2534V32.6963C103.16 30.1639 104.512 27.4817 106.282 25.5412C108.569 23.0313 112.39 22.0798 116.447 21.4579C124.181 20.5289 132.257 20.4015 140.835 21.4579C148.295 22.7241 153.355 25.4962 153.978 31.9921V34" fill="white"/>
  <path d="M157.5 48C160.538 48 163 43.9706 163 39C163 34.0294 160.538 30 157.5 30C154.462 30 152 34.0294 152 39C152 43.9706 154.462 48 157.5 48Z" fill="white"/>
  <path d="M142 41C143.105 41 144 40.1046 144 39C144 37.8954 143.105 37 142 37C140.895 37 140 37.8954 140 39C140 40.1046 140.895 41 142 41Z" fill="black"/>
  <path d="M107 41C108.105 41 109 40.1046 109 39C109 37.8954 108.105 37 107 37C105.895 37 105 37.8954 105 39C105 40.1046 105.895 41 107 41Z" fill="black"/>
  <path d="M128.559 51.5239C124.94 52.1489 120.179 52.2556 115.91 51.2495C110.651 50.0071 108.202 47.4157 109.23 37.126C109.23 34.4659 111.369 32.3165 113.998 32.3165C119.424 31.8287 125.559 31.9659 131.944 32.3165C134.672 32.3165 136.886 34.5497 136.886 37.3013C137.589 45.5635 135.065 50.6474 128.552 51.5239H128.559Z" fill="#B7CCFF"/>
  <path d="M129.373 44H126.627C125.729 44 125 44.647 125 45.4452V45.5548C125 46.353 125.729 47 126.627 47H129.373C130.271 47 131 46.353 131 45.5548V45.4452C131 44.647 130.271 44 129.373 44Z" fill="#6990FF"/>
  <path d="M117.373 44H114.627C113.729 44 113 44.647 113 45.4452V45.5548C113 46.353 113.729 47 114.627 47H117.373C118.271 47 119 46.353 119 45.5548V45.4452C119 44.647 118.271 44 117.373 44Z" fill="#6990FF"/>
  <path d="M137.117 53C136.5 53 136 52.5231 136 51.9344C136 51.3458 136.5 50.8688 137.117 50.8688C138.023 50.8688 138.766 50.0641 138.766 49.0656C138.766 48.4769 139.266 48 139.883 48C140.5 48 141 48.4769 141 49.0656C141 51.2265 139.258 52.9926 137.125 52.9926L137.117 53Z" fill="#020202"/>
  <path d="M104.351 71.8109C102.576 69.6672 101.894 67.6923 103.102 65.1594C103.526 64.2711 98 67.1857 98 71.6347C98 76.0837 101.179 77.9926 103.055 77.9999C106.823 78.0219 106.658 74.6007 104.343 71.8036L104.351 71.8109Z" fill="#6990FF"/>
  <path d="M128 79C128 79 137.257 81.9403 140 79.1208C140 79.1208 137.088 84.1152 133.346 82.77C129.941 81.5455 128 79 128 79Z" fill="#4970DE"/>
  <path d="M125 13.5133L126.678 11.3915C130.072 9.47523 132.108 4.41663 137.299 5.05538C140.714 5.47387 141.453 9.90106 136.187 12.7351C131.944 15.0184 125 13.5133 125 13.5133Z" fill="#57EF84"/>
  <path d="M130.173 14C129.82 14 129.468 13.8426 129.241 13.5357C128.85 13.0163 128.944 12.2765 129.46 11.8831C129.523 11.8358 135.7 7.0511 138.769 0.668819C139.051 0.0785961 139.747 -0.165361 140.335 0.117947C140.922 0.401254 141.165 1.10952 140.883 1.69188C137.563 8.59355 131.151 13.5436 130.885 13.756C130.674 13.9213 130.423 14 130.173 14Z" fill="#008A3C"/>
  <path d="M134 13.3478C134 13.3478 132.029 13.8272 131.006 13.9137C127.538 14.2123 124.131 13.7407 121.587 12.4282C117.256 10.2039 117.401 6.32131 119.127 4.87515C119.486 4.52933 120.487 3.95558 121.503 4.00273C127.301 4.25424 128.546 13.1434 134 13.3478Z" fill="#29C97A"/>
  <path d="M130 13.983C127.964 14.0557 125.984 13.8959 124.21 13.4891C122.103 11.7238 120.597 9.56627 120.098 8.5202C119.837 7.9681 120.114 7.32884 120.716 7.08911C121.326 6.84939 122.023 7.1109 122.277 7.663C123.053 9.29023 126.499 13.5181 130 13.983Z" fill="#008A3C"/>
  <path d="M247.211 85.7653C244.99 84.3859 243.495 82.1569 243.111 79.648L242.446 75.3698C242.415 75.1599 242.228 75 242 75C241.782 75 241.595 75.1599 241.554 75.3698L240.889 79.648C240.495 82.1569 239 84.3859 236.789 85.7653L236.208 86.1252C236.083 86.2051 236 86.3451 236 86.485V86.515C236 86.6649 236.073 86.7949 236.208 86.8748L236.789 87.2347C239.01 88.6141 240.505 90.8431 240.889 93.352L241.554 97.6302C241.585 97.8401 241.772 98 242 98C242.218 98 242.405 97.8401 242.446 97.6302L243.111 93.352C243.505 90.8431 245 88.6141 247.211 87.2347L247.792 86.8748C247.917 86.7949 248 86.6549 248 86.515V86.485C248 86.3351 247.927 86.2051 247.792 86.1252L247.211 85.7653Z" fill="#66BCFF"/>
  <path d="M10.2843 87.2987C8.2451 85.9844 6.86274 83.8462 6.5098 81.4432L5.90196 77.3531C5.87255 77.1471 5.69608 77 5.5 77C5.29412 77 5.12745 77.1471 5.09804 77.3531L4.4902 81.4432C4.12745 83.8462 2.7549 85.9746 0.715686 87.2987L0.186275 87.642C0.0686275 87.7205 0 87.848 0 87.9853V88.0147C0 88.152 0.0686275 88.2894 0.186275 88.358L0.715686 88.7013C2.7549 90.0156 4.13725 92.1538 4.4902 94.5568L5.09804 98.6469C5.12745 98.8529 5.30392 99 5.5 99C5.70588 99 5.87255 98.8529 5.90196 98.6469L6.5098 94.5568C6.87255 92.1538 8.2451 90.0254 10.2843 88.7013L10.8137 88.358C10.9314 88.2795 11 88.152 11 88.0147V87.9853C11 87.848 10.9314 87.7107 10.8137 87.642L10.2843 87.2987Z" fill="#FF78B9"/>
  <path d="M32.8922 56.386C29.7451 54.2896 27.6176 50.897 27.0686 47.0689L26.1275 40.557C26.0784 40.2329 25.8137 40 25.5 40C25.1863 40 24.9216 40.2329 24.8725 40.557L23.9314 47.0689C23.3725 50.897 21.2549 54.2896 18.1078 56.386L17.2941 56.9329C17.1176 57.0544 17 57.2569 17 57.4797V57.5203C17 57.7431 17.1078 57.9456 17.2941 58.0671L18.1078 58.614C21.2549 60.7104 23.3824 64.103 23.9314 67.9311L24.8725 74.443C24.9216 74.7671 25.1863 75 25.5 75C25.8137 75 26.0784 74.7671 26.1275 74.443L27.0686 67.9311C27.6274 64.103 29.7451 60.7104 32.8922 58.614L33.7059 58.0671C33.8824 57.9456 34 57.7431 34 57.5203V57.4797C34 57.2569 33.8922 57.0544 33.7059 56.9329L32.8922 56.386Z" fill="#57F287"/>
  <defs>
    <linearGradient id="paint0_linear_4081_61411" x1="126.992" y1="32.9848" x2="126.992" y2="110.992" gradientUnits="userSpaceOnUse">
      <stop offset="0.11" stop-color="#FFC619"/>
      <stop offset="0.26" stop-color="#FFC019"/>
      <stop offset="0.46" stop-color="#FFB019"/>
      <stop offset="0.68" stop-color="#FF9619"/>
      <stop offset="0.75" stop-color="#FF8C19"/>
    </linearGradient>
    <linearGradient id="paint1_linear_4081_61411" x1="118.035" y1="72.0578" x2="92.1019" y2="97.7667" gradientUnits="userSpaceOnUse">
      <stop stop-color="#4970DE"/>
      <stop offset="0.32" stop-color="#5077E6"/>
      <stop offset="0.81" stop-color="#668DFC"/>
      <stop offset="0.86" stop-color="#6990FF"/>
    </linearGradient>
  </defs>
</svg>
