<svg fill="none" height="194" viewBox="0 0 275 194" width="275" xmlns="http://www.w3.org/2000/svg"><rect fill="#00d64f" height="194" rx="33" width="275"/><path clip-rule="evenodd" d="m141.554 65.5117c9.198 0 18.014 3.7246 23.775 8.8373 1.456 1.2934 3.637 1.2855 5.005-.1001l6.853-6.9513c1.447-1.4672 1.394-3.8695-.168-5.2102-4.599-3.9538-10.774-7.8417-18.373-10.3309l2.15-10.2361c.466-2.231-1.233-4.3278-3.514-4.3278h-13.244c-1.694 0-3.159 1.1854-3.512 2.8422l-1.936 9.1034c-17.606.8798-32.528 9.6645-32.528 27.6895 0 15.6043 12.346 22.2923 25.377 26.9203 12.346 4.628 18.86 6.346 18.86 12.86 0 6.688-6.514 10.631-16.118 10.631-8.756 0-17.928-2.89-25.045-9.907-1.396-1.378-3.63-1.388-5.026-.011l-7.3648 7.265c-1.4408 1.42-1.4277 3.754.0237 5.16 5.7421 5.574 13.0121 9.61 21.3101 11.87l-2.021 9.482c-.471 2.224 1.212 4.32 3.488 4.339l13.265.1c1.707.013 3.19-1.18 3.538-2.853l1.915-9.116c21.08-1.302 33.982-12.76 33.982-29.531 0-15.4307-12.857-21.9474-28.461-27.263-8.917-3.261-16.635-5.4868-16.635-12.1721 0-6.5141 7.205-9.0902 14.404-9.0902" fill="#fff" fill-rule="evenodd"/></svg>