<svg width="29" height="34" viewBox="0 0 29 34" fill="none" xmlns="http://www.w3.org/2000/svg">
<g clip-path="url(#clip0_5877_14972)">
<path d="M9.64355 29.5375L9.63394 29.5306C4.16161 25.7262 0.895508 19.5453 0.895508 12.9965V7.31445L1.54471 7.17814C4.92964 6.46691 6.6588 4.8924 7.1516 2.07192L7.26956 1.39563H20.8844L21.0024 2.07192C21.4952 4.8924 23.2243 6.46691 26.6093 7.17814L27.2585 7.31445V12.9965C27.2585 19.5444 23.9915 25.7254 18.52 29.5306L18.4999 29.5437L14.0761 32.4306L9.64268 29.5375H9.64355Z" fill="#8CD9FF"/>
<path d="M20.1985 2.21168C20.8267 5.80544 23.247 7.30568 26.4423 7.97672V12.9964C26.4423 19.2919 23.3187 25.1993 18.0543 28.8604L14.077 31.4554L10.0996 28.8604C4.83611 25.1993 1.71156 19.2919 1.71156 12.9964V7.97672C4.90688 7.30568 7.32719 5.80544 7.95542 2.21168H20.1985ZM21.5712 0.578633H6.58275L6.34596 1.93121C6.11616 3.24533 5.59278 4.22918 4.74611 4.93955C3.96323 5.59661 2.86055 6.06669 1.37516 6.3795L0.0776367 6.65211V12.9973C0.0776367 16.3508 0.9112 19.6999 2.48658 22.6803C4.06021 25.6563 6.36955 28.2575 9.16557 30.2016L9.18567 30.2155L9.20576 30.2287L13.1831 32.8237L14.0761 33.4065L14.9691 32.8237L18.9464 30.2287L18.9665 30.2155L18.9866 30.2016C21.7826 28.2575 24.0919 25.6563 25.6656 22.6803C27.2418 19.699 28.0745 16.3508 28.0745 12.9973V6.65123L26.777 6.37862C25.2916 6.06669 24.1889 5.59574 23.406 4.93867C22.5594 4.22918 22.036 3.24446 21.8062 1.93033L21.5694 0.577759L21.5712 0.578633Z" fill="#2636C7"/>
<path d="M9.08795 3.70239H19.0662C19.6106 6.87238 22.0204 8.50892 24.7885 9.10133V13.215C24.7885 18.7677 22.0824 23.9779 17.5223 27.2064L14.0771 29.4957L10.6319 27.2064C6.07174 23.9779 3.36572 18.7668 3.36572 13.215V9.10133C6.13378 8.50892 8.54447 6.87325 9.08795 3.70239Z" stroke="#45AAF7" stroke-width="0.313678" stroke-miterlimit="10"/>
<path d="M18.7335 11.2351C17.8764 10.8392 16.96 10.55 16.0031 10.3864C15.8846 10.5967 15.7473 10.8801 15.6533 11.1036C14.6357 10.9517 13.6268 10.9517 12.628 11.1036C12.5341 10.8801 12.3924 10.5967 12.2753 10.3864C11.317 10.5514 10.4006 10.8392 9.5435 11.2366C7.81623 13.8194 7.34791 16.3394 7.58207 18.8229C8.72684 19.6702 9.83837 20.1844 10.9297 20.5204C11.2 20.1537 11.4399 19.7637 11.6466 19.3517C11.252 19.2027 10.8747 19.0201 10.5177 18.8083C10.6117 18.7381 10.7042 18.6665 10.7952 18.592C12.972 19.6 15.3382 19.6 17.489 18.592C17.58 18.6665 17.6711 18.7396 17.7665 18.8083C17.408 19.0215 17.0308 19.2041 16.6347 19.3532C16.8414 19.7637 17.0814 20.1552 17.3517 20.5218C18.4444 20.1858 19.5559 19.6716 20.7022 18.8243C20.9768 15.945 20.2324 13.4483 18.7349 11.2366L18.7335 11.2351ZM11.9429 17.2948C11.2896 17.2948 10.7533 16.6915 10.7533 15.9552C10.7533 15.2189 11.278 14.6156 11.9429 14.6156C12.6078 14.6156 13.144 15.2189 13.1325 15.9552C13.1325 16.6915 12.6078 17.2948 11.9429 17.2948ZM16.3384 17.2948C15.6851 17.2948 15.1488 16.6915 15.1488 15.9552C15.1488 15.2189 15.6735 14.6156 16.3384 14.6156C17.0033 14.6156 17.5396 15.2189 17.528 15.9552C17.528 16.6915 17.0033 17.2948 16.3384 17.2948Z" fill="black"/>
<path d="M18.8372 3.70679C18.8372 4.48356 18.2003 5.11353 17.4156 5.11353H10.7541C9.96861 5.11353 9.33252 4.48356 9.33252 3.70679" stroke="#45AAF7" stroke-width="0.315426" stroke-miterlimit="10" stroke-linecap="round"/>
<path d="M20.1985 2.21178C20.8267 5.80554 23.247 7.30578 26.4423 7.97682V12.9966C26.4423 19.292 23.3187 25.1994 18.0543 28.8605L14.077 31.4555L10.0996 28.8605C4.83611 25.1994 1.71156 19.292 1.71156 12.9966V7.97682C4.90688 7.30578 7.32719 5.80554 7.95542 2.21178H20.1985ZM21.5712 0.578735H6.58275L6.34596 1.93131C5.90733 4.44074 4.46739 5.72952 1.37516 6.37873L0.0776367 6.65134V12.9966C0.0776367 19.8118 3.47567 26.2436 9.16644 30.2017L9.18654 30.2157L9.20664 30.2288L13.184 32.8238L14.077 33.4066L14.9699 32.8238L18.9473 30.2288L18.9674 30.2157L18.9875 30.2017C24.6782 26.2444 28.0763 19.8127 28.0763 12.9966V6.65134L26.7787 6.37873C23.6874 5.72865 22.2466 4.44074 21.8079 1.93131L21.5712 0.578735Z" fill="#45AAF7" stroke="#45AAF7" stroke-width="0.156402" stroke-miterlimit="10"/>
</g>
<defs>
<clipPath id="clip0_5877_14972">
<rect width="28.1542" height="33" fill="white" transform="translate(0 0.5)"/>
</clipPath>
</defs>
</svg>
