<svg width="151" height="110" viewBox="0 0 151 110" fill="none" xmlns="http://www.w3.org/2000/svg">
<rect width="151" height="110" rx="8" fill="white"/>
<path fill-rule="evenodd" clip-rule="evenodd" d="M49.8409 50.4566C50.3367 50.4631 50.8151 50.274 51.1725 49.9302C51.5299 49.5864 51.7373 49.1157 51.75 48.6199C51.7376 48.1262 51.5342 47.6565 51.1827 47.3095C50.8312 46.9625 50.3589 46.7652 49.865 46.7591H48.8017C48.3078 46.7652 47.8355 46.9625 47.484 47.3095C47.1325 47.6565 46.9292 48.1262 46.9167 48.6199C46.9293 49.1114 47.1334 49.5786 47.4856 49.9217C47.8377 50.2648 48.31 50.4568 48.8017 50.4566H49.8409ZM88.8217 72.8591C91.0997 71.8943 93.1593 70.4793 94.8769 68.6989C96.5945 66.9185 97.9348 64.8095 98.8172 62.4984C99.6997 60.1873 100.106 57.7217 100.012 55.2497C99.9184 52.7776 99.3261 50.35 98.2709 48.1124C96.7603 44.9894 94.4282 42.3363 91.5248 40.4376C88.6213 38.5388 85.2559 37.466 81.7892 37.3341H62.4559C62.0577 37.2975 61.6562 37.3443 61.2772 37.4716C60.8981 37.5989 60.5497 37.8038 60.2543 38.0733C59.9589 38.3428 59.723 38.6709 59.5615 39.0367C59.4001 39.4025 59.3167 39.798 59.3167 40.1979C59.3167 40.5977 59.4001 40.9932 59.5615 41.359C59.723 41.7248 59.9589 42.053 60.2543 42.3224C60.5497 42.5919 60.8981 42.7969 61.2772 42.9241C61.6562 43.0514 62.0577 43.0982 62.4559 43.0616H67.3617C67.6222 43.0318 67.8861 43.0573 68.1361 43.1366C68.386 43.2159 68.6164 43.3471 68.8121 43.5217C69.0078 43.6963 69.1644 43.9102 69.2716 44.1495C69.3788 44.3888 69.4342 44.6481 69.4342 44.9104C69.4342 45.1726 69.3788 45.4319 69.2716 45.6712C69.1644 45.9105 69.0078 46.1244 68.8121 46.299C68.6164 46.4736 68.386 46.6048 68.1361 46.6841C67.8861 46.7634 67.6222 46.7889 67.3617 46.7591H55.1575C54.6617 46.7591 54.1859 46.9543 53.8331 47.3026C53.4803 47.6509 53.2789 48.1242 53.2725 48.6199C53.2757 48.8643 53.3269 49.1057 53.4234 49.3302C53.5198 49.5548 53.6595 49.7582 53.8346 49.9287C54.0096 50.0993 54.2166 50.2337 54.4435 50.3242C54.6705 50.4148 54.9131 50.4598 55.1575 50.4566H63.8334C64.0777 50.4566 64.3197 50.5047 64.5455 50.5983C64.7712 50.6918 64.9764 50.8288 65.1492 51.0016C65.322 51.1744 65.459 51.3796 65.5525 51.6053C65.6461 51.8311 65.6942 52.0731 65.6942 52.3174C65.6942 52.5618 65.6461 52.8038 65.5525 53.0295C65.459 53.2553 65.322 53.4605 65.1492 53.6332C64.9764 53.806 64.7712 53.9431 64.5455 54.0366C64.3197 54.1301 64.0777 54.1783 63.8334 54.1783H58.42C58.1756 54.1751 57.933 54.2201 57.706 54.3106C57.4791 54.4012 57.2721 54.5356 57.0971 54.7062C56.922 54.8767 56.7823 55.0801 56.6859 55.3046C56.5894 55.5292 56.5382 55.7706 56.535 56.0149C56.5414 56.5107 56.7428 56.9839 57.0956 57.3322C57.4484 57.6805 57.9242 57.8758 58.42 57.8758H62.19C62.4098 59.9183 62.9651 61.9106 63.8334 63.7724C66.014 68.2254 69.8356 71.6599 74.4953 73.3543C79.155 75.0487 84.2901 74.8712 88.8217 72.8591ZM71.2525 60.3166C70.6582 59.0471 70.3245 57.6713 70.2709 56.2706C70.2174 54.8698 70.4452 53.4726 70.9408 52.1614C71.4364 50.8502 72.1899 49.6517 73.1566 48.6366C74.1233 47.6216 75.2837 46.8106 76.5692 46.2516C79.1651 45.0679 82.1223 44.9518 84.8031 45.9282C87.4839 46.9047 89.6736 48.8956 90.9 51.4716C91.4909 52.7417 91.822 54.117 91.8739 55.5169C91.9257 56.9167 91.6973 58.3128 91.202 59.6231C90.7067 60.9334 89.9545 62.1315 88.9896 63.147C88.0247 64.1626 86.8666 64.975 85.5834 65.5366C82.9865 66.7139 80.0318 66.8267 77.3528 65.8509C74.6738 64.875 72.4838 62.8883 71.2525 60.3166V60.3166Z" fill="url(#paint0_linear_105_25)"/>
<path fill-rule="evenodd" clip-rule="evenodd" d="M49.8409 50.4566C50.3367 50.4631 50.8151 50.274 51.1725 49.9302C51.5299 49.5864 51.7373 49.1157 51.75 48.6199C51.7376 48.1262 51.5342 47.6565 51.1827 47.3095C50.8312 46.9625 50.3589 46.7652 49.865 46.7591H48.8017C48.3078 46.7652 47.8355 46.9625 47.484 47.3095C47.1325 47.6565 46.9292 48.1262 46.9167 48.6199C46.9293 49.1114 47.1334 49.5786 47.4856 49.9217C47.8377 50.2648 48.31 50.4568 48.8017 50.4566H49.8409ZM88.8217 72.8591C91.0997 71.8943 93.1593 70.4793 94.8769 68.6989C96.5945 66.9185 97.9348 64.8095 98.8172 62.4984C99.6997 60.1873 100.106 57.7217 100.012 55.2497C99.9184 52.7776 99.3261 50.35 98.2709 48.1124C96.7603 44.9894 94.4282 42.3363 91.5248 40.4376C88.6213 38.5388 85.2559 37.466 81.7892 37.3341H62.4559C62.0577 37.2975 61.6562 37.3443 61.2772 37.4716C60.8981 37.5989 60.5497 37.8038 60.2543 38.0733C59.9589 38.3428 59.723 38.6709 59.5615 39.0367C59.4001 39.4025 59.3167 39.798 59.3167 40.1979C59.3167 40.5977 59.4001 40.9932 59.5615 41.359C59.723 41.7248 59.9589 42.053 60.2543 42.3224C60.5497 42.5919 60.8981 42.7969 61.2772 42.9241C61.6562 43.0514 62.0577 43.0982 62.4559 43.0616H67.3617C67.6222 43.0318 67.8861 43.0573 68.1361 43.1366C68.386 43.2159 68.6164 43.3471 68.8121 43.5217C69.0078 43.6963 69.1644 43.9102 69.2716 44.1495C69.3788 44.3888 69.4342 44.6481 69.4342 44.9104C69.4342 45.1726 69.3788 45.4319 69.2716 45.6712C69.1644 45.9105 69.0078 46.1244 68.8121 46.299C68.6164 46.4736 68.386 46.6048 68.1361 46.6841C67.8861 46.7634 67.6222 46.7889 67.3617 46.7591H55.1575C54.6617 46.7591 54.1859 46.9543 53.8331 47.3026C53.4803 47.6509 53.2789 48.1242 53.2725 48.6199C53.2757 48.8643 53.3269 49.1057 53.4234 49.3302C53.5198 49.5548 53.6595 49.7582 53.8346 49.9287C54.0096 50.0993 54.2166 50.2337 54.4435 50.3242C54.6705 50.4148 54.9131 50.4598 55.1575 50.4566H63.8334C64.0777 50.4566 64.3197 50.5047 64.5455 50.5983C64.7712 50.6918 64.9764 50.8288 65.1492 51.0016C65.322 51.1744 65.459 51.3796 65.5525 51.6053C65.6461 51.8311 65.6942 52.0731 65.6942 52.3174C65.6942 52.5618 65.6461 52.8038 65.5525 53.0295C65.459 53.2553 65.322 53.4605 65.1492 53.6332C64.9764 53.806 64.7712 53.9431 64.5455 54.0366C64.3197 54.1301 64.0777 54.1783 63.8334 54.1783H58.42C58.1756 54.1751 57.933 54.2201 57.706 54.3106C57.4791 54.4012 57.2721 54.5356 57.0971 54.7062C56.922 54.8767 56.7823 55.0801 56.6859 55.3046C56.5894 55.5292 56.5382 55.7706 56.535 56.0149C56.5414 56.5107 56.7428 56.9839 57.0956 57.3322C57.4484 57.6805 57.9242 57.8758 58.42 57.8758H62.19C62.4098 59.9183 62.9651 61.9106 63.8334 63.7724C66.014 68.2254 69.8356 71.6599 74.4953 73.3543C79.155 75.0487 84.2901 74.8712 88.8217 72.8591ZM71.2525 60.3166C70.6582 59.0471 70.3245 57.6713 70.2709 56.2706C70.2174 54.8698 70.4452 53.4726 70.9408 52.1614C71.4364 50.8502 72.1899 49.6517 73.1566 48.6366C74.1233 47.6216 75.2837 46.8106 76.5692 46.2516C79.1651 45.0679 82.1223 44.9518 84.8031 45.9282C87.4839 46.9047 89.6736 48.8956 90.9 51.4716C91.4909 52.7417 91.822 54.117 91.8739 55.5169C91.9257 56.9167 91.6973 58.3128 91.202 59.6231C90.7067 60.9334 89.9545 62.1315 88.9896 63.147C88.0247 64.1626 86.8666 64.975 85.5834 65.5366C82.9865 66.7139 80.0318 66.8267 77.3528 65.8509C74.6738 64.875 72.4838 62.8883 71.2525 60.3166V60.3166Z" fill="url(#paint1_linear_105_25)"/>
<path d="M84.5683 49.5142H77.6325C77.517 49.5127 77.4031 49.5409 77.3016 49.5958C77.2001 49.6508 77.1143 49.7309 77.0525 49.8284L73.5 55.6284C73.4407 55.7357 73.4097 55.8562 73.4097 55.9788C73.4097 56.1014 73.4407 56.2219 73.5 56.3292L77.0525 62.25C77.1094 62.3537 77.1935 62.44 77.2956 62.4995C77.3978 62.5591 77.5142 62.5898 77.6325 62.5884H84.5683C84.6866 62.5898 84.803 62.5591 84.9052 62.4995C85.0073 62.44 85.0914 62.3537 85.1483 62.25L88.6041 56.45C88.6634 56.3428 88.6944 56.2222 88.6944 56.0996C88.6944 55.9771 88.6634 55.8565 88.6041 55.7492L85.1483 49.9492C85.1029 49.8292 85.0242 49.7245 84.9215 49.6475C84.8188 49.5705 84.6963 49.5242 84.5683 49.5142V49.5142Z" fill="#C5CEDD"/>
<path d="M84.5683 49.5142H77.6325C77.517 49.5127 77.4031 49.5409 77.3016 49.5958C77.2001 49.6508 77.1143 49.7309 77.0525 49.8284L73.5 55.6284C73.4407 55.7357 73.4097 55.8562 73.4097 55.9788C73.4097 56.1014 73.4407 56.2219 73.5 56.3292L77.0525 62.25C77.1094 62.3537 77.1935 62.44 77.2956 62.4995C77.3978 62.5591 77.5142 62.5898 77.6325 62.5884H84.5683C84.6866 62.5898 84.803 62.5591 84.9052 62.4995C85.0073 62.44 85.0914 62.3537 85.1483 62.25L88.6041 56.45C88.6634 56.3428 88.6944 56.2222 88.6944 56.0996C88.6944 55.9771 88.6634 55.8565 88.6041 55.7492L85.1483 49.9492C85.1029 49.8292 85.0242 49.7245 84.9215 49.6475C84.8188 49.5705 84.6963 49.5242 84.5683 49.5142V49.5142Z" fill="url(#paint2_linear_105_25)"/>
<defs>
<linearGradient id="paint0_linear_105_25" x1="98.674" y1="37.322" x2="45.071" y2="40.2063" gradientUnits="userSpaceOnUse">
<stop offset="0.155516" stop-color="#007CC2"/>
<stop offset="0.523438" stop-color="#1776CF"/>
<stop offset="1" stop-color="#5865F2"/>
</linearGradient>
<linearGradient id="paint1_linear_105_25" x1="46.9167" y1="37.322" x2="101.505" y2="44.2381" gradientUnits="userSpaceOnUse">
<stop stop-color="#8547C6"/>
<stop offset="0.348958" stop-color="#5C46F8"/>
<stop offset="0.791667" stop-color="#B845C1"/>
</linearGradient>
<linearGradient id="paint2_linear_105_25" x1="73.4097" y1="49.5142" x2="89.2025" y2="51.152" gradientUnits="userSpaceOnUse">
<stop stop-color="#8547C6"/>
<stop offset="0.348958" stop-color="#5C46F8"/>
<stop offset="0.791667" stop-color="#B845C1"/>
</linearGradient>
</defs>
</svg>
