<svg width="114" height="171" viewBox="0 0 114 171" fill="none" xmlns="http://www.w3.org/2000/svg">
<g clip-path="url(#clip0_406_11342)">
<mask id="mask0_406_11342" style="mask-type:luminance" maskUnits="userSpaceOnUse" x="0" y="0" width="114" height="171">
<path d="M114 0H0V171H114V0Z" fill="white"/>
</mask>
<g mask="url(#mask0_406_11342)">
<path d="M84.1999 85.2C84.1999 85.2 56.7999 76.1 50.5999 49.4C43.2999 18.2 70.0999 -5.30005 70.0999 -5.30005L38.7999 -1.10005C38.7999 -1.10005 22.9999 5.99995 6.49989 38.5C-9.70011 70.2 11.8999 121.3 20.7999 132.3C31.9999 146.1 54.7999 167.4 79.8999 162.3C101.2 158 115 137.2 110.7 115.9C106.8 96.6 84.1999 85.2 84.1999 85.2Z" fill="#FFA9FF"/>
<mask id="mask1_406_11342" style="mask-type:luminance" maskUnits="userSpaceOnUse" x="0" y="-6" width="112" height="170">
<path d="M84.1999 85.2C84.1999 85.2 56.7999 76.1 50.5999 49.4C43.2999 18.2 70.0999 -5.30005 70.0999 -5.30005L38.7999 -1.10005C38.7999 -1.10005 22.9999 5.99995 6.49989 38.5C-9.70011 70.2 11.8999 121.3 20.7999 132.3C31.9999 146.1 54.7999 167.4 79.8999 162.3C101.2 158 115 137.2 110.7 115.9C106.8 96.6 84.1999 85.2 84.1999 85.2Z" fill="white"/>
</mask>
<g mask="url(#mask1_406_11342)">
<path d="M-28.8003 43.5L55.5997 44.6L60.2997 56.7L-20.0003 124.5L-28.8003 43.5Z" fill="#FF6DBB"/>
</g>
<path d="M62.8996 83.1998C40.2996 87.7998 25.5996 109.8 30.1996 132.5C34.7996 155.2 56.7996 169.8 79.4996 165.2C102.2 160.6 116.8 138.6 112.2 115.9C107.6 93.2999 85.5996 78.5998 62.8996 83.1998ZM75.2996 144.7C63.9996 147 52.8996 139.7 50.6996 128.3C48.3996 117 55.6996 105.9 67.0996 103.7C78.4996 101.5 89.4996 108.7 91.6996 120.1C93.8996 131.5 86.6996 142.4 75.2996 144.7Z" fill="white"/>
<path d="M71 134.6C76.799 134.6 81.5 129.899 81.5 124.1C81.5 118.301 76.799 113.6 71 113.6C65.201 113.6 60.5 118.301 60.5 124.1C60.5 129.899 65.201 134.6 71 134.6Z" fill="white"/>
<path d="M29.6999 85.4998C32.9999 91.3998 37.6999 96.8998 42.6999 101.5C44.3999 103 46.1999 104.5 47.9999 105.7C55.0999 111.1 47.7999 121.6 40.2999 116.7C37.8999 114.7 35.7999 112.4 33.7999 110.2C28.3999 103.9 23.8999 97.1998 20.8999 89.4998C18.6999 83.5998 26.7999 80.0998 29.6999 85.4998Z" fill="white"/>
<path d="M20.8997 77.2999C18.8997 77.6999 16.8997 76.5999 16.2997 74.5999C15.4997 72.1999 15.3997 70.6999 15.2997 68.3999V67.7999C15.0997 65.5999 16.7997 63.6999 18.9997 63.4999C21.1997 63.2999 23.0997 64.9999 23.2997 67.1999V67.7999C23.3997 69.7999 23.4997 70.5999 23.9997 72.0999C24.6997 74.1999 23.4997 76.4999 21.3997 77.0999C21.1997 77.2999 20.9997 77.2999 20.8997 77.2999Z" fill="white"/>
<path d="M47.4 80.2998C50.5 83.8998 54.3 87.2998 59.2 87.8998C60.1 87.9998 61.1 88.0998 62 88.0998H63.4C66.7 88.0998 69.3 90.7998 69.3 93.9998C69.3 97.4998 66.2 100.3 62.7 99.8998C62.4 99.8998 61.1 99.6998 60.8 99.6998C55.3 99.0998 50.6 96.9998 46.5 93.3998C46.3 93.1998 46.1 92.9998 45.9 92.7998C45.3 92.2998 44.6 91.5998 44.1 90.9998C42.5 89.3998 41.3 87.5998 40 85.7998C36.5 80.7998 43.5 75.6998 47.4 80.2998Z" fill="white"/>
<path d="M16.6997 112.7L34.1997 108.4L36.7997 122.6L29.2997 130.5L16.6997 112.7Z" fill="white"/>
<path d="M30 105.6L33.2 109.7C35 112.1 34.8 115.4 32.6 117.5C30 119.9 25.4 120 23.1 116.9C23.1 116.9 21.1 114.3 19.6 111.6C18.2 109.1 24.5 109.8 24.5 109.8L30 105.6Z" fill="#FFA9FF"/>
<path d="M41.5 88.2998L45.9 92.7998C47.6 94.4998 47.6 97.1998 45.9 98.8998C44.1 100.8 41 100.6 39.3 98.4998L36.5 94.9998L34.5 89.5998L41.5 88.2998Z" fill="#FFA9FF"/>
<path d="M60.4998 164.6C39.0998 159.5 16.6998 133.7 9.59981 108.4C9.09981 106.5 9.99981 104.4 11.7998 103.6C13.7998 102.7 16.1998 103.5 17.1998 105.5C19.8998 111 22.8998 116.5 26.3998 121.5C30.6998 127.7 35.9998 133.3 42.3998 137.2C45.7998 148.3 53.4998 155.5 60.4998 164.6Z" fill="white"/>
<path d="M98 34.4C98 34.4 98.1 19.5 103.5 10.2C109.8 -0.799999 119.7 -10.5 119.7 -10.5C119.7 -10.5 108.1 -8.6 94.7 -3C80.4 3 67.2 18.5 64.6 29.4C62.5 37.7 62.4 47.3 71.5 53.7C79.3 59.1 89.9 57.2 95.3 49.4C100.2 42.3 98 34.4 98 34.4Z" fill="#FFA9FF"/>
<mask id="mask2_406_11342" style="mask-type:luminance" maskUnits="userSpaceOnUse" x="63" y="-11" width="57" height="68">
<path d="M98 34.4C98 34.4 98.1 19.5 103.5 10.2C109.8 -0.799999 119.7 -10.5 119.7 -10.5C119.7 -10.5 108.1 -8.6 94.7 -3C80.4 3 67.2 18.5 64.6 29.4C62.5 37.7 62.4 47.3 71.5 53.7C79.3 59.1 89.9 57.2 95.3 49.4C100.2 42.3 98 34.4 98 34.4Z" fill="white"/>
</mask>
<g mask="url(#mask2_406_11342)">
<path d="M81.9001 -10.3L113 14.5L111.3 18.1L67.1001 11.9L81.9001 -10.3Z" fill="#FF6DBB"/>
</g>
<path d="M93.6001 27C86.9001 20 75.8001 19.8 68.8001 26.6C61.8001 33.4 61.7001 44.4 68.4001 51.4C75.1001 58.4 86.2001 58.5 93.2001 51.8C100.2 45.1 100.3 33.9 93.6001 27ZM74.7001 45.2C71.3001 41.7 71.4001 36.2 74.9001 32.8C78.4001 29.4 83.9002 29.5 87.3001 33C90.7001 36.5 90.6001 42 87.1001 45.4C83.6001 48.8 78.1001 48.7 74.7001 45.2Z" fill="white"/>
<path d="M81.0001 43.5C83.4302 43.5 85.4001 41.53 85.4001 39.0999C85.4001 36.6699 83.4302 34.7 81.0001 34.7C78.57 34.7 76.6001 36.6699 76.6001 39.0999C76.6001 41.53 78.57 43.5 81.0001 43.5Z" fill="white"/>
<path d="M85.3001 15.8C83.9001 18.3 83.1001 21.2 82.6001 24C82.4001 24.9 82.3001 25.9 82.3001 26.8C82.0001 30.5 76.6001 30.3 76.7001 26.6C76.8001 25.3 77.2001 24 77.5001 22.8C78.5001 19.5 79.9001 16.4 81.9001 13.5C83.5001 11.5 86.5001 13.5 85.3001 15.8Z" fill="white"/>
<path d="M86.2002 10.8C85.6002 10.2 85.6002 9.2 86.1002 8.6C86.8002 7.8 87.3002 7.4 88.0002 6.8L88.2002 6.7C89.0002 6.1 90.0002 6.3 90.6002 7C91.2002 7.7 91.0002 8.8 90.3002 9.4L90.0002 9.5C89.3002 10 89.0002 10.2 88.6002 10.7C88.0002 11.4 86.9002 11.5 86.2002 10.9C86.3002 10.9 86.2002 10.8 86.2002 10.8Z" fill="white"/>
<path d="M91.0999 20.8C90.4999 22.7 90.1999 24.8 91.0999 26.7C91.2999 27 91.4999 27.4 91.6999 27.7L91.9999 28.2C92.6999 29.4 92.3999 30.9 91.1999 31.6C89.9999 32.4 88.2999 31.9 87.5999 30.6C87.4999 30.5 87.2999 30 87.1999 29.9C86.1999 27.8 85.8999 25.7 86.1999 23.4C86.1999 23.3 86.1999 23.1 86.2999 23C86.3999 22.7 86.3999 22.3 86.4999 22C86.6999 21.1 87.0999 20.2 87.3999 19.4C88.4999 17.1 91.8999 18.4 91.0999 20.8Z" fill="white"/>
<path d="M72.8003 17.3L78.2003 22.5L73.8003 26.6L69.3003 25.8L72.8003 17.3Z" fill="white"/>
<path d="M78.3003 20.4L77.6003 22.5C77.2003 23.7 75.9003 24.3 74.7003 24C73.3003 23.6 72.2003 22 72.8003 20.5C72.8003 20.5 73.3003 19.2 73.9003 18.1C74.5003 17 75.7003 19.4 75.7003 19.4L78.3003 20.4Z" fill="#FFA9FF"/>
<path d="M86.9001 20.6L86.3001 23.2C86.1001 24.2 85.1001 24.8 84.1001 24.6C83.0001 24.4 82.4001 23.2 82.8001 22.2L83.4001 20.4L84.9001 18.5L86.9001 20.6Z" fill="#FFA9FF"/>
<path d="M64.3001 44.4999C61.3001 35.7999 65.3001 21.9999 72.6001 13.7999C73.2001 13.1999 74.1001 12.9999 74.8001 13.4999C75.6001 13.9999 75.8001 14.9999 75.3001 15.7999C73.9001 17.9999 72.7001 20.2999 71.7001 22.6999C70.5001 25.5999 69.7001 28.6999 69.7001 31.8999C66.8001 35.5999 65.9001 39.9999 64.3001 44.4999Z" fill="white"/>
</g>
</g>
<defs>
<clipPath id="clip0_406_11342">
<rect width="114" height="171" fill="white"/>
</clipPath>
</defs>
</svg>
