<svg width="379" height="162" viewBox="0 0 379 162" fill="none" xmlns="http://www.w3.org/2000/svg">
<path d="M79.81 162H95.91L112.71 132.52H79.81V162Z" fill="#CA1580"/>
<path d="M330.71 162H314.62L297.81 132.52H330.71V162Z" fill="#B0E5FF"/>
<path d="M330.71 162H314.62L297.81 132.52H330.71V162Z" fill="#CA1580"/>
<path d="M103.59 148.52L112.71 132.52H79.81V148.52H103.59Z" fill="black"/>
<path d="M301.12 138.33L306.93 148.52H330.71V132.52H301.12V138.33Z" fill="black"/>
<path d="M345.76 32.4099C345.76 27.4399 341.73 23.4099 336.76 23.4099H73.76C68.79 23.4099 64.76 27.4399 64.76 32.4099V122.51H345.76V32.4099Z" fill="#FFE05C"/>
<path d="M150.7 23.51H147.7V130.51H150.7V23.51Z" fill="#FFBF1C"/>
<path d="M257 23.51H254V130.51H257V23.51Z" fill="#FFBF1C"/>
<path d="M64.76 122.51V133.26C64.76 138.23 68.79 142.26 73.76 142.26H336.76C341.73 142.26 345.76 138.23 345.76 133.26V122.51H64.76Z" fill="#FFBF1C"/>
<path d="M349.26 142.26H330.26V83.26C330.26 79.95 332.95 77.26 336.26 77.26H361.26C364.57 77.26 367.26 79.95 367.26 83.26V124.26C367.26 134.2 359.2 142.26 349.26 142.26Z" fill="#FFBF1C"/>
<path d="M80.26 142.26H61.26C51.32 142.26 43.26 134.2 43.26 124.26V87.08C43.26 81.66 47.66 77.26 53.08 77.26H70.44C75.86 77.26 80.26 81.66 80.26 87.08V142.26Z" fill="#FFBF1C"/>
<path d="M349.26 142.26H330.26V83.26C330.26 79.95 332.95 77.26 336.26 77.26H361.26C364.57 77.26 367.26 79.95 367.26 83.26V124.26C367.26 134.2 359.2 142.26 349.26 142.26Z" fill="#FFBF1C"/>
<path d="M80.26 142.26H61.26C51.32 142.26 43.26 134.2 43.26 124.26V87.08C43.26 81.66 47.66 77.26 53.08 77.26H70.44C75.86 77.26 80.26 81.66 80.26 87.08V142.26Z" fill="#FFBF1C"/>
<path d="M327.26 111.51H83.26C81.6032 111.51 80.26 112.853 80.26 114.51V123.51C80.26 125.167 81.6032 126.51 83.26 126.51H327.26C328.917 126.51 330.26 125.167 330.26 123.51V114.51C330.26 112.853 328.917 111.51 327.26 111.51Z" fill="#FFEB9F"/>
<path d="M343.77 86.51H352.43C354.09 86.51 355.43 87.85 355.43 89.51V120.51C355.43 123.82 352.74 126.51 349.43 126.51H343.77C342.11 126.51 340.77 125.17 340.77 123.51V89.51C340.77 87.85 342.11 86.51 343.77 86.51Z" fill="#FF851C"/>
<path d="M58.09 86.51H66.75C68.41 86.51 69.75 87.85 69.75 89.51V123.51C69.75 125.17 68.41 126.51 66.75 126.51H61.09C57.78 126.51 55.09 123.82 55.09 120.51V89.51C55.09 87.85 56.43 86.51 58.09 86.51Z" fill="#FF851C"/>
<path d="M346.42 77.47H342.24L311.01 77.51V58.51H353.01V70.93C353.01 74.57 350.06 77.48 346.43 77.48L346.42 77.47Z" fill="url(#paint0_linear_3632_7028)"/>
<path d="M317.85 86.78C315.99 72.53 314.57 65.06 314.57 65.06L293.52 60.84L295.88 58.59L271.75 48.99L248.29 62.31C241.98 66.39 240.25 73.16 239.88 77.95C239.55 82.3 241.13 86.68 244.5 89.44C247.87 92.2 251.63 92.73 256 91.49C251 103.49 253.29 111.15 263 115.49C275.87 121.24 296.37 120.67 308.07 117.4C319.78 114.14 319.71 101.02 317.85 86.76V86.78Z" fill="url(#paint1_linear_3632_7028)"/>
<path d="M261.5 78.5101C261.12 78.5101 260.73 78.3601 260.44 78.0701C259.85 77.4801 259.85 76.5301 260.44 75.9501L270.44 65.9501C271.03 65.3601 271.98 65.3601 272.56 65.9501C273.14 66.5401 273.15 67.4901 272.56 68.0701L262.56 78.0701C262.27 78.3601 261.88 78.5101 261.5 78.5101Z" fill="#415BD0"/>
<path d="M327.31 101.05C324.43 92.9199 314.3 90.2999 307.56 93.7899L288.06 103.23C282.38 106.08 277.76 110.8 275.43 116.7C272.34 124.54 272.85 131.9 277.93 136.57C287.25 145.14 299.19 129.88 301.24 128.71C302.79 127.92 315.6 122.08 319.88 119.66C329.01 114.5 329.76 107.96 327.31 101.04V101.05Z" fill="url(#paint2_linear_3632_7028)"/>
<path d="M266 50.51C266 50.51 306 95.51 313.48 65.16L266 50.51Z" fill="#425DD4"/>
<path d="M258.5 23.51C260.39 17.74 261.41 15.35 263.62 10.97C266.68 4.90002 272.86 1.47002 279.37 2.07002C281.71 2.29002 285.44 3.04002 289.59 4.04002C289.93 4.12002 290.27 4.20002 290.62 4.29002C295.51 5.49002 300.88 6.98002 305.21 8.29002C313.56 10.81 325.35 14.84 329.89 17.29C335.49 20.32 338.62 26.47 337.8 33.09C337.21 37.87 336.74 40.38 335.13 46.12C333.52 51.9 332.61 54.32 330.6 58.8C327.78 65.09 321.76 68.81 315.24 68.33C309.94 67.95 297.47 64.85 288.83 62.36C280.16 59.86 267.81 55.79 263.04 53.25C257.15 50.12 254.05 43.67 255.19 36.77C256 31.85 256.6 29.29 258.5 23.49V23.51Z" fill="#698EFF"/>
<path d="M312.94 33.38C305.07 29.96 296.36 27.26 288.57 26.45C283.64 25.94 279 28.48 277.2 32.81C276.37 34.82 275.62 36.9 275.02 39.05C272.79 46.97 277.63 55.33 285.87 58.21C289.76 59.57 293.91 60.9 298.01 62.02C306.92 64.45 316.05 59.62 318.23 51.19C318.78 49.06 319.24 46.93 319.57 44.85C320.34 40.13 317.59 35.41 312.94 33.39V33.38Z" fill="#B5CAFF"/>
<path d="M298.89 54.8101L303.54 56.2501" stroke="#698EFF" stroke-width="3.58" stroke-miterlimit="10" stroke-linecap="round"/>
<path d="M288.01 51.4399L292.84 52.9299" stroke="#698EFF" stroke-width="3.58" stroke-miterlimit="10" stroke-linecap="round"/>
<path d="M266.67 9.04013C255.41 4.89013 252.37 2.41013 246.09 19.1301C240.39 34.0301 243.63 34.2901 255.73 38.7301L266.68 9.04013H266.67Z" fill="#698EFF"/>
<path d="M334.26 30.02C345.21 34.17 349.04 34.29 342.97 50.63C337.64 65.26 335.08 63.37 323.33 58.9L334.27 30.03L334.26 30.02Z" fill="#698EFF"/>
<path d="M262.6 16.6701L256.06 34.4001C247.66 31.1301 248.27 30.7001 251.63 21.1001C254.36 13.2901 256.01 14.0601 262.6 16.6701Z" fill="#B5CAFF"/>
<path d="M323 14.3C320.52 8.49999 312.04 8.47999 312.02 8.46999C303.74 -1.27001 289.58 4.02999 289.58 4.02999L291.61 4.71999C293.07 5.21999 294.26 6.28999 294.89 7.69999C296.52 11.36 297.92 17.3 297.1 26.48C295.36 46.23 322.54 47.79 324.7 31.86C325.9 23.06 324.49 17.5 322.99 14.29L323 14.3Z" fill="url(#paint3_linear_3632_7028)"/>
<path d="M314.21 26.9C314.11 27.72 314.7 28.47 315.52 28.57C315.58 28.57 315.64 28.58 315.7 28.58C316.45 28.58 317.1 28.02 317.19 27.26C318.22 18.69 317.15 12.84 315.65 8.96999C313.95 8.56999 312.54 8.49999 312.15 8.48999C313.77 11.74 315.35 17.5 314.22 26.91L314.21 26.9Z" fill="#232145"/>
<path d="M269.02 38.02C268.44 38.02 267.86 37.93 267.29 37.76C265.32 37.14 263.88 35.55 263.42 33.51C263.24 32.7 263.75 31.9 264.56 31.72C265.37 31.54 266.17 32.05 266.35 32.86C266.57 33.84 267.26 34.6 268.19 34.9C269.09 35.18 270.08 34.98 270.85 34.36C271.49 33.84 272.44 33.94 272.96 34.59C273.48 35.24 273.38 36.18 272.73 36.7C271.65 37.57 270.34 38.03 269.01 38.03L269.02 38.02Z" fill="#232145"/>
<path d="M325.27 55.1599C324.69 55.1599 324.11 55.0699 323.55 54.8999C322.08 54.4399 320.89 53.4199 320.18 52.0399C319.8 51.2999 320.1 50.3999 320.84 50.0199C321.58 49.6499 322.48 49.9399 322.86 50.6799C323.19 51.3399 323.76 51.8199 324.45 52.0399C325.35 52.3199 326.34 52.1199 327.11 51.4999C327.76 50.9799 328.7 51.0799 329.22 51.7299C329.74 52.3799 329.64 53.3199 328.99 53.8399C327.91 54.7099 326.6 55.1599 325.27 55.1599Z" fill="#232145"/>
<path d="M331.21 50.5801C331 45.9501 334 34.9501 341 32.9501C348 30.9501 353 35.9501 349 48.9501C349 48.9501 352.63 53.1301 356 62.5101C359.68 72.7701 352.6 77.4701 350 77.4701C348.55 77.4701 347.71 77.4701 346.65 77.4701C341 77.5101 338 69.5101 338 69.5101C338 69.5101 331.48 56.4901 331.21 50.5801Z" fill="url(#paint4_linear_3632_7028)"/>
<path d="M222.74 68.34C223.49 67.67 223.95 66.78 223.95 65.81C223.95 64.23 222.75 62.87 221.04 62.32C220.55 62.16 220.02 62.07 219.47 62.05C219.42 62.05 219.37 62.05 219.31 62.05C216.75 62.05 215.64 63.3801 213.69 65.2201C212.51 66.3301 210.76 67.55 209.38 68.46L222.74 68.34Z" fill="#20C57A"/>
<path d="M217.88 68.4799L207.68 68.5999C204.36 67.8099 202.5 65.4099 202.69 62.4399C202.83 60.2699 204.86 58.4699 207.54 58.5099C210.64 58.5499 211.93 60.5799 213.2 62.3499C216.02 66.2699 217.88 68.4899 217.88 68.4899V68.4799Z" fill="#20C57A"/>
<path d="M220.53 111.51H208.86C205.12 111.51 202.28 108.14 202.92 104.45L205.69 88.51H223.69L226.46 104.45C227.1 108.14 224.26 111.51 220.52 111.51H220.53Z" fill="#698EFF"/>
<path d="M208.17 97.95L201.02 98.99C198.71 99.33 196.65 97.53 196.67 95.19C196.69 92.86 198.78 91.09 201.08 91.47L208.22 92.63L208.18 97.95H208.17Z" fill="url(#paint5_linear_3632_7028)"/>
<path d="M219.7 97.95L212.55 98.99C210.24 99.33 208.18 97.53 208.2 95.19C208.22 92.86 210.31 91.09 212.61 91.47L219.75 92.63L219.71 97.95H219.7Z" fill="url(#paint6_linear_3632_7028)"/>
<path d="M195.35 73.35C196.34 73.28 197.1 73.25 198.09 73.25C198.33 73.25 198.53 73.44 198.53 73.68L198.51 84.28C198.51 84.51 198.31 84.71 198.07 84.71C197.08 84.71 196.32 84.67 195.33 84.6C193.63 84.48 192.29 83.16 192.17 81.53C192.05 79.9 192.04 78.12 192.18 76.41C192.32 74.7 193.65 73.47 195.35 73.35Z" fill="#698EFF"/>
<path d="M195.88 75.1501C196.61 75.1001 196.86 75.0801 197.87 75.0701C198.24 75.0701 198.53 75.3201 198.53 75.6201V81.2901C198.52 81.6001 198.22 81.8401 197.85 81.8401C196.84 81.8401 196.59 81.8101 195.86 81.7501C195.06 81.6901 194.41 81.2001 194.33 80.5901C194.19 79.4601 194.19 77.4401 194.33 76.3001C194.41 75.6801 195.06 75.2001 195.86 75.1401L195.88 75.1501Z" fill="#B9CBF9"/>
<path d="M234.6 76.41C234.47 74.77 233.13 73.47 231.43 73.35C230.94 73.32 230.51 73.29 230.07 73.28C229.54 70.66 227.48 68.66 224.75 68.14C222.48 67.7 216.88 67.51 212.99 67.51C209.1 67.51 203.5 67.7 201.23 68.14C198.42 68.68 196.31 70.77 195.86 73.51C195.54 75.48 195.44 76.52 195.44 78.96C195.44 81.4 195.54 82.45 195.86 84.41C196.31 87.15 198.42 89.24 201.23 89.78C203.5 90.22 209.1 90.41 212.99 90.41C216.88 90.41 222.48 90.22 224.75 89.78C227.46 89.26 229.51 87.29 230.05 84.68C230.5 84.66 230.94 84.64 231.44 84.6C233.14 84.48 234.48 83.16 234.6 81.53C234.73 79.82 234.73 78.12 234.59 76.41H234.6Z" fill="#698EFF"/>
<path d="M215.91 72.3301C211.92 71.8601 207.64 71.8401 204.04 72.5301C201.76 72.9701 200.02 74.7401 199.81 76.9201C199.71 77.9301 199.66 78.9701 199.68 80.0101C199.76 83.8601 203.06 86.9601 207.15 87.1301C209.08 87.2101 211.12 87.2401 213.11 87.1901C217.43 87.0701 220.87 83.6601 220.71 79.5801C220.67 78.5501 220.58 77.5301 220.45 76.5501C220.15 74.3301 218.28 72.5901 215.92 72.3101L215.91 72.3301Z" fill="#B5CAFF"/>
<path d="M206.37 81.04H204.8C203.96 81.04 203.29 81.65 203.29 82.4C203.29 83.15 203.97 83.75 204.81 83.75H206.38C207.22 83.75 207.89 83.14 207.89 82.39C207.89 81.64 207.21 81.04 206.37 81.04Z" fill="#698EFF"/>
<path d="M213.74 81.03H212.17C211.33 81.03 210.66 81.64 210.66 82.39C210.66 83.14 211.34 83.74 212.18 83.74H213.75C214.59 83.74 215.26 83.13 215.26 82.38C215.26 81.63 214.58 81.03 213.74 81.03Z" fill="#698EFF"/>
<path d="M230.9 75.1501C230.17 75.1001 229.92 75.0801 228.91 75.0701C228.54 75.0701 228.25 75.3201 228.25 75.6201V81.2901C228.26 81.6001 228.56 81.8401 228.93 81.8401C229.94 81.8401 230.19 81.8101 230.92 81.7501C231.72 81.6901 232.37 81.2001 232.45 80.5901C232.59 79.4601 232.59 77.4401 232.45 76.3001C232.37 75.6801 231.72 75.2001 230.92 75.1401L230.9 75.1501Z" fill="#B9CBF9"/>
<path d="M208.87 111.51L199.96 111.42C197.09 111.39 194.91 108.81 195.38 105.97C195.84 103.13 198.73 101.38 201.46 102.27L209.93 105.03L208.87 111.5V111.51Z" fill="url(#paint7_linear_3632_7028)"/>
<path d="M220.87 111.51L211.96 111.42C209.09 111.39 206.91 108.81 207.38 105.97C207.84 103.13 210.73 101.38 213.46 102.27L221.93 105.03L220.87 111.5V111.51Z" fill="url(#paint8_linear_3632_7028)"/>
<path d="M364.2 12.7101C361.94 11.2501 360.42 8.90007 360.02 6.24007L359.34 1.71007C359.31 1.49007 359.12 1.32007 358.89 1.32007C358.66 1.32007 358.47 1.48007 358.44 1.71007L357.76 6.24007C357.36 8.90007 355.84 11.2601 353.58 12.7101L352.99 13.0901C352.86 13.1701 352.78 13.3201 352.78 13.4701V13.5001C352.78 13.6501 352.86 13.8001 352.99 13.8801L353.58 14.2601C355.84 15.7201 357.36 18.0701 357.76 20.7301L358.44 25.2601C358.47 25.4801 358.66 25.6501 358.89 25.6501C359.12 25.6501 359.31 25.4901 359.34 25.2601L360.02 20.7301C360.42 18.0701 361.94 15.7101 364.2 14.2601L364.79 13.8801C364.92 13.8001 365 13.6501 365 13.5001V13.4701C365 13.3201 364.92 13.1701 364.79 13.0901L364.2 12.7101Z" fill="#E44598"/>
<path d="M51.14 12.0499C48.88 10.5899 47.36 8.23991 46.96 5.57991L46.28 1.04991C46.25 0.829912 46.06 0.659912 45.83 0.659912C45.6 0.659912 45.41 0.819912 45.38 1.04991L44.7 5.57991C44.3 8.23991 42.78 10.5999 40.52 12.0499L39.93 12.4299C39.8 12.5099 39.72 12.6599 39.72 12.8099V12.8399C39.72 12.9899 39.8 13.1399 39.93 13.2199L40.52 13.5999C42.78 15.0599 44.3 17.4099 44.7 20.0699L45.38 24.5999C45.41 24.8199 45.6 24.9899 45.83 24.9899C46.06 24.9899 46.25 24.8299 46.28 24.5999L46.96 20.0699C47.36 17.4099 48.88 15.0499 51.14 13.5999L51.73 13.2199C51.86 13.1399 51.94 12.9899 51.94 12.8399V12.8099C51.94 12.6599 51.86 12.5099 51.73 12.4299L51.14 12.0499Z" fill="#5B65EB"/>
<path d="M375.52 35.96C373.8 34.85 372.63 33.05 372.33 31.02L371.81 27.57C371.78 27.4 371.64 27.27 371.47 27.27C371.3 27.27 371.15 27.4 371.13 27.57L370.61 31.02C370.31 33.05 369.14 34.85 367.42 35.96L366.97 36.25C366.87 36.31 366.81 36.42 366.81 36.54V36.56C366.81 36.68 366.87 36.79 366.97 36.85L367.42 37.14C369.14 38.25 370.31 40.05 370.61 42.08L371.13 45.53C371.16 45.7 371.3 45.83 371.47 45.83C371.64 45.83 371.79 45.7 371.81 45.53L372.33 42.08C372.63 40.05 373.8 38.25 375.52 37.14L375.97 36.85C376.07 36.79 376.13 36.68 376.13 36.56V36.54C376.13 36.42 376.07 36.31 375.97 36.25L375.52 35.96Z" fill="#FFE05C"/>
<path d="M187.52 62.96C185.8 61.85 184.63 60.05 184.33 58.02L183.81 54.57C183.78 54.4 183.64 54.27 183.47 54.27C183.3 54.27 183.15 54.4 183.13 54.57L182.61 58.02C182.31 60.05 181.14 61.85 179.42 62.96L178.97 63.25C178.87 63.31 178.81 63.42 178.81 63.54V63.56C178.81 63.68 178.87 63.79 178.97 63.85L179.42 64.14C181.14 65.25 182.31 67.05 182.61 69.08L183.13 72.53C183.16 72.7 183.3 72.83 183.47 72.83C183.64 72.83 183.79 72.7 183.81 72.53L184.33 69.08C184.63 67.05 185.8 65.25 187.52 64.14L187.97 63.85C188.07 63.79 188.13 63.68 188.13 63.56V63.54C188.13 63.42 188.07 63.31 187.97 63.25L187.52 62.96Z" fill="#FFE05C"/>
<path d="M10.67 85.5101C8.94999 84.4001 7.77999 82.6001 7.47999 80.5701L6.95999 77.1201C6.92999 76.9501 6.78999 76.8201 6.61999 76.8201C6.44999 76.8201 6.29999 76.9501 6.27999 77.1201L5.75999 80.5701C5.45999 82.6001 4.28999 84.4001 2.56999 85.5101L2.11999 85.8001C2.01999 85.8601 1.95999 85.9701 1.95999 86.0901V86.1101C1.95999 86.2301 2.01999 86.3401 2.11999 86.4001L2.56999 86.6901C4.28999 87.8001 5.45999 89.6001 5.75999 91.6301L6.27999 95.0801C6.30999 95.2501 6.44999 95.3801 6.61999 95.3801C6.78999 95.3801 6.93999 95.2501 6.95999 95.0801L7.47999 91.6301C7.77999 89.6001 8.94999 87.8001 10.67 86.6901L11.12 86.4001C11.22 86.3401 11.28 86.2301 11.28 86.1101V86.0901C11.28 85.9701 11.22 85.8601 11.12 85.8001L10.67 85.5101Z" fill="#51EB80"/>
<path d="M38.35 60.0999C36.63 58.9899 35.46 57.1899 35.16 55.1599L34.64 51.7099C34.61 51.5399 34.47 51.4099 34.3 51.4099C34.13 51.4099 33.98 51.5399 33.96 51.7099L33.44 55.1599C33.14 57.1899 31.97 58.9899 30.25 60.0999L29.8 60.3899C29.7 60.4499 29.64 60.5599 29.64 60.6799V60.6999C29.64 60.8199 29.7 60.9299 29.8 60.9899L30.25 61.2799C31.97 62.3899 33.14 64.1899 33.44 66.2199L33.96 69.6699C33.99 69.8399 34.13 69.9699 34.3 69.9699C34.47 69.9699 34.62 69.8399 34.64 69.6699L35.16 66.2199C35.46 64.1899 36.63 62.3899 38.35 61.2799L38.8 60.9899C38.9 60.9299 38.96 60.8199 38.96 60.6999V60.6799C38.96 60.5599 38.9 60.4499 38.8 60.3899L38.35 60.0999Z" fill="#E44598"/>
<path d="M278.29 90.4499C271 87.0699 261.83 88.7999 258.6 95.7499L248.85 115.33C246.07 121.11 245.3 127.73 247.08 133.89C249.45 142.06 254.84 145.52 261.79 146.12C274.53 147.21 274.66 129.74 275.58 127.54C276.33 125.95 283.38 111.43 284.43 108.82C286.27 104.23 285.03 93.5599 278.31 90.4499H278.29Z" fill="url(#paint9_linear_3632_7028)"/>
<path d="M255.66 74.5199C274.47 64.7799 292.87 82.9899 287.08 92.9099C281.85 101.87 274.33 95.3199 271.14 91.8199C270.2 90.7899 268.71 90.4899 267.45 91.0599C261.38 93.8099 244 100.5 240 81.4999L255.66 74.5199Z" fill="#698EFF"/>
<defs>
<linearGradient id="paint0_linear_3632_7028" x1="336.29" y1="74.6" x2="326.15" y2="59.01" gradientUnits="userSpaceOnUse">
<stop offset="0.06" stop-color="#698EFF"/>
<stop offset="0.26" stop-color="#5D7FFB"/>
<stop offset="0.56" stop-color="#506FF8"/>
<stop offset="0.8" stop-color="#4C6AF7"/>
</linearGradient>
<linearGradient id="paint1_linear_3632_7028" x1="267.223" y1="102.054" x2="301.828" y2="66.9052" gradientUnits="userSpaceOnUse">
<stop offset="0.16" stop-color="#698EFF"/>
<stop offset="0.29" stop-color="#6286FD"/>
<stop offset="0.72" stop-color="#5271F8"/>
<stop offset="1" stop-color="#4C6AF7"/>
</linearGradient>
<linearGradient id="paint2_linear_3632_7028" x1="277.137" y1="103.501" x2="302.218" y2="116.964" gradientUnits="userSpaceOnUse">
<stop stop-color="#4C6AF7"/>
<stop offset="0.28" stop-color="#5B7CFB"/>
<stop offset="0.59" stop-color="#6589FE"/>
<stop offset="0.88" stop-color="#698EFF"/>
</linearGradient>
<linearGradient id="paint3_linear_3632_7028" x1="313.09" y1="-0.46063" x2="301.565" y2="35.9093" gradientUnits="userSpaceOnUse">
<stop offset="0.31" stop-color="#51EB80"/>
<stop offset="1" stop-color="#20C57A"/>
</linearGradient>
<linearGradient id="paint4_linear_3632_7028" x1="350.882" y1="69.969" x2="338.445" y2="40.6321" gradientUnits="userSpaceOnUse">
<stop stop-color="#698EFF"/>
<stop offset="0.2" stop-color="#6184FC"/>
<stop offset="0.67" stop-color="#5170F8"/>
<stop offset="1" stop-color="#4C6AF7"/>
</linearGradient>
<linearGradient id="paint5_linear_3632_7028" x1="205.15" y1="95.79" x2="196.7" y2="94.78" gradientUnits="userSpaceOnUse">
<stop offset="0.17" stop-color="#698EFF"/>
<stop offset="0.59" stop-color="#5A7CFB"/>
<stop offset="0.93" stop-color="#4C6AF7"/>
</linearGradient>
<linearGradient id="paint6_linear_3632_7028" x1="220.694" y1="96.1195" x2="203.757" y2="94.3735" gradientUnits="userSpaceOnUse">
<stop offset="0.16" stop-color="#698EFF"/>
<stop offset="1" stop-color="#4C6AF7"/>
</linearGradient>
<linearGradient id="paint7_linear_3632_7028" x1="203.11" y1="107.63" x2="196.1" y2="105.6" gradientUnits="userSpaceOnUse">
<stop offset="0.03" stop-color="#698EFF"/>
<stop offset="0.35" stop-color="#6589FE"/>
<stop offset="0.68" stop-color="#5B7DFB"/>
<stop offset="1" stop-color="#4C6AF7"/>
</linearGradient>
<linearGradient id="paint8_linear_3632_7028" x1="222.65" y1="107.74" x2="201.86" y2="105.76" gradientUnits="userSpaceOnUse">
<stop offset="0.16" stop-color="#698EFF"/>
<stop offset="1" stop-color="#4C6AF7"/>
</linearGradient>
<linearGradient id="paint9_linear_3632_7028" x1="274.941" y1="83.929" x2="265.295" y2="115.952" gradientUnits="userSpaceOnUse">
<stop offset="0.28" stop-color="#4C6AF7"/>
<stop offset="0.41" stop-color="#5373F9"/>
<stop offset="0.76" stop-color="#6386FD"/>
<stop offset="1" stop-color="#698EFF"/>
</linearGradient>
</defs>
</svg>
