<svg fill="none" height="193" viewBox="0 0 288 193" width="288" xmlns="http://www.w3.org/2000/svg" xmlns:xlink="http://www.w3.org/1999/xlink"><linearGradient id="a" gradientUnits="userSpaceOnUse" x1="73.2135" x2="86.1802" y1="111.099" y2="144.265"><stop offset="0" stop-color="#ffc285"/><stop offset="1" stop-color="#db8d6b"/></linearGradient><linearGradient id="b" gradientUnits="userSpaceOnUse" x1="115.739" x2="44.9649" y1="130.61" y2="130.61"><stop offset="0" stop-color="#d67569"/><stop offset="1" stop-color="#e39e7f"/></linearGradient><clipPath id="c"><rect height="69.3493" rx="8.40597" width="126.09" x="16" y="105"/></clipPath><clipPath id="d"><rect height="67" rx="6" width="122" x="148" y="107"/></clipPath><clipPath id="e"><path d="m148 107h122v67h-122z"/></clipPath><clipPath id="f"><path d="m0 0h113v99h-113z" transform="matrix(-1 0 0 1 265 0)"/></clipPath><clipPath id="g"><rect height="72" rx="6" width="122" x="18.1016" y="26.8477"/></clipPath><clipPath id="h"><path d="m133.5 94h21v20.1075h-21z"/></clipPath><mask id="i" height="79" maskUnits="userSpaceOnUse" width="127" x="148" y="104"><path d="m274.09 106.346c0-1.296-1.051-2.346-2.346-2.346h-121.398c-1.296 0-2.346 1.05-2.346 2.346v73.886c0 1.295 1.05 2.345 2.346 2.345h121.398c1.295 0 2.346-1.05 2.346-2.345z" fill="#a8bfff"/></mask><rect fill="#202225" height="164" rx="14" width="272" x="8" y="21"/><rect height="172" rx="18" stroke="#4f545c" stroke-opacity=".48" stroke-width="8" width="280" x="4" y="17"/><rect fill="#5e87f9" height="69.8985" rx="7.35522" stroke="#fff" stroke-width="2.10149" width="123.899" x="17.0507" y="106.051"/><g clip-path="url(#c)"><path d="m18.1025 142.391c11.6995-3.219 25.5394 1.034 29.7324 10.544 12.5791-4.046 27.1227 3.456 33.984 12.286h-63.7164z" fill="#6e94ff"/><path d="m139.982 128.746c-7.653-1.299-16.684.414-19.44 4.253-8.21-1.624-17.711 1.418-22.1968 4.962h41.6368z" fill="#7a9dff"/><path d="m112.088 169.504c-2.345-5.051-2.287-5.257-6.45-6.764l5.542 8.004z" fill="#ff707e"/><path d="m47.7563 124.966.2639.236.5571.531.2052.178.4399.384c9.7935 8.476 22.3432 12.05 30.8466 14.619 10.9663 3.308 20.085 4.283 26.917 4.312 8.885-.088 10.674-4.755 6.92-10.307l-2.111-2.629-10.849-13.29-.528-.65c-7.1542-8.536-13.5757-12.375-27.0931-9.422l-20.5546 4.489h-.0586c-7.1839 1.595-10.5559 5.996-4.9554 11.549z" fill="url(#a)"/><path d="m71.4198 110.582c-8.2101 2.038-22.2846 6.173-22.2846 6.173l-3.4013.472c1.2022-1.742 3.6945-3.071 6.9786-3.81h.0586l20.5547-4.489c6.3921-1.388 11.1716-1.24 15.218.148-6.2456-1.506-9.8815-.295-17.124 1.506z" fill="#fffdc4"/><path d="m79.4536 142.007c-7.2132-2.186-22.6365-8.358-28.6182-14.383 1.4075 1.417.0294-1.123 2.727.206 14.1918 6.971 46.4165 16.392 53.4246 17.396-6.862.414-20.1736-1.004-27.5334-3.219z" fill="#fffdc4"/><path d="m46.1143 116.755c6.3336-1.92 20.6133-.177 36.4471 4.814 16.5082 5.198 29.6146 12.375 33.1336 17.662.411 3.456-2.287 5.936-8.708 5.995-6.422.06-15.9516-1.004-26.9179-4.312-8.5034-2.569-21.0531-6.143-30.8466-14.619l-.4399-.384-.2052-.177-.5571-.532-.2639-.236c-3.2548-3.249-3.46-6.084-1.6421-8.211z" fill="url(#b)"/><path d="m107.128 140.909c.925-2.973-10.7901-9.318-26.1658-14.171-15.3757-4.854-28.59-6.378-29.515-3.405-.9249 2.973 10.7897 9.317 26.1655 14.171 15.3757 4.853 28.5903 6.378 29.5153 3.405z" fill="#6b3143"/><path d="m51.568 124.404c-.1739-.336-.2258-.722-.1466-1.093.0663-.166.1661-.317.2932-.443l15.8631 6.852-11.9047-7.885c.5176-.03 1.0365-.03 1.5541 0l11.025 7.413c.6517-.091 1.3128-.091 1.9646 0l-6.0403-6.675 2.2871.414 4.6328 6.379c.9383.118 2.0232.325 3.2254.591l-3.46-6.025 2.0526.502 2.2871 5.729 2.1698.591-1.5834-5.552c.821.197 1.642.433 2.4631.708l.7623 5.258h-.1759l.5864.206 1.6714-4.607 1.8472.62-2.9028 4.165 1.4661.502 4.1637-3.751 2.1991.797-5.1313 3.397 1.5247.59 6.3629-2.924 2.6976 1.093-7.8876 2.304 1.8473.856 11.1716-.767c.9383.472 1.8474.945 2.6684 1.417h-12.6085l.8797.561 15.3348 1.802c.66.477 1.261 1.032 1.789 1.654l-16.3908-2.776c.0506.054.0877.12.108.192.0204.072.0236.148.0093.221-.025.064-.0645.122-.1154.168s-.1118.08-.1778.098l16.9777 4.253c-.264.354-.792.65-1.554.856l-17.0364-4.961c-.9164-.051-1.8278-.17-2.727-.355l13.5467 5.464c-.645-.029-1.3488-.118-2.0818-.207l-13.2242-5.611-.4691-.089 8.5033 4.844c-1.2902-.266-2.639-.532-4.0464-.886l-6.1283-4.371-3.3133-.975c-1.4075-.443-2.727-.915-3.9292-1.359l-5.2193.975c-1.7593-.65-3.4013-1.329-4.926-2.008l7.9755.147h-.0293l-12.2272-2.126c-1.3781-.709-2.639-1.388-3.7239-2.038l13.5174 3.013-.8797-.502z" fill="#7a384c"/><path d="m122.44 179.811h-71.0762c1.2608-1.299 2.7855-2.097 5.2193-3.219l5.4831-.768 2.0233-.266 4.3982-.62 3.3427-.443 1.9939-.266.8503-.118 8.2395-1.122 1.9059-.266 3.1081-.413 1.2315-.178 2.4044-.325.5865-.088 5.3365-.739 12.667-1.713.645-.088c.381-.03.763-.03 1.144 0 6.011.148 8.093 2.835 10.497 10.632z" fill="#2347a1"/><path d="m111.766 176.976-2.228 2.835h-12.9897l7.2137-7.324 3.166 1.772z" fill="#2a52c2"/><path d="m110.799 169.179-.352.502c-.117.118-.205.296-.352.473l-.381.502c-.674.886-1.613 2.126-2.786 3.603l-2.756 3.367-.909 1.063c-.322.355-.616.739-.938 1.123h-45.2438c-.3519-1.979-.4985-3.22-.4985-3.22-.0043-.308.0755-.611.2306-.877.1551-.265.3796-.483.649-.629l4.1051-2.392h.0293v-.296c0-.118-.0293-.206-.0293-.295s-.0586-.945-.0586-1.3v-.383c-.0215-.177-.0313-.354-.0294-.532-.0148-.038-.0246-.078-.0293-.118l-.1466-2.481c-.0282-.492.064-.984.2685-1.432s.515-.839.9044-1.138l5.4245-4.312.4692-.384 1.5247-1.181 3.7825-2.983 2.1405-.295h.0294l2.8442-.443h.0293l3.8705-.562 1.1142-.177 2.8736-.443 1.3781-.207h.2346l.7623.119.997.147 2.0232.325c.8831.142 1.7264.471 2.4744.964.748.494 1.3837 1.142 1.8652 1.901l2.2285 3.456.1759.059 1.3778.413 4.604 1.388.938.266.616.236h.059c1.233.549 2.231 1.523 2.814 2.747z" fill="#ef6270"/><path d="m100.097 161.087c-1.0854-2.747-1.6718-5.996-8.5331-7.384l-5.0727-.768.4105 4.164 9.5883 6.38z" fill="#ff707e"/><path d="m110.8 169.179-.352.502c-.118.118-.206.295-.352.472l-.381.503c-.675.886-1.613 2.126-2.786 3.603l-2.756 3.367-.909 1.063-.968 1.122h-21.1995c.4985-1.772 1.2315-4.43 1.5834-5.936.0571-.301.1354-.597.2345-.886.4985-1.861.909-3.013-2.1698-3.485l.3226-1.625 1.4074-7.177.3519-1.919.2932-1.389.4691-2.362.1173-.621 2.8736-.443 1.3781-.206h.2346l.7623.118.997.148 2.0232.324c.8832.142 1.7265.471 2.4744.965.748.493 1.3837 1.141 1.8652 1.9l2.2285 3.456.1759.059 1.3781.413 4.604 1.389.938.265.616.237h.058c1.233.548 2.232 1.522 2.815 2.746z" fill="#e05164"/><path d="m91.2698 161.5c3.46-2.629 3.2254-2.422 1.2902-3.692-1.1643-.766-2.5108-1.204-3.8998-1.27z" fill="#bd3c53"/><path d="m92.15 171.719-5.6591 8.093h-4.2516c2.3164-2.54 4.7501-5.228 6.9199-7.679 3.0788-3.545 5.6298-6.646 6.5974-8.152l-.2932 1.92-.2052 1.358z" fill="#e05164"/><path d="m99.4217 176.71c-1.1714 1.105-2.4049 2.14-3.6945 3.102h-5.3073c2.4924-1.064 5.7764-2.6 7.9169-3.958 3.2252-2.038 2.8152-.768 1.0849.856z" fill="#e05164"/><path d="m66.8737 162.327c-3.8411 3.367-5.747 2.451 3.3134 14.974l2.1698-1.447 6.3335-7.147-8.0341-10.19z" fill="#c74153"/><path d="m68.0478 128.746c.2346-.768 5.4246.118 11.6408 1.979 6.2162 1.86 11.025 3.987 10.8198 4.755-1.2902 10.396-1.0849 19.611.7623 26.02l-18.9126 14.354c-7.9169-19.198-5.5125-36.21-4.3103-47.108z" fill="#ffb685"/><path d="m76.375 155.15 7.3304-.118.7917 4.312c-2.8735 2.894-7.0666 1.742-9.2071-.177-2.8149 2.481-5.5711 2.451-7.5063.265l-.0587-.059c-.1759-1.181-.3519-2.362-.4691-3.544 2.9908-.886 9.1191-.679 9.1191-.679z" fill="#fe9b77"/><path d="m83.7053 166.727c-1.8179-12.493-1.4074-27.526-1.1728-35.087 4.7501 1.595 8.1514 3.19 7.9755 3.84-1.2902 10.396-1.0849 19.611.7624 26.02z" fill="#fe9b77"/><path d="m68.0474 128.746c.2346-.768 5.4245.118 11.6408 1.979 6.2162 1.86 11.025 3.987 10.8197 4.755-.1759 1.329-.3225 2.628-.4398 3.928-6.744-.827-16.0977.236-23.1936 2.422.2346-4.962.7624-9.392 1.1729-13.084z" fill="#a8387e" opacity=".4"/><path d="m74.9678 112.974-3.5186.679 1.0263 1.654z" fill="#ffcd8f"/><path d="m80.9881 149.477c.4187-.755.3227-1.612-.2145-1.914-.5371-.303-1.312.064-1.7308.819-.4187.754-.3227 1.611.2145 1.914.5372.302 1.3121-.065 1.7308-.819z" fill="#543247"/><path d="m84.4969 109.489s-1.818-.147-2.6097.473c.909 1.063 2.6097-.473 2.6097-.473z" fill="#ffd08f"/><path d="m78.6911 109.46c-3.8705-.916-4.1931 1.122-4.1931 1.122z" fill="#fffdc4"/><path d="m107.163 133.56c-.205 1.418-3.342 2.333-3.342 2.333l1.29 1.004c3.255-.088 4.105-1.742 4.105-1.742-.6-.633-1.292-1.171-2.053-1.595z" fill="#d4655b"/><path d="m115.489 139.703c-.528 1.565-7.242.62-7.242.62l-.205.798c4.955.886 7.095.443 7.095.443s.294-.473.352-1.861z" fill="#d4655b"/><path d="m90.7719 125.202c-.3812 1.831-2.6096 3.071-2.6096 3.071l-3.6359-1.122c1.0262-1.477 1.4661-3.515 1.4661-3.515s2.4923.68 4.7794 1.566z" fill="#dc7363"/><path d="m66.7565 179.752-.088.06h-3.6945c-.2932-1.152-.6158-2.599-.909-3.988-.2932-1.388-.4398-2.392-.4985-3.16v-.295c0-.118-.0293-.207-.0293-.296 0-.088-.0586-.945-.0586-1.299v-.384c-.0215-.176-.0313-.354-.0294-.532-.0147-.038-.0246-.077-.0293-.118.7191 2.019 1.6221 3.967 2.6976 5.819.9677 1.683 1.9353 3.16 2.639 4.193z" fill="#d14658"/><path d="m104.701 162.474c-2.241 2.972-4.65 5.812-7.2134 8.506-3.0495 3.279-6.2749 6.469-8.8259 8.831h-2.9908c1.6127-2.097 3.7239-4.932 5.8937-8.004 1.3195-1.919 2.6683-3.928 3.8998-5.907.6158-.974 1.2022-1.949 1.7593-2.894.4692-.797.909-1.565 1.3195-2.333h.1759l1.3779.413z" fill="#cc4355"/><path d="m94.8757 160.644-9.3536 9.096-1.818 7.945 10.2626-13.084z" fill="#e65568"/><path d="m71.8008 174.406 19.2644-13.585.3519-.266c.5571-.502.997-.502-.1466.945l-18.9126 14.354z" fill="#bd3c53"/><path d="m119.097 119.413-2.434-1.093c-.029 0-.029-.089 0-.089l2.434-1.092h.029l1.085-2.452c0-.029.088-.029.088 0l1.085 2.452h.029l2.434 1.092c.029 0 .029.089 0 .089l-2.434 1.093h-.029l-1.085 2.451h-.088l-1.085-2.451z" fill="#ff99b9"/><path d="m35.5593 157.69-2.4338-1.093c-.0155 0-.0304-.006-.0414-.017s-.0172-.026-.0172-.042.0062-.031.0172-.042.0259-.017.0414-.017l2.4338-1.093h.0293l1.0849-2.422c0-.059.0586-.059.0879 0l1.085 2.422h.0293l2.4337 1.093c.0144.016.0224.037.0224.059s-.008.043-.0224.059l-2.4337 1.093h-.0293l-1.085 2.422c-.0293.059-.0879.059-.0879 0l-1.0849-2.422z" fill="#5580f9"/><path d="m106.929 126.354c-3.9-3.574-7.1546-5.051-7.1546-5.051 3.6356.739 6.2456 1.95 7.1546 5.051z" fill="#eb9363"/><path d="m67.3441 110.582-6.1869 1.359c.7331-1.418 1.5541-1.684 6.1869-1.359z" fill="#fffdc4"/><path d="m78.5439 158.605c-2.551 0-4.9847-.059-5.7471.591s.4398 2.156 2.3164 3.574c.821.62 1.2022.679 3.1668-1.063 1.4368-1.241 2.2284-3.131.2639-3.102z" fill="#c74153"/><path d="m77.4891 158.724 2.1405.354c.2932.62-.3519 1.772-1.3488 2.629-1.9646 1.742-2.3458 1.683-3.1668 1.063l-.8503-.709c.3225-.768 1.3488-2.717 3.2254-3.337z" fill="#a82c3c"/><path d="m73.6778 158.842c1.1142-.266 2.9615-.236 4.8674-.236 1.0849-.03 1.3195.561 1.0849 1.27l-5.8057.118c-.3225 0-.2639-.65-.1466-1.152z" fill="#fff"/><path d="m65.2032 155.209c-.5864-1.034-.2639-2.687.9969-3.544-.0719.193-.101.4-.0853.606.0158.206.0761.406.1766.586.1006.18.239.336.4055.457.1666.12.3573.203.5588.241.7037.118 1.9939-.147 2.551-.354 1.5541-.591 3.3134-.62 5.4246.472 2.8735-1.565 4.8088-.206 7.4184-.206.7144.007 1.4259-.093 2.1112-.296 2.1991-.649 2.1698-1.713 1.6713-2.835 3.1375.738 2.9908 4.105 1.6127 5.582-.821 1.034-2.3457 1.506-4.3689 1.004-3.1668 2.717-4.7209 2.895-8.4447.502-3.0202 2.54-5.923 2.274-7.653-.915 0 0-1.7593-.148-2.3751-1.3z" fill="#6b3143"/><path d="m75.2309 157.424c-3.0201 2.54-5.923 2.274-7.653-.915 0 0-2.7269-.237-2.6683-2.334.3519.827 1.7887 1.625 3.1375 1.33 2.1698 1.772 4.4862 1.24 6.656-.443 0 0 4.6036 2.48 7.8583-.237 3.7239.916 6.3628-.797 5.923-3.16.8797 1.329.4985 3.249-.4398 4.253-.821 1.034-2.3458 1.506-4.369 1.004-3.1667 2.717-4.7208 2.895-8.4447.502z" fill="#5e2737"/><path d="m72.2898 150.286c.5363-.23.7134-1.025.3958-1.775-.3177-.75-1.0099-1.172-1.5462-.941-.5362.23-.7134 1.025-.3957 1.775.3176.75 1.0099 1.172 1.5461.941z" fill="#543247"/></g><rect fill="#f7e5bc" height="69.3493" rx="6.94925" stroke="#fff" stroke-width="2.10149" width="123.988" x="147.051" y="106.051"/><g clip-path="url(#d)"><g clip-path="url(#e)"><g mask="url(#i)"><path d="m274.09 106.346c0-1.296-1.051-2.346-2.346-2.346h-121.398c-1.296 0-2.346 1.05-2.346 2.346v73.886c0 1.295 1.05 2.345 2.346 2.345h121.398c1.295 0 2.346-1.05 2.346-2.345z" fill="#a8bfff"/><path d="m221.015 159.033c4.339-12.85 16.567-14.888 22.901-11.668-.88-6.883 7.976-21.151 24.719-12.437h5.455v45.286h-52.489z" fill="#c2d2ff"/><path d="m165.828 159.979c-1.172-3.368-6.451-11.757-17.828-10.339v24.696h43.779c-.117-12.466-13.899-19.231-25.951-14.357z" fill="#c2d2ff"/><path d="m148 182.577h126.09v-28.802h-21.7v22.835h-7.917v-7.178h-18.122l-32.754-15.302h-14.456v-5.081h-7.155v18.108l-3.665-1.182-4.985 5.377h-15.336z" fill="#648ae8"/><g fill="#7d2952"><path d="m220.106 121.931c.939 0 1.701-.767 1.701-1.713 0-.947-.762-1.714-1.701-1.714s-1.701.767-1.701 1.714c0 .946.762 1.713 1.701 1.713z"/><path d="m208.493 125.89c.94 0 1.701-.768 1.701-1.714s-.761-1.713-1.701-1.713c-.939 0-1.701.767-1.701 1.713s.762 1.714 1.701 1.714z"/><path d="m193.568 129.907c.94 0 1.701-.767 1.701-1.713s-.761-1.714-1.701-1.714c-.939 0-1.7.768-1.7 1.714s.761 1.713 1.7 1.713z"/><path d="m182.865 131.916c.939 0 1.701-.767 1.701-1.713 0-.947-.762-1.714-1.701-1.714s-1.701.767-1.701 1.714c0 .946.762 1.713 1.701 1.713z"/><path d="m171.225 133.186c.939 0 1.7-.767 1.7-1.713 0-.947-.761-1.714-1.7-1.714-.94 0-1.701.767-1.701 1.714 0 .946.761 1.713 1.701 1.713z"/><path d="m160.169 132.891c.939 0 1.701-.768 1.701-1.714s-.762-1.713-1.701-1.713-1.701.767-1.701 1.713.762 1.714 1.701 1.714z"/><path d="m265.263 158.945c.94 0 1.701-.767 1.701-1.713s-.761-1.713-1.701-1.713c-.939 0-1.701.767-1.701 1.713s.762 1.713 1.701 1.713z"/><path d="m271.744 104h-123.744v22.835c24.895 6.676 66.182-3.457 88.996-17.843 7.741 38.137 37.094 49.983 37.094 49.983v-52.612c0-.627-.248-1.228-.688-1.671-.439-.443-1.036-.692-1.658-.692z"/></g><path d="m148 104v4.638c29.206 16.454 67.649 7.621 83.776-4.638z" fill="#70254a"/><path d="m274.089 104h-25.042c.968 22.805 11.378 40.618 25.042 49.776z" fill="#70254a"/><path d="m233.476 153.037c-1.466 3.486-4.105 10.162-4.105 10.162l6.715 4.195c2.698-6.352 3.607-9.719 4.047-11.492.44-1.772.733-3.485-1.554-4.874-2.288-1.388-3.549-1.654-5.103 2.009z" fill="#f073ab"/><path d="m239.371 163.701-4.017 9.335c-.315.736-.772 1.402-1.347 1.958-.574.556-1.253.989-1.997 1.276-.743.286-1.537.42-2.332.392-.796-.028-1.578-.217-2.3-.554l-15.014-6.883 7.478-11.875 9.148 5.14 1.349-4.018c4.721 1.891 7.243 3.545 9.032 5.229z" fill="#f7e5bc"/><path d="m221.924 159.182c6.04 1.004 6.598 2.274 8.21 5.465l-6.48-.739z" fill="#f7e5bc"/><path d="m193.48 108.579c-1.201.377-2.215 1.2-2.836 2.303s-.802 2.402-.507 3.634l6.012 24.726 10.761-2.245-7.243-25.051c-.181-.633-.486-1.224-.897-1.738-.41-.514-.918-.94-1.495-1.254-.576-.313-1.208-.508-1.86-.572-.651-.065-1.309.002-1.935.197z" fill="#d6569b"/><path d="m199.462 133.452 4.252-.177-4.516-14.889c-.063-.214-.168-.412-.31-.584-.142-.171-.318-.31-.516-.41s-.414-.158-.635-.169c-.222-.012-.443.022-.65.1-.364.14-.664.41-.843.759-.178.349-.223.752-.125 1.131z" fill="#e374b0"/><path d="m197.175 133.275c-2.522-9.69-4.985-18.877-6.099-23.012-.475.586-.808 1.276-.971 2.014-.163.739-.152 1.506.033 2.24l4.574 18.846z" fill="#f06ea8"/><path d="m218.376 108.46c1.206.366 2.228 1.179 2.86 2.277.632 1.097.825 2.396.541 3.632l-5.747 24.754-10.791-2.097 6.979-25.139c.175-.636.474-1.23.88-1.748s.911-.949 1.484-1.268c.574-.319 1.205-.52 1.856-.59.651-.071 1.31-.01 1.938.179z" fill="#d6569b"/><path d="m206.676 131.916.997 1.979s3.812-17.016 5.6-23.957c-.486.566-.846 1.231-1.055 1.949z" fill="#f06ea8"/><path d="m214.3 133.393-4.223-.148 4.34-14.947c.062-.214.167-.413.31-.583s.319-.309.518-.406.416-.152.637-.16c.221-.007.441.032.646.115.363.134.665.397.849.74s.236.741.148 1.121z" fill="#e374b0"/><path d="m220.092 131.403-31.085 1.312c-4.449.188-7.905 3.975-7.719 8.457l.012.269c.186 4.482 3.944 7.964 8.394 7.776l31.085-1.312c4.449-.188 7.905-3.975 7.719-8.457l-.011-.269c-.187-4.482-3.945-7.964-8.395-7.776z" fill="#f06ea8"/><path d="m193.45 177.644c-1.818-1.713-3.607-3.308-3.988-3.928-.381-.621.264-.828 1.173-1.153.909-.324 1.73.798 2.669 2.718.938 1.92 1.818 3.9.146 2.363z" fill="#f2c591"/><path d="m226.351 169.432-1.759 5.613-.235.708-2.17 6.854h-40.348c-.381-1.507.088-1.802 1.114-3.486s.498-1.241.645-5.317c.117-2.866 1.144-5.524 4.809-8.833 1.114-.975 1.378-1.359 2.522-2.422l.352-.325.176-.177.234-.177 27.564-4.372 5.542 9.305z" fill="#f7e5bc"/><path d="m223.653 169.461c1.701-4.578 1.759-4.963 2.346-3.633.586 1.329.938 1.241-1.877 4.963s-1.202.649-.469-1.33z" fill="#e8c282"/><path d="m224.592 175.045c-.175 2.688-.41 5.228-.703 7.562h-29.646c.029-1.211.059-2.718.117-4.549-.005-.198.005-.395.03-.591v-2.275c-.206-5.406-1.73-9.098-5.982-10.221.791-.797 1.612-1.595 2.522-2.422l.351-.325.411-.354 27.564-4.372c2.17.797 3.606 1.358 5.249 3.042.175 2.127.263 4.224.293 6.263.029 2.865-.059 5.612-.206 8.242z" fill="#1f3a70"/><path d="m219.256 157.498-.382.059-.381.384c-1.407 5.937-4.369 12.141-4.369 12.141s.147 1.506 2.199-1.418c2.053-2.925 3.812-6.381 4.692-9.63z" fill="#172e5c"/><path d="m194.771 161.899c5.336 6.469 7.154 7.917 9.119 9.246s.323-.65-1.73-3.722-4.457-6.883-4.457-6.883z" fill="#172e5c"/><path d="m196.882 165.651s-.264.532-1.407 1.329c-1.144.798-1.466 1.152-1.584.886-.447-.932-1.095-1.753-1.896-2.402s-1.736-1.11-2.737-1.349c.763-.768 1.613-1.566 2.522-2.423 4.105 1.773 5.102 3.959 5.102 3.959z" fill="#244ab0"/><path d="m216.821 157.498-5.571 21.003-14.251-20.383z" fill="#d4bf9b"/><path d="m214.211 167.334-9.501-2.511c-1.7-.443-.85.148 0 1.211.851 1.064 5.924 6.883 7.536 8.744z" fill="#ccac89"/><path d="m200.107 161.486 13.02 1.743c1.466.177 1.495-1.418 2.258-4.52l-14.046 1.034z" fill="#cf518a"/><path d="m221.947 145.805-31.992 1.29c-4.211.169-7.487 3.746-7.319 7.987v.012c.169 4.242 3.719 7.543 7.929 7.373l31.992-1.289c4.211-.169 7.488-3.746 7.319-7.987v-.012c-.169-4.242-3.719-7.543-7.929-7.374z" fill="#f06ea8"/><path d="m222.452 160.924c4.105-.177 7.477-3.515 7.477-7.651.014-1.504-.413-2.978-1.226-4.239-.814-1.261-1.978-2.252-3.348-2.85 1.031-.793 1.858-1.824 2.409-3.007s.811-2.482.758-3.788v-.266c-.045-1.067-.299-2.114-.747-3.083-.447-.968-1.08-1.838-1.862-2.559-.781-.722-1.697-1.281-2.693-1.646-.997-.365-2.055-.528-3.114-.481l-27.74 1.182c-2.492 4.815-2.14 9.985-.293 13.707.27.563.422 1.176.447 1.801s-.077 1.248-.3 1.832c-2.669 7.149.85 12.318.85 12.318z" fill="#e05fa3"/><path d="m200.051 146.443c.705-.464.744-1.66.088-2.67s-1.76-1.453-2.464-.988c-.705.464-.744 1.66-.088 2.67s1.759 1.453 2.464.988z" fill="#1b1926"/><path d="m213.946 144.237c.305-1.1-.055-2.163-.804-2.373-.748-.211-1.603.51-1.907 1.61-.305 1.1.055 2.163.803 2.373.749.211 1.603-.51 1.908-1.61z" fill="#1b1926"/><path d="m186.266 147.099c-1.73-.65-2.17-.857-3.372-1.241.778 1.079 1.804 1.951 2.991 2.541l-.352.295c.799.082 1.602.121 2.405.118 1.671-.059 1.964-.295-1.672-1.713z" fill="#e05fa3"/><path d="m186.848 137.57c1.294-1.186 1.971-2.558 1.514-3.065-.458-.507-1.878.043-3.172 1.229-1.293 1.186-1.971 2.558-1.513 3.065s1.878-.044 3.171-1.229z" fill="#f792c0"/><path d="m195.094 177.555c.791-4.253.704-5.406 1.055-5.494.352-.089 1.027.975 1.672 2.304s-2.727 3.19-2.727 3.19z" fill="#172e5c"/><path d="m203.128 149.994c1.935 3.309 4.78 4.077 6.686-.207.022-.038.034-.082.032-.126-.001-.045-.014-.088-.039-.125-.024-.037-.059-.066-.099-.085-.041-.018-.085-.024-.129-.018l-6.246.177c-.042.005-.082.02-.118.044-.035.024-.064.057-.084.094-.02.038-.031.08-.031.123-.001.043.009.085.028.123z" fill="#751b40"/><path d="m197.41 147.129c1.349-2.599 3.958-1.506 3.958-1.506l-1.29 2.895z" fill="#e05fa3"/><path d="m210.604 145.002c2.698-1.093 3.988 1.448 3.988 1.448l-2.844 1.358z" fill="#e05fa3"/><path d="m207.028 149.521-3.695.089c-.042.005-.082.02-.118.044-.035.024-.064.056-.084.094s-.031.08-.031.123c-.001.043.009.085.028.123 1.671 2.836 3.988 3.811 5.835 1.329-.458-.776-1.13-1.402-1.935-1.802z" fill="#9c2455"/><path d="m229.02 164.056s1.906 4.667 2.551 6.528-.264 1.654-1.29 1.507c-1.026-.148-1.114-1.507-1.261-3.959s-.586-5.258 0-4.076z" fill="#fad596"/><path d="m231.043 162.815c.293 2.008 1.319 3.87 1.524 4.372.206.502 1.73.177 3.05-.148 1.319-.325.498-.798-1.114-2.156-1.613-1.359-3.724-3.693-3.46-2.068z" fill="#fad596"/><path d="m171.635 173.715-1.965-.886c-.029 0-.029-.059 0-.059l1.965-.887.879-1.979h.088l.88 1.979 1.965.887c.029 0 .029.059 0 .059l-1.965.886-.88 1.979h-.088z" fill="#3366e0"/><path d="m234.592 133.806-.909-.414c-.03 0-.03-.029 0-.029l.909-.414.41-.945h.059l.41.945.939.414-.939.413-.41.916c-.03.03-.03.03-.059 0l-.41-.916z" fill="#fafafa"/><path d="m178.994 122.285-.938-.413.938-.414.411-.945h.029l.411.945h.029l.909.414c.03 0 .03.029 0 .029l-.909.414h-.029l-.411.915c0 .03-.029.03-.029 0l-.411-.915z" fill="#f7e5bc"/><path d="m265.263 104h-4.575v78.595h4.575z" fill="#783837"/><path d="m159.846 104h-4.574v78.595h4.574z" fill="#783837"/><path d="m265.263 104h-4.575v59.872h4.575z" fill="#571e2f"/><path d="m159.846 104h-4.574v35.729h4.574z" fill="#571e2f"/><path d="m236.644 119.331c.939 0 1.701-.767 1.701-1.713s-.762-1.713-1.701-1.713-1.701.767-1.701 1.713.762 1.713 1.701 1.713z" fill="#7d2952"/><path d="m226.879 119.007c.94 0 1.701-.767 1.701-1.714 0-.946-.761-1.713-1.701-1.713-.939 0-1.7.767-1.7 1.713 0 .947.761 1.714 1.7 1.714z" fill="#7d2952"/><path d="m148 128.193v3.398c.446 0 .874-.177 1.192-.492s.501-.743.509-1.192c0-.455-.179-.891-.498-1.212s-.752-.502-1.203-.502z" fill="#7d2952"/><path d="m238.696 126.628c.939 0 1.701-.767 1.701-1.713 0-.947-.762-1.714-1.701-1.714s-1.701.767-1.701 1.714c0 .946.762 1.713 1.701 1.713z" fill="#7d2952"/><path d="m249.047 143.82c.94 0 1.701-.767 1.701-1.713s-.761-1.713-1.701-1.713c-.939 0-1.7.767-1.7 1.713s.761 1.713 1.7 1.713z" fill="#7d2952"/><path d="m255.088 150.763c.94 0 1.701-.767 1.701-1.714 0-.946-.761-1.713-1.701-1.713-.939 0-1.7.767-1.7 1.713 0 .947.761 1.714 1.7 1.714z" fill="#7d2952"/><path d="m242.919 134.574c.94 0 1.701-.767 1.701-1.713s-.761-1.714-1.701-1.714c-.939 0-1.7.768-1.7 1.714s.761 1.713 1.7 1.713z" fill="#7d2952"/><path d="m257.375 159.211h-1.173v2.319h1.173z" fill="#5177d6"/><path d="m269.809 166.832h-1.173v2.319h1.173z" fill="#5177d6"/><path d="m259.721 168.693h-1.173v2.319h1.173z" fill="#5177d6"/><path d="m181.781 162.608h-1.173v2.319h1.173z" fill="#5177d6"/><path d="m179.698 147.985h-8.269v1.073h8.269z" fill="#8f80cf"/></g></g></g><rect fill="#5e87f9" height="69.8985" rx="6.94925" stroke="#fff" stroke-width="2.10149" width="123.899" x="147.051" y="30.0507"/><g clip-path="url(#f)"><path d="m229.223 5.07967 10.067-5.07967 6.927 8.95868-10.436 6.64972z" fill="#133dbd"/><path d="m227.376 26.1372-20.134 37.7743c-.409.8527-.557 1.8072-.425 2.7437.131.9365.536 1.8134 1.164 2.5207l.277.277c3.344 3.4641 7.515 6.0195 12.121 7.4253 4.605 1.4058 9.492 1.6157 14.201.6098.676-.1467 1.282-.5193 1.719-1.0565.436-.5371.677-1.2068.682-1.8989l1.016-45.5323c0-17.2708-.831-21.14987-10.621-2.8631z" fill="#33beb5"/><path d="m208.258 69.4531c-.733-.7786-1.206-1.765-1.355-2.8235-.148-1.0584.034-2.137.524-3.0874l19.949-37.4048c4.802-8.8664 7.388-12.5607 8.866-11.9142-3.786 26.4143-11.637 60.8637-11.637 60.8637l-5.357 1.3854c-4.176-1.4189-7.947-3.8272-10.99-7.0192z" fill="#33a2be"/><path d="m213.153 52.921c1.201-2.3089 1.755-3.0478 2.309-1.9395 8.312-13.2071 12.283-10.5287 12.283 2.309 0 0 5.727-3.0478 5.172 8.3121.816-.2365 1.687-.1921 2.475.1262.787.3182 1.444.8918 1.866 1.6286l-.277 11.1753c-.006.5912-.184 1.168-.512 1.6599-.327.492-.791.8779-1.335 1.1108-4.939.7744-9.99.4025-14.762-1.0868-4.773-1.4894-9.139-4.0563-12.76-7.5024-.489-.6932-.781-1.5052-.846-2.3505s.1-1.6924.476-2.4521z" fill="#f7e5bc"/><path d="m207.242 63.9116 5.911-10.9906c1.201-2.3089 1.755-3.0478 2.309-1.9395 8.312-13.2071 12.284-10.5287 12.284 2.309.492-.2293 1.027-.355 1.57-.3695-1.57.3695-1.57 1.9395-2.586 5.3568-1.016 3.4172-1.57 6.5574-1.57 6.5574l-14.685 6.2803c-.995-.7501-1.951-1.5516-2.863-2.4013-.488-.6932-.78-1.5052-.845-2.3505s.099-1.6924.475-2.4521z" fill="#f7d197"/><path d="m207.889 64.3732c7.111-7.6657 13.484-10.3441 27.799 10.6211.139.223.223.4758.245.7376.023.2618-.017.5252-.116.7685-.1.2433-.255.4597-.454.6313-.199.1717-.436.2938-.691.3562-4.722 1.0405-9.633.8478-14.259-.5595s-8.812-3.9817-12.155-7.4756l-.277-.277-.554-.8313c-.38-.6178-.541-1.3453-.457-2.0656s.407-1.3915.919-1.9057z" fill="#242236"/><path d="m209.182 70.8383 1.847-9.5128c5.172-4.2485 10.621-4.3408 19.949 7.2962l-3.879 8.9587c-6.47-.5945-12.66-2.9237-17.917-6.7421z" fill="#90423b"/><path d="m208.72 70.5615 6.742-.6465.924 2.586 1.662-3.602c1.663-3.6943 1.755-3.6019 3.14-.4618 1.386 3.1402 7.574 2.1243 7.574 2.1243l1.385-2.9555c-8.127-9.7899-13.3-10.344-18.01-7.1115z" fill="#7a2f28"/><path d="m250.465 90.1411c4.156 3.0478 5.08 2.6784 4.064 8.5893-1.016 5.9106-4.064-8.5893-4.064-8.5893z" fill="#3ee8dd"/><path d="m190.063 135.212h72.686c1.024-2.368 1.768-4.848 2.216-7.389.739-5.541 1.386-6.557-2.678-13.761-.277-5.449-2.032-8.867-6.28-14.2233-2.373-3.6795-5.029-7.1688-7.943-10.4364l-51.905 1.8472c-2.135 1.4599-4.143 3.0974-6.003 4.8949l-4.249.1848c-.277 10.2518 3.048 28.2618 4.156 38.8828z" fill="#244ab0"/><path d="m151.827 91.2493 4.064-6.3727c1.295-2.0591 3.117-3.7353 5.276-4.8556 2.159-1.1202 4.578-1.6439 7.008-1.517h.184c.684.0359 1.338.2877 1.869.7192.531.4316.912 1.0205 1.087 1.6821l3.325 12.4682 1.108 1.2007c.232.2423.403.536.499.8571.096.321.115.6603.055.99l-.277 2.4937.554-.8312c.204-.3846.493-.7176.845-.9737.353-.256.758-.4284 1.187-.504 1.663-.4618 4.895-1.2931 8.22-2.4937.739-1.2006 2.309-3.0478 8.22-3.1402v3.6943l-6.927 6.8345.185 19.949-13.946 5.08c-1.556.534-3.234.599-4.826.189s-3.029-1.279-4.133-2.498c-7.311-8.692-12.159-19.185-14.038-30.3857-.177-.8894-.013-1.8128.461-2.586z" fill="#1e397d"/><path d="m241.599 109.444 1.293 5.726 15.332 1.57c.466.044.9.255 1.223.595.322.34.511.784.532 1.252v1.478c-.007.21-.061.415-.158.601-.098.186-.236.348-.405.472-.169.125-.365.209-.571.247-.207.038-.419.029-.621-.027l-15.332-4.987-13.576 2.124c-.31.066-.584.244-.772.499-.187.256-.274.571-.244.886l2.032 15.331h-40.268c-4.803-29.277-6.65-35.188 2.401-42.5764l35.558 8.4974 14.869-8.9591-1.477 9.1431c-.447 2.697-.384 5.454.184 8.128z" fill="#1e397d"/><path d="m235.318 77.7651c3.141.9236 3.418 0 5.542 6.0033l-4.433.3694z" fill="#3ee8dd"/><path d="m239.567 83.4913-1.293-3.2325c-.26-.6198-.664-1.169-1.177-1.6025-.514-.4335-1.123-.7389-1.778-.8911l-4.711-1.016-18.84-.277-10.252 5.172c-.413.202-.772.5005-1.045.8702-.273.3698-.453.7999-.525 1.254l-.37 2.4013-4.987 3.3249c-.279.1904-.497.4572-.628.7685-.131.3112-.17.6537-.111.9863 1.293 11.2676 12.93 28.6306 29.185 20.8726 12.099-5.818 23.274-14.1305 28.631-18.379l2.124 2.7708c.554-2.6784 0-3.7867-1.662-5.1721l-1.663-1.2006c-.146-.4809-.239-.9765-.277-1.4777-.369-2.1243.093-2.6784-2.493-3.2325z" fill="#33beb5"/><path d="m235.781 80.813-5.911 3.9714c-2.032 1.293-3.141 3.6943-.277 2.586 2.358-.8987 4.643-1.9794 6.834-3.2325 1.662-1.1083 1.016-1.4777.831-2.4013-.184-.9236-.462-1.5701-1.477-.9236z" fill="#37cfc5"/><path d="m194.589 89.4946 4.987-3.3249.369-2.4013c.072-.4541.253-.8842.526-1.254.273-.3697.631-.6682 1.045-.8702l10.251-5.172h2.956l11.821 25.5828c-1.108 5.542-2.77 6.281-4.156 7.574-1.385 1.293-1.385 1.385-.923 3.047-15.424 6.004-26.414-10.621-27.615-21.519-.041-.3181.007-.6413.137-.9344s.338-.5449.602-.728z" fill="#33a2be"/><path d="m201.147 84.5073c-.554 1.3853-.924 1.4777 0 3.9713 1.472 3.3272 3.299 6.4857 5.449 9.4205 1.293 1.6624 2.032 1.6624 0-3.4172-2.032-5.0797-2.494-6.2803-3.048-8.5893-.554-2.3089-1.477-4.0637-2.401-1.3853z" fill="#2b98b3"/><path d="m237.536 86.5393c-3.125 4.3954-6.965 8.2354-11.36 11.36-3.51 2.4017-2.309 1.1083-.739-1.6624s4.433-4.1561 7.666-7.2039c3.232-3.0478 7.111-6.188 4.433-2.4937z" fill="#319bb5"/><path d="m249.634 89.8639c.044.1965.023.4022-.06.5856s-.224.3345-.402.4303c-8.497 4.7103-20.595 10.6212-24.936 12.0992-4.341 1.477-1.755 0 3.694-3.6023 5.449-3.6019 14.777-9.4204 17.733-11.1752 2.955-1.7548 2.955-2.1243 3.971 1.6624z" fill="#33a2be"/><path d="m230.516 77.9497c4.341.7389 6.742.7389 0 4.7102-6.742 3.9714 0-4.7102 0-4.7102z" fill="#1e6470"/><path d="m218.51 64.1886-.924 3.8791-2.124.277 1.385-2.9554.093-2.0319z" fill="#90423b"/><path d="m225.159 67.7905-2.493.3695c.923 1.3853 2.031 1.2006 2.493-.3695z" fill="#5e221d"/><path d="m215.924 66.8668-2.494-.7389c.277 1.6625 1.386 2.0319 2.494.7389z" fill="#5e221d"/><path d="m223.497 68.252c-.408 0-.739-.5789-.739-1.293s.331-1.293.739-1.293.739.5789.739 1.293-.331 1.293-.739 1.293z" fill="#201e2f"/><path d="m214.538 66.5899c-.409 0-.739-.5789-.739-1.293s.33-1.293.739-1.293c.408 0 .738.5789.738 1.293s-.33 1.293-.738 1.293z" fill="#201e2f"/><path d="m212.137 60.4941c-.721.4978-1.401 1.0538-2.032 1.6625-.739 2.0318-1.016 4.8949-1.847 7.2962s-1.662 6.0033-1.293 8.1275.092 2.2166-1.201 4.8949c-1.293 2.6784-3.694 5.3568-2.863 8.5893-1.385 2.0319-1.016 3.4172-.554 5.3567s1.94 7.2038 5.542 7.0188c1.154 1.69 2.805 2.98 4.724 3.691 1.919.712 4.012.81 5.989.281 5.726-1.478 11.452-5.357 10.714-10.529 1.939-1.4777 1.477-5.3567 1.293-7.4809-.191-1.9098.062-3.8378.738-5.6339.739-1.8471.739-3.6943.185-7.5733.594-1.6227 1.058-3.2905 1.385-4.9873-.856-1.2804-1.781-2.5137-2.77-3.6943l-1.386 3.0478c-.626 1.1978-1.181 2.4313-1.662 3.6943-.464-.2051-.978-.2694-1.478-.1847-.323-.7337-.836-1.3683-1.485-1.8389s-1.411-.7603-2.209-.8395l-5.542 1.1083-.923-2.586c-2.586-.2771-3.971-.3694-4.803.2771-.487-1.4927-.551-3.0911-.184-4.6179.461-1.6624 1.662-5.0797 1.662-5.0797z" fill="#fff"/><path d="m215.923 74.7172 2.124-.4618c1.108-.2771.924-.3694 3.879-2.8631l-5.541 1.1083-.924-2.586c-2.586-.2771-3.971-.3694-4.802.2771-.536-1.4837-.6-3.0963-.185-4.6179.462-1.6624 1.662-5.0797 1.662-5.0797-.721.4978-1.401 1.0538-2.032 1.6625-.738 2.0318-1.016 4.8949-1.847 7.2962s-1.662 6.0033-1.293 8.1275c.37 2.1242.093 2.2166-1.2 4.8949-1.293 2.6784-3.695 5.3568-2.863 8.5893-1.386 2.0319-1.016 3.4172-.555 5.3567.462 1.9395 1.94 7.2038 5.542 7.0188 1.155 1.69 2.805 2.98 4.724 3.691 1.92.712 4.012.81 5.989.281 5.726-1.478 11.453-5.357 10.714-10.529-1.755 4.895-5.449 3.971-5.449 3.971-2.276-.487-4.601-.704-6.927-.646-1.293-2.309-2.863-4.618-4.249-5.5416-2.678-5.2643-.646-10.8982.739-14.1307 1.386-3.2325 2.494-5.8185 2.494-5.8185z" fill="#d6dfff"/><path d="m215.924 74.7171c-1.386.2771-1.293-.9235-1.201-2.2165.097-.8978.347-1.7723.739-2.586l.923 2.586 5.542-1.1083c-2.956 2.4936-2.771 2.586-3.879 2.8631z" fill="#cad5fc"/><path d="m226.544 66.2207-5.264-1.5701c.911-.4671 1.967-.5646 2.948-.272.98.2925 1.81.9524 2.316 1.8421z" fill="#cfdeff"/><path d="m217.586 64.1883-5.264-1.0159c.408-.292.871-.4979 1.361-.6051s.997-.1135 1.49-.0184c.492.095.96.2894 1.375.5713.415.2818.768.6453 1.038 1.0681z" fill="#cfdeff"/><path d="m220.357 69.4529-1.755 1.1083 2.309-.4618c.277 0 .277-.0924.185-.4618-.093-.3694-.37-.3694-.739-.1847z" fill="#5e221d"/><path d="m213.707 76.5646c-.003.3619.127.7123.365.9846.238.2724.568.4479.928.4931 5.633.8312 8.035-.6465 8.958-1.293.112-.1048.195-.2356.244-.3807.048-.1451.06-.2999.033-.4505v-.1848c-2.955 1.016-7.388.5542-8.497.3695-1.108-.1847-.646-.4618-.554-.9236-.376-.0007-.739.1422-1.013.3997-.275.2574-.441.61-.464.9857z" fill="#de5d70"/><path d="m215.923 78.1347c.641-.655 1.319-1.2718 2.032-1.8472 2.11.2246 4.243.0364 6.28-.5541v.1847c.027.1507.015.3055-.033.4506-.049.1451-.132.2758-.244.3806h-.092c-.831.6465-3.048 1.9395-7.943 1.3854z" fill="#b83d50"/><path d="m220.595 52.1961c-.966-.4628-1.088-2.2178-.273-3.9198.816-1.702 2.26-2.7066 3.226-2.2437.966.4628 1.088 2.2178.272 3.9198-.815 1.702-2.259 2.7065-3.225 2.2437z" fill="#ff9ccd"/><path d="m220.264 48.303c.831-1.7548 2.309-2.7707 3.233-2.309.11.0567.208.135.287.2302s.139.2054.174.324c-1.57-.0924-.738 1.7548-3.694 1.7548z" fill="#ffebf5"/><path d="m224.236 47.749c-.022.7409-.211 1.4673-.554 2.1242l-.277.5542c-.37 0-.924-.1847-1.293.2771-.37.4618-.555 1.2006-1.663 1.3853-.239-.2-.424-.4573-.537-.748s-.151-.6053-.109-.9144h.184c1.94 0 3.141-2.0319 4.249-2.6784z" fill="#ff70b7"/><path d="m230.054 58.1855c-.51 0-.923-.5376-.923-1.2007s.413-1.2006.923-1.2006c.511 0 .924.5375.924 1.2006s-.413 1.2007-.924 1.2007z" fill="#f7d197"/><path d="m235.042 66.2206c-.51 0-.924-.5375-.924-1.2006s.414-1.2007.924-1.2007.923.5376.923 1.2007-.413 1.2006-.923 1.2006z" fill="#f7d197"/><path d="m239.29 0 2.032 6.28032 4.895 2.67836z" fill="#179de0"/><path d="m232.917 71.208c-.273 1.4394-.643 2.8588-1.108 4.2484-.092-1.2006-.554-2.4936-1.293-2.6783-.739-.1848-.831-2.2166-1.755-2.2166l1.386-3.0478c.989 1.1806 1.914 2.4138 2.77 3.6943z" fill="#a8c3ff"/><path d="m229.87 96.3291c-.135.2286-.325.4192-.554.5541z" fill="#d6dfff"/><path d="m223.404 81.1826c-2.309 1.293-3.325 2.1242-3.325 4.3408 1.448-1.152 2.59-2.6428 3.325-4.3408z" fill="#d6dfff"/><path d="m213.06 81.5518c-2.309 2.3089-3.232 3.9713-3.325 5.2643.939-.3432 1.814-.8428 2.586-1.4777z" fill="#fff"/><path d="m230.517 77.9497c-.148 1.4463-.554 2.8541-1.201 4.1561 1.662-1.2007 1.662-2.2166 1.201-4.1561z" fill="#d6dfff"/><path d="m224.975 88.9404c-1.386 2.1243-4.711 2.1242-4.711 2.1242 3.048 1.5701 4.341 1.6625 4.711-2.1242z" fill="#d6dfff"/><path d="m210.013 71.4849c-.761 1.1785-1.117 2.5724-1.016 3.9713 0 0-2.586-2.2165 1.016-3.9713z" fill="#c7d3fc"/><path d="m205.764 90.5103c-.554 1.9395 0 3.6943 1.201 4.156-.069-1.4603-.48-2.8839-1.201-4.156z" fill="#c7d3fc"/><path d="m222.019 62.9878c-2.035-.6011-4.101-1.0943-6.188-1.4777 3.233-.2771 5.172.2771 6.188 1.4777z" fill="#5e221d"/><path d="m227.93 67.236c-.554-.1847-1.201-.5541-1.755 0z" fill="#5e221d"/><path d="m227.653 68.4372c-.37-.4618-.831-1.016-1.57-.7389z" fill="#5e221d"/><path d="m211.582 63.8193c.555.1848 1.293.2771 1.386 1.1083z" fill="#5e221d"/><path d="m211.028 64.9276c.555-.0924 1.293-.2771 1.755.4618z" fill="#5e221d"/><path d="m219.895 67.0516c-.136.8804-.558 1.6917-1.2 2.3089-.37.2771-.093-.3694.461-1.4777.555-1.1083.924-1.5701.739-.8312z" fill="#a25751"/><path d="m223.22 75.0868c.216-.0146.431.0402.614.1565s.324.288.402.49c-2.956 1.0159-7.389.5541-8.497.3694s-.647-.4618-.554-.9235h.092c2.642.2894 5.309.2584 7.943-.0924z" fill="#d6dfff"/><path d="m210.105 62.1566c.631-.6087 1.31-1.1647 2.032-1.6625 0 0-.739 2.1243-1.293 3.8791l-1.57.9235c.199-1.0658.476-2.1154.831-3.1401z" fill="#a8c3ff"/><path d="m168.175 78.5043h.184c.684.0359 1.338.2877 1.869.7193.531.4315.912 1.0204 1.087 1.682l3.325 12.4683 1.108 1.2006c.232.2424.403.536.499.8571.096.321.115.6603.055.9901l-.277 2.4936c-1.016 5.3567-.923.4618-4.156-.3694-3.232-.8312-.831-2.6784-1.293-3.879-2.079-3.185-3.464-6.7726-4.064-10.5288l-2.77-5.0797c1.431-.4562 2.934-.644 4.433-.5541z" fill="#244ab0"/><path d="m168.452 79.4274c.269.0087.533.0829.768.2163.234.1333.433.3218.578.5491.146.2273.234.4867.257.7556.022.2689-.021.5393-.126.7879-2.032 3.5096-8.127 7.481-12.745 8.9587s-4.71.2771-1.755-3.0478c2.956-3.3249 5.819-8.774 13.023-8.2198z" fill="#242236"/><path d="m157.184 90.6954c4.346-1.5361 8.292-4.0296 11.545-7.2962l1.2-1.6625c.105-.2485.148-.519.126-.7879-.023-.2689-.111-.5282-.257-.7556-.145-.2273-.344-.4158-.578-.5491-.235-.1334-.499-.2076-.768-.2163h-.093c-6.188-.4618-8.774 2.9555-11.637 6.465-.404.6284-.868 1.2161-1.385 1.7548-2.863 3.3249-3.787 4.8026 1.847 3.0478z" fill="#242236"/><path d="m157.184 90.695h.277c3.272-1.1302 6.309-2.852 8.959-5.0797l1.847-1.6624.462-.5541c.45-.4827.853-1.0086 1.2-1.5701.105-.2486.148-.519.126-.788-.023-.2689-.111-.5282-.257-.7555-.145-.2273-.344-.4158-.578-.5492-.235-.1333-.499-.2076-.768-.2163h-.832c-.835-.0842-1.679-.0217-2.493.1848-3.972.6465-6.096 3.4172-8.405 6.2803l-.277.4618-1.016 1.2006c-2.955 3.3249-3.879 4.8026 1.755 3.0478z" fill="#242236"/><path d="m187.57 120.25c-.203-6.255-.018-12.517.554-18.749.369-3.1402-.924-1.5701-2.217 1.201-1.293 2.77-.554 7.296 0 12.098.554 4.803 1.755 7.574 1.663 5.45z" fill="#152d69"/><path d="m176.487 101.778c.534 5.587.627 11.208.277 16.809-.37 4.433 1.385 1.755 2.586-.646 1.2-2.402.277-3.141-.462-7.574s-.831-5.634-1.201-7.942c-.369-2.309-1.385-3.6024-1.2-.647z" fill="#152d69"/><path d="m172.423 102.609c.092 5.542-1.201 9.79-3.694 9.698-1.988-.137-3.902-.807-5.542-1.94-1.108-.739-.461-.923 1.57-1.847 1.913-.983 3.536-2.447 4.711-4.248.923-1.663 2.863-5.4495 2.955-1.663z" fill="#173275"/><g fill="#7a2f28"><path d="m155.337 81.4592 1.108 4.895.924 4.0637c0 .0924 10.806-7.0192 10.806-7.2039-.106-.2654-.168-.546-.185-.8312-.113-.3906-.175-.7941-.185-1.2006-.092-.2771-.092-.6465-.184-.9236v-.8312c-.122-.9802-.153-1.9696-.093-2.9555v-.9235c.185-4.2485.37-10.5288.37-10.5288-10.16-.4618-13.484 2.8631-13.484 2.8631-.555 9.051.277 11.1752.923 13.5765z"/><path d="m167.344 79.2431c-.03-1.1729.203-2.3376.683-3.4085.479-1.0708 1.193-2.0206 2.088-2.7794 1.477-1.016 1.662-1.6625 2.493-3.0478.831-1.3854 1.201-1.8472 1.663-2.4013.148-.2361.201-.5192.15-.793-.051-.2739-.204-.5183-.427-.6847-.462-.4618-1.386-.6465-2.586.0923-1.201.7389-3.51 2.6784-5.173 3.7867-1.662 1.1083-3.324 7.4809 1.109 9.2357z"/><path d="m167.528 71.4847c.185-3.602.832-10.4364.924-11.9141.164-1.5338.195-3.0789.092-4.6179-.092-.7389-.092-1.293-1.108-1.293s-1.662 1.2006-1.94 3.5096c-.277 2.3089-.369 3.6019-.369 3.6019-.596 1.8425-1.059 3.7252-1.385 5.6338-.093 1.9395 3.786 5.0797 3.786 5.0797z"/><path d="m164.019 65.6662c-.092-3.0478-.831-10.4364-1.016-12.0988-.185-1.6625-.462-2.0319-1.385-1.9395-.924.0923-1.847.277-1.478 5.4491.277 2.6783.277 4.3408.277 4.3408s0 4.5255.092 5.8185c.093 1.293 3.51-1.5701 3.51-1.5701z"/><path d="m160.694 66.0357c-.369-3.2325-1.108-8.2198-1.293-9.6975-.184-1.4777-.554-2.309-1.57-2.0319s-1.57 1.0159-1.293 3.6943.462 4.5255.554 5.2644c.093.7389.277 4.8026.277 4.8026z"/><path d="m157.738 67.7906c-.647-2.8631-1.57-7.1115-1.847-8.4969s-.647-1.9395-1.663-1.6624-1.385 1.0159-.923 3.4172c.339 1.4918.586 3.0032.738 4.5255l.647 4.2485z"/></g><path d="m167.805 68.8063c-2.216 1.3854-4.71 1.9395-5.634 3.4172-.827 1.0459-1.453 2.2358-1.847 3.5096-.184 1.016-.462.6465-1.385-.6465-.924-1.293-1.755-2.3089-2.124-3.5096-.37-1.2006.092-2.0318 3.879-2.586l7.111-1.0159z" fill="#5e221d"/><path d="m165.034 78.8735c0 .2492.031.4975.093.7389.184 1.1083.646 3.2325 1.016 4.9873.092.2771 2.031-1.2007 2.031-1.3854-.105-.2654-.167-.546-.184-.8312-.113-.3906-.176-.7941-.185-1.2006-.092-.2771-.092-.6465-.185-.9236v-.8312c-.077-.6126-.107-1.23-.092-1.8472.205-1.0823.613-2.1162 1.201-3.0478l-1.201 1.016c-2.309 2.0318-2.494 2.3089-2.494 3.3248z" fill="#91423b"/><path d="m168.914 81.1826.646 1.1083-.831 1.1083c-3.253 3.2666-7.198 5.7601-11.545 7.2962h-.554c9.236-4.8949 12.284-9.5128 12.284-9.5128z" fill="#242236"/><path d="m166.974 61.9718c-.668.0505-1.337-.0769-1.939-.3694 0 0 1.477-1.7548 1.939.3694z" fill="#5e221d"/><path d="m167.251 58.4621c-.561.0771-1.132.0136-1.662-.1847 0 0 1.385-1.016 1.662.1847z" fill="#5e221d"/><path d="m162.541 61.1406c-.62.2255-1.288.2891-1.939.1847 0 0 1.293-1.5701 1.939-.1847z" fill="#5e221d"/><path d="m165.589 65.4814c-3.203.0025-6.395.3744-9.513 1.1083-1.755.5542-1.663 1.1083 1.016.5542 2.441-.5248 4.907-.9255 7.388-1.2007 1.478-.1847 2.771-.4618 1.109-.4618z" fill="#5e221d"/><path d="m161.895 56.8922c-.555-.7388-1.293-.0923-1.386.4618-.092.5541 1.201.7389 1.386-.4618z" fill="#5e221d"/></g><path d="m253.567 51.7477-2.816-1.0928c-.034 0-.034-.0886 0-.0886l2.816-1.0928h.034l1.255-2.4513c0-.0296.102-.0296.102 0l1.255 2.4513h.034l2.816 1.0928c.034 0 .034.0886 0 .0886l-2.816 1.0928h-.034l-1.255 2.4514h-.102l-1.255-2.4514z" fill="#ff99b9"/><path d="m7.57253 86.4172-3.2043-1.2309c-.05933 0-.05933-.0513 0-.1025l3.2043-1.2309h.05934l1.42413-2.7695c0-.0513.11868-.0513.11868 0l1.42412 2.7695h.0594l3.1449 1.2309c.0594.0512.0594.1025 0 .1025l-3.1449 1.2309c-.0158 0-.0309.0054-.042.015-.0111.0097-.0174.0227-.0174.0363l-1.42412 2.7695h-.11868l-1.42413-2.7695c0-.0136-.00625-.0266-.01738-.0363-.01113-.0096-.02622-.015-.04196-.015z" fill="#f7d197"/><rect fill="#f7e5bc" height="70" rx="7" stroke="#fff" stroke-width="2" width="124" x="17" y="30"/><g clip-path="url(#g)"><path d="m12.3918 94.962v-27.4305c5.8096-2.1472 19.5164 1.4819 25.8403 10.2222 7.4435-7.5608 21.7857-8.0447 34.9782 0 3.5402-8.8612 16.7931-15.303 34.1007-9.0427 1.301-10.4641 20.485-19.5975 35.19-7.3491v39.9811h-123.7247c-1.6908-.008-3.3101-.683-4.5057-1.8775-1.1956-1.195-1.8708-2.8135-1.8788-4.5035z" fill="#6adbc6"/><path d="m62.5884 75.7881c-14.3422.0907-26.5967 6.9256-32.497 25.5859h43.1176z" fill="#44c9c5"/><path d="m47.792 101.343h-35.4018v-16.4519c8.5933.8771 24.1761 4.1736 35.4018 16.4519z" fill="#44c9c5"/><path d="m38.8962 93.5708h77.2788c4.872 4.6272 5.114 7.7722 5.114 7.7722h-88.1721s2.3904-5.141 5.7793-7.7722z" fill="#fafafa"/><path d="m37.0812 96.958c-.2551-.2125-.4258-.5091-.4813-.8363s.0079-.6634.1787-.948c1.1196-1.8449 1.4826-3.2965 4.0243-4.6272s4.2059-2.9336 11.9519-3.9316c1.5734-4.0526 1.2406-5.2926 12.9504-6.1999h32.376c5.3258.8468 5.6888.8468 6.6268 3.9921s.907 2.7521 3.691 3.8711 7.111 1.3307 8.775 5.0204c.545 1.2097.756 2.0868-2.421 8.0444h-71.3479c-2.234-1.271-4.3504-2.7385-6.3239-4.385z" fill="#cc4f79"/><path d="m62.5886 81.7153c-5.5977.9678-5.3859.9678-1.6037 5.4135 3.7823 4.4458 8.5933 8.5588 14.0095 10.7666 8.4722 3.4476 15.7341.2117 20.1518-4.9296 6.4148-7.4701 9.1678-11.2505 3.7519-11.2505z" fill="#590942"/><path d="m45.8558 39.6472 2.5114-1.119c.0161 0 .0315-.0064.0428-.0178.0114-.0113.0177-.0267.0177-.0427 0-.0161-.0063-.0314-.0177-.0428-.0113-.0113-.0267-.0177-.0428-.0177l-2.5114-1.119c-.008 0-.0157-.0032-.0214-.0089-.0057-.0056-.0088-.0133-.0088-.0213l-1.1196-2.5102c0-.0303-.0605-.0303-.0908 0l-1.1195 2.5102c0 .0302 0 .0302-.0303.0302l-2.5114 1.119c-.0149.0166-.0231.0382-.0231.0605s.0082.0438.0231.0605l2.5114 1.119h.0303l1.1195 2.5101c.0303.0605.0908.0605.0908 0l1.1196-2.5101z" fill="#fafafa"/><path d="m116.357 43.186 1.633-.7258c.031 0 .031-.0605 0-.0605l-1.633-.7259c0-.008-.004-.0157-.009-.0213-.006-.0057-.014-.0089-.022-.0089l-.726-1.6331c0-.0303-.06-.0303-.06 0l-.727 1.6331h-.03l-1.634.7561c-.03 0-.03.0605 0 .0605l1.634.7258c0 .008.003.0157.009.0214s.013.0088.021.0088l.727 1.6332h.06l.726-1.6332c.031 0 .031 0 .031-.0302z" fill="#f7d78d"/><path d="m94.4204 57.1578c2.1785-6.0486 5.9906-10.4641 7.8066-11.2806 1.815-.8166 1.362.2117-.333 5.3227-1.694 5.1111-1.725 13.4885-4.8715 13.5489-3.1468.0605-2.6021-7.591-2.6021-7.591z" fill="#2e64e8"/><path d="m98.4146 58.7609c1.3011-2.6009 1.3918-3.8711 1.9064-5.8369.272-1.0585.665-2.5404.998-3.7199-1.5731 2.8126-4.3265 9.0729-4.9014 11.069-.5749 1.996.6959 1.0585 1.997-1.5122z" fill="#1c4bba"/><path d="m65.7061 57.5509c-3.0863-6.4417-8.0183-11.0084-10.2877-11.7645-2.2693-.7561-1.6642.3024.7565 5.7462 2.4206 5.4437 3.0258 14.6074 6.8685 14.4562 3.8428-.1513 2.6627-8.4379 2.6627-8.4379z" fill="#2e64e8"/><path d="m77.2035 40.2826c-3.5261 0-6.3845-2.857-6.3845-6.3813s2.8584-6.3813 6.3845-6.3813c3.526 0 6.3844 2.857 6.3844 6.3813s-2.8584 6.3813-6.3844 6.3813z" fill="#201e2f"/><path d="m71.1183 35.569c-.2159-1.6395 2.443-3.3414 5.9388-3.8014 3.4959-.46 6.5049.4961 6.7208 2.1355.216 1.6395-2.4429 3.3414-5.9388 3.8014-3.4958.46-6.5048-.4961-6.7208-2.1355z" fill="#41314a"/><path d="m66.5223 39.012c6.5963-6.1696 17.4286-6.9559 24.8721-1.6029 7.4434 5.3531 5.9003 13.7002 4.69 22.8638l-31.4986.9073c-1.3011-4.9901-4.6294-15.9683 1.9365-22.1682z" fill="#4d7ae8"/><path d="m63.8589 58.4585 31.8313-.9375c5.8398 12.8231 11.6498 36.6849-14.5843 37.4409-25.0233.7259-23.0868-22.0472-17.247-36.5034z" fill="#4d7ae8"/><path d="m63.86 58.4585c-1.3617-5.595-2.8746-14.2143 2.6626-19.4463l.6052-.5142h1.6642s-.6959 10.7968-.121 15.0913c.5749 4.2946.3631 4.7482-.938 5.3228-1.3011.5747-2.5114 1.2702-2.2694 6.7745.2421 5.5042.5749 6.2301-.6354 12.7626s.4236 10.706 3.8428 14.1537c-11.5888-6.1393-9.4103-22.7125-4.811-34.1444z" fill="#2e64e8"/><path d="m88.4589 83.1672c-3.4494 4.6272-12.7688 5.8066-16.5511.1814-1.9062-2.8126 3.1166-2.9638 8.1999-2.9335 5.0834.0302 10.1969.2419 8.3512 2.7521z" fill="#3366e0"/><path d="m75.3084 59.1578c-.0808-2.7213 1.9526-4.9897 4.5416-5.0665 2.5891-.0768 4.7534 2.067 4.8343 4.7884.0808 2.7213-1.9526 4.9897-4.5417 5.0665-2.589.0768-4.7534-2.067-4.8342-4.7884z" fill="#dbe7ff"/><path d="m78.2677 59.7751c-.0496-1.0511.7221-1.9415 1.7236-1.9887 1.0016-.0472 1.8537.7666 1.9033 1.8177s-.7221 1.9415-1.7237 1.9887c-1.0015.0472-1.8536-.7666-1.9032-1.8177z" fill="#201e2f"/><path d="m85.1016 50.4442c-1.9668-4.113-9.2287-3.6896-10.8929.3327z" fill="#201e2f"/><path d="m86.9165 67.6525-.8774.3025-.8775.2117-.8775.2117-.8775.1209c-2.384.2855-4.8017-.0049-7.0501-.8468l-.8472-.3326-.817-.3932-.8169-.4234-.817-.4839h-.0908c-.2598-.143-.5454-.233-.8403-.2648s-.5932-.0047-.8775.0797c-.2843.0845-.5491.2245-.7788.412s-.4199.4188-.5594.6804c-.1845.3464-.2759.7347-.2653 1.127.0106.3922.1229.775.3258 1.111.9711 1.5716 2.3243 2.8721 3.9335 3.7804 1.6079.9215 3.3855 1.5089 5.226 1.7272 1.8406.2183 3.7063.0628 5.4853-.457 1.7701-.5357 3.374-1.5142 4.6598-2.8429.417-.4332.6449-1.0143.6335-1.6154-.0113-.6011-.261-1.1731-.6941-1.5903-.2892-.2641-.6412-.45-1.0224-.5399-.3813-.09-.7793-.0811-1.1561.0257z" fill="#400015"/><path d="m87.8853 72.5518c-.9979.7107-2.1004 1.2617-3.2679 1.6332-1.779.5198-3.6447.6753-5.4853.457s-3.6181-.8057-5.226-1.7272c-1.1447-.6579-2.1681-1.5069-3.0258-2.5102 1.3245-1.3029 2.872-2.3579 4.5689-3.115h.0606l.8472.3326c2.2484.8419 4.6661 1.1323 7.0501.8468l.8775-.1209h.0907c1.4877 1.1024 2.6909 2.5435 3.51 4.2037z" fill="#590942"/><path d="m71.5451 68.8319-.0908-3.0546c.5128-.1261 1.0544-.0503 1.5129.2117h.0908l.8169.4839.817.4234.817.3932.8472.3327c2.2484.8418 4.6661 1.1322 7.0501.8468l.8774-.121.8775-.2117.8775-.2117.8775-.3024h.121c.2955-.0804.6042-.101.9078-.0605l.0605 1.5726c-6.0214 2.9336-12.8294 1.2702-16.4603-.3024z" fill="#dbe7ff"/><path d="m85.7663 68.0153.2723-.0604.8775-.3025h.121c.2955-.0804.6042-.1009.9078-.0605l.0605 1.5727c-.6193.2909-1.2559.5434-1.9063.7561z" fill="#b5cdff"/><path d="m74.9043 69.9811c-1.1505-.2858-2.2742-.6703-3.3586-1.1492l-.0908-3.0546c.5128-.1261 1.0545-.0503 1.5129.2117h.0908l.817.4839.8169.4234.3026.1512z" fill="#b5cdff"/><path d="m72.5747 63.2671-4.6597 2.3287c-.0605-2.8126 2.2693-3.1452 4.6597-2.3287z" fill="#3366e0"/><path d="m92.9073 69.4668-4.2967-4.2341c3.2679-.0907 4.569 2.0868 4.2967 4.2341z" fill="#3366e0"/><path d="m90.3354 73.792c-1.4523 2.0565-2.935 3.9618-2.935 3.9618 2.9653-.2419 2.935-3.9618 2.935-3.9618z" fill="#3366e0"/><path d="m66.5214 39.012c6.5962-6.1696 17.4285-6.9559 24.872-1.6029 3.4191 2.4497 4.9018 5.716 5.3859 9.4661-4.0848 3.1453-4.5387-2.3287-6.2634-8.0144-6.1121 4.9599-15.371 5.0204-21.3016.6049l-.2421 4.8086c-.2723 4.6575-3.4191 5.2018-6.2331 2.7219.3631-2.9336 1.4221-5.7764 3.7823-7.9842z" fill="#201e2f"/><path d="m87.0019 46.4391c-.7731-.7862-1.0712-1.7463-.666-2.1444.4053-.398 1.3605-.0833 2.1335.703.7731.7863 1.0712 1.7464.666 2.1444-.4053.3981-1.3605.0833-2.1335-.703z" fill="#618aed"/><path d="m57.2938 48.8714c1.6418 2.3593 3.1082 4.8358 4.3873 7.4096.7565 1.5726-.0302 1.7843-.2723 3.6896-.242 1.9053-.8472.9981-1.6339-2.238-.7867-3.236-1.2103-4.3852-1.997-6.1393s-2.1181-5.0808-.4841-2.7219z" fill="#1c4bba"/><path d="m53.3007 88.127c1.4826 3.9619 5.4161 13.216 5.4161 13.216h11.5283c-6.1121-4.264-10.7416-9.0727-12.8293-12.7623-2.0878-3.6897-2.5115-5.8974-4.0849-1.7844-.1754.4244-.1862.8988-.0302 1.3307z" fill="#ba3b66"/><path d="m55.4482 101.344c-5.5372-6.5632-7.3526-8.8012-8.8353-9.648-1.4826-.8468-3.9638-2.1473-1.3011 1.9053s7.1409 7.7427 7.1409 7.7427z" fill="#ba3b66"/><path d="m93.6634 101.343c4.2966-5.2015 7.2616-10.2824 8.3816-13.095 1.119-2.8126 1.452-3.5082 1.725-1.9355.272 1.5726.877 2.2984.332 4.4759-.544 2.1775-2.33 8.0749-3.449 10.5546z" fill="#ba3b66"/><path d="m111.365 101.343h1.694c1.936-4.8992 2.723-7.1069 2.814-8.7401.091-1.6331-1.876 3.7804-4.508 8.7401z" fill="#ba3b66"/><path d="m104.314 101.374h3.571c.938-7.1074.938-8.4986.726-10.4946s-1.21-.2722-1.936 3.2965c-.55 2.4707-1.34 4.8815-2.361 7.1981z" fill="#ba3b66"/><path d="m118.657 87.4618c-3.177-5.1413-6.597-7.6515-10.742-9.9197s-4.69-3.5687-1.634-4.5969c3.056-1.0283 5.689-.6351 9.35.877 3.661 1.5122 6.263 2.3892 7.383 6.6837 1.119 4.2946-.454 6.8955-4.357 6.9559z" fill="#542113"/><path d="m117.598 82.0786c-1.967-8.2564-3.298-14.5167-4.569-20.1419s-2.693-8.8915-.514-9.8895c2.178-.998 3.358-.6351 6.233 5.7765 2.874 6.4115 4.145 11.0387 5.083 14.3654.938 3.3268 4.085 12.3694-6.233 9.8895z" fill="#542113"/><path d="m121.714 69.1345 1.906-.2722c-1.029-10.948-1.573-15.6054-1.816-18.7507-.242-3.1453 1.06-3.2057 3.057-3.2965 1.997-.0907 2.723.7259 3.6 4.8389.878 4.1131 1.937 11.2504 2.33 14.0631.393 2.8126 1.059 9.2846.999 11.3411-.061 2.0565-10.076 2.9941-10.076-7.9237z" fill="#542113"/><path d="m130.972 71.8866c-.302-4.2643.333-15.6357.394-17.7527.06-2.117.817-1.8751 2.632-1.9356s2.572.7561 2.814 5.7462.635 10.4036.575 12.9138c1.306 3.5347 1.802 7.3172 1.452 11.069-.363 3.9618-.877 5.0203-1.603 6.2603-.727 1.24-5.053 2.6311-10.591 3.1755-5.537.5444-6.051-.2419-7.988-3.9013-1.936-3.6595 1.695-13.5187 1.695-13.5187z" fill="#542113"/><path d="m138.475 84.7701c.817 1.9053 2.42 6.4115 3.994 10.8875-.178 1.5614-.924 3.003-2.095 4.0512s-2.687 1.6302-4.259 1.6342h-15.523c.031-.514.454-7.7722-.998-12.1876 0 0 17.035-8.6193 18.881-4.3853z" fill="#542113"/><g fill="#4a1a0d"><path d="m119.596 76.2416c3.57 2.2682 4.568 3.357 5.446 4.9296.877 1.5727 1.725 1.7239 4.962 1.7844 3.238.0605 3.298.121 4.206-3.7199s-.454-5.474-3.964-5.3228c-4.659.1815-12.799 1.119-10.65 2.3287z"/><path d="m135.904 69.6184h-11.982c3.721-1.6936 8.926-1.4819 11.982 0z"/><path d="m121.772 70.1625c-1.785.6351-5.264 2.117-5.264 2.117 2.541-3.7501 5.264-2.117 5.264-2.117z"/><path d="m119.836 62.1176c-1.845.3629-5.537 1.2702-5.537 1.2702 3.117-3.2965 5.537-1.2702 5.537-1.2702z"/><path d="m128.854 59.5169c-1.725.1512-5.204.5746-5.204.5746 3.358-2.8428 5.204-.5746 5.204-.5746z"/><path d="m136.176 62.1782c-1.422-.2117-4.357-.4536-4.357-.4536 3.268-1.7844 4.357.4536 4.357.4536z"/></g><path d="m104.648 73.792c2.783 2.117 6.929 2.5404 10.892 4.5667 3.964 2.0263 4.66 4.1735 5.749 7.1374.693 1.9604 1.268 3.9599 1.725 5.9881-2.299-.2419-2.965-1.3912-4.357-4.0223-3.177-5.1414-6.596-7.6515-10.742-9.9198-3.116-1.6633-4.205-2.8126-3.267-3.7501z" fill="#732d1a"/><path d="m119.596 89.1553-.938-1.6936c-.182-.3327-.394-.6049-.575-.9073 1.967 2.6311 7.11 3.1755 11.528 3.4779s8.049-1.119 8.866-5.2623c.514 1.2097 2.36 5.8974 4.024 10.2524v6.3206h-21.907c.03-.514.454-7.7722-.998-12.1877z" fill="#4a1a0d"/><path d="m112.484 52.0469c-.288 1.057-.309 2.1689-.061 3.236.575 2.7521 1.876 8.1051 4.63 19.1136l-1.362-.5141c-1.029-4.476-1.876-8.3471-2.663-11.946-1.27-5.5648-2.693-8.8613-.544-9.8895z" fill="#732d1a"/><path d="m121.803 50.1112c.242 3.115.817 7.9539 1.816 18.7507l.817-.1815-1.332-21.654c-.938.2722-1.452.998-1.301 3.0848z" fill="#732d1a"/><path d="m29.6982 81.7154-9.5917-6.9559c3.0258-.3327 8.9866 0 9.5917 6.9559z" fill="#44c9c5"/></g><path d="m151.856 23.7995 2.511-1.119c.016 0 .032-.0064.043-.0177s.018-.0267.018-.0428c0-.016-.007-.0314-.018-.0427-.011-.0114-.027-.0178-.043-.0178l-2.511-1.119c-.008 0-.016-.0031-.022-.0088-.005-.0057-.008-.0134-.008-.0214l-1.12-2.5102c0-.0302-.061-.0302-.091 0l-1.119 2.5102c0 .0302 0 .0302-.031.0302l-2.511 1.119c-.015.0167-.023.0382-.023.0605s.008.0439.023.0605l2.511 1.119h.031l1.119 2.5102c.03.0605.091.0605.091 0l1.12-2.5102z" fill="#fafafa"/><rect fill="#5865f2" height="44" rx="22" width="44" x="122" y="81"/><g clip-path="url(#h)"><path d="m152.4 94h-16.8c-1.155 0-2.1.945-2.1 2.1v12.6c0 1.155.945 2.1 2.1 2.1h1.05v2.258c0 .997 1.249 1.428 1.869.651l2.331-2.909h11.55c1.155 0 2.1-.945 2.1-2.1v-12.6c0-1.155-.945-2.1-2.1-2.1zm-5.25 3.9375c.724 0 1.312.588 1.312 1.3125s-.588 1.313-1.312 1.313c-.725 0-1.313-.5885-1.313-1.313s.588-1.3125 1.313-1.3125zm-6.3 0c.725 0 1.312.588 1.312 1.3125s-.587 1.313-1.312 1.313-1.313-.5885-1.313-1.313.588-1.3125 1.313-1.3125zm3.15 8.6625c-1.344 0-2.562-.504-3.497-1.333-.703-.63-.22-1.817.725-1.817h5.523c.945 0 1.438 1.187.725 1.817-.924.829-2.153 1.333-3.497 1.333z" fill="#fff"/></g><rect height="44" rx="22" stroke="#202225" stroke-width="4" width="44" x="122" y="81"/></svg>