<svg fill="none" height="88" viewBox="0 0 200 88" width="200" xmlns="http://www.w3.org/2000/svg" xmlns:xlink="http://www.w3.org/1999/xlink"><clipPath id="a"><path d="m0 0h200v87.3336h-200z"/></clipPath><clipPath id="b"><path d="m42.1055 0h124.812v82.7068h-124.812z"/></clipPath><g clip-path="url(#a)"><path d="m48.2812 25.1288-.8307 1.6634c-.1917.3839.1917.8317.639.6398l1.6613-.8317c.1278-.064.2556-.064.3834 0l1.6614.8317c.3833.1919.8306-.192.6389-.6398l-.8306-1.6634c-.0639-.128-.0639-.2559 0-.3839l.8306-1.6634c.1917-.3838-.1917-.8317-.6389-.6397l-1.6614.8317c-.1278.064-.2556.064-.3834 0l-1.6613-.8317c-.3834-.192-.8307.1919-.639.6397l.8307 1.6634c.0639.064.0639.2559 0 .3839z" fill="#aec7ff"/><path d="m160.881 60.0712-.83 1.6634c-.192.3838.191.8317.639.6397l1.661-.8317c.128-.0639.256-.0639.383 0l1.662.8317c.383.192.83-.1919.639-.6397l-.831-1.6634c-.064-.128-.064-.2559 0-.3839l.831-1.6634c.191-.3838-.192-.8317-.639-.6397l-1.662.8317c-.127.0639-.255.0639-.383 0l-1.661-.8317c-.384-.192-.831.1919-.639.6397l.83 1.6634c.064.064.064.2559 0 .3839z" fill="#aec7ff"/><path d="m188.514 50.2528c-.383 0-.639-.2559-.639-.6398v-.6397c0-.3839.256-.6398.639-.6398.384 0 .639.2559.639.6398v.6397c0 .3199-.319.6398-.639.6398z" fill="#7196ff"/><path d="m188.514 55.371c-.383 0-.639-.2559-.639-.6398v-.6398c0-.3838.256-.6397.639-.6397.384 0 .639.2559.639.6397v.6398c0 .3199-.319.6398-.639.6398z" fill="#7196ff"/><path d="m190.112 51.8522c0-.3839.255-.6398.639-.6398h.639c.383 0 .639.2559.639.6398 0 .3838-.256.6397-.639.6397h-.639c-.384 0-.639-.3198-.639-.6397z" fill="#7196ff"/><path d="m185 51.8522c0-.3839.256-.6398.639-.6398h.639c.383 0 .639.2559.639.6398 0 .3838-.256.6397-.639.6397h-.639c-.383 0-.639-.3198-.639-.6397z" fill="#7196ff"/><g fill="#d4e4ff"><path d="m29.5145 46.2533c-.3834 0-.639-.2559-.639-.6398v-.6397c0-.3839.2556-.6398.639-.6398.3833 0 .6389.2559.6389.6398v.6397c0 .3839-.2556.6398-.6389.6398z"/><path d="m29.5145 51.371c-.3834 0-.639-.2559-.639-.6398v-.6398c0-.3838.2556-.6397.639-.6397.3833 0 .6389.2559.6389.6397v.6398c0 .3839-.2556.6398-.6389.6398z"/><path d="m31.1118 47.8522c0-.3839.2556-.6398.639-.6398h.639c.3834 0 .639.2559.639.6398 0 .3838-.2556.6397-.639.6397h-.639c-.3834 0-.639-.2559-.639-.6397z"/><path d="m26 47.8522c0-.3839.2556-.6398.639-.6398h.639c.3834 0 .6389.2559.6389.6398 0 .3838-.2555.6397-.6389.6397h-.639c-.3834 0-.639-.2559-.639-.6397z"/><path d="m168.514 9.25329c-.383 0-.639-.25591-.639-.63977v-.63977c0-.38386.256-.63977.639-.63977.384 0 .639.25591.639.63977v.63977c0 .38386-.255.63977-.639.63977z"/><path d="m168.514 14.3715c-.383 0-.639-.256-.639-.6398v-.6398c0-.3838.256-.6398.639-.6398.384 0 .639.256.639.6398v.6398c0 .3838-.255.6398-.639.6398z"/><path d="m170.111 10.8522c0-.3839.256-.6398.639-.6398h.639c.384 0 .639.2559.639.6398 0 .3838-.255.6397-.639.6397h-.639c-.383 0-.639-.2559-.639-.6397z"/><path d="m165 10.8522c0-.3839.255-.6398.638-.6398h.639c.384 0 .639.2559.639.6398 0 .3838-.255.6397-.639.6397h-.639c-.383 0-.638-.2559-.638-.6397z"/></g><g clip-path="url(#b)"><path d="m166.918 59.1326c-34.885 26.7279-64.45-6.4336-108.0097 23.5742l-3.838-13.498c1.7474-1.5138 3.2139-3.8791 4.228-6.7648.4195-1.2126.743-2.457.9673-3.7214.3424-1.8353.5147-3.6988.5149-5.5663 0-7.8371-2.8863-14.4915-6.8959-16.9356-.7053-.4355-1.482-.7399-2.2934-.8988-.3697-.0758-.7461-.1128-1.1233-.1104-1.6226 0-3.1671.6623-4.5401 1.8291l-3.8223-13.4664c43.5594-30.02359 73.1245 3.1537 108.0095-23.5742l3.806 13.4034c-1.497 1.2772-2.777 3.1853-3.744 5.5033-.455 1.0616-.826 2.1584-1.108 3.2798-.594 2.387-.893 4.8395-.889 7.3009 0 8.4678 3.386 15.5795 7.926 17.456.691.2802 1.424.4402 2.168.473h.219c1.638 0 3.198-.6622 4.571-1.8449z" fill="#ff78b7"/><path d="m147.259 54.181c-23.152 7.6951-45.197-3.9264-72.3905 5.0144l-9.1737-32.2785c27.1934-8.9566 49.2382 2.6649 72.3912-5.0302z" fill="#fff"/><path d="m128.319 43.821-1.716-6.0394c-.251-.8727-.777-1.6389-1.497-2.1824-.721-.5435-1.597-.8347-2.497-.8294h-.936l-.296-1.0407c-.344-1.1827-1.047-2.226-2.01-2.9818-.964-.7558-2.138-1.1856-3.357-1.2285-8.612-.2996-17.3646-1.4192-26.5851-1.2615-.5566.0073-1.1041.1442-1.5999.4002-.4957.2559-.9264.624-1.2584 1.0756-.3321.4516-.5567.9745-.6562 1.528-.0996.5536-.0714 1.123.0822 1.6638l.2028.7095-.7177.0474c-.4059.0353-.7991.161-1.1513.368s-.6547.4902-.8859.8293c-.2311.3392-.3852.7258-.451 1.1322-.0659.4064-.042.8225.07 1.2184l1.7162 6.071c.2636.9217.8353 1.7224 1.6177 2.2659.7823.5434 1.7268.7959 2.6727.7143l.7176-.0315.1873.6465c.3436 1.2235 1.0775 2.2979 2.0875 3.0565 1.01.7585 2.2397 1.1585 3.4978 1.138 9.0647-.1735 17.6767.883 26.1327 1.2299.573.0252 1.145-.0879 1.667-.33.521-.242.979-.6061 1.334-1.0621s.598-.9908.708-1.5604c.11-.5695.085-1.1573-.074-1.715l-.078-.2681h.452c.425-.0081.841-.1144 1.218-.3106s.705-.4771.958-.8212c.253-.344.425-.7421.502-1.1637.077-.4215.058-.8554-.057-1.2682z" fill="#7194ff"/><path d="m158.274 47.4166c-.744-.0329-1.477-.1928-2.168-.4731l2.387 8.4048c-8.363 5.0144-16.959 7.1589-28.426 7.1589-4.556 0-9.08-.3153-13.87-.6622-4.79-.347-9.907-.6939-15.087-.6939-9.7037 0-22.6374 1.0881-37.5212 9.2878l-3.3231-11.7161c-.2244 1.2644-.5478 2.5088-.9673 3.7214l3.1047 10.9592c14.135-8.3732 26.8034-10.2812 38.7069-10.2812 10.048 0 19.565 1.3561 28.957 1.3561 10.188 0 20.251-1.5926 30.719-8.2312zm-70.5965-29.6924c5.0237 0 10.0006.3626 14.8055.6938 4.806.3311 9.424.6623 14.12.6623 7.988 0 18.441-.8515 29.549-7.1906l2.917 10.297c.282-1.1215.653-2.2183 1.108-3.2799l-2.855-10.02887c-10.469 6.63857-20.531 8.23127-30.719 8.23127-9.408 0-18.8937-1.3561-28.9255-1.3561-11.9195 0-24.6035 1.9238-38.7229 10.2812l2.6366 9.2877c.8114.1589 1.5882.4633 2.2935.8988l-2.6367-9.2562c14.4314-8.1682 27.0062-9.2247 36.4295-9.2404z" fill="#e9459d"/><path d="m112.843 45.6661c-3.901-.268-7.864-.5677-11.889-.7253-.755-.0268-1.4812-.2968-2.0734-.7706-.5923-.4737-1.0191-1.1264-1.2183-1.8628l-1.4977-5.2668c-.0843-.295-.098-.606-.04-.9074.0579-.3014.1858-.5846.3731-.8263.1874-.2417.4288-.435.7045-.564s.5778-.19.8813-.1779c4.0725.1577 8.0815.473 12.0135.7411.741.0491 1.449.3284 2.027.7998s.998 1.1118 1.202 1.8336l1.482 5.2667c.087.2983.101.6132.04.918-.06.3048-.192.5903-.385.8321-.194.2418-.442.4326-.724.5563-.282.1236-.59.1763-.896.1535z" fill="#b6cbff"/><path d="m105.994 42.6385c.025.0919.028.1886.008.282-.019.0933-.06.1806-.12.2547-.059.074-.136.1326-.222.1709s-.181.0552-.275.0493l-4.119-.2208c-.193-.005-.381-.0717-.535-.1906-.154-.119-.267-.284-.323-.4717l-.031-.1419c-.027-.0916-.033-.1886-.016-.2828.018-.0941.057-.1828.115-.2584.058-.0757.133-.1362.219-.1765.086-.0402.18-.0591.275-.055 1.389.0631 2.777.1419 4.15.2366.189.0091.37.0779.519.1967.148.1188.256.2816.308.4655zm6.225.4257-.032-.1419c-.053-.1846-.161-.3483-.308-.4694-.148-.1212-.329-.1939-.518-.2087l-3.09-.2049c-.095-.0098-.191.0045-.279.0416-.089.0371-.166.0958-.227.1709-.06.0751-.101.1641-.119.2591s-.012.1931.017.2852l.031.142c.054.1845.161.3483.309.4694s.328.1939.518.2086l3.089.205c.094.0059.189-.011.275-.0493s.163-.0969.222-.1709c.06-.074.101-.1613.12-.2547.02-.0933.017-.19-.008-.282z" fill="#7194ff"/><path d="m93.84 37.4348c.1404 1.1038-.5617 2.0026-1.5914 2.0026s-1.9502-.8988-2.0906-2.0026c-.1404-1.1039.5617-2.0027 1.5914-2.0027s1.9501.8988 2.0906 2.0027zm25.82 1.2614c-.14-1.1195-1.076-2.0026-2.106-2.0026-1.029 0-1.732.8831-1.591 2.0026.14 1.1196 1.092 1.9869 2.106 1.9869s1.732-.883 1.591-1.9869zm-6.396 8.1682-6.615-.4573c2.87 2.9015 5.507 2.6176 6.615.4573z" fill="#000"/><path d="m136.463 43.8528-.39.063c-1.043.1772-2.114-.04-3.009-.61s-1.551-1.453-1.843-2.4806l-.109-.3785c-.136-.4845-.17-.9927-.099-1.4913.072-.4986.246-.9763.513-1.402.266-.4257.619-.7897 1.034-1.0683.415-.2785.884-.4653 1.376-.5482l.39-.0631c1.042-.185 2.114.0269 3.011.5949.896.5679 1.552 1.4515 1.841 2.48l.109.3785c.136.4855.17.9946.099 1.4941-.071.4996-.246.9784-.512 1.4053s-.619.7923-1.034 1.0725c-.415.2801-.884.4688-1.377.5537zm-55.2446-3.6899c-.2921-1.0265-.9488-1.908-1.8442-2.4754-.8953-.5675-1.9664-.7809-3.0079-.5995l-.4056.0631c-.4903.0848-.9574.273-1.3708.5524-.4135.2794-.7641.6437-1.0291 1.0691-.2649.4255-.4382.9026-.5086 1.4002-.0703.4977-.0362 1.0047.1002 1.4881l.1092.3785c.2887 1.0263.9417 1.909 1.834 2.4792s1.9613.7879 3.0025.6114l.4056-.063c.4905-.0852.9579-.2735 1.3719-.5526.414-.2792.7654-.6431 1.0316-1.0681.2661-.4251.441-.9019.5135-1.3995.0724-.4977.0407-1.0052-.0931-1.4897z" fill="#ffe55c"/><path d="m165.763 20.9406c-1.125-.7332-2.083-1.7003-2.809-2.8368-.726-1.1366-1.205-2.4165-1.403-3.7545l-.687-4.60448c-.015-.11004-.069-.21075-.153-.2833-.083-.07255-.189-.11197-.299-.11091-.109.00213-.214.04269-.297.11467-.082.07197-.138.17085-.156.27954l-.686 4.60448c-.195 1.3373-.67 2.6172-1.394 3.7539s-1.68 2.1041-2.803 2.8374l-.593.3942c-.067.0372-.123.092-.161.1587-.038.0666-.058.1426-.057.2198v.0315c.001.0789.021.1563.059.2252.038.0688.093.1269.159.169l.593.3785c1.123.7333 2.079 1.7007 2.803 2.8374s1.199 2.4165 1.394 3.7539l.686 4.6044c.018.1087.074.2076.156.2796.083.072.188.1125.297.1147.11.001.216-.0384.299-.111.084-.0725.138-.1732.153-.2833l.687-4.6044c.198-1.3381.677-2.618 1.403-3.7545s1.684-2.1036 2.809-2.8368l.593-.3785c.062-.0448.113-.1039.148-.1725.035-.0685.054-.1445.055-.2217v-.0315c.001-.0754-.018-.1497-.053-.2159-.036-.0663-.087-.1222-.15-.1626z" fill="#8ad7ff"/><path d="m49.2197 55.7898c-.6391-.4179-1.1826-.9689-1.5943-1.6161-.4116-.6472-.6819-1.3757-.7928-2.1368l-.39-2.6334c-.0078-.0641-.0397-.1228-.0891-.1638-.0493-.0411-.1124-.0615-.1761-.057-.0612-.0004-.1204.0218-.1664.0625s-.0756.097-.0833.1583l-.39 2.6334c-.1175.7609-.3921 1.4883-.8061 2.1349-.4139.6466-.9579 1.1979-1.5965 1.618l-.3277.2208c-.0382.0223-.07.0545-.0919.0933s-.0333.0828-.0329.1275c.0011.0443.0131.0877.0349.1262.0218.0386.0527.071.0899.0945l.3277.2208c.6431.4188 1.1902.9717 1.6045 1.6217.4144.65.6865 1.382.7981 2.147l.39 2.6176c.0077.0613.0373.1176.0833.1583s.1052.0629.1664.0625c.0637.0045.1268-.0159.1761-.057.0494-.041.0813-.0997.0891-.1638l.39-2.6176c.107-.7624.3757-1.4925.7876-2.1402.412-.6478.9576-1.1979 1.5995-1.6128l.3432-.2207c.0372-.0235.0682-.056.0899-.0945.0218-.0385.0338-.0819.0349-.1263.0004-.0446-.0109-.0886-.0329-.1274-.0219-.0388-.0536-.071-.0919-.0933z" fill="#57f287"/></g></g></svg>