<svg fill="none" height="158" viewBox="0 0 280 158" width="280" xmlns="http://www.w3.org/2000/svg" xmlns:xlink="http://www.w3.org/1999/xlink"><linearGradient id="a" gradientUnits="userSpaceOnUse" x1="70.5782" x2="280.797" y1="39.6721" y2="111.925"><stop offset="0" stop-color="#8547c6"/><stop offset=".52899" stop-color="#b845c1"/><stop offset="1" stop-color="#ab5d8a"/></linearGradient><linearGradient id="b"><stop offset="0" stop-color="#b473f5"/><stop offset="1" stop-color="#e292aa"/></linearGradient><linearGradient id="c" gradientUnits="userSpaceOnUse" x1="82.5223" x2="297.522" xlink:href="#b" y1="108.806" y2="108.806"/><linearGradient id="d" gradientUnits="userSpaceOnUse" x1="176.701" x2="211.737" xlink:href="#b" y1="106.468" y2="106.468"/><linearGradient id="e" gradientUnits="userSpaceOnUse" x1="135.568" x2="256.746" xlink:href="#b" y1="107.98" y2="107.98"/><linearGradient id="f" gradientUnits="userSpaceOnUse" x1="161.641" x2="233.596" xlink:href="#b" y1="107.285" y2="107.285"/><linearGradient id="g" gradientUnits="userSpaceOnUse" x1="252.369" x2="268.41" xlink:href="#b" y1="65.1976" y2="65.1976"/><linearGradient id="h" gradientUnits="userSpaceOnUse" x1="250.522" x2="256.219" xlink:href="#b" y1="56.1313" y2="56.1313"/><linearGradient id="i" gradientUnits="userSpaceOnUse" x1="113.522" x2="123.076" xlink:href="#b" y1="133.044" y2="133.044"/><linearGradient id="j" gradientUnits="userSpaceOnUse" x1="255.522" x2="265.076" xlink:href="#b" y1="147.044" y2="147.044"/><linearGradient id="k" gradientUnits="userSpaceOnUse" x1="123.117" x2="128.814" xlink:href="#b" y1="136.626" y2="136.626"/><linearGradient id="l" gradientUnits="userSpaceOnUse" x1="265.117" x2="270.814" xlink:href="#b" y1="150.626" y2="150.626"/><linearGradient id="m" gradientUnits="userSpaceOnUse" x1="128.146" x2="263.389" xlink:href="#b" y1="108.211" y2="108.211"/><linearGradient id="n" gradientUnits="userSpaceOnUse" x1="304.522" x2="260.522" xlink:href="#b" y1="112.681" y2="112.681"/><clipPath id="o"><rect height="109.694" rx="4" width="197.248" x="82.5223" y="48.3057"/></clipPath><mask id="p" height="91" maskUnits="userSpaceOnUse" width="136" x="128" y="63"><path d="m263.389 127.476c-37.8 28.961-69.836-6.972-117.036 25.544l-4.159-14.626c1.894-1.64 3.483-4.203 4.582-7.33.454-1.314.805-2.662 1.048-4.032.371-1.989.558-4.008.558-6.032 0-8.492-3.128-15.703-7.472-18.351-.765-.472-1.606-.802-2.486-.974-.4-.082-.808-.122-1.217-.12-1.758 0-3.431.718-4.919 1.983l-4.142-14.5924c47.2-32.5327 79.236 3.4173 117.036-25.5443l4.125 14.5235c-1.623 1.384-3.009 3.4515-4.057 5.9632-.494 1.1503-.895 2.3388-1.201 3.554-.644 2.5864-.968 5.2439-.963 7.9111 0 9.1759 3.668 16.8819 8.588 18.9149.749.304 1.543.477 2.349.512h.237c1.775 0 3.466-.717 4.953-1.999z" fill="url(#m)"/></mask><path d="m0 0h275.771c2.209 0 4 1.79086 4 4v150c0 2.209-1.791 4-4 4h-275.771z" fill="#111214"/><path d="m0 0h275.771c2.209 0 4 1.79086 4 4v150c0 2.209-1.791 4-4 4h-275.771z" fill="url(#a)"/><g fill="#fff"><path d="m24.4303 62.5545v1.764h-6.65v-.546c0-.8307.1353-1.5214.406-2.072.28-.56.616-1.0034 1.008-1.33.4013-.3267.9286-.6814 1.582-1.064.6346-.3734 1.0546-.7 1.26-.98.2053-.2894.308-.5974.308-.924 0-.3547-.1214-.6394-.364-.854-.2334-.2147-.574-.322-1.022-.322-.3827 0-.7234.126-1.022.378-.2894.2426-.518.5926-.686 1.05l-1.638-.924c.2426-.672.644-1.218 1.204-1.638.5693-.42 1.316-.63 2.24-.63 1.008 0 1.8106.2706 2.408.812.5973.532.896 1.2506.896 2.156 0 .6813-.196 1.2786-.588 1.792-.3827.5133-1.0314 1.0313-1.946 1.554-.532.308-.9474.6066-1.246.896-.2987.28-.49.574-.574.882zm5.7193-1.792h-4.48v-1.68h4.48zm4.8149 3.556h-2.17l-1.778-6.58h1.946l1.036 4.368 1.12-4.368h2.016l1.12 4.368 1.036-4.368h1.946l-1.778 6.58h-2.17l-1.162-4.298zm10.4987.196c-1.0547 0-1.9087-.294-2.562-.882-.644-.588-.966-1.4514-.966-2.59 0-.7747.154-1.4234.462-1.946.308-.532.7093-.924 1.204-1.176.504-.252 1.0407-.378 1.61-.378 1.0547 0 1.8387.3126 2.352.938.5133.6253.77 1.4373.77 2.436 0 .2146-.014.434-.042.658h-4.452c.0933.4293.2847.7653.574 1.008.2893.2426.658.364 1.106.364.3173 0 .602-.056.854-.168s.4947-.2847.728-.518l.994 1.26c-.3267.308-.7.5506-1.12.728-.42.1773-.924.266-1.512.266zm1.134-4.27c-.1027-.784-.56-1.176-1.372-1.176-.3733 0-.6767.1026-.91.308-.224.2053-.378.4946-.462.868zm6.4265 4.27c-1.0546 0-1.9086-.294-2.562-.882-.644-.588-.966-1.4514-.966-2.59 0-.7747.154-1.4234.462-1.946.308-.532.7094-.924 1.204-1.176.504-.252 1.0407-.378 1.61-.378 1.0547 0 1.8387.3126 2.352.938.5134.6253.77 1.4373.77 2.436 0 .2146-.014.434-.042.658h-4.452c.0934.4293.2847.7653.574 1.008.2894.2426.658.364 1.106.364.3174 0 .602-.056.854-.168s.4947-.2847.728-.518l.994 1.26c-.3266.308-.7.5506-1.12.728-.42.1773-.924.266-1.512.266zm1.134-4.27c-.1026-.784-.56-1.176-1.372-1.176-.3733 0-.6766.1026-.91.308-.224.2053-.378.4946-.462.868zm3.1115 4.074v-10.22h1.932v5.46l1.862-1.82h2.324l-2.45 2.38c.532.6066 1.0127 1.2693 1.442 1.988.4387.7186.8027 1.456 1.092 2.212h-2.156c-.3826-1.1574-.9426-2.1374-1.68-2.94l-.434.434v2.506zm13.2874.196c-.7654 0-1.33-.1914-1.694-.574-.364-.3827-.546-.9847-.546-1.806v-2.744h-1.162v-1.652h1.162v-1.708l1.946-.56v2.268h1.596v1.652h-1.596v2.534c0 .2986.056.532.168.7.112.1586.322.238.63.238.2986 0 .5646-.098.798-.294v1.61c-.3174.224-.7514.336-1.302.336zm2.572-.196v-6.58h1.736l.182.966c.1774-.3827.406-.672.686-.868.2894-.196.6534-.294 1.092-.294.2707 0 .4667.0326.588.098v1.848c-.2986-.1214-.616-.182-.952-.182-.2893 0-.5646.0933-.826.28-.2613.1773-.4573.4293-.588.756v3.976zm6.6535-7.63c-.3546 0-.6346-.1027-.84-.308-.2053-.2054-.308-.4854-.308-.84 0-.3547.1027-.6347.308-.84.2054-.2054.4854-.308.84-.308.3547 0 .6347.1026.84.308.2054.2053.308.4853.308.84 0 .3546-.1026.6346-.308.84-.2053.2053-.4853.308-.84.308zm.966 7.63h-1.932v-6.58h1.932zm3.5801.196c-.5974 0-1.0827-.1774-1.456-.532-.3734-.364-.56-.854-.56-1.47 0-.7467.336-1.2974 1.008-1.652.6813-.364 1.638-.5554 2.87-.574v-.042c0-.336-.112-.6067-.336-.812-.2147-.2054-.4994-.308-.854-.308-.2707 0-.5554.0513-.854.154-.2894.1026-.5647.2706-.826.504l-.896-1.19c.336-.3454.7373-.6067 1.204-.784.4666-.1774.9753-.266 1.526-.266 1.9786 0 2.968.9006 2.968 2.702v4.074h-1.806l-.126-.714c-.4574.6066-1.078.91-1.862.91zm.532-1.512c.28 0 .5226-.056.728-.168.2146-.1214.4153-.2754.602-.462v-.882c-1.3347.0653-2.002.3733-2.002.924 0 .196.0606.3453.182.448.1213.0933.2846.14.49.14zm7.1168 1.512c-.7 0-1.2273-.196-1.582-.588s-.532-1.008-.532-1.848v-7.98h1.932v7.812c0 .3173.0467.546.14.686.1027.14.2707.21.504.21.1773 0 .3267-.0467.448-.14v1.652c-.1027.0746-.224.126-.364.154s-.322.042-.546.042z"/><path d="m87.6751 29.3006h-9.7965c-.2499 0-.4687.1884-.4999.4395l-.4688 3.2643c-.0468.2982.1875.5807.5.5807h1.7968c.1875 0 .2969.1883.2344.3452-.2188.5179-.3906 1.0986-.4688 1.7107l-.9062 6.3246c-.5937 4.2373 2.9061 6.3403 6.7341 6.3403 3.9998 0 7.9371-2.1187 8.5308-6.3403l.9062-6.3246c.5625-4.1432-2.8279-6.2462-6.5621-6.3404zm1.8749 6.3561-.9062 6.1833c-.2032 1.4596-1.8437 2.1344-3.3593 2.1344-1.4061 0-2.7811-.6748-2.5936-2.0088l.9062-6.3246c.2031-1.3811 1.8437-2.0873 3.3592-2.0873 1.5156 0 2.8124.7062 2.5937 2.103z"/><path d="m33.3182 29.3007h-3.6561c-.2499 0-.4687.1883-.4999.4394l-1.125 8.0509v.0157l.0469 3.1074c0 .0628-.0469.1256-.1094.1413l-1.0468-3.7509v-.0157l-3.2655-7.6743c-.0781-.1883-.2656-.3138-.4687-.3138h-3.7029c-.25 0-.4688.1883-.5.4394l-2.4687 17.7341c-.0468.3138.2032.5806.5.5806h3.6873c.25 0 .4688-.1883.5-.4394l.9687-7.0465v-.0157l-.0468-3.6096.1093-.0314 1.1093 3.7508v.0157l3.0468 7.0779c.0781.1884.2656.3139.4687.3139h3.9998c.25 0 .4687-.1883.5-.4394l2.4686-17.7341c.0469-.3139-.2031-.5963-.5156-.5963z"/><path d="m41.3178 29.3006h-3.6873c-.25 0-.4687.1884-.5.4395l-2.4686 17.7183c-.0469.3139.2031.5807.5.5807h3.6873c.25 0 .4687-.1883.5-.4394l2.4686-17.7184c.0469-.2982-.1875-.5807-.5-.5807z"/><path d="m58.6139 29.3006h-13.7963c-.2499 0-.4687.1884-.4999.4395l-.4844 3.3114c-.0469.3138.1875.5806.5.5806h3.8592c.3125 0 .5468.2668.5.5807l-1.8125 13.2456c-.0468.3139.2032.5807.5.5807h3.7342c.25 0 .4687-.1883.5-.4394l1.8593-13.5281c.0312-.2511.25-.4395.5-.4395h4.1404c.25 0 .4687-.1883.5-.4394l.4843-3.3114c.0781-.2982-.1718-.5807-.4843-.5807z"/><path d="m69.1603 29.3006h-7.0153c-.25 0-.4687.1884-.5.4395l-2.4686 17.7183c-.0469.3139.2031.5807.5.5807h3.7342c.25 0 .4687-.1883.4999-.4394l.7188-5.2888c.0156-.1256.125-.2198.25-.2198h.4843c.0937 0 .1719.0471.2187.1256l3.5624 5.6027c.0937.1413.25.2354.4375.2354h4.6247c.4063 0 .6563-.4708.4219-.8004l-3.7498-5.383c-.0938-.1255-.0469-.3138.0937-.3766 2.3905-1.1771 3.7811-2.3698 4.2342-5.7283.5312-4.3943-2.203-6.4659-6.0466-6.4659zm1.2812 6.5444c-.125 1.0829-.9687 2.1657-2.4218 2.1657h-2.1717c-.3125 0-.5469-.2825-.5-.5806l.4687-3.2644c.0313-.2511.25-.4394.5-.4394h2.328c1.3749 0 1.9374.9887 1.7968 2.1187z"/><path d="m33.1776 18.0793h2.6561c.6406 0 1.1875.0941 1.625.2981.4062.1727.7499.4709.9999.8475.2188.3767.3437.8004.3281 1.2241 0 .4395-.1093.8632-.3437 1.2398-.25.3924-.625.6906-1.0468.8789-.4688.2197-1.0625.3296-1.75.3296h-2.4686zm2.453 3.5782c.4375 0 .7656-.1099 1-.3296.2343-.2354.3593-.5493.3437-.8946.0156-.3138-.0937-.612-.3125-.8317-.2031-.2041-.5156-.3139-.9374-.3139h-.8281v2.3541h.7343z"/><path d="m42.7865 22.8817c-.3437-.0941-.6875-.2354-.9999-.4237v-1.1457c.2656.204.5781.3453.8905.4238.3594.1098.7188.1569 1.0937.1726.125 0 .25-.0157.375-.0628.0781-.0471.125-.0941.125-.1569s-.0156-.1256-.0625-.1727c-.0781-.0627-.1718-.0941-.2656-.1098l-.8125-.1883c-.4687-.1099-.7968-.2668-.9999-.4552-.2031-.204-.3125-.4865-.2969-.769 0-.2511.0938-.5022.2656-.6905.2032-.2197.4532-.3766.7344-.4551.3593-.1099.7343-.1726 1.1249-.1569.3594 0 .7031.0313 1.0469.1255.2812.0628.5468.1726.7968.3139v1.0829c-.2344-.1413-.4844-.2355-.7343-.2982-.2813-.0785-.5781-.1099-.8594-.1099-.4218 0-.6406.0785-.6406.2197 0 .0628.0313.1256.0938.157.1093.047.2343.0784.3593.1098l.6875.1256c.4375.0784.7812.2197 1 .408.2187.1883.3281.4865.3281.8632 0 .408-.2032.7847-.5469.9887-.3593.2354-.8749.361-1.5468.361-.3906-.0157-.7812-.0628-1.1562-.157z"/><path d="m47.6301 22.7405c-.3594-.1726-.6719-.4394-.8906-.7847-.2031-.3296-.2969-.7219-.2969-1.1142 0-.3924.0938-.769.3125-1.0986.2188-.3453.5312-.5964.9062-.769.4531-.1883.9375-.2982 1.4218-.2825.6875 0 1.25.1412 1.7031.4394v1.2555c-.1719-.1098-.3594-.204-.5625-.2668-.2187-.0627-.4531-.1098-.6875-.1098-.4218 0-.7499.0784-.9999.2354-.3438.1883-.4531.612-.2656.9573.0625.1099.1562.204.2656.2668.2343.1569.5625.2354 1.0156.2354.2343 0 .4531-.0314.6718-.0941.2031-.0628.3906-.1413.5625-.2511v1.2084c-.5313.3139-1.125.4708-1.7343.4551-.4844.0157-.9843-.0785-1.4218-.2825z"/><path d="m52.4892 22.7405c-.375-.1726-.6874-.4394-.9062-.7847-.2031-.3295-.3125-.7219-.3125-1.1142 0-.3924.0938-.769.3125-1.0986.2188-.3296.5312-.5964.9062-.7533.8906-.361 1.9062-.361 2.7968 0 .3593.1569.6718.4237.8906.7533.2031.3296.3124.7219.3124 1.0986 0 .3923-.1093.7847-.3124 1.1142-.2188.3453-.5313.6121-.8906.7847-.9062.3767-1.9062.3767-2.7968 0zm2.0624-1.2241c.1719-.1726.2656-.4237.25-.6591.0156-.2511-.0781-.4865-.25-.6592-.1875-.1726-.4374-.2511-.6874-.2511-.25-.0157-.5.0785-.6875.2511-.1719.1727-.2656.4081-.25.6592-.0156.2511.0781.4865.25.6591.1875.1726.4375.2668.6875.2511.2656.0157.5156-.0785.6874-.2511z"/><path d="m60.5826 18.9425v1.491c-.2031-.1256-.4375-.1884-.6718-.1727-.3594 0-.6406.1099-.8438.3296-.1874.2197-.2968.565-.2968 1.0358v1.2555h-1.6718v-4.0176h1.6405v1.2712c.0938-.4708.2344-.8161.4375-1.0358s.4844-.3453.7812-.3296c.2188 0 .4375.0628.625.1726z"/><path d="m66.1448 17.938v4.9436h-1.6718v-.8946c-.125.3139-.3594.5964-.6406.769-.3281.1884-.6875.2825-1.0625.2668-.3437.0157-.6875-.0941-.9843-.2825-.2813-.1883-.5156-.4551-.6562-.769-.1563-.3452-.2344-.7219-.2344-1.0985-.0156-.3924.0781-.7847.2344-1.13.1562-.3296.4062-.5964.7031-.7847.3124-.1883.6718-.2825 1.0312-.2825.7968 0 1.328.3453 1.6093 1.0358v-1.7734zm-1.9218 3.5468c.1718-.1726.2656-.408.25-.6434 0-.2354-.0938-.4708-.25-.6278-.3906-.3295-.9531-.3295-1.3593 0-.1719.1727-.2657.3924-.25.6278-.0157.2354.0781.4708.25.6434.1875.1727.4218.2511.6718.2511.2656.0157.5-.0784.6875-.2511z"/><path d="m27.0219 16.8866c-.8125-.3609-1.6718-.6277-2.5624-.7847-.125.2198-.2344.4395-.3281.6749-.9375-.1413-1.9062-.1413-2.8436 0-.0938-.2354-.2031-.4551-.3281-.6749-.875.157-1.7343.4238-2.5624.8004-1.6093 2.4012-2.0468 4.7396-1.828 7.0623.953.7062 2.0155 1.2398 3.1404 1.5851.25-.3453.4844-.7063.6719-1.0829-.3594-.1413-.7187-.3139-1.0625-.5022.0938-.0628.1719-.1256.2656-.1884 1.9843.9417 4.2811.9417 6.281 0 .0781.0628.1719.1413.2656.1884-.3437.204-.6875.3766-1.0624.5022.1874.3766.4218.7376.6718 1.0829 1.1249-.3453 2.1874-.8789 3.1405-1.5851.25-2.6837-.4531-5.0064-1.8593-7.078zm-6.3747 5.6498c-.6094 0-1.125-.5649-1.125-1.2398 0-.6748.4844-1.2555 1.1094-1.2555.6249 0 1.1249.565 1.1249 1.2555s-.4843 1.2398-1.1093 1.2398zm4.1248 0c-.6094 0-1.1093-.5649-1.1093-1.2398 0-.6748.4843-1.2555 1.1093-1.2555s1.1249.565 1.1093 1.2555c0 .6905-.4843 1.2398-1.1093 1.2398z"/><path d="m40.2085 19.3034c.4574 0 .8281-.3373.8281-.7533 0-.4161-.3707-.7533-.8281-.7533-.4573 0-.8281.3372-.8281.7533 0 .416.3708.7533.8281.7533z"/><path d="m39.3804 19.8213c.5313.2197 1.1406.2197 1.6718 0v3.0917h-1.6718z"/></g><g clip-path="url(#o)"><path d="m113.57 158.306h-31.0477v-5.94c0-9.47 6.1821-17.218 13.738-17.218h2.7476c1.5111 0 2.7481-1.549 2.7481-3.443v-21.091c0-14.2909 9.204-25.8265 20.607-25.8265h36.337c3.503 0 6.319-3.5296 6.319-7.92v-.3444c0-9.5556 6.182-17.2174 13.738-17.2174h37.78c7.556 0 13.738 7.7479 13.738 17.2174v34.4349h29.468c20.882 0 37.779 21.177 37.779 47.348z" fill="url(#c)" opacity=".3"/><path d="m263.389 127.476c-37.8 28.961-69.836-6.972-117.035 25.544l-4.159-14.626c1.893-1.64 3.482-4.203 4.581-7.33.455-1.314.805-2.662 1.048-4.032.371-1.989.558-4.008.558-6.032 0-8.492-3.127-15.703-7.472-18.351-.764-.472-1.606-.802-2.485-.974-.401-.082-.809-.122-1.217-.12-1.758 0-3.432.718-4.92 1.983l-4.142-14.5924c47.2-32.5327 79.236 3.4173 117.036-25.5443l4.125 14.5235c-1.623 1.384-3.009 3.4515-4.057 5.9632-.494 1.1503-.895 2.3388-1.2 3.554-.645 2.5864-.969 5.2439-.964 7.9111 0 9.1759 3.669 16.8819 8.588 18.9149.749.304 1.544.477 2.35.512h.237c1.775 0 3.465-.717 4.953-1.999z" fill="#e3e6f4"/><path d="m242.089 122.111c-25.088 8.338-48.975-4.255-78.441 5.433l-9.941-34.976c29.466-9.7052 53.354 2.8876 78.441-5.4506z" fill="#e3e6f4"/><g fill="url(#d)"><path d="m198.996 109.653c1.759 0 3.185-1.426 3.185-3.185s-1.426-3.185-3.185-3.185-3.185 1.426-3.185 3.185 1.426 3.185 3.185 3.185z"/><path clip-rule="evenodd" d="m186.256 93.7279c-.879 0-1.592.713-1.592 1.5925s.713 1.5925 1.592 1.5925h4.778c.879 0 1.592.713 1.592 1.5925s-.713 1.5926-1.592 1.5926h-7.166c-.88 0-1.593.713-1.593 1.592 0 .88.713 1.593 1.593 1.593h3.981c.879 0 1.592.713 1.592 1.592 0 .88-.713 1.593-1.592 1.593h-3.185c-.88 0-1.593.713-1.593 1.592 0 .88.713 1.593 1.593 1.593h1.994c1.414 5.495 6.402 9.555 12.338 9.555 7.037 0 12.741-5.704 12.741-12.74 0-7.0362-5.704-12.7401-12.741-12.7401zm12.74 19.1101c3.519 0 6.37-2.852 6.37-6.37s-2.851-6.37-6.37-6.37c-3.518 0-6.37 2.852-6.37 6.37s2.852 6.37 6.37 6.37z" fill-rule="evenodd"/><path d="m179.09 103.283c.88 0 1.593-.713 1.593-1.593 0-.879-.713-1.592-1.593-1.592h-.796c-.88 0-1.593.713-1.593 1.592 0 .88.713 1.593 1.593 1.593z"/></g><path d="m254.024 114.78c-.806-.035-1.601-.208-2.35-.512l2.587 9.107c-9.062 5.434-18.377 7.757-30.802 7.757-4.936 0-9.839-.341-15.029-.717s-10.735-.752-16.347-.752c-10.516 0-24.53 1.179-40.658 10.064l-3.601-12.695c-.243 1.37-.593 2.718-1.048 4.032l3.364 11.875c15.317-9.073 29.044-11.14 41.943-11.14 10.887 0 21.199 1.469 31.376 1.469 11.039 0 21.943-1.726 33.287-8.919zm-76.497-32.1735c5.444 0 10.836.393 16.043.7518 5.207.3589 10.211.7177 15.3.7177 8.655 0 19.982-.9227 32.018-7.7915l3.162 11.1575c.305-1.2152.707-2.4037 1.2-3.554l-3.094-10.867c-11.343 7.1934-22.247 8.9192-33.286 8.9192-10.194 0-20.473-1.4695-31.343-1.4695-12.916 0-26.66 2.0846-41.959 11.1404l2.857 10.0639c.879.172 1.721.502 2.485.974l-2.857-10.0298c15.637-8.8508 29.263-9.9956 39.474-10.0127z" fill="url(#e)"/><path d="m230.39 110.919-.422.068c-1.131.192-2.292-.043-3.261-.661-.97-.617-1.681-1.574-1.997-2.688l-.118-.41c-.148-.525-.185-1.075-.107-1.616.077-.54.266-1.058.555-1.519s.671-.856 1.121-1.157c.45-.302.958-.505 1.49-.595l.423-.068c1.129-.2 2.291.029 3.263.645.971.615 1.682 1.573 1.995 2.687l.118.41c.148.526.184 1.078.107 1.619s-.266 1.06-.555 1.523c-.288.462-.67.858-1.12 1.162s-.958.508-1.492.6zm-59.862-3.998c-.316-1.113-1.028-2.068-1.998-2.683s-2.131-.846-3.259-.649l-.44.068c-.531.092-1.037.296-1.485.599-.448.302-.828.697-1.115 1.158s-.475.978-.551 1.517c-.077.54-.04 1.089.108 1.613l.118.41c.313 1.112 1.021 2.069 1.988 2.686.967.618 2.125.854 3.253.663l.44-.068c.531-.093 1.038-.297 1.486-.599.449-.303.83-.697 1.118-1.158.288-.46.478-.977.556-1.516.079-.539.045-1.089-.1-1.614z" fill="url(#f)"/><path d="m257.239 62.7272-4.14 1.4553c-.213.0728-.398.2102-.529.3928s-.201.4015-.201.6259c0 .2245.07.4433.201.626.131.1826.316.32.529.3927l4.14 1.4553c.154.053.294.1401.409.2548s.202.254.255.4074l1.461 4.1258c.073.2123.21.3966.394.527.183.1305.402.2006.628.2006.225 0 .445-.0701.628-.2006.183-.1304.321-.3147.394-.527l1.46-4.1258c.054-.1528.142-.2917.257-.4063.115-.1145.254-.202.408-.2559l4.147-1.4553c.213-.0727.398-.2101.528-.3927.131-.1827.202-.4015.202-.626 0-.2244-.071-.4433-.202-.6259-.13-.1826-.315-.32-.528-.3928l-4.147-1.4553c-.153-.0552-.292-.1431-.406-.2575-.115-.1144-.203-.2525-.259-.4046l-1.46-4.133c-.073-.2124-.211-.3966-.394-.5271s-.403-.2006-.628-.2006c-.226 0-.445.0701-.628.2006-.184.1305-.321.3147-.394.5271l-1.461 4.133c-.054.1528-.142.2917-.256.4062-.115.1146-.255.2021-.408.2559z" fill="url(#g)"/><path d="m254.261 55.0466-.527-1.4796c-.025-.0761-.074-.1422-.139-.1891s-.144-.0722-.224-.0722c-.081 0-.159.0253-.224.0722-.066.0469-.114.113-.14.1891l-.487 1.4796c-.019.0541-.05.1033-.091.1438-.041.0406-.09.0715-.145.0905l-1.506.4902c-.075.0263-.139.075-.185.1395-.046.0646-.071.1416-.071.2207 0 .079.025.1561.071.2206s.11.1132.185.1395l1.467.512c.055.0189.104.0498.145.0904.04.0405.071.0897.09.1439l.51 1.4578c.025.0761.074.1423.139.1892s.144.0721.224.0721c.081 0 .159-.0252.224-.0721.066-.0469.114-.1131.14-.1892l.544-1.4578c.019-.0542.05-.1034.091-.1439.04-.0406.09-.0715.144-.0904l1.467-.512c.075-.0263.14-.075.186-.1395.045-.0645.07-.1416.07-.2206 0-.0791-.025-.1561-.07-.2207-.046-.0645-.111-.1132-.186-.1395l-1.484-.5119c-.049-.0187-.094-.0473-.131-.0838-.038-.0366-.067-.0804-.087-.1288z" fill="url(#h)" fill-opacity=".9"/><path d="m119.792 131.225-.883-2.481c-.043-.128-.125-.239-.234-.317-.109-.079-.241-.121-.376-.121s-.266.042-.376.121c-.109.078-.191.189-.233.317l-.818 2.481c-.032.091-.084.173-.152.241-.069.069-.151.12-.242.152l-2.527.822c-.125.044-.234.126-.311.234-.076.108-.118.238-.118.37 0 .133.042.262.118.37.077.108.186.19.311.234l2.461.859c.091.032.174.083.242.151.068.069.12.151.152.242l.854 2.445c.043.127.125.238.234.317.11.079.241.121.376.121s.266-.042.376-.121c.109-.079.191-.19.234-.317l.912-2.445c.032-.091.084-.173.152-.242.069-.068.151-.119.243-.151l2.46-.859c.125-.044.234-.126.311-.234s.118-.237.118-.37c0-.132-.041-.262-.118-.37s-.186-.19-.311-.234l-2.49-.858c-.082-.032-.157-.079-.219-.141-.063-.061-.113-.135-.146-.216z" fill="url(#i)"/><path d="m261.792 145.225-.883-2.481c-.043-.128-.125-.239-.234-.317-.109-.079-.241-.121-.376-.121s-.266.042-.376.121c-.109.078-.191.189-.233.317l-.818 2.481c-.032.091-.084.173-.152.241-.069.069-.151.12-.242.152l-2.527.822c-.125.044-.234.126-.311.234-.076.108-.118.238-.118.37 0 .133.042.262.118.37.077.108.186.19.311.234l2.461.859c.091.032.174.083.242.151.068.069.12.151.152.242l.854 2.445c.043.127.125.238.234.317.11.079.241.121.376.121s.266-.042.376-.121c.109-.079.191-.19.234-.317l.912-2.445c.032-.091.084-.173.152-.242.069-.068.151-.119.243-.151l2.46-.859c.125-.044.234-.126.311-.234s.118-.237.118-.37c0-.132-.041-.262-.118-.37s-.186-.19-.311-.234l-2.49-.858c-.082-.032-.157-.079-.219-.141-.063-.061-.113-.135-.146-.216z" fill="url(#j)"/><path d="m126.856 135.541-.527-1.48c-.025-.076-.074-.142-.139-.189-.066-.047-.144-.072-.225-.072-.08 0-.158.025-.224.072-.065.047-.114.113-.139.189l-.488 1.48c-.019.054-.05.103-.09.144-.041.04-.09.071-.145.09l-1.506.491c-.075.026-.14.075-.186.139-.045.065-.07.142-.07.221s.025.156.07.22c.046.065.111.114.186.14l1.467.512c.054.019.104.05.144.09.041.041.072.09.091.144l.509 1.458c.026.076.075.142.14.189s.144.072.224.072.159-.025.224-.072.114-.113.14-.189l.544-1.458c.019-.054.05-.103.09-.144.041-.04.09-.071.145-.09l1.467-.512c.075-.026.14-.075.185-.14.046-.064.071-.141.071-.22s-.025-.156-.071-.221c-.045-.064-.11-.113-.185-.139l-1.485-.512c-.049-.019-.093-.048-.131-.084-.037-.037-.067-.081-.086-.129z" fill="url(#k)"/><path d="m268.856 149.541-.527-1.48c-.025-.076-.074-.142-.14-.189-.065-.047-.143-.072-.224-.072-.08 0-.158.025-.224.072-.065.047-.114.113-.139.189l-.488 1.48c-.019.054-.05.103-.09.144-.041.04-.091.071-.145.09l-1.506.491c-.075.026-.14.075-.186.139-.045.065-.07.142-.07.221s.025.156.07.22c.046.065.111.114.186.14l1.467.512c.054.019.104.05.144.09.041.041.072.09.091.144l.509 1.458c.026.076.075.142.14.189s.144.072.224.072.159-.025.224-.072.114-.113.14-.189l.544-1.458c.019-.054.05-.103.09-.144.041-.04.09-.071.145-.09l1.467-.512c.075-.026.14-.075.185-.14.046-.064.071-.141.071-.22s-.025-.156-.071-.221c-.045-.064-.11-.113-.185-.139l-1.485-.512c-.049-.019-.093-.048-.131-.084-.037-.037-.067-.081-.086-.129z" fill="url(#l)"/><g mask="url(#p)"><g fill="url(#n)" opacity=".15"><path d="m285.533 72.3057h-6.484l-18.527 80.7503h6.484z"/><path d="m304.522 72.3057h-15.747l-18.526 80.7503h15.747z"/></g></g></g></svg>