<svg width="229" height="140" viewBox="0 0 229 140" fill="none" xmlns="http://www.w3.org/2000/svg">
<g id="wumpus_lightbulb" clip-path="url(#clip0_8275_29450)">
<path id="Vector" d="M160.309 87.9387C161.681 82.768 167.179 78.54 172.527 78.54H176.932C167.879 87.8547 156.408 136.117 156.408 136.117H147.504L160.309 87.9387Z" fill="#7D8BBF"/>
<path id="Vector_2" d="M105.916 98L29.3639 92.6427C14.9066 103.283 6.4319 114.697 6.0119 126.877C5.7599 134.017 11.4999 139.925 18.6399 139.925H122.716C122.063 133.747 117.909 108.967 105.916 98Z" fill="url(#paint0_linear_8275_29450)"/>
<path id="Vector_3" d="M42.8496 92.624L96.5816 95.2C96.6096 95.4334 103.05 94.9574 103.115 95.2C105.84 104.739 104.048 114.8 85.3816 110.133C71.0363 106.549 50.2416 101.407 42.8496 92.624Z" fill="#5D72F5"/>
<path id="Vector_4" d="M164.725 87.9387C166.097 82.768 171.594 78.54 176.942 78.54H218.783C224.131 78.54 227.379 82.768 226.007 87.9387L214.686 130.527C213.314 135.697 207.817 139.925 202.469 139.925H154.85C152.862 139.925 151.415 138.04 151.919 136.117L164.725 87.9387Z" fill="#E1E7F8"/>
<path id="Vector_5" d="M98.6825 132.963H163.176V139.925H98.6825C96.7598 139.925 95.2012 138.367 95.2012 136.444C95.2012 134.521 96.7598 132.963 98.6825 132.963Z" fill="#E1E7F8"/>
<path id="Vector_6" d="M201.357 103.395C203.457 103.88 204.623 106.12 203.83 108.127C202.663 111.067 200.535 113.54 197.801 115.164L194.338 112.523C195.943 110.525 196.737 108.089 197.147 106.12C197.539 104.188 199.453 102.965 201.366 103.404L201.357 103.395Z" fill="#24B36B"/>
<path id="Vector_7" d="M196.373 114.52C196.373 114.52 196.457 114.455 196.504 114.417C198.408 112.457 199.696 110.283 200.359 107.959C200.965 105.793 201.04 103.423 200.573 100.912C200.499 100.529 200.135 100.277 199.752 100.352C199.369 100.427 199.117 100.791 199.192 101.173C200.079 105.952 198.865 109.975 195.496 113.456C195.225 113.736 195.235 114.175 195.515 114.445C195.757 114.679 196.112 114.707 196.383 114.529L196.373 114.52Z" fill="#1D9458"/>
<path id="Vector_8" d="M182 114.119C176.475 108.957 184.044 100.492 189.803 105.383C190.503 105.98 191.212 106.661 191.922 107.399C192.258 107.753 192.603 108.089 192.948 108.407C196.458 111.701 200.294 113.4 202.636 110.469L201.88 111.552C201.358 112.233 200.77 112.868 200.126 113.447C193.667 119.187 186.34 117.469 182.896 114.865C182.57 114.623 182.271 114.371 182 114.119Z" fill="#73C86E"/>
<path id="Vector_9" d="M182 114.119C176.475 108.957 184.044 100.492 189.803 105.383C190.503 105.98 191.212 106.661 191.922 107.399C192.258 107.753 192.603 108.089 192.948 108.407C196.458 111.701 200.294 113.4 202.636 110.469L201.88 111.552C201.358 112.233 200.77 112.868 200.126 113.447C193.667 119.187 186.34 117.469 182.896 114.865C182.57 114.623 182.271 114.371 182 114.119Z" fill="#29CC7A"/>
<path id="Vector_10" d="M201.265 27.3279C201.06 27.3279 200.845 27.2999 200.63 27.2533C199.128 26.9079 198.185 25.4053 198.53 23.8933L199.865 18.1066C200.21 16.6039 201.713 15.6613 203.225 16.0066C204.728 16.3519 205.67 17.8546 205.325 19.3666L203.99 25.1533C203.692 26.4506 202.534 27.3279 201.265 27.3279Z" fill="#FDE55C"/>
<path id="Vector_11" d="M182.084 35.504C181.365 35.504 180.637 35.224 180.096 34.6733L176.465 31.0053C175.383 29.904 175.392 28.1306 176.493 27.048C177.595 25.956 179.368 25.9746 180.451 27.076L184.081 30.744C185.164 31.8453 185.155 33.6186 184.053 34.7013C183.512 35.2426 182.793 35.5133 182.084 35.5133V35.504Z" fill="#FDE55C"/>
<path id="Vector_12" d="M167.226 55.1973C165.91 55.1973 164.734 54.2639 164.482 52.9199C164.192 51.3986 165.191 49.9333 166.712 49.6439L172.648 48.5146C174.17 48.2253 175.635 49.2239 175.924 50.7453C176.214 52.2666 175.215 53.7319 173.694 54.0213L167.758 55.1506C167.58 55.1879 167.403 55.1973 167.235 55.1973H167.226Z" fill="#FDE55C"/>
<path id="Vector_13" d="M216.674 35.504C215.787 35.504 214.91 35.084 214.368 34.2907C213.491 33.0213 213.808 31.276 215.087 30.3987L220.407 26.7307C221.676 25.8533 223.422 26.1707 224.299 27.4493C225.176 28.7187 224.859 30.464 223.58 31.3413L218.26 35.0093C217.775 35.3453 217.224 35.504 216.674 35.504Z" fill="#FDE55C"/>
<path id="Vector_14" d="M222.45 55.1973C222.263 55.1973 222.067 55.1786 221.871 55.1413L216.458 54.0119C214.946 53.6946 213.975 52.2106 214.293 50.6986C214.61 49.1866 216.094 48.2159 217.606 48.5333L223.019 49.6626C224.531 49.9799 225.502 51.4639 225.185 52.9759C224.905 54.3013 223.747 55.2066 222.45 55.2066V55.1973Z" fill="#FDE55C"/>
<path id="Vector_15" d="M18.2371 129.313C18.6011 125.468 20.4398 121.296 24.3785 116.06C30.0158 115.883 37.2771 115.603 45.4718 115.164C71.8198 113.773 80.3038 117.245 82.5998 127.092C84.6625 135.94 79.4731 140.009 66.9758 140.009H26.9638C21.7838 140.009 17.6865 135.044 18.2278 129.323L18.2371 129.313Z" fill="url(#paint1_linear_8275_29450)"/>
<path id="Vector_16" d="M50.1017 29.5773C48.0577 27.7573 46.8164 25.34 46.8164 22.6893C46.8164 18.3866 50.0924 14.7 54.7311 13.188C56.0564 12.7493 57.4937 12.4973 59.0057 12.46C59.1457 12.46 59.2857 12.46 59.4351 12.46C66.4071 12.46 69.4217 16.0906 74.7324 21.0933C77.9431 24.1173 82.6937 27.4493 86.4737 29.9133L50.1017 29.596V29.5773Z" fill="#55F186"/>
<path id="Vector_17" d="M69.8705 31.9107C70.5238 31.9107 71.1678 31.5747 71.5225 30.9587C72.0545 30.044 71.7465 28.8774 70.8318 28.3454C62.6931 23.604 57.0278 15.3067 55.2825 5.57205C55.0958 4.53605 54.1065 3.84538 53.0705 4.03205C52.0345 4.21871 51.3438 5.20805 51.5305 6.24405C53.4718 17.08 59.8091 26.3387 68.9185 31.64C69.2171 31.8174 69.5531 31.9014 69.8798 31.9014L69.8705 31.9107Z" fill="#008D3C"/>
<path id="Vector_18" d="M63.3457 29.9506L91.1124 30.2866C100.147 28.1306 105.215 21.588 104.683 13.5146C104.291 7.61596 98.775 2.71596 91.4857 2.8093C83.039 2.91196 79.5297 8.44663 76.0764 13.2533C68.4044 23.9306 63.3457 29.96 63.3457 29.96V29.9506Z" fill="#26CB7A"/>
<path id="Vector_19" d="M74.4348 36.9506C74.7708 36.9506 75.1162 36.8573 75.4335 36.6706C85.0282 30.8 91.9162 22.876 94.3428 14.9426C94.6508 13.9346 94.0815 12.8706 93.0735 12.5626C92.0655 12.2546 91.0015 12.824 90.6935 13.832C89.6762 17.1733 85.9522 25.76 73.4455 33.4226C72.5495 33.9733 72.2602 35.1493 72.8108 36.0453C73.1748 36.6333 73.8002 36.96 74.4442 36.96L74.4348 36.9506Z" fill="#008D3C"/>
<path id="Vector_20" d="M132.151 47.2546C128.893 47.04 126.373 46.928 123.116 46.9373C122.313 46.9373 121.66 47.572 121.66 48.3466L121.735 83.3C121.735 84.0746 122.388 84.7093 123.191 84.7093C126.448 84.7093 128.968 84.588 132.216 84.3546C137.825 83.9533 142.231 79.6226 142.641 74.228C143.071 68.6 143.061 62.972 142.604 57.3533C142.147 51.7346 137.751 47.6466 132.141 47.264L132.151 47.2546Z" fill="#7899FF"/>
<path id="Vector_21" d="M130.405 53.1813C127.997 53.0227 127.185 52.9387 123.853 52.9293C122.649 52.9293 121.66 53.7413 121.66 54.7493L121.688 73.4347C121.688 74.4427 122.677 75.2547 123.881 75.2547C127.213 75.236 128.025 75.1427 130.433 74.9747C133.084 74.788 135.221 73.164 135.473 71.1387C135.94 67.396 135.931 60.7413 135.455 57.008C135.193 54.9827 133.056 53.368 130.396 53.1907L130.405 53.1813Z" fill="#B7CCFF"/>
<path id="Vector_22" d="M16.0723 62.1227C16.0723 54.0587 16.3989 50.6147 17.4629 44.1373C18.9469 35.112 25.9096 28.2147 35.1776 26.4413C42.6816 25.004 61.1243 24.3787 73.9763 24.3787C86.8283 24.3787 105.271 25.0133 112.775 26.4413C122.034 28.2147 129.006 35.1027 130.49 44.1373C131.554 50.6147 131.88 54.0587 131.88 62.1227C131.88 70.1867 131.554 73.6307 130.49 80.108C129.006 89.1333 122.043 96.0307 112.775 97.804C105.271 99.2413 86.8283 99.8667 73.9763 99.8667C61.1243 99.8667 42.6816 99.232 35.1776 97.804C25.9189 96.0307 18.9469 89.1427 17.4629 80.108C16.3989 73.6307 16.0723 70.1867 16.0723 62.1227Z" fill="#7899FF"/>
<path id="Vector_23" d="M54.7119 57.4933C57.4954 57.4933 59.7519 55.2368 59.7519 52.4533C59.7519 49.6698 57.4954 47.4133 54.7119 47.4133C51.9284 47.4133 49.6719 49.6698 49.6719 52.4533C49.6719 55.2368 51.9284 57.4933 54.7119 57.4933Z" fill="black"/>
<path id="Vector_24" d="M121.708 57.4933C124.491 57.4933 126.748 55.2368 126.748 52.4533C126.748 49.6698 124.491 47.4133 121.708 47.4133C118.924 47.4133 116.668 49.6698 116.668 52.4533C116.668 55.2368 118.924 57.4933 121.708 57.4933Z" fill="black"/>
<path id="Vector_25" d="M54.1059 90.7946C57.4472 91.7466 60.8632 91.0466 63.3459 89.6559C65.8006 88.2933 67.3499 86.2773 67.0979 84.5133C66.6779 81.5359 51.8752 76.4213 48.6179 77.4666C47.3766 77.8679 46.6766 79.1466 46.5552 80.7799C46.3032 84.2333 48.6739 89.2453 54.1059 90.7946Z" fill="black"/>
<path id="Vector_26" d="M13.1602 47.2546C16.4175 47.04 18.9375 46.928 22.1949 46.9373C22.9975 46.9373 23.6509 47.572 23.6509 48.3466L23.5762 83.3C23.5762 84.0746 22.9229 84.7093 22.1202 84.7093C18.8629 84.7093 16.3429 84.588 13.0949 84.3546C7.48553 83.9533 3.0802 79.6226 2.66953 74.228C2.2402 68.6 2.24953 62.972 2.70687 57.3533C3.1362 51.9586 7.5602 47.6466 13.1695 47.264L13.1602 47.2546Z" fill="#7899FF"/>
<path id="Vector_27" d="M14.9044 53.1813C17.3124 53.0227 18.1244 52.9387 21.4564 52.9293C22.6604 52.9293 23.6498 53.7413 23.6498 54.7493L23.6218 73.4347C23.6218 74.4427 22.6324 75.2547 21.4284 75.2547C18.0964 75.236 17.2844 75.1427 14.8764 74.9747C12.2258 74.788 10.0884 73.164 9.83643 71.1387C9.36977 67.396 9.3791 60.7413 9.8551 57.008C10.1164 54.9827 12.2538 53.368 14.9138 53.1907L14.9044 53.1813Z" fill="#B7CCFF"/>
<path id="Vector_28" d="M77.961 75.9453L95.5637 75.964C104.253 75.9827 109.928 71.26 111.309 65.0627C112.625 59.192 112.466 55.1787 111.85 48.7013C111.356 43.4747 107.398 41.216 102.769 41.2067L72.9117 41.1507C68.2824 41.1413 64.5211 44.884 64.5117 49.5227V61.4133C64.5117 70.8493 69.2717 75.9173 77.961 75.936V75.9453Z" fill="#B7CCFF"/>
<path id="Vector_29" d="M106.859 65.4268C106.871 63.8753 104.189 62.5983 100.869 62.5745C97.5496 62.5508 94.8496 63.7892 94.8385 65.3408C94.8274 66.8923 97.5094 68.1693 100.829 68.193C104.148 68.2168 106.848 66.9783 106.859 65.4268Z" fill="#698EFF"/>
<path id="Vector_30" d="M88.8946 65.3041C88.9057 63.7526 86.2237 62.4756 82.9042 62.4518C79.5847 62.4281 76.8847 63.6666 76.8736 65.2181C76.8625 66.7696 79.5445 68.0466 82.864 68.0704C86.1835 68.0941 88.8835 66.8556 88.8946 65.3041Z" fill="#698EFF"/>
<path id="Vector_31" d="M63.3373 89.6559C63.3373 89.6559 63.3933 89.6186 63.4213 89.5999C61.2559 87.2293 58.1199 84.9706 54.3399 83.2439C51.6706 82.0213 49.0106 81.2373 46.5466 80.8359C46.3319 84.2799 48.6933 89.2453 54.0973 90.7853C57.4386 91.7373 60.8546 91.0373 63.3373 89.6466V89.6559Z" fill="#D75499"/>
<path id="Vector_32" d="M193.042 67.5816C194.918 67.1862 196.207 65.7616 195.92 64.3998C195.633 63.038 193.879 62.2545 192.003 62.6499C190.127 63.0453 188.838 64.4698 189.125 65.8317C189.412 67.1935 191.166 67.977 193.042 67.5816Z" fill="#66B9FF"/>
<path id="Vector_33" d="M193.164 65.9458C196.15 65.8024 198.508 64.3797 198.431 62.7682C198.354 61.1566 195.87 59.9665 192.884 60.1099C189.897 60.2533 187.539 61.676 187.617 63.2876C187.694 64.8991 190.178 66.0893 193.164 65.9458Z" fill="#89D6FF"/>
<path id="Vector_34" d="M193.798 63.8216C196.9 63.6351 199.33 62.0657 199.225 60.3163C199.12 58.5669 196.519 57.2999 193.417 57.4864C190.314 57.6729 187.884 59.2423 187.989 60.9917C188.094 62.7411 190.695 64.0081 193.798 63.8216Z" fill="#89D6FF"/>
<path id="Vector_35" d="M194.458 61.0088C197.768 60.8498 200.382 59.2726 200.297 57.486C200.211 55.6994 197.457 54.38 194.147 54.539C190.836 54.698 188.222 56.2752 188.308 58.0618C188.394 59.8484 191.147 61.1679 194.458 61.0088Z" fill="#89D6FF"/>
<path id="Vector_36" d="M185.341 45.8174C186.508 40.936 192.696 37.1654 199.164 37.3987C205.632 37.632 209.934 41.7854 208.768 46.6667C208.012 49.8494 205.109 52.556 201.394 53.9934C200.573 54.3107 199.892 54.964 199.565 55.748L199.014 57.0827C198.417 58.3427 196.233 59.2574 193.881 59.1734C191.361 59.08 189.578 57.8854 189.849 56.476L189.961 55.4214C190.045 54.5907 189.681 53.872 189.009 53.48C186.097 51.7907 184.585 48.9534 185.332 45.808L185.341 45.8174Z" fill="url(#paint2_linear_8275_29450)"/>
<path id="Vector_37" d="M21.9239 123.2C21.7652 123.2 21.6066 123.181 21.4479 123.135C20.4492 122.873 19.8612 121.847 20.1226 120.848C22.8852 110.432 31.0239 106.68 34.4026 105.56C35.3826 105.233 36.4372 105.756 36.7639 106.736C37.0906 107.716 36.5679 108.771 35.5879 109.097C32.1066 110.264 25.9466 113.456 23.7346 121.809C23.5106 122.649 22.7546 123.2 21.9332 123.2H21.9239Z" fill="#5370FA"/>
</g>
<defs>
<linearGradient id="paint0_linear_8275_29450" x1="40.2092" y1="93.6787" x2="131.545" y2="213.771" gradientUnits="userSpaceOnUse">
<stop offset="0.18" stop-color="#7899FF"/>
<stop offset="0.39" stop-color="#6B86FA"/>
<stop offset="0.68" stop-color="#5D72F5"/>
</linearGradient>
<linearGradient id="paint1_linear_8275_29450" x1="30.8185" y1="123.396" x2="88.7505" y2="139.039" gradientUnits="userSpaceOnUse">
<stop offset="0.16" stop-color="#7899FF"/>
<stop offset="0.48" stop-color="#6882F9"/>
<stop offset="0.76" stop-color="#5D72F5"/>
</linearGradient>
<linearGradient id="paint2_linear_8275_29450" x1="196.289" y1="39.1347" x2="199.276" y2="67.004" gradientUnits="userSpaceOnUse">
<stop offset="0.22" stop-color="#FFEFA3"/>
<stop offset="0.83" stop-color="#FFC31A"/>
</linearGradient>
<clipPath id="clip0_8275_29450">
<rect width="228.667" height="140" fill="white"/>
</clipPath>
</defs>
</svg>
