<svg width="327" height="339" viewBox="0 0 327 339" fill="none" xmlns="http://www.w3.org/2000/svg">
<g clip-path="url(#clip0_139_293)">
<mask id="mask0_139_293" style="mask-type:alpha" maskUnits="userSpaceOnUse" x="-16" y="-616" width="382" height="1071">
<rect x="27.75" y="-616" width="1109" height="44.8782" transform="rotate(72.2851 27.75 -616)" fill="white"/>
</mask>
<g mask="url(#mask0_139_293)">
<rect x="27.75" y="-616" width="1109" height="44.8782" transform="rotate(72.2851 27.75 -616)" fill="#B941FF"/>
<rect x="27.75" y="-616" width="1109" height="44.8782" transform="rotate(72.2851 27.75 -616)" fill="url(#paint0_linear_139_293)"/>
<path d="M231.322 55.8094C231.665 52.8387 231.63 49.7906 231.188 46.7335C230.453 46.5757 229.483 46.4266 228.726 46.3521C228.188 43.124 227.212 40.0674 225.797 37.1821C226.37 36.6825 227.071 35.9894 227.578 35.4311C226.165 32.6808 224.422 30.1749 222.417 27.9543C213.106 25.1579 205.204 26.1177 198.087 29.173C196.693 33.4458 196.247 37.2974 196.309 40.9243C197.656 41.3946 199.042 41.7547 200.459 41.994C200.515 40.6584 200.691 39.3405 200.974 38.0578C201.27 38.2793 201.575 38.4915 201.882 38.6923C201.011 46.2431 203.301 53.4132 208.363 58.9817C208.23 59.3267 208.105 59.676 207.991 60.0255C207.013 59.142 206.105 58.1666 205.284 57.1112C204.272 58.1264 203.347 59.2215 202.523 60.3883C204.576 63.3826 207.173 66.2658 210.79 68.9381C219.568 67.0518 226.228 62.4389 231.322 55.8094ZM206.826 40.9508C206.194 38.9698 207.46 36.7751 209.634 36.0806C211.808 35.3862 214.104 36.4048 214.748 38.4205C215.392 40.4362 214.125 42.631 211.937 43.2917C209.764 43.9893 207.47 42.9665 206.826 40.9508ZM211.082 54.2753C210.45 52.2943 211.716 50.0995 213.89 49.405C216.064 48.7106 218.36 49.7292 219.004 51.7449C219.648 53.7606 218.382 55.9554 216.193 56.6161C214.019 57.3106 211.726 56.291 211.082 54.2753Z" fill="#2A1C84"/>
<path d="M297.206 262.068C297.55 259.097 297.515 256.049 297.073 252.992C296.337 252.835 295.368 252.685 294.611 252.611C294.073 249.383 293.097 246.326 291.681 243.441C292.255 242.941 292.956 242.248 293.463 241.69C292.05 238.94 290.307 236.434 288.302 234.213C278.991 231.417 271.089 232.377 263.972 235.432C262.578 239.705 262.132 243.556 262.194 247.183C263.54 247.653 264.927 248.014 266.344 248.253C266.4 246.917 266.576 245.599 266.858 244.317C267.155 244.538 267.46 244.75 267.767 244.951C266.896 252.502 269.186 259.672 274.248 265.241C274.115 265.585 273.99 265.935 273.875 266.284C272.897 265.401 271.99 264.425 271.169 263.37C270.157 264.385 269.231 265.48 268.408 266.647C270.461 269.641 273.058 272.525 276.674 275.197C285.453 273.311 292.113 268.698 297.206 262.068ZM272.711 247.21C272.078 245.229 273.345 243.034 275.519 242.339C277.693 241.645 279.989 242.664 280.633 244.679C281.277 246.695 280.01 248.89 277.822 249.551C275.649 250.248 273.355 249.225 272.711 247.21ZM276.967 260.534C276.335 258.553 277.601 256.358 279.775 255.664C281.949 254.969 284.245 255.988 284.889 258.004C285.533 260.019 284.266 262.214 282.078 262.875C279.904 263.569 277.611 262.55 276.967 260.534Z" fill="#2A1C84"/>
<path d="M264.264 158.939C264.607 155.969 264.573 152.92 264.131 149.863C263.395 149.706 262.425 149.556 261.668 149.482C261.131 146.254 260.154 143.197 258.739 140.312C259.313 139.812 260.014 139.119 260.521 138.561C259.107 135.811 257.364 133.305 255.36 131.084C246.048 128.288 238.146 129.248 231.03 132.303C229.636 136.576 229.19 140.427 229.252 144.054C230.598 144.525 231.985 144.885 233.401 145.124C233.458 143.788 233.633 142.47 233.916 141.188C234.213 141.409 234.517 141.621 234.825 141.822C233.953 149.373 236.243 156.543 241.306 162.112C241.173 162.457 241.048 162.806 240.933 163.155C239.955 162.272 239.047 161.297 238.227 160.241C237.214 161.256 236.289 162.351 235.466 163.518C237.519 166.512 240.116 169.396 243.732 172.068C252.51 170.182 259.17 165.569 264.264 158.939ZM239.769 144.081C239.136 142.1 240.402 139.905 242.576 139.211C244.75 138.516 247.046 139.535 247.69 141.55C248.334 143.566 247.068 145.761 244.88 146.422C242.707 147.119 240.413 146.096 239.769 144.081ZM244.025 157.405C243.392 155.424 244.658 153.229 246.832 152.535C249.006 151.841 251.303 152.859 251.946 154.875C252.59 156.891 251.324 159.085 249.136 159.746C246.962 160.44 244.669 159.421 244.025 157.405Z" fill="#2A1C84"/>
<path d="M330.149 365.197C330.492 362.226 330.458 359.178 330.016 356.121C329.28 355.963 328.31 355.814 327.553 355.74C327.015 352.512 326.039 349.455 324.624 346.57C325.198 346.07 325.898 345.377 326.405 344.819C324.992 342.069 323.249 339.563 321.244 337.342C311.933 334.546 304.031 335.505 296.915 338.561C295.52 342.834 295.075 346.685 295.136 350.312C296.483 350.782 297.869 351.142 299.286 351.382C299.343 350.046 299.518 348.728 299.801 347.446C300.098 347.667 300.402 347.879 300.709 348.08C299.838 355.631 302.128 362.801 307.19 368.369C307.057 368.714 306.932 369.064 306.818 369.413C305.84 368.53 304.932 367.554 304.111 366.499C303.099 367.514 302.174 368.609 301.35 369.776C303.404 372.77 306.001 375.653 309.617 378.326C318.395 376.439 325.055 371.827 330.149 365.197ZM305.654 350.339C305.021 348.358 306.287 346.163 308.461 345.468C310.635 344.774 312.931 345.793 313.575 347.808C314.219 349.824 312.953 352.019 310.764 352.679C308.591 353.377 306.297 352.354 305.654 350.339ZM309.91 363.663C309.277 361.682 310.543 359.487 312.717 358.793C314.891 358.098 317.187 359.117 317.831 361.133C318.475 363.148 317.209 365.343 315.021 366.004C312.847 366.698 310.554 365.679 309.91 363.663Z" fill="#2A1C84"/>
<path d="M247.792 107.375C248.136 104.404 248.101 101.356 247.659 98.2989C246.923 98.1412 245.954 97.992 245.196 97.9176C244.659 94.6894 243.683 91.6328 242.267 88.7476C242.841 88.2479 243.542 87.5548 244.049 86.9965C242.636 84.2462 240.893 81.7404 238.888 79.5198C229.577 76.7233 221.675 77.6831 214.558 80.7385C213.164 85.0112 212.718 88.8628 212.78 92.4898C214.126 92.9601 215.513 93.3202 216.93 93.5595C216.986 92.2238 217.162 90.9059 217.444 89.6233C217.741 89.8448 218.046 90.0569 218.353 90.2577C217.481 97.8086 219.772 104.979 224.834 110.547C224.701 110.892 224.576 111.241 224.461 111.591C223.483 110.707 222.575 109.732 221.755 108.677C220.743 109.692 219.817 110.787 218.994 111.954C221.047 114.948 223.644 117.831 227.26 120.504C236.039 118.617 242.699 114.004 247.792 107.375ZM223.297 92.5163C222.664 90.5353 223.931 88.3405 226.105 87.6461C228.279 86.9516 230.575 87.9702 231.219 89.9859C231.862 92.0016 230.596 94.1964 228.408 94.8571C226.235 95.5547 223.941 94.532 223.297 92.5163ZM227.553 105.841C226.92 103.86 228.187 101.665 230.361 100.97C232.535 100.276 234.831 101.295 235.475 103.31C236.119 105.326 234.852 107.521 232.664 108.182C230.49 108.876 228.197 107.856 227.553 105.841Z" fill="#2A1C84"/>
<path d="M313.677 313.633C314.02 310.662 313.986 307.614 313.544 304.557C312.808 304.399 311.839 304.25 311.081 304.175C310.544 300.947 309.567 297.891 308.152 295.005C308.726 294.506 309.427 293.813 309.934 293.254C308.521 290.504 306.778 287.998 304.773 285.778C295.462 282.981 287.559 283.941 280.443 286.996C279.049 291.269 278.603 295.121 278.665 298.748C280.011 299.218 281.398 299.578 282.814 299.817C282.871 298.482 283.046 297.164 283.329 295.881C283.626 296.103 283.93 296.315 284.238 296.516C283.366 304.066 285.657 311.236 290.719 316.805C290.586 317.15 290.461 317.499 290.346 317.849C289.368 316.965 288.46 315.99 287.64 314.934C286.627 315.95 285.702 317.045 284.879 318.212C286.932 321.206 289.529 324.089 293.145 326.761C301.923 324.875 308.583 320.262 313.677 313.633ZM289.182 298.774C288.549 296.793 289.815 294.598 291.989 293.904C294.163 293.209 296.459 294.228 297.103 296.244C297.747 298.259 296.481 300.454 294.293 301.115C292.12 301.813 289.826 300.79 289.182 298.774ZM293.438 312.099C292.805 310.118 294.072 307.923 296.246 307.228C298.42 306.534 300.716 307.552 301.36 309.568C302.003 311.584 300.737 313.779 298.549 314.439C296.375 315.134 294.082 314.114 293.438 312.099Z" fill="#2A1C84"/>
<path d="M214.851 4.24588C215.194 1.27523 215.16 -1.7729 214.718 -4.82998C213.982 -4.98774 213.012 -5.13689 212.255 -5.21134C211.717 -8.43946 210.741 -11.4961 209.326 -14.3813C209.9 -14.881 210.6 -15.5741 211.108 -16.1324C209.694 -18.8827 207.951 -21.3885 205.946 -23.6091C196.635 -26.4056 188.733 -25.4458 181.617 -22.3905C180.223 -18.1177 179.777 -14.2661 179.839 -10.6391C181.185 -10.1688 182.572 -9.80873 183.988 -9.56944C184.045 -10.9051 184.22 -12.223 184.503 -13.5056C184.8 -13.2842 185.104 -13.072 185.412 -12.8712C184.54 -5.32035 186.83 1.84972 191.893 7.41825C191.759 7.76322 191.635 8.11252 191.52 8.46198C190.542 7.57852 189.634 6.60316 188.814 5.5477C187.801 6.56289 186.876 7.65798 186.053 8.82486C188.106 11.8191 190.703 14.7023 194.319 17.3746C203.097 15.4883 209.757 10.8754 214.851 4.24588ZM190.356 -10.6126C189.723 -12.5936 190.989 -14.7884 193.163 -15.4828C195.337 -16.1773 197.633 -15.1587 198.277 -13.143C198.921 -11.1273 197.655 -8.93248 195.467 -8.27176C193.294 -7.57418 191 -8.59693 190.356 -10.6126ZM194.612 2.71179C193.979 0.73079 195.245 -1.464 197.419 -2.15843C199.593 -2.85286 201.889 -1.83425 202.533 0.181448C203.177 2.19715 201.911 4.39194 199.723 5.05266C197.549 5.74709 195.256 4.72749 194.612 2.71179Z" fill="#2A1C84"/>
<path d="M280.735 210.504C281.078 207.533 281.044 204.485 280.602 201.428C279.866 201.27 278.896 201.121 278.139 201.046C277.602 197.818 276.625 194.762 275.21 191.876C275.784 191.377 276.484 190.684 276.992 190.125C275.578 187.375 273.835 184.869 271.83 182.649C262.519 179.852 254.617 180.812 247.501 183.867C246.107 188.14 245.661 191.992 245.723 195.619C247.069 196.089 248.456 196.449 249.872 196.688C249.929 195.353 250.104 194.035 250.387 192.752C250.684 192.974 250.988 193.186 251.296 193.387C250.424 200.937 252.714 208.108 257.777 213.676C257.643 214.021 257.519 214.37 257.404 214.72C256.426 213.836 255.518 212.861 254.698 211.806C253.685 212.821 252.76 213.916 251.937 215.083C253.99 218.077 256.587 220.96 260.203 223.632C268.981 221.746 275.641 217.133 280.735 210.504ZM256.24 195.645C255.607 193.664 256.873 191.469 259.047 190.775C261.221 190.081 263.517 191.099 264.161 193.115C264.805 195.131 263.539 197.325 261.351 197.986C259.178 198.684 256.884 197.661 256.24 195.645ZM260.496 208.97C259.863 206.989 261.129 204.794 263.303 204.099C265.477 203.405 267.774 204.424 268.417 206.439C269.061 208.455 267.795 210.65 265.607 211.31C263.433 212.005 261.14 210.985 260.496 208.97Z" fill="#2A1C84"/>
</g>
<mask id="mask1_139_293" style="mask-type:alpha" maskUnits="userSpaceOnUse" x="-374" y="94" width="1098" height="262">
<rect x="-373.147" y="311.059" width="1109" height="44.8782" transform="rotate(-11.2348 -373.147 311.059)" fill="white"/>
</mask>
<g mask="url(#mask1_139_293)">
<rect x="-373.147" y="311.059" width="1109" height="44.8782" transform="rotate(-11.2348 -373.147 311.059)" fill="#B941FF"/>
<rect x="-373.147" y="311.059" width="1109" height="44.8782" transform="rotate(-11.2348 -373.147 311.059)" fill="url(#paint1_linear_139_293)"/>
<path d="M104.969 226.793C102.056 226.116 99.0233 225.807 95.9359 225.901C95.6961 226.614 95.4385 227.561 95.279 228.305C92.0109 228.475 88.8635 229.1 85.837 230.18C85.4053 229.554 84.7957 228.779 84.2982 228.212C81.406 229.306 78.7195 230.755 76.2868 232.497C72.4574 241.433 72.5192 249.393 74.7519 256.808C78.84 258.676 82.6167 259.554 86.2274 259.902C86.8467 258.617 87.361 257.28 87.7586 255.899C86.4379 255.692 85.1482 255.369 83.9056 254.944C84.1592 254.673 84.4044 254.395 84.6386 254.112C92.0428 255.83 99.4256 254.364 105.53 249.962C105.858 250.134 106.191 250.297 106.525 250.451C105.537 251.323 104.465 252.115 103.324 252.811C104.218 253.931 105.202 254.974 106.268 255.924C109.475 254.222 112.633 251.967 115.696 248.675C114.813 239.74 110.981 232.602 104.969 226.793ZM87.4407 249.455C85.401 249.86 83.3631 248.354 82.9185 246.115C82.4738 243.877 83.7451 241.71 85.8205 241.298C87.896 240.886 89.9339 242.392 90.3434 244.641C90.7913 246.878 89.5162 249.042 87.4407 249.455ZM101.16 246.729C99.1206 247.135 97.0827 245.629 96.6381 243.39C96.1935 241.152 97.4647 238.985 99.5402 238.573C101.616 238.161 103.654 239.667 104.063 241.915C104.508 244.154 103.236 246.317 101.16 246.729Z" fill="#2A1C84"/>
<path d="M317.345 184.607C314.432 183.931 311.399 183.621 308.312 183.715C308.072 184.428 307.814 185.375 307.655 186.119C304.387 186.289 301.239 186.914 298.213 187.994C297.781 187.368 297.171 186.594 296.674 186.027C293.782 187.12 291.095 188.569 288.663 190.311C284.833 199.247 284.895 207.207 287.128 214.623C291.216 216.49 294.992 217.368 298.603 217.716C299.222 216.431 299.737 215.094 300.134 213.713C298.814 213.506 297.524 213.183 296.281 212.758C296.535 212.488 296.78 212.209 297.014 211.926C304.419 213.645 311.801 212.178 317.906 207.777C318.233 207.948 318.566 208.111 318.901 208.265C317.912 209.137 316.841 209.929 315.699 210.625C316.594 211.745 317.578 212.788 318.644 213.738C321.851 212.036 325.009 209.781 328.072 206.49C327.189 197.554 323.357 190.416 317.345 184.607ZM299.816 207.269C297.777 207.674 295.739 206.168 295.294 203.93C294.85 201.691 296.121 199.525 298.196 199.112C300.272 198.7 302.31 200.206 302.719 202.455C303.167 204.693 301.892 206.857 299.816 207.269ZM313.536 204.544C311.496 204.949 309.458 203.443 309.014 201.204C308.569 198.966 309.84 196.799 311.916 196.387C313.991 195.975 316.029 197.481 316.439 199.73C316.883 201.968 315.612 204.131 313.536 204.544Z" fill="#2A1C84"/>
<path d="M211.157 205.7C208.244 205.024 205.211 204.714 202.124 204.808C201.884 205.521 201.627 206.468 201.467 207.212C198.199 207.382 195.052 208.007 192.025 209.088C191.593 208.461 190.984 207.687 190.486 207.12C187.594 208.213 184.908 209.662 182.475 211.404C178.645 220.34 178.707 228.3 180.94 235.716C185.028 237.583 188.805 238.461 192.415 238.809C193.035 237.524 193.549 236.187 193.947 234.806C192.626 234.599 191.336 234.276 190.094 233.851C190.347 233.581 190.592 233.302 190.827 233.019C198.231 234.738 205.614 233.271 211.718 228.87C212.046 229.041 212.379 229.204 212.713 229.358C211.725 230.23 210.653 231.022 209.512 231.718C210.406 232.838 211.39 233.881 212.456 234.831C215.663 233.129 218.821 230.874 221.884 227.583C221.001 218.647 217.169 211.509 211.157 205.7ZM193.629 228.362C191.589 228.767 189.551 227.261 189.107 225.023C188.662 222.784 189.933 220.618 192.009 220.205C194.084 219.793 196.122 221.299 196.531 223.548C196.979 225.786 195.704 227.95 193.629 228.362ZM207.348 225.637C205.309 226.042 203.271 224.536 202.826 222.297C202.382 220.059 203.653 217.892 205.728 217.48C207.804 217.068 209.842 218.574 210.251 220.823C210.696 223.061 209.424 225.224 207.348 225.637Z" fill="#2A1C84"/>
<path d="M-1.21897 247.886C-4.1319 247.209 -7.16445 246.9 -10.2519 246.994C-10.4917 247.707 -10.7493 248.654 -10.9087 249.398C-14.1769 249.567 -17.3242 250.193 -20.3507 251.273C-20.7824 250.646 -21.392 249.872 -21.8895 249.305C-24.7817 250.399 -27.4683 251.848 -29.901 253.589C-33.7304 262.526 -33.6685 270.486 -31.4359 277.901C-27.3477 279.769 -23.571 280.646 -19.9603 280.994C-19.3411 279.71 -18.8268 278.372 -18.4291 276.992C-19.7498 276.785 -21.0396 276.462 -22.2821 276.036C-22.0285 275.766 -21.7833 275.488 -21.5492 275.205C-14.1449 276.923 -6.76218 275.457 -0.657914 271.055C-0.330172 271.226 0.00279159 271.39 0.337096 271.543C-0.651093 272.415 -1.72269 273.207 -2.864 273.903C-1.96956 275.024 -0.985882 276.067 0.0806049 277.017C3.28747 275.315 6.4453 273.06 9.50867 269.768C8.62512 260.833 4.7933 253.695 -1.21897 247.886ZM-18.747 270.547C-20.7868 270.953 -22.8247 269.447 -23.2693 267.208C-23.7139 264.97 -22.4427 262.803 -20.3672 262.391C-18.2917 261.979 -16.2539 263.485 -15.8443 265.733C-15.3964 267.971 -16.6716 270.135 -18.747 270.547ZM-5.02741 267.822C-7.06717 268.227 -9.10503 266.721 -9.54966 264.483C-9.9943 262.245 -8.72306 260.078 -6.64758 259.666C-4.57209 259.253 -2.53424 260.759 -2.12469 263.008C-1.68005 265.247 -2.95193 267.41 -5.02741 267.822Z" fill="#2A1C84"/>
<path d="M158.064 216.246C155.151 215.57 152.118 215.26 149.031 215.354C148.791 216.068 148.533 217.014 148.374 217.758C145.106 217.928 141.959 218.553 138.932 219.634C138.5 219.007 137.891 218.233 137.393 217.666C134.501 218.76 131.814 220.209 129.382 221.95C125.552 230.886 125.614 238.846 127.847 246.262C131.935 248.129 135.712 249.007 139.322 249.355C139.942 248.07 140.456 246.733 140.854 245.353C139.533 245.146 138.243 244.823 137.001 244.397C137.254 244.127 137.499 243.848 137.734 243.566C145.138 245.284 152.521 243.817 158.625 239.416C158.953 239.587 159.286 239.751 159.62 239.904C158.632 240.776 157.56 241.568 156.419 242.264C157.313 243.385 158.297 244.427 159.363 245.377C162.57 243.675 165.728 241.42 168.791 238.129C167.908 229.193 164.076 222.056 158.064 216.246ZM140.536 238.908C138.496 239.313 136.458 237.807 136.013 235.569C135.569 233.33 136.84 231.164 138.916 230.752C140.991 230.339 143.029 231.845 143.438 234.094C143.886 236.332 142.611 238.496 140.536 238.908ZM154.255 236.183C152.216 236.588 150.178 235.082 149.733 232.844C149.288 230.605 150.56 228.439 152.635 228.026C154.711 227.614 156.749 229.12 157.158 231.369C157.603 233.607 156.331 235.771 154.255 236.183Z" fill="#2A1C84"/>
<path d="M264.252 195.153C261.339 194.477 258.306 194.167 255.219 194.261C254.979 194.974 254.721 195.921 254.562 196.665C251.294 196.835 248.146 197.46 245.12 198.541C244.688 197.914 244.079 197.14 243.581 196.573C240.689 197.667 238.002 199.116 235.57 200.857C231.74 209.793 231.802 217.753 234.035 225.169C238.123 227.036 241.9 227.914 245.51 228.262C246.13 226.977 246.644 225.64 247.041 224.26C245.721 224.053 244.431 223.729 243.189 223.304C243.442 223.034 243.687 222.755 243.921 222.473C251.326 224.191 258.708 222.724 264.813 218.323C265.14 218.494 265.473 218.658 265.808 218.811C264.82 219.683 263.748 220.475 262.607 221.171C263.501 222.292 264.485 223.334 265.551 224.284C268.758 222.582 271.916 220.327 274.979 217.036C274.096 208.1 270.264 200.963 264.252 195.153ZM246.724 217.815C244.684 218.22 242.646 216.714 242.201 214.476C241.757 212.237 243.028 210.071 245.103 209.659C247.179 209.246 249.217 210.752 249.626 213.001C250.074 215.239 248.799 217.403 246.724 217.815ZM260.443 215.09C258.403 215.495 256.366 213.989 255.921 211.751C255.476 209.512 256.748 207.346 258.823 206.933C260.899 206.521 262.936 208.027 263.346 210.276C263.791 212.514 262.519 214.678 260.443 215.09Z" fill="#2A1C84"/>
<path d="M51.8749 237.339C48.962 236.663 45.9295 236.353 42.8421 236.447C42.6022 237.16 42.3446 238.107 42.1852 238.851C38.917 239.021 35.7697 239.646 32.7432 240.726C32.3115 240.1 31.7019 239.325 31.2044 238.759C28.3122 239.852 25.6256 241.301 23.193 243.043C19.3635 251.979 19.4254 259.939 21.658 267.355C25.7462 269.222 29.5229 270.1 33.1336 270.448C33.7528 269.163 34.2671 267.826 34.6648 266.445C33.3441 266.238 32.0544 265.915 30.8118 265.49C31.0654 265.22 31.3106 264.941 31.5447 264.658C38.949 266.377 46.3317 264.91 52.436 260.509C52.7637 260.68 53.0967 260.843 53.431 260.997C52.4428 261.869 51.3712 262.661 50.2299 263.357C51.1244 264.477 52.108 265.52 53.1745 266.47C56.3814 264.768 59.5392 262.513 62.6026 259.222C61.719 250.286 57.8872 243.148 51.8749 237.339ZM34.3469 260.001C32.3071 260.406 30.2693 258.9 29.8246 256.662C29.38 254.423 30.6512 252.257 32.7267 251.844C34.8022 251.432 36.84 252.938 37.2496 255.187C37.6975 257.425 36.4224 259.589 34.3469 260.001ZM48.0665 257.276C46.0267 257.681 43.9889 256.175 43.5443 253.936C43.0996 251.698 44.3709 249.531 46.4463 249.119C48.5218 248.707 50.5597 250.213 50.9692 252.462C51.4139 254.7 50.142 256.863 48.0665 257.276Z" fill="#2A1C84"/>
</g>
</g>
<defs>
<linearGradient id="paint0_linear_139_293" x1="1136.75" y1="-616" x2="1136.24" y2="-560.498" gradientUnits="userSpaceOnUse">
<stop stop-color="#3736BB"/>
<stop offset="0.239583" stop-color="#4670E8"/>
<stop offset="0.4375" stop-color="#8377EB"/>
<stop offset="0.598958" stop-color="#E782F1"/>
<stop offset="1" stop-color="#DF90AF"/>
</linearGradient>
<linearGradient id="paint1_linear_139_293" x1="735.853" y1="311.059" x2="735.338" y2="366.561" gradientUnits="userSpaceOnUse">
<stop stop-color="#3736BB"/>
<stop offset="0.239583" stop-color="#4670E8"/>
<stop offset="0.4375" stop-color="#8377EB"/>
<stop offset="0.598958" stop-color="#E782F1"/>
<stop offset="1" stop-color="#DF90AF"/>
</linearGradient>
<clipPath id="clip0_139_293">
<rect width="327" height="339" fill="white"/>
</clipPath>
</defs>
</svg>
