<svg width="81" height="162" viewBox="0 0 81 162" fill="none" xmlns="http://www.w3.org/2000/svg">
<g clip-path="url(#clip0_444_7511)">
<mask id="mask0_444_7511" style="mask-type:luminance" maskUnits="userSpaceOnUse" x="0" y="0" width="81" height="162">
<path d="M81 0H0V162H81V0Z" fill="white"/>
</mask>
<g mask="url(#mask0_444_7511)">
<path d="M59.7001 35.9C59.7001 35.9 63.9001 23.2 48.0001 14.8C34.4001 7.70005 21.2001 10.5 19.0001 11.2C18.8001 11.3 18.6001 11.4 18.4001 11.7C18.1001 12.4 18.5001 13.1 19.3001 13.2C26.3001 13.3 52.3001 16.5 51.6001 34.5C50.9001 38.4 48.3001 49.8 28.0001 51.2C10.5001 52.3 4.20012 42.6 2.80012 39.9C2.60012 39.5 2.20012 39.3 1.70012 39.4C1.00012 39.5 0.700116 40.2 1.00012 40.8C2.20012 43.4 5.70012 49.3 13.2001 52.2C22.9001 56 34.2001 56.7 45.6001 52C57.0001 47.2 59.7001 35.9 59.7001 35.9Z" fill="white"/>
<path d="M2 166.7L36.9 115L45.7 121.7L91.8 163.7L62.9 200.3L2 166.7Z" fill="#3043E2"/>
<path d="M23.8 135.7C27.2 136.4 36.6 133.5 36.6 133.5C36.6 133.5 24.5 149.6 13.5 149.4L22.7 135.9L23.8 135.7Z" fill="black"/>
<path d="M18.0002 30.4999L18.8002 36.9999C18.9002 37.5999 18.6002 38.0999 18.1002 38.3999L11.8002 41.7999C11.2002 42.0999 11.5002 42.9999 12.1002 42.7999L19.7002 41.5999C20.3002 41.4999 21.0002 41.7999 21.4002 42.2999L25.5002 47.6999C25.9002 48.1999 26.6002 47.7999 26.5002 47.1999L24.4002 40.2999C24.2002 39.6999 24.5002 39.0999 25.0002 38.7999L29.6002 36.0999C30.2002 35.7999 29.9002 34.7999 29.2002 34.8999L24.9002 35.5999C24.2002 35.6999 23.6002 35.4999 23.1002 34.9999L18.8002 30.0999C18.5002 29.7999 17.9002 29.9999 18.0002 30.4999Z" fill="white"/>
<path d="M61.5889 119.556C62.5447 116.153 55.7328 111.264 46.3742 108.635C37.0156 106.007 28.6541 106.635 27.6983 110.038C26.7426 113.441 33.5544 118.331 42.9131 120.959C52.2717 123.588 60.6331 122.959 61.5889 119.556Z" fill="#3043E2"/>
<path d="M60.6972 119.72C61.5932 116.53 55.164 111.934 46.3371 109.455C37.5103 106.976 29.6283 107.552 28.7323 110.743C27.8362 113.933 34.2655 118.529 43.0923 121.008C51.9192 123.487 59.8012 122.91 60.6972 119.72Z" fill="black"/>
<path d="M47.5001 115.6C47.5001 115.6 48.2001 114.4 45.1001 113.6C42.1001 112.8 39.6001 115.2 39.6001 115.2L39.9001 118.7L47.5001 115.6Z" fill="#FF7EC6"/>
<path d="M37.5 107.5L40.6 96.5999C40.9 95.3999 42.6 95.3999 43 96.4999L47.8 109.6L37.5 107.5Z" fill="#3043E2"/>
<path d="M27.3 81.2C30.4 81.9 32.8 84.3 33.5 87.4L39.8 114.3C40.9 118.5 41.9 126.3 40.8 130.5C39.4 135.6 35.3 137.6 28 137.1C16.2 136.2 16.2 127.1 17.7 116.9C19.2 106.7 23.2 89.8 23.2 89.8L27.3 81.2Z" fill="#3043E2"/>
<path d="M26.9003 86.1L28.5003 84.7C29.1003 84.2 30.0003 84.2 30.5003 84.8C31.6003 86.2 31.5003 88.9 31.8003 91.1L33.5003 108.1C34.1003 111.8 34.6003 120.9 35.0003 126.1C35.3003 130.4 33.1003 135.2 27.3003 134.7C17.8003 134 19.4003 122 20.5003 113.8C21.7003 105.6 23.7003 90.7 23.7003 90.7L26.9003 86.1Z" fill="black"/>
<path d="M25.0001 67.9001L29.0001 83.2001C29.2001 84.1001 29.3001 85.0001 29.1001 85.9001C28.6001 88.6001 27.2001 93.9001 23.9001 93.2001C23.9001 93.2001 23.1001 92.9002 22.4001 88.8002C21.7001 84.7002 18.7001 71.1001 18.7001 71.1001C18.7001 71.1001 13.1001 67.2001 13.1001 63.8001C13.0001 60.4001 16.7001 58.8001 16.7001 58.8001L15.4001 56.7001C14.8001 55.7001 15.4001 54.5001 16.5001 54.3001C17.1001 54.2001 17.7001 54.4001 18.0001 54.9001L21.3001 59.4001C21.3001 59.4001 24.4001 60.1001 25.0001 62.8001C25.8001 65.6001 25.0001 67.9001 25.0001 67.9001Z" fill="#FF7EC6"/>
<path d="M18 58.5L20.8 39C20.9 38.6 21.2 38.3 21.6 38.4C22 38.5 22.3 38.8 22.2 39.2L19.4 58.8L18 58.5Z" fill="black"/>
<path d="M40.5 117.8L45.4 114.7L71.5 126.5L62.4 127.7L70.5 135.5L57.7 133.2L59.9 143.8L49.4 129.4L46.7 132.1L40.5 117.8Z" fill="white"/>
<path d="M40.5 117.8L46.7 132.1L49.4 129.4L59.4 143.2L57.2 132.7L69 134.8L42.7 116.3L40.5 117.8Z" fill="#7E8AFF"/>
<path d="M103.5 124.2L53.9001 58.8C53.5001 58.3 53.6001 57.6 54.1001 57.2C54.6001 56.8 55.3001 56.9 55.7001 57.3L113.1 115L103.5 124.2Z" fill="#FF7EC6"/>
<path d="M123.5 122.2L73.9001 56.8C73.5001 56.3 73.6001 55.6 74.1001 55.2C74.6001 54.8 75.3001 54.9 75.7001 55.3L133.1 113L123.5 122.2Z" fill="#FF7EC6"/>
<path d="M115.5 166.2L65.9001 100.8C65.5001 100.3 65.6001 99.6 66.1001 99.2C66.6001 98.8 67.3001 98.9 67.7001 99.3L125.1 157L115.5 166.2Z" fill="#FF7EC6"/>
<path d="M105.1 122.8L61.3001 66.1C60.9001 65.6 61.6001 65 62.0001 65.4C62.1001 65.5 62.1001 65.5 62.2001 65.5L111.4 116.7L105.1 122.8Z" fill="white"/>
<path d="M21.6001 38.3001C21.2001 38.2001 20.8001 38.5001 20.8001 38.9001L20.4001 41.5001C20.8001 41.6001 21.2001 41.8001 21.4001 42.1001L21.7001 42.5001L22.2001 39.0001C22.4001 38.8001 22.1001 38.4001 21.6001 38.3001ZM20.6001 50.6001C20.1001 50.5001 19.6001 50.5001 19.1001 50.4001L18.6001 53.7001C19.1001 53.8001 19.6001 53.9001 20.1001 54.0001L20.6001 50.6001Z" fill="#3043E2"/>
</g>
</g>
<defs>
<clipPath id="clip0_444_7511">
<rect width="81" height="162" fill="white"/>
</clipPath>
</defs>
</svg>
