<svg width="25" height="25" viewBox="0 0 25 25" fill="none" xmlns="http://www.w3.org/2000/svg">
  <path d="M6.75002 22.07H5.24002C5.01805 22.0674 4.8059 21.9781 4.64893 21.8211C4.49195 21.6641 4.40262 21.452 4.40002 21.23V20.57H7.19002V21.63C7.19002 21.6878 7.17864 21.745 7.15653 21.7984C7.13442 21.8518 7.10201 21.9003 7.06115 21.9411C7.02029 21.982 6.97179 22.0144 6.91841 22.0365C6.86502 22.0586 6.80781 22.07 6.75002 22.07Z" fill="#9F7388"/>
  <path d="M19.76 22.07H18.25C18.1333 22.07 18.0214 22.0237 17.9389 21.9411C17.8564 21.8586 17.81 21.7467 17.81 21.63V20.57H20.6V21.23C20.5974 21.452 20.5081 21.6641 20.3511 21.8211C20.1941 21.9781 19.982 22.0674 19.76 22.07Z" fill="#9F7388"/>
  <path d="M20.29 7.90997H4.70998C3.44525 7.90997 2.41998 8.93524 2.41998 10.2V18.42C2.41998 19.6847 3.44525 20.71 4.70998 20.71H20.29C21.5547 20.71 22.58 19.6847 22.58 18.42V10.2C22.58 8.93524 21.5547 7.90997 20.29 7.90997Z" fill="#F891B7"/>
  <path d="M19.2 11.92C19.8849 11.92 20.44 11.3648 20.44 10.68C20.44 9.99517 19.8849 9.44 19.2 9.44C18.5152 9.44 17.96 9.99517 17.96 10.68C17.96 11.3648 18.5152 11.92 19.2 11.92Z" fill="#DBB7C7"/>
  <path d="M19.2 15.52C19.8849 15.52 20.44 14.9648 20.44 14.28C20.44 13.5951 19.8849 13.04 19.2 13.04C18.5152 13.04 17.96 13.5951 17.96 14.28C17.96 14.9648 18.5152 15.52 19.2 15.52Z" fill="#DBB7C7"/>
  <mask id="mask0_1215_7159" style="mask-type:luminance" maskUnits="userSpaceOnUse" x="17" y="13" width="4" height="3">
    <path d="M19.2 15.52C19.8849 15.52 20.44 14.9648 20.44 14.28C20.44 13.5951 19.8849 13.04 19.2 13.04C18.5152 13.04 17.96 13.5951 17.96 14.28C17.96 14.9648 18.5152 15.52 19.2 15.52Z" fill="white"/>
  </mask>
  <g mask="url(#mask0_1215_7159)">
    <path d="M19.9647 13.0294L17.9353 15.0588L18.4232 15.5467L20.4526 13.5173L19.9647 13.0294Z" fill="#DBB7C7"/>
  </g>
  <mask id="mask1_1215_7159" style="mask-type:luminance" maskUnits="userSpaceOnUse" x="17" y="9" width="4" height="3">
    <path d="M19.2 11.92C19.8849 11.92 20.44 11.3648 20.44 10.68C20.44 9.99517 19.8849 9.44 19.2 9.44C18.5152 9.44 17.96 9.99517 17.96 10.68C17.96 11.3648 18.5152 11.92 19.2 11.92Z" fill="white"/>
  </mask>
  <g mask="url(#mask1_1215_7159)">
    <path d="M19.9691 9.42391L17.9397 11.4533L18.4276 11.9412L20.457 9.91182L19.9691 9.42391Z" fill="#DBB7C7"/>
  </g>
  <path d="M5.24002 9.12997H12.89L13.83 7.90997H4.46002C3.92959 7.90997 3.42088 8.12069 3.04581 8.49576C2.67074 8.87083 2.46002 9.37954 2.46002 9.90997V16.81H5.24002V9.12997Z" fill="white" fill-opacity="0.02"/>
  <path d="M17 7.93998C16.9827 7.93647 16.9663 7.92947 16.9518 7.91941C16.9373 7.90936 16.925 7.89645 16.9156 7.88148C16.9063 7.8665 16.9001 7.84978 16.8974 7.83233C16.8947 7.81488 16.8956 7.79707 16.9 7.77998L18.54 0.929981C18.5494 0.896367 18.5711 0.867478 18.6007 0.848978C18.6302 0.830479 18.6657 0.823704 18.7 0.829981C18.7185 0.833296 18.736 0.840556 18.7513 0.851263C18.7667 0.86197 18.7796 0.875871 18.7891 0.892015C18.7986 0.908159 18.8045 0.926165 18.8064 0.9448C18.8082 0.963434 18.8061 0.982257 18.8 0.999981L17.14 7.83998C17.1329 7.87085 17.1147 7.89804 17.0889 7.91645C17.0632 7.93487 17.0315 7.94323 17 7.93998Z" fill="#E27B96"/>
  <path d="M16.18 7.93997C16.1566 7.94082 16.1333 7.93577 16.1123 7.92528C16.0914 7.9148 16.0734 7.89922 16.06 7.87997L14.06 4.45997C14.0361 4.43411 14.0228 4.40018 14.0228 4.36497C14.0228 4.32976 14.0361 4.29584 14.06 4.26997C14.0754 4.25946 14.0928 4.25238 14.1112 4.24921C14.1296 4.24604 14.1484 4.24685 14.1664 4.25159C14.1844 4.25634 14.2012 4.2649 14.2156 4.27669C14.2301 4.28849 14.2418 4.30325 14.25 4.31997L16.25 7.73997C16.2659 7.77236 16.2696 7.8094 16.2604 7.8443C16.2512 7.87919 16.2298 7.90961 16.2 7.92997L16.18 7.93997Z" fill="#E27B96"/>
  <path d="M20.54 7.77002H4.46003C4.16988 7.7713 3.88288 7.83022 3.61569 7.94336C3.34851 8.0565 3.10647 8.22161 2.90364 8.42909C2.70081 8.63657 2.54124 8.88229 2.43418 9.15197C2.32712 9.42165 2.27473 9.70992 2.28003 10V18.71C2.29517 19.2675 2.52339 19.798 2.91773 20.1923C3.31207 20.5867 3.84255 20.8149 4.40003 20.83V21.23C4.40263 21.452 4.49196 21.6641 4.64893 21.8211C4.8059 21.9781 5.01805 22.0674 5.24003 22.07H6.75003C6.80781 22.07 6.86503 22.0586 6.91841 22.0365C6.97179 22.0144 7.0203 21.982 7.06116 21.9411C7.10201 21.9003 7.13442 21.8518 7.15654 21.7984C7.17865 21.745 7.19003 21.6878 7.19003 21.63V20.84H17.81V21.63C17.81 21.7467 17.8564 21.8586 17.9389 21.9411C18.0214 22.0237 18.1333 22.07 18.25 22.07H19.76C19.982 22.0674 20.1942 21.9781 20.3511 21.8211C20.5081 21.6641 20.5974 21.452 20.6 21.23V20.83C21.166 20.8144 21.7037 20.5793 22.0994 20.1743C22.4951 19.7693 22.7176 19.2262 22.72 18.66V10C22.7253 9.70992 22.6729 9.42165 22.5659 9.15197C22.4588 8.88229 22.2992 8.63657 22.0964 8.42909C21.8936 8.22161 21.6515 8.0565 21.3844 7.94336C21.1172 7.83022 20.8302 7.7713 20.54 7.77002ZM6.92003 21.63C6.91763 21.6743 6.89895 21.7162 6.86757 21.7476C6.8362 21.7789 6.79434 21.7976 6.75003 21.8H5.24003C5.16518 21.8 5.09106 21.7853 5.0219 21.7566C4.95274 21.728 4.88991 21.686 4.83698 21.6331C4.78405 21.5801 4.74206 21.5173 4.71342 21.4481C4.68477 21.379 4.67003 21.3049 4.67003 21.23V20.84H6.92003V21.63ZM20.33 21.23C20.33 21.3049 20.3153 21.379 20.2866 21.4481C20.258 21.5173 20.216 21.5801 20.1631 21.6331C20.1102 21.686 20.0473 21.728 19.9782 21.7566C19.909 21.7853 19.8349 21.8 19.76 21.8H18.25C18.2057 21.7976 18.1639 21.7789 18.1325 21.7476C18.1011 21.7162 18.0824 21.6743 18.08 21.63V20.84H20.33V21.23ZM22.45 18.66C22.4474 19.1658 22.2453 19.6501 21.8877 20.0077C21.5301 20.3653 21.0458 20.5674 20.54 20.57H4.46003C3.95428 20.5674 3.46998 20.3653 3.11236 20.0077C2.75473 19.6501 2.55266 19.1658 2.55003 18.66V10C2.53927 9.74207 2.58064 9.4846 2.67167 9.24301C2.76271 9.00142 2.90153 8.78067 3.07983 8.59396C3.25814 8.40725 3.47227 8.25842 3.70942 8.15637C3.94656 8.05432 4.20186 8.00114 4.46003 8.00002H20.54C20.7982 8.00114 21.0535 8.05432 21.2906 8.15637C21.5278 8.25842 21.7419 8.40725 21.9202 8.59396C22.0985 8.78067 22.2374 9.00142 22.3284 9.24301C22.4194 9.4846 22.4608 9.74207 22.45 10V18.66Z" fill="black"/>
  <path d="M19.2 12.06C18.9266 12.062 18.6589 11.9827 18.4306 11.8323C18.2024 11.6819 18.0239 11.4671 17.9179 11.2151C17.812 10.9631 17.7832 10.6853 17.8353 10.417C17.8874 10.1486 18.0181 9.9018 18.2106 9.7078C18.4032 9.5138 18.6491 9.38137 18.9171 9.32731C19.185 9.27324 19.463 9.29998 19.7158 9.40413C19.9685 9.50828 20.1846 9.68515 20.3367 9.9123C20.4888 10.1394 20.57 10.4067 20.57 10.68C20.57 11.0443 20.426 11.3938 20.1693 11.6523C19.9127 11.9108 19.5643 12.0574 19.2 12.06ZM19.2 9.58001C18.9796 9.57804 18.7636 9.64171 18.5796 9.76291C18.3955 9.88411 18.2517 10.0574 18.1665 10.2606C18.0812 10.4638 18.0584 10.6878 18.1009 10.9041C18.1434 11.1203 18.2493 11.319 18.4052 11.4749C18.561 11.6307 18.7597 11.7366 18.9759 11.7791C19.1922 11.8216 19.4162 11.7988 19.6194 11.7136C19.8226 11.6283 19.9959 11.4845 20.1171 11.3004C20.2383 11.1164 20.302 10.9004 20.3 10.68C20.2974 10.3891 20.1807 10.1108 19.9749 9.90508C19.7692 9.69935 19.4909 9.58262 19.2 9.58001Z" fill="#4D3540"/>
  <path d="M19.2 15.66C18.9266 15.662 18.6589 15.5827 18.4306 15.4323C18.2024 15.2819 18.0239 15.067 17.9179 14.8151C17.812 14.5631 17.7832 14.2853 17.8353 14.0169C17.8874 13.7486 18.0181 13.5018 18.2106 13.3078C18.4032 13.1138 18.6491 12.9813 18.9171 12.9273C19.185 12.8732 19.463 12.9 19.7158 13.0041C19.9685 13.1083 20.1846 13.2851 20.3367 13.5123C20.4888 13.7394 20.57 14.0066 20.57 14.28C20.57 14.6443 20.426 14.9938 20.1693 15.2523C19.9127 15.5108 19.5643 15.6573 19.2 15.66ZM19.2 13.18C18.9796 13.178 18.7636 13.2417 18.5796 13.3629C18.3955 13.4841 18.2517 13.6573 18.1665 13.8606C18.0812 14.0638 18.0584 14.2878 18.1009 14.5041C18.1434 14.7203 18.2493 14.919 18.4052 15.0748C18.561 15.2307 18.7597 15.3366 18.9759 15.3791C19.1922 15.4216 19.4162 15.3988 19.6194 15.3135C19.8226 15.2283 19.9959 15.0845 20.1171 14.9004C20.2383 14.7163 20.302 14.5004 20.3 14.28C20.2974 13.9891 20.1807 13.7108 19.9749 13.5051C19.7692 13.2993 19.4909 13.1826 19.2 13.18Z" fill="#4D3540"/>
  <path d="M20.6 17.29H17.84C17.8055 17.29 17.7724 17.2763 17.7481 17.2519C17.7237 17.2276 17.71 17.1945 17.71 17.16C17.7086 17.1421 17.7109 17.1241 17.7169 17.1072C17.7228 17.0903 17.7321 17.0747 17.7443 17.0616C17.7565 17.0484 17.7713 17.0379 17.7878 17.0308C17.8043 17.0236 17.822 17.02 17.84 17.02H20.6C20.6184 17.02 20.6366 17.0236 20.6536 17.0307C20.6705 17.0377 20.686 17.048 20.699 17.061C20.712 17.074 20.7223 17.0895 20.7293 17.1064C20.7364 17.1234 20.74 17.1416 20.74 17.16C20.74 17.178 20.7364 17.1957 20.7292 17.2122C20.7221 17.2287 20.7116 17.2435 20.6984 17.2557C20.6853 17.2679 20.6698 17.2772 20.6528 17.2831C20.6359 17.2891 20.6179 17.2914 20.6 17.29Z" fill="#7F5769"/>
  <path d="M20.6 18.1H17.84C17.8055 18.1 17.7724 18.0863 17.7481 18.0619C17.7237 18.0376 17.71 18.0045 17.71 17.97C17.7086 17.9521 17.7109 17.9341 17.7169 17.9172C17.7228 17.9002 17.7321 17.8847 17.7443 17.8716C17.7565 17.8584 17.7713 17.8479 17.7878 17.8408C17.8043 17.8336 17.822 17.83 17.84 17.83H20.6C20.6371 17.83 20.6727 17.8448 20.699 17.871C20.7252 17.8973 20.74 17.9329 20.74 17.97C20.74 17.988 20.7364 18.0057 20.7292 18.0222C20.7221 18.0387 20.7116 18.0535 20.6984 18.0657C20.6853 18.0779 20.6698 18.0872 20.6528 18.0931C20.6359 18.0991 20.6179 18.1014 20.6 18.1Z" fill="#7F5769"/>
  <path d="M20.6 18.91H17.84C17.8055 18.91 17.7724 18.8963 17.7481 18.8719C17.7237 18.8476 17.71 18.8145 17.71 18.78C17.7086 18.7621 17.7109 18.7441 17.7169 18.7272C17.7228 18.7102 17.7321 18.6947 17.7443 18.6816C17.7565 18.6684 17.7713 18.6579 17.7878 18.6508C17.8043 18.6436 17.822 18.64 17.84 18.64H20.6C20.6371 18.64 20.6727 18.6548 20.699 18.681C20.7252 18.7073 20.74 18.7429 20.74 18.78C20.74 18.798 20.7364 18.8157 20.7292 18.8322C20.7221 18.8486 20.7116 18.8635 20.6984 18.8757C20.6853 18.8879 20.6698 18.8972 20.6528 18.9031C20.6359 18.9091 20.6179 18.9114 20.6 18.91Z" fill="#7F5769"/>
  <path d="M4.99997 15.67H3.65997V16.86H4.99997V15.67Z" fill="#2C303B"/>
  <mask id="mask2_1215_7159" style="mask-type:luminance" maskUnits="userSpaceOnUse" x="3" y="9" width="14" height="11">
    <path d="M14.38 19.73H5.24C5.01412 19.7287 4.79072 19.6829 4.58254 19.5953C4.37436 19.5076 4.18548 19.3798 4.02669 19.2192C3.86791 19.0585 3.74231 18.8682 3.65709 18.659C3.57187 18.4498 3.52868 18.2259 3.53 18V10.71C3.53262 10.2573 3.71362 9.82387 4.03374 9.50375C4.35386 9.18363 4.78729 9.00262 5.24 9H14.38C14.8362 9 15.2737 9.18121 15.5962 9.50378C15.9188 9.82634 16.1 10.2638 16.1 10.72V18C16.1013 18.2267 16.0578 18.4515 15.972 18.6613C15.8861 18.8711 15.7596 19.0619 15.5998 19.2227C15.4399 19.3835 15.2499 19.5111 15.0405 19.5981C14.8312 19.6852 14.6067 19.73 14.38 19.73Z" fill="white"/>
  </mask>
  <g mask="url(#mask2_1215_7159)">
    <path d="M13.28 15.67H9.95001V16.86H13.28V15.67Z" fill="#353030"/>
    <path d="M15.97 15.67H12.64V16.86H15.97V15.67Z" fill="#2C303B"/>
    <path d="M14.38 19.73H5.24C5.01412 19.7287 4.79072 19.6829 4.58254 19.5953C4.37436 19.5076 4.18548 19.3798 4.02669 19.2192C3.86791 19.0585 3.74231 18.8682 3.65709 18.659C3.57187 18.4498 3.52868 18.2259 3.53 18V10.71C3.53262 10.2573 3.71362 9.82387 4.03374 9.50375C4.35386 9.18363 4.78729 9.00262 5.24 9H14.38C14.8362 9 15.2737 9.18121 15.5962 9.50378C15.9188 9.82634 16.1 10.2638 16.1 10.72V18C16.1013 18.2267 16.0578 18.4515 15.972 18.6613C15.8861 18.8711 15.7596 19.0619 15.5998 19.2227C15.4399 19.3835 15.2499 19.5111 15.0405 19.5981C14.8312 19.6852 14.6067 19.73 14.38 19.73ZM5.24 9.26C4.85717 9.26264 4.49092 9.41657 4.22115 9.68821C3.95138 9.95986 3.79999 10.3272 3.8 10.71V18C3.80262 18.3811 3.95517 18.7459 4.22466 19.0153C4.49415 19.2848 4.85889 19.4374 5.24 19.44H14.38C14.7628 19.44 15.1301 19.2886 15.4018 19.0188C15.6734 18.7491 15.8274 18.3828 15.83 18V10.71C15.83 10.3254 15.6772 9.95662 15.4053 9.6847C15.1334 9.41277 14.7646 9.26 14.38 9.26H5.24Z" fill="#1B0C0B"/>
    <path d="M9.80997 9.13H3.65997V15.67H9.80997V9.13Z" fill="#2C303B"/>
    <path d="M6.72997 9.13H3.65997V15.67H6.72997V9.13Z" fill="#555E74"/>
    <path d="M15.96 9.13H9.81V15.67H15.96V9.13Z" fill="#2C303B"/>
    <path d="M12.88 9.13H9.81V15.67H12.88V9.13Z" fill="#555E74"/>
    <path d="M9.80997 16.85H3.65997V19.58H9.80997V16.85Z" fill="#2C303B"/>
    <path d="M15.96 16.85H9.81V19.58H15.96V16.85Z" fill="#555E74"/>
    <path d="M8.33 15.67H5V16.86H8.33V15.67Z" fill="#2C303B"/>
    <path d="M14.83 15.67H11.5V16.86H14.83V15.67Z" fill="#2C303B"/>
    <path d="M11.48 15.67H8.15002V16.86H11.48V15.67Z" fill="#555E74"/>
  </g>
  <path d="M14.38 19.73H5.24C5.01412 19.7287 4.79072 19.6829 4.58254 19.5953C4.37436 19.5076 4.18548 19.3798 4.02669 19.2192C3.86791 19.0585 3.74231 18.8682 3.65709 18.659C3.57187 18.4498 3.52868 18.2259 3.53 18V10.71C3.53262 10.2573 3.71362 9.82387 4.03374 9.50375C4.35386 9.18363 4.78729 9.00262 5.24 9H14.38C14.8362 9 15.2737 9.18121 15.5962 9.50378C15.9188 9.82634 16.1 10.2638 16.1 10.72V18C16.1013 18.2267 16.0578 18.4515 15.972 18.6613C15.8861 18.8711 15.7596 19.0619 15.5998 19.2227C15.4399 19.3835 15.2499 19.5111 15.0405 19.5981C14.8312 19.6852 14.6067 19.73 14.38 19.73ZM5.24 9.26C4.85717 9.26264 4.49092 9.41657 4.22115 9.68821C3.95138 9.95986 3.79999 10.3272 3.8 10.71V18C3.80262 18.3811 3.95517 18.7459 4.22466 19.0153C4.49415 19.2848 4.85889 19.4374 5.24 19.44H14.38C14.7628 19.44 15.1301 19.2886 15.4018 19.0188C15.6734 18.7491 15.8274 18.3828 15.83 18V10.71C15.83 10.3254 15.6772 9.95662 15.4053 9.6847C15.1334 9.41277 14.7646 9.26 14.38 9.26H5.24Z" fill="#4D3540"/>
</svg>