<svg xmlns="http://www.w3.org/2000/svg" viewBox="0 0 262 100">
  <g id="wrapper-layer" data-name="Layer 6">
    <path style="fill: var(--primary-0, #50599c)" transform="rotate(180 131 50)" d="M0 0h262v100H0z"/>
    <path style="fill: var(--primary-1, #c9f)" d="M0 57.6h262.05v23.21H0zM.05 55.85h262.01v1.11H.05zM.05 54.49h262.01v.84H.05zM.05 53.51h262.01v.57H.05zM.05 52.9h262.01v.28H.05zM.05 52.53h262.01v.14H.05zM.05 52.32h262.01v.07H.05z"/>
    <path style="fill: #120c0e; fill-rule: evenodd;" d="M109 60 76 82h108l-31-22"/>
    <path style="fill: #120c0e; fill-rule: evenodd;" d="M62.79 50.68a5.71 5.71 0 0 0 1.82.8c.65.11 1.29 0 1.94 0a4.49 4.49 0 0 1 3.06 2.35l5.64 2.51a49.67 49.67 0 0 1 7.41.11 8.27 8.27 0 0 1 2.8.62c1 .46 1.64 1.25 2.63 1.69a12.37 12.37 0 0 0 3.67.59c3.7.39 7.26 2.51 8.62 5.13a7.33 7.33 0 0 0 1.47 2.52c.61.53 1.47.89 2.1 1.42a4.06 4.06 0 0 1 1.31 3.31 15.38 15.38 0 0 1-.49 4 6.81 6.81 0 0 0-.32 1.54 13.3 13.3 0 0 0 .27 2.23c.48 4-2.75 7.27-6.27 9.91a65.13 65.13 0 0 1-12.78 7.43 12 12 0 0 1-4.3 1.16 22.62 22.62 0 0 1-5.41-.8 34.28 34.28 0 0 0-7.96-.65 17.05 17.05 0 0 1-5.52-.25c-4.78-1.41-5.33-6.69-9.79-8.69-1.3-.59-2.8-.82-4.09-1.42-2.48-1.19-3.6-3.43-4.25-5.48a5.72 5.72 0 0 0-1-2c-.53-.63-1.32-1.14-1.92-1.73-2-2-1.47-4.45-.87-6.61.47-1.67 1-3.44 2.69-4.53a1.92 1.92 0 0 1-1-.78c.86-1.31-.64-3-.37-4.53.3-1.66 2.67-2.53 3.51-4 1.52-2.74 1.76-5.09 5.69-6.63a14.56 14.56 0 0 1 11.71.78Z"/>
    <path style="fill: var(--secondary-0, #39306f); fill-rule: evenodd;" d="M61.28 52.42a2.19 2.19 0 0 0-2.23.5 1.26 1.26 0 0 0 .45 1.78c-.84.1-1.28.87-.83 1.47.19-.19.65-.08.92.1a4.34 4.34 0 0 0 .77.56 1.43 1.43 0 0 0 1.64-.48c.3-.41.44-.91.92-1.21a2.41 2.41 0 0 1 2.29.15 1.49 1.49 0 0 1 .72 1.71 3 3 0 0 1 2 .66 3.68 3.68 0 0 0-1.9 1.15 1.16 1.16 0 0 0 .97 1.62 3.39 3.39 0 0 0 1.52-.12 8.82 8.82 0 0 1 4.8.47c1.25.5 2.31 1.26 3.56 1.75s2.91.63 3.71-.07a1.56 1.56 0 0 0-.22-2.28 7.32 7.32 0 0 0-2.77-1.6c.31-.69 1.79-.4 2.77 0l5.38 2.17a4.48 4.48 0 0 1 1.72 1A.74.74 0 0 1 87.1 63a3.8 3.8 0 0 1-1.1 0c-1.47-.1-2.58 1.05-2 2.08a1.86 1.86 0 0 1-1.71.17 13 13 0 0 0-1.82-.53 5.28 5.28 0 0 0-1.83.16c-1.09.24-2.4.86-1.83 1.66a2.36 2.36 0 0 0 1.84.67 8.42 8.42 0 0 1 2.07.12 4.92 4.92 0 0 1 1.18.56q2 1.17 3.94 2.33c1.39.83 3.12 1.72 4.68 1.4.59-.12 1.1-.46 1.08-.93 0-.31-.27-.65-.14-.94s.88-.42 1.42-.26 1 .48 1.52.68c2 .74 4.25-.28 6.2.48.73.28 1.84.71 2 .19a.57.57 0 0 0-.08-.45 9 9 0 0 0-1.7-2.47c.49-.42 1.53-.2 2.25.16.39.2.77.44 1.17.63a3.68 3.68 0 0 0-.35-.33c-.63-.53-1.49-.89-2.1-1.42a7.33 7.33 0 0 1-1.47-2.43A9.16 9.16 0 0 0 96.77 61a8.86 8.86 0 0 1-1.55-.17 8.54 8.54 0 0 1-2.58-1.33c-.29-.05-.58-.1-.88-.13a12.37 12.37 0 0 1-3.67-.59c-1-.44-1.66-1.23-2.63-1.69a8.27 8.27 0 0 0-2.8-.62 49.67 49.67 0 0 0-7.41-.11l-5.64-2.51a4.49 4.49 0 0 0-3.06-2.35c-.65-.08-1.29.07-1.94 0a5.71 5.71 0 0 1-1.82-.8 14.59 14.59 0 0 0-11.46-.91 12.14 12.14 0 0 0 2.07.37c1.56.13 3.51.12 4.31 1.17a4.64 4.64 0 0 1 3.57 1.09Zm30.2 11.71c0-1.09 1.62-.35 2 .35a2.45 2.45 0 0 0 .87 1 10.51 10.51 0 0 0 1.08.37c.35.13.7.4.63.66s-.61.35-1 .25-.79-.3-1.21-.37c-.21 0-.41 0-.61-.09a3.51 3.51 0 0 1-1.76-2.17Z"/>
    <path style="fill: black; fill-rule: evenodd;" d="M151.86 58a1.88 1.88 0 0 0-1 0c-.08-.17-.18-.33-.25-.51-.28-.13-.5-.3-.78-.42 0 0-.06 0-.1-.06s-.24 0-.36-.08a1.68 1.68 0 0 1-.42-.17 1.92 1.92 0 0 1-.17-.13h-.05c-.35-.24-.67-.63-1.05-.87-.15-1.08-.31-2.23-.47-3.36 0-.2-.06-.38-.08-.57s0-.4 0-.61c0-1.22-.07-2.48-.07-3.75v-1.29c-.06-.09-.18-.12-.27-.17l-.26-.17-.29-.15a2.4 2.4 0 0 1-.26-.18v-5c0-.08.15-.09.17-.19l.45-.79v-1.31H141c-.05-.7-.17-1.71-.21-2.34 0 0 0-.05 0 0s.11-.16.19-.21c.18-.2.4-.36.59-.55h.29a.39.39 0 0 0 .11-.17c.09 0 .14 0 .21-.06s0-.07.08-.06c.14-.28.31-.55.45-.83-.06-.75 0-1.59 0-2.38a1.56 1.56 0 0 0 .38 0c-.12-1.23-.24-2.46-.35-3.7h-1.82a2.54 2.54 0 0 1 0-.63v-.06a.26.26 0 0 1 .11-.07c0-.06.09-.08.08-.17s0-.18 0-.21l-.08-.06v-.36c0-.13.09-.33 0-.38v-1.73c0-.09.17-.08.21-.17a.31.31 0 0 0 .15-.21c0-.13-.1-.2-.21-.31a2 2 0 0 1-.25-.24c-.14-.36-.31-.76-.46-1.14s-.24-.73-.41-1.07a1.31 1.31 0 0 0-.12.27c-.09.27-.18.57-.28.85s-.28.79-.42 1.16a.45.45 0 0 1-.12.16c-.08.09-.32.26-.32.43s.08.17.15.23.19.05.21.15v.61h-1l-.65-8.1h.86v-2.51a1 1 0 0 0-.23-.13l-.7-.38c-.62-1.29-1.21-2.6-1.81-3.9-.08.06-.08.17-.11.25a1.67 1.67 0 0 0-.12.23.93.93 0 0 1 0 .13c-.16.42-.37.9-.55 1.35s-.26.66-.4 1-.29.64-.4 1c-.27.19-.58.36-.87.55v2.41c.22.06.56 0 .78 0v2.3l-7.34.11v2l.55.5V25c-.92.06-1.91 0-2.87.06v-.63s0-.08.08-.09.08 0 .11-.06.14-.09.15-.19-.35-.42-.43-.59c-.27-.75-.54-1.5-.8-2.26-.06 0-.06.08-.08.11s-.1.26-.15.4c-.19.51-.41 1.09-.61 1.6a.35.35 0 0 1 0 .13c-.13.14-.36.28-.44.5s.24.26.38.38v1.69a.4.4 0 0 0-.07.21.3.3 0 0 0 0 .19v.21c0 .07-.17.18-.15.38s0 .16.09.19.13 0 .14.13a1 1 0 0 0 .95 1 16.07 16.07 0 0 1-.12 2c-.16 1.9-2.42 21.83-2.6 23.76l-4 .18a3.47 3.47 0 0 0-1.2 0h-.1c-.29.08-.6.2-.91.29l-.3.09h-.12l-.19.08h-.22a2.54 2.54 0 0 0-.38.16 2.74 2.74 0 0 0-1 .62.58.58 0 0 0-.1.12l-.06.07v.08c-.07.1-.18.22-.25.34a5.24 5.24 0 0 0-.27.53c0 .07-.05.13-.07.19s0 0 0 .06 0 .16-.09.21v3h41.41Z"/>
    <path style="fill: #50594c; fill-rule: evenodd;" d="M133.42 49.81a1.94 1.94 0 0 0-3.84 0v5.28h3.87v-5.28Z"/>
    <path style="fill: #f7f486; fill-rule: evenodd;" d="M123.6 24.71a.34.34 0 0 0-.67 0v.88h.67v-.92Z"/>
    <path style="fill: black; fill-rule: evenodd;" d="M117.28 32.43a1.92 1.92 0 0 0 .47 1.13h5.74a1.09 1.09 0 0 1 .53.13c.37-6.52.64-12 .39-12s-.2-.35-.26-.54c-.13-.38-.27-.76-.41-1.18 0-.11-.06-.22-.1-.32s-.1-.17-.13-.26c-.14-.39-.24-.81-.38-1.21s-.3-.79-.42-1.18c-.13 0-.07.2-.16.25-.51 1.44-1.07 2.85-1.59 4.28a3.41 3.41 0 0 0-.45.48c-.14.15-.35.26-.42.48s.12.17.23.22l.29.13s.17 0 .16.1c0 1.26 0 2.62-.07 3.86-.12.16-.19-.06-.29-.13a1.67 1.67 0 0 0-.25-.28l-1.31-3.84c-.08 0-.1.13-.13.2s0 .07 0 .12c-.14.36-.33.84-.48 1.25s-.27.73-.41 1.12-.23.61-.36.89a1 1 0 0 1-.22.35 2.46 2.46 0 0 0-.54.61c0 .1.18.13.29.19s.28 0 .28.16v3Zm3-5a1.29 1.29 0 0 0 .42-.13s.06 0 .06.07v.86c0 .09-.08.09-.16.09s-.08.07-.09.13v.23c0 .14.17.08.19.19v.45c-.08.06-.26 0-.39 0Z"/>
    <path style="fill: black; fill-rule: evenodd;" d="m121 21.54-1.18 1s.06.55 2.82.55v-6.76Z"/>
    <path style="fill: black; fill-rule: evenodd;" d="m124.25 21.54 1.18 1s-.07.55-2.83.55v-6.76ZM142.61 31.56l.05 2.38-1.76 3.48-1.24-2.93M117.25 27.45V36s-.24 2.59 2 2.59h4V33l-5.16-1.08"/>
    <path style="fill: black; fill-rule: evenodd;" d="m120.59 38.56-.07 15.53 4.36-17.37"/>
    <path style="fill: black; fill-rule: evenodd;" d="M115.26 59c.16-1.07.31-2.23.48-3.36 0-.19.05-.38.07-.57s0-.4 0-.61c0-1.22.08-2.48.08-3.74v-1.3c.06-.09.17-.11.26-.17s.18-.12.27-.17l.28-.15a1.53 1.53 0 0 0 .27-.17v-5c0-.09-.15-.1-.17-.19l-.45-.79v-1.26H121v15.25"/>
    <path style="fill: black; fill-rule: evenodd;" d="m115.83 53.9-4.34 1.6-1.74 2.73v2.07h43.16l-1.05-2.3-4.22-2.3h-23.02l-8.79-1.8z"/>
    <path style="fill: var(--secondary-0, #39306f); fill-rule: evenodd;" d="M138.76 59.61v8.24l-15.07-3.75 1.19-1.62 10.81-1.31 3.07-1.56z"/>
    <path style="fill: var(--secondary-0, #39306f); fill-rule: evenodd;" d="M129.59 55.12v6.25l.58.58v-6.42M140.24 70.41v10.26h-19.28M118.68 63.73h.77v10.54h-.77z"/>
    <path style="fill: var(--secondary-1, #aeaad2)" d="M125.82 80.67a1.54 1.54 0 0 1 .83-1.81c1.35-.9 4.16-1.39 5.75-2.15 4.89-1.94 8.93-4.5 7.58-8.17-.73-1.73-5.13-3-7.95-3.6-1.59-.27-8.56-.55-5.13-1.8 1.47-.48 3.67-.27 5.38-.41 3.18-.21 6.36-1 6.48-3.12s-3.18-3.11-5.38-4.5h-3.79c1.34 1.18 7 3.11 6 4.77-1.71 3-13.57-.07-16.39 2.91-2.56 2.83 5 3.32 8.08 3.73 2 .35 5 .56 6.23 1.67 1.47 1.31.37 3.11-1.95 3.73-5.75 1.46-12.36.28-17.37 3a22.44 22.44 0 0 0-5.19 3.31 9.21 9.21 0 0 1-6.21 2.41H44.63V100H214V80.67Z"/>
    <path style="fill: #f7f486; fill-rule: evenodd;" d="M140.32 24.11a.33.33 0 0 0-.66 0V25h.67v-.92ZM135.9 16.22a.57.57 0 0 0-1.12 0v1.55h1.13v-1.55ZM128.73 30.88a.87.87 0 0 0-1.73 0v2.41h1.75v-2.41ZM131.8 30.88a.87.87 0 0 0-1.73 0v2.41h1.75v-2.41ZM134.7 30.88a.87.87 0 0 0-1.73 0v2.41h1.75v-2.41ZM137.56 30.88a.88.88 0 0 0-1.74 0v2.41h1.74v-2.41ZM123.16 24.24a.56.56 0 0 0-1.12 0v1.55h1.12v-1.55ZM119.24 28a.57.57 0 0 0-.56-.49.55.55 0 0 0-.56.49v1.54h1.13V28ZM125.66 30.88a.87.87 0 0 0-1.73 0v2.41h1.74v-2.41Z"/>
    <path style="fill: #f7f486; fill-rule: evenodd;" d="M128.73 30.88a.87.87 0 0 0-1.73 0v2.41h1.75v-2.41Z"/>
    <path style="fill: var(--primary-2, #fefefe)" d="M150.76 33.1a3.11 3.11 0 0 1 2.14-.46 3.11 3.11 0 0 1-2.14-.46 3.18 3.18 0 0 1-.43-2.1c0 1-.06 1.72-.47 2.13a3.17 3.17 0 0 1-2.09.43 3.12 3.12 0 0 1 2.1.44 3.08 3.08 0 0 1 .46 2.14 3.26 3.26 0 0 1 .43-2.12ZM107 26.34a1.84 1.84 0 0 1 1.27-.27 1.82 1.82 0 0 1-1.27-.28 1.81 1.81 0 0 1-.26-1.24 1.79 1.79 0 0 1-.28 1.26 1.86 1.86 0 0 1-1.24.26 1.85 1.85 0 0 1 1.25.26 1.86 1.86 0 0 1 .27 1.27 1.87 1.87 0 0 1 .26-1.26ZM109.17 23.19c.12-.11.31-.12.6-.12-.29 0-.49 0-.6-.13a.87.87 0 0 1-.12-.59.85.85 0 0 1-.13.59.86.86 0 0 1-.59.13.87.87 0 0 1 .59.12c.11.11.13.31.13.6a.9.9 0 0 1 .12-.6ZM94.44 34.28a3.65 3.65 0 0 1 2.49-.53 3.64 3.64 0 0 1-2.49-.53 3.65 3.65 0 0 1-.5-2.44 3.54 3.54 0 0 1-.54 2.47 3.69 3.69 0 0 1-2.43.5 3.59 3.59 0 0 1 2.43.51 3.6 3.6 0 0 1 .54 2.48 3.72 3.72 0 0 1 .5-2.46ZM161.66 20.08a2.67 2.67 0 0 1 1.84-.39 2.65 2.65 0 0 1-1.85-.4 2.73 2.73 0 0 1-.37-1.81c0 .88-.05 1.49-.4 1.84a2.72 2.72 0 0 1-1.8.37 2.72 2.72 0 0 1 1.8.37 2.65 2.65 0 0 1 .4 1.85 2.75 2.75 0 0 1 .38-1.83Z"/>
    <path style="fill: #120c0e; fill-rule: evenodd;" d="M214.57 74.27h47.76V100h-47.76z"/>
    <path style="fill: #120c0e; fill-rule: evenodd;" d="m217.25 58.93-26-8a8.51 8.51 0 0 0-5.14-1.2 17 17 0 0 0-6 2.14 2.16 2.16 0 0 0-.95.76c-.46.85.4 1.93.09 2.85-.94 0-1.65-.93-2.59-1-1.49-.21-2.34 1.63-2.67 3.11s-1.09 3.33-2.59 3.22c-1.05-.68-1.28-2.08-1.86-3.18s-2.22-2-3-1a2.9 2.9 0 0 0-.42 1.34 5.94 5.94 0 0 1-3 4.13 8.48 8.48 0 0 0-1.64.93 5.23 5.23 0 0 0-1.25 2.33 40.92 40.92 0 0 1-3 6.66c-2.12-.59-3.88 1.6-5.88 2.5-1.64.74-3.56.61-5.21 1.31a10.34 10.34 0 0 0-2.22 1.42 40.3 40.3 0 0 0-3.81 3.46H214V84l3.1.08a6.33 6.33 0 0 0 2.71-.32c1.92-.83 2.53-3.23 2.69-5.32a30.76 30.76 0 0 0-5.25-19.51Z"/>
    <path style="fill: var(--secondary-0, #39306f); fill-rule: evenodd;" d="M185.92 57c.37.28.49.78.76 1.15s.9.59 1.15.2a2.24 2.24 0 0 1 2.17-1.62l-.34-3.73a3.28 3.28 0 0 1 .16-2.77 8.5 8.5 0 0 0-3.67-.5 17 17 0 0 0-6 2.14 2.16 2.16 0 0 0-.95.76c-.46.85.4 1.93.09 2.85-.94 0-1.65-.93-2.59-1-1.49-.21-2.34 1.63-2.67 3.11s-1.09 3.33-2.59 3.22c-1.05-.68-1.28-2.08-1.86-3.18s-2.22-2-3-1a2.9 2.9 0 0 0-.42 1.34 5.94 5.94 0 0 1-3 4.13 8.48 8.48 0 0 0-1.64.93 5.23 5.23 0 0 0-1.25 2.33 40.92 40.92 0 0 1-3 6.66c-2.12-.59-3.88 1.6-5.88 2.5-1.64.74-3.56.61-5.21 1.31a10.34 10.34 0 0 0-2.22 1.42l-.3.25a2.86 2.86 0 0 0 1.57.75c1.94.27 3.88-1.51 5.73-.83.63.23 1.13.73 1.74 1a3.94 3.94 0 0 0 3.61-.61c1.06-.7 1.91-1.66 2.92-2.44a1.87 1.87 0 0 1 1.58-.51 3.6 3.6 0 0 1 .94.63 2.44 2.44 0 0 0 3.42-.85c.53-1 .3-2.41 1.13-3.21.38-.36.94-.54 1.23-1 .45-.69.07-1.75.65-2.32.31-.3.77-.35 1.13-.58a4 4 0 0 0 1.06-1.57c1.16-2 3.78-2.51 6-3a1.48 1.48 0 0 0 .88-.44 1.85 1.85 0 0 0 .24-1 4.68 4.68 0 0 1 2.5-3.4 14.06 14.06 0 0 1 4.17-1.3 2 2 0 0 1 1.76.18Z"/>
    <path style="fill: #120c0e; fill-rule: evenodd;" d="M258.58 42.72a1.92 1.92 0 0 0 .63-1.37c-1.69-1.55-1.16-4.4-2.34-6.36-1.32-2.2-4.33-2.68-6.12-4.51-3.26-3.32-4.92-6.48-10-7.44-4.36-.83-9.33.84-11.84 4.6a4.7 4.7 0 0 1-1.44 1.65c-.61.34-1.38.33-2 .63-1.43.67-1.71 2.56-1.79 4.14l-4.44 5.12a39.43 39.43 0 0 0-7.73 2.36 6.37 6.37 0 0 0-2.57 1.67c-.75.94-1 2.21-1.76 3.11s-2.27 1.36-3.5 1.91a10.35 10.35 0 0 0-6 9.6 10.25 10.25 0 0 1-.09 3.79c-.31.91-1 1.66-1.35 2.57-.6 1.6-.06 3.38.62 5a32.36 32.36 0 0 0 2.92 5.36 15.3 15.3 0 0 1 1.27 2 26.29 26.29 0 0 1 1.05 3.14c1.88 5.6 7.28 9.19 12.58 11.79a85.35 85.35 0 0 0 17.94 6.44 12 12 0 0 0 5.25.4c1.93-.41 3.54-1.66 5.22-2.7a26.52 26.52 0 0 1 7.91-3.28c2-.45 4.08-.71 5.65-2 4.19-3.35 1.59-10.79 5.08-14.87.07-.08.15-.15.23-.23V45.33a9.47 9.47 0 0 0-3.38-2.61Z"/>
    <path style="fill: var(--secondary-0, #39306f); fill-rule: evenodd;" d="M234.65 27c.22-1.67 2.28-2.23 3.84-2.88a8.91 8.91 0 0 0 2-1.13 11.78 11.78 0 0 0-11.52 4.65 4.7 4.7 0 0 1-1.44 1.65c-.61.34-1.38.33-2 .63-1.43.67-1.71 2.56-1.79 4.14l-4.44 5.12a39.43 39.43 0 0 0-7.73 2.36 6.3 6.3 0 0 0-2.57 1.67c-.75.94-1 2.21-1.76 3.11s-2.27 1.36-3.5 1.91a8.53 8.53 0 0 0-.85.44 7.35 7.35 0 0 1-1.91 2.59 7 7 0 0 1-1.53.69 10.12 10.12 0 0 0-1.7 5.88 10.25 10.25 0 0 1-.09 3.79c-.31.92-1 1.66-1.35 2.57a4 4 0 0 0-.16.57c.3-.38.56-.82.85-1.21.53-.72 1.5-1.33 2.28-.89a11.9 11.9 0 0 0-.32 3.9 1.2 1.2 0 0 0 .19.64c.54.66 1.45-.27 2-.87 1.61-1.62 4.62-.9 6.24-2.5.44-.43.73-1 1.2-1.38a1.23 1.23 0 0 1 1.65-.07c.3.36.24.91.42 1.34a1.74 1.74 0 0 0 1.7 1c1.83 0 3.11-1.76 4.08-3.31s1.83-2.92 2.74-4.38a4 4 0 0 1 .91-1.12 6.22 6.22 0 0 1 2.1-.77c.72-.23 1.47-.72 1.54-1.47.11-1.28-1.64-1.75-2.92-1.75a4.5 4.5 0 0 0-2 .32 10.26 10.26 0 0 0-1.6 1.27 1.71 1.71 0 0 1-1.9.28 2.62 2.62 0 0 0-3.39-2.27 3.13 3.13 0 0 1-1.09.37c-.76 0-1.26-.9-1.12-1.65a3.84 3.84 0 0 1 1.2-1.89l4.35-4.59c.79-.84 2.17-1.68 2.92-.82a6.61 6.61 0 0 0-2 3 2.94 2.94 0 0 0 1.15 3.2c1.27.73 2.92.05 4-1s1.68-2.4 2.69-3.45a6.88 6.88 0 0 1 4.77-2.08 3.08 3.08 0 0 0 1.68-.28 1.71 1.71 0 0 0-.07-2.54 4.9 4.9 0 0 0-2.69-1 2.38 2.38 0 0 1 1.77-1.52 2.35 2.35 0 0 1-.22-2.54 2 2 0 0 1 2.31-.88 6.74 6.74 0 0 1 1.7 1.38c.56.47 1.48.73 2 .19a4.2 4.2 0 0 0 .48-1c.17-.33.59-.61.9-.41a1.67 1.67 0 0 0-1.76-1.78 2.14 2.14 0 0 0-3.24-2.61 3.74 3.74 0 0 1 3-2.62Zm-28.38 31.2a4.6 4.6 0 0 1-.59.29c-.4.22-.67.62-1.05.88s-1 .34-1.23 0a.92.92 0 0 1 .27-1.11 6.06 6.06 0 0 0 .92-.83 2.93 2.93 0 0 0 .3-1.64c0-1.09 1.24-2.57 1.94-1.08.32.65.09 3.02-.56 3.49Z"/>
    <path style="fill: #120c0e; fill-rule: evenodd;" d="M80.46 96.14a7.68 7.68 0 0 0-3.75-3.75 39.34 39.34 0 0 0-4-1.24c-3.71-1.15-6.6-3.86-9.23-6.64A13.17 13.17 0 0 0 60.56 82c-.81-.46-1.72-.73-2.54-1.18-3.28-1.78-5-6.18-8.57-7a31.46 31.46 0 0 1-2.16-2.89c-2.77-4.57-1.79-10.91-5.23-15-.62-.74-1.37-1.38-1.93-2.17a12.14 12.14 0 0 1-1.21-2.35c-.94-2.19-2-4.34-3-6.49q-5.61-11.78-11.24-23.54c-.38-.81-1-1.75-1.87-1.68-2.62.19-3.52 8.2-4.17 10.35A52 52 0 0 1 13 41.8a8.64 8.64 0 0 0-4.29 5.05 6.84 6.84 0 0 1-.42 1.4A5.55 5.55 0 0 1 6.2 50.1 16.78 16.78 0 0 0 0 58.47V95a12.4 12.4 0 0 0 1.67 1.73 16.27 16.27 0 0 0 9 3.31h9.54a131.7 131.7 0 0 0 28.27-4q15.99.34 31.98.1Z"/>
    <path style="fill: var(--secondary-0, #39306f); fill-rule: evenodd;" d="M22.27 19.87a1.81 1.81 0 0 0-.29.19l-.11.09a2.59 2.59 0 0 0-.35.38l-.07.09-.26.4-.1.2c-.07.12-.14.26-.21.4l-.09.2a5.19 5.19 0 0 0-.24.59 9.28 9.28 0 0 1 5.37 8.32h-3.65c3 1.82 6.44 4.29 6.36 7.82l-1.51-.14 1.93 3.37a7.65 7.65 0 0 0-2.7-1.66 2.62 2.62 0 0 0-2.87.8 4.48 4.48 0 0 1 4 4.28c1-.66 2.29.26 2.69 1.35s.26 2.31.61 3.41 1.58 2.13 2.6 1.59a3.15 3.15 0 0 0 4.36 4.08c0 3.43 4.61 6.13 3.44 9.36-.49 1.37-2 2.63-1.4 4a5.86 5.86 0 0 0 1 1.24c1 1.25.87 3.14 1.64 4.58 1.09 2 3.81 2.74 4.9 4.76.56 1 .62 2.32 1.29 3.3a6.14 6.14 0 0 0 1.76 1.52l1.71 1.14v-.08a2.05 2.05 0 0 0 .78.16c.61 0 1.22-.18 1.83-.18 2.19 0 3.79 2.32 6 2.53 1.2.11 2.52-.43 3.56.18s1.21 2.38 1.08 3.76c1.35-.3 3-.54 3.94.42a3.31 3.31 0 0 0 .73.67 2.31 2.31 0 0 0 1.51 0c2.45-.48 4.92 1 7.37 1.07a7.65 7.65 0 0 0-2.22-1.55 37 37 0 0 0-4-1.23C69 90 66.11 87.29 63.48 84.51A13.17 13.17 0 0 0 60.56 82c-.81-.46-1.72-.73-2.54-1.18-3.28-1.78-5-6.18-8.57-7a31.46 31.46 0 0 1-2.16-2.89c-1.89-3.12-2-7.07-3-10.56a.56.56 0 0 0 0-.12c-.08-.28-.16-.55-.26-.82v-.09a8.26 8.26 0 0 0-.34-.87.37.37 0 0 0-.05-.11c-.1-.24-.21-.46-.33-.69l-.13-.23a6.32 6.32 0 0 0-.33-.56l-.14-.23c-.17-.24-.35-.48-.55-.72-.46-.55-1-1-1.48-1.6a6.26 6.26 0 0 1-.45-.57 6.49 6.49 0 0 1-.36-.55 19.71 19.71 0 0 1-.85-1.8c-.94-2.19-2-4.34-3-6.49q-5.71-11.78-11.34-23.54c-.38-.81-1-1.75-1.87-1.68a1.3 1.3 0 0 0-.43.11Z"/>
    <path style="fill: #120c0e; fill-rule: evenodd;" d="M210.93 74.27 192.42 71c-3.86 0-5.55 5.26-9.16 6.62-1.15.44-2.49.47-3.44 1.25s-1.24 2.11-2 3.1c-1.67 2.22-5 2.12-7.41 3.55-1.66 1-2.76 2.7-4.19 4-2.59 2.35-6.51 3.74-7.44 7.12 16.27.58 32.59 1.17 48.82-.16h17.87Z"/>
    <path style="fill: var(--secondary-0, #39306f); fill-rule: evenodd;" d="M181.41 83.85c-.82-.31-1.6-1.4-.93-2 .65.9 2.17.34 2.78-.59s.79-2.12 1.53-3c1.05-1.16 2.88-1.28 4-2.35s1.32-2.66 1.83-4.08c.08-.21.18-.42.29-.64-2.87 1.12-4.56 5.16-7.67 6.33-1.15.44-2.49.47-3.44 1.25s-1.24 2.11-2 3.1c-1.67 2.22-5 2.12-7.41 3.55-1.66 1-2.76 2.7-4.19 4-2.24 2-5.46 3.34-6.9 5.83 1.83-.25 3.7-.25 5.19-1.25a8.81 8.81 0 0 0 1.72-1.73l5.32-6.45c.67-.82 2.05-1.6 2.58-.69-.05 1.16-.09 2.31-.13 3.46.79.31 1.49-.61 1.81-1.39s.87-1.75 1.71-1.63a7.4 7.4 0 0 1 .89.34c.7.2 1.42-.22 2.13-.39s1.71.19 1.62.91a11.56 11.56 0 0 1 1.39-1.22c-.23-.82-1.3-1.04-2.12-1.36Z"/>
    <path style="fill: #120c0e; fill-rule: evenodd;" d="M0 94.51h262.33V100H0zM17.3 100.13l2.92-.13h-9.54a50.52 50.52 0 0 0 6.62.13Z"/>
    <path style="fill: #120c0e; fill-rule: evenodd;" d="M0 95v5h10.68a16.27 16.27 0 0 1-9-3.31A12.4 12.4 0 0 1 0 95Z"/>
  </g>
</svg>
