<svg fill="none" height="19" viewBox="0 0 156 19" width="156" xmlns="http://www.w3.org/2000/svg"><g clip-rule="evenodd" fill="#fff" fill-rule="evenodd"><path d="m70.5314.236638h-9.7078c-.1202-.000353-.2365.042652-.3276.121123s-.1508.187144-.1683.306096l-.473 3.227043c-.0097.07101-.0042.14328.0162.212.0204.06871.0552.13227.1022.18643.0469.05417.1049.09768.17.12765.0651.02996.1359.04568.2075.04609h1.7738c.0409.00067.0811.01132.117.03104.0359.01971.0665.0479.089.0821.0226.0342.0364.07339.0404.11416.004.04078-.0021.08191-.0176.11982-.2291.54079-.388 1.10867-.473 1.68981l-.9002 6.2367c-.595 4.173 2.8876 6.2633 6.6753 6.2633 3.9671 0 7.8578-2.0903 8.4529-6.2633l.9002-6.2367c.5836-4.09674-2.7731-6.183258-6.477-6.263362zm1.8653 6.259542-.904 6.10312c-.206 1.4419-1.8271 2.1132-3.3224 2.1132-1.3923 0-2.7579-.6713-2.5786-1.9835l.904-6.23663c.206-1.36558 1.8272-2.06362 3.3224-2.06362 1.4953 0 2.7846.70185 2.5786 2.06743z"/><path d="m16.6674.236637h-3.6276c-.1224-.000092-.2406.044383-.3325.125115-.092.080733-.1514.192204-.1672.313558l-1.1138 7.9379v.01907l.0496 3.07062c.0001.0306-.01.0603-.0286.0845-.0187.0241-.0448.0414-.0744.049l-1.0414-3.69999v-.01908l-3.24226-7.571722c-.03882-.091391-.10361-.169374-.18633-.224296s-.17974-.084366-.27904-.084675h-3.6657c-.1228-.000207-.24151.044145-.33411.124813-.09259.080668-.15278.192186-.1694.31386l-2.44888613 17.48169c-.01106674.0727-.00618557.147.01430513.2176.0204907.0707.0561008.136.104362.1916.048261.0555.108018.0998.175129.13.067111.0301.139971.0453.213528.0444h3.650442c.12281.0002.24152-.0441.33411-.1248s.15278-.1922.1694-.3138l.95743-6.9424v-.0229l-.04958-3.56649.10299-.02669 1.09475 3.69998 3.02868 6.9767c.03899.091.10393.1684.1867.2227.08278.0543.17968.083.27868.0825h3.9556c.1222.0003.2405-.0435.333-.1234s.153-.1905.1705-.3115l2.4451-17.477875c.0098-.071828.0041-.144925-.0167-.214366-.0209-.06944-.0563-.133605-.104-.188185-.0477-.054581-.1066-.098308-.1726-.128224-.0661-.029916-.1377-.045335-.2102-.045213z"/><path d="m24.59.236637h-3.6504c-.1228-.000207-.2416.044145-.3341.124813-.0926.080668-.1528.192186-.1695.31386l-2.445 17.48169c-.011.0724-.0062.1463.014.2167.0203.0704.0556.1355.1034.191s.1071.0999.1738.1302c.0666.0304.139.046.2123.0457h3.6352c.1222.0004.2404-.0435.333-.1234.0925-.0798.153-.1905.1705-.3114l2.4603-17.493175c.0098-.071828.0041-.144925-.0167-.214366-.0208-.06944-.0563-.133605-.104-.188185-.0477-.054581-.1066-.098308-.1726-.128224s-.1377-.045335-.2102-.045213z"/><path d="m41.736.236643h-13.6672c-.1216.000581-.2389.044804-.3306.124615s-.1517.189909-.1691.31024l-.4806 3.265182c-.011.0719-.0063.14533.0137.21525.0201.06992.0551.13466.1026.18976s.1063.09926.1725.12943c.0662.03018.1381.04564.2109.04536h3.8144c.072-.00013.1432.01518.2088.04491.0656.02972.124.07316.1714.12739.0473.05423.0825.11799.1031.18697.0207.06898.0263.14157.0164.2129l-1.7966 13.06835c-.011.0727-.0062.147.0143.2177.0205.0706.0561.1359.1044.1915.0483.0555.108.0998.1751.13.0671.0301.14.0453.2136.0444h3.7c.1222.0004.2405-.0434.333-.1233s.153-.1905.1705-.3115l1.8348-13.35066c.0174-.12098.078-.23158.1705-.31148.0925-.07989.2107-.1237.333-.12337h4.1043c.1214-.00136.2383-.04585.3298-.12552.0916-.07967.1518-.18933.1699-.30933l.4768-3.265184c.0117-.072186.0074-.14604-.0124-.216426-.0198-.070387-.0546-.135614-.1022-.191155-.0475-.05554-.1066-.100059-.1731-.130458s-.1388-.045952-.212-.045574z"/><path d="m52.1762.236636h-6.9537c-.1224-.000092-.2406.044384-.3326.125116s-.1514.192204-.1671.313557l-2.4451 17.481691c-.0098.0715-.0042.1443.0164.2135.0206.0691.0557.1331.103.1876s.1057.0983.1713.1285c.0656.0301.1368.046.209.0464h3.7077c.1223.0001.2405-.0444.3325-.1251.092-.0808.1514-.1922.1671-.3136l.721-5.222c.0083-.0606.0385-.1162.0848-.1562.0464-.04.1057-.0618.1669-.0612h.4921c.0427 0 .0847.0108.1221.0315s.0689.0505.0915.0867l3.5398 5.5272c.0458.0717.109.1307.1837.1714s.1585.0618.2436.0613h4.5773c.0927-.0001.1835-.0256.2627-.0737.0792-.048.1437-.1169.1866-.199.0428-.0822.0624-.1745.0564-.267-.0059-.0924-.037-.1815-.0899-.2575l-3.7344-5.2983c-.0229-.0301-.0387-.0649-.0463-.1018-.0076-.037-.0068-.0752.0023-.1119.0092-.0366.0265-.0707.0506-.0997.0241-.0291.0545-.0523.0888-.0681 2.3688-1.1443 3.7458-2.34587 4.1959-5.64538.5264-4.33705-2.1895-6.373984-6.004-6.373984zm1.2817 6.454084c-.0601.59338-.3409 1.14256-.7866 1.53885-.4457.39628-1.024.61079-1.6203.60106h-2.159c-.0724.00021-.1439-.01518-.2098-.04513s-.1246-.07376-.172-.12842c-.0474-.05467-.0825-.11891-.1028-.18835-.0204-.06945-.0255-.14246-.0151-.21408l.4577-3.21941c.0166-.12066.0764-.23121.1683-.31117s.2096-.1239.3314-.12368h2.2887c1.3885 0 1.9492.96506 1.8195 2.09033z"/><path d="m97.1641 8.51781c-.0579.04532-.1047.10321-.1369.16929-.0322.06609-.049.13865-.049.21216s.0168.14605.049.21214.079.12399.1369.16931c1.7432 1.32739 1.6821 3.38729 1.2816 4.66129-.8849 2.9715-3.1278 4.7719-7.2246 4.7719h-6.9881c-.0701 0-.1395-.0149-.2034-.0438s-.1208-.0712-.1671-.1239c-.0462-.0527-.0806-.1148-.1009-.1819-.0204-.0671-.0261-.1378-.0168-.2073l2.445-17.485548c.0166-.117619.0752-.225272.1649-.303092s.2046-.120561.3234-.12032h6.9805c3.5207 0 5.817 2.11322 5.2182 5.63397-.2465 1.05129-.8522 1.98355-1.7127 2.6358zm-5.5158 6.10319c2.8189 0 3.2881-3.784.5226-3.784h-2.2887c-.1185-.0009-.2333.0416-.3226.1197-.0893.078-.1469.1861-.1618.3037l-.3814 2.8036c-.0093.0696-.0036.1403.0167.2074.0204.0671.0548.1291.101.1819.0463.0527.1032.095.1671.1239s.1333.0438.2034.0438zm.9918-7.14836c2.2887 0 2.8189-3.28807.4692-3.28807h-2.2887c-.1188-.00024-.2336.04249-.3234.12031-.0897.07782-.1483.18549-.1649.3031l-.328 2.28868c-.0104.0696-.0057.14063.0138.20824.0196.0676.0536.13017.0996.18343s.103.09594.167.12512c.0641.02918.1337.04417.204.04394z"/><path d="m115.142 18.7404h-3.994c-.112.0003-.22-.0373-.307-.1066s-.149-.1662-.174-.2748l-.553-2.9066c-.02-.1125-.08-.2142-.168-.2874-.087-.0732-.198-.1132-.312-.1132h-4.196c-.095.0002-.188.0276-.268.079s-.143.1246-.182.2109l-1.385 3.1241c-.038.0866-.101.1602-.18.2117s-.172.0787-.266.0782h-3.9141c-.0832.0002-.1652-.0208-.238-.0612-.0729-.0403-.1342-.0986-.1781-.1693-.044-.0707-.0691-.1515-.0731-.2347-.0039-.0831.0135-.1659.0506-.2405l8.5447-17.485505c.04-.082007.102-.151142.18-.199652.077-.04851.167-.074477.258-.07499h3.552c.111-.000261.219.037331.307.10663.087.069298.148.166196.173.274816l3.815 17.485501c.013.0718.011.1458-.008.2165-.018.0707-.052.1364-.1.1923-.047.0559-.106.1006-.172.1308-.067.0303-.139.0453-.212.044zm-6.168-7.8501c.07.0031.14-.009.206-.0356.065-.0265.124-.067.172-.1184.048-.0515.085-.1128.107-.1797.022-.067.03-.1379.022-.208l-.492-4.85963h-.183l-1.785 4.73753c-.028.0742-.037.1539-.028.2324.01.0785.039.1535.084.2187.045.0651.105.1184.175.1555.069.037.147.0566.226.0572z"/><path d="m119.517 13.2019c.097-.0797.222-.119.347-.1098.126.0092.243.0663.328.1594.448.453.984.8111 1.573 1.0529.59.2418 1.223.3624 1.86.3546 1.251 0 2.35-.4425 2.533-1.4075.206-1.1444-1.412-1.6441-2.899-1.8501-2.895-.4691-5.501-2.79215-4.848-6.2862.701-3.78395 4.043-5.1152 7.43-5.1152 2.102 0 4.063.549281 5.611 2.52518.042.05287.073.11374.09.17888.018.06514.022.13318.012.19995-.009.06678-.032.13088-.068.18839-.035.05751-.082.10721-.137.14608l-2.636 1.82333c-.091.06342-.201.09416-.311.08723-.111-.00692-.216-.05111-.299-.12538-.785-.6664-1.777-1.03982-2.807-1.05662-1.175-.0267-2.167.41579-2.289 1.35415-.13 1.07186.809 1.52578 2.216 1.85382 3.208.59887 6.34 1.82713 5.478 6.41589-.679 3.6009-3.815 5.4013-7.797 5.4013-2.083 0-4.627-.9917-6.103-2.9486-.076-.1017-.11-.2284-.096-.3545s.076-.2421.172-.3244z"/><path d="m136.766 18.7405h-3.677c-.07.0001-.14-.0148-.204-.0438-.064-.0289-.121-.0711-.167-.1239-.046-.0527-.08-.1147-.101-.1818-.02-.0672-.026-.1379-.017-.2074l2.438-17.496943c.016-.11762.075-.225284.165-.303104.089-.07782.204-.120549.323-.120308h3.677c.07-.000149.14.014758.203.043711.064.028953.121.071283.167.124103s.08.114892.1.182028c.019.067135.025.137755.015.207067l-2.445 17.485546c-.013.1184-.068.2281-.156.3083s-.202.1253-.321.1265z"/><path d="m154.145 14.5827c.065.0326.122.0793.167.1367s.077.1242.093.1954.016.1451 0 .2163-.048.138-.093.1954c-2.189 2.8418-4.695 3.6657-6.892 3.6657-3.628 0-6.966-2.1132-6.393-6.3129l.877-6.36635c.572-4.17303 4.535-6.31295 8.239-6.31295 2.159 0 4.623.873514 5.722 3.78014.024.0606.036.12537.035.19059-.001.06523-.015.12962-.041.1895-.025.05989-.063.11409-.11.15948-.047.0454-.102.0811-.163.10507l-3.166 1.213c-.107.03915-.225.04004-.334.00254-.108-.0375-.2-.11113-.261-.20852-.503-.78578-1.464-1.12526-2.422-1.12526-1.331.0267-2.67.76289-2.842 2.00641l-.888 6.36635c-.183 1.1977.965 1.9568 2.269 1.9568.518.0069 1.03-.1091 1.494-.3385.464-.2295.867-.5658 1.176-.9813.067-.0949.166-.1627.279-.1914.112-.0286.231-.0162.336.035z"/></g></svg>