<svg fill="none" height="22" viewBox="0 0 29 22" width="29" xmlns="http://www.w3.org/2000/svg" xmlns:xlink="http://www.w3.org/1999/xlink"><clipPath id="a"><path d="m0 0h29v22h-29z"/></clipPath><g clip-path="url(#a)"><path d="m26 0h-23c-1.65685 0-3 1.34315-3 3v16c0 1.6569 1.34315 3 3 3h23c1.6569 0 3-1.3431 3-3v-16c0-1.65685-1.3431-3-3-3z" fill="#202225" fill-opacity=".8"/><g fill="#fff"><path d="m8.01725 16.2054c-.841 0-1.58534-.2175-2.233-.6525-.64767-.435-1.15034-1.044-1.508-1.827-.35767-.7926-.5365-1.7013-.5365-2.726 0-1.01497.1885-1.91397.5655-2.69697.38666-.783.9425-1.39683 1.6675-1.8415.73466-.44466 1.6095-.667 2.6245-.667.86033 0 1.62885.18367 2.30545.551.6864.36734 1.2035.8845 1.5515 1.5515l-1.6385 1.1745c-.493-.90866-1.22762-1.363-2.20395-1.363-.88934 0-1.57084.29-2.0445.87-.47367.57034-.7105 1.3775-.7105 2.42147 0 1.0537.23683 1.8657.7105 2.436.47366.5704 1.15516.8555 2.0445.8555.39633 0 .75883-.0725 1.0875-.2175.33835-.1546.59935-.3625.78295-.6235v-1.247h-2.30545v-1.885h4.36445v5.684h-1.711l-.2755-.957c-.57029.7734-1.41612 1.16-2.53745 1.16z"/><path d="m16.5444 16.0024h-2.117v-10.00497h2.117z"/><path d="m20.6933 16.0024h-2.117v-10.00497h6.6845v1.914h-4.5675v2.37797h3.712v1.914h-3.712z"/></g></g></svg>