<svg width="24" height="24" viewBox="0 0 24 24" fill="none" xmlns="http://www.w3.org/2000/svg">
<g filter="url(#filter0_dddi_126_1375)">
<path d="M9.00032 18.4686C9.88216 17.9585 10.9059 17.6663 11.9998 17.6663C13.0938 17.6663 14.1175 17.9585 14.9994 18.4686C15.3181 18.6529 15.7259 18.544 15.9102 18.2253C16.0946 17.9066 15.9857 17.4988 15.667 17.3144C15.2653 17.0821 14.8396 16.8868 14.3946 16.7331C14.7612 16.5371 15.1029 16.2975 15.4141 16.0212C15.7875 16.2202 16.2138 16.333 16.6665 16.333C17.7264 16.333 18.6419 15.7146 19.0719 14.819C19.1786 14.5967 19.1123 14.3314 18.9138 14.1851C18.5308 13.9027 18.0695 13.7204 17.5685 13.6766C18.5974 13.3068 19.3332 12.3225 19.3332 11.1663C19.3332 11.1037 19.331 11.0416 19.3268 10.98C19.3092 10.7252 19.1077 10.5237 18.8528 10.5061C18.7913 10.5018 18.7291 10.4997 18.6665 10.4997C18.3566 10.4997 18.059 10.5526 17.7823 10.6498C18.3251 10.1616 18.6665 9.45385 18.6665 8.66635C18.6665 8.07472 18.4738 7.52809 18.1478 7.08578C18.0015 6.88729 17.7362 6.82096 17.5139 6.92768C17.0141 7.16759 16.6007 7.55866 16.3328 8.04164C16.3331 8.02768 16.3332 8.01369 16.3332 7.99967C16.3332 6.52692 15.1393 5.33301 13.6665 5.33301C13.4608 5.33301 13.2605 5.3563 13.0682 5.40039C12.8422 5.4522 12.6794 5.64792 12.6692 5.87954C12.6674 5.91937 12.6665 5.95942 12.6665 5.99967C12.6665 7.40467 13.7531 8.55589 15.1317 8.65885C15.7262 9.52417 15.9998 10.6241 15.9998 11.6663C15.9998 14.1036 14.1664 15.9997 11.9998 15.9997C9.83354 15.9993 7.99984 14.1034 7.99984 11.6663C7.99984 10.6241 8.27346 9.52417 8.86793 8.65884C10.2466 8.55588 11.3332 7.40467 11.3332 5.99967C11.3332 5.95942 11.3323 5.91937 11.3305 5.87954C11.3202 5.64792 11.1575 5.4522 10.9315 5.40039C10.7392 5.3563 10.5389 5.33301 10.3332 5.33301C8.86041 5.33301 7.6665 6.52692 7.6665 7.99968C7.6665 8.01369 7.66661 8.02768 7.66683 8.04164C7.39898 7.55866 6.98555 7.16759 6.4858 6.92767C6.2635 6.82096 5.99815 6.88729 5.85185 7.08578C5.52584 7.52809 5.33317 8.07472 5.33317 8.66635C5.33317 9.45385 5.67452 10.1616 6.21734 10.6498C5.94065 10.5526 5.64308 10.4997 5.33317 10.4997C5.27054 10.4997 5.20841 10.5018 5.14686 10.5061C4.89199 10.5237 4.6905 10.7252 4.67291 10.98C4.66866 11.0416 4.6665 11.1037 4.6665 11.1663C4.6665 12.3225 5.40228 13.3068 6.43114 13.6766C5.93018 13.7204 5.46892 13.9027 5.08589 14.1851C4.88741 14.3314 4.82108 14.5967 4.9278 14.819C5.35777 15.7146 6.27326 16.333 7.33317 16.333C7.78585 16.333 8.21219 16.2202 8.58562 16.0212C8.89675 16.2975 9.23843 16.5371 9.60511 16.7331C9.16006 16.8868 8.73433 17.0821 8.33268 17.3144C8.01398 17.4988 7.90507 17.9066 8.08943 18.2253C8.27379 18.544 8.68161 18.6529 9.00032 18.4686Z" fill="url(#paint0_linear_126_1375)"/>
</g>
<defs>
<filter id="filter0_dddi_126_1375" x="0.166504" y="0.833008" width="23.6665" height="22.2256" filterUnits="userSpaceOnUse" color-interpolation-filters="sRGB">
<feFlood flood-opacity="0" result="BackgroundImageFix"/>
<feColorMatrix in="SourceAlpha" type="matrix" values="0 0 0 0 0 0 0 0 0 0 0 0 0 0 0 0 0 0 127 0" result="hardAlpha"/>
<feOffset/>
<feGaussianBlur stdDeviation="1.125"/>
<feComposite in2="hardAlpha" operator="out"/>
<feColorMatrix type="matrix" values="0 0 0 0 0.666667 0 0 0 0 0.741176 0 0 0 0 1 0 0 0 0.25 0"/>
<feBlend mode="normal" in2="BackgroundImageFix" result="effect1_dropShadow_126_1375"/>
<feColorMatrix in="SourceAlpha" type="matrix" values="0 0 0 0 0 0 0 0 0 0 0 0 0 0 0 0 0 0 127 0" result="hardAlpha"/>
<feOffset/>
<feGaussianBlur stdDeviation="2.25"/>
<feComposite in2="hardAlpha" operator="out"/>
<feColorMatrix type="matrix" values="0 0 0 0 0.666667 0 0 0 0 0.741176 0 0 0 0 1 0 0 0 0.36 0"/>
<feBlend mode="normal" in2="effect1_dropShadow_126_1375" result="effect2_dropShadow_126_1375"/>
<feColorMatrix in="SourceAlpha" type="matrix" values="0 0 0 0 0 0 0 0 0 0 0 0 0 0 0 0 0 0 127 0" result="hardAlpha"/>
<feOffset/>
<feGaussianBlur stdDeviation="0.45"/>
<feComposite in2="hardAlpha" operator="out"/>
<feColorMatrix type="matrix" values="0 0 0 0 0.666667 0 0 0 0 0.741176 0 0 0 0 1 0 0 0 0.33 0"/>
<feBlend mode="normal" in2="effect2_dropShadow_126_1375" result="effect3_dropShadow_126_1375"/>
<feBlend mode="normal" in="SourceGraphic" in2="effect3_dropShadow_126_1375" result="shape"/>
<feColorMatrix in="SourceAlpha" type="matrix" values="0 0 0 0 0 0 0 0 0 0 0 0 0 0 0 0 0 0 127 0" result="hardAlpha"/>
<feOffset/>
<feGaussianBlur stdDeviation="0.759375"/>
<feComposite in2="hardAlpha" operator="arithmetic" k2="-1" k3="1"/>
<feColorMatrix type="matrix" values="0 0 0 0 0.666667 0 0 0 0 0.74 0 0 0 0 1 0 0 0 1 0"/>
<feBlend mode="normal" in2="shape" result="effect4_innerShadow_126_1375"/>
</filter>
<linearGradient id="paint0_linear_126_1375" x1="11.9998" y1="5.33301" x2="11.9998" y2="18.5583" gradientUnits="userSpaceOnUse">
<stop stop-color="#FFFFFF"/>
<stop offset="1" stop-color="#FFFFFF"/>
</linearGradient>
</defs>
</svg>

