<svg xmlns="http://www.w3.org/2000/svg" viewBox="0 0 200 200" width="643" height="643" style="width:100%;height:100%;transform:translate3d(0,0,0);content-visibility:visible;background-color:transparent"><defs><linearGradient id="a" spreadMethod="pad" gradientUnits="userSpaceOnUse" x1="-73.017" y1="-.886" x2="71.279" y2="-.886"><stop offset="0%" stop-color="#8447C4"/><stop offset="50%" stop-color="#9652A7"/><stop offset="100%" stop-color="#A95C89"/></linearGradient><linearGradient id="c" spreadMethod="pad" gradientUnits="userSpaceOnUse" x1="-73.017" y1="-.886" x2="71.279" y2="-.886"><stop offset="0%" stop-color="#8447C4"/><stop offset="50%" stop-color="#9652A7"/><stop offset="100%" stop-color="#A95C89"/></linearGradient><linearGradient id="i" spreadMethod="pad" gradientUnits="userSpaceOnUse" x1="-73.017" y1="-.886" x2="71.279" y2="-.886"><stop offset="0%" stop-color="#8447C4"/><stop offset="50%" stop-color="#9652A7"/><stop offset="100%" stop-color="#A95C89"/></linearGradient><linearGradient id="h" spreadMethod="pad" gradientUnits="userSpaceOnUse" x1="38" y1="35" x2="0" y2="-24"><stop offset="0%" stop-color="#6687D1"/><stop offset="50%" stop-color="#87A6E8"/><stop offset="100%" stop-color="#A9C4FF"/></linearGradient><mask id="k" mask-type="alpha"><use xmlns:ns1="http://www.w3.org/1999/xlink" ns1:href="#b"/></mask><mask id="j" mask-type="alpha"><use xmlns:ns2="http://www.w3.org/1999/xlink" ns2:href="#d"/></mask><mask id="g" mask-type="alpha"><use xmlns:ns3="http://www.w3.org/1999/xlink" ns3:href="#e"/></mask><g style="display:block" id="b"><path fill="url(#a)" d="M-64.203-14.819a5.257 5.257 0 0 0 3.619-1.439 5.078 5.078 0 0 0 1.567-3.56 5.21 5.21 0 0 0-1.54-3.559c-.954-.951-2.239-1.467-3.581-1.494h-2.888c-1.342.027-2.625.543-3.581 1.494a5.22 5.22 0 0 0-1.541 3.559 5.106 5.106 0 0 0 1.546 3.532 5.053 5.053 0 0 0 3.576 1.467h2.823zm105.91 60.861a50.107 50.107 0 0 0 16.451-11.303 49.922 49.922 0 0 0 10.708-16.845 49.991 49.991 0 0 0 3.246-19.698 50.007 50.007 0 0 0-4.732-19.399 51.958 51.958 0 0 0-18.329-20.84 52.13 52.13 0 0 0-26.453-8.45h-52.527c-1.081-.081-2.171.028-3.203.381a7.874 7.874 0 0 0-2.777 1.63 7.754 7.754 0 0 0-1.883 2.636 7.815 7.815 0 0 0 0 6.303 7.637 7.637 0 0 0 1.883 2.608 7.478 7.478 0 0 0 2.777 1.631 7.568 7.568 0 0 0 3.203.38h13.33c.709-.082 1.424 0 2.103.217a5.216 5.216 0 0 1 1.836 1.033 5.202 5.202 0 0 1 1.25 1.711c.291.652.443 1.359.443 2.065s-.152 1.413-.443 2.065a5.206 5.206 0 0 1-1.25 1.712c-.53.462-1.157.842-1.836 1.032-.679.217-1.394.3-2.103.218h-33.158a5.095 5.095 0 0 0-3.6 1.467 5.13 5.13 0 0 0-1.522 3.586c.008.652.147 1.331.411 1.929.261.625.64 1.169 1.116 1.631a4.995 4.995 0 0 0 1.655 1.059c.617.272 1.274.38 1.94.38h23.572c.663 0 1.321.109 1.935.381a4.949 4.949 0 0 1 1.638 1.087c.47.462.843 1.032 1.098 1.657.253.598.383 1.25.383 1.929 0 .652-.13 1.304-.383 1.929a4.83 4.83 0 0 1-1.098 1.63c-.467.489-1.024.842-1.638 1.114a5.256 5.256 0 0 1-1.935.381h-14.71a5.24 5.24 0 0 0-1.939.353 5.07 5.07 0 0 0-1.655 1.086 5.123 5.123 0 0 0-1.117 1.604 5.195 5.195 0 0 0-.41 1.956 5.119 5.119 0 0 0 1.524 3.559 5.12 5.12 0 0 0 3.597 1.494h10.243a50.638 50.638 0 0 0 4.467 16.003A51.941 51.941 0 0 0 2.783 47.373a52.022 52.022 0 0 0 38.924-1.331zM-6.028 11.971A28.507 28.507 0 0 1-6.875-10.2a28.35 28.35 0 0 1 6.02-9.563 28.406 28.406 0 0 1 9.271-6.494 29.547 29.547 0 0 1 22.371-.869c7.284 2.635 13.235 8.07 16.566 15.052a28.611 28.611 0 0 1 2.646 11.003 28.432 28.432 0 0 1-1.826 11.14 28.74 28.74 0 0 1-6.01 9.591 28.744 28.744 0 0 1-9.254 6.493c-7.056 3.179-15.084 3.506-22.363.843A29.549 29.549 0 0 1-6.028 11.971z" transform="translate(85.017 141.886)"/><path fill="#8447C5" d="M1.444-5.026h-2.888c-1.342.027-2.625.543-3.581 1.494A5.22 5.22 0 0 0-6.566.027 5.106 5.106 0 0 0-5.02 3.559a5.053 5.053 0 0 0 3.576 1.467h2.823a5.257 5.257 0 0 0 3.619-1.439A5.077 5.077 0 0 0 6.566.027a5.21 5.21 0 0 0-1.541-3.559c-.954-.951-2.239-1.467-3.581-1.494z" transform="translate(19.434 122.041)"/><path fill="#CE8BD9" d="M3.447-10.912-11.386 5.319a51.987 51.987 0 0 0 7.543 5.593L11.386-5.752a29.458 29.458 0 0 1-7.939-5.16z" transform="translate(82.282 173.839)"/><path fill="#CE8BD9" d="M-4.487 11.624 10.595-4.879a51.906 51.906 0 0 0-6.49-6.745l-14.7 16.085c2.389 2.045 4.467 4.447 6.108 7.163z" transform="translate(135.475 115.625)"/><path fill="#CE8BD9" d="M-8.349 11.685c.036.957.022 1.913-.038 2.864L10.187-5.776a49.58 49.58 0 0 0-1.155-2.672 51.863 51.863 0 0 0-3.482-6.101L-10.187 2.672a28.646 28.646 0 0 1 1.838 9.013z" transform="translate(143.365 129.13)"/><path fill="#CE8BD9" d="M1.776-10.417-14.032 6.88a51.99 51.99 0 0 0 5.131 2.19c1.415.516 2.848.958 4.291 1.347L14.032-9.981c-4.059.7-8.231.578-12.256-.436z" transform="translate(96.702 180.189)"/></g><g style="display:block" id="d"><path fill="url(#c)" d="M-64.203-14.819a5.257 5.257 0 0 0 3.619-1.439 5.078 5.078 0 0 0 1.567-3.56 5.21 5.21 0 0 0-1.54-3.559c-.954-.951-2.239-1.467-3.581-1.494h-2.888c-1.342.027-2.625.543-3.581 1.494a5.22 5.22 0 0 0-1.541 3.559 5.106 5.106 0 0 0 1.546 3.532 5.053 5.053 0 0 0 3.576 1.467h2.823zm105.91 60.861a50.107 50.107 0 0 0 16.451-11.303 49.922 49.922 0 0 0 10.708-16.845 49.991 49.991 0 0 0 3.246-19.698 50.007 50.007 0 0 0-4.732-19.399 51.958 51.958 0 0 0-18.329-20.84 52.13 52.13 0 0 0-26.453-8.45h-52.527c-1.081-.081-2.171.028-3.203.381a7.874 7.874 0 0 0-2.777 1.63 7.754 7.754 0 0 0-1.883 2.636 7.815 7.815 0 0 0 0 6.303 7.637 7.637 0 0 0 1.883 2.608 7.478 7.478 0 0 0 2.777 1.631 7.568 7.568 0 0 0 3.203.38h13.33c.709-.082 1.424 0 2.103.217a5.216 5.216 0 0 1 1.836 1.033 5.202 5.202 0 0 1 1.25 1.711c.291.652.443 1.359.443 2.065s-.152 1.413-.443 2.065a5.206 5.206 0 0 1-1.25 1.712c-.53.462-1.157.842-1.836 1.032-.679.217-1.394.3-2.103.218h-33.158a5.095 5.095 0 0 0-3.6 1.467 5.13 5.13 0 0 0-1.522 3.586c.008.652.147 1.331.411 1.929.261.625.64 1.169 1.116 1.631a4.995 4.995 0 0 0 1.655 1.059c.617.272 1.274.38 1.94.38h23.572c.663 0 1.321.109 1.935.381a4.949 4.949 0 0 1 1.638 1.087c.47.462.843 1.032 1.098 1.657.253.598.383 1.25.383 1.929 0 .652-.13 1.304-.383 1.929a4.83 4.83 0 0 1-1.098 1.63c-.467.489-1.024.842-1.638 1.114a5.256 5.256 0 0 1-1.935.381h-14.71a5.24 5.24 0 0 0-1.939.353 5.07 5.07 0 0 0-1.655 1.086 5.123 5.123 0 0 0-1.117 1.604 5.195 5.195 0 0 0-.41 1.956 5.119 5.119 0 0 0 1.524 3.559 5.12 5.12 0 0 0 3.597 1.494h10.243a50.638 50.638 0 0 0 4.467 16.003A51.941 51.941 0 0 0 2.783 47.373a52.022 52.022 0 0 0 38.924-1.331zM-6.028 11.971A28.507 28.507 0 0 1-6.875-10.2a28.35 28.35 0 0 1 6.02-9.563 28.406 28.406 0 0 1 9.271-6.494 29.547 29.547 0 0 1 22.371-.869c7.284 2.635 13.235 8.07 16.566 15.052a28.611 28.611 0 0 1 2.646 11.003 28.432 28.432 0 0 1-1.826 11.14 28.74 28.74 0 0 1-6.01 9.591 28.744 28.744 0 0 1-9.254 6.493c-7.056 3.179-15.084 3.506-22.363.843A29.549 29.549 0 0 1-6.028 11.971z" transform="translate(85.017 141.886)"/><path fill="#8447C5" d="M1.444-5.026h-2.888c-1.342.027-2.625.543-3.581 1.494A5.22 5.22 0 0 0-6.566.027 5.106 5.106 0 0 0-5.02 3.559a5.053 5.053 0 0 0 3.576 1.467h2.823a5.257 5.257 0 0 0 3.619-1.439A5.077 5.077 0 0 0 6.566.027a5.21 5.21 0 0 0-1.541-3.559c-.954-.951-2.239-1.467-3.581-1.494z" transform="translate(19.434 122.041)"/><path fill="#CE8BD9" d="M3.447-10.912-11.386 5.319a51.987 51.987 0 0 0 7.543 5.593L11.386-5.752a29.458 29.458 0 0 1-7.939-5.16z" transform="translate(82.282 173.839)"/><path fill="#CE8BD9" d="M-4.487 11.624 10.595-4.879a51.906 51.906 0 0 0-6.49-6.745l-14.7 16.085c2.389 2.045 4.467 4.447 6.108 7.163z" transform="translate(135.475 115.625)"/><path fill="#CE8BD9" d="M-8.349 11.685c.036.957.022 1.913-.038 2.864L10.187-5.776a49.58 49.58 0 0 0-1.155-2.672 51.863 51.863 0 0 0-3.482-6.101L-10.187 2.672a28.646 28.646 0 0 1 1.838 9.013z" transform="translate(143.365 129.13)"/><path fill="#CE8BD9" d="M1.776-10.417-14.032 6.88a51.99 51.99 0 0 0 5.131 2.19c1.415.516 2.848.958 4.291 1.347L14.032-9.981c-4.059.7-8.231.578-12.256-.436z" transform="translate(96.702 180.189)"/></g><clipPath id="f"><path d="M0 0h200v200H0z"/></clipPath><path fill="#CE8BD9" d="M57.75-137.75-67.5-127.5l-10.25 111 10 10.25L8-6.5s9.75-38 11.25-23.5S35-6.25 43-12s64.75-85.25 64.75-85.25l-50-40.5z" transform="translate(100 106)" style="display:block" id="e"/></defs><g clip-path="url(#f)"><g style="display:block"><path fill="#6D3190" d="M157.16 135.822c0-22.221-12.023-36.211-12.023-36.211a52.005 52.005 0 0 0-11.07-9.768 52.127 52.127 0 0 0-26.452-8.45H55.088c-1.081-.081-2.172.028-3.204.381a7.874 7.874 0 0 0-2.777 1.63 7.765 7.765 0 0 0-1.882 2.636 7.694 7.694 0 0 0-.659 3.015h-.007V99.191h2.839c.737.614 1.576 1.103 2.486 1.391a7.572 7.572 0 0 0 3.204.38h13.329c.709-.082 1.424 0 2.103.217a5.22 5.22 0 0 1 1.837 1.033 5.2 5.2 0 0 1 1.249 1.711c.291.652.443 1.359.443 2.065s-.152 1.413-.443 2.065a5.203 5.203 0 0 1-1.249 1.712c-.53.462-1.158.842-1.837 1.032-.679.217-1.394.3-2.103.218H35.259a5.095 5.095 0 0 0-3.6 1.467 5.13 5.13 0 0 0-1.521 3.586v6h3.071v-1.437c.038.016.071.041.11.056.617.272 1.274.38 1.94.38h23.572c.663 0 1.321.109 1.935.381a4.949 4.949 0 0 1 1.638 1.087c.47.462.843 1.032 1.098 1.657.253.598.383 1.25.383 1.929 0 .652-.13 1.304-.383 1.929a4.83 4.83 0 0 1-1.098 1.63c-.467.489-1.024.842-1.638 1.114a5.256 5.256 0 0 1-1.935.381H44.122c-.663 0-1.323.108-1.94.353a5.07 5.07 0 0 0-1.655 1.086 5.12 5.12 0 0 0-1.116 1.604 5.196 5.196 0 0 0-.411 1.956v6h3.315v-1.295a5.027 5.027 0 0 0 1.807.348h10.243a50.636 50.636 0 0 0 4.466 16.003A51.94 51.94 0 0 0 87.8 183.259a52.02 52.02 0 0 0 38.923-1.331 50.111 50.111 0 0 0 16.452-11.303 49.92 49.92 0 0 0 10.707-16.845 49.97 49.97 0 0 0 3.273-17.602c.001-.121.005-.23.005-.356zm-23.97 10.133a28.74 28.74 0 0 1-6.01 9.591 28.744 28.744 0 0 1-9.254 6.493c-7.056 3.179-15.085 3.506-22.364.843a29.547 29.547 0 0 1-16.573-15.025 28.601 28.601 0 0 1-2.668-11.004 28.506 28.506 0 0 1 1.82-11.167 28.353 28.353 0 0 1 6.021-9.563 28.402 28.402 0 0 1 9.27-6.494 29.55 29.55 0 0 1 22.372-.869c7.284 2.635 13.234 8.07 16.565 15.052a28.611 28.611 0 0 1 2.646 11.003 28.432 28.432 0 0 1-1.825 11.14zM24.459 112.509c-.954-.951-2.239-1.468-3.581-1.495H17.99c-1.342.027-2.625.544-3.581 1.495a5.22 5.22 0 0 0-1.541 3.559v6H26v-6a5.21 5.21 0 0 0-1.541-3.559z"/></g><path fill="#321642" d="M0-2c3.863 0 7 .896 7 2S3.863 2 0 2s-7-.896-7-2 3.137-2 7-2z" transform="translate(76.688 86.375)" style="display:block"/><g style="display:block"><path fill="#B581A8" d="M105.695 104.751c-18.089 0-32.753 14.664-32.753 32.753s14.664 32.753 32.753 32.753 32.753-14.664 32.753-32.753-14.664-32.753-32.753-32.753zm0 50.342c-9.714 0-17.589-7.875-17.589-17.589 0-9.714 7.875-17.589 17.589-17.589 9.714 0 17.589 7.875 17.589 17.589 0 9.714-7.875 17.589-17.589 17.589z"/><path fill="#F2D3EA" d="M105.695 108.751c-18.089 0-32.753 14.664-32.753 32.753s14.664 32.753 32.753 32.753 32.753-14.664 32.753-32.753-14.664-32.753-32.753-32.753zm0 50.342c-9.714 0-17.589-7.875-17.589-17.589 0-9.714 7.875-17.589 17.589-17.589 9.714 0 17.589 7.875 17.589 17.589 0 9.714-7.875 17.589-17.589 17.589z"/></g><g mask="url(#g)" style="display:block"><path fill="url(#h)" d="M22.162 82.796a3.01 3.01 0 0 1-.473-1.654l.024-85.079c0-12.251-5.961-19.946-14.676-21.392-8.152-1.353-10.693 8.725-10.693 20.483v30.189h-.016c.005.044.016.088.016.133 0 1.456-2.882 2.636-6.437 2.636s-6.436-1.18-6.436-2.636c0-.045.011-.089.016-.133h-.016V-4.69c0-19.351 3.278-34.228 22.627-33.898 18.796.32 28.488 15.78 28.488 34.651l-.039 91.888a.73.73 0 0 1-.626.728c-1.882.257-7.614.436-11.759-5.883z" transform="translate(105.02 45.119)"/></g><path fill="#FFF" d="M-4.561-8.197C1.547-8.005 7.227-.222 8.406 9.052l-.192.126C5.74 3.664 2.8-1.027-.824-4.622c-1.193-1.184-2.445-2.254-3.77-3.366l.033-.209z" transform="translate(125.75 20.759)" style="display:block"/><path fill="url(#i)" d="M-64.203-14.819a5.257 5.257 0 0 0 3.619-1.439 5.078 5.078 0 0 0 1.567-3.56 5.21 5.21 0 0 0-1.54-3.559c-.954-.951-2.239-1.467-3.581-1.494h-2.888c-1.342.027-2.625.543-3.581 1.494a5.22 5.22 0 0 0-1.541 3.559 5.106 5.106 0 0 0 1.546 3.532 5.053 5.053 0 0 0 3.576 1.467h2.823zm105.91 60.861a50.107 50.107 0 0 0 16.451-11.303 49.922 49.922 0 0 0 10.708-16.845 49.991 49.991 0 0 0 3.246-19.698 50.007 50.007 0 0 0-4.732-19.399 51.958 51.958 0 0 0-18.329-20.84 52.13 52.13 0 0 0-26.453-8.45h-52.527c-1.081-.081-2.171.028-3.203.381a7.874 7.874 0 0 0-2.777 1.63 7.754 7.754 0 0 0-1.883 2.636 7.815 7.815 0 0 0 0 6.303 7.637 7.637 0 0 0 1.883 2.608 7.478 7.478 0 0 0 2.777 1.631 7.568 7.568 0 0 0 3.203.38h13.33c.709-.082 1.424 0 2.103.217a5.216 5.216 0 0 1 1.836 1.033 5.202 5.202 0 0 1 1.25 1.711c.291.652.443 1.359.443 2.065s-.152 1.413-.443 2.065a5.206 5.206 0 0 1-1.25 1.712c-.53.462-1.157.842-1.836 1.032-.679.217-1.394.3-2.103.218h-33.158a5.095 5.095 0 0 0-3.6 1.467 5.13 5.13 0 0 0-1.522 3.586c.008.652.147 1.331.411 1.929.261.625.64 1.169 1.116 1.631a4.995 4.995 0 0 0 1.655 1.059c.617.272 1.274.38 1.94.38h23.572c.663 0 1.321.109 1.935.381a4.949 4.949 0 0 1 1.638 1.087c.47.462.843 1.032 1.098 1.657.253.598.383 1.25.383 1.929 0 .652-.13 1.304-.383 1.929a4.83 4.83 0 0 1-1.098 1.63c-.467.489-1.024.842-1.638 1.114a5.256 5.256 0 0 1-1.935.381h-14.71a5.24 5.24 0 0 0-1.939.353 5.07 5.07 0 0 0-1.655 1.086 5.123 5.123 0 0 0-1.117 1.604 5.195 5.195 0 0 0-.41 1.956 5.119 5.119 0 0 0 1.524 3.559 5.12 5.12 0 0 0 3.597 1.494h10.243a50.638 50.638 0 0 0 4.467 16.003A51.941 51.941 0 0 0 2.783 47.373a52.022 52.022 0 0 0 38.924-1.331zM-6.028 11.971A28.507 28.507 0 0 1-6.875-10.2a28.35 28.35 0 0 1 6.02-9.563 28.406 28.406 0 0 1 9.271-6.494 29.547 29.547 0 0 1 22.371-.869c7.284 2.635 13.235 8.07 16.566 15.052a28.611 28.611 0 0 1 2.646 11.003 28.432 28.432 0 0 1-1.826 11.14 28.74 28.74 0 0 1-6.01 9.591 28.744 28.744 0 0 1-9.254 6.493c-7.056 3.179-15.084 3.506-22.363.843A29.549 29.549 0 0 1-6.028 11.971z" transform="translate(85.017 141.886)" style="display:block"/><g mask="url(#j)" style="display:block"><path stroke-linecap="round" stroke="#CE8BD9" stroke-width="10" d="m71.826 178.014 91.25-93.251" fill="none"/></g><g mask="url(#k)" style="display:block"><path stroke-linecap="round" stroke="#CE8BD9" stroke-width="10" d="m83.252 187.654 87.57-90.357" fill="none"/></g></g></svg>