<svg width="138" height="130" viewBox="0 0 138 130" fill="none" xmlns="http://www.w3.org/2000/svg">
<g clip-path="url(#clip0_1399_23479)">
<path d="M33.0615 53.5091C37.8184 46.6591 45.7927 43.1944 52.3063 44.7233C58.8199 46.2521 68.9753 54.7698 62.7084 67.0005L33.0615 53.5091Z" fill="black"/>
<path d="M90.7269 76.2532C96.6484 74.8534 104.257 77.1268 107.761 83.7087C112.577 92.7526 106.113 104.1 106.113 104.1L83.7593 98.4907L90.7269 76.2532Z" fill="#73767C"/>
<path d="M134.092 1.11139C133.914 1.44892 131.595 6.01555 128.052 13.0243L125.338 18.4149L123.778 21.4726C123.334 22.3661 122.871 23.2695 122.397 24.1927L111.965 44.673L110.347 47.8498C109.564 49.4118 108.774 50.9671 107.978 52.5157L105.234 57.9361L98.8688 70.4844L97.0825 74.0186L85.9797 95.859L40.0488 63.0984L66.6362 45.1694L69.7352 43.0747L89.3451 29.7819L92.3058 27.7964L111.126 15.0495L113.998 13.064C124.904 5.7078 132.7 0.43632 133.233 0.108714C133.368 0.0513245 133.517 0.0384503 133.66 0.0719469C133.802 0.105443 133.93 0.183581 134.026 0.295097C134.121 0.406614 134.179 0.54575 134.191 0.692452C134.203 0.839155 134.168 0.985847 134.092 1.11139Z" fill="#DCDDDE"/>
<path d="M125.338 18.415L123.048 20.2516C123.305 20.6487 123.551 21.0557 123.778 21.4727C123.334 22.3661 122.871 23.2695 122.397 24.1928C122.009 23.3778 121.563 22.5915 121.064 21.84C115.824 25.9897 110.366 30.189 104.948 34.2692C108.098 37.1075 110.507 40.6799 111.965 44.6731L110.347 47.8499C109.191 43.1347 106.599 38.9003 102.935 35.7384C96.5397 40.5433 90.2432 45.1794 84.4697 49.3589C89.1522 52.782 93.0023 57.2284 95.7304 62.3638C99.6781 59.2566 103.863 55.9209 108.008 52.5357L105.264 57.9561C102.402 60.2592 99.5695 62.5128 96.8456 64.6571C97.6959 66.5465 98.3827 68.5062 98.8984 70.5143L97.1121 74.0485C96.683 71.3569 95.9238 68.7293 94.8521 66.2256C83.0782 75.4482 73.7519 82.3081 73.594 82.3975C73.3846 82.551 73.1326 82.6344 72.8735 82.6357C72.6807 82.637 72.4905 82.5916 72.3187 82.5035C72.147 82.4154 71.9988 82.2871 71.8866 82.1294C71.6989 81.8666 71.6198 81.5409 71.6658 81.2206C71.7118 80.9004 71.8794 80.6105 72.1333 80.412C72.2912 80.2928 81.8248 73.2344 93.7369 63.9026C91.0587 58.6941 87.1557 54.2228 82.3676 50.8778C68.3831 60.9939 58.0008 68.1516 57.7935 68.3005C57.5891 68.439 57.3491 68.5149 57.1027 68.5189C56.8365 68.5224 56.5763 68.4393 56.361 68.2819C56.1457 68.1245 55.9867 67.9013 55.9079 67.6455C55.829 67.3898 55.8346 67.1152 55.9236 66.8629C56.0127 66.6106 56.1805 66.394 56.402 66.2455C56.6092 66.1065 66.5672 59.2367 80.0879 49.4482C75.9699 47.0475 71.3777 45.5868 66.6362 45.1695L69.7351 43.0748C74.1872 43.8521 78.4491 45.4834 82.2887 47.8797C88.0818 43.6804 94.4376 39.0145 100.922 34.15C97.487 31.7423 93.5066 30.2404 89.3451 29.7819L92.3058 27.7965C96.1644 28.6084 99.8013 30.2547 102.964 32.6212C108.541 28.412 114.176 24.0836 119.574 19.8049C118.518 18.517 117.245 17.4251 115.814 16.5784C114.381 15.7308 112.781 15.209 111.126 15.0496L113.998 13.0641C115.063 13.3859 116.086 13.8324 117.048 14.3944C118.75 15.3985 120.26 16.6995 121.509 18.2363C123.739 16.4692 125.92 14.7021 128.032 12.9648L125.338 18.415Z" fill="#B9BBBE"/>
<path d="M114.936 94.6091C123.877 84.9497 129.059 76.5312 132.848 65.0948C133.747 62.3747 138.148 63.8142 137.99 65.8791C137.349 74.8733 124.835 90.2609 117.097 96.4159C115.637 97.5675 114.295 95.304 114.936 94.6091Z" fill="black"/>
<path d="M111.179 111.573C116.739 111.461 121.156 106.837 121.044 101.244C120.933 95.652 116.336 91.2091 110.776 91.3209C105.217 91.4328 100.8 96.057 100.911 101.649C101.022 107.242 105.62 111.685 111.179 111.573Z" fill="#B9BBBE"/>
<path d="M110.998 96.4751C109.518 96.8126 107.169 96.763 107.11 95.2441C107.05 93.7252 108.639 92.5041 110.149 92.2658C111.659 92.0276 113.189 92.5438 113.445 93.9634C113.702 95.383 112.508 96.1474 110.998 96.4751Z" fill="#F8F9F9"/>
<path d="M119.318 112.955C117.709 101.767 108.876 96.5152 98.5926 99.2551C98.2335 95.1972 96.9575 91.2753 94.862 87.7889C89.9275 80.1448 80.6702 81.0681 76.0515 82.7557C78.0253 74.1585 77.1371 67.1795 71.2551 61.9081C64.6329 55.9715 54.2802 57.5797 50.0661 60.2005C50.451 50.6503 42.6642 44.2273 35.0551 44.9123C25.186 45.8057 18.4849 53.4002 18.4355 66.1272C13.1527 71.1496 8.232 76.5439 3.71077 82.2693C-1.22379 88.6228 -1.11523 97.4583 3.46404 104.417C4.58912 106.145 7.06628 110.374 7.76698 111.486C8.04332 111.913 7.9545 112.389 7.38209 113.203C5.85932 115.099 4.53634 117.148 3.43444 119.319C1.49022 123.399 3.07915 130.05 9.21774 130.05C13.2147 130.05 73.15 129.921 92.6316 130.05H121.44C125.624 130.05 127.016 127.975 127.016 125.235C127.016 121.522 125.121 119.209 121.222 116.152C120.706 115.777 120.27 115.3 119.943 114.751C119.615 114.201 119.403 113.59 119.318 112.955Z" fill="#73767C"/>
<path d="M38.2231 122.654C51.1319 123.031 62.2939 122.952 72.6762 122.654C77.8674 122.535 79.1405 120.112 79.5155 117.184C80.1965 111.972 77.4035 109.857 72.4295 104.04C67.4554 98.2223 54.0927 84.9096 54.0927 84.9096C51.2405 81.9313 47.3915 80.879 43.7893 83.7977C39.3284 87.4113 35.0946 90.9554 32.2128 95.4029C29.6172 99.3739 30.762 102.769 34.1077 107.643C34.6998 108.497 37.404 111.614 37.5915 112.17C37.779 112.726 35.2229 114.295 34.5518 116.707C33.8215 119.348 35.2229 122.564 38.2231 122.654Z" fill="#B9BBBE"/>
<path d="M47.9835 102.154C46.8288 100.645 44.8944 98.5002 44.8944 98.5002C44.5975 98.1468 44.2342 97.8557 43.8252 97.6439C43.4162 97.432 42.9697 97.3035 42.5112 97.2657C42.0527 97.2278 41.5913 97.2815 41.1535 97.4235C40.7157 97.5655 40.31 97.7931 39.9599 98.0932C39.3599 98.7078 38.9944 99.5154 38.9276 100.374C38.8608 101.233 39.097 102.088 39.5947 102.789C40.5224 104 41.5685 105.37 42.8022 106.68C43.4394 107.337 44.2941 107.734 45.2037 107.799C46.1134 107.863 47.0148 107.588 47.7367 107.028C48.3824 106.397 48.7667 105.544 48.8125 104.64C48.8582 103.735 48.5621 102.847 47.9835 102.154Z" fill="#73767C"/>
<path d="M31.8247 81.7677C33.7993 79.8782 33.8772 76.7363 31.9989 74.7501C30.1205 72.7638 26.9971 72.6854 25.0225 74.5749C23.048 76.4644 22.97 79.6062 24.8484 81.5925C26.7267 83.5787 29.8502 83.6571 31.8247 81.7677Z" fill="black"/>
<path d="M62.2743 114.96C61.3762 113.967 59.5701 113.521 58.6227 112.667C56.7673 110.989 53.9645 107.703 51.7143 109.689C50.303 110.91 50.2142 112.587 51.3985 114.225C52.3963 115.834 53.7466 117.193 55.3462 118.196C57.0669 118.93 58.9576 119.164 60.8038 118.871C61.242 118.844 61.663 118.69 62.0164 118.428C62.3697 118.166 62.6403 117.807 62.7956 117.394C62.9509 116.981 62.9843 116.531 62.8918 116.1C62.7993 115.668 62.5849 115.272 62.2743 114.96Z" fill="#73767C"/>
<path d="M98.2176 120.052C98.2725 120.016 98.3252 119.976 98.3755 119.933C98.9585 119.362 99.3919 118.654 99.6369 117.873C99.882 117.092 99.9311 116.262 99.7799 115.457C99.6287 114.652 99.2819 113.898 98.7704 113.26C98.2589 112.623 97.5986 112.123 96.8484 111.805C96.0982 111.487 95.2814 111.36 94.4707 111.437C93.6601 111.513 92.8809 111.79 92.2025 112.243C91.5241 112.696 90.9677 113.311 90.5828 114.032C90.1979 114.754 89.9965 115.56 89.9966 116.379C91.5778 115.988 93.2435 116.136 94.7317 116.801C96.2199 117.466 97.4462 118.61 98.2176 120.052Z" fill="black"/>
<path d="M92.967 82.1699C92.5722 82.9343 92.1873 83.6888 91.832 84.4036C93.9896 86.1116 95.7369 88.2866 96.9442 90.7671C97.0453 90.9726 97.2014 91.1455 97.395 91.2666C97.5885 91.3876 97.8118 91.4518 98.0397 91.4521C98.2353 91.4495 98.4277 91.402 98.6023 91.3131C98.8941 91.1643 99.1152 90.9051 99.217 90.5923C99.3188 90.2795 99.2929 89.9389 99.1451 89.6453C97.7189 86.6863 95.5986 84.1208 92.967 82.1699Z" fill="black"/>
</g>
<defs>
<clipPath id="clip0_1399_23479">
<rect width="138" height="130" fill="white"/>
</clipPath>
</defs>
</svg>
