<svg xmlns="http://www.w3.org/2000/svg" width="225" height="154" fill="none"><rect width="225" height="154" fill="url(#a)" rx="8"/><rect width="174" height="120" x="26" y="17" fill="#18191C" rx="8"/><path fill="#fff" d="M52.376 29.416c0-.492-.384-.84-.852-.84-.48 0-.864.348-.864.84 0 .48.384.816.864.816.468 0 .852-.336.852-.816m-.144 8.028v-6.24h-1.44v6.12c0 .504-.24.684-.636.684-.168 0-.336-.012-.468-.048l.192 1.176c.096.036.348.048.564.048 1.068 0 1.788-.492 1.788-1.74m1.511-6.24v4.164c0 1.092.564 1.752 1.656 1.752.768 0 1.392-.42 1.932-.936l.132.816h1.224v-5.796h-1.44v3.912c-.42.432-.876.72-1.32.72-.528 0-.744-.336-.744-.84v-3.792zm10.707 4.092c0-1.092-.588-1.5-2.088-1.884-.864-.228-1.08-.408-1.08-.72s.264-.528.804-.528c.576 0 1.26.204 1.836.528l.192-1.2a5.1 5.1 0 0 0-2.028-.408c-1.344 0-2.136.708-2.136 1.716 0 1.056.588 1.464 1.992 1.824.924.228 1.176.396 1.176.804 0 .384-.336.612-.96.612-.72 0-1.488-.276-2.112-.684l-.192 1.2a5.04 5.04 0 0 0 2.256.564c1.524 0 2.34-.684 2.34-1.824M68.688 37l-.18-1.212a1.8 1.8 0 0 1-.456.048c-.552 0-.756-.252-.756-.72V32.38h1.356l-.18-1.176h-1.176v-2.052l-1.428.216v1.836h-.816v1.176h.816v2.976c0 1.32.768 1.74 1.908 1.74.42 0 .684-.048.912-.096m3.875-2.76v-1.392h-3.12v1.392zm5.658 2.316-.192-1.236c-.528.408-1.02.552-1.524.552-.84 0-1.5-.576-1.5-1.776 0-1.152.6-1.764 1.452-1.764.576 0 1.032.192 1.5.54l.204-1.296a3.3 3.3 0 0 0-1.776-.492c-1.572 0-2.832 1.032-2.832 3.048 0 1.896 1.14 2.976 2.748 2.976.768 0 1.368-.18 1.92-.552m6.096.444v-4.176c0-1.08-.576-1.74-1.656-1.74-.768 0-1.368.408-1.848.852v-3.6l-1.44.228V37h1.44v-3.912c.42-.444.876-.732 1.32-.732.528 0 .744.348.744.852V37zm3.086-7.584c0-.492-.384-.84-.852-.84-.48 0-.864.348-.864.84 0 .48.384.816.864.816.468 0 .852-.336.852-.816M87.26 37v-5.796h-1.44V37zm3.024 0v-8.664l-1.44.228V37zm3.023 0v-8.664l-1.44.228V37zm3.168-7.584c0-.492-.384-.84-.852-.84-.48 0-.864.348-.864.84 0 .48.384.816.864.816.468 0 .852-.336.852-.816M96.33 37v-5.796h-1.44V37zm6.467 0v-4.176c0-1.08-.576-1.74-1.656-1.74-.78 0-1.392.42-1.932.936l-.132-.816h-1.224V37h1.44v-3.912c.42-.444.876-.732 1.32-.732.528 0 .744.348.744.852V37z"/><path fill="#B9BBBE" fill-rule="evenodd" d="M39.193 28.914a.56.56 0 0 0-.604.116l-2.376 2.484h-1.66a.543.543 0 0 0-.553.525v3.172c0 .287.248.526.552.526h1.661l2.376 2.484a.56.56 0 0 0 .604.116.52.52 0 0 0 .342-.488v-8.452a.52.52 0 0 0-.342-.483m1.45 1.018v1.047c1.525 0 2.77 1.189 2.77 2.638 0 1.458-1.24 2.646-2.77 2.646v1.048c2.137 0 3.875-1.65 3.875-3.698 0-2.031-1.738-3.681-3.874-3.681Zm0 2.107c.917 0 1.662.71 1.662 1.582 0 .88-.745 1.59-1.661 1.59v-1.055c.304 0 .552-.24.552-.535a.543.543 0 0 0-.552-.526z" clip-rule="evenodd"/><g clip-path="url(#b)"><path fill="#A8BFFF" d="M139 52H34v64.985h105z"/><path fill="#C2D2FF" d="M94.793 97.527c3.62-10.638 13.808-12.328 19.088-9.672-.733-5.686 6.629-17.486 20.579-10.286H139v37.462H95.29l-.498-17.504Zm-45.937.759c-.991-2.773-5.382-9.72-14.856-8.538v20.431h36.464c-.093-10.317-11.586-15.926-21.608-11.893"/><path fill="#648AE8" d="M34 116.986h105v-23.81h-18.07v18.875h-6.593v-5.935H99.254L71.96 93.466H59.933v-4.2h-5.954v14.959l-3.05-.977-4.158 4.461H34z"/><path fill="#7B6EB3" d="M46.773 110.709H34v1.341h12.773z"/><path fill="#6273E3" d="m51.486 117 4.728-4.73h10.292v4.715zm82.975-1.969h-26.939V117h26.939z"/><path fill="#7D2952" d="M94.035 66.824a1.414 1.414 0 1 0 0-2.828 1.414 1.414 0 0 0 0 2.828m-9.657 3.269a1.414 1.414 0 1 0 0-2.828 1.414 1.414 0 0 0 0 2.828m-12.429 3.323a1.414 1.414 0 1 0-.001-2.828 1.414 1.414 0 0 0 0 2.828Zm-8.903 1.661a1.414 1.414 0 1 0 0-2.828 1.414 1.414 0 0 0 0 2.828m-9.706 1.068a1.414 1.414 0 1 0-.001-2.829 1.414 1.414 0 0 0 0 2.829Zm-9.204-.252a1.414 1.414 0 1 0 0-2.828 1.414 1.414 0 0 0 0 2.828m87.509 21.545a1.414 1.414 0 1 0 0-2.828 1.414 1.414 0 0 0 0 2.828"/><path fill="#7D2952" d="M137.047 52H34v18.88c20.736 5.516 55.12-2.851 74.11-14.756C114.559 87.659 139 97.46 139 97.46V53.954c0-1.08-.874-1.954-1.953-1.954"/><path fill="#70254A" d="M34 52v3.828c24.319 13.613 56.336 6.31 69.771-3.828zm105 0h-20.853c.813 18.87 9.479 33.59 20.853 41.175z"/><path fill="#F073AB" d="M105.19 92.56c-1.223 2.882-3.426 8.389-3.426 8.389l5.587 3.486c2.247-5.252 3.008-8.04 3.375-9.498.364-1.461.598-2.888-1.294-4.048-1.893-1.16-2.953-1.364-4.242 1.67Z"/><path fill="#F7E5BC" d="m110.089 101.382-3.353 7.708a4.98 4.98 0 0 1-6.639 2.548l-12.498-5.698 6.232-9.81 7.616 4.243 1.113-3.333c3.927 1.576 6.032 2.954 7.529 4.342"/><path fill="#F7E5BC" d="M95.552 97.644c5.05.828 5.501 1.88 6.854 4.512l-5.411-.601z"/><path fill="#D6569B" d="M71.863 55.794A4.11 4.11 0 0 0 69.09 60.7l5.005 20.438 8.95-1.852-6.02-20.714a4.107 4.107 0 0 0-5.162-2.778"/><path fill="#E374B0" d="m76.865 76.355 3.523-.151-3.746-12.318a1.338 1.338 0 0 0-2.578.698l2.8 11.771Z"/><path fill="#F06EA8" d="M74.957 76.203a2649 2649 0 0 0-5.098-19.026 4.1 4.1 0 0 0-.77 3.525l3.82 15.59z"/><path fill="#D6569B" d="M92.612 55.694a4.113 4.113 0 0 1 2.825 4.876l-4.793 20.49-8.969-1.756 5.802-20.776a4.11 4.11 0 0 1 5.135-2.834"/><path fill="#F06EA8" d="m82.85 75.1.83 1.614s3.184-14.055 4.679-19.798a4.1 4.1 0 0 0-.882 1.612z"/><path fill="#E374B0" d="m89.22 76.306-3.523-.115 3.616-12.357a1.338 1.338 0 0 1 2.586.672z"/><path fill="#F06EA8" d="m94.622 88.267-25.855 1.107a6.725 6.725 0 0 1-7.005-6.435l-.01-.203a6.726 6.726 0 0 1 6.432-7.009l25.854-1.107a6.725 6.725 0 0 1 7.006 6.435l.01.203a6.73 6.73 0 0 1-6.432 7.01Z"/><path fill="#F2C591" d="M71.854 112.901c-1.529-1.407-3.001-2.739-3.321-3.257s.215-.684.984-.95c.77-.267 1.428.659 2.2 2.262.772 1.605 1.524 3.222.137 1.945"/><path fill="#F7E5BC" d="m99.254 106.116-1.477 4.635-.186.586L95.787 117H62.189c-.34-1.226.064-1.473.923-2.861.73-1.18.408-1.036.542-4.412.093-2.355.933-4.561 4-7.3.923-.811 1.153-1.131 2.105-2.01l.278-.254.161-.145.174-.156 22.958-3.628.003.003 4.622 7.712 1.3 2.167Z"/><path fill="#E8C282" d="M96.998 106.134c1.418-3.772 1.474-4.1 1.968-3.008.493 1.092.764 1.039-1.585 4.1-2.352 3.063-.999.542-.383-1.092"/><path fill="#1F3A70" d="M97.777 110.75a104 104 0 0 1-.58 6.25h-24.7a852 852 0 0 0 .125-4.232 32 32 0 0 0 0-1.891c-.152-4.461-1.441-7.519-4.967-8.45a48 48 0 0 1 2.105-2.011q.139-.129.278-.254.165-.147.337-.298l22.958-3.628c1.81.677 3.014 1.138 4.386 2.531.142 1.752.215 3.486.237 5.182a90 90 0 0 1-.178 6.801Z"/><path fill="#172E5C" d="m93.332 96.236-.32.051c-.18.196-.298.335-.298.335-1.172 4.894-3.658 10.019-3.658 10.019s.13 1.261 1.83-1.173c1.455-2.086 3.193-5.26 3.906-7.942q-.725-.652-1.46-1.29M72.945 99.88c4.434 5.352 5.953 6.561 7.604 7.661 1.511 1.006.271-.543-1.448-3.078-1.72-2.536-3.712-5.705-3.712-5.705l-2.444 1.121Zm24.746 11.423a106 106 0 0 1-.505 5.697h-24.69a851 851 0 0 0 .124-4.231q.015-.489.015-.956 0-.358-.012-.708-.003-.114-.005-.227h.002c5.34 1.29 12.366 3.623 13.963 4.17l11.008-3.711z"/><path fill="#244AB0" d="M74.708 102.984s-.222.452-1.18 1.1c-.956.647-1.21.95-1.323.73-.776-1.542-2.002-2.604-3.843-3.09a55 55 0 0 1 2.09-2.004c3.419 1.456 4.256 3.264 4.256 3.264"/><path fill="#D4BF9B" d="m91.308 96.234-4.627 17.37L74.8 96.747l16.507-.513Z"/><path fill="#CCAC89" d="m89.137 104.379-7.91-2.074c-1.425-.374-.705.122 0 1.001.594.741 4.921 5.7 6.267 7.244z"/><path fill="#CF518A" d="M77.382 99.532s9.619 1.302 10.85 1.451 1.245-1.162 1.875-3.74l-11.682.85z"/><path fill="#F06EA8" d="m96.153 99.063-26.595 1.138a6.356 6.356 0 0 1-.544-12.701l26.594-1.138a6.357 6.357 0 0 1 6.62 6.078 6.353 6.353 0 0 1-6.075 6.623"/><path fill="#E05FA3" d="M96.006 99.07c3.409-.146 6.21-2.9 6.229-6.313a6.35 6.35 0 0 0-3.821-5.868 6.71 6.71 0 0 0 2.637-5.63l-.01-.204a6.724 6.724 0 0 0-7.003-6.435l-23.088.987c-2.075 3.975-1.79 8.25-.261 11.326a3.75 3.75 0 0 1 .134 2.995c-2.23 5.922.71 10.188.708 10.188z"/><path fill="#FF8FB1" d="M82.947 117H67.92a6 6 0 0 1 .01-.808q.004-.029.005-.057l.031-.239q.035-.224.09-.425.038-.126.081-.244a2.6 2.6 0 0 1 .493-.819q.041-.045.081-.085c.354-.369.823-.65 1.395-.892a3.95 3.95 0 0 1 2.185-.244l.315.051c2.923.471 5.45.86 7.587 1.414q.158.04.305.101c.298.107.562.256.806.439q.072.055.144.113a7 7 0 0 1 .276.244l.134.132q.066.067.132.139l.13.142q.32.367.644.787.104.13.183.251"/><path fill="#1B1926" d="M77.355 87.057c.59-.388.627-1.378.08-2.212-.546-.834-1.468-1.196-2.06-.808-.59.387-.626 1.378-.08 2.212s1.469 1.195 2.06.808m11.581-1.752c.253-.903-.052-1.777-.68-1.953-.63-.176-1.343.413-1.596 1.316-.252.903.053 1.778.681 1.954.629.176 1.343-.414 1.595-1.317"/><path fill="#E05FA3" d="M65.876 87.656c-1.445-.559-1.81-.708-2.825-1.035a6.77 6.77 0 0 0 2.503 2.086c-.103.076-.195.161-.293.242.786.054 1.294.132 2.007.105 1.39-.049 1.624-.232-1.392-1.398"/><path fill="#F792C0" d="M66.34 79.726c1.072-.976 1.633-2.105 1.255-2.521s-1.555.038-2.626 1.015c-1.072.977-1.634 2.106-1.255 2.522.378.416 1.554-.039 2.626-1.016"/><path fill="#FAD596" d="M64.633 113.563c2.042-.836 2.747-1.168 3.443-1.417s.098-.506-1.465-1.188-1.934-.938-2.046.399-.603 2.482.068 2.206"/><path fill="#F7D08D" d="M68.667 112.866c-3.497.951-3.531 1.425-3.621 2.033-.142.96-.01 1.16 1.294.183s2.771-1.805 3.438-2.099c.666-.29.322-.505-1.111-.117"/><path fill="#172E5C" d="M73.211 112.84c.67-3.528.582-4.486.894-4.544.313-.059.847.791 1.385 1.908.537 1.116-2.279 2.636-2.279 2.636"/><path fill="#F278B0" d="M72.29 113.187c-1.118.139-3.269.168-3.513 3.813h-.855c-.031-.603.015-1.104.135-1.529q.035-.126.08-.244a2.6 2.6 0 0 1 .493-.819q.04-.045.081-.085c.354-.369.823-.65 1.394-.892a3.95 3.95 0 0 1 2.186-.244ZM80.561 117c.501-1.104.665-1.837-.063-2.248.474.176.867.455 1.226.797l.134.132q.066.067.132.139.065.069.13.142.32.367.644.786.103.131.183.252z"/><path fill="#751B40" d="M79.914 90.046c1.614 2.733 3.975 3.354 5.567-.171a.207.207 0 0 0-.193-.294l-5.203.152a.207.207 0 0 0-.171.313"/><path fill="#E05FA3" d="M75.138 87.674c1.126-2.16 3.306-1.251 3.306-1.251l-1.077 2.401-2.23-1.15Zm10.986-1.757c2.254-.916 3.33 1.188 3.33 1.188l-2.375 1.133-.955-2.32Z"/><path fill="#9C2455" d="m83.157 89.643-3.079.088a.205.205 0 0 0-.169.31c1.385 2.348 3.321 3.14 4.85 1.09-.271-.47-.752-1.024-1.602-1.488"/><path fill="#FAD596" d="M101.464 101.677s1.597 3.84 2.129 5.402c.533 1.563-.217 1.358-1.064 1.224-.848-.137-.94-1.234-1.065-3.267-.122-2.035-.486-4.353 0-3.359m1.677-1.031c.257 1.669 1.114 3.203 1.287 3.621.174.417 1.426.139 2.54-.14 1.113-.278.417-.662-.94-1.776-1.355-1.114-3.094-3.063-2.887-1.705"/><path fill="#3366E0" d="m53.671 109.659-1.63-.726c-.03-.012-.03-.054 0-.068l1.63-.726a.1.1 0 0 0 .02-.019l.725-1.632c.012-.03.054-.03.069 0l.725 1.632q.006.011.02.019l1.63.726c.03.012.03.053 0 .068l-1.63.726q-.012.006-.02.019l-.725 1.632c-.013.029-.054.029-.069 0l-.725-1.632q-.006-.015-.02-.019"/><path fill="#FAFAFA" d="m106.11 76.663-.766-.342c-.015-.007-.015-.025 0-.032l.766-.342a.02.02 0 0 0 .01-.01l.342-.767c.005-.014.025-.014.032 0l.342.767a.02.02 0 0 0 .009.01l.767.342c.015.007.015.025 0 .032l-.767.342a.02.02 0 0 0-.009.01l-.342.767c-.005.014-.025.014-.032 0l-.342-.767q-.003-.009-.01-.01"/><path fill="#F7E5BC" d="m59.803 67.132-.767-.342c-.014-.007-.014-.024 0-.031l.767-.343a.02.02 0 0 0 .01-.01l.341-.766c.008-.015.025-.015.032 0l.342.767a.02.02 0 0 0 .01.01l.767.342c.014.007.014.024 0 .031l-.767.342a.02.02 0 0 0-.01.01l-.342.767c-.005.015-.024.015-.032 0l-.341-.767q-.004-.009-.01-.01"/><path fill="#783837" d="M131.647 52h-3.809v65h3.809zM43.87 52h-3.81v65h3.81z"/><path fill="#571E2F" d="M131.647 52h-3.809v49.516h3.809zM43.87 52h-3.81v29.549h3.81z"/><path fill="#7D2952" d="M107.825 64.677a1.414 1.414 0 1 0 0-2.828 1.414 1.414 0 0 0 0 2.828m-8.139-.269a1.414 1.414 0 1 0 0-2.828 1.414 1.414 0 0 0 0 2.828M34 72.001v2.827a1.413 1.413 0 1 0 0-2.827m75.524-1.287a1.414 1.414 0 1 0 0-2.828 1.414 1.414 0 0 0 0 2.828m8.622 14.209a1.414 1.414 0 1 0 0-2.828 1.414 1.414 0 0 0 0 2.828m5.036 5.758a1.414 1.414 0 1 0-.002-2.828 1.414 1.414 0 0 0 .002 2.828m-10.13-13.388a1.414 1.414 0 1 0 0-2.828 1.414 1.414 0 0 0 0 2.828"/><path fill="#5177D6" d="M125.074 97.666h-.967v1.918h.967zm10.353 6.291h-.967v1.917h.967zm-8.397 1.536h-.967v1.918h.967zm-2.44 5.216h-.967v1.918h.967zm-14.116.958h-.967v1.918h.967zM62.116 100.48h-.967v1.918h.967zm-13.347 11.187H47.8v1.918h.968z"/><path fill="#8F80CF" d="M60.387 88.382H53.5v.887h6.886zm58.582 22.327h-4.632v1.341h4.632z"/></g><g clip-path="url(#c)"><path fill="#5E87F9" d="M192 56h-49v28h49z"/><path fill="#6E94FF" d="M143 70c4.552-1.21 9.923.38 11.556 3.946 4.889-1.515 10.544 1.297 13.205 4.598H143z"/><path fill="#7A9DFF" d="M192 64.895c-2.975-.488-6.485.153-7.553 1.592-3.195-.611-6.891.523-8.63 1.854H192z"/><path fill="#FF707E" d="M180.344 80.143c-.919-1.883-.891-1.962-2.512-2.528l2.155 2.997z"/><path fill="url(#d)" d="M155.346 63.474q.047.045.099.09c.07.067.145.13.216.194q.042.034.082.069.094.078.171.146c3.797 3.167 8.681 4.512 11.981 5.472 4.261 1.242 7.808 1.601 10.468 1.612 3.447-.033 4.145-1.782 2.691-3.858l-.828-.98-4.213-4.975q-.104-.124-.207-.243c-2.774-3.201-5.274-4.634-10.525-3.53l-7.987 1.679q-.012.002-.025.005c-2.791.596-4.099 2.235-1.923 4.319"/><path fill="#FFFDC4" d="M164.541 58.086c-3.192.763-8.661 2.311-8.661 2.311l-1.324.184c.461-.657 1.43-1.152 2.713-1.426q.013-.003.025-.006l7.987-1.678c2.479-.521 4.341-.471 5.912.057-2.433-.563-3.842-.115-6.652.558m3.122 11.764c-2.804-.817-8.798-3.122-11.124-5.379.545.529.007-.423 1.056.073 5.516 2.608 18.045 6.135 20.767 6.515-2.67.151-7.845-.379-10.699-1.21Z"/><path fill="url(#e)" d="M154.7 60.398c2.464-.713 8.014-.068 14.163 1.8 6.419 1.95 11.518 4.635 12.882 6.613.161 1.296-.888 2.222-3.383 2.247-2.66-.011-6.206-.37-10.468-1.612-3.299-.961-8.183-2.304-11.981-5.473q-.077-.067-.171-.146-.042-.034-.082-.069-.108-.094-.217-.193l-.099-.09c-1.269-1.217-1.35-2.282-.644-3.077"/><path fill="#6B3143" d="M178.406 69.434c.359-1.111-4.193-3.484-10.167-5.3s-11.108-2.386-11.466-1.275c-.359 1.112 4.193 3.484 10.167 5.3s11.108 2.386 11.466 1.275"/><path fill="#7A384C" d="M156.825 63.264q-.113-.224-.054-.406a.4.4 0 0 1 .105-.171l6.17 2.566-4.624-2.955a8 8 0 0 1 .601 0l4.286 2.777c.173-.032.435-.03.764.001l-2.347-2.494q.428.067.882.151l1.804 2.382c.365.05.787.126 1.254.23l-1.34-2.256q.392.09.797.188l.881 2.144q.406.096.843.216l-.612-2.075q.474.123.962.265l.29 1.973h-.067l.229.068.65-1.718q.365.11.722.226l-1.126 1.568q.29.09.566.183l1.619-1.403c.29.099.578.199.856.298l-1.999 1.268q.308.11.593.22l2.475-1.091q.54.207 1.043.413l-3.064.86c.263.108.508.215.724.32l4.332-.293q.56.271 1.042.535h-4.9q.194.11.336.208l5.969.672c.298.224.532.436.692.63l-6.37-1.046q.065.09.044.159c-.014.04-.055.073-.114.097l6.599 1.587c-.108.14-.313.248-.606.322h-.002l-6.618-1.854a9 9 0 0 1-1.064-.129l5.274 2.046c-.257-.018-.527-.05-.81-.082h-.006l-5.134-2.096-.185-.042 3.304 1.82a46 46 0 0 1-1.572-.328h-.003l-2.38-1.646a27 27 0 0 1-1.29-.36 28 28 0 0 1-1.525-.512l-2.029.367a46 46 0 0 1-1.917-.752l3.104.057-.016-.007-4.747-.799-.002-.002a22 22 0 0 1-1.44-.762l5.249 1.13a6 6 0 0 1-.338-.19z"/><path fill="#2347A1" d="M184.366 84h-27.621c.484-.479 1.084-.774 2.024-1.204l2.139-.28.786-.106 1.708-.225 1.293-.17h.003l.771-.101.338-.045 3.195-.42.746-.1 1.205-.158.476-.065.937-.122.225-.029 2.072-.272 4.924-.649.259-.035q.229-.006.44 0c2.33.06 3.149 1.071 4.08 3.981"/><path fill="#2A52C2" d="M180.213 82.948 179.349 84h-5.048l2.81-2.735 1.223.663z"/><path fill="#EF6270" d="m179.846 80.02-.145.192-.132.172c-.046.056-.093.12-.15.193-.259.33-.629.795-1.084 1.35a110 110 0 0 1-1.421 1.66c-.121.134-.24.271-.367.412h-17.578c-.142-.733-.199-1.204-.199-1.204v-.004c0-.233.13-.453.341-.569l1.602-.891v-.003h.004l-.01-.114a1 1 0 0 1-.005-.11 19 19 0 0 1-.03-.48l-.009-.145q-.008-.138-.013-.2-.004-.049-.003-.05l-.057-.92a1.12 1.12 0 0 1 .451-.968l2.127-1.604.189-.146.584-.438 1.47-1.11.84-.12h.004l1.111-.163h.012l1.498-.213.436-.064 1.124-.16.535-.08.09-.011.292.044.383.059.795.122a2.47 2.47 0 0 1 1.683 1.067l.862 1.3h.003l.063.02h.003l.543.155 1.785.512.362.105q.127.044.24.087.01.001.018.006c.479.201.871.564 1.102 1.023z"/><path fill="#FF707E" d="M175.686 77c-.427-1.028-.648-2.249-3.323-2.768l-1.969-.285.156 1.557 3.732 2.387 1.404-.89Z"/><path fill="#E05164" d="m179.846 80.02-.145.192-.132.172q-.066.084-.15.193c-.259.33-.629.795-1.084 1.35a110 110 0 0 1-1.421 1.66q-.181.203-.37.412H168.3c.193-.655.479-1.65.612-2.218a5 5 0 0 1 .09-.333c.198-.699.361-1.122-.84-1.306l.123-.604.545-2.691c.004.003.004 0 .004 0l.141-.71v-.006l.108-.514v-.003l.181-.888v-.003l.048-.24 1.124-.16.535-.08.09-.011.292.044.383.059.795.122a2.47 2.47 0 0 1 1.683 1.067l.864 1.3.063.02h.003l.543.155 1.785.512.362.105q.127.044.24.087.01.002.018.006c.479.201.871.564 1.102 1.023z"/><path fill="#BD3C53" d="M172.248 77.149c1.344-.981 1.253-.905.51-1.379a3.15 3.15 0 0 0-1.523-.477z"/><path fill="#E05164" d="M172.59 80.976 170.398 84h-1.659c.903-.941 1.846-1.946 2.689-2.873 1.202-1.323 2.196-2.48 2.569-3.045l-.114.717-.081.508zm2.834 1.87c-.313.292-.786.669-1.442 1.154h-2.061c.974-.391 2.244-.967 3.073-1.473 1.261-.771 1.096-.292.43.319"/><path fill="#C74153" d="M162.766 77.456c-1.484 1.263-2.233.926 1.291 5.608l.849-.538 2.454-2.679-3.121-3.812z"/><path fill="#FFB685" d="M163.227 64.886c.086-.283 2.11.052 4.519.748 2.409.697 4.291 1.49 4.205 1.774-.494 3.894-.422 7.342.297 9.74l-7.341 5.38c-3.083-7.186-2.144-13.556-1.68-17.642"/><path fill="#FE9B77" d="m166.469 74.778 2.838-.05.313 1.612c-1.114 1.09-2.752.656-3.577-.058-1.1.918-2.164.91-2.916.1l-.022-.024a29 29 0 0 1-.187-1.33c1.168-.33 3.551-.25 3.551-.25"/><path fill="#FE9B77" d="M169.307 79.114c-.704-4.684-.541-10.31-.449-13.139 1.849.597 3.165 1.196 3.092 1.433-.494 3.894-.422 7.343.297 9.74z"/><path fill="#A8387E" d="M163.227 64.886c.086-.283 2.11.052 4.519.748 2.409.697 4.292 1.49 4.205 1.774q-.094.748-.162 1.472c-2.622-.305-6.263.089-9.023.91.092-1.86.303-3.515.461-4.904" opacity=".4"/><path fill="#FFCD8F" d="m165.916 58.982-1.37.255.402.625z"/><path fill="#543247" d="M168.261 72.638c.162-.28.123-.601-.088-.715-.21-.114-.512.021-.674.302-.161.281-.122.601.089.715.21.114.512-.02.673-.302"/><path fill="#FFD08F" d="M169.617 57.68s-.698-.053-1.01.179c.348.392 1.01-.178 1.01-.178Z"/><path fill="#FFFDC4" d="M167.363 57.673c-1.508-.347-1.635.417-1.635.417z"/><path fill="#D4655B" d="M178.425 66.69c-.074.53-1.3.874-1.3.874l.502.373c1.271-.029 1.595-.65 1.595-.65s-.222-.268-.797-.597m3.236 2.303c-.204.579-2.809.232-2.809.232l-.086.297c1.924.33 2.758.165 2.758.165s.113-.17.137-.694"/><path fill="#DC7363" d="M172.058 63.567c-.145.685-1.016 1.143-1.016 1.143l-1.413-.423c.398-.545.572-1.305.572-1.305s.969.25 1.857.585"/><path fill="#D14658" d="m162.727 83.98-.03.02h-1.446a45 45 0 0 1-.343-1.485 11 11 0 0 1-.196-1.183v-.003a2 2 0 0 1-.006-.114 1 1 0 0 1-.005-.11 19 19 0 0 1-.03-.48l-.009-.145q-.008-.137-.013-.2-.004-.049-.003-.05c.256.746.647 1.511 1.048 2.181a21 21 0 0 0 1.033 1.569"/><path fill="#CC4355" d="M177.472 77.51c-.687.912-1.714 2.06-2.81 3.194A62 62 0 0 1 171.241 84h-1.168a72 72 0 0 0 2.292-2.995 55 55 0 0 0 1.517-2.206c.241-.365.47-.73.684-1.087v-.003q.272-.45.512-.882c.012.012.029.017.063.017h.003l.542.155 1.786.51Z"/><path fill="#E65568" d="m173.649 76.825-3.637 3.406-.705 2.98 3.993-4.903z"/><path fill="#BD3C53" d="m164.681 81.981 7.494-5.086.128-.105c.218-.187.39-.181-.056.357l-7.341 5.38q-.116-.273-.225-.546"/><path fill="#FF99B9" d="m183.066 61.397-.945-.408c-.017-.008-.017-.031 0-.038l.945-.408a.02.02 0 0 0 .012-.011l.42-.916c.008-.017.032-.017.039 0l.42.916q.004.008.012.011l.944.408c.017.008.017.031 0 .038l-.944.408a.02.02 0 0 0-.012.01l-.42.917c-.008.017-.032.017-.039 0l-.42-.916q-.005-.008-.012-.011"/><path fill="#5580F9" d="m150.598 75.72-.944-.408c-.017-.008-.017-.031 0-.038l.944-.408a.02.02 0 0 0 .012-.01l.42-.917c.008-.017.032-.017.039 0l.42.916q.004.008.012.011l.945.408c.017.008.017.031 0 .038l-.945.408a.02.02 0 0 0-.012.01l-.42.917c-.008.017-.032.017-.039 0l-.42-.916q-.005-.01-.012-.011"/><path fill="#EB9363" d="M178.337 63.99c-1.512-1.335-2.784-1.889-2.784-1.889 1.421.278 2.429.73 2.784 1.889"/><path fill="#FFFDC4" d="m162.958 58.09-2.412.504c.283-.525.604-.622 2.412-.504"/><path fill="#C74153" d="M167.304 76.065c-.984.007-1.929-.017-2.232.227-.305.244.174.805.905 1.339.31.226.462.25 1.231-.402.556-.47.857-1.17.096-1.164"/><path fill="#A82C3C" d="m166.902 76.112.831.13c.115.239-.145.665-.525.987-.769.651-.92.628-1.23.401a6 6 0 0 1-.34-.268c.128-.283.528-1.023 1.264-1.25"/><path fill="#fff" d="M165.412 76.154c.44-.096 1.155-.083 1.892-.089.419-.003.515.208.425.477-.453.01-2.083.05-2.26.05-.127 0-.098-.248-.057-.438"/><path fill="#6B3143" d="M162.119 74.798c-.223-.394-.097-1.012.39-1.328a.524.524 0 0 0 .41.705c.269.049.777-.052.989-.13.61-.227 1.288-.236 2.115.172 1.11-.58 1.868-.07 2.884-.07.278 0 .553-.041.82-.112.854-.242.834-.643.649-1.066 1.216.282 1.162 1.538.623 2.094-.313.384-.911.56-1.697.378-1.23 1.008-1.839 1.085-3.278.178-1.177.961-2.307.853-2.975-.334-.002 0-.688-.06-.93-.487"/><path fill="#5E2737" d="M166.022 75.62c-1.177.96-2.308.852-2.975-.334 0 0-1.064-.088-1.034-.88.127.311.686.611 1.215.497.846.672 1.744.468 2.591-.157 0 0 1.779.925 3.051-.097 1.445.351 2.472-.296 2.298-1.179.342.5.201 1.212-.17 1.593-.313.384-.911.56-1.698.379-1.229 1.008-1.839 1.084-3.278.178"/><path fill="#543247" d="M164.88 72.95c.211-.088.282-.386.159-.667-.124-.281-.395-.438-.605-.351-.211.087-.282.385-.159.666.124.281.395.438.605.351Z"/></g><g clip-path="url(#f)"><path fill="#F7E5BC" d="M192 86h-49v28.982h49z"/><path fill="#6ADBC6" d="M192 102.197v12.785h-49V99.863c5.538-4.64 12.763-1.182 13.254 2.781 6.521-2.376 11.508.063 12.837 3.421 4.974-3.05 10.373-2.866 13.179 0 2.383-3.308 7.54-4.685 9.73-3.868"/><path fill="#44C9C5" d="M173.099 105.315c5.395.031 10.008 2.618 12.232 9.685h-16.24z"/><path fill="#44C9C5" d="M178.664 114.982H192v-6.214c-3.236.323-9.101 1.567-13.336 6.214"/><path fill="#FAFAFA" d="M182.022 112.049h-29.104c-1.839 1.753-1.934 2.933-1.934 2.933h33.208s-.896-1.938-2.17-2.933"/><path fill="#CC4F79" d="M182.699 113.327a.524.524 0 0 0 .115-.673c-.425-.701-.561-1.247-1.513-1.751-1.112-.587-1.58-1.117-4.498-1.492-.594-1.535-.475-1.995-4.882-2.347h-12.195c-1.999.33-2.139.33-2.488 1.513-.348 1.183-.348 1.042-1.397 1.464s-2.672.51-3.302 1.904c-.206.454-.288.783.906 3.036h26.874a16 16 0 0 0 2.38-1.654"/><path fill="#590942" d="M173.099 107.557c2.102.369 2.029.369.596 2.048-1.434 1.679-3.232 3.247-5.274 4.077-3.187 1.298-5.925.082-7.583-1.861-2.415-2.832-3.459-4.266-1.415-4.266 2.737.002 13.676.002 13.676.002"/><path fill="#FAFAFA" d="m179.395 91.636-.945-.422c-.017-.008-.017-.032 0-.039l.945-.422a.02.02 0 0 0 .011-.012l.42-.948c.008-.018.032-.018.039 0l.421.948a.02.02 0 0 0 .011.012l.945.422c.017.008.017.032 0 .039l-.945.422a.02.02 0 0 0-.011.012l-.421.948c-.008.018-.032.018-.039 0l-.42-.948a.02.02 0 0 0-.011-.012"/><path fill="#F7D78D" d="m152.844 92.985-.62-.277a.014.014 0 0 1 0-.025l.62-.277a.01.01 0 0 0 .007-.007l.276-.622c.004-.012.02-.012.025 0l.276.622a.01.01 0 0 0 .007.007l.619.277a.013.013 0 0 1 0 .025l-.619.277a.01.01 0 0 0-.007.007l-.276.623c-.005.011-.021.011-.025 0l-.276-.623z"/><path fill="#2E64E8" d="M161.103 98.273c-.821-2.29-2.246-3.968-2.934-4.275s-.512.082.129 2.012c.642 1.93.649 5.11 1.833 5.128s.972-2.865.972-2.865"/><path fill="#1C4BBA" d="M159.603 98.868c-.489-.983-.523-1.46-.715-2.204a99 99 0 0 0-.379-1.404c.596 1.067 1.628 3.435 1.846 4.183.221.778-.259.41-.752-.575"/><path fill="#2E64E8" d="M171.925 98.419c1.156-2.44 3.013-4.171 3.875-4.459s.621.124-.293 2.183-1.134 5.521-2.584 5.462c-1.45-.061-.998-3.186-.998-3.186"/><path fill="#201E2F" d="M167.591 91.884a2.407 2.407 0 0 0 2.402-2.412 2.407 2.407 0 0 0-2.402-2.412 2.41 2.41 0 0 0-2.402 2.412 2.41 2.41 0 0 0 2.402 2.412"/><path fill="#41314A" d="M169.896 90.106c.082-.62-.918-1.265-2.233-1.44s-2.448.185-2.53.806c-.082.62.918 1.265 2.233 1.44s2.448-.186 2.53-.806"/><path fill="#4D7AE8" d="M171.61 91.405c-2.479-2.338-6.562-2.638-9.362-.616-2.675 1.932-2.223 5.186-1.763 8.656l11.859.344c.489-1.89 1.746-6.045-.734-8.384"/><path fill="#4D7AE8" d="m172.612 98.755-11.982-.346c-2.198 4.852-4.385 13.877 5.497 14.163 9.414.272 8.689-8.337 6.485-13.817"/><path fill="#2E64E8" d="M172.612 98.757c.522-2.109 1.092-5.378-1.001-7.351-.072-.068-.151-.128-.225-.193l-.626-.019s.267 4.088.045 5.707c-.223 1.62-.14 1.797.355 2.021.623.282.95.48.852 2.559s-.218 2.358.237 4.828c.453 2.463-.152 4.049-1.445 5.36 4.361-2.317 3.548-8.587 1.808-12.912"/><path fill="#3366E0" d="M163.358 108.112c1.29 1.748 4.802 2.197 6.232.065.714-1.066-1.176-1.124-3.089-1.112-1.912.011-3.849.091-3.143 1.047"/><path fill="#DBE7FF" d="M168.28 99.012c.029-1.029-.736-1.885-1.709-1.913s-1.786.782-1.816 1.81c-.029 1.03.736 1.886 1.709 1.914s1.786-.783 1.816-1.811"/><path fill="#201E2F" d="M167.189 99.254c.019-.396-.271-.73-.646-.748s-.694.288-.713.683.271.73.646.748.695-.288.713-.683m-2.574-3.522c.746-1.56 3.474-1.401 4.108.119l-4.108-.12Z"/><path fill="#400015" d="M163.93 102.237q.175.049.334.111l.332.088.33.078c.11.021.223.031.332.049.444.053.894.07 1.338-.003.45-.033.888-.163 1.315-.315l.319-.126.309-.151.309-.16q.143-.095.303-.181l.038-.021a.847.847 0 0 1 1.149.351.86.86 0 0 1-.025.848 4.15 4.15 0 0 1-1.476 1.422 5.2 5.2 0 0 1-1.959.662 5 5 0 0 1-2.074-.18 4 4 0 0 1-1.763-1.075.854.854 0 0 1 .844-1.41z"/><path fill="#590942" d="M163.569 104.088a4 4 0 0 0 1.234.619c.67.212 1.383.258 2.074.18a5.2 5.2 0 0 0 1.959-.661c.429-.246.813-.57 1.13-.949-.588-.563-1.164-.942-1.715-1.171l-.023.012-.319.126c-.428.153-.866.282-1.315.314-.444.073-.894.056-1.338.004-.109-.017-.222-.029-.332-.05l-.036-.008a4.4 4.4 0 0 0-1.319 1.584"/><path fill="#DBE7FF" d="m169.727 102.69.033-1.164a.85.85 0 0 0-.572.079l-.038.021a4 4 0 0 0-.303.181l-.309.16-.309.151-.319.126c-.428.153-.866.283-1.315.315-.444.073-.894.056-1.337.003-.11-.017-.223-.029-.333-.049l-.33-.078-.332-.088a3 3 0 0 0-.334-.111l-.045-.013a.85.85 0 0 0-.34-.017l-.017.596c2.266 1.104 4.827.483 6.2-.112"/><path fill="#B5CDFF" d="m164.364 102.374-.1-.026a3 3 0 0 0-.334-.111l-.044-.013a.9.9 0 0 0-.341-.017l-.017.596c.237.116.477.207.718.287zm4.095.749c.485-.126.915-.28 1.269-.432l.033-1.164a.85.85 0 0 0-.572.079l-.038.02a4 4 0 0 0-.303.181l-.309.16-.118.059z"/><path fill="#3366E0" d="m169.333 100.578 1.752.877c.032-1.062-.854-1.181-1.752-.877m-7.657 2.349 1.624-1.605c-1.236-.029-1.724.796-1.624 1.605m.965 1.638a63 63 0 0 0 1.112 1.498c-1.12-.096-1.112-1.498-1.112-1.498"/><path fill="#201E2F" d="M171.61 91.405c-2.48-2.338-6.563-2.638-9.362-.616-1.288.93-1.848 2.17-2.033 3.59 1.547 1.182 1.717-.887 2.361-3.04 2.3 1.882 5.79 1.898 8.024.232l.096 1.818c.092 1.768 1.282 1.968 2.345 1.035-.137-1.114-.544-2.183-1.431-3.02Z"/><path fill="#618AED" d="M163.909 94.214c.292-.298.402-.663.248-.816s-.517-.035-.809.263c-.291.297-.402.663-.247.816s.516.035.808-.263"/><path fill="#1C4BBA" d="M175.093 95.133c-.973 1.43-1.357 2.217-1.651 2.806-.294.59.003.668.099 1.39.094.722.313.38.614-.84s.457-1.666.75-2.331c.293-.666.8-1.923.188-1.025"/><path fill="#BA3B66" d="M176.588 109.989c-.559 1.499-2.038 4.993-2.038 4.993h-4.34c2.3-1.61 4.048-3.424 4.835-4.828.748-1.337.943-2.223 1.538-.666a.7.7 0 0 1 .005.501m-.802 4.993c2.087-2.48 2.77-3.326 3.332-3.649s1.486-.807.482.726-2.691 2.923-2.691 2.923zm-14.395 0c-1.621-1.959-2.732-3.885-3.152-4.949-.42-1.063-.552-1.328-.652-.73s-.33.865-.132 1.695.885 3.054 1.302 3.985zm-6.666.003-.641-.003c-.73-1.86-1.028-2.698-1.055-3.312-.026-.61.701 1.44 1.696 3.315m2.655.015-1.347-.006c-.352-2.687-.352-3.214-.27-3.97.082-.755.46-.103.734 1.256.269 1.358.883 2.72.883 2.72"/><path fill="#542113" d="M151.98 109.731c1.192-1.941 2.479-2.893 4.051-3.747 1.571-.853 1.765-1.351.604-1.748-1.162-.396-2.139-.234-3.516.333-1.376.566-2.363.908-2.78 2.535-.419 1.626.166 2.605 1.641 2.627"/><path fill="#542113" d="M152.375 107.699c.744-3.129 1.25-5.49 1.73-7.619.479-2.128 1.014-3.372.185-3.752-.83-.38-1.258-.237-2.348 2.188s-1.555 4.18-1.912 5.432c-.358 1.255-1.538 4.691 2.345 3.751"/><path fill="#542113" d="m150.828 102.805-.714-.111c.379-4.14.592-5.904.681-7.093s-.401-1.213-1.151-1.251-1.025.284-1.361 1.84c-.338 1.558-.73 4.25-.869 5.311s-.404 3.513-.385 4.298c.018.785 3.798 1.137 3.799-2.994"/><path fill="#542113" d="M147.342 103.842c.116-1.615-.131-5.916-.151-6.713-.019-.798-.31-.72-.988-.74-.678-.019-.968.292-1.065 2.18-.097 1.887-.233 3.929-.213 4.884a9.6 9.6 0 0 0-.543 4.182c.136 1.5.33 1.907.601 2.374s1.898.992 3.991 1.206 2.271-.091 3.004-1.485-.641-5.111-.641-5.111z"/><path fill="#542113" d="M144.52 108.715c-.309.716-.922 2.433-1.505 4.115a2.41 2.41 0 0 0 2.389 2.151h5.847c-.011-.184-.174-2.941.372-4.602 0 0-6.41-3.27-7.103-1.664"/><path fill="#4A1A0D" d="M151.623 105.487c-1.347.855-1.713 1.277-2.043 1.864-.332.587-.659.657-1.874.681s-1.238.047-1.588-1.408.171-2.071 1.495-2.017c1.752.07 4.82.424 4.01.88m-6.133-2.505h4.502c-1.392-.637-3.353-.558-4.502 0m5.319.202a80 80 0 0 1 1.985.808c-.96-1.416-1.985-.808-1.985-.808m.726-3.04c.696.14 2.09.475 2.09.475-1.175-1.24-2.09-.475-2.09-.475m-3.4-.984c.653.056 1.968.223 1.968.223-1.264-1.084-1.968-.224-1.968-.224Zm-2.758 1.003c.545-.071 1.651-.17 1.651-.17-1.24-.67-1.651.17-1.651.17"/><path fill="#732D1A" d="M157.259 104.566c-1.055.799-2.611.958-4.1 1.724-1.491.767-1.756 1.573-2.175 2.699-.264.711-.504 1.663-.646 2.269.87-.09 1.114-.527 1.641-1.528 1.192-1.941 2.48-2.893 4.051-3.747 1.168-.633 1.574-1.071 1.229-1.417"/><path fill="#4A1A0D" d="M151.623 110.379c.11-.183.224-.397.355-.648q.108-.175.217-.339l-.001.001c-.736.99-2.677 1.206-4.336 1.313s-3.036-.417-3.339-1.988c-.197.458-.892 2.227-1.519 3.879v2.385h8.251c-.011-.184-.174-2.94.372-4.603"/><path fill="#732D1A" d="M154.304 96.337c.092.293.131.7.02 1.224-.218 1.042-.699 3.058-1.744 7.23l.516-.199c.384-1.693.702-3.151 1.009-4.512.475-2.113 1.005-3.353.199-3.743m-3.509-.737c-.09 1.184-.303 3.01-.682 7.101l-.307-.069.499-8.2c.355.109.547.383.49 1.169Z"/><path fill="#44C9C5" d="m185.484 107.557 3.613-2.634c-1.143-.116-3.384 0-3.613 2.634"/></g><defs><linearGradient id="a" x1="0" x2="143.557" y1="154" y2="-55.743" gradientUnits="userSpaceOnUse"><stop stop-color="#B473F5"/><stop offset="1" stop-color="#E292AA"/></linearGradient><linearGradient id="d" x1="165.235" x2="169.956" y1="58.283" y2="70.819" gradientUnits="userSpaceOnUse"><stop stop-color="#FFC285"/><stop offset="1" stop-color="#DB8D6B"/></linearGradient><linearGradient id="e" x1="181.762" x2="154.256" y1="65.587" y2="65.587" gradientUnits="userSpaceOnUse"><stop stop-color="#D67569"/><stop offset="1" stop-color="#E39E7F"/></linearGradient><clipPath id="b"><path fill="#fff" d="M34 52h105v65H34z"/></clipPath><clipPath id="c"><path fill="#fff" d="M143 56h49v28h-49z"/></clipPath><clipPath id="f"><path fill="#fff" d="M143 86h49v29h-49z"/></clipPath></defs></svg>