<svg xmlns="http://www.w3.org/2000/svg" width="643" height="643" style="width:100%;height:100%;transform:translate3d(0,0,0);content-visibility:visible;background-color:transparent" viewBox="0 0 200 200"><defs><linearGradient id="f" x1="-73.017" x2="71.279" y1="-.886" y2="-.886" gradientUnits="userSpaceOnUse" spreadMethod="pad"><stop offset="0%" stop-color="#8447C4"/><stop offset="50%" stop-color="#9652A7"/><stop offset="100%" stop-color="#A95C89"/></linearGradient><linearGradient id="g" x1="-73.017" x2="71.279" y1="-.886" y2="-.886" gradientUnits="userSpaceOnUse" spreadMethod="pad"><stop offset="0%" stop-color="#8447C4"/><stop offset="50%" stop-color="#9652A7"/><stop offset="100%" stop-color="#A95C89"/></linearGradient><linearGradient id="k" x1="-73.017" x2="71.279" y1="-.886" y2="-.886" gradientUnits="userSpaceOnUse" spreadMethod="pad"><stop offset="0%" stop-color="#8447C4"/><stop offset="50%" stop-color="#9652A7"/><stop offset="100%" stop-color="#A95C89"/></linearGradient><linearGradient id="j" x1="38" x2="0" y1="35" y2="-24" gradientUnits="userSpaceOnUse" spreadMethod="pad"><stop offset="0%" stop-color="#6687D1"/><stop offset="50%" stop-color="#87A6E8"/><stop offset="100%" stop-color="#A9C4FF"/></linearGradient><mask id="m" mask-type="alpha"><use xmlns:ns1="http://www.w3.org/1999/xlink" ns1:href="#a"/></mask><mask id="l" mask-type="alpha"><use xmlns:ns2="http://www.w3.org/1999/xlink" ns2:href="#c"/></mask><mask id="i" mask-type="alpha"><use xmlns:ns3="http://www.w3.org/1999/xlink" ns3:href="#e"/></mask><g id="a" style="display:block"><path fill="url(#f)" d="M-64.203-14.819a5.26 5.26 0 0 0 3.619-1.439 5.08 5.08 0 0 0 1.567-3.56 5.2 5.2 0 0 0-1.54-3.559c-.954-.951-2.239-1.467-3.581-1.494h-2.888c-1.342.027-2.625.543-3.581 1.494a5.22 5.22 0 0 0-1.541 3.559 5.1 5.1 0 0 0 1.546 3.532 5.05 5.05 0 0 0 3.576 1.467zm105.91 60.861a50.1 50.1 0 0 0 16.451-11.303 49.9 49.9 0 0 0 10.708-16.845 50 50 0 0 0 3.246-19.698 50 50 0 0 0-4.732-19.399 51.96 51.96 0 0 0-18.329-20.84 52.13 52.13 0 0 0-26.453-8.45h-52.527c-1.081-.081-2.171.028-3.203.381a7.9 7.9 0 0 0-2.777 1.63 7.75 7.75 0 0 0-1.883 2.636 7.82 7.82 0 0 0 0 6.303 7.6 7.6 0 0 0 1.883 2.608 7.5 7.5 0 0 0 2.777 1.631 7.6 7.6 0 0 0 3.203.38h13.33c.709-.082 1.424 0 2.103.217a5.2 5.2 0 0 1 1.836 1.033 5.2 5.2 0 0 1 1.25 1.711c.291.652.443 1.359.443 2.065s-.152 1.413-.443 2.065a5.2 5.2 0 0 1-1.25 1.712c-.53.462-1.157.842-1.836 1.032-.679.217-1.394.3-2.103.218h-33.158a5.1 5.1 0 0 0-3.6 1.467 5.13 5.13 0 0 0-1.522 3.586c.008.652.147 1.331.411 1.929.261.625.64 1.169 1.116 1.631a5 5 0 0 0 1.655 1.059c.617.272 1.274.38 1.94.38h23.572c.663 0 1.321.109 1.935.381a4.95 4.95 0 0 1 1.638 1.087c.47.462.843 1.032 1.098 1.657.253.598.383 1.25.383 1.929 0 .652-.13 1.304-.383 1.929a4.8 4.8 0 0 1-1.098 1.63c-.467.489-1.024.842-1.638 1.114a5.3 5.3 0 0 1-1.935.381h-14.71a5.2 5.2 0 0 0-1.939.353 5.1 5.1 0 0 0-1.655 1.086 5.1 5.1 0 0 0-1.117 1.604 5.2 5.2 0 0 0-.41 1.956 5.12 5.12 0 0 0 1.524 3.559 5.12 5.12 0 0 0 3.597 1.494h10.243a50.6 50.6 0 0 0 4.467 16.003A51.94 51.94 0 0 0 2.783 47.373a52.02 52.02 0 0 0 38.924-1.331M-6.028 11.971A28.5 28.5 0 0 1-6.875-10.2a28.35 28.35 0 0 1 6.02-9.563 28.4 28.4 0 0 1 9.271-6.494 29.55 29.55 0 0 1 22.371-.869c7.284 2.635 13.235 8.07 16.566 15.052a28.6 28.6 0 0 1 2.646 11.003 28.4 28.4 0 0 1-1.826 11.14 28.7 28.7 0 0 1-6.01 9.591 28.7 28.7 0 0 1-9.254 6.493c-7.056 3.179-15.084 3.506-22.363.843A29.55 29.55 0 0 1-6.028 11.971" transform="translate(85.017 141.886)"/><path fill="#8447C5" d="M20.878 117.015H17.99c-1.342.027-2.625.543-3.581 1.494a5.22 5.22 0 0 0-1.541 3.559 5.1 5.1 0 0 0 1.546 3.532 5.05 5.05 0 0 0 3.576 1.467h2.823a5.26 5.26 0 0 0 3.619-1.439 5.08 5.08 0 0 0 1.568-3.56 5.2 5.2 0 0 0-1.541-3.559c-.954-.951-2.239-1.467-3.581-1.494"/><path fill="#CE8BD9" d="m85.729 162.927-14.833 16.231a52 52 0 0 0 7.543 5.593l15.229-16.664a29.5 29.5 0 0 1-7.939-5.16M130.988 127.249l15.082-16.503a52 52 0 0 0-6.49-6.745l-14.7 16.085c2.389 2.045 4.467 4.447 6.108 7.163M135.016 140.815q.053 1.436-.038 2.864l18.574-20.325a50 50 0 0 0-1.155-2.672 52 52 0 0 0-3.482-6.101l-15.737 17.221a28.7 28.7 0 0 1 1.838 9.013M98.478 169.772 82.67 187.069a52 52 0 0 0 5.131 2.19c1.415.516 2.848.958 4.291 1.347l18.642-20.398c-4.059.7-8.231.578-12.256-.436"/></g><g id="c" style="display:block"><path fill="url(#g)" d="M-64.203-14.819a5.26 5.26 0 0 0 3.619-1.439 5.08 5.08 0 0 0 1.567-3.56 5.2 5.2 0 0 0-1.54-3.559c-.954-.951-2.239-1.467-3.581-1.494h-2.888c-1.342.027-2.625.543-3.581 1.494a5.22 5.22 0 0 0-1.541 3.559 5.1 5.1 0 0 0 1.546 3.532 5.05 5.05 0 0 0 3.576 1.467zm105.91 60.861a50.1 50.1 0 0 0 16.451-11.303 49.9 49.9 0 0 0 10.708-16.845 50 50 0 0 0 3.246-19.698 50 50 0 0 0-4.732-19.399 51.96 51.96 0 0 0-18.329-20.84 52.13 52.13 0 0 0-26.453-8.45h-52.527c-1.081-.081-2.171.028-3.203.381a7.9 7.9 0 0 0-2.777 1.63 7.75 7.75 0 0 0-1.883 2.636 7.82 7.82 0 0 0 0 6.303 7.6 7.6 0 0 0 1.883 2.608 7.5 7.5 0 0 0 2.777 1.631 7.6 7.6 0 0 0 3.203.38h13.33c.709-.082 1.424 0 2.103.217a5.2 5.2 0 0 1 1.836 1.033 5.2 5.2 0 0 1 1.25 1.711c.291.652.443 1.359.443 2.065s-.152 1.413-.443 2.065a5.2 5.2 0 0 1-1.25 1.712c-.53.462-1.157.842-1.836 1.032-.679.217-1.394.3-2.103.218h-33.158a5.1 5.1 0 0 0-3.6 1.467 5.13 5.13 0 0 0-1.522 3.586c.008.652.147 1.331.411 1.929.261.625.64 1.169 1.116 1.631a5 5 0 0 0 1.655 1.059c.617.272 1.274.38 1.94.38h23.572c.663 0 1.321.109 1.935.381a4.95 4.95 0 0 1 1.638 1.087c.47.462.843 1.032 1.098 1.657.253.598.383 1.25.383 1.929 0 .652-.13 1.304-.383 1.929a4.8 4.8 0 0 1-1.098 1.63c-.467.489-1.024.842-1.638 1.114a5.3 5.3 0 0 1-1.935.381h-14.71a5.2 5.2 0 0 0-1.939.353 5.1 5.1 0 0 0-1.655 1.086 5.1 5.1 0 0 0-1.117 1.604 5.2 5.2 0 0 0-.41 1.956 5.12 5.12 0 0 0 1.524 3.559 5.12 5.12 0 0 0 3.597 1.494h10.243a50.6 50.6 0 0 0 4.467 16.003A51.94 51.94 0 0 0 2.783 47.373a52.02 52.02 0 0 0 38.924-1.331M-6.028 11.971A28.5 28.5 0 0 1-6.875-10.2a28.35 28.35 0 0 1 6.02-9.563 28.4 28.4 0 0 1 9.271-6.494 29.55 29.55 0 0 1 22.371-.869c7.284 2.635 13.235 8.07 16.566 15.052a28.6 28.6 0 0 1 2.646 11.003 28.4 28.4 0 0 1-1.826 11.14 28.7 28.7 0 0 1-6.01 9.591 28.7 28.7 0 0 1-9.254 6.493c-7.056 3.179-15.084 3.506-22.363.843A29.55 29.55 0 0 1-6.028 11.971" transform="translate(85.017 141.886)"/><path fill="#8447C5" d="M20.878 117.015H17.99c-1.342.027-2.625.543-3.581 1.494a5.22 5.22 0 0 0-1.541 3.559 5.1 5.1 0 0 0 1.546 3.532 5.05 5.05 0 0 0 3.576 1.467h2.823a5.26 5.26 0 0 0 3.619-1.439 5.08 5.08 0 0 0 1.568-3.56 5.2 5.2 0 0 0-1.541-3.559c-.954-.951-2.239-1.467-3.581-1.494"/><path fill="#CE8BD9" d="m85.729 162.927-14.833 16.231a52 52 0 0 0 7.543 5.593l15.229-16.664a29.5 29.5 0 0 1-7.939-5.16M130.988 127.249l15.082-16.503a52 52 0 0 0-6.49-6.745l-14.7 16.085c2.389 2.045 4.467 4.447 6.108 7.163M135.016 140.815q.053 1.436-.038 2.864l18.574-20.325a50 50 0 0 0-1.155-2.672 52 52 0 0 0-3.482-6.101l-15.737 17.221a28.7 28.7 0 0 1 1.838 9.013M98.478 169.772 82.67 187.069a52 52 0 0 0 5.131 2.19c1.415.516 2.848.958 4.291 1.347l18.642-20.398c-4.059.7-8.231.578-12.256-.436"/></g><clipPath id="h"><path d="M0 0h200v200H0z"/></clipPath><path id="e" fill="#CE8BD9" d="M57.75-137.75-67.5-127.5l-10.25 111 10 10.25L8-6.5s9.75-38 11.25-23.5S35-6.25 43-12s64.75-85.25 64.75-85.25z" style="display:block" transform="translate(100 106)"/></defs><g clip-path="url(#h)"><path fill="#6D3190" d="M157.16 135.822c0-22.221-12.023-36.211-12.023-36.211a52 52 0 0 0-11.07-9.768 52.13 52.13 0 0 0-26.452-8.45H55.088c-1.081-.081-2.172.028-3.204.381a7.9 7.9 0 0 0-2.777 1.63 7.8 7.8 0 0 0-1.882 2.636 7.7 7.7 0 0 0-.659 3.015h-.007v10.136h2.839c.737.614 1.576 1.103 2.486 1.391a7.6 7.6 0 0 0 3.204.38h13.329c.709-.082 1.424 0 2.103.217a5.2 5.2 0 0 1 1.837 1.033 5.2 5.2 0 0 1 1.249 1.711c.291.652.443 1.359.443 2.065s-.152 1.413-.443 2.065a5.2 5.2 0 0 1-1.249 1.712c-.53.462-1.158.842-1.837 1.032-.679.217-1.394.3-2.103.218H35.259a5.1 5.1 0 0 0-3.6 1.467 5.13 5.13 0 0 0-1.521 3.586v6h3.071v-1.437c.038.016.071.041.11.056.617.272 1.274.38 1.94.38h23.572c.663 0 1.321.109 1.935.381a4.95 4.95 0 0 1 1.638 1.087c.47.462.843 1.032 1.098 1.657.253.598.383 1.25.383 1.929 0 .652-.13 1.304-.383 1.929a4.8 4.8 0 0 1-1.098 1.63c-.467.489-1.024.842-1.638 1.114a5.3 5.3 0 0 1-1.935.381H44.122c-.663 0-1.323.108-1.94.353a5.1 5.1 0 0 0-1.655 1.086 5.1 5.1 0 0 0-1.116 1.604 5.2 5.2 0 0 0-.411 1.956v6h3.315v-1.295a5 5 0 0 0 1.807.348h10.243a50.6 50.6 0 0 0 4.466 16.003A51.94 51.94 0 0 0 87.8 183.259a52.02 52.02 0 0 0 38.923-1.331 50.1 50.1 0 0 0 16.452-11.303 49.9 49.9 0 0 0 10.707-16.845 50 50 0 0 0 3.273-17.602c.001-.121.005-.23.005-.356m-23.97 10.133a28.7 28.7 0 0 1-6.01 9.591 28.7 28.7 0 0 1-9.254 6.493c-7.056 3.179-15.085 3.506-22.364.843a29.55 29.55 0 0 1-16.573-15.025 28.6 28.6 0 0 1-2.668-11.004 28.5 28.5 0 0 1 1.82-11.167 28.4 28.4 0 0 1 6.021-9.563 28.4 28.4 0 0 1 9.27-6.494 29.55 29.55 0 0 1 22.372-.869c7.284 2.635 13.234 8.07 16.565 15.052a28.6 28.6 0 0 1 2.646 11.003 28.4 28.4 0 0 1-1.825 11.14M24.459 112.509c-.954-.951-2.239-1.468-3.581-1.495H17.99c-1.342.027-2.625.544-3.581 1.495a5.22 5.22 0 0 0-1.541 3.559v6H26v-6a5.2 5.2 0 0 0-1.541-3.559" style="display:block"/><path fill="#321642" d="M0-2c3.863 0 7 .896 7 2S3.863 2 0 2s-7-.896-7-2 3.137-2 7-2" style="display:block" transform="translate(76.688 86.375)"/><g style="display:block"><path fill="#B581A8" d="M105.695 104.751c-18.089 0-32.753 14.664-32.753 32.753s14.664 32.753 32.753 32.753 32.753-14.664 32.753-32.753-14.664-32.753-32.753-32.753m0 50.342c-9.714 0-17.589-7.875-17.589-17.589s7.875-17.589 17.589-17.589 17.589 7.875 17.589 17.589-7.875 17.589-17.589 17.589"/><path fill="#F2D3EA" d="M105.695 108.751c-18.089 0-32.753 14.664-32.753 32.753s14.664 32.753 32.753 32.753 32.753-14.664 32.753-32.753-14.664-32.753-32.753-32.753m0 50.342c-9.714 0-17.589-7.875-17.589-17.589s7.875-17.589 17.589-17.589 17.589 7.875 17.589 17.589-7.875 17.589-17.589 17.589"/></g><g mask="url(#i)" style="display:block"><path fill="url(#j)" d="M22.162 82.796a3 3 0 0 1-.473-1.654l.024-85.079c0-12.251-5.961-19.946-14.676-21.392-8.152-1.353-10.693 8.725-10.693 20.483v30.189h-.016c.005.044.016.088.016.133 0 1.456-2.882 2.636-6.437 2.636s-6.436-1.18-6.436-2.636c0-.045.011-.089.016-.133h-.016V-4.69c0-19.351 3.278-34.228 22.627-33.898 18.796.32 28.488 15.78 28.488 34.651l-.039 91.888a.73.73 0 0 1-.626.728c-1.882.257-7.614.436-11.759-5.883" transform="translate(105.02 45.119)"/></g><path fill="#FFF" d="M-4.561-8.197C1.547-8.005 7.227-.222 8.406 9.052l-.192.126C5.74 3.664 2.8-1.027-.824-4.622c-1.193-1.184-2.445-2.254-3.77-3.366z" style="display:block" transform="translate(125.75 20.759)"/><path fill="url(#k)" d="M-64.203-14.819a5.26 5.26 0 0 0 3.619-1.439 5.08 5.08 0 0 0 1.567-3.56 5.2 5.2 0 0 0-1.54-3.559c-.954-.951-2.239-1.467-3.581-1.494h-2.888c-1.342.027-2.625.543-3.581 1.494a5.22 5.22 0 0 0-1.541 3.559 5.1 5.1 0 0 0 1.546 3.532 5.05 5.05 0 0 0 3.576 1.467zm105.91 60.861a50.1 50.1 0 0 0 16.451-11.303 49.9 49.9 0 0 0 10.708-16.845 50 50 0 0 0 3.246-19.698 50 50 0 0 0-4.732-19.399 51.96 51.96 0 0 0-18.329-20.84 52.13 52.13 0 0 0-26.453-8.45h-52.527c-1.081-.081-2.171.028-3.203.381a7.9 7.9 0 0 0-2.777 1.63 7.75 7.75 0 0 0-1.883 2.636 7.82 7.82 0 0 0 0 6.303 7.6 7.6 0 0 0 1.883 2.608 7.5 7.5 0 0 0 2.777 1.631 7.6 7.6 0 0 0 3.203.38h13.33c.709-.082 1.424 0 2.103.217a5.2 5.2 0 0 1 1.836 1.033 5.2 5.2 0 0 1 1.25 1.711c.291.652.443 1.359.443 2.065s-.152 1.413-.443 2.065a5.2 5.2 0 0 1-1.25 1.712c-.53.462-1.157.842-1.836 1.032-.679.217-1.394.3-2.103.218h-33.158a5.1 5.1 0 0 0-3.6 1.467 5.13 5.13 0 0 0-1.522 3.586c.008.652.147 1.331.411 1.929.261.625.64 1.169 1.116 1.631a5 5 0 0 0 1.655 1.059c.617.272 1.274.38 1.94.38h23.572c.663 0 1.321.109 1.935.381a4.95 4.95 0 0 1 1.638 1.087c.47.462.843 1.032 1.098 1.657.253.598.383 1.25.383 1.929 0 .652-.13 1.304-.383 1.929a4.8 4.8 0 0 1-1.098 1.63c-.467.489-1.024.842-1.638 1.114a5.3 5.3 0 0 1-1.935.381h-14.71a5.2 5.2 0 0 0-1.939.353 5.1 5.1 0 0 0-1.655 1.086 5.1 5.1 0 0 0-1.117 1.604 5.2 5.2 0 0 0-.41 1.956 5.12 5.12 0 0 0 1.524 3.559 5.12 5.12 0 0 0 3.597 1.494h10.243a50.6 50.6 0 0 0 4.467 16.003A51.94 51.94 0 0 0 2.783 47.373a52.02 52.02 0 0 0 38.924-1.331M-6.028 11.971A28.5 28.5 0 0 1-6.875-10.2a28.35 28.35 0 0 1 6.02-9.563 28.4 28.4 0 0 1 9.271-6.494 29.55 29.55 0 0 1 22.371-.869c7.284 2.635 13.235 8.07 16.566 15.052a28.6 28.6 0 0 1 2.646 11.003 28.4 28.4 0 0 1-1.826 11.14 28.7 28.7 0 0 1-6.01 9.591 28.7 28.7 0 0 1-9.254 6.493c-7.056 3.179-15.084 3.506-22.363.843A29.55 29.55 0 0 1-6.028 11.971" style="display:block" transform="translate(85.017 141.886)"/><g mask="url(#l)" style="display:block"><path fill="none" stroke="#CE8BD9" stroke-linecap="round" stroke-width="10" d="m71.826 178.014 91.25-93.251"/></g><g mask="url(#m)" style="display:block"><path fill="none" stroke="#CE8BD9" stroke-linecap="round" stroke-width="10" d="m83.252 187.654 87.57-90.357"/></g></g></svg>