<svg width="81" height="171" viewBox="0 0 81 171" fill="none" xmlns="http://www.w3.org/2000/svg">
<g clip-path="url(#clip0_406_11444)">
<mask id="mask0_406_11444" style="mask-type:luminance" maskUnits="userSpaceOnUse" x="0" y="0" width="81" height="171">
<path d="M81 0H0V171H81V0Z" fill="white"/>
</mask>
<g mask="url(#mask0_406_11444)">
<path d="M59.7001 40.4C59.7001 40.4 63.9001 27.7 48.0001 19.3C34.4001 12.2 21.2001 15 19.0001 15.7C18.8001 15.8 18.6001 15.9 18.4001 16.2C18.1001 16.9 18.5001 17.6 19.3001 17.7C26.3001 17.8 52.3001 21 51.6001 39C50.9001 42.9 48.3001 54.3 28.0001 55.7C10.5001 56.8 4.20012 47.1 2.80012 44.4C2.60012 44 2.20012 43.8 1.70012 43.9C1.00012 44 0.700116 44.7 1.00012 45.3C2.20012 47.9 5.70012 53.8 13.2001 56.7C22.9001 60.5 34.2001 61.2 45.6001 56.5C57.0001 51.7 59.7001 40.4 59.7001 40.4Z" fill="white"/>
</g>
<mask id="mask1_406_11444" style="mask-type:luminance" maskUnits="userSpaceOnUse" x="0" y="0" width="81" height="171">
<path d="M81 0H0V171H81V0Z" fill="white"/>
</mask>
<g mask="url(#mask1_406_11444)">
<path d="M2 171.2L36.9 119.5L45.7 126.2L91.8 168.2L62.9 204.8L2 171.2Z" fill="#3043E2"/>
<path d="M23.8 140.2C27.2 140.9 36.6 138 36.6 138C36.6 138 24.5 154.1 13.5 153.9L22.7 140.4L23.8 140.2Z" fill="black"/>
<path d="M18.0002 34.9999L18.8002 41.4999C18.9002 42.0999 18.6002 42.5999 18.1002 42.8999L11.8002 46.2999C11.2002 46.5999 11.5002 47.4999 12.1002 47.2999L19.7002 46.0999C20.3002 45.9999 21.0002 46.2999 21.4002 46.7999L25.5002 52.1999C25.9002 52.6999 26.6002 52.2999 26.5002 51.6999L24.4002 44.7999C24.2002 44.1999 24.5002 43.5999 25.0002 43.2999L29.6002 40.5999C30.2002 40.2999 29.9002 39.2999 29.2002 39.3999L24.9002 40.0999C24.2002 40.1999 23.6002 39.9999 23.1002 39.4999L18.8002 34.5999C18.5002 34.2999 17.9002 34.4999 18.0002 34.9999Z" fill="white"/>
<path d="M61.5889 124.056C62.5447 120.653 55.7328 115.764 46.3742 113.135C37.0156 110.507 28.6541 111.135 27.6983 114.538C26.7426 117.941 33.5544 122.831 42.9131 125.459C52.2717 128.088 60.6331 127.459 61.5889 124.056Z" fill="#3043E2"/>
<path d="M60.6977 124.22C61.5937 121.03 55.1645 116.434 46.3376 113.955C37.5108 111.476 29.6288 112.052 28.7328 115.243C27.8367 118.433 34.266 123.029 43.0928 125.508C51.9197 127.987 59.8017 127.41 60.6977 124.22Z" fill="black"/>
<path d="M47.5001 120.1C47.5001 120.1 48.2001 118.9 45.1001 118.1C42.1001 117.3 39.6001 119.7 39.6001 119.7L39.9001 123.2L47.5001 120.1Z" fill="#FF7EC6"/>
<path d="M37.5 112L40.6 101.1C40.9 99.8999 42.6 99.8999 43 101L47.8 114.1L37.5 112Z" fill="#3043E2"/>
<path d="M27.3 85.7C30.4 86.4 32.8 88.8 33.5 91.9L39.8 118.8C40.9 123 41.9 130.8 40.8 135C39.4 140.1 35.3 142.1 28 141.6C16.2 140.7 16.2 131.6 17.7 121.4C19.2 111.2 23.2 94.3 23.2 94.3L27.3 85.7Z" fill="#3043E2"/>
<path d="M26.8998 90.6L28.4998 89.2C29.0998 88.7 29.9998 88.7 30.4998 89.3C31.5998 90.7 31.4998 93.4 31.7998 95.6L33.4998 112.6C34.0998 116.3 34.5998 125.4 34.9998 130.6C35.2998 134.9 33.0998 139.7 27.2998 139.2C17.7998 138.5 19.3998 126.5 20.4998 118.3C21.6998 110.1 23.6998 95.2 23.6998 95.2L26.8998 90.6Z" fill="black"/>
<path d="M25.0001 72.3999L29.0001 87.6999C29.2001 88.5999 29.3001 89.4999 29.1001 90.3999C28.6001 93.0999 27.2001 98.3999 23.9001 97.6999C23.9001 97.6999 23.1001 97.3999 22.4001 93.2999C21.7001 89.1999 18.7001 75.5999 18.7001 75.5999C18.7001 75.5999 13.1001 71.6999 13.1001 68.2999C13.0001 64.8999 16.7001 63.2999 16.7001 63.2999L15.4001 61.1999C14.8001 60.1999 15.4001 58.9999 16.5001 58.7999C17.1001 58.6999 17.7001 58.8999 18.0001 59.3999L21.3001 63.8999C21.3001 63.8999 24.4001 64.5999 25.0001 67.2999C25.8001 70.0999 25.0001 72.3999 25.0001 72.3999Z" fill="#FF7EC6"/>
<path d="M18 62.9999L20.8 43.3999C20.9 42.9999 21.2 42.6999 21.6 42.7999C22 42.8999 22.3 43.1999 22.2 43.5999L19.4 63.1999L18 62.9999Z" fill="black"/>
<path d="M40.5 122.3L45.4 119.2L71.5 131L62.4 132.2L70.5 140L57.7 137.7L59.9 148.3L49.4 133.9L46.7 136.6L40.5 122.3Z" fill="white"/>
<path d="M40.5 122.3L46.7 136.6L49.4 133.9L59.4 147.7L57.2 137.2L69 139.3L42.7 120.8L40.5 122.3Z" fill="#7E8AFF"/>
<path d="M103.5 128.7L53.9001 63.3C53.5001 62.8 53.6001 62.1 54.1001 61.7C54.6001 61.3 55.3001 61.4 55.7001 61.8L113.1 119.5L103.5 128.7Z" fill="#FF7EC6"/>
<path d="M123.5 118.7L73.9001 53.3C73.5001 52.8 73.6001 52.1 74.1001 51.7C74.6001 51.3 75.3001 51.4 75.7001 51.8L133.1 109.5L123.5 118.7Z" fill="#FF7EC6"/>
<path d="M113.5 164.7L63.9001 99.3C63.5001 98.8 63.6001 98.1 64.1001 97.7C64.6001 97.3 65.3001 97.4 65.7001 97.8L123.1 155.5L113.5 164.7Z" fill="#FF7EC6"/>
<path d="M105.1 127.3L61.3001 70.6C60.9001 70.1 61.6001 69.5 62.0001 69.9C62.1001 70 62.1001 70 62.2001 70L111.4 121.2L105.1 127.3Z" fill="white"/>
<path d="M21.6001 42.7999C21.2001 42.6999 20.8001 42.9999 20.8001 43.3999L20.4001 45.9999C20.8001 46.0999 21.2001 46.2999 21.4001 46.5999L21.7001 46.9999L22.2001 43.4999C22.4001 43.2999 22.1001 42.8999 21.6001 42.7999ZM20.6001 55.0999C20.1001 54.9999 19.6001 54.9999 19.1001 54.8999L18.6001 58.1999C19.1001 58.2999 19.6001 58.3999 20.1001 58.4999L20.6001 55.0999Z" fill="#3043E2"/>
</g>
</g>
<defs>
<clipPath id="clip0_406_11444">
<rect width="81" height="171" fill="white"/>
</clipPath>
</defs>
</svg>
