<svg fill="none" height="106" viewBox="0 0 160 106" width="160" xmlns="http://www.w3.org/2000/svg" xmlns:xlink="http://www.w3.org/1999/xlink"><linearGradient id="a"><stop offset="0" stop-color="#4788ff"/><stop offset="1" stop-color="#365dec"/></linearGradient><linearGradient id="b" gradientUnits="userSpaceOnUse" x1="79.8102" x2="79.8102" xlink:href="#a" y1="9.1892" y2="106.145"/><linearGradient id="c"><stop offset="0" stop-color="#00e0a7"/><stop offset="1" stop-color="#00a6a0"/></linearGradient><linearGradient id="d" gradientUnits="userSpaceOnUse" x1="146.06" x2="146.06" xlink:href="#c" y1="45.0434" y2="87.2695"/><linearGradient id="e" gradientUnits="userSpaceOnUse" x1="146.06" x2="146.06" xlink:href="#c" y1="45.0436" y2="87.2697"/><linearGradient id="f" gradientUnits="userSpaceOnUse" x1="10030.8" x2="10030.8" xlink:href="#a" y1="1488.63" y2="17151.9"/><linearGradient id="g" gradientUnits="userSpaceOnUse" x1="16820.7" x2="16820.7" xlink:href="#c" y1="1997.02" y2="3807.68"/><linearGradient id="h" gradientUnits="userSpaceOnUse" x1="16820.7" x2="16820.7" xlink:href="#c" y1="1974.75" y2="3785.41"/><clipPath id="i"><path d="m0 0h160v106h-160z"/></clipPath><g clip-path="url(#i)"><path d="m126.388 105.981-.139-.857-3.057-18.8502-2.967-18.8379-5.841-37.745c-1.199-7.7852-5.024-14.9316-10.845-20.26223-5.7615-5.26826-13.0947-8.515185-20.8813-9.245613-7.809-.742593-15.6383 1.194143-22.191 5.489383-6.6084 4.35906-11.5328 10.82616-13.965 18.33996-.2658.9454-.5822 1.8907-.791 2.8361l-.5505 2.8865-.7466 5.0419-1.5123 10.0838-3.0816 20.0543-1.5629 10.0838-1.6072 10.046c-1.0757 6.6995-2.1388 13.3989-3.2714 20.0862l-.1455.857h13.0159l.9111-.385-.0379.385h65.3772l-.057-.574.936.574zm-24.146-6.8377h-54.4748c.3923-4.1785.8099-8.3507 1.2212-12.5229l.9998-10.1279 1.0504-10.1154 2.1134-20.2307 1.0883-10.0838.5632-5.0419.3227-2.1239c.1202-.7059.3417-1.3803.4999-2.0798.7802-2.7566 2.0255-5.3609 3.6827-7.7015 2.543-3.5613 5.9613-6.4125 9.9277-8.2808 3.9665-1.86826 8.348-2.69092 12.7251-2.3892 5.9066.43433 11.4569 2.9791 15.6292 7.1658 4.1022 4.1169 6.6732 9.5032 7.2892 15.2707l3.955 37.9846 1.898 19.0017 1.095 11.275z" fill="#9ecdff"/><path d="m119.415 106h-79.2093l9.7825-75.7482c.7263-5.6628 3.0672-10.9995 6.7452-15.3778.6328-.75 1.3035-1.4685 1.9995-2.1555 1.7158-1.6724 3.6279-3.13249 5.6949-4.34861.6011-.36554 1.2212-.70587 1.854-1.02099 1.7155-.86908 3.5128-1.56781 5.3658-2.08609.5948-.17016 1.1896-.31512 1.797-.44747 2.0923-.44397 4.2264-.6637 6.3656-.65545 2.149-.00271 4.2919.22764 6.3909.68696.6328.12605 1.2023.27731 1.797.44117 1.8532.52042 3.6505 1.22126 5.3659 2.0924.6327.31512 1.2655.63024 1.8476 1.00838 2.0655 1.22075 3.9774 2.6827 5.6944 4.355.697.6869 1.367 1.4054 2 2.1554 3.667 4.3728 5.999 9.7006 6.72 15.3526z" fill="url(#b)"/><path d="m146.06 92.595c7.493 0 13.567-6.0497 13.567-13.5123 0-7.4627-6.074-13.5124-13.567-13.5124-7.492 0-13.566 6.0497-13.566 13.5124 0 7.4626 6.074 13.5123 13.566 13.5123z" fill="url(#d)"/><path d="m146.06 70.3225c7.493 0 13.567-6.0496 13.567-13.5123s-6.074-13.5123-13.567-13.5123c-7.492 0-13.566 6.0496-13.566 13.5123s6.074 13.5123 13.566 13.5123z" fill="url(#e)"/><path d="m79.8102 4.15967c7.3039-.00069 14.3583 2.64712 19.8453 7.44883 5.4865 4.8016 9.0315 11.4287 9.9705 18.6431l9.789 75.7234h-79.2093l9.7825-75.7234c.9381-7.216 4.4829-13.8447 9.9714-18.6468 5.4886-4.80205 12.5452-7.4487 19.8506-7.44513z" fill="url(#f)"/><g fill="#365dec"><path d="m111.803 106h-1.791l-9.131-93.2754c.696.687 1.367 1.4054 2 2.1554z"/><path d="m101.628 106h-1.7846l-6.4795-98.61963c.6328.31512 1.2655.63024 1.8477 1.00838z"/><path d="m91.3264 106h-1.778l-3.3474-101.15332c.6328.12605 1.2023.27731 1.7971.44117z"/><path d="m58.7456 12.7437-9.1308 93.2753h-1.7907l8.9219-91.1199c.6328-.75 1.3035-1.4685 1.9996-2.1554z"/><path d="m66.2628 7.37402-6.4795 98.62598h-1.7844l6.4099-97.60499c.6011-.36554 1.2212-.70587 1.854-1.02099z"/><path d="m73.4003 4.84033-3.3473 101.15967h-1.7781l3.3536-100.7122c.5948-.17016 1.1896-.31512 1.7718-.44747z"/></g><path d="m77.8296 106h3.9168l-.9112-101.81494c-.3417 0-.6771 0-1.0251 0-.3417 0-.677 0-1.0187 0z" fill="#270813"/><path d="m32.9606 68.0659c1.0124.3908 2.0501.7626 3.1132 1.1155" stroke="#cce0ff" stroke-linecap="round" stroke-miterlimit="10" stroke-width="3.72054"/><path d="m43.0784 71.2553c23.3615 5.9747 54.4554 5.6721 76.9876-.9643" stroke="#cce0ff" stroke-dasharray="9.9 11.55" stroke-linecap="round" stroke-miterlimit="10" stroke-width="3.72054"/><path d="m123.553 69.1878c1.063-.3529 2.101-.7248 3.113-1.1155" stroke="#cce0ff" stroke-linecap="round" stroke-miterlimit="10" stroke-width="3.72054"/><path d="m83.6574 69.8936h-7.764c-1.0868 0-1.9679.8775-1.9679 1.96v10.6762c0 1.0825.8811 1.9601 1.9679 1.9601h7.764c1.0868 0 1.9679-.8776 1.9679-1.9601v-10.6762c0-1.0825-.8811-1.96-1.9679-1.96z" fill="#ffa600"/><path d="m83.6574 67.6689h-7.764c-1.0868 0-1.9679.8776-1.9679 1.9601v10.6762c0 1.0825.8811 1.9601 1.9679 1.9601h7.764c1.0868 0 1.9679-.8776 1.9679-1.9601v-10.6762c0-1.0825-.8811-1.9601-1.9679-1.9601z" fill="#ffd01a"/><path d="m79.8101 74.7279c1.1533 0 2.0882-.9311 2.0882-2.0798 0-1.1486-.9349-2.0797-2.0882-2.0797-1.1532 0-2.0881.9311-2.0881 2.0797 0 1.1487.9349 2.0798 2.0881 2.0798z" fill="#270813"/><path d="m79.8101 71.5767-2.5627 7.7834h5.1317z" fill="#270813"/><path d="m95.5123 72.1599-4.5373.3326c-1.4429.1058-2.5265 1.3566-2.4203 2.7937.1063 1.4372 1.362 2.5164 2.8049 2.4106l4.5373-.3326c1.4429-.1058 2.5265-1.3566 2.4202-2.7937-.1062-1.4372-1.362-2.5164-2.8048-2.4106z" stroke="#cce0ff" stroke-linecap="round" stroke-linejoin="round" stroke-width="3.72054"/><path d="m108.747 70.2413-4.482.7768c-1.425.247-2.38 1.5981-2.132 3.0178s1.605 2.3703 3.03 2.1233l4.482-.7767c1.426-.247 2.38-1.5981 2.132-3.0178s-1.604-2.3704-3.03-2.1234z" stroke="#cce0ff" stroke-linecap="round" stroke-linejoin="round" stroke-width="3.72054"/><path d="m121.677 67.0505-4.363 1.2855c-1.387.4088-2.179 1.8604-1.769 3.2422.411 1.3818 1.868 2.1706 3.255 1.7618l4.363-1.2855c1.387-.4088 2.179-1.8603 1.769-3.2422-.41-1.3818-1.868-2.1706-3.255-1.7618z" stroke="#cce0ff" stroke-linecap="round" stroke-linejoin="round" stroke-width="3.72054"/><path d="m63.7224 77.3659 4.5372.3327c1.4429.1058 2.6987-.9735 2.8049-2.4106s-.9774-2.6879-2.4202-2.7937l-4.5373-.3327c-1.4429-.1058-2.6987.9735-2.8049 2.4106-.1062 1.4372.9774 2.6879 2.4203 2.7937z" stroke="#cce0ff" stroke-linecap="round" stroke-linejoin="round" stroke-width="3.72054"/><path d="m49.9639 75.379 4.4822.7768c1.4254.247 2.7819-.7037 3.0299-2.1233.248-1.4197-.7064-2.7709-2.1318-3.0179l-4.4822-.7767c-1.4254-.247-2.7819.7036-3.0299 2.1233s.7064 2.7708 2.1318 3.0178z" stroke="#cce0ff" stroke-linecap="round" stroke-linejoin="round" stroke-width="3.72054"/><path d="m36.4558 72.0603 4.3626 1.2855c1.3874.4087 2.8448-.38 3.2552-1.7619.4104-1.3818-.3815-2.8334-1.7689-3.2421l-4.3626-1.2855c-1.3874-.4088-2.8448.38-3.2552 1.7618s.3815 2.8334 1.7689 3.2422z" stroke="#cce0ff" stroke-linecap="round" stroke-linejoin="round" stroke-width="3.72054"/><path d="m155.469 90.7671h-18.419c-.975 0-1.766.7872-1.766 1.7584v11.7035c0 .971.791 1.758 1.766 1.758h18.419c.975 0 1.766-.787 1.766-1.758v-11.7035c0-.9712-.791-1.7584-1.766-1.7584z" fill="#cce0ff"/><path d="m135.284 94.7944h21.951" stroke="#270813" stroke-miterlimit="10" stroke-width="2.81195"/><path d="m13.5664 92.595c7.4925 0 13.5664-6.0497 13.5664-13.5123 0-7.4627-6.0739-13.5124-13.5664-13.5124-7.49252 0-13.5664 6.0497-13.5664 13.5124 0 7.4626 6.07388 13.5123 13.5664 13.5123z" fill="url(#g)"/><path d="m13.5664 70.3225c7.4925 0 13.5664-6.0496 13.5664-13.5123s-6.0739-13.5123-13.5664-13.5123c-7.49252 0-13.5664 6.0496-13.5664 13.5123s6.07388 13.5123 13.5664 13.5123z" fill="url(#h)"/><path d="m4.1572 105.981h18.4197c.975 0 1.7654-.787 1.7654-1.758v-11.7035c0-.9711-.7904-1.7584-1.7654-1.7584h-18.4197c-.975 0-1.7654.7873-1.7654 1.7584v11.7035c0 .971.7904 1.758 1.7654 1.758z" fill="#cce0ff"/><path d="m24.3423 94.7944h-21.95045" stroke="#270813" stroke-miterlimit="10" stroke-width="2.81195"/><path d="m131.614 30.4532 2.101-.7311c.11-.0365.205-.1063.272-.1996.068-.0933.104-.2054.104-.3203 0-.115-.036-.227-.104-.3203-.067-.0933-.162-.1632-.272-.1997l-2.101-.7311c-.078-.0272-.149-.0713-.208-.129s-.104-.1277-.133-.205l-.734-2.0987c-.038-.1068-.109-.1992-.202-.2646-.092-.0654-.203-.1005-.317-.1005s-.225.0351-.318.1005-.163.1578-.201.2646l-.734 2.0987c-.029.0773-.074.1473-.133.205-.06.0577-.131.1018-.209.129l-2.101.7311c-.109.0365-.204.1064-.272.1997-.067.0933-.103.2053-.103.3203 0 .1149.036.227.103.3203.068.0933.163.1631.272.1996l2.127.7311c.078.0273.149.0713.208.129.059.0578.104.1278.133.205l.734 2.0987c.038.1068.109.1993.201.2646.093.0654.204.1005.318.1005s.225-.0351.318-.1005c.093-.0653.163-.1578.201-.2646l.734-2.0987c.026-.0747.068-.1431.122-.2007.055-.0576.121-.103.194-.1333z" fill="#ff87ff"/><path d="m140.916 52.6314c.846 0 1.531-.6828 1.531-1.5252 0-.8423-.685-1.5251-1.531-1.5251s-1.531.6828-1.531 1.5251c0 .8424.685 1.5252 1.531 1.5252z" fill="#ffd01a"/><path d="m17.673 79.3599c.8457 0 1.5313-.6828 1.5313-1.5252 0-.8423-.6856-1.5251-1.5313-1.5251s-1.5313.6828-1.5313 1.5251c0 .8424.6856 1.5252 1.5313 1.5252z" fill="#ffd01a"/><path d="m10.409 54.4405c.8457 0 1.5313-.6828 1.5313-1.5252 0-.8423-.6856-1.5252-1.5313-1.5252-.84574 0-1.53131.6829-1.53131 1.5252 0 .8424.68557 1.5252 1.53131 1.5252z" fill="#ffd01a"/><path d="m21.805 57.2511c.8457 0 1.5312-.6829 1.5312-1.5252 0-.8424-.6855-1.5252-1.5312-1.5252s-1.5313.6828-1.5313 1.5252c0 .8423.6856 1.5252 1.5313 1.5252z" fill="#cd1580"/><path d="m148.345 77.5826c.712 0 1.29-.5756 1.29-1.2857 0-.71-.578-1.2857-1.29-1.2857-.713 0-1.291.5757-1.291 1.2857 0 .7101.578 1.2857 1.291 1.2857z" fill="#cd1580"/><path d="m153.198 77.5826c.713 0 1.291-.5756 1.291-1.2857 0-.71-.578-1.2857-1.291-1.2857s-1.291.5757-1.291 1.2857c0 .7101.578 1.2857 1.291 1.2857z" fill="#cd1580"/><path d="m150.768 73.3917c.713 0 1.291-.5756 1.291-1.2857s-.578-1.2857-1.291-1.2857-1.291.5756-1.291 1.2857.578 1.2857 1.291 1.2857z" fill="#cd1580"/><path d="m34.1185 4.07761-.5822 1.18485c-.0277.06016-.0366.12729-.0253.19254.0113.06526.0422.12557.0886.173.0473.04511.1066.07573.1708.08823.0641.01874.1322.01874.1962 0l1.1769-.56721c.0459-.02014.0954-.03085.1456-.03151.0521.00139.1035.01206.1518.03151l1.1707.56721c.0613.02215.1285.02215.1898 0 .0624-.01261.1196-.0433.1645-.08823.0457-.04599.0747-.10589.0823-.17017.0189-.05946.0189-.1233 0-.18276l-.5695-1.18486c-.0088-.0458-.0088-.09284 0-.13865-.0096-.04573-.0096-.09292 0-.13865l.5695-1.18485c.0217-.06333.0217-.13204 0-.19538-.0085-.06717-.0397-.12945-.0886-.17646-.0488-.04651-.1106-.07726-.1772-.08824-.065-.00857-.1311.0024-.1898.03152l-1.158.5483c-.0443.02509-.0945.03813-.1455.03782-.0531.00083-.1055-.01221-.1519-.03782l-1.1706-.56091c-.0611-.02859-.1291-.03951-.1962-.03151-.0661.01236-.1275.04293-.1771.08823-.0442.05031-.0747.11107-.0886.17647-.0185.06383-.0185.13155 0 .19537l.6011 1.16595c.0251.03961.0382.08553.038.13235.0081.05591-.0007.11297-.0253.16386z" fill="#ffd01a"/><path d="m17.9651 25.9938c-.3632-.3618-.9522-.3618-1.3154 0-.3633.3618-.3633.9484 0 1.3102l.6577.6551c.3632.3618.9522.3618 1.3154 0 .3633-.3618.3633-.9484 0-1.3102z" fill="#776bff"/><path d="m23.2381 31.2482c-.3633-.3618-.9522-.3618-1.3155 0-.3632.3618-.3632.9484 0 1.3102l.6577.6551c.3633.3618.9522.3618 1.3155 0 .3632-.3618.3632-.9484 0-1.3102z" fill="#776bff"/><path d="m23.8986 27.3051c.3632-.3618.3632-.9484 0-1.3102-.3633-.3618-.9522-.3618-1.3155 0l-.6577.6551c-.3632.3618-.3632.9484 0 1.3102.3633.3618.9522.3618 1.3154 0z" fill="#776bff"/><path d="m18.6256 32.5532c.3633-.3618.3633-.9484 0-1.3102-.3632-.3618-.9522-.3618-1.3154 0l-.6577.6551c-.3633.3618-.3633.9484 0 1.3102.3632.3618.9521.3618 1.3154 0z" fill="#776bff"/></g></svg>