<svg width="25" height="25" viewBox="0 0 25 25" fill="none" xmlns="http://www.w3.org/2000/svg">
  <path d="M13.42 19.7C13.5035 19.5831 13.6233 19.4971 13.7608 19.4554C13.8983 19.4138 14.0457 19.4189 14.18 19.47C15.0142 19.981 15.9262 20.3525 16.88 20.57C17.6213 20.4764 18.3396 20.2494 19 19.9L14.26 17.36" fill="#8AACDF"/>
  <path d="M16.88 20.71C16.0385 20.5574 15.2341 20.2451 14.51 19.79L14.13 19.59C13.8 19.44 13.54 19.77 13.52 19.79C13.4951 19.8079 13.4649 19.8172 13.4342 19.8164C13.4035 19.8155 13.3739 19.8046 13.35 19.7852C13.3262 19.7659 13.3093 19.7392 13.3021 19.7094C13.2948 19.6795 13.2976 19.6481 13.31 19.62C13.4119 19.4768 13.5592 19.3722 13.728 19.3232C13.8968 19.2742 14.0772 19.2836 14.24 19.35L14.63 19.55C15.3192 19.9819 16.0818 20.2836 16.88 20.44C17.581 20.3421 18.2585 20.1185 18.88 19.78C18.9121 19.7655 18.9484 19.7637 18.9817 19.7748C19.0151 19.7859 19.043 19.8092 19.06 19.84C19.071 19.8694 19.071 19.9018 19.06 19.9312C19.049 19.9606 19.0277 19.9851 19 20C18.3428 20.3646 17.6242 20.6053 16.88 20.71Z" fill="black"/>
  <path d="M18.83 7.21997C18.83 7.21997 23.18 8.30997 22.62 13.85C22.06 19.39 18.86 20.08 18 20.08C17.14 20.08 15.15 18.17 14.31 18.25C13.47 18.33 13.31 21.17 12.4 21.4C11.49 21.63 3.87001 23.33 3.92001 15.4" fill="#859FFB"/>
  <path d="M6.50999 11.11C6.51437 11.1176 6.51668 11.1262 6.51668 11.135C6.51668 11.1438 6.51437 11.1524 6.50999 11.16C5.93077 11.3205 5.36557 11.5278 4.81999 11.78C3.88461 12.1202 3.09873 12.7786 2.59999 13.64C2.46344 13.8811 2.38755 14.1518 2.37884 14.4288C2.37013 14.7058 2.42886 14.9807 2.54999 15.23C2.6445 15.3493 2.76687 15.4437 2.90635 15.5047C3.04584 15.5657 3.19818 15.5916 3.34999 15.58C3.59489 15.5663 3.82622 15.4631 3.99999 15.29C4.16692 15.1543 4.34796 15.037 4.53999 14.94C5.292 14.7744 6.07731 14.8551 6.77999 15.17H6.90999C7.36999 15.3 7.57999 15.17 7.66999 15.11L7.71999 15.05C7.71999 15.05 7.71999 15.05 7.77999 15.05V15.11L7.71999 15.18C6.99998 16 6.45999 17.09 6.63999 17.72C6.67119 17.8376 6.73296 17.9449 6.81901 18.031C6.90507 18.117 7.01235 18.1788 7.12999 18.21C7.73999 18.4 8.36999 17.99 8.98998 17.58C9.47216 17.1652 10.084 16.9317 10.72 16.92C11.6368 17.1109 12.5831 17.1109 13.5 16.92C14.1185 16.7128 14.6615 16.3265 15.06 15.81C15.2341 15.6098 15.4323 15.4317 15.65 15.28C15.7483 15.2281 15.8523 15.1878 15.96 15.16C15.9189 15.1163 15.8942 15.0598 15.89 15C16.2484 13.8873 16.9057 12.8945 17.79 12.13C18.1271 11.8138 18.5464 11.5989 19 11.51C19.2357 10.0025 19.1505 8.46227 18.75 6.98998C18.06 5.33998 17.85 4.87998 17.1 4.85998C16.5879 4.89632 16.104 5.10824 15.73 5.45998C15.1246 5.13726 14.4739 4.908 13.8 4.77998C13.8 4.77998 13.27 3.35998 12.43 3.33998C11.59 3.31998 11.11 4.79998 10.56 5.38998C9.75568 6.0723 9.17693 6.98226 8.89998 7.99998C8.89998 7.99998 7.23999 7.99998 6.60999 10.39C6.5519 10.6142 6.50518 10.8411 6.46999 11.07L6.50999 11.11Z" fill="#DAF14B"/>
  <path d="M9.86 13.7H12.05C11.8507 13.5317 11.6757 13.3365 11.53 13.12C11.4372 12.7868 11.4692 12.4313 11.62 12.12C11.6545 12.0063 11.6746 11.8887 11.68 11.77C11.68 11.57 11.68 11.35 11.97 11.26C12.26 11.17 12.68 11.38 12.85 11.48L12.74 8.83002C12.7324 8.68051 12.6683 8.53948 12.5606 8.4355C12.4529 8.33152 12.3097 8.27236 12.16 8.27002H9.27C9.22042 8.26592 9.17054 8.27275 9.12389 8.29002C9.07724 8.3073 9.03494 8.33461 9 8.37002C8.96487 8.40723 8.93785 8.45133 8.92063 8.49953C8.90342 8.54772 8.89639 8.59897 8.9 8.65002L9.14 11.18C9.31164 11.3733 9.42373 11.612 9.46276 11.8675C9.5018 12.123 9.46611 12.3843 9.36 12.62C9.36447 12.6465 9.36447 12.6735 9.36 12.7L9.43 13.3C9.44189 13.4071 9.49184 13.5064 9.57075 13.5798C9.64966 13.6532 9.7523 13.6959 9.86 13.7Z" fill="#6548F1"/>
  <path d="M11.71 8.27999C11.71 8.27999 12.16 8.35999 12.21 9.19999C12.26 10.04 12.33 11.34 12.33 11.34L12.9 11.59L12.74 8.64999C12.6679 8.53203 12.5685 8.43318 12.4501 8.36181C12.3318 8.29044 12.1979 8.24865 12.06 8.23999" fill="#A896FF"/>
  <path d="M8.86 8.65002L8 11.34C8.12907 11.1935 8.29822 11.0879 8.48659 11.0364C8.67496 10.9848 8.8743 10.9896 9.06 11.05L8.86 8.65002Z" fill="#7DC813"/>
  <path d="M7.73001 15.11L5.32001 14.84C5.32001 14.84 7.59001 15.69 7.73001 15.11Z" fill="#7DC813"/>
  <path d="M17.78 12.12C18.121 11.8057 18.544 11.5943 19 11.51C19.2357 10.0025 19.1505 8.46227 18.75 6.98998C18.06 5.33999 17.85 4.87999 17.1 4.85999C16.9156 4.86234 16.733 4.89616 16.56 4.95999C16.56 4.95999 18.09 4.95999 18.01 7.11999C17.93 9.27999 17.73 10.89 16.69 11.85C15.9309 12.4597 15.3276 13.2412 14.93 14.13C14.7141 14.6738 14.3388 15.1396 13.8534 15.4662C13.368 15.7928 12.7951 15.9649 12.21 15.96C10.82 15.96 9.52 15.78 8.48 16.7C7.44 17.62 6.9 18 6.61 17.39C6.58943 17.499 6.58943 17.6109 6.61 17.72C6.64121 17.8376 6.70297 17.9449 6.78903 18.031C6.87508 18.117 6.98237 18.1788 7.1 18.21C7.71 18.4 8.34 17.99 8.96 17.58C9.44218 17.1652 10.0541 16.9317 10.69 16.92C11.6068 17.1109 12.5532 17.1109 13.47 16.92C14.0885 16.7128 14.6315 16.3265 15.03 15.81C15.2042 15.6098 15.4023 15.4317 15.62 15.28C15.7183 15.2281 15.8224 15.1878 15.93 15.16C15.8889 15.1163 15.8642 15.0598 15.86 15C16.2224 13.8814 16.8868 12.8847 17.78 12.12Z" fill="#7DC813"/>
  <path d="M16.81 7.21998C17.0143 7.21998 17.18 6.92897 17.18 6.56998C17.18 6.211 17.0143 5.91998 16.81 5.91998C16.6057 5.91998 16.44 6.211 16.44 6.56998C16.44 6.92897 16.6057 7.21998 16.81 7.21998Z" fill="black"/>
  <path d="M12.39 5.93C12.5943 5.93 12.76 5.63899 12.76 5.28C12.76 4.92102 12.5943 4.63 12.39 4.63C12.1856 4.63 12.02 4.92102 12.02 5.28C12.02 5.63899 12.1856 5.93 12.39 5.93Z" fill="black"/>
  <path d="M17.4498 9.47127C17.6562 8.9353 17.3014 8.29961 16.6572 8.05142C16.013 7.80323 15.3234 8.03653 15.1169 8.5725C14.9104 9.10847 15.2652 9.74417 15.9094 9.99235C16.5536 10.2405 17.2433 10.0072 17.4498 9.47127Z" fill="#74B223"/>
  <path d="M10.6 7.88001C11.1357 7.88001 11.57 7.51736 11.57 7.07001C11.57 6.62266 11.1357 6.26001 10.6 6.26001C10.0643 6.26001 9.63 6.62266 9.63 7.07001C9.63 7.51736 10.0643 7.88001 10.6 7.88001Z" fill="#74B223"/>
  <path d="M21 8.36002C20.4097 7.78462 19.6944 7.3534 18.91 7.10002L18.83 6.89002C18.17 5.29002 17.92 4.70002 17.07 4.68002C16.5527 4.6993 16.0579 4.89718 15.67 5.24002C15.0964 4.95287 14.488 4.74111 13.86 4.61002C13.73 4.30002 13.21 3.17002 12.39 3.15002C11.75 3.15002 11.32 3.87002 10.94 4.51002C10.7995 4.77338 10.6319 5.02138 10.44 5.25002L10.3 5.41002C9.57807 6.06409 9.0577 6.91055 8.80001 7.85002C8.39001 7.90002 7.05001 8.21002 6.50001 10.35C6.4451 10.5676 6.40171 10.7879 6.37001 11.01C5.85001 11.15 3.10001 12.01 2.46001 13.57C2.31028 13.8392 2.23169 14.142 2.23169 14.45C2.23169 14.758 2.31028 15.0609 2.46001 15.33C2.57507 15.4823 2.72777 15.602 2.9031 15.6774C3.07842 15.7528 3.27035 15.7813 3.46001 15.76C3.60792 15.7484 3.75139 15.704 3.88001 15.63C3.88001 17.91 4.58001 19.63 5.88001 20.63C7.04005 21.4703 8.44875 21.8964 9.88001 21.84C10.7627 21.833 11.6416 21.7257 12.5 21.52C13.05 21.39 13.32 20.52 13.59 19.77C13.86 19.02 14.06 18.4 14.38 18.37C15.041 18.5283 15.6568 18.8362 16.18 19.27C16.7267 19.7207 17.3701 20.0389 18.06 20.2C18.22 20.2 22.18 20.13 22.81 13.86C22.9554 12.8657 22.8676 11.8512 22.5535 10.8966C22.2394 9.94207 21.7075 9.07366 21 8.36002ZM22.46 13.84C21.85 19.84 18.12 19.94 17.97 19.94C17.3387 19.7694 16.7496 19.4698 16.24 19.06C15.6674 18.5746 14.978 18.2471 14.24 18.11C13.74 18.16 13.49 18.9 13.24 19.69C12.99 20.48 12.74 21.17 12.33 21.27C11.4788 21.4756 10.6057 21.5764 9.73001 21.57C8.39442 21.616 7.08169 21.2148 6.00001 20.43C4.72001 19.43 4.07001 17.74 4.08001 15.43C4.2368 15.3008 4.40793 15.1901 4.59001 15.1C5.30141 14.9641 6.03731 15.0478 6.70001 15.34H6.83001C6.9796 15.3835 7.13427 15.407 7.29001 15.41C6.72049 16.045 6.42252 16.8779 6.46001 17.73C6.50075 17.8772 6.57948 18.011 6.68831 18.1181C6.79714 18.2251 6.93223 18.3017 7.08001 18.34C7.20267 18.3802 7.33096 18.4004 7.46001 18.4C8.05863 18.319 8.62296 18.0731 9.09001 17.69C9.53292 17.2975 10.0986 17.0712 10.69 17.05C11.626 17.2508 12.594 17.2508 13.53 17.05C14.1857 16.8408 14.7638 16.4403 15.19 15.9C15.3506 15.7099 15.5355 15.5418 15.74 15.4C16.5246 15.1493 17.347 15.0376 18.17 15.07C19.09 15.07 19.34 15.47 19.35 15.49C19.3659 15.5219 19.3938 15.5461 19.4276 15.5573C19.4613 15.5686 19.4982 15.5659 19.53 15.55C19.5618 15.5341 19.586 15.5062 19.5973 15.4725C19.6085 15.4387 19.6059 15.4018 19.59 15.37C19.59 15.37 19.26 14.77 18.16 14.8C17.2952 14.764 16.4311 14.886 15.61 15.16C15.3822 15.318 15.174 15.5026 14.99 15.71C14.604 16.2109 14.0787 16.5866 13.48 16.79C12.5733 16.981 11.6367 16.981 10.73 16.79C10.0713 16.7958 9.43641 17.037 8.94001 17.47C8.31001 17.88 7.72001 18.26 7.16001 18.08C7.05677 18.0537 6.96204 18.0013 6.88497 17.9277C6.8079 17.8541 6.75108 17.7619 6.72001 17.66C6.55001 17.06 7.14001 15.99 7.78001 15.22C7.78001 15.22 7.84001 15.14 7.85001 15.14C7.86949 15.1141 7.88001 15.0825 7.88001 15.05C7.88001 15.0176 7.86949 14.986 7.85001 14.96C7.82581 14.9368 7.79356 14.9238 7.76001 14.9238C7.72647 14.9238 7.69422 14.9368 7.67001 14.96V15.01C7.60001 15.07 7.41001 15.18 6.99001 15.01H6.86001C6.13815 14.6867 5.33008 14.6094 4.56001 14.79C4.36001 14.8879 4.17208 15.0087 4.00001 15.15C3.84677 15.2972 3.65063 15.3918 3.44001 15.42C3.30256 15.4291 3.1649 15.4058 3.03811 15.3519C2.91132 15.2981 2.79894 15.2152 2.71001 15.11C2.60052 14.871 2.54975 14.6092 2.56192 14.3465C2.5741 14.0839 2.64887 13.8279 2.78001 13.6C3.33001 12.22 5.72001 11.43 6.40001 11.23C6.27452 11.9087 6.42185 12.6094 6.81001 13.18C6.97706 13.383 7.18816 13.5452 7.42728 13.6544C7.66639 13.7635 7.92724 13.8168 8.19001 13.81C8.41456 13.7943 8.63143 13.7218 8.82032 13.5994C9.00921 13.4769 9.16394 13.3086 9.27001 13.11V13.25C9.28939 13.4038 9.36393 13.5454 9.4798 13.6484C9.59567 13.7514 9.74499 13.8088 9.90001 13.81H12.21C12.2371 13.8085 12.2633 13.7991 12.2852 13.7831C12.3071 13.767 12.3238 13.7448 12.3333 13.7194C12.3429 13.694 12.3448 13.6663 12.3389 13.6398C12.333 13.6132 12.3195 13.589 12.3 13.57C12.0844 13.3992 11.8956 13.1969 11.74 12.97C11.6666 12.6927 11.695 12.3982 11.82 12.14C11.8697 12.0089 11.8967 11.8702 11.9 11.73C11.9 11.51 11.9 11.43 12.07 11.38C12.24 11.33 12.73 11.54 12.86 11.63C12.8813 11.6423 12.9054 11.6488 12.93 11.6488C12.9546 11.6488 12.9787 11.6423 13 11.63C13.0226 11.617 13.0412 11.598 13.0535 11.575C13.0659 11.552 13.0716 11.5261 13.07 11.5L12.99 9.50002C13.2301 9.57325 13.4791 9.61362 13.73 9.62002C13.8559 9.64021 13.9841 9.64021 14.11 9.62002C14.1431 9.6107 14.1712 9.58862 14.1881 9.55862C14.205 9.52863 14.2092 9.49318 14.2 9.46002C14.1906 9.4243 14.1675 9.39374 14.1356 9.37501C14.1038 9.35627 14.0658 9.35089 14.03 9.36002C13.6741 9.42308 13.3078 9.38852 12.97 9.26002V8.84002C12.96 8.64623 12.8772 8.46336 12.7381 8.32801C12.599 8.19266 12.414 8.11481 12.22 8.11002H9.32001C9.24422 8.11109 9.16947 8.12781 9.10045 8.15913C9.03143 8.19045 8.96962 8.2357 8.91892 8.29204C8.86821 8.34838 8.8297 8.41459 8.8058 8.48652C8.78189 8.55845 8.77312 8.63454 8.78001 8.71002L9.00001 11.21C8.99964 11.2306 9.00506 11.2509 9.01567 11.2686C9.02628 11.2863 9.04165 11.3007 9.06001 11.31C9.32001 11.49 9.38001 12.02 9.22001 12.57C9.06001 13.12 8.72001 13.57 8.16001 13.57C7.93281 13.5791 7.70655 13.5361 7.49855 13.4442C7.29055 13.3523 7.10633 13.2141 6.96001 13.04C6.7324 12.6387 6.59723 12.1917 6.56436 11.7315C6.53149 11.2713 6.60175 10.8096 6.77001 10.38C7.36001 8.11002 8.85001 8.08002 8.93001 8.08002C8.94666 8.07237 8.9615 8.06129 8.97356 8.04751C8.98563 8.03372 8.99464 8.01754 9.00001 8.00002C9.23081 7.07183 9.73198 6.23306 10.44 5.59002C10.4952 5.54182 10.5455 5.48822 10.59 5.43002C10.7962 5.19138 10.9741 4.92964 11.12 4.65002C11.47 4.07002 11.85 3.42002 12.34 3.42002C13.09 3.42002 13.59 4.76002 13.59 4.78002C13.5992 4.80222 13.6143 4.82144 13.6337 4.83556C13.6531 4.84968 13.6761 4.85815 13.7 4.86002C14.3597 4.98859 14.9966 5.21438 15.59 5.53002C15.6143 5.54407 15.6419 5.55146 15.67 5.55146C15.6981 5.55146 15.7257 5.54407 15.75 5.53002C16.0965 5.21982 16.5362 5.03341 17 5.00002C17.65 5.00002 17.84 5.40002 18.52 7.00002C18.9151 8.44932 19.0003 9.9656 18.77 11.45C18.7641 11.4857 18.7723 11.5224 18.7928 11.5522C18.8133 11.582 18.8445 11.6028 18.88 11.61C18.8979 11.6128 18.9161 11.6119 18.9336 11.6073C18.9511 11.6026 18.9674 11.5944 18.9815 11.5831C18.9956 11.5718 19.0072 11.5577 19.0156 11.5417C19.0239 11.5257 19.0288 11.5081 19.03 11.49C19.2532 10.1417 19.2431 8.76496 19 7.42002C19.6876 7.66455 20.3149 8.05324 20.84 8.56002C21.5083 9.2501 22.0056 10.0871 22.2922 11.004C22.5787 11.9209 22.6465 12.8922 22.49 13.84H22.46ZM9.23001 11.13L9.00001 8.64002C8.99564 8.60127 8.99972 8.56204 9.01196 8.52501C9.0242 8.48799 9.04432 8.45405 9.07093 8.42555C9.09754 8.39704 9.13 8.37463 9.1661 8.35987C9.20219 8.3451 9.24105 8.33833 9.28001 8.34002H12.17C12.2958 8.34232 12.4162 8.39198 12.507 8.4791C12.5979 8.56622 12.6525 8.68439 12.66 8.81002L12.76 11.3C12.6403 11.2214 12.5061 11.1677 12.3652 11.1419C12.2244 11.1161 12.0798 11.1189 11.94 11.15C11.64 11.27 11.62 11.53 11.6 11.74C11.6003 11.8495 11.58 11.9581 11.54 12.06C11.3908 12.3898 11.3625 12.7615 11.46 13.11C11.5607 13.2802 11.6853 13.4352 11.83 13.57H9.83001C9.74169 13.5684 9.65684 13.5353 9.59081 13.4766C9.52479 13.4179 9.48194 13.3376 9.47001 13.25L9.40001 12.67V12.61C9.50205 12.3697 9.54003 12.107 9.51023 11.8476C9.48044 11.5882 9.38389 11.341 9.23001 11.13Z" fill="black"/>
  <path d="M13.9 11.94C13.5302 11.9486 13.1636 11.8698 12.83 11.71C12.8062 11.689 12.7902 11.6606 12.7846 11.6294C12.7791 11.5982 12.7843 11.566 12.7994 11.5382C12.8145 11.5103 12.8386 11.4884 12.8678 11.476C12.897 11.4636 12.9295 11.4615 12.96 11.47C13.6657 11.7169 14.4343 11.7169 15.14 11.47C15.1723 11.4652 15.2052 11.4719 15.2331 11.4888C15.261 11.5057 15.2821 11.5318 15.2928 11.5627C15.3034 11.5935 15.303 11.6271 15.2915 11.6576C15.2801 11.6882 15.2583 11.7138 15.23 11.73C14.7991 11.8637 14.3512 11.9344 13.9 11.94Z" fill="#147944"/>
  <path d="M13.83 15H13.77C13.168 14.6886 12.6014 14.3131 12.08 13.88C12.0561 13.8541 12.0428 13.8202 12.0428 13.785C12.0428 13.7498 12.0561 13.7159 12.08 13.69C12.0922 13.677 12.1069 13.6666 12.1232 13.6595C12.1396 13.6524 12.1572 13.6487 12.175 13.6487C12.1928 13.6487 12.2105 13.6524 12.2268 13.6595C12.2431 13.6666 12.2578 13.677 12.27 13.69C12.7738 14.1065 13.3201 14.4685 13.9 14.77C13.9326 14.7853 13.958 14.8125 13.971 14.846C13.9841 14.8795 13.9837 14.9167 13.97 14.95C13.9546 14.9716 13.9329 14.988 13.9079 14.997C13.8828 15.0059 13.8557 15.007 13.83 15Z" fill="#147944"/>
  <path d="M8 11.47C7.98585 11.4763 7.97051 11.4796 7.955 11.4796C7.93949 11.4796 7.92416 11.4763 7.91 11.47C7.89698 11.4578 7.8866 11.4431 7.8795 11.4268C7.87241 11.4104 7.86874 11.3928 7.86874 11.375C7.86874 11.3572 7.87241 11.3395 7.8795 11.3232C7.8866 11.3068 7.89698 11.2921 7.91 11.28C8.05881 11.098 8.2729 10.9815 8.50649 10.9554C8.74007 10.9292 8.97463 10.9955 9.16 11.14C9.18652 11.1638 9.20248 11.1973 9.20435 11.2329C9.20623 11.2685 9.19387 11.3035 9.17 11.33C9.14613 11.3565 9.11271 11.3724 9.07707 11.3743C9.04144 11.3762 9.00652 11.3638 8.98 11.34C8.84509 11.2433 8.67791 11.2028 8.51373 11.2271C8.34954 11.2513 8.2012 11.3384 8.1 11.47C8.08416 11.4766 8.06717 11.48 8.05 11.48C8.03284 11.48 8.01585 11.4766 8 11.47Z" fill="#147944"/>
  <path d="M20.73 11.48C20.2208 11.3225 19.6806 11.293 19.1573 11.3942C18.634 11.4953 18.1438 11.7241 17.73 12.06C16.819 12.8375 16.1465 13.8567 15.79 15C15.7783 15.0392 15.7783 15.0809 15.79 15.12L15.58 15.21C15.3522 15.368 15.144 15.5527 14.96 15.76C14.5906 16.2032 14.1162 16.547 13.58 16.76L13.43 17.08H13.5C14.1556 16.8708 14.7337 16.4704 15.16 15.93C15.3205 15.7399 15.5055 15.5718 15.71 15.43C16.4946 15.1793 17.317 15.0676 18.14 15.1C19.06 15.1 19.31 15.5 19.32 15.52C19.3359 15.5519 19.3638 15.5761 19.3976 15.5873C19.4313 15.5986 19.4682 15.5959 19.5 15.58C19.5318 15.5641 19.556 15.5362 19.5673 15.5025C19.5785 15.4687 19.5759 15.4319 19.56 15.4C19.56 15.4 19.23 14.8 18.13 14.83C17.4327 14.8369 16.737 14.9004 16.05 15.02C16.3767 13.9407 17.013 12.9811 17.88 12.26C18.2625 11.9581 18.7128 11.7538 19.1919 11.6649C19.6711 11.5761 20.1647 11.6053 20.63 11.75C20.6645 11.7596 20.7013 11.7556 20.7329 11.7388C20.7645 11.7221 20.7885 11.6939 20.8 11.66C20.8137 11.6268 20.814 11.5895 20.801 11.556C20.788 11.5225 20.7625 11.4953 20.73 11.48Z" fill="black"/>
  <path d="M9.69 9.39001C9.82807 9.39001 9.94 9.27809 9.94 9.14001C9.94 9.00194 9.82807 8.89001 9.69 8.89001C9.55193 8.89001 9.44 9.00194 9.44 9.14001C9.44 9.27809 9.55193 9.39001 9.69 9.39001Z" fill="#A896FF"/>
  <path d="M9.78 10.2C9.91807 10.2 10.03 10.0881 10.03 9.95001C10.03 9.81194 9.91807 9.70001 9.78 9.70001C9.64193 9.70001 9.53 9.81194 9.53 9.95001C9.53 10.0881 9.64193 10.2 9.78 10.2Z" fill="#A896FF"/>
</svg>