<svg width="1127" height="327" viewBox="0 0 1127 327" fill="none" xmlns="http://www.w3.org/2000/svg">
<g clip-path="url(#clip0_192_1295)">
<mask id="mask0_192_1295" style="mask-type:alpha" maskUnits="userSpaceOnUse" x="0" y="0" width="1128" height="327">
<path d="M559.5 327H0V0H1128V327H559.5Z" fill="url(#paint0_linear_192_1295)"/>
</mask>
<g mask="url(#mask0_192_1295)">
<path d="M278 -56.5C-15.412 -56.5 -272.729 12.9999 -490 12.9999C-490 12.9999 -221.5 202.501 -9.5 194.5C202.5 186.499 261.499 250.5 560.5 250.5C859.5 250.5 1063 376 1222 376C1381 376 1130 12.9999 1130 12.9999C924.37 12.9999 534.554 -56.5 278 -56.5Z" fill="url(#paint1_linear_192_1295)"/>
<path d="M1127 -6.3C1120.91 -17.9039 1114.16 -29.1551 1106.8 -40L786.8 -40C797.2 -18.3 813.3 2.7 835.6 20.7C822.8 91.9 877.5 146.3 947.5 146.3C1004.7 188.3 1065.2 206.3 1120.1 170.9C1122.53 169.38 1124.83 167.675 1127 165.8V-6.3Z" fill="#D0BAFF"/>
<path d="M1127 -13.5C1122.3 -22.2 1117.1 -31.1 1111.3 -40L789.6 -40C800.808 -20.6485 815.527 -3.55648 833 10.4C820.2 81.7 874.9 136.1 944.9 136.1C1002.1 178 1069.2 202.8 1125.6 167L1127 166.1V-13.5Z" fill="#C1A3FF"/>
<path d="M1127 -13.5C1122.3 -22.2 1117.1 -31.1 1111.3 -40L874.9 -40C884.5 49 945.4 65.5 969 70.6C994.9 76.2 996.9 77 1002 97.3C1017.1 156.3 1078.8 193.7 1127 165.3V-13.5Z" fill="#B095FF"/>
<g opacity="0.5">
<path d="M267 129.2C255.7 148.9 257.8 160.4 261.2 165.2C264.6 170 274.8 170.3 281.2 154.9C281.322 154.621 281.5 154.37 281.724 154.163C281.948 153.957 282.212 153.799 282.5 153.7C300.7 147.1 302.4 129.9 301.4 120.7C299.9 106.3 284 99.6997 267 129.2Z" fill="#DBD9FF"/>
<path d="M299.5 115.2C298.963 113.198 297.764 111.436 296.1 110.2C289.7 105.7 278.6 109 267 129.2C255.4 149.4 257.8 160.4 261.2 165.2C262.101 166.463 263.406 167.381 264.9 167.8C271.1 169.6 277.2 161.4 276.7 150C276.5 147 277 146.8 278.7 145.7C295.2 135.3 301.9 123.3 299.5 115.2Z" fill="#D1C4FF"/>
</g>
<path d="M49.3999 -60C23.6999 -28.7 10.8999 5.3 11.9999 32C13.7999 71.7 53.6999 73.6 87.4999 58.7C123.8 75.3 169.1 52.3 193.5 -3.3C235.2 -7.1 253.7 -35.7 262.4 -60H49.3999Z" fill="#D0BAFF"/>
<path d="M44.4002 -60C21.0002 -29.8 9.40024 2.4 10.5002 28C12.2002 68 52.4002 69.9 86.3002 54.8C122.9 71.6 168.5 48.4 193 -7.5C232.4 -11.1 251.2 -36.7 260.6 -60H44.4002Z" fill="#C1A3FF"/>
<path d="M44.4002 -60C21.0002 -29.8 9.40024 2.4 10.5002 28C11.0002 41.6 16.1002 50.8 23.8002 56.4C44.7002 69.9 82.5003 55.1 115.1 3.6C149.8 15.9 183.8 -16.6 198.1 -60L44.4002 -60Z" fill="#B095FF"/>
<path d="M636.2 121.3C637.028 121.3 637.7 120.629 637.7 119.8C637.7 118.972 637.028 118.3 636.2 118.3C635.372 118.3 634.7 118.972 634.7 119.8C634.7 120.629 635.372 121.3 636.2 121.3Z" fill="#B7CCFF"/>
<path d="M726.5 263.7C728.102 263.7 729.4 262.402 729.4 260.8C729.4 259.199 728.102 257.9 726.5 257.9C724.898 257.9 723.6 259.199 723.6 260.8C723.6 262.402 724.898 263.7 726.5 263.7Z" fill="url(#paint2_linear_192_1295)"/>
<path d="M978.4 315.2C980.002 315.2 981.3 313.902 981.3 312.3C981.3 310.699 980.002 309.4 978.4 309.4C976.798 309.4 975.5 310.699 975.5 312.3C975.5 313.902 976.798 315.2 978.4 315.2Z" fill="url(#paint3_linear_192_1295)"/>
<path d="M637.9 197.2C638.618 197.2 639.2 196.618 639.2 195.9C639.2 195.182 638.618 194.6 637.9 194.6C637.182 194.6 636.6 195.182 636.6 195.9C636.6 196.618 637.182 197.2 637.9 197.2Z" fill="#FFE75C"/>
<path d="M368.1 303.9C368.652 303.9 369.1 303.453 369.1 302.9C369.1 302.348 368.652 301.9 368.1 301.9C367.548 301.9 367.1 302.348 367.1 302.9C367.1 303.453 367.548 303.9 368.1 303.9Z" fill="#B7CCFF"/>
<path d="M266.9 194.5C267.452 194.5 267.9 194.052 267.9 193.5C267.9 192.948 267.452 192.5 266.9 192.5C266.348 192.5 265.9 192.948 265.9 193.5C265.9 194.052 266.348 194.5 266.9 194.5Z" fill="#B7CCFF"/>
<path d="M337.7 285.1C338.142 285.1 338.5 284.742 338.5 284.3C338.5 283.858 338.142 283.5 337.7 283.5C337.258 283.5 336.9 283.858 336.9 284.3C336.9 284.742 337.258 285.1 337.7 285.1Z" fill="#B7CCFF"/>
<path d="M483.8 136.4C484.131 136.4 484.4 136.132 484.4 135.8C484.4 135.469 484.131 135.2 483.8 135.2C483.469 135.2 483.2 135.469 483.2 135.8C483.2 136.132 483.469 136.4 483.8 136.4Z" fill="#B7CCFF"/>
<path d="M147.6 309.8C147.931 309.8 148.2 309.531 148.2 309.2C148.2 308.869 147.931 308.6 147.6 308.6C147.269 308.6 147 308.869 147 309.2C147 309.531 147.269 309.8 147.6 309.8Z" fill="#B7CCFF"/>
<path d="M46.9999 81.8001C47.3313 81.8001 47.5999 81.5315 47.5999 81.2001C47.5999 80.8687 47.3313 80.6001 46.9999 80.6001C46.6685 80.6001 46.3999 80.8687 46.3999 81.2001C46.3999 81.5315 46.6685 81.8001 46.9999 81.8001Z" fill="#B7CCFF"/>
<path d="M441.1 89.9002C441.431 89.9002 441.7 89.6316 441.7 89.3002C441.7 88.9688 441.431 88.7002 441.1 88.7002C440.769 88.7002 440.5 88.9688 440.5 89.3002C440.5 89.6316 440.769 89.9002 441.1 89.9002Z" fill="#B7CCFF"/>
<path d="M83.4999 223.6C83.8313 223.6 84.0999 223.332 84.0999 223C84.0999 222.669 83.8313 222.4 83.4999 222.4C83.1685 222.4 82.8999 222.669 82.8999 223C82.8999 223.332 83.1685 223.6 83.4999 223.6Z" fill="#B7CCFF"/>
<path d="M350.8 65.6004C351.131 65.6004 351.4 65.3318 351.4 65.0004C351.4 64.669 351.131 64.4004 350.8 64.4004C350.469 64.4004 350.2 64.669 350.2 65.0004C350.2 65.3318 350.469 65.6004 350.8 65.6004Z" fill="#B7CCFF"/>
<path d="M541.1 81.2003C541.763 81.2003 542.3 80.663 542.3 80.0003C542.3 79.3375 541.763 78.8003 541.1 78.8003C540.437 78.8003 539.9 79.3375 539.9 80.0003C539.9 80.663 540.437 81.2003 541.1 81.2003Z" fill="#B7CCFF"/>
<path d="M385 136.4C385.663 136.4 386.2 135.863 386.2 135.2C386.2 134.537 385.663 134 385 134C384.337 134 383.8 134.537 383.8 135.2C383.8 135.863 384.337 136.4 385 136.4Z" fill="#B7CCFF"/>
<path d="M50.8997 128.501C51.5625 128.501 52.0997 127.963 52.0997 127.301C52.0997 126.638 51.5625 126.101 50.8997 126.101C50.237 126.101 49.6997 126.638 49.6997 127.301C49.6997 127.963 50.237 128.501 50.8997 128.501Z" fill="#B7CCFF"/>
<path d="M911.4 232.5C911.952 232.5 912.4 232.052 912.4 231.5C912.4 230.948 911.952 230.5 911.4 230.5C910.848 230.5 910.4 230.948 910.4 231.5C910.4 232.052 910.848 232.5 911.4 232.5Z" fill="#B7CCFF"/>
<path d="M985.9 231.8C986.452 231.8 986.9 231.353 986.9 230.8C986.9 230.248 986.452 229.8 985.9 229.8C985.348 229.8 984.9 230.248 984.9 230.8C984.9 231.353 985.348 231.8 985.9 231.8Z" fill="#B7CCFF"/>
<path d="M426.2 89.3003C426.752 89.3003 427.2 88.8526 427.2 88.3003C427.2 87.748 426.752 87.3003 426.2 87.3003C425.648 87.3003 425.2 87.748 425.2 88.3003C425.2 88.8526 425.648 89.3003 426.2 89.3003Z" fill="#B7CCFF"/>
<path d="M951.7 229.3C952.252 229.3 952.7 228.853 952.7 228.3C952.7 227.748 952.252 227.3 951.7 227.3C951.148 227.3 950.7 227.748 950.7 228.3C950.7 228.853 951.148 229.3 951.7 229.3Z" fill="#B7CCFF"/>
<path d="M966 216.2C966.552 216.2 967 215.752 967 215.2C967 214.648 966.552 214.2 966 214.2C965.448 214.2 965 214.648 965 215.2C965 215.752 965.448 216.2 966 216.2Z" fill="#B7CCFF"/>
<path d="M709.1 48.7002L707.6 45.7002L709.1 42.7002L710.7 45.7002L709.1 48.7002Z" fill="#B7CCFF"/>
<path d="M816.1 117.4L813.5 112.3L816.1 107.3L818.7 112.3L816.1 117.4Z" fill="#91FFAD"/>
<path d="M709.1 48.7002L707.6 45.7002L709.1 42.7002L710.7 45.7002L709.1 48.7002Z" fill="#B7CCFF"/>
<path d="M474.1 258.8C474.652 258.8 475.1 258.353 475.1 257.8C475.1 257.248 474.652 256.8 474.1 256.8C473.548 256.8 473.1 257.248 473.1 257.8C473.1 258.353 473.548 258.8 474.1 258.8Z" fill="#B7CCFF"/>
<path d="M197.9 211C198.452 211 198.9 210.552 198.9 210C198.9 209.448 198.452 209 197.9 209C197.348 209 196.9 209.448 196.9 210C196.9 210.552 197.348 211 197.9 211Z" fill="#B7CCFF"/>
<path d="M227.1 246.8C227.652 246.8 228.1 246.353 228.1 245.8C228.1 245.248 227.652 244.8 227.1 244.8C226.548 244.8 226.1 245.248 226.1 245.8C226.1 246.353 226.548 246.8 227.1 246.8Z" fill="#B7CCFF"/>
<path d="M199.9 173.9C200.452 173.9 200.9 173.453 200.9 172.9C200.9 172.348 200.452 171.9 199.9 171.9C199.348 171.9 198.9 172.348 198.9 172.9C198.9 173.453 199.348 173.9 199.9 173.9Z" fill="#B7CCFF"/>
<path d="M950.2 278.9C950.752 278.9 951.2 278.453 951.2 277.9C951.2 277.348 950.752 276.9 950.2 276.9C949.648 276.9 949.2 277.348 949.2 277.9C949.2 278.453 949.648 278.9 950.2 278.9Z" fill="#B7CCFF"/>
<path d="M1100.5 242.1C1101.05 242.1 1101.5 241.652 1101.5 241.1C1101.5 240.548 1101.05 240.1 1100.5 240.1C1099.95 240.1 1099.5 240.548 1099.5 241.1C1099.5 241.652 1099.95 242.1 1100.5 242.1Z" fill="#B7CCFF"/>
<path d="M1024.5 285.3C1025.05 285.3 1025.5 284.853 1025.5 284.3C1025.5 283.748 1025.05 283.3 1024.5 283.3C1023.95 283.3 1023.5 283.748 1023.5 284.3C1023.5 284.853 1023.95 285.3 1024.5 285.3Z" fill="#B7CCFF"/>
<path d="M665.4 72.6001C665.952 72.6001 666.4 72.1524 666.4 71.6001C666.4 71.0478 665.952 70.6001 665.4 70.6001C664.848 70.6001 664.4 71.0478 664.4 71.6001C664.4 72.1524 664.848 72.6001 665.4 72.6001Z" fill="#B7CCFF"/>
<g style="mix-blend-mode:screen" opacity="0.7">
<path d="M446.7 256.5L443.5 250.2L446.7 244L450 250.2L446.7 256.5Z" fill="white"/>
</g>
<g style="mix-blend-mode:screen" opacity="0.29">
<path d="M627.9 212.4L627 210.6L627.9 208.8L628.9 210.6L627.9 212.4Z" fill="white"/>
</g>
<path d="M837.779 162.832C836.943 162.308 836.23 161.609 835.69 160.783C835.151 159.957 834.796 159.024 834.652 158.048L834.179 154.685C834.154 154.612 834.11 154.547 834.052 154.497C833.994 154.447 833.923 154.413 833.847 154.4C833.767 154.4 833.689 154.428 833.628 154.48C833.567 154.532 833.527 154.605 833.516 154.685L832.995 158.048C832.859 159.021 832.513 159.953 831.982 160.779C831.45 161.605 830.745 162.306 829.916 162.832L829.442 163.116C829.36 163.189 829.309 163.291 829.3 163.4C829.309 163.51 829.36 163.612 829.442 163.685L829.916 163.969C830.745 164.495 831.45 165.196 831.982 166.022C832.513 166.848 832.859 167.78 832.995 168.753L833.516 172.116C833.527 172.196 833.567 172.268 833.628 172.321C833.689 172.373 833.767 172.401 833.847 172.4C833.923 172.387 833.994 172.354 834.052 172.304C834.11 172.254 834.154 172.189 834.179 172.116L834.652 168.753C834.796 167.777 835.151 166.844 835.69 166.018C836.23 165.192 836.943 164.493 837.779 163.969L838.205 163.685C838.287 163.612 838.338 163.51 838.347 163.4C838.338 163.291 838.287 163.189 838.205 163.116L837.779 162.832Z" fill="#66BCFF"/>
<path d="M681 244.5C680.261 244.051 679.633 243.439 679.166 242.712C678.698 241.984 678.402 241.159 678.3 240.3L677.8 237.4C677.8 237.3 677.7 237.2 677.5 237.2L677.2 237.4L676.8 240.3C676.698 241.159 676.402 241.984 675.934 242.712C675.466 243.439 674.839 244.051 674.1 244.5L673.7 244.7C673.7 244.8 673.6 244.9 673.6 245C673.606 245.077 673.642 245.149 673.7 245.2L674.1 245.5C674.844 245.944 675.475 246.554 675.944 247.283C676.412 248.011 676.705 248.839 676.8 249.7L677.2 252.6L677.5 252.8C677.7 252.8 677.8 252.7 677.8 252.6L678.3 249.7C678.394 248.839 678.687 248.011 679.156 247.283C679.624 246.554 680.256 245.944 681 245.5L681.3 245.2C681.353 245.2 681.404 245.179 681.441 245.142C681.479 245.104 681.5 245.053 681.5 245C681.5 244.9 681.4 244.8 681.3 244.7L681 244.5Z" fill="white"/>
<path d="M317 303.2C315.256 302.07 313.769 300.588 312.632 298.848C311.495 297.109 310.735 295.151 310.4 293.1L309.4 286C309.376 285.833 309.291 285.679 309.163 285.569C309.034 285.459 308.87 285.399 308.7 285.4C308.3 285.4 308 285.6 308 286L306.9 293.1C306.589 295.147 305.849 297.104 304.729 298.845C303.608 300.585 302.133 302.069 300.4 303.2L299.4 303.8C299.304 303.867 299.226 303.957 299.173 304.062C299.121 304.167 299.096 304.283 299.1 304.4C299.085 304.519 299.105 304.639 299.158 304.746C299.212 304.853 299.296 304.942 299.4 305L300.4 305.6C302.145 306.742 303.627 308.242 304.748 310.001C305.868 311.76 306.602 313.736 306.9 315.8L308 322.9C308.024 323.068 308.109 323.222 308.237 323.332C308.366 323.442 308.53 323.502 308.7 323.5C308.86 323.473 309.009 323.403 309.133 323.297C309.256 323.191 309.348 323.054 309.4 322.9L310.4 315.8C310.716 313.73 311.467 311.75 312.605 309.992C313.743 308.234 315.241 306.737 317 305.6L317.9 305C318.004 304.942 318.088 304.853 318.142 304.746C318.195 304.639 318.215 304.519 318.2 304.4C318.204 304.283 318.179 304.167 318.127 304.062C318.074 303.957 317.996 303.867 317.9 303.8L317 303.2Z" fill="#FFE75C"/>
<path d="M447.4 308.3C446.066 307.448 444.929 306.32 444.067 304.992C443.204 303.663 442.636 302.166 442.4 300.6L441.6 295.2C441.577 295.086 441.514 294.983 441.422 294.91C441.331 294.837 441.217 294.798 441.1 294.8C440.983 294.798 440.869 294.837 440.778 294.91C440.686 294.983 440.623 295.086 440.6 295.2L439.7 300.6C439.508 302.168 438.969 303.673 438.121 305.005C437.273 306.337 436.139 307.463 434.8 308.3L434.1 308.7C434.004 308.742 433.923 308.812 433.87 308.902C433.816 308.992 433.791 309.096 433.8 309.2C433.791 309.305 433.816 309.409 433.87 309.499C433.923 309.588 434.004 309.659 434.1 309.7L434.8 310.1C436.139 310.938 437.273 312.064 438.121 313.396C438.969 314.728 439.508 316.233 439.7 317.8L440.6 323.2C440.623 323.315 440.686 323.418 440.778 323.491C440.869 323.564 440.983 323.603 441.1 323.6C441.217 323.603 441.331 323.564 441.422 323.491C441.514 323.418 441.577 323.315 441.6 323.2L442.4 317.8C442.636 316.235 443.204 314.737 444.067 313.409C444.929 312.081 446.066 310.953 447.4 310.1L448.1 309.7C448.222 309.562 448.293 309.385 448.3 309.2C448.293 309.016 448.222 308.839 448.1 308.7L447.4 308.3Z" fill="#8CD9FF"/>
<path opacity="0.6" d="M517.4 174.1C516.831 173.759 516.347 173.295 515.984 172.74C515.62 172.186 515.386 171.557 515.3 170.9L515 168.6H514.5L514.2 170.9C514.094 171.551 513.852 172.172 513.49 172.724C513.128 173.275 512.655 173.744 512.1 174.1L511.8 174.3V174.5C511.8 174.6 511.8 174.7 511.9 174.7L512.2 174.9C512.755 175.256 513.229 175.725 513.59 176.277C513.952 176.828 514.194 177.449 514.3 178.1L514.6 180.4L514.8 180.6L515.1 180.4L515.4 178.1C515.486 177.443 515.72 176.814 516.084 176.26C516.447 175.706 516.931 175.241 517.5 174.9L517.8 174.7V174.5V174.3L517.4 174.1Z" fill="#FFF2A6"/>
<path opacity="0.7" d="M807.1 250.8C806.529 250.438 806.045 249.955 805.682 249.384C805.319 248.814 805.086 248.171 805 247.5L804.6 245.3C804.6 245.247 804.579 245.196 804.541 245.159C804.504 245.121 804.453 245.1 804.4 245.1C804.347 245.1 804.296 245.121 804.258 245.159C804.221 245.196 804.2 245.247 804.2 245.3L803.9 247.5C803.795 248.165 803.555 248.801 803.193 249.369C802.832 249.936 802.358 250.424 801.8 250.8L801.5 251C801.4 251 801.4 251.1 801.4 251.2C801.406 251.277 801.442 251.349 801.5 251.4H801.8C802.358 251.776 802.832 252.264 803.193 252.831C803.555 253.399 803.795 254.035 803.9 254.7L804.2 256.9C804.2 256.953 804.221 257.004 804.258 257.042C804.296 257.079 804.347 257.1 804.4 257.1C804.453 257.1 804.504 257.079 804.541 257.042C804.579 257.004 804.6 256.953 804.6 256.9L805 254.7C805.086 254.03 805.319 253.386 805.682 252.816C806.045 252.245 806.529 251.762 807.1 251.4H807.4V251.2V251L807.1 250.8Z" fill="#96FFFD"/>
<path d="M729.1 94.0003C728.545 93.6441 728.071 93.1751 727.709 92.6237C727.348 92.0724 727.106 91.4512 727 90.8003L726.7 88.5003C726.7 88.4472 726.679 88.3964 726.641 88.3589C726.604 88.3214 726.553 88.3003 726.5 88.3003L726.2 88.5003L725.9 90.8003C725.794 91.4512 725.552 92.0724 725.19 92.6237C724.829 93.1751 724.355 93.6441 723.8 94.0003L723.5 94.2003C723.5 94.3003 723.4 94.3003 723.4 94.4003V94.6003L723.7 94.8003C724.255 95.1565 724.729 95.6255 725.09 96.1768C725.452 96.7281 725.694 97.3494 725.8 98.0003L726.1 100.3L726.4 100.5C726.453 100.5 726.504 100.479 726.541 100.442C726.579 100.404 726.6 100.353 726.6 100.3L726.9 98.0003C727.006 97.3494 727.248 96.7281 727.609 96.1768C727.971 95.6255 728.445 95.1565 729 94.8003L729.3 94.6003C729.4 94.6003 729.4 94.5003 729.4 94.4003C729.4 94.3003 729.4 94.3003 729.3 94.2003L729.1 94.0003Z" fill="#765EFF"/>
<path opacity="0.6" d="M498.7 186.8C497.683 186.144 496.818 185.278 496.163 184.26C495.507 183.243 495.077 182.097 494.9 180.9L494.3 176.8C494.3 176.6 494.1 176.5 493.9 176.5C493.7 176.5 493.5 176.6 493.5 176.8L492.8 180.9C492.641 182.091 492.228 183.234 491.59 184.252C490.952 185.269 490.103 186.138 489.1 186.8L488.5 187.1C488.438 187.147 488.387 187.207 488.353 187.276C488.318 187.346 488.3 187.422 488.3 187.5C488.3 187.578 488.318 187.654 488.353 187.724C488.387 187.793 488.438 187.853 488.5 187.9L489.1 188.2C490.103 188.862 490.952 189.731 491.59 190.748C492.228 191.766 492.641 192.909 492.8 194.1L493.5 198.2C493.5 198.4 493.7 198.5 493.9 198.5C494.1 198.5 494.3 198.4 494.3 198.2L494.9 194.1C495.077 192.903 495.507 191.757 496.163 190.74C496.818 189.722 497.683 188.856 498.7 188.2L499.2 187.9C499.262 187.853 499.312 187.793 499.347 187.724C499.382 187.654 499.4 187.578 499.4 187.5C499.4 187.422 499.382 187.346 499.347 187.276C499.312 187.207 499.262 187.147 499.2 187.1L498.7 186.8Z" fill="#FF78B9"/>
<path opacity="0.7" d="M267.2 75.7998L262 65.7998L267.2 55.7998L272.4 65.7998L267.2 75.7998Z" fill="#FD96FF"/>
<path opacity="0.7" d="M928 363.6L915.4 339.3L928 315L940.7 339.3L928 363.6Z" fill="#96FFFD"/>
<path d="M172.3 212.7C172.852 212.7 173.3 212.252 173.3 211.7C173.3 211.148 172.852 210.7 172.3 210.7C171.748 210.7 171.3 211.148 171.3 211.7C171.3 212.252 171.748 212.7 172.3 212.7Z" fill="#7C78FF"/>
<path d="M416.3 209.2C417.073 209.2 417.7 208.574 417.7 207.8C417.7 207.027 417.073 206.4 416.3 206.4C415.527 206.4 414.9 207.027 414.9 207.8C414.9 208.574 415.527 209.2 416.3 209.2Z" fill="#B7CCFF"/>
<path d="M783.8 144.3C784.407 144.3 784.9 143.808 784.9 143.2C784.9 142.593 784.407 142.1 783.8 142.1C783.192 142.1 782.7 142.593 782.7 143.2C782.7 143.808 783.192 144.3 783.8 144.3Z" fill="#7C78FF"/>
</g>
</g>
<defs>
<linearGradient id="paint0_linear_192_1295" x1="564" y1="88.6206" x2="564" y2="307.525" gradientUnits="userSpaceOnUse">
<stop/>
<stop offset="0.481248" stop-opacity="0.501857"/>
<stop offset="1" stop-opacity="0"/>
</linearGradient>
<linearGradient id="paint1_linear_192_1295" x1="515.498" y1="19.0001" x2="525.498" y2="891.499" gradientUnits="userSpaceOnUse">
<stop stop-color="#4C33FF"/>
<stop offset="1" stop-color="#FF75FA"/>
</linearGradient>
<linearGradient id="paint2_linear_192_1295" x1="723.57" y1="260.8" x2="729.36" y2="260.8" gradientUnits="userSpaceOnUse">
<stop stop-color="#C7D4FF"/>
<stop offset="1" stop-color="#A8BDFF"/>
</linearGradient>
<linearGradient id="paint3_linear_192_1295" x1="975.47" y1="312.33" x2="981.27" y2="312.33" gradientUnits="userSpaceOnUse">
<stop stop-color="#C7D4FF"/>
<stop offset="1" stop-color="#A8BDFF"/>
</linearGradient>
<clipPath id="clip0_192_1295">
<rect width="1127" height="327" fill="white"/>
</clipPath>
</defs>
</svg>
