<svg fill="none" height="86" viewBox="0 0 660 86" width="660" xmlns="http://www.w3.org/2000/svg" xmlns:xlink="http://www.w3.org/1999/xlink"><clipPath id="a"><path d="m0 0h660v86h-660z"/></clipPath><g clip-path="url(#a)" fill="#fff"><path d="m61.16 40.45h-7.8c-5.495.0018-10.9366-1.0792-16.0138-3.1811-5.0771-2.1019-9.6904-5.1835-13.5762-9.0689l-3.39-3.4c-3.7579-3.7512-8.8503-5.8587-14.16-5.86h-6.22v67.06h127l-31.16-31.18c-4.5524-4.5571-9.9586-8.172-15.9093-10.6378-5.9508-2.4657-12.3293-3.734-18.7707-3.7322z" opacity=".2"/><path d="m450.3 72.85v13.15h-39.86v-13.15l6.08-6.08h27.7z" opacity=".1"/><path d="m410.44 72.85h29.52v-6.15h-23.44z" opacity=".1"/><path d="m431.7 86 .54-6.42 1.1-12.83.72-8.49h26.39l.72 8.49.3 3.52.07.68.14 1.76.09 1.07 1.04 12.22z" opacity=".1"/><path d="m461.01 79.58h-58.86v6.42h58.86z" opacity=".1"/><path d="m460.66 79.6-.54 6.4h-1.53l.55-6.4z" opacity=".1"/><path d="m403.05 86h-16.2l1.03-12.2.1-1.09h13.93l.1 1.09.49 5.78z" opacity=".1"/><path d="m385.6 73.8h18.7v-3.52h-18.7z" opacity=".1"/><path d="m385.6 70.28h18.7v-3.51h-18.7z" opacity=".1"/><path d="m400.1 71h4.2v-4.24h-4.2zm-8.17 0h6.23v-4.24h-6.23zm-6.33 0h4.84v-4.24h-4.84z" opacity=".1"/><path d="m468.22 80.89c.205-.007.409.027.6.1.192.077.369.189.52.33.294.2944.46.6936.46 1.11v2.44h-3.14v-2.44c-.002-.3084.09-.6101.263-.8653.174-.2552.42-.4521.707-.5647.187-.076.388-.113.59-.11z" opacity=".1"/><path d="m395 77.61c.405.0026.793.1647 1.079.451.286.2864.448.674.451 1.079v2.43h-3.05v-2.42c-.001-.2009.039-.4.116-.5854.077-.1855.191-.3536.334-.4946.141-.1433.309-.2569.494-.3342.186-.0773.385-.1166.586-.1158z" opacity=".1"/><path d="m476.33 86h-16.21l.55-6.42.49-5.8.1-1.07h13.93l.09 1.07z" opacity=".1"/><path d="m477.57 70.27h-18.7v3.52h18.7z" opacity=".1"/><path d="m477.57 66.76h-18.7v3.51h18.7z" opacity=".1"/><path d="m465.1 66.76h-6.23v4.24h6.23zm8.17 0h-6.27v4.24h6.23zm4.31 0h-2.82v4.24h2.82zm-40.74-8.51h20.84v-17.82h-20.84z" opacity=".1"/><path d="m404.58 86h-1.53l-.54-6.4h1.52z" opacity=".1"/><path d="m464.07 52.35h-33.63v5.9h33.63z" opacity=".1"/><path d="m434.06 58.26-.17 2h26.73l-.17-2zm30.01-9.43h-33.63v3.52h33.63z" opacity=".1"/><path d="m448.94 48.83h-12.11v4.17h12.11zm10.71 0h-7.52v4.17h7.52zm4.43 0h-2.82v4.17h2.82zm-33.63 4.17h3.8v-4.2h-3.8z" opacity=".1"/><path d="m447.26 32.11-7.26 8.33h14.59z" opacity=".1"/><path d="m468.22 77.61c.205-.007.409.026.6.1.192.076.369.188.52.33.148.144.264.318.34.51.08.19.121.394.12.6v2.43h-3.14v-2.43c-.002-.3085.09-.6102.263-.8655s.42-.4521.707-.5645c.186-.08.387-.118.59-.11z" opacity=".1"/><path d="m447.83 20h-1.16v12.75h1.16z" opacity=".1"/><path d="m447.26 20.37c.244 0 .477-.0968.65-.2692.172-.1723.269-.4061.269-.6498s-.097-.4775-.269-.6498c-.173-.1724-.406-.2692-.65-.2692s-.477.0968-.65.2692c-.172.1723-.269.4061-.269.6498s.097.4775.269.6498c.173.1724.406.2692.65.2692z" opacity=".1"/><path d="m458.44 21.06h-10.61v9.22h10.61z" opacity=".1"/><path d="m465.9 23.52h-12.24v9.22h12.24z" opacity=".1"/><path d="m453.66 30.28h4.78l-4.78 2.47zm36.81 45.14c0-.5254-.103-1.0457-.304-1.5312s-.495-.9266-.867-1.2981c-.371-.3715-.812-.6661-1.298-.867-.485-.2009-1.006-.3041-1.531-.3037-.525-.0001-1.045.1032-1.531.3042-.485.201-.926.4956-1.298.8671-.371.3714-.666.8125-.867 1.2978-.201.4854-.304 1.0056-.304 1.5309v3.47c0 .5254.103 1.0457.304 1.5312s.495.9266.867 1.2981c.371.3715.812.6661 1.298.867.485.2009 1.006.3041 1.531.3037.525.0001 1.046-.1032 1.531-.3042s.926-.4956 1.298-.8671c.371-.3714.666-.8124.867-1.2978s.304-1.0056.304-1.5309z" opacity=".1"/><path d="m487 76.65h-1v9.35h1z" opacity=".1"/><path d="m521.85 77.46c0-1.0609-.421-2.0783-1.172-2.8284-.75-.7502-1.767-1.1716-2.828-1.1716s-2.078.4214-2.828 1.1716c-.751.7501-1.172 1.7675-1.172 2.8284v3.47c.023 1.0454.455 2.0401 1.203 2.7711.747.7311 1.751 1.1405 2.797 1.1405s2.05-.4094 2.797-1.1405c.748-.731 1.18-1.7257 1.203-2.7711z" opacity=".1"/><path d="m518.37 78.69h-1v7.31h1z" opacity=".1"/><path d="m380.72 76.2c0-.5254-.103-1.0457-.304-1.5312s-.495-.9266-.867-1.2981c-.371-.3715-.812-.6661-1.298-.867-.485-.2009-1.006-.3041-1.531-.3037-.525-.0003-1.046.103-1.531.3039-.485.201-.927.4956-1.298.8671-.372.3715-.666.8125-.867 1.298-.201.4854-.304 1.0056-.304 1.531v3.48c0 .5254.103 1.0457.304 1.5312s.495.9266.867 1.2981c.371.3715.812.6661 1.298.867.485.2009 1.006.3041 1.531.3037.525.0003 1.046-.103 1.531-.3039.485-.201.926-.4956 1.298-.8671.371-.3715.666-.8125.867-1.298.201-.4854.304-1.0056.304-1.531z" opacity=".1"/><path d="m377.25 77.44h-1v8.56h1z" opacity=".1"/><path d="m494.47 81.32c.525-.0003 1.046.103 1.531.3039.485.201.926.4956 1.298.8671.371.3715.666.8125.867 1.298.201.4854.304 1.0056.304 1.531v.68h-8v-.68c.003-.5243.105-1.0433.3-1.53.202-.487.497-.928.87-1.3.368-.3736.807-.6696 1.292-.8705.484-.201 1.004-.3028 1.528-.2995z" opacity=".1"/><path d="m623 59.26-8.81-8c-10.421-9.4638-23.993-14.7079-38.07-14.71h-48.44c-4.071-.0079-8.09-.9209-11.765-2.6729-3.676-1.752-6.915-4.2991-9.485-7.4571l-.25-.31c-2.582-3.1654-5.837-5.7154-9.529-7.4643-3.691-1.7489-7.726-2.6527-11.811-2.6457h-58.41c-11.82-.0012-23.372 3.5222-33.18 10.12l-14.13 9.51c-9.807 6.598-21.36 10.1215-33.18 10.12h-84.69c-7.865.0018-15.642 1.6558-22.827 4.8548-7.186 3.1989-13.619 7.8716-18.883 13.7152l-19.54 21.68h460.43v-22.43h-26.28c-4.123-.0021-8.098-1.5385-11.15-4.31z" opacity=".2"/></g></svg>