<svg width="273" height="185" viewBox="0 0 273 185" fill="none" xmlns="http://www.w3.org/2000/svg">
<path d="M199.932 158.01C208.242 157.396 224.334 156.041 229.672 158.815C232.505 160.285 235.389 165.437 232.606 174.796C229.987 183.642 226.008 183.962 220.833 183.962C215.268 183.962 195.412 183.962 195.412 183.962L199.907 158.023L199.932 158.01Z" fill="#4970DE"/>
<path d="M155.121 158.01C146.811 157.396 130.719 156.041 125.381 158.815C122.548 160.285 119.664 165.437 122.447 174.796C125.066 183.642 129.045 183.962 134.22 183.962C139.785 183.962 159.641 183.962 159.641 183.962L155.146 158.023L155.121 158.01Z" fill="#4970DE"/>
<path d="M162.204 117.544C162.204 117.544 153.217 125.664 145.218 140.191C137.919 153.422 143.296 159.402 150.867 159.641C162.503 160.019 171.139 158.03 171.139 158.03V118.891L162.204 117.531V117.544Z" fill="#6990FF"/>
<path d="M168.644 117.74C149.538 144.437 148.144 183.962 148.144 183.962H210.553C210.553 183.962 216.696 140.464 203.835 116.254L168.644 117.753V117.74Z" fill="url(#paint0_linear_5075_81974)"/>
<path d="M203.077 118.834C190.422 130.457 165.962 127.061 159.641 120.243C161.225 118.453 162.19 117.531 162.19 117.531L203.077 118.834Z" fill="#4970DE"/>
<path d="M192.962 142.142C190.59 133.009 182.164 131.584 172.023 131.584C161.894 131.584 154.503 133.009 152.131 142.142C149.772 151.251 149.911 162.343 155.726 163.234C160.671 163.997 165.439 159.977 168.024 155.41L175.176 155.309C177.762 159.875 183.59 164.442 188.522 163.361C194.274 162.102 195.32 151.251 192.949 142.142H192.962Z" fill="white"/>
<path d="M178.849 132.513C178.429 131.355 180.989 129.864 184.469 130.431C187.949 130.997 191.205 133.697 191.56 136.691C191.835 138.922 189.157 137.825 186.005 136.507C181.436 134.609 179.151 133.302 178.862 132.501L178.849 132.513Z" fill="#29CC7A"/>
<path d="M165.989 132.394C166.386 131.246 163.778 129.833 160.283 130.461C156.788 131.089 153.571 133.784 153.267 136.732C153.042 138.932 155.716 137.796 158.866 136.455C163.42 134.509 165.711 133.18 165.989 132.406V132.394Z" fill="#29CC7A"/>
<path d="M208.715 116.266C208.715 116.266 218.061 123.44 221.189 138.192C224.317 152.957 221.124 161.092 202.51 160.965C187.447 160.864 184.14 157.068 183.922 151.793C183.704 146.517 187.973 141.772 200.254 140.241L201.318 117.595L208.715 116.254V116.266Z" fill="#6990FF"/>
<path d="M201.013 143.081C199.997 143.081 199.118 142.368 198.981 141.377C198.446 137.624 197.979 133.792 197.979 133.792C197.855 132.708 198.665 131.717 199.791 131.598C200.917 131.466 201.946 132.259 202.07 133.343C202.07 133.343 202.523 137.148 203.058 140.835C203.209 141.919 202.427 142.923 201.301 143.068C201.205 143.068 201.109 143.081 201.013 143.081Z" fill="#3D58D9"/>
<path d="M149.029 141.804C151.884 142.55 156.127 144.275 157.72 149.254C159.695 155.431 157.032 161.53 150.992 160.925L145.589 153.848L149.029 141.804Z" fill="#6990FF"/>
<path d="M196.689 148.191L198.369 140.914C198.369 140.914 203.03 140.298 205.088 140.619L208.187 147.113L196.689 148.191Z" fill="#6990FF"/>
<path d="M132.813 86.8646C132.813 102.201 138.465 102.201 148.144 102.201V71.5408C138.465 71.5408 132.813 71.5408 132.813 86.8772V86.8646Z" fill="#4970DE"/>
<path d="M182.299 58.7656C213.057 58.7656 224.488 62.0497 224.488 89.4596L224.794 96.3855C224.513 120.384 204.242 120.524 178.306 119.949C154.756 119.438 141.756 116.869 141.756 89.4596C142.011 64.4137 151.541 58.7656 182.299 58.7656Z" fill="#6990FF"/>
<circle cx="201.16" cy="111.782" r="3.19378" fill="#231F20"/>
<path d="M206.27 91.9809C208.034 91.9809 209.464 90.551 209.464 88.7872C209.464 87.0233 208.034 85.5934 206.27 85.5934C204.507 85.5934 203.077 87.0233 203.077 88.7872C203.077 90.551 204.507 91.9809 206.27 91.9809Z" fill="#231F20"/>
<path d="M147.505 91.9809C149.268 91.9809 150.698 90.551 150.698 88.7872C150.698 87.0233 149.268 85.5934 147.505 85.5934C145.741 85.5934 144.311 87.0233 144.311 88.7872C144.311 90.551 145.741 91.9809 147.505 91.9809Z" fill="#231F20"/>
<path d="M153.366 88.6433C153.778 81.937 158.921 79.2058 175.61 79.2058C192.299 79.2058 197.442 81.937 197.854 88.6433C198.342 96.7215 197.262 105.633 194.241 108.993C190.782 112.827 183.993 113.699 175.61 113.699C167.227 113.699 160.438 112.814 156.979 108.993C153.958 105.633 152.878 96.7215 153.366 88.6433Z" fill="#B7CCFF"/>
<path d="M162.618 99.646H166.885C168.533 99.646 169.861 101.072 169.861 102.84C169.861 104.608 168.533 106.034 166.885 106.034H162.618C160.97 106.034 159.641 104.608 159.641 102.84C159.641 101.072 160.97 99.646 162.618 99.646Z" fill="#6990FF"/>
<path d="M180.503 99.646H184.77C186.418 99.646 187.746 101.072 187.746 102.84C187.746 104.608 186.418 106.034 184.77 106.034H180.503C178.855 106.034 177.526 104.608 177.526 102.84C177.526 101.072 178.855 99.646 180.503 99.646Z" fill="#6990FF"/>
<path d="M237.57 86.8709C237.57 102.201 231.936 102.201 222.287 102.201V86.8709L220.962 71.5408C229.922 71.5408 237.57 71.5408 237.57 86.8709Z" fill="#6990FF"/>
<path d="M229.904 88.1485C229.904 95.0326 228.959 95.7484 223.542 95.8134C222.827 95.8134 222.239 95.2148 222.239 94.473V88.1485V81.8239C222.239 81.0691 222.827 80.4705 223.542 80.4835C228.959 80.5486 229.904 81.2643 229.904 88.1485Z" fill="#B7CCFF"/>
<path d="M151.046 75.1942C151.922 75.4609 152.513 76.3144 152.401 77.208C152.269 78.2099 151.315 78.8982 150.271 78.7457C147.634 78.3629 146.037 79.1097 144.436 80.3509C143.632 80.9831 142.437 80.8481 141.76 80.0575C141.083 79.2669 141.193 78.1184 141.997 77.4862C143.823 76.0722 146.466 74.5123 150.731 75.1365C150.832 75.1545 150.932 75.1725 151.03 75.2022L151.046 75.1942Z" fill="#3D58D9"/>
<path d="M202.346 75.1942C201.47 75.4609 200.878 76.3144 200.991 77.208C201.123 78.2099 202.077 78.8982 203.121 78.7457C205.757 78.3629 207.354 79.1097 208.955 80.3509C209.759 80.9831 210.955 80.8481 211.632 80.0575C212.309 79.2669 212.199 78.1184 211.395 77.4862C209.568 76.0722 206.926 74.5123 202.661 75.1365C202.56 75.1545 202.459 75.1725 202.362 75.2022L202.346 75.1942Z" fill="#3D58D9"/>
<path d="M173.694 59.0296C173.694 59.0296 177.871 56.8301 182.395 53.1382C187.281 49.1583 191.419 45.1784 197.542 46.1341C206.359 47.5218 205.521 52.8764 201.19 57.1443C199.257 59.0557 196.562 60.6529 194.139 61.3206L173.694 59.0296Z" fill="#57F287"/>
<path d="M183.245 62.5852C182.4 62.5852 181.63 62.0029 181.416 61.123C181.164 60.0878 181.769 59.0268 182.778 58.768C183.333 58.6257 196.324 55.0026 198.026 41.2996C198.153 40.2385 199.111 39.488 200.145 39.6174C201.18 39.7468 201.911 40.7302 201.785 41.7913C199.754 58.1469 184.38 62.3652 183.724 62.5334C183.573 62.5722 183.409 62.5981 183.257 62.5981L183.245 62.5852Z" fill="#008D3C"/>
<path d="M171.413 47.3004C176.785 47.7689 179.995 51.5047 184.733 55.7829C190.066 60.5912 193.599 60.5912 195.412 60.283C188.021 62.3913 183.011 63.0324 174.921 62.3173C167.478 61.6515 163.724 57.5829 163.491 53.9952C163.219 49.9389 166.183 46.8566 171.413 47.3128V47.3004Z" fill="#29CC7A"/>
<path d="M186.469 62.1986C183.471 62.6149 180.473 62.7007 176.911 62.4802C171.684 59.3822 169.032 55.4271 168.878 55.1944C168.314 54.3373 168.584 53.1985 169.48 52.6597C170.377 52.1209 171.556 52.3781 172.12 53.2352C172.145 53.272 173.426 55.1577 175.937 57.2271C178.333 59.1986 181.856 61.3537 186.469 62.1986Z" fill="#008D3C"/>
<path d="M105.985 183.962H48.4663L38.3329 133.563C37.9909 131.877 39.2703 130.306 40.9803 130.306H95.1935L105.985 183.962Z" fill="#66BCFF"/>
<path d="M113.651 183.962H105.875L94.488 130.306H99.9706C101.302 130.306 102.448 131.213 102.725 132.478L113.651 183.962Z" fill="#3F99F2"/>
<path d="M109.355 177.587L107.263 183.962H158.364V181.679C158.364 179.421 156.517 177.574 154.231 177.574H109.355V177.587Z" fill="#3F99F2"/>
<path d="M78.0494 155.647C75.1105 154.041 72.8128 151.433 71.7308 148.504L69.8873 143.505C69.7938 143.261 69.54 143.081 69.2861 143.081C69.0323 143.081 68.8453 143.261 68.8587 143.505L69.1392 148.504C69.2995 151.433 68.1106 154.041 65.853 155.647L65.2652 156.058C65.1316 156.148 65.0782 156.315 65.1182 156.482V156.508C65.1583 156.675 65.2785 156.842 65.4522 156.932L66.2137 157.343C69.1526 158.949 71.4503 161.558 72.5323 164.487L74.3758 169.485C74.4693 169.729 74.7231 169.909 74.9769 169.909C75.2308 169.909 75.4178 169.729 75.4044 169.485L75.1239 164.487C74.9636 161.558 76.1525 158.949 78.4101 157.343L78.9979 156.932C79.1315 156.842 79.1849 156.675 79.1448 156.508V156.482C79.1048 156.315 78.9845 156.148 78.8109 156.058L78.0494 155.647Z" fill="#8CD9FF"/>
<path d="M1 183.5H272" stroke="#3D58D9" stroke-width="2" stroke-linecap="round"/>
<path fill-rule="evenodd" clip-rule="evenodd" d="M44.7801 0H117.368C121.665 0 125.148 3.19094 125.148 7.12717V60.581C125.148 64.5172 121.665 67.7082 117.368 67.7082H105.976C105.777 70.9692 105.989 79.722 112.551 89.0171C98.1904 82.7876 94.4104 71.7165 93.4897 67.7082H44.7801C40.4833 67.7082 37 64.5172 37 60.581V7.12717C37 3.19094 40.4833 0 44.7801 0Z" fill="white"/>
<path d="M88.3542 19.5609C99.1614 19.5609 104.73 24.469 104.73 30.4153C104.73 36.1256 100.294 39.8066 93.687 39.8066H91.7993V43.1101H80.3314V34.6154H86.3721C90.9498 34.6154 92.46 33.294 92.46 31.3119C92.46 29.3298 90.8554 27.8197 85.9946 27.8197C80.709 27.8197 76.8864 29.4714 75.2346 30.6512V22.7228C78.3965 20.8351 82.6439 19.5609 88.3542 19.5609ZM86.1834 45.3754C90.1004 45.3754 92.7903 47.3103 92.7903 50.0003C92.7903 52.7847 90.1004 54.7196 86.1834 54.7196C82.2192 54.7196 79.5292 52.7847 79.5292 50.0003C79.5292 47.3103 82.2192 45.3754 86.1834 45.3754Z" fill="#5865F2"/>
<path d="M70.6986 43.1101H59.2307V20.7407H70.6986V43.1101ZM64.9411 54.7195C60.9769 54.7195 58.2869 52.7846 58.2869 50.0003C58.2869 47.3103 60.9769 45.3754 64.9411 45.3754C68.8581 45.3754 71.548 47.3103 71.548 50.0003C71.548 52.7846 68.8581 54.7195 64.9411 54.7195Z" fill="#5865F2"/>
<defs>
<linearGradient id="paint0_linear_5075_81974" x1="179.7" y1="128.596" x2="179.995" y2="162.097" gradientUnits="userSpaceOnUse">
<stop offset="0.19" stop-color="#6990FF"/>
<stop offset="0.56" stop-color="#5279E7"/>
<stop offset="0.81" stop-color="#4970DE"/>
</linearGradient>
</defs>
</svg>
