<svg fill="none" height="105" viewBox="0 0 160 105" width="160" xmlns="http://www.w3.org/2000/svg" xmlns:xlink="http://www.w3.org/1999/xlink"><clipPath id="a"><path d="m0 0h160v105h-160z"/></clipPath><g clip-path="url(#a)"><path d="m160 75.1c-44.7 33.9-82.6-8.2-138.5 29.9l-4.9-17.2c2.5354-2.3333 4.3999-5.3027 5.4-8.6.6102-1.5123 1.0463-3.0891 1.3-4.7.4065-2.311.6073-4.6535.6-7 0-10-3.7-18.4-8.8-21.5-.8637-.5953-1.8587-.9727-2.9-1.1l-1.5-.2c-2.14753.0416-4.20755.8585-5.8 2.3l-4.9-17.1c55.8-38.00003 93.7 4 138.5-29.8000244l4.8 16.9000244c-2.069 1.9748-3.703 4.3587-4.8 7-.541 1.3739-1.009 2.776-1.4 4.2-.741 3.0103-1.11 6.0999-1.1 9.2 0 10.8 4.3 19.8 10.1 22.2.897.3418 1.841.5441 2.8.6h.3c2.197-.0353 4.302-.8914 5.9-2.4z" fill="#ff78b8"/><path d="m134.8 68.7999c-29.7 9.7-57.9-5-92.8 6.3l-11.8-40.9c34.9-11.4 63.2 3.4 92.8-6.4z" fill="#fff"/><path d="m107.2 60.0999c-15.1.1-30.4-2.6-47-1.3-1.2138.0947-2.4231-.2314-3.4247-.9234-1.0016-.6921-1.7344-1.7078-2.0753-2.8766l-2.2-7.7c-.1513-.5023-.1877-1.0323-.1064-1.5507.0812-.5183.2779-1.0118.5755-1.4439.2977-.432.6886-.7917 1.144-1.0522.4554-.2606.9636-.4155 1.4869-.4532 16.8-1.3 32.3 1.5 47.6 1.4 1.155-.038 2.288.3173 3.215 1.0077.926.6904 1.591 1.6749 1.885 2.7923l2.2 7.6c.155.5181.187 1.0649.095 1.5976-.093.5326-.307 1.0367-.627 1.4726-.319.436-.736.7919-1.216 1.04s-1.011.3815-1.552.3898z" fill="#7195ff"/><path d="m102 66.3999c-10.8-.4-21.9-1.8-33.5-1.5-1.6188-.0159-3.1902-.5483-4.4853-1.5196s-2.2462-2.3308-2.7147-3.8804l-5-17.7c-.2018-.685-.2414-1.4076-.1155-2.1105.1258-.703.4136-1.367.8405-1.9395.4269-.5724.9813-1.0376 1.6191-1.3587.6379-.3212 1.3418-.4893 2.0559-.4913 11.8-.2 23 1.2 34 1.6 1.5625.0415 3.0717.5767 4.3112 1.5288 1.2398.9522 2.1458 2.2723 2.5888 3.7712l5.1 17.7c.188.7086.207 1.4511.056 2.1684-.15.7173-.467 1.3894-.923 1.9627-.457.5733-1.041 1.0318-1.707 1.3389-.665.3072-1.393.4544-2.126.43z" fill="#7195ff"/><path d="m148.9 60.1999c-.959-.0558-1.903-.2582-2.8-.6l3.1 10.6c-10.7 6.4-21.7 9.1-36.4 9.1-5.9 0-11.7-.4-17.8-.8s-12.7-.9-19.4-.9c-12.4 0-29 1.4-48.1 11.8l-4.2-14.9c-.2537 1.6109-.6898 3.1877-1.3 4.7l4 13.9c18.1-10.6 34.4-13 49.6-13 12.9 0 25.1 1.7 37.2 1.7s25.9-2 39.3-10.4zm-90.5-37.7c6.5 0 12.8.5 19 .9s12.1.9 18.1.9c10.2 0 23.6-1.1 37.9-9.2l3.7 13.1c.391-1.424.859-2.826 1.4-4.2l-3.6-12.7c-13.4 8.4-26.3 10.5-39.4 10.5s-24.2-1.8-37.1-1.8c-15.3 0-31.5 2.5-49.60001 13.1l3.40001 11.8c1.0413.1273 2.0362.5047 2.9 1.1l-3.4-11.7c18.5-10.4 34.6-11.8 46.7-11.8z" fill="#ea459e"/><path d="m90.7 57.9999c-5-.4-10.1-.7-15.3-.9-.9605-.0795-1.8748-.4464-2.6239-1.0528s-1.2983-1.4243-1.5761-2.3472l-1.9-6.7c-.1162-.3758-.1383-.7744-.0642-1.1607.074-.3864.2419-.7486.4889-1.0548.2469-.3062.5653-.547.9272-.7013.3619-.1542.7562-.2171 1.1481-.1832 5.2.2 10.3.6 15.4.9.9471.0854 1.8461.4561 2.5781 1.0632.732.607 1.2627 1.4219 1.5219 2.3368l1.9 6.6c.1114.3809.1306.7828.0559 1.1725-.0746.3897-.241.756-.4853 1.0687s-.5595.5627-.9195.7294c-.3601.1668-.7547.2454-1.1511.2294z" fill="#b7ccff"/><path d="m81.1 55.1-5.3-.3c-.2428-.0064-.4779-.0863-.6743-.2291-.1964-.1429-.3448-.3419-.4257-.5709v-.2c-.0311-.1204-.0338-.2463-.0078-.3678s.08-.2353.1576-.3324c.0777-.097.1768-.1747.2897-.2267.1129-.0521.2363-.0771.3605-.0731l5.3.3c.2428.0182.4727.1164.6536.2793.181.1628.3028.3811.3464.6207h.1c.0515.1261.0699.2633.0535.3985s-.0671.264-.1472.3742c-.0802.1102-.1871.1981-.3107.2553-.1236.0573-.2597.0821-.3956.072z" fill="#7195ff"/><path d="m89.1 55.6-4-.2c-.2375-.0329-.4597-.1363-.638-.2967-.1782-.1604-.3043-.3706-.362-.6033v-.2c-.0369-.1158-.0431-.2391-.0179-.358.0252-.1188.0809-.229.1616-.3199.0807-.0908.1837-.159.2987-.1979.1151-.039.2383-.0473.3576-.0242l4 .2c.2375.0329.4598.1362.638.2967.1782.1604.3043.3705.362.6033v.2c.0369.1157.0431.2391.0179.3579-.0252.1189-.0809.2291-.1616.3199s-.1836.159-.2987.198c-.1151.0389-.2383.0473-.3576.0242z" fill="#7195ff"/><g fill="#fff"><path d="m65.745 49.504c1.067-.6986 1.2918-2.2428.502-3.449s-2.295-1.6176-3.362-.919-1.2918 2.2428-.502 3.449 2.295 1.6176 3.362.919z"/><path d="m98.476 51.1835c1.0641-.6937 1.291-2.2312.5068-3.4341-.7841-1.2029-2.2825-1.6157-3.3466-.9221-1.0641.6937-1.291 2.2312-.5069 3.4341.7842 1.203 2.2825 1.6158 3.3467.9221z"/><path d="m91.2 59.5-8.5-.6c3.7 3.7 7.1 3.3 8.5.6z"/></g><path d="m121 55.7h-.5c-1.356.2021-2.739-.0911-3.896-.8257s-2.01-1.8615-2.404-3.1743v-.4c-.178-.6182-.225-1.2668-.136-1.9041.088-.6372.309-1.2489.648-1.7955s.789-1.0159 1.321-1.3777 1.134-.608 1.767-.7227h.5c1.345-.2202 2.725.067 3.87.8061 1.146.7391 1.976 1.8773 2.33 3.1939l.2.4c.162.6249.193 1.2763.092 1.9138s-.333 1.2473-.68 1.7915c-.347.5441-.802 1.0109-1.338 1.3713-.535.3604-1.139.6067-1.774.7234z" fill="#ffe65c"/><path d="m46.7 57.2h-.6c-1.3295.2028-2.6876-.0797-3.826-.7958s-1.9811-1.818-2.374-3.1042v-.5c-.1782-.6119-.2243-1.2548-.1354-1.8859.0889-.6312.3109-1.2362.6513-1.7751.3403-.5389.7913-.9994 1.323-1.3509s1.132-.586 1.7611-.6881h.5c1.3192-.2208 2.6735.0558 3.8004.7763 1.127.7205 1.9464 1.8336 2.2996 3.1237l.2.5c.1621.6116.1963 1.2501.1004 1.8756-.0958.6254-.3197 1.2244-.6576 1.7593-.3379.535-.7825.9945-1.3061 1.3499-.5235.3553-1.1147.5988-1.7367.7152z" fill="#ffe65c"/><path d="m158.5 26.6c-1.434-.9245-2.657-2.1419-3.588-3.5724-.931-1.4304-1.548-3.0416-1.812-4.7276l-.9-5.9c0-.1326-.053-.2598-.146-.3536-.094-.0938-.221-.1464-.354-.1464-.143-.002-.282.0473-.392.139-.111.0917-.184.2197-.208.361l-.9 5.9c-.264 1.686-.881 3.2972-1.812 4.7276-.931 1.4305-2.153 2.6479-3.588 3.5724l-.7.5c-.096.0414-.177.112-.23.2017-.054.0897-.079.194-.07.2983-.009.1042.016.2085.07.2982.053.0897.134.1603.23.2018l.7.5c1.446.9352 2.676 2.1683 3.607 3.6169s1.543 3.0793 1.793 4.7831l.9 5.8c.024.1412.097.2693.208.361.11.0917.249.141.392.139.133 0 .26-.0527.354-.1465.093-.0938.146-.2209.146-.3535l.9-5.8c.251-1.7038.862-3.3345 1.793-4.7831s2.161-2.6817 3.607-3.6169l.8-.5c.122-.1386.193-.3153.2-.5-.007-.1848-.078-.3615-.2-.5z" fill="#8bd8ff"/><path d="m9.10001 70.8c-.82003-.5327-1.51352-1.2384-2.03179-2.0676-.51826-.8292-.84873-1.7618-.96821-2.7324l-.5-3.3c-.1-.1-.2-.3-.4-.3-.06894.025-.13155.0648-.18339.1166-.05185.0519-.09166.1145-.11661.1834l-.5 3.3c-.14391.9751-.49505 1.908-1.02978 2.736s-1.24065 1.5318-2.07022 2.064l-.399998.3c-.1 0-.2.1-.2.3l.2.3.399998.2c.82957.5323 1.53549 1.2361 2.07022 2.0641.53473.8279.88587 1.7608 1.02978 2.7359l.5 3.3c0 .0796.03161.1559.08787.2122.05626.0562.13257.0878.21213.0878.2 0 .3-.1.4-.3l.5-3.3c.11948-.9705.44995-1.9031.96821-2.7323.51827-.8293 1.21176-1.535 2.03179-2.0677l.5-.2c.03619-.0406.06371-.0881.08091-.1397.01719-.0516.02369-.1061.01909-.1603 0-.2 0-.3-.1-.3z" fill="#59f287"/></g></svg>