<svg fill="none" height="54" viewBox="0 0 69 54" width="69" xmlns="http://www.w3.org/2000/svg"><path d="m46.0793 7.75996-.1925.32h-10.953s8.9421-7.786674 9.0704-7.765341c.0692.001433.1363.023747.1926.064l.1497.085333h.0642l.0855.064c.1528.100502.296.214758.4279.341334.0674.04555.1255.103468.1711.170664.1102.08865.2106.18877.2995.29867h.0214l.107.14933.0855.064h-.0213c.7065.86151 1.1323 1.91773 1.2202 3.02722s-.1662 2.21929-.7282 3.18079z" fill="#c0c2c4"/><path d="m45.6086 1.65864h-.0214c-1.6643 2.14626-3.4726 4.17758-5.4123 6.07999-.1031.12419-.2177.23847-.3423.34134h-3.0377l.3851-.36267c.492-.448 1.0482-.96 1.6472-1.55733 1.845-1.83995 3.574-3.79214 5.1769-5.845334.0692.001433.1364.023747.1926.064l.1497.085333h.0642l.0856.064001.4278.341333c.0674.04555.1255.103468.1711.170667.1103.08864.2106.18877.2995.29867h.0214l.107.14933z" fill="#888991"/><path d="m54.679 17.9786h9.1773c1.2161 0 2.3828.4803 3.2447 1.3359.8619.8555 1.349 2.0167 1.3547 3.2295v10.304c0 1.2164-.4846 2.3831-1.3471 3.2432-.8626.8602-2.0325 1.3434-3.2523 1.3434h-9.1773z" fill="#4f545c"/><path d="m58.4226 21.392h4.5994c.607 0 1.1893.2405 1.6185.6686.4293.4281.6705 1.0087.6705 1.6141v8c0 .6054-.2412 1.186-.6705 1.6141-.4292.428-1.0115.6685-1.6185.6685h-4.5994v-12.5866z" fill="#a6a8ac"/><path d="m12.2792 26.2773v11.136h-9.17733c-1.10124.0107-2.167699-.3843-2.994936-1.1093l2.994936-2.4747 1.86114-1.5146 3.57253-2.9654z" fill="#6592ff"/><path d="m61.995 17.9787v16.1066c.0016 1.1325-.1863 2.2573-.5562 3.3281-.6958 2.0287-2.0103 3.7898-3.7594 5.0368s-3.8454 1.9176-5.9955 1.9178h-36.4099c-2.1501-.0002-4.2463-.6708-5.99545-1.9178-1.74911-1.247-3.06356-3.0081-3.75945-5.0368-.3698-1.0708-.55779-2.1956-.5562-3.3281l30.9548-26.32529h15.7662c2.7236-.00005 5.3366 1.07451 7.2685 2.98909 1.9319 1.9145 3.0257 4.5136 3.0426 7.2296z" fill="#72767d"/><path d="m47.2345 19.8133v8.192c0 2.1124-.84 4.1385-2.3358 5.6342s-3.5253 2.3388-5.6436 2.3445h-11.5305c-2.1219 0-4.1569-.8407-5.6574-2.3369-1.5004-1.4963-2.3433-3.5257-2.3433-5.6418v-3.3493l10.0972-8.128h14.119c.4326 0 .861.0849 1.2607.25s.7629.4071 1.0688.7122.5486.6672.7141 1.0658c.1656.3986.2508.8259.2508 1.2573z" fill="#b9bbbe"/><path d="m53.5665 25.3386c1.7131 0 3.1019-1.3849 3.1019-3.0933s-1.3888-3.0933-3.1019-3.0933-3.1019 1.3849-3.1019 3.0933 1.3888 3.0933 3.1019 3.0933z" fill="#202225"/><path d="m42.4211 28.048h-4.4282c-.7916 0-1.4333.64-1.4333 1.4294v.0021c0 .7894.6417 1.4293 1.4333 1.4293h4.4282c.7916 0 1.4333-.6399 1.4333-1.4293v-.0021c0-.7894-.6417-1.4294-1.4333-1.4294z" fill="#72767d"/><path d="m28.9653 28.048h-4.4283c-.7915 0-1.4332.64-1.4332 1.4294v.0021c0 .7894.6417 1.4293 1.4332 1.4293h4.4283c.7916 0 1.4333-.6399 1.4333-1.4293v-.0021c0-.7894-.6417-1.4294-1.4333-1.4294z" fill="#72737d"/><path d="m.791412 36.88c0 2.5173-.064177 4.864 2.438738 7.8293 2.09645 2.4533 5.66898 6.6347 6.65303 7.616.35062.3493.79732.5869 1.28352.6827 1.7114.2773 3.4656-1.3014 4.2357-3.9894l.6418-2.3466c4.4068 2.5813 9.5624-1.088 11.5733-8.2134l1.2621-4.48c.9841.4907 2.0965.4694 3.1875-.2133.6205 1.6353 1.4242 3.1954 2.396 4.6507.3208.4906.877.4266 1.2407-.1494s.3423-1.4506 0-1.9413c-.8549-1.265-1.5585-2.6253-2.0964-4.0533 1.4974-2.0907 2.1392-5.3973 1.476-8.3413-.4144-1.7454-.7358-3.5114-.9626-5.2907 4.9416-3.7333 9.4982-5.4187 9.4982-11.79734 0-.49067-.0428-4.71467-.0428-4.71467z" fill="#202225" opacity=".3"/><path d="m3.74368 42.3627 6.48192 3.7333c1.9467 1.1307 4.2785-.4267 5.1769-3.4773l.6418-2.2614c4.4069 2.4747 9.5624-1.024 11.5733-7.872l1.2622-4.3093c.984.4906 2.0964.4693 3.1874-.192.6204 1.5749 1.4245 3.0714 2.396 4.4586.3209.4694.8771.4054 1.2407-.1493.3637-.5547.3423-1.3867 0-1.856-.8465-1.2093-1.55-2.5122-2.0964-3.8827 1.4974-2.0053 2.1392-5.1626 1.4761-7.9786-.4132-1.6738-.7345-3.3687-.9627-5.0774 1.2194-1.1946 3.1447-2.7306 6.161-4.45863h.0428l.3851-.256.1497-.128.2781-.23467.1711-.17066.214-.21334.1925-.256c.0608-.04643.1117-.10444.1497-.17067 1.2194-1.62133 2.0109-3.22133 2.0109-6.08 0-.46933-.0428-.874666.1284-1.002666.1711-.128.2139-.064.385.021333-.492-.405333-.6631-.128-.877.021333l-43.405223 35.73337c-.427848 2.0267.406455 4.2027 3.636703 6.0587z" fill="#b9bbbe"/><path d="m3.74368 42.3627 6.48192 3.7333c1.9467 1.1307 4.2785-.4267 5.1769-3.4773l.6418-2.2614c4.4069 2.4747 9.5624-1.024 11.5733-7.872l1.2622-4.3093c.984.4906 2.0964.4693 3.1874-.192.6204 1.5749 1.4245 3.0714 2.396 4.4586.3209.4694.8771.4054 1.2407-.1493.3637-.5547.3423-1.3867 0-1.856-.8465-1.2093-1.55-2.5122-2.0964-3.8827 1.4974-2.0053 2.1392-5.1626 1.4761-7.9786-.4132-1.6738-.7345-3.3687-.9627-5.0774 1.2194-1.1946 3.1447-2.7306 6.161-4.45863h.0428l.3851-.256.1497-.128.2781-.23467.1711-.17066.214-.21334.1925-.256c.0608-.04643.1117-.10444.1497-.17067 1.2194-1.62133 2.0109-3.22133 2.0109-6.08 0-.46933-.0428-.874666.1284-1.002666.1711-.128.2139-.064.385.021333-.492-.405333-.6631-.128-.877.021333l-43.405223 35.73337c-.427848 2.0267.406455 4.2027 3.636703 6.0587z" fill="#595e66" fill-opacity=".2"/><g fill="#b9bbbe"><path d="m24.2804 38.5866 4.2999-25.728-6.8028 5.5893-3.7008 22.6347c2.1606.3413 4.364-.576 6.2037-2.496z"/><path d="m10.6105 27.664-2.80239 17.0453 2.41729 1.3867.3851.192 3.6367-21.632z"/></g></svg>