<svg width="127" height="140" viewBox="0 0 127 140" fill="none" xmlns="http://www.w3.org/2000/svg">
<path d="M9.2149 80.3507C7.36133 79.1856 6.14326 77.2261 5.82551 75.0548L5.29592 71.3477C5.29592 71.1888 5.13704 71.0299 4.9252 71.0299C4.76633 71.0299 4.60745 71.1888 4.55449 71.3477L4.0249 75.0548C3.70715 77.2261 2.43612 79.1327 0.635508 80.3507L0.158879 80.6685C0.0529608 80.7214 0 80.8803 0 80.9862C0 81.1451 0.0529608 81.251 0.158879 81.304L0.635508 81.6217C2.48908 82.7868 3.70715 84.7463 4.0249 86.9177L4.55449 90.6248C4.55449 90.7837 4.71337 90.9426 4.9252 90.9426C5.08408 90.9426 5.24296 90.7837 5.29592 90.6248L5.82551 86.9177C6.14326 84.7463 7.41429 82.8398 9.2149 81.6217L9.69153 81.304C9.79745 81.251 9.8504 81.0922 9.8504 80.9862C9.8504 80.8274 9.79745 80.7214 9.69153 80.6685L9.2149 80.3507Z" fill="#FFE636"/>
<path d="M8.04985 122.93C6.72587 125.525 7.78505 128.702 10.433 130.026C11.1744 130.397 12.0218 130.609 12.8162 130.609C14.7757 130.609 16.6292 129.55 17.5295 127.696C18.9065 124.942 20.1775 122.559 21.3956 120.335L12.4455 114.668C11.0156 117.157 9.58566 119.911 8.04985 122.93Z" fill="#CFCFDA"/>
<path d="M19.9657 103.812L27.6977 111.067C29.6043 108.843 31.6697 106.883 34.1058 105.03L28.2273 96.1855C24.9968 98.5687 22.2959 101.058 19.9127 103.812H19.9657Z" fill="#CFCFDA"/>
<path d="M13.028 113.662L21.9781 119.329C23.6198 116.522 25.2086 114.086 27.0092 111.967L19.2771 104.712C17.0529 107.413 15.0404 110.326 13.0809 113.662H13.028Z" fill="#CFCFDA"/>
<path d="M43.5325 92.955C42.1026 90.413 38.8191 89.5127 36.3301 90.9955C33.7351 92.4784 31.4049 93.9613 29.2865 95.4971L35.165 104.341C37.0715 102.964 39.1899 101.587 41.626 100.21C44.168 98.7805 45.0154 95.4971 43.5855 93.008L43.5325 92.955Z" fill="#CFCFDA"/>
<path d="M28.2803 96.1855L34.1587 105.03C34.4765 104.818 34.7942 104.553 35.112 104.341L29.2335 95.4971C28.9158 95.7089 28.598 95.9737 28.2803 96.1855Z" fill="#9B9BBA"/>
<path d="M19.2242 104.659L26.9563 111.914C27.2211 111.597 27.4329 111.332 27.6977 111.014L19.9657 103.759C19.7009 104.076 19.4361 104.341 19.2242 104.659Z" fill="#9B9BBA"/>
<path d="M12.4454 114.668L21.3955 120.335C21.6074 119.964 21.7663 119.646 21.9781 119.329L13.028 113.662C12.8161 113.98 12.6573 114.351 12.4454 114.668Z" fill="#9B9BBA"/>
<path d="M11.0685 136.752C15.8653 136.752 19.7538 132.864 19.7538 128.067C19.7538 123.27 15.8653 119.382 11.0685 119.382C6.27173 119.382 2.38318 123.27 2.38318 128.067C2.38318 132.864 6.27173 136.752 11.0685 136.752Z" fill="#6990FF"/>
<path d="M99.4043 83.899L104.806 93.1139C107.878 91.0485 110.791 88.4005 113.227 85.0641L104.488 79.0267C103.058 80.8803 101.364 82.522 99.4043 83.899Z" fill="#CFCFDA"/>
<path d="M81.1864 90.1481C78.2736 90.5718 76.2612 93.2198 76.6849 96.1325C77.0556 98.7805 79.3328 100.687 81.9278 100.687C84.5228 100.687 82.4044 100.687 82.6692 100.687C85.4231 100.316 88.3359 99.7867 91.1957 99.0453L89.501 88.5064C87.0119 89.2478 84.2051 89.7774 81.1864 90.2011V90.1481Z" fill="#CFCFDA"/>
<path d="M90.6661 88.0828L92.3608 98.6746C96.2798 97.5625 100.199 96.0266 103.8 93.8024L98.3982 84.5875C96.1739 86.0174 93.5789 87.1825 90.6132 88.0828H90.6661Z" fill="#CFCFDA"/>
<path d="M115.928 64.7278C113.121 63.9863 110.208 65.6281 109.414 68.4879C108.407 72.195 107.03 75.3726 105.177 78.0735L113.862 84.1108C116.245 80.6155 118.258 76.3788 119.635 71.1888C120.376 68.382 118.734 65.4692 115.875 64.6748L115.928 64.7278Z" fill="#CFCFDA"/>
<path d="M89.554 88.4005L91.2487 98.9394C91.6194 98.8335 91.9901 98.7275 92.4138 98.6216L90.7191 88.0298C90.3483 88.1357 89.9776 88.2416 89.6069 88.3475L89.554 88.4005Z" fill="#9B9BBA"/>
<path d="M98.451 84.5345L103.853 93.7494C104.171 93.5375 104.488 93.3257 104.859 93.1139L99.4573 83.899C99.1395 84.1108 98.8218 84.3227 98.504 84.5345H98.451Z" fill="#9B9BBA"/>
<path d="M104.488 79.0267L113.227 85.0641C113.439 84.7463 113.703 84.4286 113.915 84.1108L105.23 78.0735C105.018 78.3912 104.753 78.709 104.541 79.0267H104.488Z" fill="#9B9BBA"/>
<path d="M115.133 78.6031C119.93 78.6031 123.819 74.7145 123.819 69.9178C123.819 65.121 119.93 61.2325 115.133 61.2325C110.337 61.2325 106.448 65.121 106.448 69.9178C106.448 74.7145 110.337 78.6031 115.133 78.6031Z" fill="#6990FF"/>
<path d="M90.0306 114.933C90.0306 121.659 84.6287 127.59 77.4263 127.59H44.8034C36.3299 127.59 30.2926 119.435 32.7287 111.332L37.7598 94.7027C39.5605 88.7183 45.0682 84.6404 51.3174 84.6404H70.9653C77.2144 84.6404 82.7222 88.7183 84.5228 94.7027L88.9184 109.266L89.448 111.067V111.279C89.6598 111.808 89.8187 112.338 89.8717 112.868C89.9776 113.556 90.0306 114.245 90.0306 114.88V114.933Z" fill="url(#paint0_linear_303_262)"/>
<path d="M89.3951 111.067L84.0992 114.033C83.8873 114.139 83.6755 114.192 83.5166 114.139C83.2518 114.139 82.987 113.927 82.8811 113.662C82.6163 113.238 82.7752 112.656 83.2518 112.391L88.9184 109.214L89.448 111.014L89.3951 111.067Z" fill="#898989"/>
<path d="M90.0306 114.933L85.2113 117.634C84.9995 117.74 84.7876 117.793 84.5758 117.74C84.311 117.74 84.0462 117.528 83.9403 117.263C83.6755 116.84 83.8344 116.257 84.311 115.992L89.8717 112.868C89.9776 113.556 90.0306 114.245 90.0306 114.88V114.933Z" fill="#898989"/>
<path d="M48.9342 78.4972L49.4108 89.9893L60.4263 89.5127L59.9497 78.0206L48.9342 78.4972Z" fill="#6990FF"/>
<path d="M61.7504 77.9146L62.28 89.4597L73.2425 88.9831L72.7659 77.438L61.7504 77.9146Z" fill="#6990FF"/>
<path d="M37.9717 78.9738L38.1306 82.9987C38.3424 87.1825 41.8377 90.36 46.0215 90.2011H47.6103C47.6103 90.1482 47.1336 78.6031 47.1336 78.6031L37.9717 79.0268V78.9738Z" fill="#6990FF"/>
<path d="M74.6195 77.385L75.0961 88.9301H76.6849C80.8687 88.6653 84.0992 85.17 83.8873 80.9863L83.7285 76.9614L74.5665 77.385H74.6195Z" fill="#6990FF"/>
<path d="M47.0807 78.5502L47.6103 90.0952L49.4109 89.9893L48.9343 78.4972L47.0807 78.5502Z" fill="#3D6BF2"/>
<path d="M59.9497 78.0205L60.4263 89.5127L62.2799 89.4597L61.7503 77.9146L59.9497 78.0205Z" fill="#3D6BF2"/>
<path d="M72.7659 77.438L73.2425 88.9831L75.0961 88.8772L74.6194 77.385L72.7659 77.438Z" fill="#3D6BF2"/>
<path d="M98.0804 60.4911C97.2331 50.9054 90.4014 47.4631 86.8001 45.5036C86.1117 45.1329 85.5291 44.8151 84.9466 44.4444C88.6007 42.5909 93.6319 39.4133 95.2206 35.3884C96.4387 32.2638 96.1739 28.08 90.4543 23.2078C90.0306 22.89 89.607 22.5723 89.1833 22.3075C85.635 20.2421 80.6039 20.5598 79.2799 26.9149C78.5385 30.5691 77.9559 34.4881 77.5852 37.7186C77.4264 37.4538 77.2675 37.1361 77.1086 36.8713C73.2426 29.6688 66.9934 23.5256 55.1835 24.4788C43.6384 25.3791 37.9718 33.7996 35.5356 42.1672C35.4297 42.5379 35.3238 42.9086 35.2179 43.2264C34.2646 39.9429 32.8877 35.7591 31.3519 31.8931C28.9157 25.8558 23.9905 26.3854 20.813 29.0863C20.3893 29.457 20.0186 29.8277 19.7008 30.1984C14.8816 36.0239 15.3582 40.1547 17.1058 43.0675C19.8597 47.622 27.6977 49.9522 31.2459 50.8525C27.4329 54.5067 22.9314 59.8026 23.7257 67.7994C24.679 77.1732 32.9406 84.0049 42.2615 83.2635L82.9341 79.1856C92.149 78.0735 98.8748 69.8119 98.0275 60.544L98.0804 60.4911Z" fill="url(#paint1_linear_303_262)"/>
<path d="M17.1058 43.0145C19.9127 47.569 27.7506 49.8992 31.2989 50.7995L20.813 29.0333C20.3893 29.404 20.0186 29.7747 19.7008 30.1454C14.8816 35.9709 15.3582 40.1018 17.1058 43.0145Z" fill="#FFAED7"/>
<path d="M82.6163 45.5566C85.9528 44.0737 93.2611 40.4195 95.2206 35.3884C96.4387 32.2638 96.1739 28.0801 90.4543 23.2078C90.0306 22.8901 89.6069 22.5723 89.1833 22.3075L82.6693 45.5566H82.6163Z" fill="#FFAED7"/>
<path d="M55.5012 21.3013C56.2956 21.3013 56.9841 20.6128 56.9841 19.8184C56.9841 19.1829 57.2489 4.35433 46.8159 0.700151C36.6478 -2.84811 21.7663 8.22035 21.1307 8.69698C20.4423 9.22657 20.3364 10.1798 20.813 10.8683C21.3426 11.5568 22.2958 11.6627 22.9843 11.1861C23.1432 11.0801 37.1774 0.647192 45.8097 3.61291C54.1243 6.52566 53.9125 19.6066 53.9125 19.7655C53.9125 20.6128 54.548 21.3013 55.3953 21.3542C55.3953 21.3542 55.4483 21.3542 55.5012 21.3542V21.3013Z" fill="black"/>
<path d="M48.4902 27.2798L63.2096 25.992C64.579 25.8722 65.5921 24.6649 65.4723 23.2955L65.1861 20.0245C65.0663 18.655 63.859 17.642 62.4895 17.7618L47.7702 19.0496C46.4007 19.1694 45.3877 20.3767 45.5075 21.7461L45.7937 25.0171C45.9135 26.3866 47.1208 27.3996 48.4902 27.2798Z" fill="#6990FF"/>
<path d="M20.8659 20.4539C26.4524 20.4539 30.9811 15.9252 30.9811 10.3387C30.9811 4.75224 26.4524 0.223511 20.8659 0.223511C15.2795 0.223511 10.7507 4.75224 10.7507 10.3387C10.7507 15.9252 15.2795 20.4539 20.8659 20.4539Z" fill="#6990FF"/>
<path d="M28.2802 61.5503C30.2926 61.3384 32.2521 64.0923 32.6228 67.6935C32.9935 71.2948 31.6166 74.3664 29.6042 74.5782L22.6665 75.2667L21.3425 62.2387L28.2802 61.5503Z" fill="#698FFF"/>
<path d="M22.5633 75.3672C24.6006 75.1638 25.9601 72.0734 25.5999 68.4645C25.2397 64.8556 23.2962 62.0949 21.2589 62.2983C19.2216 62.5016 17.8621 65.592 18.2223 69.2009C18.5825 72.8098 20.5261 75.5705 22.5633 75.3672Z" fill="#8CA9FF"/>
<path d="M92.6256 55.9365C90.5602 56.0954 89.1303 59.1141 89.3951 62.7682C89.6599 66.4224 91.5134 69.1763 93.5789 69.0174L100.569 68.4878L99.6162 55.4069L92.6256 55.9365Z" fill="#698FFF"/>
<path d="M100.678 68.3356C102.719 68.1821 104.154 65.1258 103.882 61.5092C103.61 57.8926 101.735 55.0852 99.6929 55.2387C97.6513 55.3922 96.2167 58.4485 96.4886 62.0651C96.7605 65.6817 98.6361 68.4891 100.678 68.3356Z" fill="#8CA9FF"/>
<path d="M58.0963 53.6593C57.9904 52.6001 61.8034 52.2294 61.9093 53.2886C62.0153 54.3478 60.9561 55.0363 60.1617 55.0892C59.3673 55.1422 58.2022 54.7185 58.0963 53.6593Z" fill="black"/>
<path d="M65.2987 58.5845C65.4576 62.4506 63.657 65.6811 61.062 65.8929C58.52 66.1047 56.1897 63.2979 55.6602 59.4848L65.2987 58.5845Z" fill="#FF78B9"/>
<path d="M71.1519 47.9416C72.3696 46.2595 72.6461 44.3814 71.7695 43.7468C70.8929 43.1122 69.1951 43.9615 67.9774 45.6436C66.7597 47.3258 66.4832 49.2039 67.3599 49.8385C68.2365 50.473 69.9343 49.6238 71.1519 47.9416Z" fill="black"/>
<path d="M52.0486 51.211C52.7811 50.4144 52.1357 48.6292 50.6071 47.2235C49.0785 45.8179 47.2455 45.3242 46.513 46.1208C45.7805 46.9174 46.4258 48.7027 47.9544 50.1083C49.4831 51.5139 51.3161 52.0076 52.0486 51.211Z" fill="black"/>
<path d="M47.7693 59.4319C47.9811 59.4319 48.193 59.326 48.3518 59.1671C48.7226 58.8493 48.7755 58.2138 48.4048 57.8431L44.6977 53.7652C44.3799 53.3945 43.7444 53.3416 43.3737 53.7123C43.003 54.0301 42.95 54.6656 43.3207 55.0363L47.0279 59.1141C47.2397 59.326 47.5045 59.4319 47.7693 59.4319Z" fill="#FFAED7"/>
<path d="M43.8502 59.8026C44.0621 59.8026 44.2739 59.6967 44.4328 59.5378C44.8035 59.22 44.8564 58.5845 44.4857 58.2138L40.7786 54.1359C40.4608 53.7652 39.8253 53.7123 39.4546 54.083C39.0839 54.4007 39.0309 55.0363 39.4017 55.407L43.1088 59.4848C43.3206 59.6967 43.5854 59.8026 43.8502 59.8026Z" fill="#FFAED7"/>
<path d="M39.9313 60.1733C40.1431 60.1733 40.355 60.0674 40.5138 59.9085C40.8845 59.5907 40.9375 58.9552 40.5668 58.5845L36.8596 54.5067C36.5419 54.136 35.9064 54.083 35.5357 54.4537C35.1649 54.7715 35.112 55.407 35.4827 55.7777L39.1899 59.8555C39.4017 60.0674 39.6665 60.1733 39.9313 60.1733Z" fill="#FFAED7"/>
<path d="M73.0308 56.9428C73.3485 56.9428 73.6133 56.7839 73.7722 56.5191L76.6849 51.8057C76.9497 51.3821 76.7909 50.7995 76.3672 50.5347C75.9435 50.2699 75.361 50.4288 75.0962 50.8525L72.1834 55.5659C71.9186 55.9895 72.0775 56.5721 72.5012 56.8369C72.66 56.9428 72.8719 56.9957 73.0308 56.9957V56.9428Z" fill="#FFAED7"/>
<path d="M76.9497 56.5721C77.2675 56.5721 77.5323 56.4132 77.6911 56.1484L80.6039 51.435C80.8687 51.0114 80.7098 50.4288 80.2861 50.164C79.8625 49.8992 79.2799 50.0581 79.0151 50.4818L76.1024 55.1952C75.8376 55.6188 75.9964 56.2014 76.4201 56.4662C76.579 56.5721 76.7908 56.6251 76.9497 56.6251V56.5721Z" fill="#FFAED7"/>
<path d="M80.8158 56.2014C81.1335 56.2014 81.3983 56.0425 81.5572 55.7777L84.47 51.0643C84.7348 50.6407 84.5759 50.0581 84.1522 49.7933C83.7285 49.5285 83.146 49.6874 82.8812 50.1111L79.9684 54.8244C79.7037 55.2481 79.8625 55.8307 80.2862 56.0955C80.4451 56.2014 80.6569 56.2543 80.8158 56.2543V56.2014Z" fill="#FFAED7"/>
<path d="M99.5102 61.7091L114.286 74.4193L117.728 77.385C118.152 77.7557 118.681 78.0735 119.211 78.3383C120.164 78.709 121.118 78.8149 122.071 78.6031C125.037 77.9676 127.102 75.2137 126.996 72.195C126.996 71.8243 126.996 71.5065 126.89 71.1358C126.678 69.8648 125.884 68.8056 124.772 68.1701L120.641 65.787L103.535 55.9895C102.529 58.1079 101.152 60.0674 99.4573 61.7091H99.5102Z" fill="url(#paint2_linear_303_262)"/>
<path opacity="0.4" d="M85.2113 68.8057C97.0569 68.8057 106.66 59.2029 106.66 47.3572C106.66 35.5115 97.0569 25.9087 85.2113 25.9087C73.3656 25.9087 63.7628 35.5115 63.7628 47.3572C63.7628 59.2029 73.3656 68.8057 85.2113 68.8057Z" fill="#433D84"/>
<path d="M85.2113 68.8057C97.0569 68.8057 106.66 59.2029 106.66 47.3572C106.66 35.5115 97.0569 25.9087 85.2113 25.9087C73.3656 25.9087 63.7628 35.5115 63.7628 47.3572C63.7628 59.2029 73.3656 68.8057 85.2113 68.8057Z" fill="url(#paint3_linear_303_262)"/>
<path d="M86.9059 30.4102C77.5851 29.457 69.2176 36.3416 68.2643 45.6625C67.311 54.9833 74.1957 63.3508 83.5165 64.3041C92.8373 65.2574 101.205 58.3727 102.158 49.0518C103.111 39.731 96.2267 31.3635 86.9059 30.4102ZM87.3296 26.0146C99.0865 27.1797 107.719 37.7186 106.554 49.4755C105.389 61.2325 94.8498 69.8648 83.0929 68.6997C71.3359 67.5346 62.7036 56.9957 63.8687 45.2388C65.0338 33.4819 75.5727 24.8495 87.3296 26.0146Z" fill="url(#paint4_linear_303_262)"/>
<path d="M80.9216 38.3541C80.6039 38.3541 80.2861 38.3541 79.9154 38.3541C77.6911 38.3541 74.9902 39.9429 74.3547 43.4382L74.2488 44.6033C74.2488 48.0456 76.579 52.4942 84.1522 58.5845C92.7845 54.136 95.962 50.217 96.5976 46.8276L96.7035 45.6625C96.7035 42.0613 94.4262 39.9959 92.2549 39.5722C91.8842 39.5192 91.5664 39.4663 91.2487 39.4133C88.7066 39.1485 87.3827 40.0488 85.8468 41.4258C84.6288 39.7311 83.5166 38.6189 80.9746 38.3541" fill="url(#paint5_linear_303_262)"/>
<path d="M113.121 76.6436C115.402 76.6436 117.252 74.7942 117.252 72.5128C117.252 70.2314 115.402 68.382 113.121 68.382C110.839 68.382 108.99 70.2314 108.99 72.5128C108.99 74.7942 110.839 76.6436 113.121 76.6436Z" fill="#6990FF"/>
<path d="M102.476 29.7218C100.622 28.5567 99.4044 26.5972 99.0866 24.4258L98.557 20.7187C98.557 20.5598 98.3982 20.4009 98.1863 20.4009C98.0274 20.4009 97.8686 20.5598 97.8156 20.7187L97.286 24.4258C96.9683 26.5972 95.6972 28.5037 93.8966 29.7218L93.42 30.0395C93.3141 30.0925 93.2611 30.2514 93.2611 30.3573C93.2611 30.5162 93.3141 30.6221 93.42 30.675L93.8966 30.9928C95.7502 32.1579 96.9683 34.1174 97.286 36.2887L97.8156 39.9958C97.8156 40.1547 97.9745 40.3136 98.1863 40.3136C98.3452 40.3136 98.5041 40.1547 98.557 39.9958L99.0866 36.2887C99.4044 34.1174 100.675 32.2108 102.476 30.9928L102.953 30.675C103.059 30.6221 103.112 30.4632 103.112 30.3573C103.112 30.1984 103.059 30.0925 102.953 30.0395L102.476 29.7218Z" fill="url(#paint6_linear_303_262)"/>
<path d="M52.1648 139.506H39.0309C33.2054 139.506 33.2584 135.746 34.6883 133.204C35.8004 131.192 36.33 130.026 38.1306 127.855C38.5543 127.326 39.1368 126.69 39.7723 126.002C39.8253 125.949 39.8783 125.896 39.9312 125.843C43.3206 122.188 48.1399 119.646 52.4825 125.366C54.0184 127.431 56.7722 131.509 57.5666 133.681C58.2551 135.481 57.5666 139.559 52.1648 139.559V139.506Z" fill="#6990FF"/>
<path d="M39.7194 125.949C42.3673 125.79 45.333 126.902 47.0277 131.668C47.1866 132.198 47.2925 132.568 47.4514 132.886C47.8221 134.051 48.034 134.687 48.4047 136.593C48.6165 137.653 48.5106 138.659 48.1399 139.506H46.3393C46.8689 138.871 47.0277 137.97 46.8689 136.911C46.5511 135.11 46.3393 134.528 45.9686 133.416C45.8626 133.098 45.7038 132.674 45.5449 132.198C44.2209 128.438 41.9437 126.955 38.5543 127.749L38.0776 127.855L39.7194 126.002V125.949Z" fill="#3D6BF2"/>
<path d="M70.1709 139.506H83.3047C89.1303 139.506 89.0773 135.746 87.7004 133.204C86.5882 131.192 86.0586 130.026 84.258 127.855C83.8343 127.326 83.2518 126.69 82.6163 126.002C82.5633 125.949 82.5104 125.896 82.4574 125.843C79.068 122.188 74.2487 119.646 69.9061 125.366C68.3703 127.431 65.6164 131.509 64.822 133.681C64.1335 135.481 64.822 139.559 70.2238 139.559L70.1709 139.506Z" fill="#6990FF"/>
<path d="M84.258 127.855L83.7813 127.749C80.392 126.955 78.1147 128.438 76.7907 132.198C76.6319 132.674 76.5259 133.098 76.3671 133.416C75.9963 134.528 75.7845 135.11 75.4668 136.911C75.2549 137.97 75.4668 138.871 75.9434 139.506H74.1428C73.7721 138.659 73.6661 137.653 73.878 136.593C74.2487 134.687 74.4605 134.051 74.8312 132.886C74.9372 132.568 75.096 132.145 75.2549 131.668C76.9496 126.902 79.9153 125.79 82.5633 125.949L84.205 127.855H84.258Z" fill="#3D6BF2"/>
<defs>
<linearGradient id="paint0_linear_303_262" x1="61.0619" y1="85.6996" x2="61.0619" y2="127.855" gradientUnits="userSpaceOnUse">
<stop offset="0.2" stop-color="#E8E8E8"/>
<stop offset="0.6" stop-color="#E6E6E7"/>
<stop offset="0.7" stop-color="#DFE1E6"/>
<stop offset="0.8" stop-color="#D3D8E4"/>
<stop offset="0.9" stop-color="#C2CBE1"/>
<stop offset="1" stop-color="#ABB9DD"/>
</linearGradient>
<linearGradient id="paint1_linear_303_262" x1="54.548" y1="25.2732" x2="62.0152" y2="83.846" gradientUnits="userSpaceOnUse">
<stop offset="0.2" stop-color="#E8E8E8"/>
<stop offset="0.6" stop-color="#E6E6E7"/>
<stop offset="0.7" stop-color="#DFE1E6"/>
<stop offset="0.8" stop-color="#D3D8E4"/>
<stop offset="0.9" stop-color="#C2CBE1"/>
<stop offset="1" stop-color="#ABB9DD"/>
</linearGradient>
<linearGradient id="paint2_linear_303_262" x1="125.865" y1="75.8917" x2="101.237" y2="58.9656" gradientUnits="userSpaceOnUse">
<stop offset="0.2" stop-color="#EB459F"/>
<stop offset="0.4" stop-color="#E73E9B"/>
<stop offset="0.7" stop-color="#DD2B90"/>
<stop offset="1" stop-color="#D11583"/>
</linearGradient>
<linearGradient id="paint3_linear_303_262" x1="101.776" y1="33.6425" x2="68.624" y2="60.7767" gradientUnits="userSpaceOnUse">
<stop stop-color="#433D84" stop-opacity="0.2"/>
<stop offset="0.5" stop-color="#433D84" stop-opacity="0.8"/>
<stop offset="0.8" stop-color="#433D84"/>
</linearGradient>
<linearGradient id="paint4_linear_303_262" x1="79.4122" y1="67.8676" x2="90.9872" y2="26.5516" gradientUnits="userSpaceOnUse">
<stop stop-color="#EB459F"/>
<stop offset="1" stop-color="#FF78B9"/>
</linearGradient>
<linearGradient id="paint5_linear_303_262" x1="81.8029" y1="57.7811" x2="87.3903" y2="38.0611" gradientUnits="userSpaceOnUse">
<stop stop-color="#EB459F"/>
<stop offset="1" stop-color="#FF78B9"/>
</linearGradient>
<linearGradient id="paint6_linear_303_262" x1="95.3795" y1="35.865" x2="101.893" y2="22.89" gradientUnits="userSpaceOnUse">
<stop stop-color="#29CC7A"/>
<stop offset="0.5" stop-color="#57F287"/>
</linearGradient>
</defs>
</svg>
