<svg width="32" height="32" viewBox="0 0 32 32" fill="none" xmlns="http://www.w3.org/2000/svg">
<path opacity="0.62" fill-rule="evenodd" clip-rule="evenodd" d="M16 32C24.8366 32 32 24.8366 32 16C32 7.16344 24.8366 0 16 0C7.16344 0 0 7.16344 0 16C0 24.8366 7.16344 32 16 32ZM11.1381 13.5286C10.8777 13.2682 10.4556 13.2682 10.1953 13.5286C9.93491 13.7889 9.93491 14.2111 10.1953 14.4714L15.5286 19.8047C15.7889 20.0651 16.2111 20.0651 16.4714 19.8047L21.8047 14.4714C22.0651 14.2111 22.0651 13.7889 21.8047 13.5286C21.5444 13.2682 21.1223 13.2682 20.8619 13.5286L16 18.3905L11.1381 13.5286Z" fill="black"/>
</svg>
