<svg xmlns="http://www.w3.org/2000/svg" width="440" height="440" fill="none"><g clip-path="url(#a)"><g clip-path="url(#b)"><path fill="url(#c)" fill-opacity=".1" d="M220 440c121.503 0 220-98.497 220-220S341.503 0 220 0 0 98.497 0 220s98.497 220 220 220Z"/><path fill="#5B2EDB" d="M220 403.2c103.388 0 187.2-83.812 187.2-187.2 0-103.388-83.812-187.2-187.2-187.2-103.388 0-187.2 83.812-187.2 187.2 0 103.388 83.812 187.2 187.2 187.2Z"/><path fill="#4428C2" d="M220 341.7c69.422 0 125.7-56.278 125.7-125.7S289.422 90.3 220 90.3 94.3 146.578 94.3 216 150.578 341.7 220 341.7Z"/><path fill="url(#d)" d="M220 320.3c57.603 0 104.3-46.697 104.3-104.3 0-57.603-46.697-104.3-104.3-104.3-57.604 0-104.3 46.697-104.3 104.3 0 57.603 46.696 104.3 104.3 104.3Z"/><path fill="url(#e)" d="M220 272.1c30.983 0 56.1-25.117 56.1-56.1s-25.117-56.1-56.1-56.1-56.1 25.117-56.1 56.1 25.117 56.1 56.1 56.1Z"/><path fill="url(#f)" d="M217.1 152.8a63.303 63.303 0 0 1 66.1 60.3l19.6-.9a82.896 82.896 0 0 0-54.344-75.497 82.912 82.912 0 0 0-64.055 2.94 82.91 82.91 0 0 0-42.797 47.751A82.914 82.914 0 0 0 137.2 219.8l19.6-.9a63.3 63.3 0 0 1 60.3-66.1Z"/><path fill="url(#g)" d="M223.8 298.8a82.9 82.9 0 0 0 79-86.6l-19.6.9a63.295 63.295 0 0 1-15.653 46.852 63.296 63.296 0 0 1-69.454 17.458 63.288 63.288 0 0 1-35.947-33.88 63.302 63.302 0 0 1-5.346-24.63l-19.6.9a82.901 82.901 0 0 0 86.6 79Z"/><path fill="#505CEE" d="M143.9 226.2a6.7 6.7 0 1 0 0-13.4 6.7 6.7 0 0 0 0 13.4Z"/><path fill="#2F37DB" d="M238 166.1a53.2 53.2 0 0 1 31.9 67.9l15.5 5.6a69.528 69.528 0 1 0-130.8-47.2l15.5 5.6a53.2 53.2 0 0 1 67.9-31.9Z"/><path fill="url(#h)" d="M196.4 281.4a69.598 69.598 0 0 0 89-41.8l-15.5-5.6a53.05 53.05 0 0 1-67.9 31.9 53.05 53.05 0 0 1-31.9-67.9l-15.5-5.6a69.602 69.602 0 0 0 41.8 89Z"/><path fill="#2F37DB" d="M160.9 201.4a6.7 6.7 0 1 0 0-13.4 6.7 6.7 0 0 0 0 13.4Z"/><path fill="url(#i)" d="M182.2 257.5a56.005 56.005 0 0 0 61.688 9.344A56.007 56.007 0 0 0 261.5 253.8l-9.9-9a42.801 42.801 0 0 1-63.2-57.6l-9.8-9a56.115 56.115 0 0 0-14.637 40.396A56.114 56.114 0 0 0 182.2 257.5Z"/><path fill="#1919A6" d="M188.4 187.2a42.808 42.808 0 0 1 29.96-15.346 42.796 42.796 0 0 1 31.79 11.064 42.808 42.808 0 0 1 13.958 30.631A42.79 42.79 0 0 1 251.6 244.8l9.9 9a56.116 56.116 0 0 0 14.951-40.505 56.093 56.093 0 0 0-5.211-21.39 56.085 56.085 0 0 0-31.902-29.093A56.098 56.098 0 0 0 178.6 178.2l9.8 9Z"/><path fill="#1919A6" d="M183.5 189.4a6.7 6.7 0 1 0 0-13.4 6.7 6.7 0 0 0 0 13.4Z"/><path fill="#C44FFF" d="M320.8 105.5a149.6 149.6 0 0 1 9.7 211.3c-55.6 61-150.2 65.4-211.3 9.8l-16.3 17.9a174 174 0 0 0 245.6-11.4c64.6-70.9 59.5-180.9-11.4-245.5l-16.3 17.9Z"/><path fill="url(#j)" d="M91.6 98.9a173.9 173.9 0 0 0 11.3 245.6l16.3-17.9c-61-55.7-65.4-150.3-9.7-211.3a149.491 149.491 0 0 1 103.619-48.692A149.5 149.5 0 0 1 320.8 105.5l16.3-17.9C266.2 22.9 156.2 28 91.6 98.9Z"/><path fill="#C44FFF" d="M331.7 101.5a8 8 0 1 0 0-16 8 8 0 0 0 0 16Z"/><path fill="#8733FF" d="M346.4 156.7a139.615 139.615 0 0 1-67.1 185.7 139.624 139.624 0 0 1-106.747 4.91A139.624 139.624 0 0 1 93.6 275.3L77.2 283a157.731 157.731 0 0 0 89.202 81.351A157.736 157.736 0 0 0 362.8 149l-16.4 7.7Z"/><path fill="url(#k)" d="M153 73.2A157.703 157.703 0 0 0 77.2 283l16.4-7.7A139.62 139.62 0 0 1 267.447 84.69a139.6 139.6 0 0 1 46.638 28.153A139.606 139.606 0 0 1 346.4 156.7l16.4-7.7a157.707 157.707 0 0 0-89.196-81.365A157.7 157.7 0 0 0 153 73.2Z"/><path fill="#813CEF" d="M355.5 160.4a8 8 0 1 0 0-16 8 8 0 0 0 0 16Z"/><path fill="url(#l)" d="M213.5 74.4c-78.2 3.7-138.7 70-135.1 148.1l16.1-.7a125.63 125.63 0 0 1 72.115-119.527 125.627 125.627 0 0 1 138.026 20.884A125.643 125.643 0 0 1 345.5 210.2l16.1-.7c-3.7-78.2-70-138.7-148.1-135.1Z"/><path fill="#6E3CED" d="M345.5 210.2a125.631 125.631 0 0 1-210.14 98.643A125.631 125.631 0 0 1 94.5 221.8l-16.1.7c3.7 78.2 70 138.7 148.1 135.1 78.1-3.6 138.7-70 135.1-148.1l-16.1.7Z"/><path fill="#6E3CED" d="M353.5 217.8a8 8 0 1 0 0-16 8 8 0 0 0 0 16Z"/><path fill="url(#m)" d="M219.9 419.6a203.607 203.607 0 0 1-170.915-93.369A203.601 203.601 0 0 1 34.7 132 203.403 203.403 0 0 1 226.693 12.644 203.4 203.4 0 0 1 304 30.7a203.405 203.405 0 0 1 119.356 191.993A203.406 203.406 0 0 1 405.3 300a204.097 204.097 0 0 1-185.4 119.6Zm.2-404A200.299 200.299 0 0 0 32.6 286.5a200.104 200.104 0 0 0 180.812 129.652A200.106 200.106 0 0 0 290.5 403.4a200.113 200.113 0 0 0 129.651-180.812A200.083 200.083 0 0 0 407.4 145.5 200.699 200.699 0 0 0 220.1 15.6Z"/><path fill="#CC69FF" d="M140.4 69.4a170.802 170.802 0 0 1 63.2-18.5 168.5 168.5 0 0 1 164.1 89.8 167.984 167.984 0 0 0-41.4-50.8 167.501 167.501 0 0 0-185.2-19.1.8.8 0 0 1-1-.3.896.896 0 0 1 .3-1.1Z"/><path fill="#D075FF" d="m142.3 69.9 3.2 3.3-4.1-2.1-1.2 4.5-.2-4.7-4.5 1.2 3.9-2.5-3.2-3.3 4.1 2.1 1.2-4.4.2 4.6 4.5-1.2-3.9 2.5Z"/><path fill="#7556FF" d="M157.3 147.9a91.2 91.2 0 0 0-31.4 61.9 90.998 90.998 0 0 0 21.6 66.2 92.71 92.71 0 0 1-17.8-30.9 92.2 92.2 0 0 1 4.8-69.9 91.791 91.791 0 0 1 21.8-28.4.697.697 0 0 1 .874-.12c.091.055.168.13.226.22a.72.72 0 0 1 .134.244c.027.09.037.184.028.277a.712.712 0 0 1-.262.479Z"/><path fill="#7556FF" d="m156.4 148.1 1.1 2.3-.3-2.5 2.5.2-2.3-1 1.5-2-2 1.5-1.1-2.3.3 2.5-2.5-.3 2.3 1-1.5 2.1 2-1.5Z"/><path fill="#57F287" d="M108.6 158.7a3.79 3.79 0 0 1-1.6-2.5l-.3-1.7c0-.1 0-.2-.1-.2l-.2.2-.3 1.7a3.703 3.703 0 0 1-1.5 2.5h-.3v.2l.3.2a3.302 3.302 0 0 1 1.5 2.4l.3 1.8h.3l.3-1.8c.074-.493.256-.963.533-1.378.276-.415.64-.764 1.067-1.022l.2-.2h.1v-.2h-.3Z"/><path fill="#6327E4" d="M42.9 60.2a5.401 5.401 0 0 0 2.5-3.9l.4-2.7c0-.1.1-.2.3-.2a.2.2 0 0 1 .2.2l.4 2.7a6.1 6.1 0 0 0 2.5 3.9l.3.2a.2.2 0 0 1 .2.2c0 .1-.1.2-.2.3l-.3.2a5.6 5.6 0 0 0-2.5 3.8l-.4 2.7c0 .2-.1.2-.2.2-.2 0-.3 0-.3-.2l-.4-2.7a5.1 5.1 0 0 0-2.5-3.8l-.3-.2c-.1-.1-.2-.2-.2-.3a.2.2 0 0 1 .2-.2l.3-.2Z"/><path fill="#B434F5" d="M389.6 81.9a9.605 9.605 0 0 0 4.3-6.7l.7-4.7a.5.5 0 0 1 .5-.4.4.4 0 0 1 .4.4l.7 4.7a9.6 9.6 0 0 0 4.3 6.7l.6.4c.2.1.2.2.2.4s0 .3-.2.4l-.6.4a9.593 9.593 0 0 0-4.3 6.7l-.7 4.6a.4.4 0 0 1-.4.4.503.503 0 0 1-.5-.4l-.7-4.6a9.6 9.6 0 0 0-4.3-6.7l-.6-.4a.494.494 0 0 1-.2-.4.496.496 0 0 1 .2-.4l.6-.4Z"/><path fill="#FF78B9" d="M335.2 201.5a4.1 4.1 0 0 1-1.7-2.6l-.3-1.9h-.3l-.3 1.9a4.1 4.1 0 0 1-1.7 2.6h-.2c-.1.1-.1.1-.1.2v.2h.2a4.1 4.1 0 0 1 1.7 2.6l.3 1.9h.3l.3-1.9a4.1 4.1 0 0 1 1.7-2.6h.2v-.2c0-.1 0-.1-.1-.2Z"/><path fill="#FFC619" d="M288.3 86.3a6.201 6.201 0 0 1-2.8-4.5l-.5-3.1a.301.301 0 0 0-.512-.212.301.301 0 0 0-.088.212l-.5 3.1a6.499 6.499 0 0 1-2.8 4.5l-.5.3v.2c0 .1.1.2.1.3l.5.3a6.596 6.596 0 0 1 2.8 4.4l.5 3.2c0 .1.1.2.3.2.2 0 .3-.1.3-.2l.5-3.2a6.191 6.191 0 0 1 2.8-4.4l.4-.3c.1-.1.2-.2.2-.3a.198.198 0 0 0-.059-.141.198.198 0 0 0-.141-.06l-.5-.3Z"/><path fill="#813CEF" d="M65.5 45.8a11 11 0 0 0 4.8-7.4l.8-5.2a.5.5 0 0 1 .5-.5c.2 0 .4.2.5.5l.8 5.2a10.802 10.802 0 0 0 4.7 7.4l.7.4c.2.1.2.3.2.5s0 .3-.2.4l-.7.5a10.401 10.401 0 0 0-4.7 7.4l-.8 5.2a.7.7 0 0 1-.5.4.5.5 0 0 1-.5-.4l-.8-5.2a10.5 10.5 0 0 0-4.8-7.4l-.7-.5a.5.5 0 0 1-.2-.4.8.8 0 0 1 .2-.5l.7-.4Z"/><path fill="#C44FFF" d="M108.3 346.5a8 8 0 1 0 0-16 8 8 0 0 0 0 16Z"/></g></g><defs><linearGradient id="f" x1="303.103" x2="137.494" y1="168.595" y2="176.115" gradientUnits="userSpaceOnUse"><stop stop-color="#4653E5"/><stop offset=".64" stop-color="#4C58EA"/><stop offset=".9" stop-color="#505CEE"/></linearGradient><linearGradient id="g" x1="306.863" x2="141.254" y1="251.399" y2="258.919" gradientUnits="userSpaceOnUse"><stop stop-color="#4653E5"/><stop offset=".9" stop-color="#3442D9"/></linearGradient><linearGradient id="h" x1="276.152" x2="145.414" y1="270.671" y2="223.345" gradientUnits="userSpaceOnUse"><stop stop-color="#2F37DB"/><stop offset=".9" stop-color="#1E1EA5"/></linearGradient><linearGradient id="i" x1="234.062" x2="150.96" y1="284.133" y2="208.892" gradientUnits="userSpaceOnUse"><stop stop-color="#1919A6"/><stop offset=".9" stop-color="#0E0E8C"/></linearGradient><linearGradient id="j" x1="33.507" x2="266.406" y1="285.842" y2="28.61" gradientUnits="userSpaceOnUse"><stop stop-color="#9254E3"/><stop offset=".9" stop-color="#AA57F2"/></linearGradient><linearGradient id="k" x1="44.074" x2="329.799" y1="212.078" y2="78.234" gradientUnits="userSpaceOnUse"><stop stop-color="#8733FF"/><stop offset=".9" stop-color="#8C58EF"/></linearGradient><linearGradient id="l" x1="75.076" x2="358.214" y1="151.874" y2="139.016" gradientUnits="userSpaceOnUse"><stop stop-color="#6E3CED"/><stop offset=".9" stop-color="#7B45E5"/></linearGradient><linearGradient id="m" x1="16.494" x2="423.224" y1="225.467" y2="206.997" gradientUnits="userSpaceOnUse"><stop offset=".1" stop-color="#DB8CF5"/><stop offset=".9" stop-color="#C744F2" stop-opacity="0"/></linearGradient><radialGradient id="c" cx="0" cy="0" r="1" gradientTransform="matrix(220 0 0 220 220 220)" gradientUnits="userSpaceOnUse"><stop offset=".68" stop-color="#3515C2"/><stop offset=".72" stop-color="#3616C3" stop-opacity=".97"/><stop offset=".76" stop-color="#3818C6" stop-opacity=".89"/><stop offset=".81" stop-color="#3C1CCA" stop-opacity=".75"/><stop offset=".86" stop-color="#4121D1" stop-opacity=".56"/><stop offset=".92" stop-color="#4827D9" stop-opacity=".31"/><stop offset=".98" stop-color="#502FE3" stop-opacity="0"/></radialGradient><radialGradient id="d" cx="0" cy="0" r="1" gradientTransform="rotate(-2.6 4870.162 -4732.834) scale(104.144)" gradientUnits="userSpaceOnUse"><stop/><stop offset=".01" stop-color="#000001"/><stop offset=".36" stop-color="#160D48"/><stop offset=".65" stop-color="#26167C"/><stop offset=".87" stop-color="#2F1C9C"/><stop offset="1" stop-color="#331EA8"/></radialGradient><radialGradient id="e" cx="0" cy="0" r="1" gradientTransform="translate(220 216) scale(56.13)" gradientUnits="userSpaceOnUse"><stop stop-color="#16178F"/><stop offset=".15" stop-color="#15168B"/><stop offset="1" stop-color="#12137A"/></radialGradient><clipPath id="a"><path fill="#fff" d="M0 0h440v440H0z"/></clipPath><clipPath id="b"><path fill="#fff" d="M0 0h440v440H0z"/></clipPath></defs></svg>