<svg fill="none" height="435" viewBox="0 0 815 435" width="815" xmlns="http://www.w3.org/2000/svg" xmlns:xlink="http://www.w3.org/1999/xlink"><linearGradient id="a" gradientUnits="userSpaceOnUse" x1="36.4309" x2="759.655" y1="43.11" y2="392.07"><stop offset="0" stop-color="#ff8c19"/><stop offset=".33" stop-color="#ffb93a"/><stop offset=".67" stop-color="#ffe75c"/></linearGradient><linearGradient id="b" gradientUnits="userSpaceOnUse" x1="505.629" x2="518.197" y1="64.0899" y2="192.477"><stop offset=".02" stop-color="#f1aa4b"/><stop offset=".09" stop-color="#f2b868"/><stop offset=".16" stop-color="#f4c585"/><stop offset=".58" stop-color="#fae2c2"/><stop offset="1" stop-color="#fff"/></linearGradient><linearGradient id="c" gradientUnits="userSpaceOnUse" x1="531.486" x2="539.652" y1="130.228" y2="184.473"><stop offset="0" stop-color="#f4be74"/><stop offset=".33" stop-color="#f8d7aa"/><stop offset=".7" stop-color="#fcf0e0"/></linearGradient><clipPath id="d"><rect height="430" rx="44" width="810.5" x="2" y="3"/></clipPath><clipPath id="e"><path d="m-43-167h900v600h-900z"/></clipPath><mask id="f" height="600" maskUnits="userSpaceOnUse" width="900" x="-43" y="-167"><path d="m857-167h-900v600h900z" fill="#fff"/></mask><mask id="g" height="600" maskUnits="userSpaceOnUse" width="900" x="-43" y="-167"><path d="m-43-167h900v600h-900z" fill="#fff"/></mask><mask id="h" height="600" maskUnits="userSpaceOnUse" width="900" x="-43" y="-167"><path d="m-43-167h900v600h-900z" fill="#fff"/></mask><g clip-path="url(#d)"><rect fill="#fff" height="430" rx="44" width="810.5" x="2" y="3"/><g clip-path="url(#e)"><g mask="url(#f)"><path d="m43.5099 1.75c-22.9609 0-41.74696 18.787-41.74696 41.748v348.449c0 22.961 18.78606 41.748 41.74696 41.748h726.9791c22.961 0 41.748-18.787 41.748-41.748v-348.449c0-22.961-18.787-41.748-41.748-41.748z" fill="url(#a)"/><g fill="#fff" opacity=".25"><path d="m774.217 433.512c-187.526 0-494.431.567-494.431.567s30.79-39.77 82.105-51.316c51.316-11.546 33.356 19.244 33.356 19.244s111.612-94.935 174.474-96.218c62.862-1.282 75.691 51.316 75.691 51.316s71.842-51.316 133.421-28.223c15.201 5.7 26.151 13.191 33.361 21.016l-.077 45.747s-.165 4.28-2.234 9.935c-3.825 10.459-13.782 25.97-35.666 27.932z"/><path d="m157.62 289.097h364.958c3.287 0 5.519-3.395 4.151-6.385-2.357-5.149-7.827-12.765-20.52-20.381-13.941-8.364-24.396-7.435-30.278-5.562-2.651.845-5.411-.795-5.898-3.535-1.311-7.375-5.923-19.637-21.817-26.591-13.198-5.774-21.82-2.854-26.882.89-2.627 1.944-6.399.487-7.078-2.709-3.049-14.345-13.513-40.131-49.312-38.33-52.835 2.658-69.63 40.807-73.427 51.971-.618 1.818-2.315 3.035-4.236 3.056-18.005.193-104.344 3.078-133.293 40.313-2.296 2.953-.109 7.263 3.632 7.263z"/><path d="m22.3339 180.011h194.9191c1.047 0 1.809-.997 1.516-2.002-1.38-4.748-6.182-16.468-20.343-18.829-10.618-1.769-16.5-.908-19.524.081-1.131.37-2.233-.573-2.046-1.749.932-5.884.498-18.038-18.603-19.162-21.944-1.291-41.648 15.336-46.483 19.763-.621.568-1.565.546-2.158-.051-3.381-3.404-15.1531-13.257-36.1691-10.785-20.591 2.423-44.141 22.594-52.186 30.011-1.054.972-.357 2.723 1.077 2.723z"/><path d="m75.0299 404.208h96.8211c1.042 0 1.755-1.036 1.394-2.014-1.022-2.778-3.682-7.561-10.062-8.625-4.088-.681-6.802-.599-8.552-.301-1.086.185-1.986-.852-1.653-1.902 1.375-4.332 2.19-11.852-8.883-11.553-14.269.385-24.605 9.358-28.293 13.081-.68.686-1.819.554-2.316-.274-1.448-2.413-5.181-6.183-14.1361-5.13-9.541 1.123-20.325 9.706-25.312 14.118-1.028.909-.38 2.6.992 2.6z"/></g><g mask="url(#g)"><path d="m881.41 636.847c-19.716-1.097-43.402-7.36-48.293-49.56-5.699-49.183-7.736-125.775 30.421-150.921 30.406-20.037 65.917-5.119 70.609 38.601 3.064 28.56 6.599 69.365 1.481 109.774-3.632 28.671-17.514 54.149-54.218 52.106z" fill="#698eff"/></g><path d="m516.776 29.8266 12.848 2.2862c1.712.3046 2.866 1.9748 2.565 3.7121l-.099.5721c-.301 1.7373-1.948 2.9099-3.659 2.6053l-12.848-2.2861c-1.711-.3046-2.865-1.9757-2.565-3.7123l.1-.5726c.301-1.7365 1.947-2.9093 3.658-2.6047z" fill="#6cc780"/><path d="m503.843 48.9416s-43.407-15.4672-53.95.4886c-10.544 15.9565 5.813 24.4143 5.813 24.4143-77.792 17.2347-66.24 70.3515-66.24 70.3515-34.373 9.003-31.908 40.714-31.908 40.714-1.807-.235-9.1 2.497-11.69 12.464-2.589 9.965 1.292 18.205 1.292 18.205s353.437 11.687 364.162 8.4c10.724-3.286 20.098-9.864 18.311-22.767-1.788-12.903-11.742-19.205-14.919-21.713-3.176-2.507-3.716-6.194-3.716-6.194-3.492-76.6774-60.456-65.005-60.456-65.005-12.445-48.0257-68.8-48.1915-68.8-48.1915s18.086-21.3421-9.22-36.7321c-4.146-2.3365-8.612-3.3739-13.212-3.4542-25.7-.4469-55.467 29.0194-55.467 29.0194z" fill="url(#b)"/><path d="m662.549 144.632s2.224 8.867 4.616 19.289c2.29 9.984 4.623 20.224 5.097 21.779.473 1.555 2.018 2.631 7.08 1.806 5.061-.826 12.549-5.26 11.557-13.669-.991-8.409-4.99-27.392-7.79-31.575-2.799-4.183-7.112-5.703-12.945-5.338s-9.355 1.644-7.615 7.708z" fill="#efd9ad"/><path d="m394.45 178.801s.714 9.122 1.767 19.771c1.008 10.2 2.056 20.657 2.102 22.283.047 1.628-1.073 3.155-6.125 4.037s-13.547-.852-15.284-9.135c-1.735-8.283-3.989-27.561-2.67-32.44s4.916-7.735 10.551-9.306c5.636-1.572 9.377-1.52 9.659 4.79z" fill="#efd9ad"/><path d="m519.204 74.0713-2.277 13.0392c-.303 1.7367-1.952 2.907-3.662 2.5998l-.563-.1008c-1.711-.3072-2.863-1.9791-2.559-3.7158l2.276-13.039c.303-1.7376 1.951-2.907 3.662-2.6007l.564.1015c1.711.3071 2.862 1.979 2.559 3.7158z" fill="#fffefa"/><path d="m576.847 83.0085-12.572 3.5406c-1.674.4713-3.423-.5331-3.887-2.2329l-.152-.5598c-.465-1.6996.527-3.4756 2.2-3.9468l12.572-3.5405c1.675-.4722 3.424.533 3.888 2.2318l.153.5598c.463 1.6998-.527 3.4765-2.202 3.9478z" fill="#e180b8"/><path d="m457.765 92.0868-12.851 2.2781c-1.712.304-3.357-.8699-3.655-2.6066l-.098-.5723c-.298-1.7376.858-3.4073 2.57-3.7113l12.851-2.2781c1.712-.3032 3.356.8697 3.655 2.6075l.098.5723c.298 1.7367-.858 3.4072-2.57 3.7104z" fill="#6cc780"/><path d="m637.037 82.5348-10.628 7.6867c-1.414 1.0241-3.396.6866-4.404-.7497l-.333-.4732c-1.008-1.4355-.673-3.449.741-4.4732l10.626-7.6862c1.415-1.024 3.399-.6861 4.406.7501l.332.4729c1.008 1.4363.675 3.4486-.74 4.4726z" fill="#6cc780"/><path d="m430.664 168.1s3.424-3.098 8.058-6.149c4.635-3.052 8.079-3.604 10.351-3.901s3.983-1.845 2.382-4.184c-1.6-2.338-12.766-6.482-20.647-2.905-7.882 3.578-9.991 12.311-9.434 16.723.557 4.411 3.969 5.188 5.508 3.866 1.54-1.323 3.782-3.45 3.782-3.45z" fill="#dea85f"/><path d="m632.37 140.616s-2.719-1.246-7.423-2.294-8.536-.682-10.497-.239-3.796-.902-3.146-3.248c.651-2.345 6.447-7.635 15.931-7.419 7.55.172 11.786 6.834 12.593 10.521.806 3.686-1.787 5.327-3.439 4.733s-4.019-2.054-4.019-2.054z" fill="#dea85f"/><path d="m485.408 129.18c-19.22 10.467-23.805 28.585-23.061 48.749s7.85 41.976 7.85 41.976l146.364 7.112s-.632-41.888-2.168-61.56c-1.535-19.674-6.388-42.298-33.493-47.317-4.927-.913-10.578-1.474-16.65-1.72-27.334-1.105-63.115 4.197-78.842 12.76z" fill="url(#c)"/><path d="m529.343 62.3404c.875-.3343 12.43-2.3133 24.386-10.2248s16.974-13.782 20.5-11.2764c3.525 2.5065-11.808 16.6753-23.056 19.7537-11.247 3.0792-21.83 1.7475-21.83 1.7475z" fill="#d69847"/><path d="m450.776 77.6362s-1.077 11.708 10.859 14.7929c11.934 3.0849 31.696-5.1998 36.13-21.9377 4.434-16.7388-34.334-18.5223-34.334-18.5223l-5.643 23.5767z" fill="#f0aa4b"/><path d="m580.596 181.453-22.682 2.718c-3.673.44-7.03-2.25-7.462-5.978s2.22-7.138 5.892-7.578l22.682-2.718c3.673-.44 7.03 2.25 7.462 5.978s-2.219 7.138-5.892 7.578z" fill="#f5ddab"/><path d="m522.241 197.883-22.835.379c-3.698.061-6.772-2.958-6.83-6.712s2.92-6.875 6.617-6.936l22.834-.379c3.698-.062 6.772 2.959 6.83 6.713.058 3.753-2.919 6.873-6.616 6.935z" fill="#f5ddab"/><path d="m484.175 119.772-11.241-6.715c-1.496-.893-1.999-2.869-1.117-4.389l.29-.501c.882-1.52 2.828-2.033 4.324-1.138l11.241 6.714c1.497.895 2.001 2.87 1.119 4.391l-.291.499c-.882 1.521-2.827 2.033-4.325 1.139z" fill="#e180b8"/><path d="m479.892 40.929 11.837 5.5617c1.576.7402 2.267 2.6559 1.537 4.2571l-.241.5267c-.73 1.6013-2.618 2.3042-4.195 1.5642l-11.836-5.5618c-1.576-.741-2.268-2.6566-1.537-4.257l.24-.5266c.73-1.6003 2.619-2.3053 4.195-1.5643z" fill="#e180b8"/><path d="m564.002 222.807s13.422-11.977 37.17-17.553c23.749-5.576 48.323 4.131 48.323 4.131s25.813-21.064 46.464 11.77z" fill="#f5d9a3"/><path d="m382.965 221.27c.241-.724 10.62-13.758 33.791-18.585 23.17-4.828 49.961 5.551 55.754 21.722z" fill="#f5d9a3"/><path d="m437.558 413.266c.573.286 69.756.11 96.415.032 26.659.078 95.842.254 96.415-.032 36.551-18.276 50.62-51.78 56.477-82.2h-305.784c5.857 30.42 19.926 63.924 56.477 82.2z" fill="#eb459f"/><path d="m724.711 219.3c-1.418-6.028-8.157-4.963-8.157-4.963h-175.453-14.256-175.454s-6.738-1.065-8.156 4.963c-1.419 6.028 3.193 7.093 8.156 12.058 4.965 4.964 23.404 23.048 25.176 56.734.613 11.655 1.416 26.883 4.514 42.974h305.784c3.097-16.091 3.9-31.319 4.513-42.974 1.773-33.686 20.212-51.77 25.176-56.734 4.965-4.965 9.575-6.03 8.157-12.058z" fill="#d11583"/><path d="m476.477 225.336-.033-.001-.016-.003-.003-.001h.002-.033m157.694-3.447h27.025 16.44" stroke="#ff73d0" stroke-linecap="round" stroke-width="6.67086"/><path d="m436.672 210.65s12.55 1.206 19.791 13.999c7.241 12.792 18.101 18.585 30.653 16.171 12.55-2.414 20.756-12.551 13.033-25.102-7.723-12.55-44.651-13.999-63.477-5.068z" fill="#f5d9a3"/><path d="m719.017 411.117c-1.305-4.133-5.004-3.262-5.004-3.262h-145.325-2.375-212.969s-3.697-.871-5.003 3.262c-1.305 4.133 3.699 5.874 10.66 6.744 6.96.87 30.67 5.22 48.943 8.265 18.271 3.046 28.713 5.656 32.411 8.05h98.961 56.371 31.317c3.697-2.394 14.138-5.004 32.41-8.05 18.272-3.045 41.982-7.395 48.943-8.265s11.965-2.611 10.66-6.744z" fill="#423d80"/><path d="m346.552 241.957c-21.001 15.072-20.093 50.538-19.18 73.067.395 9.739 2.447 29.831 9.742 45.363 19.413 41.33 70.487 35.701 94.447 30.059 8.369-1.972 13.436-4.477 11.81-12.611-1.202-6.004-6.606-8.207-17.615-7.005-7.59.828-41.757 1.126-54.239-11.052s-17.049-37.751-16.745-54.191c.304-16.441.609-40.492 18.876-49.016 18.266-8.525 37.885-5.968 47.077-5.324 9.864.693 15.435-.515 16.093-6.575.866-7.96-4.465-10.57-14.155-12.152-20.899-3.411-56.755-4.454-76.111 9.437z" fill="#ff78b9"/><path d="m346.552 241.957c-21.001 15.072-20.093 50.538-19.18 73.067.395 9.739 2.447 29.831 9.742 45.363 19.413 41.33 70.487 35.701 94.447 30.059 8.369-1.972 13.436-4.477 11.81-12.611-1.202-6.004-6.606-8.207-17.615-7.005-7.59.828-41.757 1.126-54.239-11.052s-17.049-37.751-16.745-54.191c.304-16.441.609-40.492 18.876-49.016 18.266-8.525 37.885-5.968 47.077-5.324 9.864.693 15.435-.515 16.093-6.575.866-7.96-4.465-10.57-14.155-12.152-20.899-3.411-56.755-4.454-76.111 9.437z" fill="#ff78b9"/><path d="m341.504 261.352 3.922-.112c.506-.015.962-.288 1.209-.73.841-1.509 3.057-5.182 6.365-8.49l3.217-3.217c.98-.981.141-2.645-1.231-2.437-1.154.176-2.477.519-3.826 1.157-3.432 1.626-7.981 6.286-10.967 11.72-.53.965.211 2.141 1.311 2.109z" fill="#eefcff"/><g fill="#fff" mask="url(#h)"><path d="m105.91 38.0098h12.294c2.964 0 5.495.4126 7.515 1.3249 1.879.771 3.475 2.1177 4.626 3.801 1.01 1.6833 1.586 3.5729 1.51 5.4734 0 1.9657-.5 3.8662-1.586 5.5495-1.151 1.7593-2.889 3.0842-4.843 3.9313-2.172.9883-4.909 1.4661-8.091 1.4661h-11.425zm11.349 16.0076c2.02 0 3.54-.4887 4.626-1.477 1.086-1.0534 1.662-2.4652 1.586-4.0073.076-1.4009-.435-2.7259-1.445-3.7141-.944-.9123-2.378-1.4118-4.333-1.4118h-3.833v10.5342h3.399z"/><path d="m150.361 59.4802c-1.586-.4235-3.182-1.0426-4.627-1.8896v-5.126c1.228.9123 2.672 1.5422 4.116 1.8897 1.662.4887 3.323.7059 5.061.771.576 0 1.162-.0651 1.738-.2715.358-.2063.575-.4235.575-.7059 0-.2823-.076-.5647-.293-.771-.358-.2824-.793-.4236-1.227-.4887l-3.758-.8471c-2.172-.4887-3.681-1.1946-4.626-2.0417-.945-.9122-1.444-2.172-1.368-3.4317 0-1.1186.434-2.2481 1.227-3.0951.945-.9883 2.096-1.6833 3.399-2.0309 1.662-.4887 3.399-.771 5.202-.7059 1.661 0 3.258.1412 4.843.5648 1.304.2823 2.52.771 3.682 1.4009v4.8436c-1.086-.6299-2.237-1.0535-3.388-1.3358-1.304-.3475-2.683-.4887-3.986-.4887-1.955 0-2.954.3584-2.954.9882 0 .2824.13.5539.424.6951.51.2063 1.097.3584 1.672.4995l3.171.5539c2.02.3475 3.617.9774 4.627 1.8245s1.52 2.1828 1.52 3.8661c0 1.8245-.945 3.5078-2.53 4.4201-1.662 1.0534-4.051 1.6181-7.157 1.6181-1.803-.0652-3.606-.2824-5.343-.7059z"/><path d="m172.775 58.8611c-1.661-.7711-3.116-1.9657-4.126-3.5078-.945-1.4769-1.369-3.2363-1.369-4.9956s.435-3.4317 1.445-4.9087c1.01-1.5421 2.454-2.6716 4.192-3.4426 2.096-.8471 4.344-1.3249 6.581-1.2598 3.182 0 5.777.6299 7.873 1.9657v5.6146c-.793-.4887-1.65-.9122-2.595-1.1946-1.01-.2824-2.096-.4887-3.182-.4887-1.955 0-3.465.3475-4.627 1.0534-1.585.8471-2.096 2.7367-1.227 4.2789.293.4887.717.9122 1.227 1.1946 1.086.7059 2.596 1.0534 4.692 1.0534 1.086 0 2.107-.1412 3.117-.4236.945-.2823 1.802-.6298 2.595-1.1185v5.4082c-2.454 1.401-5.202 2.096-8.025 2.0309-2.237.0651-4.551-.3476-6.571-1.2598z"/><path d="m195.255 58.8502c-1.737-.771-3.181-1.9656-4.191-3.5078-.945-1.4769-1.445-3.2254-1.445-4.9847s.435-3.4426 1.445-4.9196c1.01-1.4769 2.454-2.6607 4.191-3.3666 4.116-1.6181 8.819-1.6181 12.935 0 1.661.7059 3.106 1.8897 4.116 3.3666.945 1.477 1.444 3.2363 1.444 4.9196 0 1.7593-.499 3.5078-1.444 4.9847-1.01 1.5422-2.455 2.7368-4.116 3.5078-4.192 1.6833-8.819 1.6833-12.935 0zm9.536-5.4734c.792-.7711 1.238-1.9005 1.162-2.9539.076-1.1186-.37-2.172-1.162-2.9431-.869-.7711-2.02-1.1294-3.182-1.1294-1.162-.0652-2.303.3583-3.172 1.1294-.792.7711-1.238 1.8245-1.162 2.9431-.076 1.1185.37 2.1828 1.162 2.9539.869.771 2.01 1.1837 3.172 1.1186 1.227.0651 2.389-.3476 3.182-1.1186z"/><path d="m232.69 41.8544v6.6789c-.945-.5648-2.02-.8363-3.106-.7711-1.662 0-2.954.4778-3.899 1.4661-.869.9883-1.379 2.5304-1.379 4.6372v5.6146h-7.732v-17.9733h7.591v5.6907c.434-2.1069 1.075-3.649 2.02-4.6372.945-.9883 2.248-1.5422 3.616-1.477 1.01 0 2.02.2824 2.889.7711z"/><path d="m258.407 37.3691v22.1219h-7.733v-4.0074c-.575 1.401-1.661 2.6716-2.964 3.4426-1.521.8471-3.172 1.2598-4.909 1.1946-1.586.0652-3.182-.4126-4.551-1.2597-1.303-.8471-2.389-2.0417-3.04-3.4426-.717-1.5422-1.086-3.2363-1.086-4.9196-.076-1.7593.369-3.5078 1.086-5.0499.727-1.477 1.889-2.6607 3.258-3.5078 1.444-.8471 3.106-1.2706 4.767-1.2706 3.682 0 6.136 1.553 7.439 4.6372v-7.9387zm-8.884 15.8665c.793-.7711 1.227-1.8245 1.151-2.8779 0-1.0534-.434-2.096-1.151-2.8019-1.803-1.4769-4.409-1.4769-6.288 0-.793.7711-1.238 1.7485-1.162 2.8019-.076 1.0534.369 2.1068 1.162 2.8779.869.7711 1.944 1.1294 3.106 1.1294 1.227.0652 2.313-.3583 3.182-1.1294z"/><path d="m77.4465 32.667c-3.7576-1.6182-7.7432-2.8019-11.8591-3.5078-.5756.9882-1.0752 1.9656-1.5096 3.0191-4.3331-.6299-8.8292-.6299-13.1623 0-.4344-1.0535-.934-2.0309-1.5095-3.0191-4.0508.7059-8.0256 1.9005-11.8592 3.5838-7.4391 10.7405-9.4699 21.1987-8.4599 31.5917 4.4092 3.1603 9.3287 5.5495 14.5307 7.0916 1.1511-1.5421 2.2371-3.1603 3.1059-4.8436-1.6615-.6298-3.3231-1.4009-4.9087-2.248.4344-.2823.7928-.5647 1.2272-.8471 9.1767 4.2137 19.7978 4.2137 29.0505 0 .3584.2824.7928.6408 1.2272.8471-1.5856.9123-3.1711 1.6833-4.9087 2.248.8688 1.6833 1.9548 3.3015 3.1059 4.8436 5.202-1.5421 10.1215-3.9313 14.5307-7.0916 1.1512-12.0111-2.096-22.4042-8.6011-31.6677zm-29.4958 25.282c-2.8236 0-5.2019-2.5303-5.2019-5.5494s2.248-5.6146 5.1368-5.6146c2.8887 0 5.2019 2.5303 5.2019 5.6146 0 3.0842-2.248 5.5494-5.1368 5.5494zm19.081 0c-2.8236 0-5.1259-2.5303-5.1259-5.5494s2.2372-5.6146 5.1259-5.6146c2.8888 0 5.2128 2.5303 5.1368 5.6146 0 3.0842-2.248 5.5494-5.1368 5.5494z"/><path d="m138.436 43.4725c2.118 0 3.834-1.5096 3.834-3.3666 0-1.8571-1.716-3.3666-3.834-3.3666s-3.833 1.5095-3.833 3.3666c0 1.857 1.715 3.3666 3.833 3.3666z"/><path d="m134.614 45.7969c2.454.9882 5.278.9882 7.732 0v13.8356h-7.732z"/></g></g></g></g></svg>