<svg fill="none" height="76" viewBox="0 0 104 76" width="104" xmlns="http://www.w3.org/2000/svg" xmlns:xlink="http://www.w3.org/1999/xlink"><linearGradient id="a"><stop offset="0" stop-color="#eb459f"/><stop offset="1" stop-color="#ff78b9"/></linearGradient><linearGradient id="b" gradientUnits="userSpaceOnUse" x1="37.8733" x2="-.742841" xlink:href="#a" y1="47.322" y2="47.4124"/><linearGradient id="c" gradientUnits="userSpaceOnUse" x1="60.818" x2="76.0101" y1="27.3245" y2="40.486"><stop offset="0" stop-color="#40c1a2"/><stop offset="1" stop-color="#4697c4"/></linearGradient><linearGradient id="d" gradientUnits="userSpaceOnUse" x1="3961.71" x2="3698.19" xlink:href="#a" y1="-6161.81" y2="-5518.27"/><clipPath id="e"><path d="m0 0h104v76h-104z"/></clipPath><g clip-path="url(#e)"><path d="m57.0143 76.0009c-4.2248-.0744-8.2653-1.6728-11.3162-4.4769-12.0962-10.5331-5.4229-24.8306.6438-34.6631 7.0943-11.5069 6.4381-17.8125 2.4762-26.7544-.6104-1.33007-.7821-2.80733-.4922-4.23367.2899-1.42635 1.0276-2.73358 2.1141-3.74635 1.2415-1.187357 2.8733-1.925858 4.6181-2.0900099.2062-.0121685.4129-.0121685.6191 0h.3838c1.6586-.0024174 3.2643.5595029 4.5315 1.5858099 1.2673 1.02631 2.114 2.45047 2.3894 4.01919l4.8533 26.80193-1.4485.2493-4.8657-26.8256c-.2147-1.23837-.8821-2.36298-1.8825-3.17242-1.0005-.80943-2.2687-1.2508-3.5775-1.24508h-.26-.6067c-.7291.08063-1.4199.35636-1.9933.79564-.4157.30978-.7633.69546-1.0228 1.13477-.2594.43931-.4256.92353-.4889 1.42476s-.0225 1.00952.1201 1.49554.3841.94013.7106 1.33615l2.2657 2.86184c2.7082 3.6238 3.9011 8.09 3.3429 12.5163v.2731c-.52 5.1419-1.0772 10.45 3.9743 17.3257.6809.9262 1.399 1.8525 2.08 2.755 4.68 6.1275 9.5209 12.445 7.6638 21.185-.7253 3.244-2.5885 6.1513-5.2788 8.2368-2.6903 2.0854-6.045 3.2229-9.5041 3.2225zm-6.8219-71.11941c-.3391.73704-.5142 1.53378-.5142 2.33938 0 .80559.1751 1.60234.5142 2.33937 4.1848 9.40496 4.8657 15.99566-2.5505 28.01316-9.36 15.1643-9.6448 25.3175-.9162 32.9056 4.2838 3.7525 9.5705 5.0112 14.5105 3.4794 2.2819-.6954 4.3309-1.9586 5.9382-3.6608 1.6072-1.7021 2.7153-3.7826 3.2113-6.0293 1.7334-8.1343-2.699-13.9412-7.4285-20.0806-.6934-.9025-1.3991-1.8406-2.0924-2.7787-5.3734-7.3032-4.7667-13.0625-4.2343-18.2638v-.2731c.5307-4.0777-.5565-8.1978-3.0457-11.5425l-2.2534-2.84999c-.8408-1.01786-1.2478-2.3037-1.139-3.59812z" fill="#57f287"/><path d="m44.1257 48.9133c-12.8514 7.125-28.6619 11.3762-44.1257 13.1931v-20.8288c9.52095-.7481 23.3629-2.85 34.5057-8.7044z" fill="url(#b)"/><path d="m41.9219 45.2561-7.7133-6.4006c1.9685 3.7881 2.5628 10.4737 2.699 13.6087 2.4762-1.1162 4.8657-2.2919 7.1686-3.5625z" fill="#000"/><path d="m58.6114 50.6947c8.2953-4.4531 7.9981-9.785 3.4791-20.8762-1.0254-2.6649-2.2034-5.2735-3.5286-7.8138l-.5448.19-12.22-2.2562-13.198 17.6462c1.374 3.2827 2.9449 6.4864 4.7047 9.595 6.5743 12.1244 13.0124 7.9563 21.3076 3.515z" fill="#eb459f"/><path d="m61.9419 12.0288c-.3724-.3034-.624-.721-.712-1.182s-.0071-.93708.2292-1.34736c.0318-.08426.0912-.15637.1693-.20559s.1707-.07289.264-.06752h1.4733v2.80247z" fill="#57f287"/><g fill="#8cd9ff"><path d="m87.5086 58.9707-1.2381 1.1875c-.3181.3234-.702.581-1.1278.7566-.4259.1757-.8848.2657-1.3484.2646h-5.6457v-9.7019h9.3724l.8914 4.75c.0815.4932.0423.9978-.1146 1.4739-.1568.4761-.427.9106-.7892 1.2693z"/><path d="m50.3649 17.4199-1.3248 1.3063c-.3708.3749-.6447.8282-.7995 1.3232s-.1863 1.018-.0919 1.5268l1.2381 6.8399h7.218v-10.9962z"/><path d="m87.1248 57.3324c.1792.8408.0036 1.7155-.4884 2.4322-.492.7168-1.2603 1.2172-2.1364 1.3916-.2692.0492-.5433.0691-.8171.0594h-24.2419c-1.1457-.0319-2.247-.4321-3.1271-1.1363s-1.4881-1.6716-1.7263-2.7469l-6.4752-35.7081c-.0903-.4157-.094-.8444-.0108-1.2615s.2517-.8143.4957-1.1686.5587-.6589.9259-.896c.3673-.2372.7799-.4023 1.214-.4858.2677-.059.5426-.0829.8171-.0712h24.2419c1.1444.036 2.2435.4376 3.1228 1.1412.8793.7035 1.4883 1.6685 1.7305 2.7419z"/></g><path d="m88.3505 56.073c.1933.8201.0418 1.6802-.4217 2.3938-.4636.7136-1.2018 1.2231-2.0545 1.4181-.3055.059-.6172.083-.9286.0713h-24.279c-1.1469-.0277-2.2504-.4264-3.1314-1.1313s-1.4878-1.6746-1.722-2.7519l-6.4381-35.625c-.1758-.8404.0012-1.7135.4927-2.4295s1.2577-1.217 2.1321-1.3942c.2692-.0493.5433-.0692.8172-.0594h24.2914c1.1424.0293 2.2406.4293 3.1154 1.1346.8747.7053 1.4743 1.6742 1.7008 2.7485z" fill="#fff"/><path d="m69.4571 19.8904c.102.5022-.0074 1.0228-.3044 1.4478s-.7573.72-1.2803.8204h-.4829-2.8476c-.6755-.0215-1.3237-.2604-1.8403-.6783-.5166-.418-.8714-.9905-1.0073-1.6255l-1.2381-6.9706c-.0984-.5004.0128-1.0179.3094-1.4402s.7548-.7155 1.2753-.816c.16-.0235.3229-.0235.4829 0h2.8476c.675.0166 1.3241.2523 1.8414.6686.5172.4163.872.9885 1.0062 1.6232z" fill="#000"/><path d="m83.5838 52.796c.0532.2911.0456.5893-.0223.8775-.068.2882-.1949.5606-.3734.8014s-.405.4452-.6665.6014-.5527.2611-.8568.3085c-.1766.0236-.3558.0236-.5324 0h-17.8657c-.788-.0125-1.549-.2778-2.1616-.7534-.6126-.4757-1.0415-1.1343-1.2184-1.871-.0593-.2901-.0582-.5886.0031-.8783.0613-.2898.1817-.565.3543-.81.1726-.2449.3939-.4548.6513-.6175.2573-.1626.5457-.275.8484-.3305.1974-.0236.397-.0236.5943 0h17.8657c.7949.0151 1.5611.2871 2.1746.7721.6135.4849 1.0382 1.1544 1.2054 1.8998z" fill="#ffc619"/><path d="m67.9838 46.0514c-.2665.0051-.5282-.0684-.7497-.2107s-.392-.3465-.4884-.5849l-1.6714-3.5625c-.2443-.5536-.62-1.0447-1.0972-1.4344s-1.0427-.667-1.6514-.81l-3.8752-.9856c-.2657-.0606-.5065-.1958-.6918-.3883-.1852-.1924-.3064-.4335-.3482-.6923-.0297-.1069-.0368-.2183-.021-.3279.0158-.1095.0542-.2149.113-.31s.1368-.178.2294-.2438c.0927-.0658.198-.1133.31-.1396l3.5781-.9381c.5294-.1496.9998-.4479 1.3507-.8564s.5661-.9085.6179-1.4355l.3962-3.5625c.025-.2278.1406-.4376.3228-.5858.1822-.1481.4168-.2233.6553-.2098.2654-.0002.5248.0754.7453.217.2205.1417.392.3431.4928.5786l1.6714 3.5625c.2514.5491.6294 1.0363 1.1055 1.4251.476.3887 1.0378.6688 1.6431.8193l3.9247.9856c.2473.0637.4705.1936.6437.3744s.2892.4052.3344.6469c.0616.2235.0301.4612-.0877.6628-.1179.2017-.3128.3515-.5437.4178l-3.541.9381c-.5346.1464-1.0112.443-1.3687.8514-.3574.4085-.5793.9101-.637 1.4405l-.3962 3.5625c-.022.2268-.1351.4365-.3152.5849-.1802.1485-.4134.224-.6505.2107zm6.7724-12.9556c-.1267-.0015-.2503-.0382-.3558-.1057-.1054-.0674-.1883-.1627-.2385-.2743l-.8295-1.7694c-.1257-.2751-.3146-.5195-.5526-.7148-.238-.1954-.5189-.3366-.8217-.4133l-1.9686-.5106c-.1238-.0344-.2348-.1017-.3203-.1942s-.1418-.2063-.1625-.3283c-.0311-.1039-.0188-.2154.0344-.3107.0531-.0954.1429-.1671.2503-.2l1.82-.475c.2611-.0702.4941-.2143.6686-.4134.1744-.1991.2823-.444.3095-.7028l.1981-1.7813c0-.285.1981-.4156.4953-.4156.1312-.0021.2594.0376.3647.1128s.1816.1817.2172.3028l.8419 1.7813c.1329.2692.3242.5081.5613.7006.237.1926.5142.3343.813.4156l1.9562.475c.1244.0316.2369.0963.3246.1867.0876.0903.1468.2027.1706.324.0263.1086.0074.2227-.0527.3181-.0601.0953-.1567.1644-.2692.1925l-1.7581.5106c-.2661.0674-.504.212-.6812.4139-.1773.2019-.2853.4513-.3093.7143l-.1981 1.7693c-.0183.1143-.0805.218-.1745.2905-.0939.0725-.2127.1087-.3331.1014z" fill="url(#c)"/><path d="m66.6222 20.1256c.5043-.544.358-1.4584-.3267-2.0424-.6848-.5839-1.6487-.6162-2.153-.0722-.5044.5441-.3581 1.4585.3267 2.0424.6847.5839 1.6487.6163 2.153.0722z" fill="#5865f2"/><path d="m65.5324 11.8513c-.0241.0461-.059.0861-.102.117-.0429.0309-.0928.0519-.1456.0611h-2.7486c-.1486 0-.1981-.095-.1981-.1425s0 0 0 0v-.095c-.0186-.0621-.0186-.1279 0-.19.4952-1.1875.1486-1.73374-.4457-2.14936v-.18997h2.0181c.0673-.01111.1363-.0084.2025.00797.0662.01638.128.04603.1813.08701.9905.475 1.82.90255 1.2381 2.49375z" fill="#57f287"/><path d="m63.5638 7.54004h-1.6714c-.1486 0-.2476.14251-.1981.23751l.2476 1.49623h1.919z" fill="#000"/><path d="m62.6507 8.25955c.5122-.02437.9123-.3362.8937-.69647-.0187-.36027-.449-.63256-.9612-.60818-.5122.02437-.9123.33616-.8937.69643s.449.63259.9612.60822z" fill="#000"/><path d="m61.4962 18.6322c-.3743.6343-.9127 1.1653-1.5633 1.5418-.6507.3765-1.3915.5857-2.151.6076-3.0953.5225-7.5524 0-11.341-.4157 4.7172 10.4382 3.2438 18.8575-2.3523 24.0588-2.4762 1.9119-5.5962 2.755-7.2677 1.9594-5.3485-9.88-6.6238-13.8938-5.4476-18.0619 1.1063-3.61 2.8711-7.0033 5.2124-10.0225 6.6238-8.93 11.8733-7.8613 21.0476-5.795 3.4295.7481 5.3362 2.66 3.8629 6.1275z" fill="url(#d)"/><path d="m61.2114 14.666c-.1981.5581-1.7705.5581-3.4419 0-1.6714-.5582-2.8971-1.4963-2.6495-2.1019s1.7209-.4275 3.4419 0c2.6495.5937 2.8476 1.4369 2.6495 2.1019z" fill="#ffcce5"/><path d="m59.9857 12.9678c.118.0548.2169.1411.285.2485s.1024.2314.0988.3571c.0464.3082-.0353.6216-.2276.8726-.1922.251-.4795.4195-.8.4693-.1636.0295-.3316.0295-.4953 0 1.2381.2731 2.2162.1425 2.3648-.285s.0495-1.1519-1.2257-1.6625z" fill="#fff"/><path d="m44.6705 44.7689c-.1493-.0006-.2937-.051-.4086-.1425-.1126-.1089-.1758-.2562-.1758-.4097 0-.1534.0632-.3007.1758-.4096 5.5343-6.1038 6.1905-13.3001 2.1048-22.6576-.0449-.1412-.0332-.2933.0326-.4268.0657-.1334.181-.2386.3232-.2949.1423-.0564.3013-.0599.4461-.0099s.265.15.3371.2804c2.6991 6.175 5.3981 15.3662-2.3152 23.8687-.064.0706-.1444.1256-.2348.1607s-.1881.0492-.2852.0412z" fill="#000"/><path d="m46.8743 21.5057-2.7981-.285c-.0798-.0075-.1573-.03-.228-.0663s-.1332-.0857-.1839-.1453c-.0506-.0597-.0884-.1283-.1113-.2021-.0228-.0737-.0301-.1511-.0216-.2276.0188-.1534.099-.2937.2239-.3913.1248-.0975.2843-.1446.4447-.1312l2.7981.285c.1642 0 .3216.0626.4377.1739.1161.1114.1814.2624.1814.4199 0 .1574-.0653.3085-.1814.4198-.1161.1114-.2735.1739-.4377.1739z" fill="#000"/><path d="m91.3466 7.54106c-.6161-.36937-1.1418-.86188-1.5414-1.44389-.3995-.58201-.6635-1.23983-.7738-1.9286l-.3343-2.375c-.0234-.04774-.0578-.08969-.1008-.12264-.0429-.03294-.0931-.05599-.1468-.06737-.0579-.00112-.1144.01729-.1597.05201-.0452.03471-.0764.08355-.0879.138l-.3962 2.375c-.0969.68562-.3487 1.34266-.7379 1.92519s-.9064 1.07649-1.5155 1.4473l-.3466.19001c-.0497.04936-.084.11105-.0991.17812.0121.07152.0467.1378.0991.19l.3466.19c.6091.37082 1.1263.86477 1.5155 1.44731.3892.5825.641 1.2396.7379 1.9252l.3962 2.375c0 .063.0261.1234.0725.1679.0464.0446.1094.0696.1751.0696.099 0 .1981-.095.2476-.2375l.3343-2.375c.1039-.6908.3652-1.3511.7654-1.93397.4001-.5829.9293-1.07405 1.5498-1.43854l.2848-.19c.0356-.01727.0644-.04507.0823-.07929.0178-.03422.0237-.07304.0167-.11071.0062-.03601-.0002-.07295-.0181-.10514s-.0463-.05783-.0809-.07298z" fill="#8cd9ff"/><path d="m34.3571 10.866c-.308-.1816-.5693-.4275-.7644-.7195-.195-.29197-.3189-.62241-.3622-.96669l-.1981-1.12814c0-.03779-.0157-.07402-.0436-.10074-.0278-.02673-.0656-.04175-.105-.04175 0 0-.0991-.00001-.0991.14249l-.1857 1.12814c-.0438.34559-.1692.67706-.3666.96919-.1973.2922-.4615.5374-.7724.717l-.1362.0951v.0949.0832l.1362.1425c.3049.1748.5654.4125.7624.696s.3257.6055.3766.9427l.1857 1.1875c.0027.0243.014.047.0321.0643.018.0173.0416.0281.067.0307.099 0 .1486 0 .1486-.095l.1981-1.1875c.0551-.3344.1842-.6536.3785-.9362.1943-.2827.4494-.5222.7481-.7025l.1362-.1781c.0066-.013.01-.0272.01-.0416s-.0034-.0286-.01-.0416c0 0 0 0 0-.095z" fill="#ffe75c"/><path d="m103.827 20.3184c-.305-.1747-.566-.4125-.763-.696s-.325-.6055-.376-.9427l-.186-1.1875s0-.0831-.149-.0831c-.012-.0018-.025-.0009-.037.0025s-.023.0093-.032.0172-.017.0176-.022.0286c-.005.0109-.008.0228-.008.0348l-.198 1.1875c-.055.3344-.184.6536-.378.9362-.195.2827-.45.5222-.748.7025l-.149.095c-.012.022-.018.0465-.018.0713s.006.0492.018.0712v.0832l.149.0949c.298.1804.553.4199.748.7026.194.2826.323.6018.378.9362l.198 1.1875c0 .095 0 .1425.099.1425.039-.0028.075-.0186.102-.0448.028-.0261.044-.0608.047-.0977l.186-1.1875c.051-.3372.179-.6592.376-.9427s.458-.5213.763-.6961l.136-.0949s0-.0001 0-.0832c.012-.022.018-.0464.018-.0712s-.006-.0493-.018-.0713z" fill="#57f287"/><path d="m92.4733 41.4683c-.2457-.1386-.4563-.3275-.6169-.5534-.1605-.2258-.267-.4829-.3117-.7529l-.1485-.9381c-.0027-.0243-.014-.047-.0321-.0643-.018-.0173-.0416-.0281-.067-.0307-.0263 0-.0515.01-.07.0278-.0186.0179-.029.042-.029.0672l-.1486.9381c-.0265.2694-.1202.5288-.2732.7561-.153.2274-.3608.4161-.6059.5502l-.1485.095c-.0077.0147-.0116.031-.0116.0475s.0039.0327.0116.0475v.095h.1485c.2407.1504.444.3496.5959.5835.1519.2338.2485.4967.2832.7702l.1486.9381h.099.0991l.0495-.8787c.0481-.2752.1556-.5377.3155-.7708s.3687-.4316.613-.583h.0991v-.095-.0949z" fill="#808aff"/></g></svg>