<svg fill="none" height="435" viewBox="0 0 815 435" width="815" xmlns="http://www.w3.org/2000/svg" xmlns:xlink="http://www.w3.org/1999/xlink"><linearGradient id="a" gradientUnits="userSpaceOnUse" x1="406.621" x2="406.621" y1="-34.5" y2="775.974"><stop offset="0" stop-color="#7f539d"/><stop offset=".38" stop-color="#653c90"/><stop offset=".75" stop-color="#4c2583"/></linearGradient><linearGradient id="b" gradientUnits="userSpaceOnUse" x1="516.518" x2="528.842" y1="71.7678" y2="197.665"><stop offset=".02" stop-color="#f1aa4b"/><stop offset=".09" stop-color="#f2b868"/><stop offset=".16" stop-color="#f4c585"/><stop offset=".58" stop-color="#fae2c2"/><stop offset="1" stop-color="#fff"/></linearGradient><linearGradient id="c" gradientUnits="userSpaceOnUse" x1="541.876" x2="549.883" y1="136.622" y2="189.816"><stop offset="0" stop-color="#f4be74"/><stop offset=".33" stop-color="#f8d7aa"/><stop offset=".7" stop-color="#fcf0e0"/></linearGradient><clipPath id="d"><path d="m0 0h815v435h-815z"/></clipPath><mask id="e" height="435" maskUnits="userSpaceOnUse" width="815" x="-1" y="0"><path d="m-1 0h815v435h-815z" fill="#fff"/></mask><g clip-path="url(#d)"><g mask="url(#e)"><path d="m770.191 433.653h-726.9782c-22.961 0-41.74796-18.786-41.74796-41.747v-348.449c0-22.961 18.78696-41.74802 41.74796-41.74802h726.9782c22.961 0 41.748 18.78702 41.748 41.74802v348.449c0 22.961-18.787 41.747-41.748 41.747z" fill="url(#a)"/><path d="m108.529 41.6128c.373 3.232 3.022 21.972 14.1 23.654-11.084 1.669-13.727 20.44-14.1 23.653-.38-3.213-3.023-21.984-14.1071-23.653 11.0781-1.682 13.7271-20.422 14.1071-23.654z" fill="#fee75c"/><path d="m787.384 253.812c.373 3.232 3.022 21.972 14.1 23.654-11.084 1.669-13.727 20.44-14.1 23.653-.38-3.213-3.023-21.984-14.107-23.653 11.078-1.682 13.727-20.422 14.107-23.654z" fill="#fee75c"/><path d="m204.755 265.257c.373 3.232 3.023 21.972 14.101 23.654-11.084 1.669-13.728 20.44-14.101 23.653-.38-3.213-3.023-21.984-14.107-23.653 11.078-1.682 13.727-20.422 14.107-23.654z" fill="#fee75c"/><path d="m83.8164 335.368c.269 2.33 2.179 15.837 10.163 17.049-7.989 1.203-9.894 14.732-10.163 17.048-.274-2.316-2.179-15.845-10.168-17.048 7.984-1.212 9.894-14.719 10.168-17.049z" fill="#fee75c"/><path d="m773.919 433.471c-187.526 0-494.431.568-494.431.568s30.789-39.77 82.105-51.316 33.356 19.243 33.356 19.243 111.612-94.934 174.474-96.217 75.691 51.316 75.691 51.316 71.842-51.316 133.421-28.224c15.201 5.7 26.152 13.191 33.361 21.017l-.077 45.747s-.166 4.28-2.234 9.935c-3.825 10.458-13.782 25.969-35.666 27.931z" fill="#062000" opacity=".37"/><path d="m199.139 43.7261c.134 1.165 1.09 7.918 5.082 8.524-3.995.601-4.948 7.366-5.082 8.524-.137-1.158-1.089-7.923-5.084-8.524 3.992-.606 4.947-7.359 5.084-8.524z" fill="#fff"/><path d="m774.752 36.2061c.134 1.165 1.09 7.918 5.082 8.524-3.995.601-4.948 7.367-5.082 8.525-.137-1.158-1.089-7.924-5.084-8.525 3.992-.606 4.947-7.359 5.084-8.524z" fill="#fff"/><path d="m168.514 369.124c.134 1.165 1.089 7.918 5.081 8.524-3.995.601-4.947 7.366-5.081 8.524-.137-1.158-1.089-7.923-5.084-8.524 3.992-.606 4.947-7.359 5.084-8.524z" fill="#fff"/><g fill="#000"><path d="m190.928 139.091c-7.54 6.527-15.208 12.909-22.994 19.145 1.312.232 2.626.451 3.938.68 1.827-1.475 3.653-2.951 5.466-4.442 40.192-33.06 77.013-70.014 111.821-108.647 13.064-14.5 25.873-29.231 38.501-44.11802h-3.93c-7.946 9.32802-15.953 18.60202-24.047 27.79602-34.021 38.645-69.801 75.865-108.755 109.586z"/><path d="m168.759 161.414c-1.313-.231-2.623-.471-3.935-.704-29.698 23.531-61.178 44.807-94.5432 62.815-22.164 11.962-45.161 22.45-68.81596 31.105v3.172c18.28996-6.638 36.19796-14.357 53.62496-23.025 40.472-20.131 78.3682-45.175 113.6692-73.363z"/><path d="m660.208 185.262c-82.096 5.295-164.505 5.705-246.649 1.221-81.014-4.422-161.764-13.614-241.69-27.567-1.035.835-2.072 1.668-3.111 2.498 70.814 12.449 142.286 21.171 214.012 26.158 82.448 5.733 165.238 6.53 247.781 2.391 60.674-3.043 121.215-8.764 181.387-17.138v-3.01c-50.363 7.02-100.985 12.174-151.73 15.447z"/><path d="m164.824 160.71c1.038-.822 2.074-1.646 3.108-2.474-.037-.007-.075-.012-.112-.019-55.931-9.881-111.4512-22.097-166.35516-36.639v3.085c45.07096 11.923 90.55296 22.288 136.34816 31.067 8.992 1.724 17.997 3.377 27.011 4.98z"/><path d="m164.824 160.71c1.312.233 2.622.473 3.935.704 1.039-.83 2.076-1.663 3.111-2.498-1.312-.229-2.626-.448-3.938-.68-1.034.828-2.07 1.652-3.108 2.474z"/><path d="m18.6719 260.362.125-6.359s3.0739-4.115 8.659-2.369l3.7649 6.733-12.047 2.618"/></g><path d="m42.1393 270.587c0 7.782-6.349 14.089-14.181 14.089s-14.181-6.307-14.181-14.089 6.349-14.09 14.181-14.09 14.181 6.308 14.181 14.09z" fill="#efeb70"/><path d="m38.6136 265.509c0 1.358-.992 2.459-2.215 2.459-1.2231 0-2.215-1.101-2.215-2.459s.9919-2.46 2.215-2.46c1.223 0 2.215 1.102 2.215 2.46z" fill="#fff"/><path d="m86.793 227.292.125-6.359s3.075-4.115 8.66-2.369l3.764 6.733-12.047 2.619" fill="#000"/><path d="m110.259 237.517c0 7.782-6.348 14.09-14.1796 14.09-7.832 0-14.181-6.308-14.181-14.09s6.349-14.09 14.181-14.09c7.8316 0 14.1796 6.308 14.1796 14.09z" fill="#efeb70"/><path d="m105.067 229.429c0 1.358-.992 2.46-2.215 2.46s-2.215-1.102-2.215-2.46.992-2.46 2.215-2.46 2.215 1.102 2.215 2.46z" fill="#fff"/><path d="m145.575 195.01-3.333-5.43s.367-5.112 6.021-6.621l6.817 3.669-8.745 8.64" fill="#000"/><path d="m170.896 191.105c4.208 6.563 2.264 15.273-4.341 19.454s-15.371 2.25-19.579-4.313-2.264-15.272 4.341-19.453 15.371-2.251 19.579 4.312z" fill="#efeb70"/><path d="m166.321 190.553c0 1.358-.992 2.46-2.215 2.46s-2.215-1.102-2.215-2.46.992-2.459 2.215-2.459 2.215 1.101 2.215 2.459z" fill="#fff"/><path d="m218.577 128.202-.616-6.331s2.575-4.44 8.325-3.349l4.524 6.255-11.662 3.987" fill="#000"/><path d="m243.077 135.658c.907 7.729-4.665 14.726-12.444 15.627s-14.821-4.635-15.728-12.364 4.665-14.726 12.444-15.627 14.821 4.635 15.728 12.364z" fill="#efeb70"/><path d="m238.461 130.343c0 1.358-.992 2.46-2.215 2.46s-2.215-1.102-2.215-2.46.992-2.46 2.215-2.46 2.215 1.102 2.215 2.46z" fill="#fff"/><path d="m318.579 28.906-3.333-5.43s.368-5.112 6.022-6.621l6.817 3.669-8.745 8.64" fill="#000"/><path d="m343.901 25.0008c4.208 6.563 2.264 15.273-4.341 19.454s-15.371 2.25-19.579-4.313-2.265-15.273 4.34-19.454 15.372-2.25 19.58 4.313z" fill="#efeb70"/><path d="m339.789 25.397c0 1.358-.992 2.46-2.215 2.46s-2.215-1.102-2.215-2.46.992-2.459 2.215-2.459 2.215 1.101 2.215 2.459z" fill="#fff"/><path d="m271.099 80.3239-3.333-5.43s.368-5.112 6.022-6.621l6.817 3.669-8.745 8.64" fill="#000"/><path d="m296.42 76.4187c4.208 6.5631 2.264 15.273-4.341 19.454-6.605 4.1813-15.371 2.25-19.579-4.313s-2.265-15.2729 4.34-19.4539 15.372-2.25 19.58 4.3129z" fill="#efeb70"/><path d="m289.09 74.2828c0 1.358-.992 2.459-2.215 2.459s-2.215-1.101-2.215-2.459.992-2.46 2.215-2.46 2.215 1.102 2.215 2.46z" fill="#fff"/><path d="m34.0419 142.955 3.923-4.202s4.551-.936 7.254 3.566l-1.532 6.772-9.683-5.417" fill="#000"/><path d="m43.6568 163.816c-4.697 5.234-12.7741 5.694-18.042 1.027-5.268-4.667-5.731-12.693-1.0341-17.927 4.6971-5.234 12.7741-5.694 18.0421-1.027s5.731 12.693 1.034 17.927z" fill="#efeb70"/><path d="m43.9339 150.819c0 1.358-.992 2.459-2.215 2.459s-2.215-1.101-2.215-2.459.992-2.46 2.215-2.46 2.215 1.102 2.215 2.46z" fill="#fff"/><path d="m93.0234 159.162 1.3261-5.578s3.495-3.044 8.0805-.453l2.029 6.642-11.1126.033" fill="#000"/><path d="m111.742 172.597c-1.487 6.855-8.286 11.214-15.1847 9.736-6.899-1.478-11.286-8.232-9.799-15.087s8.286-11.215 15.1847-9.737c6.899 1.478 11.286 8.233 9.799 15.088z" fill="#efeb70"/><path d="m109.887 166.678c0 1.358-.992 2.459-2.215 2.459s-2.215-1.101-2.215-2.459.992-2.46 2.215-2.46 2.215 1.102 2.215 2.46z" fill="#fff"/><path d="m221.84 180.035 1.326-5.578s3.495-3.044 8.081-.453l2.03 6.642-11.114.033" fill="#000"/><path d="m240.559 193.47c-1.487 6.855-8.286 11.214-15.185 9.736s-11.286-8.233-9.799-15.088 8.286-11.214 15.185-9.736 11.286 8.233 9.799 15.088z" fill="#efeb70"/><path d="m235.618 186.178c0 1.358-.992 2.46-2.215 2.46s-2.215-1.102-2.215-2.46.992-2.459 2.215-2.459 2.215 1.101 2.215 2.459z" fill="#fff"/><path d="m283.347 186.603 4.062-4.071s4.58-.785 7.13 3.804l-1.758 6.718-9.496-5.735" fill="#000"/><path d="m292.255 207.769c-4.87 5.076-12.958 5.268-18.067.43s-5.302-12.875-.432-17.951 12.958-5.268 18.067-.43 5.302 12.875.432 17.951z" fill="#efeb70"/><path d="m293.625 196.528c0 1.358-.992 2.46-2.215 2.46s-2.215-1.102-2.215-2.46.992-2.459 2.215-2.459 2.215 1.101 2.215 2.459z" fill="#fff"/><path d="m785.441 183.962 2.41-5.207s4.032-2.297 8.011 1.144l.668 6.909-10.901-2.151" fill="#000"/><path d="m801.116 200.81c-2.823 6.427-10.354 9.364-16.823 6.56s-9.425-10.288-6.602-16.715 10.354-9.364 16.823-6.56 9.425 10.288 6.602 16.715z" fill="#efeb70"/><path d="m800.336 193.141c0 1.358-.992 2.46-2.215 2.46s-2.215-1.102-2.215-2.46.992-2.46 2.215-2.46 2.215 1.102 2.215 2.46z" fill="#fff"/></g><path d="m527.448 38.1692 12.598 2.2419c1.678.2987 2.81 1.9365 2.515 3.6401l-.097.5609c-.295 1.7037-1.91 2.8535-3.588 2.5549l-12.598-2.2418c-1.679-.2987-2.81-1.9374-2.516-3.6403l.098-.5615c.295-1.7029 1.909-2.8529 3.588-2.5542z" fill="#437300"/><path d="m514.766 56.9133s-42.564-15.1672-52.903.4791c-10.34 15.647 5.7 23.9408 5.7 23.9408-76.283 16.9004-64.955 68.9878-64.955 68.9878-33.707 8.828-31.289 39.924-31.289 39.924-1.773-.231-8.924 2.448-11.463 12.222-2.54 9.772 1.267 17.852 1.267 17.852s346.582 11.46 357.099 8.237c10.515-3.223 19.708-9.673 17.955-22.326-1.753-12.652-11.514-18.833-14.629-21.291-3.115-2.459-3.644-6.075-3.644-6.075-3.424-75.19-59.283-63.743-59.283-63.743-12.204-47.0948-67.466-47.2574-67.466-47.2574s17.735-20.9282-9.041-36.0197c-4.066-2.2912-8.445-3.3084-12.956-3.3872-25.201-.4382-54.392 28.4566-54.392 28.4566z" fill="url(#b)"/><path d="m670.396 150.747s2.181 8.695 4.526 18.916c2.245 9.79 4.534 19.831 4.998 21.356.464 1.524 1.979 2.58 6.943 1.771 4.963-.811 12.306-5.158 11.333-13.404-.972-8.246-4.894-26.86-7.639-30.962-2.745-4.103-6.974-5.593-12.694-5.235s-9.173 1.612-7.467 7.558z" fill="#efd9ad"/><path d="m407.497 184.254s.701 8.944 1.733 19.387c.988 10.003 2.016 20.256 2.062 21.851.045 1.596-1.053 3.093-6.007 3.958s-13.284-.834-14.987-8.957c-1.702-8.123-3.912-27.027-2.619-31.811 1.293-4.785 4.821-7.585 10.347-9.126 5.527-1.541 9.195-1.49 9.471 4.698z" fill="#efd9ad"/><path d="m529.829 81.5556-2.233 12.7863c-.298 1.7031-1.914 2.8506-3.592 2.5494l-.551-.0989c-1.678-.3012-2.808-1.9406-2.51-3.6437l2.232-12.7861c.297-1.7039 1.914-2.8506 3.591-2.5502l.553.0995c1.678.3012 2.807 1.9406 2.51 3.6437z" fill="#fffefa"/><path d="m586.355 90.3194-12.328 3.4719c-1.642.4622-3.357-.5227-3.812-2.1895l-.15-.549c-.455-1.6667.517-3.4082 2.159-3.8702l12.328-3.4719c1.642-.463 3.357.5227 3.812 2.1886l.15.5489c.454 1.6668-.517 3.409-2.159 3.8712z" fill="#ff000c"/><path d="m469.583 99.2218-12.602 2.2342c-1.678.298-3.291-.853-3.584-2.5563l-.096-.5612c-.292-1.7039.842-3.3412 2.521-3.6393l12.602-2.2339c1.678-.2973 3.291.8528 3.584 2.5569l.096.5611c.292 1.7031-.842 3.3412-2.521 3.6385z" fill="#437300"/><path d="m645.376 89.8551-10.421 7.5376c-1.388 1.0043-3.331.6732-4.32-.7352l-.326-.464c-.989-1.4076-.66-3.3821.727-4.3864l10.419-7.5372c1.388-1.0041 3.334-.6727 4.321.7356l.326.4637c.988 1.4085.662 3.3817-.726 4.3859z" fill="#437300"/><path d="m443.006 173.761s3.358-3.038 7.902-6.029c4.545-2.993 7.923-3.535 10.15-3.826 2.228-.291 3.906-1.809 2.337-4.103-1.57-2.292-12.519-6.357-20.247-2.849-7.729 3.509-9.798 12.073-9.252 16.399.547 4.325 3.892 5.087 5.402 3.791 1.51-1.297 3.708-3.383 3.708-3.383z" fill="#dea85f"/><path d="m640.802 146.809s-2.667-1.221-7.279-2.249c-4.613-1.027-8.371-.669-10.294-.235-1.923.435-3.722-.884-3.085-3.184.638-2.3 6.322-7.487 15.622-7.276 7.403.169 11.557 6.702 12.348 10.317s-1.752 5.225-3.372 4.642c-1.619-.583-3.94-2.015-3.94-2.015z" fill="#dea85f"/><path d="m496.692 135.595c-18.848 10.264-23.344 28.031-22.614 47.804.729 19.773 7.698 41.162 7.698 41.162l143.525 6.974s-.62-41.076-2.126-60.367c-1.506-19.292-6.264-41.477-32.843-46.399-4.832-.895-10.373-1.446-16.327-1.686-26.805-1.084-61.891 4.115-77.313 12.512z" fill="url(#c)"/><path d="m539.772 70.0521c.859-.3278 12.189-2.2684 23.913-10.0265 11.724-7.758 16.645-13.5147 20.103-11.0577 3.457 2.4579-11.579 16.3519-22.609 19.3706-11.029 3.0195-21.407 1.7136-21.407 1.7136z" fill="#d69847"/><path d="m462.727 85.0517s-1.056 11.481 10.648 14.506c11.703 3.0253 31.082-5.0989 35.43-21.5122 4.348-16.4141-33.669-18.163-33.669-18.163l-5.533 23.1194z" fill="#f0aa4b"/><path d="m590.032 186.855-22.242 2.665c-3.602.432-6.894-2.206-7.317-5.862-.424-3.655 2.176-6.999 5.778-7.431l22.242-2.665c3.601-.432 6.894 2.207 7.317 5.862s-2.177 7-5.778 7.431z" fill="#f5ddab"/><path d="m532.807 202.966-22.392.371c-3.626.06-6.64-2.901-6.698-6.581-.057-3.681 2.863-6.742 6.489-6.802l22.391-.372c3.627-.06 6.64 2.902 6.698 6.583.057 3.68-2.862 6.74-6.488 6.801z" fill="#f5ddab"/><path d="m495.479 126.37-11.023-6.585c-1.468-.876-1.96-2.813-1.096-4.303l.284-.492c.865-1.491 2.774-1.993 4.241-1.116l11.022 6.584c1.469.878 1.963 2.814 1.098 4.305l-.285.491c-.865 1.491-2.773 1.993-4.241 1.116z" fill="#ff000c"/><path d="m491.281 49.056 11.607 5.4538c1.545.7259 2.223 2.6044 1.507 4.1746l-.236.5164c-.716 1.5703-2.567 2.2596-4.114 1.534l-11.606-5.454c-1.546-.7267-2.225-2.605-1.508-4.1745l.236-.5164c.716-1.5692 2.568-2.2605 4.114-1.5339z" fill="#ff000c"/><path d="m573.758 227.407s13.161-11.745 36.449-17.212c23.288-5.468 47.386 4.05 47.386 4.05s25.312-20.656 45.562 11.542z" fill="#f5d9a3"/><path d="m396.23 225.899c.237-.709 10.414-13.491 33.135-18.224 22.721-4.734 48.993 5.444 54.673 21.301z" fill="#f5d9a3"/><path d="m449.765 414.171c.561.281 68.402.109 94.544.032 26.143.077 93.983.249 94.545-.032 35.842-17.921 49.638-50.775 55.382-80.605h-299.853c5.743 29.83 19.539 62.684 55.382 80.605z" fill="#fff"/><path d="m731.348 223.968c-1.39-5.911-7.998-4.867-7.998-4.867h-172.051-13.979-172.05s-6.608-1.044-7.999 4.867 3.131 6.956 7.999 11.824 22.949 22.601 24.687 55.634c.601 11.428 1.388 26.361 4.426 42.14h299.853c3.038-15.779 3.825-30.712 4.426-42.14 1.739-33.033 19.82-50.766 24.688-55.634s9.389-5.913 7.998-11.824z" fill="#e8449b"/><path d="m487.929 229.886h-.032l-.016-.003-.003-.001h.002-.032m154.635-3.38h26.501 16.121" stroke="#fff" stroke-linecap="round" stroke-width="8"/><path d="m448.898 215.485s12.307 1.184 19.407 13.728 17.751 18.224 30.058 15.857c12.307-2.366 20.354-12.307 12.781-24.615-7.574-12.307-43.785-13.727-62.246-4.97z" fill="#f5d9a3"/><g fill="#e9459c"><path d="m430.04 354.471c0 3.825-3.101 6.926-6.926 6.926s-6.926-3.101-6.926-6.926 3.101-6.926 6.926-6.926 6.926 3.101 6.926 6.926z"/><path d="m486.317 372.653c0 3.825-3.101 6.925-6.926 6.925s-6.926-3.1-6.926-6.925 3.101-6.927 6.926-6.927 6.926 3.102 6.926 6.927z"/><path d="m451.974 389.102c0 3.825-3.102 6.927-6.927 6.927s-6.926-3.102-6.926-6.927 3.101-6.926 6.926-6.926 6.927 3.101 6.927 6.926z"/><path d="m518.927 354.471c0 3.825-3.102 6.926-6.927 6.926s-6.926-3.101-6.926-6.926 3.101-6.926 6.926-6.926 6.927 3.101 6.927 6.926z"/><path d="m534.224 375.827c0 3.825-3.102 6.926-6.927 6.926s-6.926-3.101-6.926-6.926 3.101-6.927 6.926-6.927 6.927 3.102 6.927 6.927z"/><path d="m502.766 398.337c0 3.825-3.1 6.927-6.925 6.927s-6.927-3.102-6.927-6.927 3.102-6.926 6.927-6.926 6.925 3.101 6.925 6.926z"/><path d="m618.782 347.834c0 3.825-3.101 6.926-6.927 6.926-3.825 0-6.925-3.101-6.925-6.926s3.1-6.927 6.925-6.927c3.826 0 6.927 3.102 6.927 6.927z"/><path d="m640.427 379.578c0 3.825-3.101 6.927-6.926 6.927s-6.927-3.102-6.927-6.927 3.102-6.926 6.927-6.926 6.926 3.101 6.926 6.926z"/><path d="m675.345 372.94c0 3.826-3.101 6.927-6.926 6.927s-6.927-3.101-6.927-6.927c0-3.825 3.102-6.925 6.927-6.925s6.926 3.1 6.926 6.925z"/><path d="m563.95 346.968c0 3.825-3.101 6.925-6.927 6.925-3.825 0-6.925-3.1-6.925-6.925 0-3.826 3.1-6.927 6.925-6.927 3.826 0 6.927 3.101 6.927 6.927z"/><path d="m591.653 365.437c0 3.825-3.1 6.927-6.926 6.927-3.825 0-6.926-3.102-6.926-6.927s3.101-6.926 6.926-6.926c3.826 0 6.926 3.101 6.926 6.926z"/><path d="m611.856 394.585c0 3.825-3.1 6.927-6.925 6.927-3.826 0-6.927-3.102-6.927-6.927s3.101-6.926 6.927-6.926c3.825 0 6.925 3.101 6.925 6.926z"/><path d="m659.474 345.813c0 3.825-3.101 6.926-6.926 6.926s-6.927-3.101-6.927-6.926 3.102-6.927 6.927-6.927 6.926 3.102 6.926 6.927z"/><path d="m564.813 393.142c0 3.825-3.101 6.927-6.926 6.927s-6.926-3.102-6.926-6.927 3.101-6.926 6.926-6.926 6.926 3.101 6.926 6.926z"/><path d="m466.692 351.874c0 3.825-3.101 6.926-6.926 6.926s-6.926-3.101-6.926-6.926 3.101-6.927 6.926-6.927 6.926 3.102 6.926 6.927z"/></g><path d="m694.619 331.23c.257-1.451.493-2.89.715-4.321l-4.365 4.366z" fill="#ff151b"/><path d="m485.147 267.666-9.47.118 4.882-4.882v-1.295l-2.47-2.588-1.53.236-8.588 8.529-17.883.118 11.765-11.942h11.883l1.588-1.176v-3.001l-.883-1.117-7.352-.058 7.176-6.942.235-2.059-2.352-2.235-2 .294-6.647 6.883-.236-6.648-.882-1.176-3.412-.059-1.294 1.235.235 12.118-12.118 11.529v-17.588l8.765-8.529.294-1.588-2.412-2.589-1.646-.059-5.001 4.882v-9.176l-.941-1.353-3.117-.059-1.413 1.236v9.647l-4.647-4.941-1.353-.354-2.764 2.589-.059 1.588 8.647 8.412.235 18.177-12-11.824.118-12-.883-1.176-3.353-.236-1.235.883v6.882l-6.764-6.529-1.589-.589-2.588 2.53-.177 1.529 6.706 7.059-6.529.118-1.059 1.177v3.175l1 1.295 12.471-.118 11.647 11.706-17.706.177-8.824-8.647-1.411-.177-2.765 2.588.293 1.412 4.942 4.706h-9.824l-1 .823-.118 3.354 1.059 1.235 9.413.117-4.295 4.707-.294 1.529 2.353 2.294 1.706-.059 8.53-8.588 17.999.176-11.823 11.824-12.176-.059-.941.883-.177 3.294.882 1.235 6.824.177-6.883 6.47-.117 1.236 2.294 2.882 1.941-.177 6.765-6.47.118 6.588 1 1.177h3.411l1.059-1.118.235-12 11.589-11.942.058 17.647-8.647 8.942v1.647l2.295 2.059 1.647-.059 4.705-4.53v9.295l1 1.059 3.295.059 1.235-1.118.117-9.236 4.707 4.413 1.47.175 2.295-2.293-.236-2-8.294-8.354-.059-17.999 11.823 11.94.236 12.118 1.235 1.295h3l1.177-1.177.118-6.529 6.647 6.47 2.294.353 2-2.235v-2l-7-6.942 6.588.118 1.236-.941.117-3.412-1.294-.941-12.118.059-11.883-11.942 17.824-.058 8.588 8.647 1.942.059 2.059-2.059.058-1.882-4.647-4.648 9.001-.059 1.647-1.235-.059-3z" fill="#fff"/><path d="m693.917 259.078-2.766 2.588.294 1.412 4.942 4.706h-9.824l-1 .823-.118 3.354 1.059 1.235 9.413.117-4.295 4.707-.294 1.529 2.353 2.294 1.706-.059 5.284-5.321c.759-3.314 1.673-6.424 2.703-9.323l-8.046-7.885z" fill="#fff"/><path d="m727.446 227.49-1.411 1.235v4.968c2.366-1.937 4.322-3.305 5.089-5.339l-.56-.805z" fill="#fff"/><path d="m720.034 233.077-2.764 2.589-.059 1.588 2.579 2.509c1.424-1.556 2.621-2.746 3.438-3.564.134-.134.268-.255.402-.384l-2.242-2.385z" fill="#fff"/><path d="m696.973 286.02-.176 3.293.882 1.236.946.025c.123-1.859.293-3.671.514-5.431l-1.224-.006z" fill="#fff"/><path d="m697.622 297.196-.118 1.235.627.789c.054-.897.106-1.781.154-2.647z" fill="#fff"/><path d="m713.327 238.843-3.354-.235-1.235.882v6.883l-6.765-6.53-1.588-.588-2.588 2.53-.176 1.529 6.705 7.059-6.529.118-1.059 1.176v3.176l1 1.294 10.536-.099c1.921-3.593 3.936-6.71 5.869-9.366l.066-6.653z" fill="#fff"/><path d="m630.6 267.667-9.471.117 4.883-4.882v-1.294l-2.471-2.588-1.529.235-8.589 8.529-17.882.118 11.764-11.941h11.883l1.589-1.177v-3l-.883-1.118-7.353-.058 7.177-6.941.235-2.059-2.353-2.236-2 .295-6.647 6.882-.236-6.648-.882-1.175-3.412-.059-1.294 1.234.236 12.118-12.118 11.53v-17.589l8.765-8.529.294-1.588-2.412-2.589-1.647-.058-5 4.882v-9.176l-.941-1.353-3.118-.059-1.412 1.235v9.647l-4.647-4.941-1.353-.353-2.765 2.589-.059 1.588 8.648 8.412.235 18.176-12-11.824.117-12-.882-1.176-3.353-.235-1.235.882v6.883l-6.765-6.53-1.588-.588-2.589 2.53-.176 1.529 6.706 7.059-6.53.117-1.059 1.177v3.176l1 1.294 12.472-.117 11.647 11.706-17.706.176-8.824-8.647-1.412-.176-2.765 2.588.295 1.412 4.941 4.705h-9.824l-1 .824-.117 3.353 1.058 1.236 9.412.117-4.295 4.706-.293 1.529 2.352 2.295 1.707-.059 8.529-8.588 18.001.175-11.824 11.824-12.177-.059-.941.883-.177 3.294.883 1.236 6.823.176-6.882 6.471-.117 1.235 2.293 2.882 1.941-.176 6.765-6.471.118 6.589 1 1.176h3.412l1.059-1.118.235-12 11.589-11.941.059 17.647-.455.47-8.193 8.471v1.648l2.294 2.059 1.647-.059 2.831-2.725 1.876-1.805v9.295l1 1.058 3.293.059 1.236-1.117.118-9.236 4.705 4.412 1.471.176 2.294-2.294-.236-2-8.293-8.353-.059-18 11.824 11.941.235 12.118 1.235 1.294h3l1.176-1.176.118-6.53 6.647 6.471 2.295.353 2-2.236v-2l-7.001-6.941 6.589.118 1.235-.941.118-3.413-1.295-.941-12.118.059-11.881-11.941 17.823-.058 8.589 8.647 1.941.058 2.059-2.059.059-1.882-4.648-4.648 9-.058 1.648-1.235-.059-3z" fill="#fff"/><path d="m561.999 332.57-1.235-1.413-9.471.118 4.883-4.882v-1.295l-2.471-2.588-1.529.236-8.589 8.529-17.882.118 11.765-11.942h11.882l1.588-1.176v-3l-.882-1.117-7.354-.059 7.177-6.941.236-2.059-2.354-2.236-2 .294-6.647 6.883-.235-6.647-.882-1.177-3.412-.059-1.294 1.236.235 12.117-12.118 11.53v-17.589l8.765-8.529.294-1.588-2.412-2.589-1.647-.059-5 4.883v-9.176l-.941-1.354-3.118-.059-1.411 1.236v9.647l-4.648-4.941-1.352-.353-2.765 2.588-.059 1.588 8.647 8.413.236 18.176-12.001-11.824.118-12-.882-1.176-3.353-.235-1.236.882v6.882l-6.765-6.529-1.588-.589-2.588 2.53-.176 1.529 6.706 7.059-6.53.118-1.059 1.177v3.176l1.001 1.294 12.47-.118 11.647 11.706-17.706.177-8.824-8.647-1.412-.177-2.764 2.588.294 1.412 4.941 4.706h-9.823l-1 .824-.067 1.875h86.624z" fill="#fff"/><path d="m419.035 332.543-1.236-1.412-9.47.118 4.882-4.883v-1.294l-2.471-2.588-1.529.235-8.589 8.53-6.928.136.811-11.96h11.882l1.588-1.177v-3l-.882-1.117-7.353-.059 7.177-6.941.235-2.059-2.353-2.235-2 .294-6.647 6.882-.236-6.647-.882-1.176-3.411-.059-1.295 1.235 2.126 15.697-.019.044-.058.01-.052.035-.013-.003-.059-.032.195-.075-.178.01-.051.024.035-.017-.034.044.079.002.051.036-.072-.007.085.058-.143-.033.095-.005.068.029.087-.09-.215.151.114-.176.106.02.133-.079-.352.153.209.017.015-.012-.065-.063-.004-.023-.071.059.034-.034.037-.04-.008.02.067-.051-.103.138.063-.09.019-.014-.044.244.108-.294-.267.078.173-.202.039.352-.102-.136.062.011-.194.23 1.918 14.63 24.92-.034z" fill="#fff"/><path d="m691.85 322.746-8.588 8.529-17.882.118 11.764-11.942h11.883l1.589-1.176v-3l-.883-1.117-7.353-.059 7.177-6.941.235-2.059-2.353-2.236-2 .294-6.647 6.883-.235-6.647-.883-1.177-3.412-.059-1.293 1.236.234 12.117-12.117 11.53v-17.589l8.765-8.529.293-1.588-2.411-2.589-1.647-.059-5 4.883v-9.176l-.941-1.354-3.118-.059-1.412 1.236v9.647l-4.647-4.941-1.353-.353-2.765 2.588-.059 1.588 8.647 8.413.236 18.176-12.001-11.824.118-12-.882-1.176-3.353-.235-1.235.882v6.882l-6.765-6.529-1.589-.589-2.588 2.53-.176 1.529 6.706 7.059-6.53.118-1.059 1.177v3.176l1 1.294 12.471-.118 11.647 11.706-10.263.102-7.443.075-8.824-8.647-1.411-.177-2.765 2.588.294 1.412 4.941 4.706h-9.823l-1 .824-.066 1.875h79.034c.177-.918.344-1.832.506-2.744l-3.65.045 4.366-4.365c.105-.678.211-1.356.309-2.029l-2.263-2.371z" fill="#fff"/><path d="m448.902 215.485s12.306 1.184 19.407 13.728c7.1 12.544 17.751 18.224 30.058 15.857 12.307-2.366 20.354-12.307 12.781-24.615-7.574-12.307-43.785-13.727-62.246-4.97z" fill="#f5d9a3"/><path d="m725.768 412.064c-1.28-4.053-4.906-3.198-4.906-3.198h-142.507-2.329-208.838s-3.626-.855-4.906 3.198c-1.28 4.054 3.626 5.76 10.452 6.614 6.825.853 30.076 5.119 47.994 8.105 17.917 2.986 28.156 5.546 31.783 7.893h97.042 55.277 30.71c3.625-2.347 13.863-4.907 31.781-7.893 17.917-2.986 41.168-7.252 47.994-8.105 6.825-.854 11.732-2.56 10.453-6.614z" fill="#e8449b"/><path d="m360.524 246.186c-20.593 14.779-19.703 49.557-18.807 71.649.386 9.55 2.399 29.252 9.553 44.483 19.036 40.529 69.119 35.009 92.615 29.476 8.207-1.933 13.175-4.39 11.58-12.366-1.178-5.888-6.477-8.047-17.272-6.869-7.444.812-40.948 1.104-53.188-10.838s-16.719-37.019-16.42-53.14c.298-16.122.598-39.706 18.51-48.065s37.15-5.852 46.164-5.22c9.672.678 15.135-.506 15.781-6.449.849-7.805-4.379-10.365-13.881-11.916-20.494-3.345-55.654-4.367-74.635 9.255z" fill="#fff"/><path d="m360.524 246.186c-20.593 14.779-19.703 49.557-18.807 71.649.386 9.55 2.399 29.252 9.553 44.483 19.036 40.529 69.119 35.009 92.615 29.476 8.207-1.933 13.175-4.39 11.58-12.366-1.178-5.888-6.477-8.047-17.272-6.869-7.444.812-40.948 1.104-53.188-10.838s-16.719-37.019-16.42-53.14c.298-16.122.598-39.706 18.51-48.065s37.15-5.852 46.164-5.22c9.672.678 15.135-.506 15.781-6.449.849-7.805-4.379-10.365-13.881-11.916-20.494-3.345-55.654-4.367-74.635 9.255z" fill="#fff"/><path d="m376.106 387.617c5.133-2.794 12.147-9.379 17.576-20.401-3.61-1.478-6.67-3.325-9.034-5.63-1.332-1.3-2.464-2.966-3.616-4.548-4.958 3.736-14.597 9.793-26.649 11.391 5.752 8.471 13.228 15.322 21.723 19.188z" fill="#e9459c"/><path d="m383.939 237.461c-7.995 1.474-15.56 3.764-21.591 7.227 7.211.438 15.223 4.853 20.22 18.523 1.519-1.195 3.712-2.357 5.602-3.239 3.054-1.425 5.942-2.222 9.017-3.079-2.715-9.713-8.566-16.062-13.248-19.432z" fill="#e9459c"/><path d="m402.473 395.226c8.115.792 17.292.466 25.323-.614 4.016-9.546 2.311-17.396.124-21.573-5.069-.096-11.159-.484-17.253-1.415.03 5.157-1.488 16.368-8.194 23.602z" fill="#e9459c"/><path d="m341.863 319.202c.337 6.018 1.045 14.719 3.15 23.955 7.749.308 17.787-.183 27.948-3.803-2.015-6.558-3.184-13.598-3.825-20.048-7.44.018-18.65.103-27.273-.104z" fill="#e9459c"/><path d="m345.097 269.499c-2.172 7.993-3.308 16.79-3.523 25.282 6.049-.256 15.172.139 27.401 4.126.271-6.169 1.303-12.458 2.98-18.574-6.726-5.094-16.985-11.251-26.858-10.834z" fill="#e8449b"/><path d="m432.551 254.963c-1.328-9.344-3.877-16.1-5.657-19.534-5.662-.335-13.095-.541-21.124-.235 4.005 5.742 5.857 13.511 6.683 19.39 8.121-.482 15.263.001 20.098.379z" fill="#e8449b"/><path d="m355.575 265.204 3.845-.109c.497-.015.944-.283 1.186-.717.825-1.48 2.998-5.081 6.241-8.325l3.155-3.154c.962-.963.138-2.595-1.207-2.39-1.132.172-2.429.508-3.751 1.135-3.366 1.594-7.827 6.163-10.755 11.492-.52.946.207 2.099 1.286 2.068z" fill="#eefcff"/></g></svg>