<svg fill="none" height="80" viewBox="0 0 80 80" width="80" xmlns="http://www.w3.org/2000/svg" xmlns:xlink="http://www.w3.org/1999/xlink"><linearGradient id="a" gradientUnits="userSpaceOnUse" x1="77.9641" x2="-2.89928" y1="-.000033" y2="3.04656"><stop offset=".155516" stop-color="#007cc2"/><stop offset=".523438" stop-color="#1776cf"/><stop offset="1" stop-color="#5865f2"/></linearGradient><rect fill="url(#a)" height="80" rx="4" width="80"/><g fill="#fff"><path clip-rule="evenodd" d="m15.525 35.3c.5129.0068 1.0079-.1889 1.3776-.5445.3696-.3557.5843-.8427.5974-1.3555-.0129-.5108-.2233-.9967-.5869-1.3556-.3636-.359-.8522-.5631-1.3631-.5694h-1.1c-.5109.0063-.9995.2104-1.3631.5694-.3636.3589-.574.8448-.5869 1.3556.013.5085.2242.9917.5885 1.3467.3643.3549.8529.5535 1.3615.5533zm40.325 23.175c2.3565-.998 4.4871-2.4619 6.264-4.3036 1.7769-1.8418 3.1633-4.0235 4.0762-6.4143s1.3334-4.9414 1.2363-7.4987c-.0971-2.5574-.7099-5.0687-1.8015-7.3834-1.5627-3.2307-3.9751-5.9753-6.9787-7.9395s-6.4851-3.074-10.0713-3.2105h-20c-.4119-.0379-.8272.0106-1.2193.1422-.3922.1317-.7525.3437-1.0581.6225s-.5497.6182-.7168.9966c-.167.3785-.2532.7876-.2532 1.2012 0 .4137.0862.8228.2532 1.2012.1671.3784.4112.7179.7168.9967s.6659.4907 1.0581.6224c.3921.1317.8074.1801 1.2193.1422h5.075c.2695-.0308.5425-.0044.8011.0776.2586.0821.4969.2178.6993.3984.2025.1806.3645.4019.4754.6495.1109.2475.1682.5157.1682.787s-.0573.5395-.1682.7871c-.1109.2475-.2729.4689-.4754.6495-.2024.1805-.4407.3163-.6993.3983s-.5316.1085-.8011.0776h-12.625c-.5129 0-1.0051.202-1.3701.5623s-.5733.8499-.5799 1.3627c.0033.2528.0563.5025.1561.7348.0997.2323.2443.4427.4254.6191.181.1765.3951.3155.6299.4092s.4858.1402.7386.1369h8.975c.2528 0 .5031.0498.7367.1466.2335.0967.4457.2385.6245.4172.1787.1788.3205.391.4173.6246.0967.2335.1465.4838.1465.7366s-.0498.5031-.1465.7367c-.0968.2335-.2386.4458-.4173.6245-.1788.1788-.391.3206-.6245.4173-.2336.0967-.4839.1465-.7367.1465h-5.6c-.2528-.0033-.5038.0432-.7386.1369s-.4489.2328-.6299.4092c-.1811.1765-.3257.3868-.4254.6191-.0998.2323-.1528.482-.1561.7348.0066.5129.2149 1.0024.5799 1.3628.365.3603.8572.5623 1.3701.5622h3.9c.2274 2.113.8018 4.174 1.7 6.1 2.2558 4.6065 6.2093 8.1594 11.0296 9.9123 4.8204 1.7528 10.1326 1.5692 14.8204-.5123zm-18.175-12.975c-.6148-1.3133-.9601-2.7365-1.0155-4.1855-.0553-1.4491.1803-2.8945.693-4.2509.5128-1.3564 1.2922-2.5963 2.2922-3.6463 1.0001-1.0501 2.2005-1.889 3.5303-2.4673 2.6855-1.2245 5.7446-1.3447 8.5178-.3345 2.7733 1.0101 5.0384 3.0697 6.3072 5.7345.6113 1.3139.9538 2.7367 1.0074 4.1848.0537 1.4481-.1827 2.8923-.695 4.2478-.5124 1.3555-1.2905 2.5949-2.2887 3.6455-.9981 1.0505-2.1962 1.8909-3.5237 2.4719-2.6864 1.2179-5.743 1.3346-8.5144.3251s-5.0369-3.0647-6.3106-5.7251z" fill-rule="evenodd"/><path d="m51.45 34.325h-7.175c-.1194-.0015-.2373.0276-.3423.0844-.105.0569-.1937.1397-.2577.2406l-3.675 6c-.0613.111-.0934.2357-.0934.3625s.0321.2515.0934.3625l3.675 6.125c.0589.1072.1458.1965.2515.2581.1057.0617.2262.0934.3485.0919h7.175c.1223.0015.2428-.0302.3485-.0919.1057-.0616.1926-.1509.2515-.2581l3.575-6c.0613-.111.0934-.2357.0934-.3625s-.0321-.2515-.0934-.3625l-3.575-6c-.047-.1242-.1284-.2324-.2346-.3121-.1063-.0797-.233-.1275-.3654-.1379z"/></g></svg>