<svg fill="none" height="23" viewBox="0 0 32 23" width="32" xmlns="http://www.w3.org/2000/svg" xmlns:xlink="http://www.w3.org/1999/xlink"><clipPath id="a"><path d="m.241455.606445h31.1289v21.42h-31.1289z"/></clipPath><g clip-path="url(#a)"><path d="m27.2271 5.59041h1.3811c.733 0 1.4353.29045 1.9527.8075.5184.51705.8095 1.21828.8095 1.94953v2.12076c0 .7313-.2911 1.4325-.8095 1.9496-.5174.517-1.2197.8075-1.9527.8075h-1.3811v-7.74092z" fill="#aabff2"/><path d="m28.7139 7.71094h-.7437c-.7628 0-1.3811.61715-1.3811 1.37852v.79529c0 .76135.6183 1.37855 1.3811 1.37855h.7437c.7628 0 1.3812-.6172 1.3812-1.37855v-.79529c0-.76137-.6184-1.37852-1.3812-1.37852z" fill="#7d94df"/><path d="m4.38485 13.1196h-1.38113c-.73306 0-1.43531-.2904-1.9527-.8075-.518456-.517-.809565-1.2182-.809565-1.9495v-2.01475c0-.73125.291109-1.43248.809565-1.94953.51739-.51705 1.21964-.8075 1.9527-.8075h1.38113v7.42278z" fill="#aabff2"/><path d="m3.64114 7.81738h-.63745c-.76281 0-1.38113.61716-1.38113 1.37852v.62563c0 .76137.61832 1.37847 1.38113 1.37847h.63745c.76281 0 1.38112-.6171 1.38112-1.37847v-.62563c0-.76136-.61831-1.37852-1.38112-1.37852z" fill="#7d94df"/><path d="m23.4021 2.30273h-14.97991c-2.9928 0-5.41828 2.42131-5.41828 5.40802v6.77595c0 2.9868 2.42548 5.408 5.41828 5.408h14.97991c2.9928 0 5.4183-2.4212 5.4183-5.408v-6.77595c0-2.98671-2.4255-5.40802-5.4183-5.40802z" fill="#aabff2"/><path d="m19.2586 11.8467h-6.6931c-.7628 0-1.3812.6053-1.3812 1.352s.6184 1.352 1.3812 1.352h6.6931c.7628 0 1.3812-.6053 1.3812-1.352s-.6184-1.352-1.3812-1.352z" fill="#697ec4"/><path d="m5.87254 7.92333h-.21248c-.09137-.03213-.1753-.08483-.24329-.15397-.068-.06924-.12005-.15312-.15086-.24516-.03081-.09215-.03931-.19013-.02656-.28631.01275-.09628.0478-.18822.10199-.26891.2146-.43816.54714-.80855.95935-1.07058.41221-.26192.88923-.40518 1.37794-.41398.31872-.10604.63745.21208.63745.63624 0 .42415-.21249.63623-.63745.63623-.24754.03945-.48339.1369-.68631.2844-.20292.1474-.36865.3406-.48233.56392-.06268.11039-.15617.19957-.26985.2563-.11368.05662-.24117.07815-.3676.06182z" fill="#36393e"/><path d="m26.0583 7.71113h.3188c.0754-.05174.1381-.11897.1848-.19712.0468-.07815.0765-.16543.0861-.25588.0106-.09045.0011-.18206-.0276-.26849-.0287-.08653-.0755-.16595-.1371-.23286-.323-.37411-.7373-.65861-1.2026-.82583-.4654-.16723-.9658-.21145-1.4534-.12852-.0839.01283-.1647.0423-.238.08684-.0722.04453-.1349.10318-.1848.17232-.0489.06924-.084.1476-.1031.23063-.0191.08292-.0202.16881-.0053.25248.1062.31812.425.63624.7437.5302.2571-.05143.5227-.02895.7681.0649.2443.09384.4568.25523.613.4653.0797.08515.1859.14177.3007.16086.1158.01919.2337-.00011.3367-.05483z" fill="#36393e"/><path d="m11.8211.606445h8.1805c.733 0 1.4353.29044 1.9527.807485.5184.51705.8095 1.21829.8095 1.94954v.63624c0 1.43429-.5705 2.80984-1.5872 3.824-1.0157 1.01427-2.3936 1.58402-3.831 1.58402h-2.7623c-.7118 0-1.4162-.13987-2.0738-.41165-.6566-.27178-1.2547-.67017-1.7572-1.17237-.5036-.5021-.90201-1.09836-1.17505-1.75443-.27197-.65617-.41221-1.35942-.41221-2.06957v-.63624c0-.73125.29109-1.43249.80955-1.94954.51741-.517045 1.21961-.807485 1.95271-.807485z" fill="#cbdaf7"/><path d="m18.7269 5.37793h-1.4874c-.3517 0-.6374.28482-.6374.63624v.08483c0 .35141.2857.63623.6374.63623h1.4874c.3516 0 .6374-.28482.6374-.63623v-.08483c0-.35142-.2858-.63624-.6374-.63624z" fill="#aabff2"/><path d="m14.4778 5.37793h-1.4873c-.3517 0-.6375.28482-.6375.63624v.08483c0 .35141.2858.63623.6375.63623h1.4873c.3517 0 .6375-.28482.6375-.63623v-.08483c0-.35142-.2858-.63624-.6375-.63624z" fill="#aabff2"/><path d="m13.2029 11.8467h5.4183l2.656 8.8013h-10.8365z" fill="#ffcd3e"/><path d="m10.7599 22.0263h10.0929c.5864 0 1.0624-.4534 1.0624-1.0127 0-.5592-.476-1.0126-1.0624-1.0126h-10.0929c-.5864 0-1.06239.4534-1.06239 1.0126 0 .5593.47599 1.0127 1.06239 1.0127z" fill="#f69100"/><g fill="#ff6440"><path d="m19.1516 17.467c1.1145 0 2.0186-.9021 2.0186-2.0147 0-1.1127-.9041-2.0148-2.0186-2.0148-1.1144 0-2.0185.9021-2.0185 2.0148 0 1.1126.9041 2.0147 2.0185 2.0147z"/><path d="m12.0337 18.7395c1.1145 0 2.0186-.902 2.0186-2.0148 0-1.1127-.9041-2.0147-2.0186-2.0147s-2.0186.902-2.0186 2.0147c0 1.1128.9041 2.0148 2.0186 2.0148z"/><path d="m15.0095 13.8615c1.1145 0 2.0186-.902 2.0186-2.0147s-.9041-2.01477-2.0186-2.01477c-1.1144 0-2.0185.90207-2.0185 2.01477s.9041 2.0147 2.0185 2.0147z"/></g><path d="m10.7593 17.2549h-2.44349c-1.29083 0-2.33729 1.0445-2.33729 2.3329v.0954c0 1.2884 1.04646 2.3329 2.33729 2.3329h2.44349c1.2909 0 2.3373-1.0445 2.3373-2.3329v-.0954c0-1.2884-1.0464-2.3329-2.3373-2.3329z" fill="#cbdaf7"/><path d="m23.8262 17.2549h-2.4435c-1.2908 0-2.3373 1.0445-2.3373 2.3329v.0954c0 1.2884 1.0465 2.3329 2.3373 2.3329h2.4435c1.2909 0 2.3373-1.0445 2.3373-2.3329v-.0954c0-1.2884-1.0464-2.3329-2.3373-2.3329z" fill="#cbdaf7"/></g></svg>