<svg width="180" height="180" viewBox="0 0 180 180" fill="none" xmlns="http://www.w3.org/2000/svg">
<path d="M46.3901 96.96C46.3901 96.96 27.4101 94.77 24.3101 107.91C21.2101 121.05 23.0301 139.66 36.1701 140.39C49.3101 141.12 61.1701 138.2 61.1701 138.2L71.9301 96.83L46.3901 96.96Z" fill="#9BADF8"/>
<path d="M59.9443 140.332C61.3113 137.247 59.5991 133.496 56.12 131.955C52.6408 130.413 48.7123 131.665 47.3453 134.75C45.9783 137.835 47.6905 141.586 51.1696 143.127C54.6488 144.669 58.5773 143.417 59.9443 140.332Z" fill="#D7D9F2"/>
<path d="M55.8698 135.85C55.8698 135.85 54.7098 140.49 58.1798 142.52C61.6498 144.55 60.7998 135.99 60.7998 135.99" fill="#5C65DF"/>
<path d="M82.3302 103.99C82.3302 103.99 79.7802 112.57 75.7602 121.05C71.7502 129.53 63.0802 140.85 54.3202 135.01C45.5602 129.17 54.3202 116.22 62.5302 109.01C70.7402 101.8 75.8502 97.52 75.8502 97.52" fill="#3043E0"/>
<path d="M60.6703 110.74C60.6703 110.74 60.4403 115.85 62.8103 119.77L58.4203 124.42C58.4203 124.42 57.2903 127.19 59.2303 132.69C59.2303 132.69 56.5003 131.84 55.2803 135.57C55.2803 135.57 56.3903 136.21 58.4203 136.61C60.4503 137.01 69.0003 127.7 69.0003 127.7L70.9903 115.02" fill="#252147"/>
<path d="M81.1496 122.01C81.1496 122.01 85.0696 123.87 83.9796 129.89C82.8896 135.91 76.4996 137.01 69.1996 135.18C61.8996 133.36 56.7896 127.44 58.8896 122.01C60.9896 116.57 69.0196 117.38 73.4896 118.66C77.9496 119.95 81.1496 122.01 81.1496 122.01Z" fill="#9BADF8"/>
<path d="M76.2598 100.51C76.2598 100.51 80.1098 103.83 79.0298 106.92L82.3398 107.48L83.7098 103.53" fill="#252147"/>
<path d="M85.5298 108.37C85.5298 108.37 72.6698 103.81 70.3898 110.29C68.1098 116.77 71.9398 120.51 77.9598 121.69C83.9798 122.87 88.4498 120.78 90.3698 116.4C92.2898 112.02 89.4598 106.73 85.4398 105.18L82.3398 103.99L80.3498 110.1" fill="#9BADF8"/>
<path d="M86.2199 110.2C86.0199 110.2 85.8299 110.16 85.6399 110.08C85.5999 110.06 81.1399 108.21 76.5199 108.32C75.6799 108.34 74.9999 107.68 74.9799 106.86C74.9599 106.03 75.6199 105.34 76.4399 105.32C81.7599 105.2 86.5999 107.24 86.7999 107.32C87.5599 107.64 87.9199 108.52 87.5899 109.29C87.3599 109.86 86.8099 110.2 86.2199 110.2Z" fill="#5C65DF"/>
<path d="M89.8508 104.441C91.1052 102.463 88.3303 98.4546 83.6528 95.4871C78.9753 92.5197 74.1665 91.717 72.912 93.6943C71.6576 95.6717 74.4325 99.6802 79.11 102.648C83.7875 105.615 88.5963 106.418 89.8508 104.441Z" fill="#D7D9F2"/>
<mask id="mask0_4394_319079" style="mask-type:luminance" maskUnits="userSpaceOnUse" x="72" y="92" width="19" height="14">
<path d="M89.8508 104.441C91.1052 102.463 88.3303 98.4546 83.6528 95.4871C78.9753 92.5197 74.1665 91.717 72.912 93.6943C71.6576 95.6717 74.4325 99.6802 79.11 102.648C83.7875 105.615 88.5963 106.418 89.8508 104.441Z" fill="white"/>
</mask>
<g mask="url(#mask0_4394_319079)">
<path fill-rule="evenodd" clip-rule="evenodd" d="M81.5898 96.1899C81.5898 96.1899 89.6398 101.71 89.8498 104.44C89.8498 104.44 91.3998 102.26 89.1798 99.3299C86.9598 96.4099 81.5898 96.1899 81.5898 96.1899Z" fill="#9BADF8"/>
</g>
<path fill-rule="evenodd" clip-rule="evenodd" d="M128.411 136.45C129.531 139.35 132.801 140.8 135.701 139.67L148.851 134.58C151.751 133.46 153.201 130.19 152.071 127.29L146.981 114.14C145.861 111.24 142.591 109.79 139.691 110.92L126.541 116.01C123.641 117.13 122.191 120.4 123.321 123.3L128.411 136.45Z" fill="#00F479"/>
<path fill-rule="evenodd" clip-rule="evenodd" d="M136.27 95.24C134.07 98.07 135.71 102.23 139.24 102.8L151.51 104.79C155.05 105.36 157.91 101.94 156.72 98.56L152.41 86.32C151.17 82.79 146.52 82.04 144.22 84.99L136.27 95.24Z" fill="white"/>
<path fill-rule="evenodd" clip-rule="evenodd" d="M135.09 62.44C137.1 63.05 138.17 65.68 137.62 68.22L136.52 73.25C136.32 74.15 136.37 75.04 136.65 75.76L137.99 79.27C138.56 80.75 137.85 82.72 136.43 83.76L133.36 86.02C132.77 86.45 132.3 87.05 132.02 87.69L130.64 90.95C130.03 92.4 128.35 93.44 126.82 93.31L123.25 93.01C122.52 92.95 121.73 93.1 121.01 93.46L117.11 95.36C115.23 96.28 112.83 95.98 111.72 94.61L109.08 91.33C108.53 90.65 107.66 90.1 106.59 89.8L100.4 88.05C97.1302 87.12 95.0402 84.42 96.0102 82.01L98.2002 76.58C98.6402 75.5 98.5502 74.21 97.9202 72.88L94.2602 65.09C92.2902 60.88 94.2502 57.24 98.5902 57.34L107.04 57.54C108.53 57.57 109.8 57.03 110.66 56L115.26 50.49C117.44 47.88 121.27 48.87 123.56 52.39L127.77 58.87C128.48 59.96 129.4 60.71 130.37 61L135.09 62.44Z" fill="#D298FF"/>
<path fill-rule="evenodd" clip-rule="evenodd" d="M120.78 105.53C120.35 101.47 115.09 100.13 112.77 103.5L109.75 107.89C108.55 109.63 106.65 110.77 104.54 110.99L99.2396 111.55C95.1796 111.98 93.8396 117.24 97.2096 119.56L101.6 122.58C103.34 123.78 104.48 125.68 104.7 127.79L105.26 133.09C105.69 137.15 110.95 138.49 113.27 135.12L116.29 130.73C117.49 128.99 119.39 127.85 121.5 127.63L126.8 127.07C130.86 126.64 132.2 121.38 128.83 119.06L124.44 116.04C122.7 114.84 121.56 112.94 121.34 110.83L120.78 105.53Z" fill="#FFE535"/>
<path fill-rule="evenodd" clip-rule="evenodd" d="M92.5497 100.51C89.0197 100.35 85.8397 99.3 83.1197 97.4C72.0297 89.65 72.7297 70.24 84.7097 53.22C93.4497 40.8 105.9 33.09 116.42 33.58C119.95 33.74 123.13 34.79 125.85 36.69C131.66 40.76 134.43 47.96 133.64 56.97C132.96 64.75 129.63 73.24 124.26 80.87C115.51 93.29 103.07 101 92.5497 100.51Z" fill="url(#paint0_linear_4394_319079)"/>
<path d="M118.121 76.545C127.648 61.5286 128.324 44.8847 119.631 39.3699C110.939 33.8551 96.1688 41.5577 86.6421 56.5741C77.1155 71.5906 76.4394 88.2344 85.1322 93.7492C93.8249 99.2641 108.595 91.5615 118.121 76.545Z" fill="#606EEC"/>
<path fill-rule="evenodd" clip-rule="evenodd" d="M118.11 76.54C122.59 69.47 125.12 62.05 125.63 55.59L123.55 52.39C121.26 48.87 117.44 47.88 115.25 50.49L110.65 56C109.79 57.03 108.52 57.57 107.03 57.54L98.5804 57.34C94.2404 57.24 92.2804 60.88 94.2504 65.09L97.9104 72.88C98.5304 74.2 98.6204 75.5 98.1904 76.58L96.0004 82.01C95.0304 84.42 97.1204 87.12 100.39 88.05L106.23 89.7C110.51 86.46 114.66 81.99 118.11 76.54Z" fill="#D298FF"/>
<path fill-rule="evenodd" clip-rule="evenodd" d="M91.1698 59.16C99.7198 45.68 112.49 38.1 121.3 40.67C120.79 40.19 120.24 39.75 119.63 39.36C110.94 33.85 96.1698 41.55 86.6398 56.57C77.1098 71.59 76.4299 88.23 85.1199 93.75C86.0099 94.32 86.9699 94.73 87.9799 95.03C81.0999 88.52 82.2998 73.14 91.1698 59.16Z" fill="black"/>
<path fill-rule="evenodd" clip-rule="evenodd" d="M105.24 56.19C105.24 56.19 107.59 53.27 109.59 51.08C111.59 48.89 111.96 47.34 110.77 46.88C109.58 46.42 105.02 48.89 101.56 52.72C98.1005 56.55 96.5405 62.21 98.0005 63.3C99.4605 64.39 105.24 56.19 105.24 56.19Z" fill="white"/>
<path fill-rule="evenodd" clip-rule="evenodd" d="M102.38 83.46C102.38 83.46 97.8405 87.02 95.2005 88.3C92.5505 89.58 93.1005 91.77 96.4805 91.04C99.8605 90.31 106.411 84.84 106.371 83.47C106.331 82.09 104.97 81.53 102.38 83.46Z" fill="white"/>
<path d="M74.4896 134.18L68.3796 132.17C65.8296 130.8 59.7096 130.71 57.9796 134.18C56.2496 137.65 57.7996 143.76 64.3696 145.77C70.9396 147.78 74.8596 145.13 76.1396 140.5C77.4096 135.88 74.4896 134.18 74.4896 134.18Z" fill="#9BADF8"/>
<path d="M81.1503 123.51C81.1003 123.51 81.0603 123.51 81.0103 123.5C80.6103 123.46 71.1603 122.57 64.8303 119.02C64.1103 118.62 63.8503 117.7 64.2503 116.98C64.6503 116.26 65.5703 116 66.2903 116.4C72.0603 119.63 81.1903 120.5 81.2803 120.51C82.1103 120.59 82.7103 121.32 82.6403 122.14C82.5703 122.93 81.9203 123.51 81.1503 123.51Z" fill="#5C65DF"/>
<path d="M75.9697 137.46C75.9397 137.46 75.9097 137.46 75.8797 137.46C75.5197 137.44 67.1097 136.91 61.1497 132.73C60.4697 132.25 60.3097 131.32 60.7797 130.64C61.2497 129.96 62.1897 129.8 62.8697 130.27C68.1197 133.95 75.9797 134.46 76.0497 134.46C76.8797 134.51 77.5097 135.22 77.4597 136.05C77.4197 136.85 76.7597 137.46 75.9697 137.46Z" fill="#5C65DF"/>
<mask id="mask1_4394_319079" style="mask-type:luminance" maskUnits="userSpaceOnUse" x="69" y="103" width="22" height="20">
<path d="M80.3498 110.1L82.3398 103.99L85.4398 105.18C89.4498 106.73 92.2798 112.02 90.3698 116.4C88.4498 120.78 83.9798 122.88 77.9598 121.69C71.9398 120.5 68.1098 116.76 70.3898 110.29C72.6698 103.81 85.5298 108.37 85.5298 108.37" fill="white"/>
</mask>
<g mask="url(#mask1_4394_319079)">
<path d="M72.3902 103.53L70.6602 118.67C79.6902 120.16 81.2602 107.3 81.2602 107.3L72.3902 103.53Z" fill="#5C65DF"/>
</g>
<path d="M46.3896 96.96C46.3896 96.96 52.7797 82.91 62.9897 83.09C73.2097 83.27 75.9396 91.67 76.3096 101.7C76.6696 111.73 77.2197 118.28 70.6497 118.66C64.0797 119.04 60.7996 114.47 60.2496 108.09C59.6996 101.71 59.6996 101.7 59.6996 101.7L46.3896 96.96Z" fill="#9BADF8"/>
<path d="M60.6699 112.24C59.9099 112.24 59.2599 111.67 59.1799 110.9L58.2199 101.87C58.1299 101.05 58.7299 100.31 59.5499 100.22C60.3699 100.13 61.1099 100.73 61.1999 101.55L62.1599 110.58C62.2499 111.4 61.6499 112.14 60.8299 112.23C60.7699 112.23 60.7199 112.24 60.6699 112.24Z" fill="#5C65DF"/>
<defs>
<linearGradient id="paint0_linear_4394_319079" x1="122.998" y1="34.9722" x2="85.9654" y2="99.1143" gradientUnits="userSpaceOnUse">
<stop stop-color="#ADBFFE"/>
<stop offset="0.4843" stop-color="#E6EBFF"/>
<stop offset="0.7431" stop-color="white"/>
</linearGradient>
</defs>
</svg>
