<svg fill="none" height="334" viewBox="0 0 318 334" width="318" xmlns="http://www.w3.org/2000/svg" xmlns:xlink="http://www.w3.org/1999/xlink"><clipPath id="a"><path d="m0 0h318v334h-318z"/></clipPath><clipPath id="b"><path d="m0 8h427v224h-427z"/></clipPath><g clip-path="url(#a)"><g clip-path="url(#b)" fill="#fff"><path d="m427 232h-148c0-12.976 11.096-23.39 24.923-23.39h26.971c2.39 0 4.267-1.708 4.267-4.098 0-15.707 13.486-28.512 30.215-28.512h1.195c16.729 0 30.214 12.805 30.214 28.512v8.537c.171 4.61 4.097 8.195 8.706 8.195h9.901c6.145-.342 11.437 4.61 11.608 10.756z" opacity=".2"/><path d="m288 133h85c-.133-8.317-7.039-15.075-15.672-15.075h-9.031c-1.461 0-2.656-1.17-2.656-2.599-.133-10.137-8.633-18.3245-18.993-18.3245h-.796c-10.36-.1299-18.86 8.0575-18.993 18.3245v5.458c0 2.859-2.523 5.198-5.445 5.198h-6.242c-3.852 0-7.039 3.119-7.172 7.018z" opacity=".4"/><path d="m31.5321 69.0827c0-4.4173-3.2002-8.0827-7.1535-8.0827h-7.436c-3.9532 0-7.15352 3.5714-7.15352 8.0827 0 .8459-.56475 1.5978-1.41189 1.5978h-2.25901c-3.38853 0-6.11818 3.1015-6.11818 6.8609h41.4153c0-3.0075-2.1648-5.5451-4.8945-5.5451h-2.259c-1.6002 0-2.8238-1.3158-2.7297-2.9136z" opacity=".2"/><path d="m263.341 167.17c0-7.744-5.718-14.17-12.782-14.17h-13.286c-7.064 0-12.782 6.261-12.782 14.17 0 1.483-1.009 2.802-2.523 2.802h-4.036c-6.055 0-10.932 5.437-10.932 12.028h74c0-5.273-3.868-9.722-8.745-9.722h-4.037c-2.859 0-5.045-2.306-4.877-5.108z" opacity=".1"/><path d="m151.415 141.703h-41.415c.094-3.76 3.2-6.673 6.965-6.579h7.53c.659 0 1.224-.47 1.224-1.128.094-4.511 3.953-8.083 8.471-7.989h.377c4.518-.188 8.283 3.384 8.471 7.989v2.349c0 1.316 1.13 2.35 2.447 2.256h2.73c1.694-.094 3.106 1.222 3.2 3.102 0-.094 0-.094 0 0z" opacity=".2"/><path d="m51.4154 171.703h-41.4154c.0941-3.76 3.2003-6.673 6.9653-6.579h7.5301c.6589 0 1.2236-.47 1.2236-1.128.0941-4.511 3.9533-8.083 8.4713-7.989h.3765c4.5181-.188 8.2831 3.384 8.4714 7.989v2.349c0 1.316 1.1295 2.35 2.4472 2.256h2.7297c1.6942-.094 3.1061 1.222 3.2003 3.102 0-.094 0-.094 0 0z" opacity=".1"/><path d="m263 56h-133c0-11.1219 9.971-20.0488 22.397-20.0488h24.237c2.148 0 3.835-1.4634 3.835-3.5122 0-13.4634 12.119-24.439 27.153-24.439h1.073c15.034 0 27.153 10.9756 27.153 24.439v7.3171c.153 3.9512 3.681 7.0244 7.823 7.0244h8.898c5.522-.2927 10.278 3.9512 10.431 9.2195z" opacity=".1"/></g><g clip-rule="evenodd" fill-rule="evenodd"><path d="m148.677 94.7545 85.953-31.4606-14.419 28.2503c-2.804 5.5377-7.61 9.7918-13.378 11.8778l-68.41 25.121-2.403-6.501z" fill="#dae2ed"/><path d="m128.976 91.864 114.23-41.8137c.48-.1605.961.0802 1.121.4815.08.2408.08.4816 0 .6421l-4.405 8.9085c-.481 1.0433-1.362 1.7656-2.404 2.1669l-2.803 1.0433-86.033 31.4606-12.657 27.2868 2.323 6.501 1.762 4.896-28.758 10.514-4.165-11.397 16.822-36.1956c1.041-2.0867 2.804-3.6918 4.967-4.4944z" fill="#eceff6"/><path d="m136.099 122.042 12.657-27.2875 85.953-31.4606-2.884 5.6982-80.025 29.2937-11.695 25.2812 1.442 3.852-3.044 1.043z" fill="#c5cedd"/><path d="m103.979 119.712c-12.9767 27.528-1.281 60.353 26.195 73.435s60.239 1.284 73.296-26.244 1.282-60.353-26.194-73.4349c-27.557-12.841-60.24-1.1236-73.297 26.2439z" fill="#4f5d7f"/><path d="m121.361 128.057c-8.411 17.897-.801 39.246 17.062 47.672 17.864 8.427 39.172.803 47.583-17.094s.801-39.246-17.063-47.673c-17.783-8.346-39.011-.722-47.582 17.095z" fill="#7687b2"/><path d="m116.957 99.7265c-.08 8.4265 22.029 29.0525 36.528 40.4495 13.378.08 46.541-1.284 54.312-8.909.721-.642 1.201-1.525 1.281-2.488 0-.321-.08-.642-.16-.963-4.646-16.613-15.54-29.6947-30.6-36.8375-18.985-9.069-41.575-6.5008-60.48 6.8218-.56.4013-.881 1.1236-.881 1.9262z" fill="#ff7f14"/><path d="m152.523 142.987s52.87-31.782 47.503-38.363c-5.528-6.8214-12.577-12.3591-20.507-16.1312-21.388-10.1926-45.02-5.7785-63.203 7.0626-12.817 9.0686 36.207 47.4316 36.207 47.4316z" fill="#ff903e"/><path d="m126.331 130.389c-7.13 15.169-.721 33.226 14.419 40.369 15.139 7.143 33.163.722 40.293-14.446 7.129-15.169.72-33.226-14.419-40.369-15.14-7.063-33.084-.642-40.293 14.446z" fill="#ebeff7"/><path d="m130.733 132.474c-6.007 12.76-.56 27.929 12.096 33.948 12.657 6.019 27.877.562 33.885-12.119 6.008-12.68.561-27.929-12.096-33.948-12.737-6.019-27.877-.562-33.885 12.119z" fill="#dae2ed"/><path d="m168.865 132.554-13.778-8.266c-.882-.482-1.923-.482-2.724 0l-14.018 7.865c-.882.481-1.442 1.444-1.442 2.408l-.161 16.131c0 .963.481 1.926 1.362 2.408l13.778 8.266c.882.482 1.923.482 2.724 0l14.018-7.945c.882-.482 1.442-1.445 1.442-2.408l.16-16.131c0-.883-.56-1.846-1.361-2.328z" fill="#c5cedd"/><path d="m145.715 139.616c-2.083 4.414-.16 9.63 4.245 11.717 4.406 2.087 9.613.161 11.696-4.254 2.082-4.414.16-9.63-4.166-11.717-4.406-2.006-9.692-.161-11.775 4.254z" fill="#b7c2ce"/><path d="m85.077 195.476h4.8064c1.2015 0 2.2429.963 2.2429 2.247v10.032c-.0801 2.729 2.0027 5.056 4.8063 5.217 2.8037.16 5.0464-2.006 5.2064-4.815 0-.161 0-.241 0-.402v-42.215c0-3.049-2.4027-5.618-5.5268-5.618 0 0 0 0-.0801 0h-16.9823c-3.044 0-5.5273 2.488-5.5273 5.538v.08 18.78c-.0801 6.18 4.8864 11.156 11.0545 11.156zm-11.5351-53.371h9.6126v10.594h-9.4524c.0801-3.451.0801-7.062-.1602-10.594z" fill="#7196ff"/><path d="m76.9828 165.219h40.5332c.481 0 .881-.401.881-.882 0-.482-.4-.883-.881-.883h-40.5332c-.4806 0-.8811-.402-.8811-.883v-6.501c0-.481-.4006-.883-.8812-.883s-.8811.402-.8811.883v6.501c.0801 1.445 1.2015 2.648 2.6434 2.648z" fill="#e4e9f7"/><path d="m72.2595 160.003h6.0079c.4806 0 .8811-.401.8811-.882v-18.62c0-.481-.4005-.883-.8811-.883h-6.0079c-.4807 0-.8812.402-.8812.883v18.62c0 .481.3204.882.8812.882-.0801 0-.0801 0 0 0z" fill="#000"/><path d="m73.6206 142.105h-3.5246c-.4806 0-.8812.402-.8812.883v8.909c0 .481.4006.882.8812.882h3.2843c2.6435 0 4.8864-1.845 5.3671-4.414.4806-2.889-1.4419-5.618-4.3257-6.179-.2403 0-.5608-.081-.8011-.081z" fill="#7196ff"/><path d="m92.0458 160.003h6.0079c.4807 0 .8812-.401.8812-.882v-18.62c0-.481-.4005-.883-.8812-.883h-6.0079c-.4806 0-.8811.402-.8811.883v18.62c0 .481.4005.882.8811.882z" fill="#000"/><path d="m78.6691 146.198c4.566-6.26 11.8556-10.032 19.6258-10.032h32.8431c8.011.081 14.499 6.581 14.499 14.687v26.967c0 5.377-4.326 9.791-9.693 9.791h-47.3418c-8.0907-.08-14.5792-6.581-14.5792-14.687v-12.279c-.0801-5.217 1.6021-10.273 4.6461-14.447z" fill="#aec7ff"/><path d="m121.205 136.166h9.853c8.091.081 14.579 6.581 14.579 14.687v23.435c0 5.377-4.326 9.792-9.693 9.792h-14.819c.24-15.891.24-31.943.08-47.914zm31.241 34.912 10.254 3.05c3.925 1.123 6.168 5.136 5.046 9.069-1.121 3.932-5.127 6.18-9.052 5.056-2.483-.722-4.405-2.568-5.046-5.056l-3.044-10.273c-.241-.722.16-1.605.881-1.846.32-.08.641-.08.961 0z" fill="#7196ff"/><path d="m128.653 195.477h4.806c1.202 0 2.243.963 2.243 2.247v10.032c-.08 2.729 2.003 5.056 4.806 5.217 2.724.08 5.047-2.007 5.207-4.816 0-.16 0-.241 0-.401v-50.08c0-3.05-2.483-5.618-5.527-5.618h-16.983c-3.044 0-5.527 2.568-5.527 5.618v26.645c-.16 6.18 4.807 11.156 10.975 11.156z" fill="#7196ff"/><path d="m96.8484 165.217h40.5336c.48 0 .881-.401.881-.882 0-.482-.401-.883-.881-.883h-40.5336c-.4806 0-.8811-.401-.8811-.883v-6.501c.0801-.481-.3205-.883-.8011-.963s-.8811.321-.9612.803v.16 6.501c0 1.445 1.2015 2.568 2.6434 2.648z" fill="#e4e9f7"/><path d="m92.0458 160.003h6.0079c.4807 0 .8812-.401.8812-.882v-18.62c0-.481-.4005-.883-.8812-.883h-6.0079c-.4806 0-.8811.402-.8811.883v18.62c0 .481.4005.882.8811.882z" fill="#000"/><path d="m91.8044 142.105h19.7856c3.285 0 5.928-2.648 5.928-5.939h12.417v25.843h-12.337c-1.121-6.501-6.809-9.31-13.618-9.31h-12.0154c-2.6435 0-4.8864-1.846-5.3671-4.414-.4806-2.889 1.4419-5.618 4.3257-6.18.2403.081.5608 0 .8812 0z" fill="#7196ff"/><path d="m137.304 136.487h-45.1796c-8.0907 0-14.6593-6.581-14.6593-14.687v-27.2873c.0801-8.1059 6.5686-14.687 14.6593-14.687h45.1796c8.09 0 14.579 6.5811 14.659 14.687v27.2873c-.08 8.106-6.569 14.687-14.659 14.687z" fill="#80a7ff"/><path d="m127.772 136.485h-45.1792c-8.0907 0-14.6593-6.581-14.6593-14.767v-27.2871c.0801-8.106 6.5686-14.6067 14.6593-14.687h45.1792c8.091 0 14.659 6.581 14.659 14.687v27.2871c0 8.186-6.568 14.767-14.659 14.767z" fill="#9cb8ff"/><path d="m147.557 118.43h-10.815v-26.4849h10.815c5.367 0 9.773 4.4141 9.773 9.7909v6.903c0 5.377-4.406 9.791-9.773 9.791z" fill="#9cb8ff"/><path d="m136.742 112.49v-14.6866c0-.5618.401-.9631.962-.9631h9.773c2.723 0 4.886 2.167 4.886 4.8957v6.902c0 2.729-2.163 4.896-4.886 4.896h-9.773c-.481 0-.962-.482-.962-1.044z" fill="#80a7ff"/><path d="m119.759 109.84c-2.644 0-4.806-2.167-4.806-4.815 0-2.649 2.162-4.816 4.806-4.816 2.643 0 4.806 2.167 4.806 4.816 0 2.648-2.163 4.815-4.806 4.815z" fill="#000"/><path d="m67.5297 94.5109h33.2433c3.205 0 5.848 2.6485 5.848 5.8591v6.902c0 8.106-6.569 14.687-14.6592 14.767h-15.6205c-8.0907 0-14.6593-6.581-14.6593-14.687v-6.902c0-3.2906 2.6435-5.9391 5.8477-5.9391z" fill="#cbdaf7"/><path d="m85.1529 122.042h-8.8116c-8.0907 0-14.6593-6.581-14.6593-14.687v-6.902c0-3.2099 2.6435-5.8584 5.8477-5.8584h26.3546c3.2043 0 5.8477 2.6485 5.8477 5.8584v6.902c0 8.026-6.4885 14.607-14.5791 14.687z" fill="#cbdaf7"/><path d="m81.233 110.884h6.3283c1.3618.08 2.4032 1.204 2.3231 2.568-.0801 1.284-1.0414 2.247-2.3231 2.327h-6.3283c-1.3618-.08-2.4031-1.204-2.323-2.568.0801-1.284 1.0413-2.247 2.323-2.327zm-11.5351 0h2.4031c1.3618.08 2.4032 1.204 2.3231 2.568-.0801 1.284-1.0414 2.247-2.3231 2.327h-2.4031c-1.3618-.08-2.4032-1.204-2.3231-2.568.0801-1.284 1.1215-2.247 2.3231-2.327z" fill="#9cb8ff"/><path d="m83.8746 127.818h-3.9252c-.8812 0-1.6021-.723-1.6021-1.605 0-.883.7209-1.606 1.6021-1.606h3.9252c.8811 0 1.6021.723 1.6021 1.606 0 .882-.721 1.605-1.6021 1.605z" fill="#80a7ff"/><path d="m64.9686 85.7631s-14.0985 21.1079 1.0414 45.4249l8.5713 4.976 55.2727-2.407 13.458-17.978-13.458-36.0351h-47.2622z" fill="#4871e5" opacity=".4"/><path d="m109.025 65.8598c32.202 0 49.985 21.8298 49.985 39.8872 0 18.058-21.067 19.663-26.034 6.902l-10.413-27.6881-45.981 6.0192-11.5351-5.2167c4.2456-7.0625 20.1064-19.9036 43.9781-19.9036z" fill="#ebeff7"/><path d="m136.422 115.779-29.159 15.409h-41.254l4.0053 6.742h67.2087l5.847-13.323z" fill="#ebeff7"/><path d="m143.155 94.5921 8.651 2.7287 3.765-15.329c.481-1.9261-.721-3.8523-2.643-4.2536-1.683-.4013-3.445.4816-4.086 2.0867z" fill="#dae2ed"/><path d="m154.209 87.4502-2.403 9.9519-8.651-2.7288 3.685-9.5505c2.403.8026 4.886 1.6051 7.369 2.3274z" fill="#b7c2ce"/><path d="m138.025 167.305 33.644 7.785 2.884-12.841-33.645-7.785z" fill="#b7c2ce"/><path d="m165.982 177.338 42.216 14.526c.801.321 1.682.161 2.403-.401 1.762-1.365 5.047-4.735 6.809-12.6 1.762-7.866.32-12.36-.721-14.286-.401-.722-1.122-1.284-2.003-1.365l-44.298-5.457c-.881-.08-1.682.482-1.922 1.364l-3.605 16.212c-.16.883.32 1.686 1.121 2.007z" fill="#c5cedd"/><path d="m177.677 165.218c-.241 1.123.48 2.247 1.522 2.488 1.121.24 2.243-.482 2.483-1.525.24-1.124-.481-2.248-1.522-2.488-1.122-.321-2.243.401-2.483 1.525zm9.772 1.364c-.24 1.124.481 2.247 1.523 2.488 1.121.241 2.242-.482 2.483-1.525.24-1.124-.481-2.247-1.522-2.488-1.122-.321-2.243.401-2.484 1.525-.08 0-.08 0 0 0z" fill="#b7c2ce"/><path d="m138.423 165.138 27.076 21.107 8.01-10.353-27.075-21.187z" fill="#d0d9ea"/><path d="m159.495 185.843 32.282 31.06c.641.561 1.442.882 2.323.642 2.163-.482 6.569-2.167 11.455-8.508 4.886-6.34 5.447-11.075 5.367-13.242 0-.883-.48-1.605-1.201-2.087l-37.89-23.675c-.721-.482-1.763-.321-2.243.401l-10.093 13.162c-.721.642-.641 1.685 0 2.247z" fill="#ebeff7"/><path d="m175.192 179.825c-.721.883-.561 2.167.4 2.889.881.723 2.163.562 2.884-.321.721-.882.561-2.166-.32-2.889-1.042-.722-2.323-.562-2.964.321zm7.77 6.421c-.721.883-.561 2.167.4 2.889.882.722 2.163.562 2.884-.401s.561-2.167-.4-2.89c-.962-.642-2.243-.481-2.884.402z" fill="#b7c2ce"/><path d="m130.176 111.047c1.201 9.951 8.971 17.255 17.382 16.211 8.412-1.043 14.179-9.951 12.897-19.983-1.281-10.0325-8.971-17.1754-17.302-16.2123s-14.179 10.0323-12.977 19.9843z" fill="#dae2ed"/><path d="m136.502 110.483c.881 7.062 6.408 12.279 12.336 11.557 5.928-.723 10.093-7.063 9.212-14.206s-6.408-12.2792-12.336-11.4766c-5.928.8025-10.093 7.0626-9.212 14.1256z" fill="#b7c2ce"/><path d="m139.944 110.164c.641 5.056 4.566 8.748 8.812 8.266s7.209-5.056 6.569-10.193c-.641-5.136-4.566-8.7475-8.812-8.266-4.246.482-7.21 5.056-6.569 10.193z" fill="#ff903e"/><path d="m149.322 113.855.961-.402c.24-.08.401-.401.32-.722l-3.364-8.507c-.08-.241-.4-.401-.721-.321l-.961.401c-.24.08-.401.402-.321.723l3.365 8.426c.16.322.48.482.721.402z" fill="#ff7f14"/><path d="m137.943 173.486h11.135v-37.32h-15.46v32.986c0 2.408 1.922 4.334 4.325 4.334z" fill="#000"/><path d="m185.766 94.7545 85.953-31.4606-14.419 28.2503c-2.803 5.5377-7.61 9.7918-13.377 11.8778l-68.41 25.04-2.404-6.5z" fill="#dae2ed"/><path d="m166.058 91.864 114.15-41.8137c.481-.1605.962.0802 1.122.4815.08.2408.08.4816 0 .6421l-4.406 8.9085c-.481 1.0433-1.362 1.7656-2.403 2.1669l-2.804 1.0433-85.953 31.4606-12.656 27.2868 2.403 6.501 1.762 4.896-28.758 10.514-4.165-11.397 16.822-36.1956c.961-2.0867 2.723-3.6918 4.886-4.4944z" fill="#eceff6"/><path d="m173.189 122.042 12.656-27.2875 85.953-31.4606-2.884 5.6982-80.025 29.2937-11.695 25.2812 1.442 3.852-3.044 1.124z" fill="#c5cedd"/><path d="m272.362 59.845c.881-.3211 1.361-1.2841 1.041-2.2472-.32-.8828-1.282-1.3644-2.243-1.0434-.881.3211-1.362 1.2841-1.041 2.2472.32.9631 1.281 1.3644 2.243 1.0434zm-6.889 2.5682c.881-.3211 1.361-1.2841 1.041-2.2472-.32-.8828-1.282-1.3644-2.243-1.0434-.961.3211-1.362 1.2842-1.041 2.2472.32.8829 1.281 1.3644 2.243 1.0434zm-98.129 35.8747c.801-.4815 1.121-1.5249.64-2.3275-.4-.642-1.121-.963-1.842-.8828-.881.3211-1.362 1.3644-1.041 2.2472.4.8828 1.361 1.2841 2.243.9631z" fill="#dae2ed"/><path d="m140.024 144.193h17.864c1.522 0 2.723-1.284 2.723-2.729v-9.63c0-1.525-1.201-2.729-2.723-2.729h-17.864c-1.522 0-2.723 1.284-2.723 2.729v9.63c0 1.525 1.201 2.729 2.723 2.729z" fill="#ff5c5c"/><path d="m133.537 149.09h14.018c3.845 0 6.889-3.13 6.889-6.902v-10.995c0-3.852-3.124-6.902-6.889-6.982h-14.018c-1.442 0-2.564 1.204-2.564 2.568v19.663c-.08 1.445 1.042 2.568 2.564 2.648-.08 0-.08 0 0 0z" fill="#d0d9ea"/><path d="m93.6474 63.2106.8011 5.2969c-4.3257 3.5313-8.1708 7.6244-11.2949 12.199l-4.8063-10.9951c3.845-2.809 9.132-4.4142 15.3001-6.5008z" fill="#ff7f14"/><path d="m83.1511 80.7109-4.8063-10.9952-4.0854 10.9952z" fill="#ff903e"/></g></g></svg>