<svg width="271" height="176" viewBox="0 0 271 176" fill="none" xmlns="http://www.w3.org/2000/svg">
<g clip-path="url(#clip0_674_1491)">
<g clip-path="url(#clip1_674_1491)">
<g clip-path="url(#clip2_674_1491)">
<path d="M14.2206 175.944C42.0312 163.941 50.6281 144.273 31.0984 130.237C61.3414 125.687 72.4674 102.218 51.9804 88.4985C82.6186 83.3417 84.1817 66.9737 68.5684 50.3593C92.9191 54.8561 100.375 48.7929 101.349 29.0457C117.252 48.9249 133.77 46.2145 140.769 21.9529C147.364 41.5329 164.347 41.1633 182.34 23.1761C177.255 42.5361 183.306 49.9633 205.066 48.0097C191.367 66.5425 197.751 89.7569 225.07 93.0393C208.684 110.657 208.912 127.597 241.465 130.527C216.973 150.081 232.235 169.907 256.779 175.944H14.2206Z" fill="url(#paint0_linear_674_1491)"/>
<path d="M73.6177 175.944L93.7183 61.6848L167.095 45.5808L206.857 175.944H73.6177Z" fill="url(#paint1_linear_674_1491)"/>
<path opacity="0.6" d="M184.386 129.841C169.431 110.173 174.797 95.9874 179.117 84.9962L172.083 61.9402C166.648 61.1394 159.903 61.8786 153.651 59.837C147.961 57.9802 144.194 54.4514 140.795 51.3538L117.042 56.5634C115.601 63.2162 116.049 71.3738 111.501 76.8474C105.837 83.6586 99.7774 85.9202 100.375 95.8554C101.06 107.102 118.622 112.716 118.429 124.174C118.21 136.863 107.461 146.359 108.866 158.335C110.078 168.675 119.527 166.924 127.983 163.035C133.911 160.315 138.538 157.763 151.113 164.751C167.35 173.762 178.494 172.908 186.239 165.331C194.239 157.517 195.284 144.176 184.386 129.841ZM156.382 157.763C147.653 151.665 137.546 153.636 126.815 155.555C117.797 157.174 115.707 151.454 120.089 143.824C124.629 135.904 129.16 129.595 127.693 121.384C126.13 112.602 113.696 106.961 109.156 101.197C103.571 94.0954 103.966 88.7802 110.596 84.2306C116.848 79.945 122.038 75.9674 124.084 64.6242C125.876 54.6978 133.674 55.7274 138.134 58.6578C146.477 64.1314 157.076 65.8826 166.92 67.5546C182.015 70.133 166.024 87.4074 167.42 103.344C169.098 122.581 181.163 130.677 182.726 146.367C184.017 159.295 171.407 168.271 156.382 157.763Z" fill="url(#paint2_linear_674_1491)"/>
<path d="M137.046 111.774C130.372 114.423 124.62 118.075 113.23 116.438C109.323 115.875 106.987 117.362 106.539 120.266C106.091 123.17 107.637 126.726 116.488 128.415C120.414 129.163 129.66 129.022 137.651 124.658L137.037 111.766L137.046 111.774Z" fill="url(#paint3_linear_674_1491)"/>
<path d="M98.7676 65.5305L114.539 79.3113C115.004 79.7425 115.505 80.3849 115.566 81.2913C116.26 92.2561 114.223 108.519 110.025 125.239C103.624 150.75 103.826 166.748 103.975 175.935H57.1351L98.7676 65.5217V65.5305Z" fill="url(#paint4_linear_674_1491)"/>
<path d="M110.061 108.73C111.51 102.931 109.788 96.8762 107.013 95.961C104.028 94.9754 99.4527 98.9442 97.354 106.468C95.6943 112.408 97.1345 115.321 98.1794 116.685C98.1794 116.685 88.4585 141.642 86.6759 145.883C86.0875 147.291 85.3938 149.447 87.7208 149.447H93.938C95.8787 149.447 97.0291 147.291 97.4594 145.558C97.8897 143.824 102.667 117.785 102.667 117.785C105.231 116.641 108.743 114.01 110.061 108.73Z" fill="url(#paint5_linear_674_1491)"/>
<path d="M94.0081 145.294C95.3253 138.887 100.085 116.403 100.085 116.403C102.991 114.951 106.434 111.783 107.233 108.228C108.664 101.883 106.943 97.1931 104.309 96.2603C104.309 96.2603 104.291 96.2603 104.282 96.2603C101.701 97.4307 98.8642 101.012 97.345 106.486C95.6853 112.426 97.1255 115.339 98.1705 116.703C98.1705 116.703 88.4495 141.659 86.6669 145.901C86.0785 147.309 85.3848 149.465 87.7119 149.465H90.6361C91.6635 149.465 93.4724 147.89 93.9993 145.303L94.0081 145.294Z" fill="black"/>
<path d="M94.9126 60.7169C94.9126 60.7169 91.7337 91.7369 79.1061 117.82C71.5454 133.431 58.4172 156.153 58.4172 175.953H67.3567C69.4554 154.631 80.2214 136.23 86.8601 118.753C94.5086 98.6009 97.7402 83.5001 100.12 67.1497C100.155 66.9297 100.331 66.7537 100.55 66.7185C126.324 62.7673 149.638 58.0065 169.519 52.4801L167.982 45.0793L94.9038 60.7257L94.9126 60.7169Z" fill="url(#paint6_linear_674_1491)"/>
<path d="M189.163 97.6593C182.594 83.0425 176.447 66.4282 171.196 44.6218C170.652 42.369 168.342 41.0314 166.129 41.6826C139.188 49.6466 116.664 53.5977 93.7885 56.7042C92.5416 56.8714 91.1014 57.8306 90.8116 59.1946C87.7557 73.5034 83.2597 90.7953 77.4727 104.937C67.8572 128.424 49.2495 156.338 49.2495 175.944H60.753C61.2799 163.624 68.4192 146.587 75.6726 130.835C88.2563 103.494 93.3494 84.7585 96.8796 64.6857C97.0113 63.9377 97.5996 63.3657 98.3461 63.2513C121.072 59.9601 145.792 54.4866 163.293 49.8314C163.758 49.7082 164.233 49.9898 164.347 50.4562C169.44 70.0273 174.516 86.4041 181.251 103.239C191.086 127.826 199.235 149.289 201.641 175.935H214.717C208.859 142.443 197.391 115.981 189.154 97.6505L189.163 97.6593Z" fill="url(#paint7_linear_674_1491)"/>
<path d="M154.907 106.626C169.115 102.71 172.039 99.7271 181.172 91.3759C182.48 90.1791 184.869 89.2463 186.608 91.9743C187.503 93.3823 189.066 96.8671 184.79 103.582C180.513 110.296 173.313 113.807 165.155 117.494L154.916 106.618L154.907 106.626Z" fill="#6990FF"/>
<path d="M133.454 175.944C130.899 175.944 129.555 170.277 136.088 167.778C137.713 161.926 140.224 149.993 141.261 144.264L154.187 146.658C154.187 146.658 151.948 161.45 149.55 169.194C147.864 174.642 144.466 175.944 142.464 175.944H133.445H133.454Z" fill="url(#paint8_linear_674_1491)"/>
<path d="M136.088 111.775L158.63 104.224C158.63 104.224 171.275 120.777 171.995 130.677C172.715 140.577 164.514 145.558 155.978 146.737C145.774 148.145 136.87 146.139 134.798 136.335C133.085 128.222 136.088 111.766 136.088 111.766V111.775Z" fill="#6990FF"/>
<path d="M136.282 112.434C137.019 113.974 140.479 117.178 147.601 114.388C153.958 111.898 157.506 106.468 157.506 106.468L136.282 112.434Z" fill="#3D58D9"/>
<path d="M239.159 58.6835L231.65 63.5774L234.097 67.347L241.605 62.4531L239.159 58.6835Z" fill="#FF8C19"/>
<path d="M232.429 69.4992L236.029 75.0432C236.389 75.5976 237.127 75.756 237.68 75.3952L239.621 74.128C240.174 73.7672 240.332 73.028 239.972 72.4736L238.821 70.7048C238.584 70.3352 238.69 69.8424 239.059 69.6048L241.667 67.9064C242.035 67.6688 242.527 67.7744 242.764 68.144L243.915 69.9128C244.275 70.4672 245.012 70.6256 245.566 70.2648L247.506 68.9976C248.059 68.6368 248.218 67.8976 247.857 67.3432L244.257 61.7992C243.897 61.2448 243.159 61.0864 242.606 61.4472L232.789 67.8448C232.235 68.2056 232.077 68.9448 232.437 69.4992H232.429Z" fill="url(#paint9_linear_674_1491)"/>
<path d="M199.727 79.2563L239.279 53.4768C239.831 53.117 240.572 53.2743 240.931 53.8276L242.306 55.9447C242.665 56.498 242.508 57.2407 241.956 57.6005L202.403 83.3801L199.732 79.2637L199.727 79.2563Z" fill="url(#paint10_linear_674_1491)"/>
<path d="M209.904 101.962C208.71 102.658 207.173 102.182 206.427 101.021L205.848 100.132C205.303 99.2872 204.118 99.1112 203.345 99.8152C202.739 100.37 202.677 101.311 203.125 102.006L205.013 104.919C205.804 106.134 205.426 107.779 204.153 108.518C202.958 109.205 201.422 108.738 200.675 107.577L197.654 102.922C197.11 102.077 195.925 101.901 195.152 102.605C194.546 103.159 194.484 104.101 194.932 104.796L195.064 104.998C195.854 106.213 195.477 107.858 194.203 108.598C193.009 109.284 191.472 108.818 190.726 107.656L181.725 93.796H181.743C178.283 88.4456 177.94 81.4056 181.462 75.7296C186.283 67.9504 196.504 65.7152 204.293 70.7312C212.082 75.7472 214.48 86.1136 209.659 93.8928C209.659 93.8928 209.659 93.9016 209.659 93.9104C209.132 94.7552 209.105 95.82 209.659 96.656L210.774 98.372C211.564 99.5864 211.187 101.232 209.913 101.971L209.904 101.962ZM205.198 109.909C204.03 110.666 203.705 112.232 204.46 113.402C205.215 114.573 206.778 114.898 207.946 114.142C209.114 113.385 209.439 111.818 208.684 110.648C207.929 109.478 206.366 109.152 205.198 109.909Z" fill="url(#paint11_linear_674_1491)"/>
<path d="M187.503 79.6193C184.746 84.0721 186.116 90.0121 190.577 92.8809C195.038 95.7497 200.886 94.4737 203.652 90.0209C206.409 85.5681 205.04 79.6281 200.579 76.7593C196.118 73.8905 190.269 75.1665 187.503 79.6193Z" fill="#FF8C19"/>
<path d="M189.075 84.7057C188.978 84.8993 188.996 85.1281 189.11 85.3041L192.482 90.4961C192.596 90.6721 192.798 90.7777 193.018 90.7689L199.016 90.5313C199.235 90.5225 199.437 90.3905 199.534 90.1969L202.186 84.7937C202.282 84.6001 202.265 84.3713 202.151 84.1953L198.778 79.0033C198.664 78.8273 198.462 78.7217 198.243 78.7305L192.245 78.9681C192.026 78.9769 191.824 79.1089 191.727 79.3025L189.075 84.7057Z" fill="url(#paint12_linear_674_1491)"/>
<path d="M182.744 77.8681C184.526 74.2601 188.013 72.7905 187.89 73.6177C187.767 74.4449 186.388 75.8705 184.667 78.7393C183.069 81.3969 182.41 83.5001 181.655 83.3857C181.163 83.3153 181.286 80.8161 182.744 77.8681Z" fill="#FFCE2A"/>
<path d="M175.736 175.944C178.81 175.944 180.039 170.224 174.867 168.314C174.041 164.293 171.012 148.365 168.887 139.424L156.373 145.487C156.373 145.487 159.104 161.67 161.133 169.274C162.608 174.826 163.6 175.944 166.366 175.944H175.736Z" fill="#6990FF"/>
<path d="M180.689 91.816C183.762 89.176 186.625 92.9072 183.385 96.4536C180.382 99.736 177.615 94.456 180.689 91.816Z" fill="#6990FF"/>
<path d="M151.122 80.0679C152.632 75.3775 150.551 71.8751 146.977 72.9927C142.025 74.5415 141.989 79.8039 137.713 82.1535L151.122 80.0679Z" fill="#55F186"/>
<path d="M143.254 81.1239C138.828 80.9303 138.538 73.4327 132.365 73.0191C126.359 72.6143 122.881 79.8743 128.677 85.4447L143.245 81.1239H143.254Z" fill="#29CC7A"/>
<path d="M147.574 69.5696C147.934 72.896 147.548 79.5928 143.052 81.7928" stroke="#008D3C" stroke-width="2" stroke-linecap="round" stroke-linejoin="round"/>
<path d="M131.057 78.2639C132.549 83.2183 135.491 84.2303 135.491 84.2303" stroke="#008D3C" stroke-width="2" stroke-linecap="round" stroke-linejoin="round"/>
<path d="M117.972 102.526C119.983 109.926 122.547 110.006 129.406 108.131L124.989 91.8777C118.122 93.7521 115.961 95.1161 117.972 102.526Z" fill="#4970DE"/>
<path d="M138.433 81.2559C153.958 77.0143 159.657 76.8559 163.275 90.1615C166.893 103.467 161.396 106.741 146.327 110.877C131.548 114.934 125.138 114.863 121.52 101.558C117.902 88.2519 122.899 85.4975 138.424 81.2559H138.433Z" fill="#6990FF"/>
<path d="M133.234 85.9111C140.286 83.9839 145.528 83.4735 147.047 92.4847C148.567 101.496 144.422 102.798 138.284 104.47C132.146 106.142 127.913 107.128 124.664 98.5919C121.415 90.0559 126.192 87.8295 133.243 85.9111H133.234Z" fill="#B7CCFF"/>
<path d="M129.081 98.9703L131.9 98.2047C132.69 97.9847 133.507 98.4599 133.726 99.2519C133.946 100.044 133.471 100.862 132.681 101.082L129.862 101.848C129.072 102.068 128.255 101.593 128.036 100.801C127.816 100.009 128.29 99.1903 129.081 98.9703Z" fill="#6990FF"/>
<path d="M137.73 96.6119L140.549 95.8463C141.34 95.6263 142.156 96.1015 142.376 96.8935C142.595 97.6855 142.121 98.5039 141.331 98.7239L138.512 99.4895C137.722 99.7095 136.905 99.2343 136.685 98.4423C136.466 97.6503 136.94 96.8319 137.73 96.6119Z" fill="#6990FF"/>
<path d="M169.861 88.1551C171.872 95.5559 170.02 96.8407 164.066 98.4687L159.649 82.2151C165.603 80.5871 167.851 80.7543 169.861 88.1551Z" fill="#6990FF"/>
<path d="M161.185 85.0137C163.477 84.5209 164.18 85.0577 165.102 88.4281C166.015 91.7985 165.682 92.6169 163.46 93.3561C163.065 93.4881 162.643 93.2681 162.529 92.8633L160.641 85.9025C160.536 85.4977 160.79 85.0929 161.194 85.0049L161.185 85.0137Z" fill="#B7CCFF"/>
<path d="M152.414 90.2984C153.434 90.0201 153.929 88.5704 153.519 87.0604C153.108 85.5504 151.949 84.5519 150.929 84.8303C149.909 85.1086 149.414 86.5583 149.824 88.0683C150.235 89.5783 151.394 90.5768 152.414 90.2984Z" fill="black"/>
<path d="M156.672 99.956C155.653 100.563 154.564 100.326 153.607 99.736C153.353 98.0552 154.134 96.2072 155.636 95.248C156.145 94.9224 156.681 94.7376 157.208 94.6672C157.919 96.3568 158.463 98.8736 156.672 99.956Z" fill="#EB459F"/>
<path d="M156.672 99.956C154.433 101.302 151.833 98.4952 151.052 97.0784C150.534 96.1368 151.017 95.5472 152.729 94.28C154.793 92.7488 156.189 92.7312 156.733 93.6992C157.568 95.1688 158.858 98.6448 156.672 99.956Z" fill="#EB459F"/>
<path d="M156.672 99.956C155.653 100.563 154.564 100.326 153.607 99.736C153.353 98.0552 154.134 96.2072 155.636 95.248C156.145 94.9224 156.681 94.7376 157.208 94.6672C157.919 96.3568 158.463 98.8736 156.672 99.956Z" fill="#FFAED7"/>
<path d="M34.4002 81.4937C31.8272 79.8305 30.0973 77.1465 29.6407 74.1105L28.8679 68.9537C28.8328 68.6985 28.6133 68.5137 28.3586 68.5137C28.1039 68.5137 27.8844 68.6985 27.8493 68.9537L27.0765 74.1105C26.6199 77.1377 24.89 79.8305 22.317 81.4937L21.6496 81.9249C21.5004 82.0217 21.4125 82.1889 21.4125 82.3649V82.4001C21.4125 82.5761 21.5004 82.7433 21.6496 82.8401L22.317 83.2713C24.89 84.9345 26.6199 87.6185 27.0765 90.6545L27.8493 95.8113C27.8844 96.0665 28.1039 96.2513 28.3586 96.2513C28.6133 96.2513 28.8328 96.0665 28.8679 95.8113L29.6407 90.6545C30.0973 87.6273 31.8272 84.9345 34.4002 83.2713L35.0676 82.8401C35.2168 82.7433 35.3047 82.5761 35.3047 82.4001V82.3649C35.3047 82.1889 35.2168 82.0217 35.0676 81.9249L34.4002 81.4937Z" fill="#8CD9FF"/>
<path d="M47.1771 56.2288C45.8072 55.3488 44.8851 53.9144 44.648 52.304L44.2353 49.5584C44.2177 49.4264 44.1036 49.3208 43.9631 49.3208C43.8226 49.3208 43.7084 49.4176 43.6909 49.5584L43.2781 52.304C43.041 53.9144 42.119 55.3488 40.7491 56.2288L40.3978 56.4576C40.3188 56.5104 40.2749 56.5984 40.2749 56.6864V56.704C40.2749 56.8008 40.3188 56.8888 40.3978 56.9328L40.7491 57.1616C42.119 58.0416 43.041 59.476 43.2781 61.0864L43.6909 63.832C43.7084 63.964 43.8226 64.0696 43.9631 64.0696C44.1036 64.0696 44.2177 63.9728 44.2353 63.832L44.648 61.0864C44.8851 59.476 45.8072 58.0416 47.1771 57.1616L47.5283 56.9328C47.6073 56.88 47.6512 56.792 47.6512 56.704V56.6864C47.6512 56.5896 47.6073 56.5016 47.5283 56.4576L47.1771 56.2288Z" fill="#FF78B9"/>
<path d="M226.255 33.7536C224.745 32.7768 223.726 31.2016 223.463 29.424L223.006 26.3968C222.98 26.2472 222.857 26.1416 222.708 26.1416C222.558 26.1416 222.427 26.256 222.409 26.3968L221.953 29.424C221.689 31.2016 220.67 32.7856 219.16 33.7536L218.765 34.0088C218.677 34.0616 218.624 34.1584 218.624 34.264V34.2816C218.624 34.3872 218.677 34.484 218.765 34.5368L219.16 34.792C220.67 35.7688 221.689 37.344 221.953 39.1216L222.409 42.1488C222.435 42.2984 222.558 42.404 222.708 42.404C222.857 42.404 222.989 42.2896 223.006 42.1488L223.463 39.1216C223.726 37.344 224.745 35.76 226.255 34.792L226.651 34.5368C226.738 34.484 226.791 34.3872 226.791 34.2816V34.264C226.791 34.1584 226.738 34.0616 226.651 34.0088L226.255 33.7536Z" fill="#57F287"/>
</g>
</g>
</g>
<defs>
<linearGradient id="paint0_linear_674_1491" x1="135.5" y1="21.6009" x2="135.5" y2="174.078" gradientUnits="userSpaceOnUse">
<stop stop-color="#FFE75C" stop-opacity="0.5"/>
<stop offset="1" stop-color="#FFE75C" stop-opacity="0.7"/>
</linearGradient>
<linearGradient id="paint1_linear_674_1491" x1="140.207" y1="175.627" x2="127.27" y2="47.4431" gradientUnits="userSpaceOnUse">
<stop offset="0.41"/>
<stop offset="1" stop-color="#8547C6"/>
</linearGradient>
<linearGradient id="paint2_linear_674_1491" x1="146.363" y1="169.811" x2="146.363" y2="56.1146" gradientUnits="userSpaceOnUse">
<stop stop-color="#8547C6"/>
<stop offset="0.97" stop-color="#B845C1"/>
</linearGradient>
<linearGradient id="paint3_linear_674_1491" x1="111.606" y1="121.639" x2="127.667" y2="120.43" gradientUnits="userSpaceOnUse">
<stop offset="0.23" stop-color="#4970DE"/>
<stop offset="1" stop-color="#6990FF"/>
</linearGradient>
<linearGradient id="paint4_linear_674_1491" x1="86.421" y1="51.4329" x2="86.421" y2="176.287" gradientUnits="userSpaceOnUse">
<stop stop-color="#FFCE2A"/>
<stop offset="1" stop-color="#FFB819"/>
</linearGradient>
<linearGradient id="paint5_linear_674_1491" x1="104.871" y1="96.2514" x2="91.7246" y2="157.954" gradientUnits="userSpaceOnUse">
<stop stop-color="#FF8C19"/>
<stop offset="0.48" stop-color="#FE8917"/>
<stop offset="0.69" stop-color="#FB8213"/>
<stop offset="0.84" stop-color="#F6760C"/>
<stop offset="0.97" stop-color="#EF6403"/>
<stop offset="1" stop-color="#ED5F00"/>
</linearGradient>
<linearGradient id="paint6_linear_674_1491" x1="123.513" y1="65.3633" x2="95.5896" y2="199.98" gradientUnits="userSpaceOnUse">
<stop stop-color="#FF8C19"/>
<stop offset="0.48" stop-color="#FE8917"/>
<stop offset="0.69" stop-color="#FB8213"/>
<stop offset="0.84" stop-color="#F6760C"/>
<stop offset="0.97" stop-color="#EF6403"/>
<stop offset="1" stop-color="#ED5F00"/>
</linearGradient>
<linearGradient id="paint7_linear_674_1491" x1="131.987" y1="51.4242" x2="131.987" y2="175.214" gradientUnits="userSpaceOnUse">
<stop stop-color="#FFCE2A"/>
<stop offset="1" stop-color="#FFB819"/>
</linearGradient>
<linearGradient id="paint8_linear_674_1491" x1="139.601" y1="175.592" x2="145.632" y2="147.49" gradientUnits="userSpaceOnUse">
<stop stop-color="#4970DE"/>
<stop offset="0.37" stop-color="#5178E6"/>
<stop offset="0.96" stop-color="#6990FF"/>
</linearGradient>
<linearGradient id="paint9_linear_674_1491" x1="246.09" y1="64.699" x2="207.416" y2="88.6913" gradientUnits="userSpaceOnUse">
<stop stop-color="#FFC619"/>
<stop offset="1" stop-color="#FFA919"/>
</linearGradient>
<linearGradient id="paint10_linear_674_1491" x1="241.514" y1="55.3041" x2="200.832" y2="80.9934" gradientUnits="userSpaceOnUse">
<stop stop-color="#FFC619"/>
<stop offset="1" stop-color="#FFA919"/>
</linearGradient>
<linearGradient id="paint11_linear_674_1491" x1="213.429" y1="82.3411" x2="185.791" y2="99.3929" gradientUnits="userSpaceOnUse">
<stop stop-color="#FFC619"/>
<stop offset="1" stop-color="#FFA919"/>
</linearGradient>
<linearGradient id="paint12_linear_674_1491" x1="208.954" y1="76.8928" x2="182.104" y2="92.6629" gradientUnits="userSpaceOnUse">
<stop stop-color="#FFC619"/>
<stop offset="1" stop-color="#FFA919"/>
</linearGradient>
<clipPath id="clip0_674_1491">
<rect width="271" height="175" fill="white" transform="translate(0 0.944092)"/>
</clipPath>
<clipPath id="clip1_674_1491">
<rect width="271" height="175" fill="white" transform="translate(0 0.944092)"/>
</clipPath>
<clipPath id="clip2_674_1491">
<rect width="245" height="154" fill="white" transform="translate(13 21.9441)"/>
</clipPath>
</defs>
</svg>
