<svg version="1.0" width="512" height="512" viewBox="0 0 512 512" preserveAspectRatio="xMidYMid meet" xmlns="http://www.w3.org/2000/svg">
  <rect fill="#5865F2" width="512" height="512"></rect>
  <path fill="#ffffff" d="M 190.092 110.597 C 166.135 115.887 147.846 121.782 125.25 131.38 C 121.547 132.967 120.942 133.647 115.727 141.885 C 90.789 181.334 74.615 221.917 67.285 263.557 C 63.506 285.247 62.826 294.694 62.901 321.447 C 62.978 335.125 63.279 348.275 63.657 350.543 L 64.262 354.623 L 74.087 361.349 C 98.648 378.051 124.191 390.899 150.945 400.043 C 156.461 401.933 161.374 403.292 161.827 403.142 C 163.716 402.386 182.535 372.383 182.535 370.116 C 182.535 369.813 180.57 368.831 178.226 367.924 C 172.257 365.581 152.91 355.984 151.625 354.699 C 150.34 353.414 150.642 352.961 154.724 350.013 L 157.973 347.671 L 165.53 350.921 C 205.433 367.924 251.004 373.441 293.25 366.337 C 312.672 363.088 330.356 357.722 351.139 348.804 C 353.784 347.671 353.859 347.671 357.185 350.316 C 358.998 351.752 360.509 353.339 360.509 353.792 C 360.509 354.85 344.715 363.163 336.326 366.489 C 333.001 367.849 329.978 369.209 329.6 369.512 C 328.089 370.872 347.663 403.368 350.005 403.444 C 350.534 403.444 354.918 402.083 359.829 400.346 C 387.716 390.747 412.882 378.127 437.595 361.349 L 447.419 354.623 L 447.948 350.543 C 448.175 348.275 448.628 338.526 448.931 329.004 C 451.046 262.348 433.816 201.587 395.878 141.809 L 390.286 133.042 L 379.932 128.735 C 360.812 120.799 335.873 113.242 317.508 109.841 L 310.707 108.557 L 309.422 110.37 C 308.666 111.277 306.248 115.962 304.056 120.724 L 300.051 129.263 L 296.273 128.81 C 294.232 128.584 289.244 127.979 285.314 127.45 C 275.943 126.24 236.57 126.24 226.745 127.45 C 222.588 127.903 217.525 128.508 215.409 128.81 L 211.63 129.188 L 206.718 119.137 C 200.974 107.423 201.957 107.952 190.092 110.597 Z M 205.509 235.218 C 215.409 240.054 222.588 249.501 225.309 261.139 C 226.82 267.488 226.367 277.992 224.251 284.113 C 215.56 310.11 187.069 317.97 168.553 299.531 C 156.461 287.439 153.514 267.866 161.374 251.768 C 165.681 243.077 172.71 236.729 181.703 233.631 C 185.859 232.119 187.749 231.892 193.341 232.119 C 199.085 232.421 200.748 232.799 205.509 235.218 Z M 334.135 235.293 C 347.058 241.641 354.841 254.866 354.841 270.435 C 354.841 281.771 351.29 291.142 344.11 298.775 C 324.461 319.86 292.72 308.826 286.373 278.748 C 283.047 262.953 289.924 245.344 302.696 237.182 C 308.893 233.177 314.107 231.817 321.816 232.195 C 327.635 232.421 329.222 232.799 334.135 235.293 Z"></path>
</svg>
