<svg fill="none" height="435" viewBox="0 0 815 435" width="815" xmlns="http://www.w3.org/2000/svg" xmlns:xlink="http://www.w3.org/1999/xlink"><linearGradient id="a" gradientUnits="userSpaceOnUse" x1="903.622" x2="-426.517" y1="215.5" y2="220.675"><stop offset=".21" stop-color="#001f8e"/><stop offset=".58" stop-color="#0e83bd"/><stop offset=".77" stop-color="#1be6ed"/></linearGradient><clipPath id="b"><path d="m0 0h815v435h-815z"/></clipPath><mask id="c" height="435" maskUnits="userSpaceOnUse" width="815" x="0" y="0"><path d="m0 0h815v435h-815z" fill="#fff"/></mask><g clip-path="url(#b)"><g mask="url(#c)"><path d="m771.942 433.403h-726.9791c-22.9611 0-41.74806-18.787-41.74806-41.748v-348.448c0-22.961 18.78696-41.74802 41.74806-41.74802h726.9791c22.961 0 41.747 18.78702 41.747 41.74802v348.448c0 22.961-18.786 41.748-41.747 41.748z" fill="url(#a)"/><path d="m44.9645 433.582h726.9785c22.961 0 41.747-18.787 41.747-41.748v-99.154c-71.218-1.071-182.821 107.042-182.821 107.042s-134.81-145.512-199.7-141.907c-80.133 4.452-162.488 81.787-162.488 81.787s-107.043-149.567-167.163-167.163c-60.1196-17.596-98.24456 24.928-98.24456 24.928v196.629c1.13501 21.967 19.45496 39.586 41.69106 39.586z" fill="#fff" opacity=".15"/><path d="m151.201 125.659c.373 3.232 3.022 21.971 14.1 23.653-11.084 1.669-13.727 20.441-14.1 23.654-.38-3.213-3.023-21.985-14.107-23.654 11.078-1.682 13.727-20.421 14.107-23.653z" fill="#97ffba"/><g fill="#fff"><path d="m194.767 248.223c-24.729 22.414-50.02 20.824-74.898 6.124-24.8784-14.7-42.1694-13.567-67.7384 3.772s-49.02098 1.878-49.02098 1.878l-.01196-61.616s12.85494-17.997 45.75504-27.077c39.1189-10.797 78.2023-2.1 145.9143 76.919z" opacity=".55"/><path d="m270.017 60.4271c0 5.255-4.26 9.514-9.515 9.514s-9.514-4.259-9.514-9.514 4.259-9.515 9.514-9.515 9.515 4.26 9.515 9.515z" opacity=".85"/><path d="m456.22 60.4271c0 5.255-4.259 9.514-9.514 9.514s-9.515-4.259-9.515-9.514 4.26-9.515 9.515-9.515 9.514 4.26 9.514 9.515z" opacity=".85"/><path d="m642.424 60.4271c0 5.255-4.26 9.514-9.515 9.514-5.254 0-9.514-4.259-9.514-9.514s4.26-9.515 9.514-9.515c5.255 0 9.515 4.26 9.515 9.515z" opacity=".85"/><path d="m710.016 130.331c0-3.554 2.881-6.435 6.435-6.435s6.436 2.881 6.436 6.435-2.882 6.436-6.436 6.436-6.435-2.882-6.435-6.436z" opacity=".85"/><path d="m534.102 130.331c0-3.554 2.882-6.435 6.436-6.435s6.436 2.881 6.436 6.435-2.882 6.436-6.436 6.436-6.436-2.882-6.436-6.436z" opacity=".85"/><path d="m327.723 130.331c0-3.554 2.882-6.435 6.436-6.435s6.436 2.881 6.436 6.435-2.882 6.436-6.436 6.436-6.436-2.882-6.436-6.436z" opacity=".85"/><path d="m270.017 191.045c0 5.255-4.26 9.515-9.515 9.515s-9.514-4.26-9.514-9.515 4.259-9.515 9.514-9.515 9.515 4.26 9.515 9.515z" opacity=".85"/><path d="m89.2634 191.045c0 5.255-4.259 9.515-9.514 9.515s-9.515-4.26-9.515-9.515 4.26-9.515 9.515-9.515 9.514 4.26 9.514 9.515z" opacity=".85"/><path d="m456.22 191.045c0 5.255-4.259 9.515-9.514 9.515s-9.515-4.26-9.515-9.515 4.26-9.515 9.515-9.515 9.514 4.26 9.514 9.515z" opacity=".85"/><path d="m642.424 191.045c0 5.255-4.26 9.515-9.515 9.515-5.254 0-9.514-4.26-9.514-9.515s4.26-9.515 9.514-9.515c5.255 0 9.515 4.26 9.515 9.515z" opacity=".85"/><path d="m710.016 260.949c0-3.554 2.881-6.436 6.435-6.436s6.436 2.882 6.436 6.436-2.882 6.435-6.436 6.435-6.435-2.881-6.435-6.435z" opacity=".85"/><path d="m534.102 260.949c0-3.554 2.882-6.436 6.436-6.436s6.436 2.882 6.436 6.436-2.882 6.435-6.436 6.435-6.436-2.881-6.436-6.435z" opacity=".85"/><path d="m327.723 260.949c0-3.554 2.882-6.436 6.436-6.436s6.436 2.882 6.436 6.436-2.882 6.435-6.436 6.435-6.436-2.881-6.436-6.435z" opacity=".85"/><path d="m185.27 260.949c0-3.554 2.882-6.436 6.436-6.436s6.435 2.882 6.435 6.436-2.881 6.435-6.435 6.435-6.436-2.881-6.436-6.435z" opacity=".85"/></g><path d="m196.464 433.218-53.671-75.158h26.226l-51.232-73.884-51.2317 73.884h26.2261l-53.672 75.158" fill="#001f8e" opacity=".43"/><path d="m373.329 433.218-53.672-75.158h26.226l-51.232-73.884-51.232 73.884h26.226l-53.672 75.158" fill="#001f8e" opacity=".43"/><path d="m297.562 315.18s37.528 28.493 80.615 13.204c43.088-15.289 52.122-14.594 80.615-2.085s70.191 18.765 93.125-2.779c0 0-46.562-41.698-79.92-55.597s-79.226-27.103-174.435 47.257z" fill="#61a4bc"/><path d="m813.913 290.173c-29.165 1.268-67.388 15.66-122.37 58.602 0 0 37.224 27.842 80.311 12.553 18.904-6.708 31.253-10.34 41.567-11.246" fill="#61a4bc"/></g><path d="m695.048 130.978c0 39.16-31.745 70.905-70.905 70.905s-70.905-31.745-70.905-70.905c0-39.1598 31.745-70.9048 70.905-70.9048s70.905 31.745 70.905 70.9048z" fill="#fde65b"/><path d="m621.384 83.138c0 36.563-29.639 66.202-66.201 66.202-36.563 0-66.203-29.639-66.203-66.202s29.819-65.138 66.382-65.138c36.562 0 66.022 28.575 66.022 65.138z" fill="#fde65b"/><path d="m539.242 133.371c0 37.139-30.107 67.246-67.246 67.246s-67.246-30.107-67.246-67.246 30.107-67.246 67.246-67.246 67.246 30.107 67.246 67.246z" fill="#fde65b"/><path d="m786.279 183.305-350.417-.045-139.948-.184 1.29-26.241 366.253-.009 123.097.774z" fill="#000"/><path d="m666.989 433.914h-360.864v-254.394l357.749-.146z" fill="#ec4144"/><path d="m777.124 433.732h-113.245v-254.394l113.22-22.5z" fill="#c02a32"/><g fill="#f9c3c3"><path d="m527.299 252.938c-14.354 0-25.99 11.635-25.99 25.989s11.636 25.99 25.99 25.99 25.99-11.636 25.99-25.99-11.636-25.989-25.99-25.989z"/><path d="m744.736 285.568c14.347-.489 25.58-12.514 25.09-26.86-.488-14.346-12.514-25.579-26.86-25.09-7.198.245-13.61 3.396-18.154 8.286l1.249 36.633c4.865 4.569 11.477 7.276 18.675 7.031z"/><path d="m390.005 245.138c-17.914 0-32.435 14.521-32.435 32.434s14.521 32.434 32.435 32.434c17.913 0 32.434-14.521 32.434-32.434s-14.521-32.434-32.434-32.434z"/><path d="m620.848 269.509c-16.576 0-30.012 13.436-30.012 30.011 0 16.576 13.436 30.012 30.012 30.012 16.575 0 30.011-13.436 30.011-30.012 0-16.575-13.436-30.011-30.011-30.011z"/><path d="m520.885 197.608c11.723 0 21.63-7.763 24.869-18.428h-49.738c3.239 10.665 13.146 18.428 24.869 18.428z"/><path d="m400.685 197.608c11.723 0 21.63-7.763 24.869-18.428h-49.738c3.239 10.665 13.146 18.428 24.869 18.428z"/><path d="m567.775 337.542c-8.788 0-15.912 7.124-15.912 15.912 0 8.787 7.124 15.911 15.912 15.911s15.912-7.124 15.912-15.911c0-8.788-7.124-15.912-15.912-15.912z"/><path d="m447.974 306.458c-8.788 0-15.912 7.124-15.912 15.912 0 8.787 7.124 15.911 15.912 15.911s15.912-7.124 15.912-15.911c0-8.788-7.124-15.912-15.912-15.912z"/><path d="m340.721 332.014c-8.788 0-15.912 7.124-15.912 15.912 0 8.787 7.124 15.911 15.912 15.911s15.912-7.124 15.912-15.911c0-8.788-7.124-15.912-15.912-15.912z"/><path d="m685.17 322.963c-8.788 0-15.912 7.124-15.912 15.912 0 8.787 7.124 15.911 15.912 15.911s15.912-7.124 15.912-15.911c0-8.788-7.124-15.912-15.912-15.912z"/><path d="m586.264 217.304c-8.788 0-15.912 7.125-15.912 15.913 0 8.787 7.124 15.911 15.912 15.911s15.912-7.124 15.912-15.911c0-8.788-7.124-15.913-15.912-15.913z"/><path d="m352.76 201.312c-8.788 0-15.912 7.125-15.912 15.913 0 8.787 7.124 15.911 15.912 15.911s15.912-7.124 15.912-15.911c0-8.788-7.124-15.913-15.912-15.913z"/><path d="m708.17 195.307c-8.788 0-15.912 7.125-15.912 15.913 0 8.787 7.124 15.911 15.912 15.911s15.912-7.124 15.912-15.911c0-8.788-7.124-15.913-15.912-15.913z"/><path d="m507.204 362.427c-18.369 0-33.259 14.89-33.259 33.258s14.89 33.258 33.259 33.258c18.368 0 33.258-14.89 33.258-33.258s-14.89-33.258-33.258-33.258z"/></g><path d="m758.416 348.019c-14.354 0-25.99 11.636-25.99 25.99s11.636 25.99 25.99 25.99c7.202 0 13.719-2.931 18.426-7.663v-36.654c-4.707-4.732-11.224-7.663-18.426-7.663z" fill="#ebbbbd"/><path d="m384.885 373.801c-14.354 0-25.99 11.636-25.99 25.99s11.636 25.99 25.99 25.99 25.99-11.636 25.99-25.99-11.636-25.99-25.99-25.99z" fill="#f9c3c3"/><path d="m624.842 373.001c-11.043 0-19.994 8.952-19.994 19.995 0 11.042 8.951 19.994 19.994 19.994s19.995-8.952 19.995-19.994c0-11.043-8.952-19.995-19.995-19.995z" fill="#f9c3c3"/><path d="m516.845 433.574h-66.372v-254.394h66.372z" fill="#fde65b"/><path d="m743.592 433.574h-30.94l.008-264.581 30.88-5.938z" fill="#fde65b"/><path d="m295.977 183.209v-53.732h368.521v53.732z" fill="#ec4144"/><path d="m644.914 142.212c7.836 0 14.391-5.414 16.176-12.7h-32.352c1.784 7.286 8.34 12.7 16.176 12.7z" fill="#f9c3c3"/><path d="m596.63 163.975c-11.797 0-21.838 7.503-25.622 17.996h51.244c-3.784-10.493-13.825-17.996-25.622-17.996z" fill="#f9c3c3"/><path d="m553.574 142.212c7.836 0 14.392-5.414 16.176-12.7h-32.352c1.784 7.286 8.34 12.7 16.176 12.7z" fill="#f9c3c3"/><path d="m413.5 142.212c7.836 0 14.392-5.414 16.176-12.7h-32.352c1.784 7.286 8.34 12.7 16.176 12.7z" fill="#f9c3c3"/><path d="m345.196 163.975c-11.797 0-21.838 7.503-25.622 17.996h51.244c-3.784-10.493-13.825-17.996-25.622-17.996z" fill="#f9c3c3"/><path d="m519.637 129.261h-72.098v52.654h72.098z" fill="#fde65b"/><path d="m786.84 182.984h-123.344v-53.507h123.344z" fill="#c02a32"/><path d="m690.84 168.617c-7.268 0-15.465 6.186-15.785 14.252h31.569c-1-8.679-8.517-14.252-15.784-14.252z" fill="#f9c3c3"/><path d="m769.615 172.319c-5.38 0-11.448 4.579-11.685 10.55h23.371c-.741-6.425-6.306-10.55-11.686-10.55z" fill="#f9c3c3"/><path d="m752.053 142.978c6.709 0 15.07-5.258 14.57-13.485h-29.141c.016 8.718 7.862 13.485 14.571 13.485z" fill="#f8c2c2"/><path d="m743.5 129.63h-31.25v53.37h31.25z" fill="#fde65b"/><path d="m305.977 183.18h357.522 113.343" stroke="#ad171f" stroke-linecap="round" stroke-linejoin="round" stroke-width="5"/></g></svg>