<svg fill="none" height="100" viewBox="0 0 100 100" width="100" xmlns="http://www.w3.org/2000/svg"><path d="m69.57 13.05h-39.14c0 9.32-7.17 17.11-16.75 19v5.39c0 17.72 9.36 34.36 25.14 44.67l11.18 7.3 11.18-7.3c15.82-10.31 25.14-26.95 25.14-44.67v-5.39c-9.58-1.89-16.75-9.68-16.75-19z" fill="#060607"/><path d="m37 84.69c-16.46-10.9-26.3-28.59-26.3-47.34v-7.81l2.52-.5c8.19-1.64 14.13-8.46 14.13-16.22v-2.99999h45.3v2.99999c0 7.76 5.94 14.58 14.13 16.22l2.52.5v7.81c0 18.75-9.84 36.44-26.3 47.34l-13 8.58z" fill="#e2e5ff"/><path d="m69.45 12.82c0 9.38 7.13 17.21 16.65 19.11v5.42c0 17.83-9.3 34.57-25 44.93l-11.1 7.35-11.12-7.35c-15.68-10.36-25-27.1-25-44.93v-5.42c9.54-1.93 16.67-9.73 16.67-19.11zm6.4-5.91h-51.7v5.91c0 6.38-4.88 12-11.6 13.33l-5.05 1v10.2c0 19.7 10.34 38.29 27.66 49.75l11.12 7.35 3.72 2.46 3.72-2.46 11.12-7.35c17.32-11.46 27.66-30 27.66-49.75v-10.2l-5-1c-6.72-1.35-11.6-6.95-11.6-13.33v-5.91z" fill="#5865f2"/><path d="m50 12.82h-19.45c0 9.38-7.13 17.21-16.65 19.11v5.42c0 17.83 9.3 34.57 25 44.93l11.1 7.35z" fill="#c1c7ff"/><path d="m63.8812 35.5142c-2.6362-1.1915-5.4184-2.0368-8.2758-2.5142-.3933.6882-.7465 1.3981-1.058 2.1262-3.029-.4501-6.109-.4501-9.138 0-.29-.6673-.7132-1.5054-1.0658-2.1262-2.853.479-5.6302 1.327-8.2602 2.522-4.6465 6.5292-6.7433 14.5058-5.9013 22.4495 3.057 2.2373 6.4792 3.9381 10.1176 5.0285.8175-1.0917 1.5411-2.2494 2.163-3.4609-1.1829-.4327-2.3239-.9703-3.4091-1.6064.2821-.2095.5643-.419.8386-.644 3.163 1.4718 6.6148 2.2349 10.1097 2.2349 3.4948 0 6.9467-.7631 10.1097-2.2349.2743.225.5486.4345.8386.644-1.0901.6341-2.2333 1.1741-3.4169 1.6141.6208 1.2097 1.3444 2.3649 2.163 3.4532 3.6421-1.0869 7.0675-2.7881 10.1254-5.0285.8341-7.9512-1.277-15.9318-5.9405-22.4573zm-20.5094 17.9333c-.9873-.1061-1.9003-.5696-2.5635-1.3014-.6633-.7319-1.0301-1.6806-1.0301-2.6639 0-.9834.3668-1.9321 1.0301-2.664.6632-.7318 1.5762-1.1953 2.5635-1.3014.9873.1061 1.9002.5696 2.5635 1.3014.6633.7319 1.0301 1.6806 1.0301 2.664 0 .9833-.3668 1.932-1.0301 2.6639-.6633.7318-1.5762 1.1953-2.5635 1.3014zm13.2759 0c-.8108.0864-1.6289-.0729-2.3463-.4568s-1.3002-.9744-1.6714-1.6933c-.3712-.719-.5133-1.5325-.4075-2.3331s.4545-1.5506 1-2.1508c.5455-.6001 1.2621-1.0222 2.0551-1.2105.793-.1882 1.625-.1337 2.3861.1564.761.29 1.4152.8019 1.8761 1.468s.7067 1.4551.7051 2.2625c.0448 1.0002-.3115 1.9775-.9911 2.7188-.6797.7412-1.6277 1.1865-2.6375 1.2388z" fill="#3c45a5"/></svg>