<svg fill="none" height="435" viewBox="0 0 815 435" width="815" xmlns="http://www.w3.org/2000/svg" xmlns:xlink="http://www.w3.org/1999/xlink"><radialGradient id="a" cx="421.619" cy="40.5002" gradientUnits="userSpaceOnUse" r="326.262"><stop offset=".26" stop-color="#58998c"/><stop offset=".63" stop-color="#58998c"/><stop offset="1" stop-color="#58998c"/></radialGradient><linearGradient id="b"><stop offset="0" stop-color="#eafff2"/><stop offset=".5" stop-color="#8ebba8"/><stop offset="1" stop-color="#31775e"/></linearGradient><linearGradient id="c" gradientUnits="userSpaceOnUse" x1="336.621" x2="593.803" xlink:href="#b" y1="94.5" y2="633.221"/><linearGradient id="d" gradientUnits="userSpaceOnUse" x1="420.619" x2="350.928" xlink:href="#b" y1="188.5" y2="529.092"/><clipPath id="e"><path d="m0 0h815v435h-815z"/></clipPath><mask id="f" height="435" maskUnits="userSpaceOnUse" width="815" x="0" y="0"><path d="m0 0h815v435h-815z" fill="#fff"/></mask><g clip-path="url(#e)"><g mask="url(#f)"><path d="m770.011 1.88623h-327.906-37.323-361.7488c-22.961 0-41.74804 18.78697-41.74804 41.74797v258.0278 12.57 77.851c0 22.961 18.78704 41.747 41.74804 41.747h203.3998 124.818c5.673.458 11.276.755 16.756.927.05.002.101.003.151.005l.469-.005 89.919-.927h291.465c2.998 0 5.922-.327 8.745-.935 18.799-4.048 33.003-20.848 33.003-40.812v-95.008-71.344-182.0968c0-22.961-18.787-41.74797-41.748-41.74797z" fill="url(#a)"/><path d="m600.733 81.7803-28.693 114.3687 23.992-6.842-29.544 85.404 32.332-11.037-30.06 88.276 188.037-48.206-66.438-64.559 28.949-7.376-63.29-56.999 21.383-6.836z" fill="#244942" opacity=".42"/><path d="m417.797 165.648-76.092 66.584 20.863 6.487-62.766 45.905 28.99 7.47-64.526 47.674 160.901 54.639-17.554-76.429 24.749 8.444-18.889-69.655 18.949 5.265z" fill="#244942" opacity=".42"/><path d="m148.8 104.667-48.035 73.887 18.621.985-41.6094 53.204 25.5344.043-42.6704 55.11 144.6234 11.55-31.301-61.759 22.255 1.81-30.91-55.651 16.775.356z" fill="#244942" opacity=".42"/><path d="m723.738 80.9152-20.463 104.7198 42.731-19.259-18.737 112.712 84.489-.789v-52.568-182.0968c0-22.961-18.787-41.74797-41.748-41.74797h-66.735l-21.064 95.27797z" fill="#244942"/><path d="m371.253 433.83c5.673.458 11.276.755 16.756.927.05.002.101.003.151.005l.469-.005 89.919-.927h291.465c2.998 0 5.922-.327 8.745-.935 18.799-4.048 33.003-20.848 33.003-40.812v-95.008-46.371c-38.475-8.592-130.382-15.84-305.783 36.855-246.706 74.118-322.942 134.471-417.1772 115.412 0 0 4.145 13.812 9.744 30.859h147.8902z" fill="#58998c"/><path d="m371.253 433.83c5.673.458 11.276.755 16.756.927.05.002.101.003.151.005l.469-.005 89.919-.927h291.465c2.998 0 5.922-.327 8.745-.935 18.799-4.048 33.003-20.848 33.003-40.812v-95.008-46.371c-38.475-8.592-130.382-15.84-305.783 36.855-246.706 74.118-322.942 134.471-417.1772 115.412 0 0 4.145 13.812 9.744 30.859h147.8902z" fill="url(#c)"/><path d="m388.006 434.757h.62l89.919-.927h-107.295c5.673.458 11.276.755 16.756.927z" fill="#57f287"/><path d="m299.856 23.5591-93.176 107.9999 29.647 5.647-78.353 76.235 40.941 5.647-80.47 79.059 229.411 50.118-36.706-105.883 35.295 7.765-37.412-96 26.823 4.235z" fill="#244942"/><path d="m388.159 434.762.469-.005h-.62c.05.002.101.003.151.005z" fill="#29cc7a"/><path d="m1.28516 392.083c0 22.961 18.78704 41.747 41.74804 41.747h203.3998 124.818c5.673.458 11.276.755 16.756.927.05.002.101.003.151.005l.469-.005 89.919-.927h289.026c-143.947-21.473-331.644-60.454-455.361-116.624-143.412-65.112-264.3638-31.423-310.92584-13.296v10.322z" fill="#58998c"/><path d="m1.28516 392.083c0 22.961 18.78704 41.747 41.74804 41.747h203.3998 124.818c5.673.458 11.276.755 16.756.927.05.002.101.003.151.005l.469-.005 89.919-.927h289.026c-143.947-21.473-331.644-60.454-455.361-116.624-143.412-65.112-264.3638-31.423-310.92584-13.296v10.322z" fill="url(#d)"/><path d="m123.741 332.029-55.0588-188.47 56.1168 25.412-32.6668-167.08477h-49.099c-22.961 0-41.74804 18.78697-41.74804 41.74797v258.0278 12.57 77.851c0 22.961 18.78704 41.747 41.74804 41.747h48.353l-34.351-122.977z" fill="#244942"/><g fill="#efeb70"><path d="m270.765 67.3641c0 2.619-2.137 4.743-4.773 4.743s-4.773-2.124-4.773-4.743 2.137-4.742 4.773-4.742 4.773 2.123 4.773 4.742z"/><path d="m322.257 87.7894c0 2.619-2.137 4.742-4.773 4.742s-4.773-2.123-4.773-4.742 2.137-4.742 4.773-4.742 4.773 2.123 4.773 4.742z"/><path d="m256.382 116.212c0 2.619-2.137 4.742-4.773 4.742s-4.773-2.123-4.773-4.742 2.137-4.743 4.773-4.743 4.773 2.124 4.773 4.743z"/><path d="m337.507 212.007c0 2.619-2.137 4.742-4.773 4.742s-4.773-2.123-4.773-4.742 2.137-4.743 4.773-4.743 4.773 2.124 4.773 4.743z"/><path d="m187.917 201.938c0 2.619-2.137 4.742-4.773 4.742s-4.773-2.123-4.773-4.742 2.137-4.742 4.773-4.742 4.773 2.123 4.773 4.742z"/><path d="m252.066 237.897c0 2.619-2.137 4.742-4.773 4.742s-4.773-2.123-4.773-4.742 2.137-4.742 4.773-4.742 4.773 2.123 4.773 4.742z"/><path d="m281.698 171.732c0 2.619-2.137 4.743-4.773 4.743s-4.773-2.124-4.773-4.743 2.137-4.742 4.773-4.742 4.773 2.123 4.773 4.742z"/><path d="m321.398 266.952c0 2.619-2.137 4.742-4.773 4.742s-4.773-2.123-4.773-4.742 2.137-4.742 4.773-4.742 4.773 2.123 4.773 4.742z"/><path d="m186.476 265.514c0 2.619-2.137 4.742-4.773 4.742s-4.773-2.123-4.773-4.742 2.137-4.743 4.773-4.743 4.773 2.124 4.773 4.743z"/><path d="m716.058 29.0842c0 3.446-2.811 6.239-6.279 6.239s-6.279-2.793-6.279-6.239 2.811-6.239 6.279-6.239 6.279 2.793 6.279 6.239z"/><path d="m795.976 27.4514c0 3.446-2.811 6.238-6.279 6.238s-6.279-2.792-6.279-6.238 2.811-6.239 6.279-6.239 6.279 2.793 6.279 6.239z"/><path d="m768.492 83.2063c0 3.446-2.811 6.239-6.279 6.239s-6.279-2.793-6.279-6.239 2.811-6.239 6.279-6.239 6.279 2.793 6.279 6.239z"/><path d="m802.321 133.431c0 3.446-2.811 6.239-6.279 6.239s-6.28-2.793-6.28-6.239 2.812-6.239 6.28-6.239 6.279 2.793 6.279 6.239z"/><path d="m749.183 210.137c0 3.446-2.811 6.239-6.279 6.239s-6.279-2.793-6.279-6.239 2.811-6.238 6.279-6.238 6.279 2.792 6.279 6.238z"/><path d="m809.606 230.278c0 3.446-2.811 6.239-6.279 6.239s-6.28-2.793-6.28-6.239 2.812-6.239 6.28-6.239 6.279 2.793 6.279 6.239z"/><path d="m730.421 136.023c0 3.446-2.811 6.239-6.279 6.239s-6.279-2.793-6.279-6.239 2.811-6.239 6.279-6.239 6.279 2.793 6.279 6.239z"/><path d="m52.0562 263.424c0 8.305-6.777 15.038-15.136 15.038s-15.135-6.733-15.135-15.038 6.776-15.039 15.135-15.039 15.136 6.734 15.136 15.039z"/><path d="m48.1411 123.867c0 8.305-6.776 15.038-15.135 15.038s-15.135-6.733-15.135-15.038 6.776-15.038 15.135-15.038 15.135 6.733 15.135 15.038z"/><path d="m102.372 199.613c0 8.305-6.7764 15.038-15.1354 15.038s-15.135-6.733-15.135-15.038 6.776-15.039 15.135-15.039 15.1354 6.734 15.1354 15.039z"/><path d="m66.939 381.292c0 8.305-6.776 15.038-15.135 15.038s-15.136-6.733-15.136-15.038 6.777-15.039 15.136-15.039 15.135 6.734 15.135 15.039z"/></g></g><path d="m538.852 294.522h-329.164v-20.341h329.164z" fill="#332a26"/><path d="m572.678 226.006s-2.515 23.363-10.071 35.622c-3.333 5.409-8.094 9.659-13.614 12.748-6.485 3.63-14.073 5.262-16.83 13.012-2.521 7.089-.301 14.658 3.722 20.722 10.031 15.12 31.014 18.283 51.798 1.144s31.816-59.113 25.071-84.199c-4.789-17.811-18.598-23.19-25.345-20.748-14.934 5.405-14.731 21.699-14.731 21.699z" fill="#4e5ae8"/><path d="m599.522 332.821s-.031 17.226-.047 25.839c-.015 8.17-.045 24.51-.045 24.51s-13.112 10.843-8.225 20.977c4.886 10.133 33.374 12.798 50.994 6.081 12.717-4.849 11.73-16.253 9.724-27.584-.905-5.112-1.413-13.445-1.83-20.189-.568-9.183-.716-19.68-1.124-27.578-.742-14.39.07-21.299-11.252-29.749-15.689-11.709-38.402 5.647-38.195 27.693z" fill="#4e5ae8"/><path d="m578.865 203.343s-25.988 57.03-6.493 102.602c14.189 33.168 83.402 38.061 113.952 28.218 37.756-12.166 36.935-52.83 29.423-91.377s-21.7-60.061-21.7-60.061-110.174 2.689-115.182 20.618z" fill="#698eff"/><path d="m687.451 172.204c6.562 18.214-11.497 41.403-40.336 51.794-28.839 10.39-57.538 4.048-64.1-14.166-6.563-18.215 11.496-41.404 40.335-51.794s57.538-4.049 64.101 14.166z" fill="#4e5ae8"/><path d="m694.472 238.19s21.578 9.301 31.061 20.139c4.184 4.782 6.839 10.585 8.161 16.77 1.553 7.268.872 15 7.463 19.922 6.028 4.501 13.916 4.614 20.898 2.561 17.408-5.12 26.623-24.235 16.384-49.152-2.856-6.949-7.78-13.743-13.962-19.949-15.982-16.049-40.363-28.168-59.083-28.861-18.431-.683-27.648 10.923-27.307 18.09.756 15.864 16.385 20.48 16.385 20.48z" fill="#698eff"/><path d="m641.387 336.978s3.008 19.757 4.512 29.635c1.043 6.85 3.128 20.548 3.128 20.548s-12.793 7.008-8.333 21.504c4.044 13.142 34.555 11.146 51.306 7.582 14.659-3.12 10.196-19.157 9.5-30.643-.356-5.869-1.974-14.139-3.668-22.741-1.812-9.205-3.711-18.791-4.24-26.22-1.025-14.373-3.681-22.421-16.398-25.098-13.825-2.911-36.447 3.395-35.807 25.433z" fill="#698eff"/><path d="m539.33 186.979 10.923-1.36c13.31-1.657 22.892-14.555 21.294-28.663l-2.804-24.756c-1.599-14.108-13.795-24.295-27.105-22.638l-10.924 1.361c-13.31 1.657-22.892 14.555-21.294 28.663l2.805 24.756c1.598 14.108 13.795 24.294 27.105 22.637z" fill="#698eff"/><path d="m536.236 168.001 12.834-1.598c2.262-.282 3.892-2.474 3.62-4.872l-3.963-34.985c-.272-2.405-2.352-4.141-4.621-3.859l-12.823 1.597c-5.305.661-9.124 5.801-8.487 11.424l2.636 23.27c.637 5.623 5.499 9.683 10.804 9.023z" fill="#b7cdff"/><path d="m625.352 55.5828s9.629-11.7546 13.704-16.6589c6.273-7.5488 19.578-14.2282 32.518-6.5666 10.983 6.5018 14.222 18.0602 5.42 30.8029-8.676 12.56-15.022 12.8883-15.022 12.8883l-60.784 7.4099z" fill="#55f186"/><path d="m649.374 62.3175c-.97.1212-1.983-.2163-2.726-1.01-1.281-1.3677-1.274-3.5745.013-4.9279 15.574-16.3643 16.395-40.264 16.402-40.5039.052-1.9232 1.563-3.4306 3.382-3.3742 1.815.0606 3.244 1.6682 3.192 3.5914-.029 1.0916-.923 26.9414-18.339 45.2415-.54.5682-1.221.8956-1.924.9831z" fill="#008c43"/><path d="m670.514 75.5306s-17.789-11.162-39.82-35.2393c-16.095-17.5898-25.372-27.1409-42.352-20.5827-14.105 5.4472-21.321 18.9507-11.183 37.5505 11.547 21.1862 39.466 30.4351 39.466 30.4351z" fill="#25cb79"/><path d="m615.459 68.9901c-.743.0925-1.521-.0817-2.196-.553-14.153-9.8819-20.742-25.1361-21.015-25.7808-.746-1.7565-.008-3.8178 1.648-4.603 1.652-.7844 3.6 0 4.347 1.754.06.1397 6.126 14.0834 18.63 22.8139 1.518 1.0605 1.941 3.2211.944 4.8269-.553.893-1.429 1.4267-2.358 1.542z" fill="#008c43"/><path d="m626.02 196.039 2.913 47.545c7.142-1.602 14.967-3.807 23.481-6.768-.409-16.882-2.489-33.547-3.785-42.524z" fill="#c0001e"/><path d="m682.026 192.061-.159-.334-19.379 1.496c1.826 10.568 1.865 27.927 1.65 39.193 7.185-2.886 14.804-6.289 22.863-10.286.54-18.55-4.975-30.069-4.975-30.069z" fill="#c0001e"/><path d="m567.267 200.575s-14.853 10.694-4.456 33.864c0 0 1.783 5.05 7.427 8.318 0 0 2.17 1.134 6.603 2.277-6.362-24.821-.959-39.112-.959-39.112l11.486-3.763c-3.462 17.02.323 35.919 2.636 44.938 6.648.49 15.017.389 25.171-1.009-1.464-15.496-1.676-38.168-1.685-49.082z" fill="#c0001e"/><path d="m712.798 189.337-17.384 1.343c2.507 8.076 2.669 17.852 2.114 26.024 4.198-2.248 8.502-4.649 12.92-7.217 0 0 1.098-.78 2.59-2.306.81-7.832.169-14.696-.24-17.844z" fill="#c0001e"/><path d="m587.369 202.159-11.486 3.763s-5.403 14.291.958 39.112c3.196.824 7.573 1.65 13.164 2.063-2.313-9.019-6.098-27.918-2.636-44.938z" fill="#db5656"/><path d="m613.492 197.006c.009 10.913.222 33.586 1.685 49.082 4.269-.588 8.85-1.404 13.755-2.504l-2.914-47.545z" fill="#db5656"/><path d="m662.492 193.221-13.867 1.071c1.296 8.976 3.376 25.642 3.785 42.524 3.774-1.313 7.684-2.775 11.732-4.401.215-11.267.176-28.626-1.65-39.194z" fill="#db5656"/><path d="m695.415 190.681-13.544 1.045.159.335s5.516 11.519 4.975 30.069c3.43-1.701 6.934-3.502 10.524-5.425.555-8.171.392-17.947-2.114-26.024z" fill="#db5656"/><path d="m712.801 189.338c.408 3.147 1.049 10.011.239 17.844 3.035-3.107 7.706-9.326 8.104-18.489z" fill="#db5656"/><g fill="#000"><path d="m673.652 273.422c4.184 9.116 9.31 7.101 9.31 7.101 20.75-3.734 28.181-8.295 28.181-8.295 2.801-1.861 3.121-5.685 2.804-8.867-8.536 3.064-26.401 8.959-40.295 10.061z"/><path d="m669.688 244.252c.055 7.063.544 12.972 1.012 17.077 8.377-1.658 27.137-5.636 40.659-10.461-.802-4.272-1.582-9.03-2.311-13.869-17.292 5.383-32.146 6.854-39.36 7.253z"/><path d="m671.641 217.927c-.904 5.562-1.436 10.949-1.711 15.994 10.452-.474 29.459-5.847 37.509-8.248-.689-5.115-1.294-9.936-1.777-13.938-9.598 2.558-26.729 5.147-34.021 6.192z"/><path d="m704.581 202.461c-.104-.935-.16-1.453-.16-1.453-.297-8.197-6.281-6.969-6.281-6.969-15.584 2.451-19.294 5.828-19.294 5.828-3.261 1.922-4.789 6.396-5.393 8.78 10.685-1.089 24.593-4.486 31.128-6.186z"/><path d="m670.699 261.33c.453 3.969.886 6.253.886 6.253.639 2.334 1.34 4.251 2.068 5.84 13.895-1.102 31.759-6.997 40.295-10.062-.282-2.819-1.064-5.135-1.064-5.135-.513-2.191-1.024-4.679-1.526-7.357-13.522 4.825-32.282 8.803-40.659 10.461z"/><path d="m669.928 233.921c-.199 3.642-.265 7.107-.239 10.331 7.214-.399 22.068-1.869 39.36-7.253-.573-3.795-1.115-7.636-1.612-11.327-8.05 2.402-27.057 7.775-37.509 8.249z"/><path d="m705.662 211.735c-.507-4.205-.881-7.5-1.078-9.276-6.535 1.701-20.443 5.098-31.128 6.187-.239.944-.334 1.56-.334 1.56-.579 2.6-1.068 5.179-1.481 7.721 7.292-1.045 24.423-3.634 34.021-6.192z"/></g><path d="m639.398 276.197c2.13 11.671 8.374 10.82 8.374 10.82 24.061 1.633 33.568-1.486 33.568-1.486 3.622-1.339 5.031-5.642 5.556-9.39-10.318 1.084-31.772 2.758-47.498.056z" fill="#c0001e"/><path d="m643.042 241.542c-1.886 8.133-2.972 15.064-3.585 19.915 9.756.486 31.674 1.272 48.013-.412.289-5.137.736-10.829 1.26-16.598-20.678 1.249-37.57-1.303-45.688-2.905z" fill="#c0001e"/><path d="m652.467 211.845c-2.537 6.135-4.614 12.173-6.311 17.892 11.732 2.44 34.312 1.694 43.909 1.232.645-6.075 1.303-11.789 1.871-16.526-11.359.2-31.088-1.717-39.469-2.598z" fill="#c0001e"/><path d="m693.295 203.476c.142-1.104.223-1.714.223-1.714 1.931-9.506-5.05-9.804-5.05-9.804-17.972-1.634-23.022 1.189-23.022 1.189-4.149 1.276-7.079 5.982-8.407 8.549 12.159 1.8 28.535 1.868 36.256 1.78z" fill="#c0001e"/><path d="m639.457 261.457c-.592 4.692-.742 7.44-.742 7.44.066 2.865.315 5.268.686 7.301 15.725 2.702 37.179 1.028 47.498-.056.464-3.32.235-6.205.235-6.205.036-2.665.155-5.67.336-8.891-16.339 1.684-38.257.898-48.013.411z" fill="#db5656"/><path d="m646.157 229.737c-1.225 4.13-2.253 8.092-3.114 11.805 8.118 1.602 25.01 4.153 45.688 2.904.41-4.524.869-9.094 1.334-13.477-9.596.461-32.176 1.208-43.908-1.232z" fill="#db5656"/><path d="m691.937 214.445c.596-4.977 1.091-8.871 1.362-10.967-7.721.088-24.096.02-36.256-1.78-.526 1.017-.801 1.7-.801 1.7-1.36 2.822-2.613 5.645-3.773 8.449 8.381.881 28.109 2.798 39.468 2.598z" fill="#db5656"/><path d="m701.118 198.253c-25.254 4.397-93.708 12.887-116.243 12.944-22.413.056-48.542-16.578-50.848-43.912l-2.465-42.59c-3.651-40.059 13.855-52.9919 47.152-59.5215 35.566-6.9748 100.168-13.0751 112.232-13.9538 33.083-2.4105 51.303 17.1605 53.609 44.495l5.009 48.4253c2.546 30.179-16.956 48.631-48.446 54.113z" fill="#698eff"/><path d="m754.749 162.404-10.924 1.36c-13.309 1.657-25.506-8.529-27.104-22.637l-2.805-24.757c-1.598-14.107 7.984-27.005 21.294-28.6623l10.924-1.3601c13.31-1.6572 25.507 8.5294 27.105 22.6374l2.804 24.755c1.599 14.108-7.984 27.007-21.294 28.664z" fill="#698eff"/><path d="m753.52 143.194-12.834 1.598c-2.262.282-4.336-1.451-4.608-3.849l-3.962-34.983c-.273-2.405 1.361-4.604 3.63-4.887l12.822-1.5963c5.305-.6607 10.167 3.3993 10.804 9.0223l2.636 23.27c.637 5.624-3.183 10.764-8.488 11.425z" fill="#b7cdff"/><path d="m659.234 179.201s2.895-.186 8.435-2.711c5.415-2.468 6.677-4.046 5.932-2.947 0 0-4.943 4.873-14.367 5.658z" fill="#ffacd6"/><path d="m647.863 180.669s17.539-.262 26.962-8.115" stroke="#080201" stroke-linecap="round" stroke-linejoin="round" stroke-width="4"/><path d="m638.397 172.3-38.967 4.595c-14.646 1.727-27.996-9.561-29.663-25.085l-2.502-23.291c-.98-9.123 5.261-17.419 13.869-18.434l57.176-6.743c8.264-.974 15.796 5.394 16.737 14.154l3.071 28.591c1.394 12.974-7.481 24.769-19.721 26.213z" fill="#b7cdff"/><path d="m631.122 156.264-9.116 1.135c-3.128.39-5.995-2.005-6.37-5.319l-.029-.257c-.375-3.314 1.876-6.345 5.004-6.735l9.117-1.134c3.127-.39 5.993 2.004 6.369 5.318l.029.257c.375 3.314-1.876 6.345-5.004 6.735z" fill="#698eff"/><path d="m597.853 160.405-9.117 1.136c-3.128.389-5.993-2.005-6.369-5.32l-.029-.256c-.376-3.315 1.876-6.345 5.003-6.735l9.117-1.135c3.128-.389 5.994 2.004 6.369 5.319l.03.256c.375 3.315-1.877 6.346-5.004 6.735z" fill="#698eff"/><path d="m563.322 143.441c.679 5.996-3.356 11.427-9.013 12.132-5.657.704-10.793-3.586-11.473-9.582-.679-5.996 3.357-11.428 9.014-12.132 5.656-.705 10.793 3.586 11.472 9.582z" fill="#080201"/><path d="m686.085 128.041c.679 5.996-3.357 11.428-9.014 12.133-5.656.704-10.794-3.587-11.473-9.583-.679-5.995 3.357-11.428 9.013-12.132 5.657-.704 10.795 3.586 11.474 9.582z" fill="#080201"/><path d="m243.906 307.871h263.612l-5.325 63.898-25.558 29.819h-209.568l-21.468-29.287z" fill="#96593e"/><path d="m343.063 359.422h-54.079" stroke="#b2755d" stroke-linecap="round" stroke-linejoin="round" stroke-width="2.595"/><path d="m251.77 330.52h35.73" stroke="#b2755d" stroke-linecap="round" stroke-linejoin="round" stroke-width="2.595"/><path d="m449.367 333.172h51.182" stroke="#b2755d" stroke-linecap="round" stroke-linejoin="round" stroke-width="2.595"/><path d="m403.199 367.412h51.182" stroke="#b2755d" stroke-linecap="round" stroke-linejoin="round" stroke-width="2.595"/><path d="m488.533 381.168h-236.549v23.026h236.549z" fill="#bc973b"/><path d="m268.889 400.008h-28.42l-18.317-90.014h26.69z" fill="#bc973b"/><path d="m263.656 400.008h-28.42l-20.912-90.014h29.285z" fill="#e0b848"/><path d="m479.941 400.008h28.42l18.317-90.014h-26.69z" fill="#bc973b"/><path d="m485.172 400.008h28.42l20.912-90.014h-29.286z" fill="#e0b848"/><path d="m533.371 315.911h-315.788c-5.151 0-7.812-4.008-9.365-8.777l-3.46-12.428c0-4.827 4.214-8.775 9.365-8.775h322.708c5.151 0 9.365 3.948 9.365 8.775l-3.46 12.428c-2.292 5.196-4.214 8.777-9.365 8.777z" fill="#ffd85a"/><path d="m509.065 419.044h-268.212c-5.151 0-7.813-4.277-9.366-9.366l-3.46-13.263c0-5.151 4.215-9.365 9.366-9.365h275.132c5.151 0 9.365 4.214 9.365 9.365l-3.46 13.263c-2.291 5.545-4.214 9.366-9.365 9.366z" fill="#ffd85a"/><path d="m517.885 271.187h-295.35l5.966-68.722 28.634-32.07h234.8l24.052 31.498z" fill="#96593e"/><path d="m512.532 235.041h-54.079" stroke="#b2755d" stroke-linecap="round" stroke-linejoin="round" stroke-width="2.595"/><path d="m350.295 217.175h-54.08" stroke="#b2755d" stroke-linecap="round" stroke-linejoin="round" stroke-width="2.595"/><path d="m423.691 218.14h35.731" stroke="#b2755d" stroke-linecap="round" stroke-linejoin="round" stroke-width="2.595"/><path d="m232.48 238.903h35.731" stroke="#b2755d" stroke-linecap="round" stroke-linejoin="round" stroke-width="2.595"/><path d="m394.719 180.478h51.182" stroke="#b2755d" stroke-linecap="round" stroke-linejoin="round" stroke-width="2.595"/><path d="m246.484 183.375h51.182" stroke="#b2755d" stroke-linecap="round" stroke-linejoin="round" stroke-width="2.595"/><path d="m233.689 262.952h10.044s-6.389-13.212-.507-54.973c2.904-20.614 14.496-36.493 14.496-36.493l5.021-1.435s-2.152-3.945-5.021-5.021c-2.87-1.076-11.838 2.869-19.011 24.39-7.174 21.522-5.022 73.532-5.022 73.532z" fill="#bc973b"/><path d="m236.915 263.31s-3.587-21.521-.358-49.857c2.371-20.821 12.195-43.402 18.652-47.706 0 0-18.293 0-31.206 8.968-4.167 2.893-19.37 35.151-13.631 88.954z" fill="#e0b848"/><path d="m514.722 262.952h-10.044s6.388-13.212.506-54.973c-2.904-20.614-14.495-36.493-14.495-36.493l-5.021-1.435s2.152-3.945 5.021-5.021c2.87-1.076 11.837 2.869 19.01 24.39 7.174 21.522 5.023 73.532 5.023 73.532z" fill="#bc973b"/><path d="m511.492 263.31s3.587-21.521.358-49.857c-2.371-20.821-12.194-43.402-18.651-47.706 0 0 18.293 0 31.206 8.968 4.167 2.893 19.369 35.151 13.63 88.954z" fill="#e0b848"/><path d="m537.546 282.175h-324.138c-4.758 0-8.65-3.893-8.65-8.65v-9.992c0-4.757 3.892-8.65 8.65-8.65h324.138c4.757 0 8.65 3.893 8.65 8.65v9.992c0 4.757-3.893 8.65-8.65 8.65z" fill="#ffd85a"/><path d="m392.616 265.352h-23.736c-4.757 0-8.65-3.893-8.65-8.65v-84.581c0-4.757 3.893-8.65 8.65-8.65h23.736c4.758 0 8.65 3.893 8.65 8.65v84.581c0 4.757-3.892 8.65-8.65 8.65z" fill="#e0b848"/><path d="m434.411 286.202c0 29.695-23.598 53.768-52.709 53.768s-52.71-24.073-52.71-53.768c0-29.696 23.599-53.769 52.71-53.769s52.709 24.073 52.709 53.769z" fill="#bc973b"/><path d="m429.567 286.202c0 26.434-21.429 47.863-47.863 47.863-26.435 0-47.864-21.429-47.864-47.863s21.429-47.863 47.864-47.863c26.434 0 47.863 21.429 47.863 47.863z" fill="#ffd85a"/><path d="m351.261 313.844c-.534-2.383-.816-4.864-.816-7.413 0-18.264 14.48-33.071 32.34-33.071 17.861 0 32.339 14.807 32.339 33.071 0 2.229-.215 4.406-.626 6.511l-14.72.376c.221-1.229.336-2.498.336-3.799 0-10.659-7.758-19.299-17.329-19.299s-17.33 8.64-17.33 19.299c0 1.487.151 2.935.438 4.325z" fill="#afafaf"/><path d="m419.156 311.917c.615 3.241.941 6.615.941 10.082 0 24.843-11.97 44.983-37.314 44.983-24.455 0-37.314-20.14-37.314-44.983 0-3.031.249-5.992.723-8.855z" fill="#635d5a"/><path d="m393.716 330.776c0 5.684-4.608 10.292-10.291 10.292-5.684 0-10.292-4.608-10.292-10.292s4.608-10.292 10.292-10.292c5.683 0 10.291 4.608 10.291 10.292z" fill="#000"/><path d="m396.813 352.258h-26.461l8.65-16.111h9.161z" fill="#000"/><path d="m382.506 299.668c-5.748 0-10.451-4.703-10.451-10.452v-17.42c0-5.749 4.703-10.453 10.451-10.453 5.749 0 10.453 4.704 10.453 10.453v17.42c0 5.749-4.704 10.452-10.453 10.452z" fill="#bc973b"/></g></svg>