<svg width="166" height="63" fill="none" xmlns="http://www.w3.org/2000/svg"><path d="M124.471 23.233h-16.785a7.053 7.053 0 0 1-3.202-.77 7.014 7.014 0 0 1-2.498-2.138l-6.572-9.004a15.714 15.714 0 0 0-5.582-4.759 15.791 15.791 0 0 0-7.143-1.716H55.043a14.677 14.677 0 0 0-10.34 4.265 14.61 14.61 0 0 1-4.743 3.157 14.66 14.66 0 0 1-5.596 1.107h-2.288c-1.593 0-3.17.313-4.642.92a12.121 12.121 0 0 0-3.933 2.62 12.058 12.058 0 0 0-2.625 3.92 12.013 12.013 0 0 0-.917 4.622v9.9c0 .903-.247 1.789-.716 2.562a4.97 4.97 0 0 1-1.942 1.824 17.858 17.858 0 0 0-6.957 6.564 17.75 17.75 0 0 0-2.555 9.196v7.27H153.83V52.454c0-3.838-.759-7.638-2.234-11.183a29.21 29.21 0 0 0-6.363-9.481 29.353 29.353 0 0 0-9.526-6.335 29.47 29.47 0 0 0-11.236-2.223Z" fill="url(#a)"/><path d="M39.35 57.13c14.206 0 25.72-11.464 25.72-25.605S53.557 5.92 39.35 5.92c-14.204 0-25.72 11.464-25.72 25.605 0 14.14 11.516 25.604 25.72 25.604Z" fill="#FFE55C"/><path d="m31.98 56.097.23-17.617c-6.526-.382-10.288 2.484-13.32 8.599a26.03 26.03 0 0 0 13.09 9.018Z" fill="#698EFF"/><path d="M21.922 31.028a2.115 2.115 0 0 0 1.447-.682c.373-.408.57-.945.55-1.496-.1-1.786-.036-3.577.192-5.35.23-1.988 1.765-3.593 3.877-4.09 2.111-.497 7.754-.955 12.015-1.146 4.262-.191 9.981-.23 12.131.076a4.81 4.81 0 0 1 2.692 1.183 4.772 4.772 0 0 1 1.492 2.524 25.95 25.95 0 0 1 .692 5.35c.03.541.271 1.048.674 1.413a2.078 2.078 0 0 0 2.263.35 2.074 2.074 0 0 0 1.08-1.158c.095-.254.139-.525.129-.796a31.655 31.655 0 0 0-.73-6c-.806-3.668-3.8-6.382-7.678-6.955-2.917-.42-9.712-.23-12.898-.114-3.186.114-9.981.61-12.86 1.26-3.8.918-6.565 3.899-7.025 7.606a30.314 30.314 0 0 0-.192 6.038 2.056 2.056 0 0 0 .66 1.437 2.076 2.076 0 0 0 1.49.55Z" fill="#000"/><path d="m53.363 48.187-2.61-11.35-20.308 1.872a99.873 99.873 0 0 0-6.18 13.567 25.78 25.78 0 0 0 27.14 1.873c1.113-3.287 1.958-5.962 1.958-5.962Z" fill="#698EFF"/><path d="M47.566 40.123c4.261-4.28 16.66-13.948 16.66-13.948a22.324 22.324 0 0 0 1.843-2.6c.576-.955 1.19-1.91 1.996-2.025.806-.114 1.958.42 1.881 1.223-.153 1.605-.383 2.828-.383 2.828s1.957-.038 3.646.115c1.69.153 2.726.726 3.34 2.484.614 1.758.269 2.828-.844 3.554-1.114.726-3.724 1.72-5.912 2.522-1.152 1.452-11.594 13.49-19.502 18.344l-2.725-12.497Z" fill="url(#b)"/><path d="m53.017 37.41-21.92 1.185c3.724 3.516 10.48 5.273 15.74 4.012 5.259-1.26 6.18-5.197 6.18-5.197Z" fill="#416EFA"/><path d="M59.236 22.276a24.136 24.136 0 0 0-2.88.039.422.422 0 0 0-.422.458l.5 10.968a.457.457 0 0 0 .498.42c1.037-.038 1.805-.114 2.841-.229a3.499 3.499 0 0 0 2.2-1.075 3.47 3.47 0 0 0 .948-2.25 40.713 40.713 0 0 0-.23-5.311 3.51 3.51 0 0 0-1.167-2.146 3.54 3.54 0 0 0-2.288-.873Z" fill="#698EFF"/><path d="M58.775 24.15h-2.073a.656.656 0 0 0-.627.365.648.648 0 0 0-.064.246l.269 5.847a.65.65 0 0 0 .73.535c1.074-.039 1.305-.077 2.072-.153.768-.077 1.498-.65 1.536-1.3.07-1.48.007-2.964-.192-4.433-.115-.611-.806-1.07-1.65-1.108Z" fill="#B7CCFF"/><path d="M61.31 33.673c2.247-.062 3.991-2.866 3.896-6.263-.096-3.397-1.994-6.1-4.24-6.037-2.247.062-3.99 2.866-3.895 6.263.095 3.397 1.993 6.1 4.24 6.037Z" fill="#FF78B7"/><path d="M59.607 34.447c2.373-.066 4.211-3.198 4.105-6.996-.107-3.797-2.118-6.822-4.491-6.756-2.374.066-4.212 3.198-4.105 6.995.106 3.798 2.117 6.823 4.49 6.757Z" fill="#000"/><path d="M22.805 28.582a26.97 26.97 0 0 1 .192-5.694c.308-2.866 2.419-5.121 5.336-5.809 2.918-.688 8.139-.994 12.208-1.184 4.07-.192 9.904-.23 12.284.114a6.847 6.847 0 0 1 3.768 1.73 6.796 6.796 0 0 1 2.067 3.582c.412 1.846.644 3.727.691 5.618.138 1.9.073 3.808-.192 5.694a6.826 6.826 0 0 1-1.744 3.745 6.88 6.88 0 0 1-3.592 2.064c-2.341.535-8.176.993-12.207 1.185-4.031.19-9.904.229-12.285-.115a6.808 6.808 0 0 1-3.773-1.724 6.758 6.758 0 0 1-2.062-3.588 29.183 29.183 0 0 1-.69-5.618Z" fill="#698EFF"/><path d="m42.537 32.06 5.528-.268c2.764-.114 4.491-1.643 4.837-3.63.345-1.988.23-3.134-.077-5.16-.307-2.025-1.497-2.292-2.956-2.216l-9.444.42a2.62 2.62 0 0 0-1.837.829 2.598 2.598 0 0 0-.696 1.885l.192 3.745c.115 2.98 1.689 4.51 4.453 4.395Z" fill="#B7CCFF"/><path d="m48.68 27.092 1.19-.077a1.08 1.08 0 0 1 1.075.58c.066.129.105.27.114.414a1.066 1.066 0 0 1-.69 1 1.08 1.08 0 0 1-.423.07h-1.19a1.078 1.078 0 0 1-1.19-.955 1.067 1.067 0 0 1 .699-.966c.132-.049.273-.071.414-.066ZM43.036 27.321h1.228a1.041 1.041 0 0 1 1.154.531 1.03 1.03 0 0 1-1.077 1.494l-1.19.077c-.3.021-.595-.075-.825-.267a1.144 1.144 0 0 1-.403-.765 1.145 1.145 0 0 1 1.113-1.07Z" fill="#698EFF"/><path d="M34.86 26.557a1.57 1.57 0 0 0 1.573-1.567 1.57 1.57 0 0 0-1.574-1.567 1.57 1.57 0 0 0-1.574 1.567 1.57 1.57 0 0 0 1.574 1.567ZM55.934 25.64c.849 0 1.536-.702 1.536-1.567 0-.866-.688-1.567-1.535-1.567-.849 0-1.536.701-1.536 1.567 0 .865.687 1.567 1.535 1.567Z" fill="#000"/><path d="m21.654 23.92 2.84-.23a.464.464 0 0 1 .461.274.458.458 0 0 1 .038.185l.461 10.968a.458.458 0 0 1-.422.459h-2.88a3.502 3.502 0 0 1-2.272-.877 3.473 3.473 0 0 1-1.144-2.142 30.585 30.585 0 0 1-.23-5.313c.048-.834.39-1.624.966-2.232a3.576 3.576 0 0 1 2.182-1.092Z" fill="#698EFF"/><path d="M22.306 25.792c.685-.116 1.378-.18 2.073-.19a.616.616 0 0 1 .691.534l.269 5.886a.687.687 0 0 1-.691.611h-2.073c-.806-.038-1.536-.497-1.613-1.147a19.059 19.059 0 0 1-.192-4.433c.039-.65.692-1.184 1.536-1.26Z" fill="#B7CCFF"/><path d="M23.535 36.072c2.418-.19 4.146-3.477 3.877-7.375-.269-3.898-2.457-6.879-4.875-6.726l-2.188.153.998 14.101 2.188-.153Z" fill="#000"/><path d="M21.352 36.19c2.412-.167 4.144-3.46 3.87-7.356-.273-3.895-2.45-6.916-4.86-6.749-2.411.168-4.144 3.462-3.87 7.357.273 3.895 2.45 6.917 4.86 6.749Z" fill="#000"/><path d="M20.382 35.492c2.136-.148 3.671-3.068 3.429-6.521-.243-3.453-2.17-6.132-4.307-5.983-2.136.149-3.671 3.068-3.429 6.521.243 3.453 2.171 6.132 4.307 5.983Z" fill="#FF78B7"/><path d="M16.663 29.538c.192 2.369 1.306 4.089 2.61 4.05h.193c.576-.076 1.113-.611 1.459-1.413.333-.93.464-1.92.383-2.905-.191-2.407-1.343-4.165-2.648-4.05a1.846 1.846 0 0 0-1.114.534c-.652.803-.998 2.178-.883 3.784Zm.883-.077c-.153-1.872.461-3.286 1.114-3.401h.076c.691-.038 1.574 1.338 1.69 3.248a5.672 5.672 0 0 1-.307 2.484c-.23.535-.538.88-.884.917-.69 0-1.573-1.337-1.689-3.248Z" fill="#fff"/><path d="M29.945 16.773c-4.3.65-5.144 3.325-4.952 7.376l-3.11-2.14 1.69-3.516 5.796-2.751.576 1.031Z" fill="#000"/><path d="m34.169 12.379-1.229-.344-1.689-.688c-2.15-.994-3.033-3.554-.345-4.7 0 0 2.341-2.065 6.103 1.107 1.037.918 1.613.688 2.304.574l-3.225 3.63-1.92.42Z" fill="#00F67A"/><path d="M37.24 11.385a.577.577 0 0 0 .498-.65.57.57 0 0 0-.408-.553.58.58 0 0 0-.244-.02c-.077 0-3.762 0-7.409-6.917a.626.626 0 0 0-1.113.573c4.107 7.758 8.407 7.605 8.599 7.605l.077-.038Z" fill="#00912F"/><path d="M32.94 12.035c-.115-.077 2.111.726 4.606-2.905l1.075-1.567c.998-1.414 3.34-4.471 6.373-3.363 0 0 2.687 1.147 1.151 4.013a5.702 5.702 0 0 1-1.612 1.834c-1.727 1.261-6.104 3.86-11.593 1.988Z" fill="#00D071"/><path d="M35.282 12.57c.495.076.996.114 1.497.114a8.558 8.558 0 0 0 3.383-.678 8.523 8.523 0 0 0 2.836-1.959c.454-.458.866-.957 1.228-1.49a.61.61 0 0 0-.192-.879.655.655 0 0 0-.844.191c-1.305 1.911-3.647 3.898-7.908 4.7Z" fill="#00912F"/><path d="M40.464 33.894c-.269-.917-5.22-1.91-6.219-1.414a1.148 1.148 0 0 0-.499 1.147l5.758 2.063c.73-.535 1.114-1.223.96-1.796Z" fill="#D11583"/><path d="M37.815 32.71c-1.42-.345-3.032-.497-3.57-.23a1.148 1.148 0 0 0-.499 1.147l4.146.993c.082-.26.12-.53.115-.802a3.541 3.541 0 0 0-.192-1.109Z" fill="#000"/><path d="M36.587 36.455a3.934 3.934 0 0 0 2.917-.765 8.344 8.344 0 0 0-3.186-1.681 9.136 9.136 0 0 0-2.572-.382c.082.721.408 1.394.924 1.908a3.23 3.23 0 0 0 1.917.92Z" fill="#FFA8D2"/><path d="M34.322 56.747c2.073 1.185 4.798-1.337 7.255-4.165 1.536 1.299 3.11 2.025 4.683 2.025 1.574 0 2.841-.497 4.684-1.72.844 2.255 2.226 4.624 4.3 3.67 2.072-.956 2.188-3.746 1.381-6.956a3.97 3.97 0 0 0-.955-1.808 3.996 3.996 0 0 0-1.732-1.097c-1.497-.458-3.57-.65-5.95-.726-3.11-.076-6.488-.076-8.983.574a5.22 5.22 0 0 0-2.88 2.101c-2.11 3.058-4.375 6.65-1.803 8.102Z" fill="#3E3B75"/><path d="m50.406 49.41-1.458 1.07a3.003 3.003 0 0 1-3.647-.038l-1.267-.994a.838.838 0 0 1 .614-1.414h5.374a.732.732 0 0 1 .767.529.723.723 0 0 1-.383.847Z" fill="#00D071"/><path d="M52.48 50.327c0 .401.326.726.73.726.402 0 .728-.325.728-.726v-1.59a.728.728 0 0 0-.729-.726.728.728 0 0 0-.73.726v1.59ZM40.272 50.327c0 .401.327.726.73.726.402 0 .729-.325.729-.726v-1.59a.728.728 0 0 0-.73-.726.728.728 0 0 0-.729.726v1.59Z" fill="#000"/><path d="M27.258 53.078a.578.578 0 0 0 .5-.267l3.915-6.23a.647.647 0 0 0-.192-.84.655.655 0 0 0-.845.191l-3.915 6.23a.647.647 0 0 0 .192.84c.104.06.225.088.345.076Z" fill="#4774FF"/><path d="M18.89 47.079c-3.263 6.573-2.073 11.12 3.992 11.12h5.451a4.51 4.51 0 0 1 1.881.42c3.379 1.606 5.643 1.53 7.64-1.107 1.996-2.637 1.382-5.16-.845-6.765-2.227-1.605-4.798-1.872-7.64-1.872h-7.178l-3.301-1.796Z" fill="url(#c)"/><path d="M122.238 53.59c13.511 0 24.464-10.903 24.464-24.354 0-13.45-10.953-24.354-24.464-24.354S97.774 15.786 97.774 29.236s10.953 24.354 24.464 24.354Z" fill="#57EF84"/><path d="M110.828 41.912c-.965.356-1.931.748-2.861 1.175l-.787.356a36.245 36.245 0 0 0-3.612 2.065 25.68 25.68 0 0 0 4.614 3.952 18.327 18.327 0 0 1 1.86-.961l.786-.356 1.968-.784a2.917 2.917 0 0 0 1.646-1.49 2.876 2.876 0 0 0 .106-2.213 2.887 2.887 0 0 0-1.497-1.639 2.914 2.914 0 0 0-2.223-.105Z" fill="#CFCFDA"/><path d="m107.967 43.087-.787.356 2.861 5.056.787-.356-2.861-5.056Z" fill="#B4B4C8"/><path d="M116.802 53.52a25.424 25.424 0 0 0 16.309-2.173l-1.252-4.949a7.004 7.004 0 0 0-2.381-3.704 7.062 7.062 0 0 0-4.128-1.566l-9.657-.391c-2.861-.143-4.542.534-6.581 4.166l-2.217 4.344a26.096 26.096 0 0 0 9.907 4.272Z" fill="url(#d)"/><path d="M131.001 40.488a3.273 3.273 0 0 1-1.15 2.223 3.3 3.3 0 0 1-2.391.767l-2.182-.178h-.787l-4.757-.391h-.822l-4.757-.392h-.787a2.435 2.435 0 0 1-1.418-.914 2.416 2.416 0 0 1-.478-1.614l.215-2.563 2.075.142.786.071 4.757.356.823.071 4.757.356h.787l5.436.428-.107 1.638Z" fill="#6990FF"/><path d="M113.69 42.41h-.322l.394-4.949.786.071-.393 4.95-.465-.072ZM119.362 37.902l-.384 4.97.802.062.384-4.97-.802-.062ZM124.936 38.343l-.384 4.97.802.061.384-4.97-.802-.061Z" fill="#3D6BF2"/><path d="M102.817 27.919c-.966-.107-1.896 1.175-2.11 2.884-.215 1.709.465 3.204 1.43 3.311l3.327.356.679-6.195-3.326-.356Z" fill="#698FFF"/><path d="m111.33 24.002-.573-.25c-1.573-.711-5.043-2.491-5.937-4.877-.572-1.495-.429-3.49 2.361-5.768.187-.174.39-.329.608-.463 1.717-.961 4.113-.783 4.685 2.279.528 2.557.839 5.153.93 7.762 0 1.317-1.001 1.78-2.074 1.317Z" fill="#E8E8E8"/><path d="M110.757 23.753c-1.573-.712-5.043-2.492-5.937-4.878-.572-1.495-.429-3.49 2.361-5.768.187-.174.39-.329.608-.463l2.968 11.109Z" fill="#FF78B9"/><path d="M140.908 16.81a3.562 3.562 0 0 0-.501-.534c-1.502-1.318-3.863-1.602-5.079 1.282a61.308 61.308 0 0 0-1.895 5.34c-.036-.142-.107-.32-.143-.498-1.109-3.988-3.756-8.011-9.264-8.51-5.508-.498-8.691 2.35-10.551 5.768-.715 1.318-1.216 2.243-4.685 4.06-1.753.89-5.043 2.527-5.508 7.05a8.235 8.235 0 0 0 1.747 5.91 8.31 8.31 0 0 0 5.37 3.062l19.421 2.172a8.287 8.287 0 0 0 5.956-1.82 8.216 8.216 0 0 0 2.986-5.444c.429-3.774-1.681-6.338-3.469-8.082 1.681-.427 5.436-1.496 6.795-3.632.859-1.353 1.109-3.311-1.18-6.124Z" fill="url(#e)"/><path d="M142.088 22.934c-1.359 2.172-5.15 3.24-6.831 3.632l5.15-10.29c.185.16.353.34.501.534 2.289 2.813 2.039 4.771 1.18 6.124Z" fill="#FF78B9"/><path d="M124.205 13.89a.753.753 0 0 1-.679-.748c0-.284.036-7.37 5.079-8.972 5.043-1.602 11.874 3.88 12.16 4.13a.727.727 0 0 1 .253.763.714.714 0 0 1-.611.524.731.731 0 0 1-.536-.148c-.071-.035-6.652-5.198-10.801-3.845-4.149 1.353-4.078 7.513-4.078 7.548a.745.745 0 0 1-.751.748h-.036Z" fill="#3E3B75"/><path d="m127.594 12.82-6.398-.714a1.5 1.5 0 0 0-1.66 1.32l-.04.353c-.093.821.501 1.561 1.325 1.653l6.398.715a1.5 1.5 0 0 0 1.66-1.32l.04-.354a1.497 1.497 0 0 0-1.325-1.652ZM140.908 13.89c2.667 0 4.829-2.152 4.829-4.807 0-2.654-2.162-4.806-4.829-4.806s-4.828 2.152-4.828 4.806c0 2.655 2.161 4.807 4.828 4.807Z" fill="#6990FF"/><path d="M136.616 31.693c-.965-.107-1.895 1.175-2.11 2.884-.215 1.709.465 3.204 1.431 3.311l3.326.356.68-6.195-3.327-.356Z" fill="#698FFF"/><path d="M141.322 35.359c.194-1.72-.445-3.203-1.426-3.312-.982-.11-1.934 1.195-2.128 2.915-.194 1.72.445 3.203 1.426 3.312.982.11 1.934-1.195 2.128-2.915Z" fill="#8CA9FF"/><path d="M116.291 25.71c.42-.296.299-1.186-.271-1.99-.569-.803-1.371-1.215-1.79-.92-.42.294-.299 1.185.271 1.988.569.804 1.371 1.216 1.79.921ZM118.948 27.42c.071-.498-1.753-.712-1.824-.213a.894.894 0 0 0 .822.854c.394.071.966-.142 1.002-.64Z" fill="#000"/><path d="M117.624 30.625c.465 1.816 1.753 3.026 2.969 2.742 1.216-.285 1.859-1.888 1.538-3.668l-4.507.926Z" fill="#FF78B9"/><path d="M125.557 25.98c.734-.658 1.05-1.499.707-1.879-.344-.38-1.218-.155-1.952.503s-1.05 1.5-.706 1.88c.343.38 1.217.154 1.951-.504Z" fill="#000"/><path d="M125.6 30.411a.397.397 0 0 1-.251-.107.463.463 0 0 1-.035-.64l1.788-1.923a.503.503 0 0 1 .644-.036.462.462 0 0 1 0 .641l-1.788 1.923a.466.466 0 0 1-.358.142ZM127.46 30.59a.393.393 0 0 1-.25-.108.423.423 0 0 1-.122-.46.43.43 0 0 1 .086-.145l1.788-1.923a.467.467 0 0 1 .644-.035.416.416 0 0 1 .144.295.428.428 0 0 1-.108.31l-1.824 1.958a.433.433 0 0 1-.358.107ZM129.32 30.803a.395.395 0 0 1-.251-.107.461.461 0 0 1-.036-.64l1.789-1.924a.465.465 0 0 1 .738.3.456.456 0 0 1-.059.306l-1.824 1.922a.429.429 0 0 1-.357.143ZM113.547 29.058a.395.395 0 0 1-.358-.213L111.83 26.6a.494.494 0 0 1 .143-.605.434.434 0 0 1 .492.014.425.425 0 0 1 .116.128l1.359 2.28a.444.444 0 0 1 .065.16.437.437 0 0 1-.078.33.426.426 0 0 1-.13.114.319.319 0 0 1-.25.036ZM111.687 28.88a.397.397 0 0 1-.358-.213l-1.359-2.28a.5.5 0 0 1 .143-.605.467.467 0 0 1 .608.178l1.359 2.244a.427.427 0 0 1-.143.605.358.358 0 0 1-.25.071ZM109.827 28.666a.397.397 0 0 1-.358-.213l-1.359-2.243a.5.5 0 0 1 .143-.606.432.432 0 0 1 .608.143l1.359 2.279a.412.412 0 0 1 .06.333.417.417 0 0 1-.203.272.319.319 0 0 1-.25.035Z" fill="#FFAED7"/><path d="M102.817 40.274a1.202 1.202 0 0 1 .145-1.193 1.215 1.215 0 0 1 1.107-.48h6.939c.51.017 1.004.186 1.418.484.414.298.729.712.906 1.189l3.72 12.035a1.243 1.243 0 0 1-.634 1.597 1.26 1.26 0 0 1-.618.112h-6.938a2.62 2.62 0 0 1-1.422-.505 2.594 2.594 0 0 1-.903-1.204l-3.72-12.035Z" fill="#1A1830"/><path d="M101.959 40.274a1.202 1.202 0 0 1 .145-1.193 1.212 1.212 0 0 1 1.106-.48h6.939a2.582 2.582 0 0 1 2.325 1.673l3.72 12.035a1.248 1.248 0 0 1-.15 1.2 1.248 1.248 0 0 1-1.102.509h-6.939a2.616 2.616 0 0 1-2.325-1.71l-3.719-12.034Z" fill="#3E3B75"/><path d="M103.639 40.737a.501.501 0 0 1 .065-.475.496.496 0 0 1 .436-.202h.93a1.039 1.039 0 0 1 .93.677l.68 2.136a.501.501 0 0 1-.065.475.503.503 0 0 1-.436.202h-.966a1.002 1.002 0 0 1-.93-.677l-.644-2.136Z" fill="#CFCFDA"/><path d="M104.353 55.51c2.529-1.063 3.564-4.319 2.311-7.271-1.253-2.953-4.319-4.485-6.848-3.42-2.53 1.063-3.564 4.319-2.311 7.271 1.253 2.953 4.319 4.484 6.848 3.42Z" fill="#6990FF"/><path d="M132.467 59.608a12.314 12.314 0 0 1-4.363-.962l-11.41-4.272a3.3 3.3 0 0 1-1.853-1.718 3.264 3.264 0 0 1-.078-2.52 3.318 3.318 0 0 1 1.722-1.852 3.341 3.341 0 0 1 2.534-.106l10.837 4.095a84.462 84.462 0 0 0-2.432-3.454 3.3 3.3 0 0 1 .881-4.408 3.339 3.339 0 0 1 4.484.527 140.585 140.585 0 0 1 2.933 4.166c1.645 2.457 3.183 5.91 1.037 8.617-.787.961-2.11 1.887-4.292 1.887Z" fill="#CFCFDA"/><path d="M118.518 57.614c3.338 0 6.045-2.694 6.045-6.018 0-3.323-2.707-6.017-6.045-6.017s-6.044 2.694-6.044 6.017c0 3.324 2.706 6.018 6.044 6.018Z" fill="#6990FF"/><path d="m133.147 45.472-5.472 3.703.644.855 5.472-3.703-.644-.855ZM124.169 57.151l1.002.392 2.36-6.16-1.001-.392-2.361 6.16ZM136.938 57.436l-4.614-5.483-.858.676 4.757 5.626c.214-.178.357-.356.536-.534.073-.087.133-.183.179-.285ZM129.856 59.216l1.789-6.338-1.038-.356-1.824 6.374 1.073.32Z" fill="#B4B4C8"/><path d="m136.008 49.531-5.007 3.134 1.323.462 4.221-2.634c-.143-.32-.358-.641-.537-.962Z" fill="#B4B4C8"/><path d="M101.986 8.124a2.148 2.148 0 0 1-.893-.762 3.472 3.472 0 0 1-.487-1.144l-.162-1.296a.073.073 0 0 0-.024-.053.073.073 0 0 0-.026-.017.089.089 0 0 0-.031-.006h-.162a.09.09 0 0 0-.032.006.097.097 0 0 0-.026.017.082.082 0 0 0-.024.053l-.162 1.296c-.09.405-.255.792-.487 1.144a2.148 2.148 0 0 1-.892.762l-.162.153h-.081a.085.085 0 0 1 .057.022.076.076 0 0 1 .024.054h.162c.356.219.66.504.892.838.244.318.41.683.487 1.068l.162 1.372h.325l.162-1.372c.077-.385.243-.75.487-1.068a3 3 0 0 1 .893-.838h.162c.081 0 .081 0 .081-.076h-.081l-.162-.153Z" fill="#FFC419"/><path d="M3.356 47.005a3.052 3.052 0 0 1-.705-.673 2.8 2.8 0 0 1-.353-.936l-.147-1.141a.059.059 0 0 0-.059-.059h-.146a.088.088 0 0 0-.03.059l-.176 1.14a2.8 2.8 0 0 1-.353.937 2.229 2.229 0 0 1-.705.673l-.147.117h-.03v.117h.03l.147.088c.277.187.517.425.705.702a2.8 2.8 0 0 1 .353.935l.176 1.141v.059h.118c.03 0 .059 0 .059-.03l.058-.058.147-1.14c.06-.331.18-.648.353-.937.205-.262.441-.498.705-.702l.147-.088h.059v-.117h-.059l-.147-.087Z" fill="#FF78B7"/><path d="M70.016 53.739a1.878 1.878 0 0 1-.588-.585 1.517 1.517 0 0 1-.293-.79l-.147-.936v-.059h-.147v.059l-.147.936a1.837 1.837 0 0 1-.294.79c-.15.236-.35.436-.588.585l-.117.087h-.03v.059h.03l.117.088a1.992 1.992 0 0 1 .882 1.345l.147.965v.059h.147v-.059l.147-.965c.026-.275.128-.538.293-.76.15-.236.351-.436.588-.585l.118-.088-.118-.146Z" fill="#FFC419"/><path d="M147.905 48.408a1.884 1.884 0 0 1-.588-.585 1.529 1.529 0 0 1-.294-.79l-.147-.936v-.059h-.146v.059l-.147.936a1.844 1.844 0 0 1-.294.79c-.15.236-.351.436-.588.585l-.117.088h-.03v.058h.03l.117.088a1.982 1.982 0 0 1 .882 1.345l.147.966v.058h.146v-.058l.147-.966c.027-.275.129-.538.294-.76.15-.236.351-.436.588-.585l.117-.088-.117-.146Z" fill="#B7CCFF"/><path d="M74.559 5.519a4.948 4.948 0 0 1-1.344-1.365 6.234 6.234 0 0 1-.642-1.84L72.223.12c0-.06 0-.119-.06-.119h-.291v.119l-.41 2.195a4.076 4.076 0 0 1-.642 1.84 4.948 4.948 0 0 1-1.343 1.365l-.293.178h-.058v.237h.058l.293.178c.53.362.987.825 1.343 1.365.36.55.58 1.182.643 1.84l.35 2.195c0 .06.059.06.059.119h.292c.058 0 .058-.06.058-.119l.35-2.196a6.234 6.234 0 0 1 .643-1.84 4.948 4.948 0 0 1 1.344-1.364l.292-.178h.117v-.178h-.117l-.292-.237Z" fill="#57F085"/><path d="M91.02 39.727a2.787 2.787 0 0 1-.734-.702 2.714 2.714 0 0 1-.353-.966l-.176-1.17v-.058h-.088c-.03 0-.06 0-.06.03l-.058.058-.176 1.17a2.245 2.245 0 0 1-.353.965c-.18.283-.421.522-.705.702l-.176.117h-.03v.117h.03l.176.117c.284.18.525.42.705.702.19.29.311.62.353.965l.176 1.141c0 .03.03.059.059.088h.147a.118.118 0 0 0 .03-.088l.175-1.14c.055-.342.175-.67.353-.966.192-.283.442-.523.735-.702l.147-.117h.058v-.117h-.058l-.177-.146Z" fill="#FF78B7"/><defs><linearGradient id="a" x1="105.393" y1="82.869" x2="64.327" y2="-11.524" gradientUnits="userSpaceOnUse"><stop stop-color="#2A3393"/><stop offset="1" stop-color="#E9459D"/></linearGradient><linearGradient id="b" x1="52.823" y1="43.096" x2="68.723" y2="29.147" gradientUnits="userSpaceOnUse"><stop offset=".09" stop-color="#698EFF"/><stop offset="1" stop-color="#4774FF"/></linearGradient><linearGradient id="c" x1="20.191" y1="53.38" x2="38.234" y2="53.38" gradientUnits="userSpaceOnUse"><stop offset=".09" stop-color="#698EFF"/><stop offset="1" stop-color="#4774FF"/></linearGradient><linearGradient id="d" x1="119.138" y1="37.663" x2="120.689" y2="62.346" gradientUnits="userSpaceOnUse"><stop stop-color="#E8E8E8"/><stop offset=".5" stop-color="#E6E7E8"/><stop offset=".68" stop-color="#DFE1E6"/><stop offset=".8" stop-color="#D4D8E4"/><stop offset=".91" stop-color="#C3CBE1"/><stop offset=".99" stop-color="#ADBBDD"/><stop offset="1" stop-color="#ABB9DD"/></linearGradient><linearGradient id="e" x1="123.872" y1="14.89" x2="121.728" y2="41.998" gradientUnits="userSpaceOnUse"><stop stop-color="#E8E8E8"/><stop offset=".5" stop-color="#E6E7E8"/><stop offset=".68" stop-color="#DFE1E6"/><stop offset=".8" stop-color="#D4D8E4"/><stop offset=".91" stop-color="#C3CBE1"/><stop offset=".99" stop-color="#ADBBDD"/><stop offset="1" stop-color="#ABB9DD"/></linearGradient></defs></svg>