<svg width="490" height="215" viewBox="0 0 490 215" fill="none" xmlns="http://www.w3.org/2000/svg">
<g clip-path="url(#clip0_645_251866)">
<g clip-path="url(#clip1_645_251866)">
<mask id="mask0_645_251866" style="mask-type:luminance" maskUnits="userSpaceOnUse" x="14" y="-27" width="318" height="273">
<path d="M331.845 43.8272L69.084 -26.5793L14.9908 175.299L277.752 245.706L331.845 43.8272Z" fill="white"/>
</mask>
<g mask="url(#mask0_645_251866)">
<mask id="mask1_645_251866" style="mask-type:luminance" maskUnits="userSpaceOnUse" x="15" y="36" width="298" height="210">
<path d="M53.1309 36.8214L312.917 106.431L275.763 245.089L15.9774 175.48L53.1309 36.8214Z" fill="white"/>
</mask>
<g mask="url(#mask1_645_251866)">
<path d="M262.175 240.903L30.4462 178.811C23.1272 176.85 18.7434 169.257 20.7045 161.938L50.4655 50.8684C52.4266 43.5494 60.0197 39.1656 67.3387 41.1267L299.067 103.218C306.386 105.179 310.77 112.772 308.809 120.091L279.048 231.161C277.086 238.48 269.494 242.864 262.175 240.903Z" fill="url(#paint0_linear_645_251866)"/>
<g opacity="0.15">
<path d="M30.4311 178.868L262.16 240.96C269.479 242.921 277.071 238.537 279.032 231.218L287.501 199.612C264.892 193.188 220.084 218.117 220.084 218.117C220.084 218.117 189.54 160.22 168.548 155.827C142.625 150.402 109.769 168.019 109.769 168.019C109.769 168.019 88.423 111.201 70.7623 100.458C53.1016 89.714 37.3171 100.012 37.3171 100.012L20.5229 162.689C19.0085 169.788 23.3433 176.969 30.4311 178.868Z" fill="white"/>
</g>
<path d="M90.5943 89.7897C90.4372 90.8518 89.6811 97.0512 93.0686 98.5335C89.3929 98.1188 86.9471 103.877 86.5538 104.869C86.7071 103.812 87.468 97.6031 84.0774 96.1244C87.7523 96.5344 90.1971 90.7875 90.5943 89.7897Z" fill="#97FFBA"/>
<g opacity="0.55">
<path d="M94.0137 132.579C84.2168 137.611 76.2909 134.944 69.6165 128.134C62.942 121.323 57.3336 120.208 47.7025 123.551C38.0713 126.894 31.9163 119.962 31.9163 119.962L37.1752 100.321C37.1752 100.321 42.8099 95.6821 54.0725 95.5978C67.464 95.4974 79.1791 101.608 94.0137 132.579Z" fill="white"/>
</g>
<g opacity="0.85">
<path d="M134.04 79.1448C133.591 80.8199 131.87 81.8136 130.194 81.3648C128.519 80.9159 127.526 79.1946 127.974 77.5195C128.423 75.8445 130.145 74.8503 131.82 75.2992C133.495 75.748 134.489 77.4697 134.04 79.1448Z" fill="white"/>
</g>
<g opacity="0.85">
<path d="M193.394 95.0486C192.945 96.7237 191.223 97.7175 189.548 97.2687C187.873 96.8198 186.879 95.0984 187.328 93.4233C187.777 91.7483 189.499 90.7542 191.174 91.2031C192.849 91.6519 193.842 93.3735 193.394 95.0486Z" fill="white"/>
</g>
<g opacity="0.85">
<path d="M252.747 110.952C252.299 112.627 250.577 113.621 248.902 113.172C247.227 112.723 246.233 111.002 246.681 109.327C247.13 107.652 248.852 106.658 250.527 107.107C252.202 107.555 253.196 109.277 252.747 110.952Z" fill="white"/>
</g>
<g opacity="0.85">
<path d="M268.321 139.007C268.625 137.874 269.789 137.202 270.922 137.506C272.055 137.809 272.728 138.974 272.424 140.106C272.121 141.239 270.956 141.912 269.823 141.608C268.69 141.305 268.018 140.14 268.321 139.007Z" fill="white"/>
</g>
<g opacity="0.85">
<path d="M212.249 123.983C212.553 122.85 213.717 122.178 214.85 122.481C215.983 122.785 216.656 123.949 216.352 125.082C216.049 126.215 214.884 126.887 213.751 126.584C212.618 126.28 211.946 125.115 212.249 123.983Z" fill="white"/>
</g>
<g opacity="0.85">
<path d="M146.464 106.355C146.768 105.223 147.932 104.55 149.065 104.854C150.198 105.158 150.871 106.322 150.567 107.455C150.264 108.588 149.099 109.26 147.966 108.957C146.833 108.653 146.161 107.488 146.464 106.355Z" fill="white"/>
</g>
<g opacity="0.85">
<path d="M122.886 120.78C122.437 122.455 120.715 123.449 119.04 123.001C117.365 122.552 116.371 120.83 116.82 119.155C117.269 117.48 118.99 116.486 120.665 116.935C122.341 117.383 123.335 119.105 122.886 120.78Z" fill="white"/>
</g>
<g opacity="0.85">
<path d="M65.2686 105.342C64.8197 107.017 63.0983 108.011 61.4232 107.562C59.7482 107.113 58.7541 105.392 59.2029 103.717C59.6518 102.042 61.3735 101.048 63.0486 101.496C64.7237 101.945 65.7174 103.667 65.2686 105.342Z" fill="white"/>
</g>
<g opacity="0.85">
<path d="M182.239 136.684C181.79 138.359 180.069 139.353 178.394 138.904C176.719 138.455 175.725 136.734 176.174 135.059C176.622 133.384 178.344 132.39 180.019 132.838C181.694 133.287 182.688 135.009 182.239 136.684Z" fill="white"/>
</g>
<g opacity="0.85">
<path d="M241.591 152.587C241.142 154.263 239.421 155.257 237.745 154.808C236.07 154.359 235.076 152.637 235.525 150.962C235.974 149.287 237.696 148.293 239.371 148.742C241.046 149.191 242.04 150.912 241.591 152.587Z" fill="white"/>
</g>
<g opacity="0.85">
<path d="M257.167 180.643C257.471 179.51 258.635 178.837 259.768 179.141C260.901 179.445 261.573 180.609 261.27 181.742C260.966 182.875 259.802 183.547 258.669 183.244C257.536 182.94 256.864 181.776 257.167 180.643Z" fill="white"/>
</g>
<g opacity="0.85">
<path d="M201.093 165.618C201.396 164.485 202.561 163.813 203.694 164.116C204.827 164.42 205.499 165.585 205.196 166.717C204.892 167.85 203.728 168.523 202.595 168.219C201.462 167.915 200.789 166.751 201.093 165.618Z" fill="white"/>
</g>
<g opacity="0.85">
<path d="M135.308 147.991C135.611 146.858 136.776 146.186 137.909 146.489C139.042 146.793 139.714 147.958 139.411 149.091C139.107 150.223 137.942 150.896 136.81 150.592C135.677 150.288 135.004 149.124 135.308 147.991Z" fill="white"/>
</g>
<g opacity="0.85">
<path d="M89.9015 135.824C90.205 134.691 91.3699 134.019 92.5027 134.322C93.6355 134.626 94.3077 135.791 94.0042 136.924C93.7006 138.056 92.5362 138.729 91.4034 138.425C90.2705 138.122 89.5979 136.957 89.9015 135.824Z" fill="white"/>
</g>
<g opacity="0.43">
<path d="M78.7523 191.692L68.0636 163.151L76.4233 165.39L66.4033 137.464L43.7623 156.639L52.122 158.879L28.5945 178.252" fill="#001F8E"/>
</g>
<g opacity="0.43">
<path d="M135.132 206.798L124.443 178.257L132.802 180.497L122.782 152.57L100.141 171.745L108.501 173.985L84.9734 193.358" fill="#001F8E"/>
</g>
<path d="M121.062 162.702C121.062 162.702 130.59 174.989 145.63 173.796C160.67 172.602 163.491 173.596 171.505 180.016C179.519 186.437 192.276 191.993 201.426 187.085C201.426 187.085 190.146 169.816 180.7 162.537C171.254 155.257 157.761 147.131 121.062 162.702Z" fill="#61A4BC"/>
<path d="M287.791 198.835C278.386 196.748 264.973 198.071 243.78 207.063C243.78 207.063 253.267 219.117 268.307 217.924C274.906 217.4 279.153 217.297 282.518 217.889" fill="#61A4BC"/>
</g>
<path d="M253.103 179.421C251.033 187.143 243.095 191.726 235.372 189.657C227.65 187.588 223.067 179.65 225.136 171.927C227.205 164.204 235.143 159.621 242.866 161.691C250.589 163.76 255.172 171.698 253.103 179.421Z" fill="#FDE65B"/>
<path d="M244.221 169.51C242.165 177.181 234.281 181.733 226.61 179.677C218.939 177.622 214.387 169.738 216.443 162.067C218.498 154.396 226.382 149.844 234.053 151.9C241.724 153.955 246.276 161.839 244.221 169.51Z" fill="#FDE65B"/>
<path d="M223.978 168.512C222.041 175.741 214.611 180.031 207.381 178.094C200.152 176.157 195.862 168.726 197.799 161.497C199.736 154.268 207.167 149.978 214.396 151.915C221.625 153.852 225.915 161.282 223.978 168.512Z" fill="#FDE65B"/>
<path d="M253.487 227.472L173.542 206.05L157.243 155.938L161.338 150.401L241.186 171.256L257.561 221.572L253.487 227.472Z" fill="black"/>
<path d="M157.318 156.211L163.924 146.282L244.255 167.807L237.375 177.642L157.318 156.211Z" fill="#EC4144"/>
<path d="M237.346 168.599C239.094 169.068 240.851 168.363 241.644 166.993L234.426 165.059C234.428 166.642 235.597 168.131 237.346 168.599Z" fill="#F9C3C3"/>
<path d="M222.875 169.688C220.243 168.982 217.595 169.902 216.181 171.802L227.615 174.866C227.341 172.513 225.507 170.393 222.875 169.688Z" fill="#F9C3C3"/>
<path d="M212.334 161.898C214.082 162.366 215.839 161.661 216.633 160.292L209.414 158.357C209.417 159.94 210.585 161.429 212.334 161.898Z" fill="#F9C3C3"/>
<path d="M182.363 153.867C184.112 154.335 185.868 153.63 186.662 152.261L179.443 150.327C179.446 151.909 180.615 153.398 182.363 153.867Z" fill="#F9C3C3"/>
<path d="M169.102 155.339C166.469 154.633 163.948 155.527 162.534 157.427L173.968 160.491C173.693 158.139 171.734 156.044 169.102 155.339Z" fill="#F9C3C3"/>
<path d="M205.075 157.14L188.988 152.83L182.327 162.629L198.414 166.939L205.075 157.14Z" fill="#FDE65B"/>
<path d="M253.365 227.617L237.346 177.422L244.106 167.522L260.164 217.908L253.365 227.617Z" fill="#C02A32"/>
<path d="M243.231 185.849C242.51 183.878 240.394 182.624 239.196 182.826L241.715 190.73C242.828 189.942 243.89 187.65 243.231 185.849Z" fill="#F9C3C3"/>
<path d="M251.635 214.527C251.163 213.046 249.587 212.231 248.467 212.144L250.518 218.579C251.578 217.966 252.108 216.009 251.635 214.527Z" fill="#F9C3C3"/>
<path d="M252.151 203.602C252.7 205.521 255.126 207.288 256.555 206.754L254.04 198.561C252.242 199.201 251.602 201.683 252.151 203.602Z" fill="#F9C2C3"/>
<path d="M253.189 195.969L250.313 186.845L243.463 196.379L246.418 205.763L253.189 195.969Z" fill="#FDE65B"/>
<path d="M158.985 156.532L237.367 177.521L252.564 225.089" stroke="#AD171F" stroke-width="1.155" stroke-linecap="round" stroke-linejoin="round"/>
<path d="M280.903 174.937L131.146 135.813L135.331 119.739L178.757 124.154L287.137 153.076L280.903 174.937Z" fill="black"/>
<path d="M186.146 121.47C179.65 122.88 164.539 147.521 163.245 154.384C161.95 161.247 168.966 140.989 177.464 160.207" stroke="#688DFF" stroke-width="26.4008" stroke-linecap="round"/>
<path d="M231.402 117.621L201.994 108.474C196.46 106.753 192.077 107.34 188.763 108.741C184.38 110.594 181.099 114.373 179.686 118.916L170.172 149.505C167.472 158.189 172.322 167.418 181.005 170.119L227.601 184.611C236.285 187.312 245.514 182.462 248.214 173.778L257.732 143.177C259.086 138.825 258.64 134.068 256.321 130.145C254.431 126.946 251.107 123.749 245.279 121.937L215.871 112.79" fill="#698EFF"/>
<path d="M257.775 139.011C255.253 144.899 237.79 143.07 218.77 134.924C199.75 126.778 186.375 115.401 188.897 109.513C191.418 103.624 208.882 105.454 227.902 113.6C246.922 121.746 260.297 133.123 257.775 139.011Z" fill="#4B67EC"/>
<path d="M179.948 82.8418L184.34 85.6927C189.693 89.166 196.913 87.6285 200.387 82.2764L206.482 72.8851C209.955 67.5333 208.418 60.312 203.066 56.8387L198.673 53.9887C193.322 50.5151 186.101 52.052 182.628 57.404L176.532 66.7957C173.059 72.1478 174.596 79.3685 179.948 82.8418Z" fill="#698EFF"/>
<path d="M184.274 75.3548L189.435 78.7043C190.345 79.2945 191.572 79.033 192.163 78.1234L200.776 64.8513C201.368 63.9389 201.106 62.7078 200.194 62.1158L195.037 58.7696C192.904 57.3853 190.026 57.9979 188.642 60.131L182.913 68.9591C181.528 71.0922 182.141 73.9705 184.274 75.3548Z" fill="#B7CDFF"/>
<path d="M275.183 139.908L270.678 137.239C265.189 133.986 263.359 126.834 266.611 121.345L272.319 111.713C275.571 106.224 282.723 104.394 288.212 107.646L292.717 110.315C298.206 113.568 300.036 120.72 296.784 126.209L291.076 135.841C287.824 141.33 280.672 143.16 275.183 139.908Z" fill="#698EFF"/>
<path d="M279.969 132.707L274.675 129.57C273.742 129.018 273.431 127.802 273.984 126.869L282.049 113.257C282.604 112.321 283.823 112.009 284.759 112.564L290.047 115.697C292.235 116.993 292.965 119.844 291.668 122.032L286.303 131.086C285.007 133.274 282.157 134.003 279.969 132.707Z" fill="#B7CDFF"/>
<path d="M249.481 67.1156C249.481 67.1156 256.314 65.5982 259.187 64.9813C263.61 64.0316 270.493 65.3834 273.397 71.8047C275.861 77.2541 274.008 82.3388 267.226 84.4467C260.542 86.5247 258.024 84.8488 258.024 84.8488L232.765 70.34L249.481 67.1156Z" fill="#55F186"/>
<path d="M256.878 76.3353C256.474 76.1045 256.176 75.6967 256.105 75.2005C255.98 74.345 256.573 73.5508 257.429 73.4268C267.773 71.9267 274.485 63.5381 274.552 63.4536C275.087 62.7748 276.068 62.6579 276.75 63.1927C277.429 63.7276 277.546 64.7117 277.011 65.3906C276.708 65.7758 269.445 74.847 257.878 76.5244C257.519 76.5768 257.17 76.5025 256.878 76.3353Z" fill="#008C43"/>
<path d="M261.434 87.0766C261.434 87.0766 257.61 78.0223 255.62 63.1099C254.165 52.2158 253.17 46.1486 244.912 43.7141C238.053 41.692 231.675 44.5227 230.578 54.0967C229.328 65.0026 237.543 76.2309 237.543 76.2309L261.434 87.0766Z" fill="#25CB79"/>
<path d="M242.103 69.1534C241.793 68.9766 241.542 68.6939 241.41 68.3335C238.636 60.7682 240.196 53.4039 240.264 53.0941C240.449 52.2499 241.283 51.7149 242.128 51.8995C242.971 52.0835 243.506 52.9172 243.323 53.761C243.308 53.8284 241.898 60.5721 244.349 67.2559C244.647 68.0674 244.23 68.9666 243.419 69.2642C242.967 69.4297 242.489 69.3743 242.103 69.1534Z" fill="#008C43"/>
<path d="M240.301 139.992C229.454 134.439 200.969 118.151 192.325 111.801C183.728 105.486 178.176 92.1008 184.61 81.5897L195.067 65.5309C204.393 50.0503 214.558 50.3344 229.056 57.3912C244.541 64.9292 270.911 80.9898 275.766 84.083C289.079 92.565 290.817 104.775 284.383 115.286L273.337 134.168C266.234 145.773 253.827 146.916 240.301 139.992Z" fill="#698EFF"/>
<path d="M251.137 122.453C250.533 123.54 248.939 125.436 245.091 125.733C242.503 125.933 240.384 124.824 239.123 124.141" stroke="#3C57D8" stroke-width="2.27701" stroke-linecap="round"/>
<path d="M200.383 60.9695C200.383 60.9695 243.723 77.2967 283.558 113.688" stroke="#3D58D9" stroke-width="2.31" stroke-linecap="round" stroke-linejoin="round"/>
<path d="M276.969 35.461C277.984 35.7968 278.56 36.8288 278.255 37.7659L270.852 60.5179C270.548 61.455 269.478 61.9429 268.462 61.6071C267.446 61.2712 266.87 60.2393 267.175 59.3022L274.578 36.5502C274.883 35.6131 275.953 35.1252 276.969 35.461Z" fill="#FDE65B"/>
<path d="M265.192 59.6599C265.776 57.8644 267.826 56.9303 269.772 57.5734C271.717 58.2164 272.821 60.1931 272.236 61.9886C271.652 63.7842 269.602 64.7183 267.656 64.0752C265.711 63.4322 264.608 61.4555 265.192 59.6599Z" fill="#FDE65B"/>
<path d="M273.825 33.1327C274.409 31.3372 276.459 30.4031 278.405 31.0461C280.35 31.6892 281.454 33.666 280.87 35.4615C280.286 37.2571 278.235 38.1912 276.289 37.5481C274.344 36.9051 273.24 34.9283 273.825 33.1327Z" fill="#FDE65B"/>
<path d="M269.875 34.9168C270.907 34.7383 271.941 35.3874 272.185 36.3667L278.119 60.1421C278.363 61.1214 277.725 62.0602 276.693 62.2387C275.661 62.4172 274.627 61.7681 274.382 60.7888L268.449 37.0134C268.205 36.034 268.843 35.0953 269.875 34.9168Z" fill="#FDE65B"/>
<path d="M272.911 62.0406C272.443 60.1644 273.666 58.3662 275.642 58.024C277.618 57.6819 279.6 58.9254 280.069 60.8016C280.537 62.6778 279.314 64.4761 277.337 64.8182C275.361 65.1603 273.379 63.9168 272.911 62.0406Z" fill="#FDE65B"/>
<path d="M265.993 34.3203C265.525 32.4441 266.747 30.6457 268.724 30.3036C270.7 29.9615 272.682 31.205 273.15 33.0812C273.619 34.9573 272.396 36.7558 270.42 37.0979C268.443 37.44 266.461 36.1965 265.993 34.3203Z" fill="#FDE65B"/>
<path d="M259.875 43.3717C260.167 42.4302 261.231 41.9303 262.25 42.255L286.988 50.1332C288.007 50.4579 288.596 51.4833 288.303 52.4248C288.01 53.3662 286.947 53.8658 285.928 53.5412L261.19 45.6634C260.171 45.3387 259.582 44.3131 259.875 43.3717Z" fill="#FDE65B"/>
<path d="M286.435 55.4181C284.483 54.7965 283.355 52.8309 283.916 51.0279C284.477 49.2248 286.514 48.2672 288.466 48.8888C290.419 49.5104 291.546 51.4761 290.985 53.2792C290.424 55.0822 288.387 56.0397 286.435 55.4181Z" fill="#FDE65B"/>
<path d="M257.593 46.2328C255.64 45.6112 254.513 43.6458 255.074 41.8427C255.635 40.0397 257.672 39.0821 259.624 39.7037C261.577 40.3253 262.704 42.291 262.143 44.0941C261.582 45.8971 259.545 46.8544 257.593 46.2328Z" fill="#FDE65B"/>
<path d="M259.76 50.0555C259.501 49.0788 260.124 48.1307 261.151 47.9376L286.106 43.2468C287.134 43.0536 288.178 43.6884 288.438 44.6651C288.698 45.6418 288.075 46.5902 287.047 46.7834L262.092 51.4737C261.064 51.6669 260.021 51.0322 259.76 50.0555Z" fill="#FDE65B"/>
<path d="M288.479 48.2137C286.509 48.5839 284.509 47.3671 284.012 45.4962C283.514 43.6252 284.707 41.8086 286.676 41.4384C288.646 41.0682 290.646 42.2849 291.143 44.1559C291.641 46.0269 290.448 47.8435 288.479 48.2137Z" fill="#FDE65B"/>
<path d="M259.385 53.6824C257.415 54.0526 255.416 52.8363 254.918 50.9654C254.42 49.0944 255.613 47.2777 257.582 46.9075C259.552 46.5373 261.552 47.7537 262.049 49.6247C262.547 51.4957 261.354 53.3122 259.385 53.6824Z" fill="#FDE65B"/>
<path d="M263.151 55.9589C262.417 55.2052 262.443 54.0671 263.208 53.4166L281.788 37.6251C282.554 36.9746 283.769 37.058 284.503 37.8117C285.237 38.5654 285.211 39.7037 284.445 40.3542L265.865 56.1456C265.1 56.7961 263.885 56.7126 263.151 55.9589Z" fill="#FDE65B"/>
<path d="M286.408 40.969C284.942 42.2153 282.614 42.0548 281.208 40.6111C279.802 39.1675 279.852 36.9872 281.318 35.7409C282.784 34.4946 285.112 34.6549 286.518 36.0986C287.923 37.5423 287.874 39.7227 286.408 40.969Z" fill="#FDE65B"/>
<path d="M264.746 59.3806C263.28 60.6269 260.952 60.4667 259.546 59.023C258.14 57.5794 258.189 55.3989 259.656 54.1526C261.122 52.9063 263.45 53.0665 264.856 54.5102C266.261 55.9538 266.212 58.1343 264.746 59.3806Z" fill="#FDE65B"/>
<path d="M263.646 37.758C264.418 37.114 265.633 37.2079 266.36 37.9673L284.008 56.4004C284.735 57.1597 284.699 58.297 283.926 58.941C283.154 59.585 281.94 59.491 281.213 58.7317L263.565 40.2986C262.838 39.5393 262.874 38.402 263.646 37.758Z" fill="#FDE65B"/>
<path d="M280.643 60.5399C279.25 59.0853 279.32 56.9062 280.798 55.673C282.277 54.4397 284.605 54.6191 285.997 56.0736C287.39 57.5282 287.32 59.7074 285.842 60.9406C284.363 62.1738 282.035 61.9945 280.643 60.5399Z" fill="#FDE65B"/>
<path d="M260.067 39.0486C258.674 37.594 258.744 35.4146 260.222 34.1813C261.701 32.9481 264.028 33.1274 265.421 34.582C266.814 36.0366 266.744 38.216 265.265 39.4493C263.787 40.6825 261.459 40.5032 260.067 39.0486Z" fill="#FDE65B"/>
<path d="M276.358 50.3865C274.615 51.8676 271.848 51.6775 270.177 49.9615C268.506 48.2455 268.565 45.6538 270.308 44.1728C272.05 42.6918 274.817 42.8819 276.488 44.5979C278.159 46.3139 278.1 48.9055 276.358 50.3865Z" fill="#FDE65B"/>
<path d="M286.1 57.9473C286.377 59.4362 286.622 61.1013 286.797 62.9285C287.476 70.0227 287.165 80.9392 282.164 93.6713C288.085 97.2668 292.16 98.7862 292.861 96.7595C295.117 90.2399 296.557 72.6987 286.1 57.9473Z" fill="#ED4245"/>
<path d="M281.164 52.1382C279.157 50.1521 276.87 48.2638 274.27 46.5144C270.685 49.5552 264.561 55.6372 260.871 64.2489C260.517 65.0751 259.55 65.4552 258.706 65.1011C258.702 65.0994 258.698 65.0978 258.695 65.0963C257.848 64.7338 257.451 63.7672 257.807 62.9367C261.526 54.2577 267.409 48.0805 271.304 44.663C269.851 43.8202 268.317 43.0156 266.687 42.2597C265.257 41.5964 263.848 41.0028 262.459 40.4682C260.708 40.3404 258.612 40.3209 256.211 40.531C249.728 41.0986 239.763 43.4954 227.765 51.3976C241.125 62.787 264.459 82.2041 279.29 91.8594C283.813 80.04 284.116 69.9439 283.503 63.3504C283.004 57.983 281.844 54.0672 281.164 52.1382Z" fill="#ED4245"/>
<path d="M252.883 37.6236C231.675 33.1836 217.456 42.5055 217.456 42.5055C217.456 42.5055 220.41 45.0992 225.147 49.1605C236.312 41.6537 245.92 38.6817 252.883 37.6236Z" fill="#ED4245"/>
<path d="M278.005 95.0022C277.643 95.83 278.034 96.799 278.878 97.1672C278.885 97.1704 278.892 97.1736 278.9 97.1767C279.738 97.5287 280.702 97.1551 281.06 96.3344C281.451 95.4383 281.818 94.5507 282.163 93.6714C281.248 93.1152 280.287 92.5093 279.289 91.8594C278.893 92.8945 278.468 93.9415 278.005 95.0022Z" fill="#D33737"/>
<path d="M286.1 57.9474C284.682 55.948 283.046 54.0004 281.164 52.1381C281.844 54.0671 283.004 57.9829 283.503 63.3502C284.116 69.9438 283.813 80.0399 279.29 91.8593C280.289 92.5093 281.249 93.1152 282.164 93.6714C287.165 80.9393 287.477 70.0228 286.797 62.9286C286.622 61.1014 286.377 59.4363 286.1 57.9474Z" fill="#D33737"/>
<path d="M221.858 51.4713C221.126 52.0084 220.982 53.0353 221.536 53.7647C221.722 54.0086 221.962 54.1885 222.227 54.2996C222.753 54.5207 223.378 54.4701 223.865 54.1126C225.187 53.1416 226.488 52.2391 227.765 51.3975C226.844 50.612 225.969 49.864 225.149 49.1606C224.066 49.8892 222.97 50.6549 221.858 51.4713Z" fill="#D33737"/>
<path d="M256.211 40.5309C258.612 40.3209 260.708 40.3404 262.459 40.4681C259.137 39.1892 255.938 38.2633 252.884 37.6238C245.921 38.6819 236.313 41.654 225.148 49.1607C225.969 49.864 226.843 50.6121 227.765 51.3976C239.763 43.4954 249.728 41.0986 256.211 40.5309Z" fill="#D33737"/>
<path d="M258.694 65.0961C258.697 65.0976 258.701 65.0992 258.705 65.1009C259.549 65.455 260.516 65.0749 260.87 64.2487C264.56 55.637 270.684 49.555 274.269 46.5142C273.323 45.8778 272.334 45.2603 271.303 44.6628C267.409 48.0803 261.525 54.2575 257.806 62.9365C257.45 63.767 257.847 64.7336 258.694 65.0961Z" fill="#D33737"/>
<path d="M199.785 55.6434C198.782 57.0023 198.42 59.2804 200.067 60.0562C208.16 63.8681 227.753 72.609 248.038 85.8819C267.627 98.6987 279.462 108.994 284.764 113.766C286.344 115.188 288.333 114.392 289.512 112.787C291.45 110.147 296.922 102.721 296.793 91.8035C296.784 91.0705 296.181 88.6659 295.672 88.0792C291.297 83.0305 269.159 60.3555 220.796 39.6484C220.282 39.4286 219.7 39.4551 219.169 39.5758C216.251 40.2384 208.921 43.2728 199.785 55.6434Z" fill="#FEE75C"/>
<path d="M248.831 82.1333L259.111 65.4954" stroke="white" stroke-width="3.30198" stroke-linecap="round" stroke-linejoin="round"/>
<path d="M270.969 73.4267C270.969 73.4267 264.414 85.4573 261.076 90.5084" stroke="white" stroke-width="3.30198" stroke-linecap="round" stroke-linejoin="round"/>
<path d="M281.841 82.3495C281.841 82.3495 277.098 94.2967 273.346 99.1739" stroke="white" stroke-width="3.30198" stroke-linecap="round" stroke-linejoin="round"/>
<path d="M290.284 91.0724C290.284 91.0724 287.211 101.591 283.527 106.851" stroke="white" stroke-width="3.30198" stroke-linecap="round" stroke-linejoin="round"/>
<path d="M244.16 56.1557C244.16 56.1557 236.001 67.1758 232.825 72.3288" stroke="white" stroke-width="3.30198" stroke-linecap="round" stroke-linejoin="round"/>
<path d="M231.806 50.6593C231.806 50.6593 223.219 59.9841 220.378 65.4348" stroke="white" stroke-width="3.30198" stroke-linecap="round" stroke-linejoin="round"/>
<path d="M219.84 46.205C219.84 46.205 211.679 53.5695 208.542 59.1687" stroke="white" stroke-width="3.30198" stroke-linecap="round" stroke-linejoin="round"/>
<path d="M263.661 109.468C262.522 111.459 259.985 112.152 257.991 111.012C255.998 109.877 255.306 107.337 256.445 105.346C257.582 103.349 260.122 102.657 262.113 103.796C264.107 104.936 264.801 107.473 263.661 109.468ZM212.804 80.4647C211.648 82.4894 209.069 83.191 207.044 82.035C205.019 80.879 204.316 78.3026 205.474 76.2745C206.63 74.2497 209.206 73.5464 211.234 74.7042C213.259 75.8602 213.96 78.44 212.804 80.4647Z" stroke="#070100" stroke-width="1.90027"/>
<path d="M263.664 109.466C262.525 111.46 259.987 112.153 257.993 111.014C256 109.875 255.307 107.336 256.445 105.343C257.584 103.349 260.123 102.657 262.116 103.795C264.11 104.934 264.803 107.473 263.664 109.466Z" fill="#080201"/>
<path d="M212.806 80.4642C211.649 82.4889 209.07 83.1934 207.045 82.0365C205.02 80.8796 204.316 78.3005 205.473 76.2758C206.63 74.2511 209.209 73.5466 211.233 74.7035C213.258 75.8604 213.963 78.4395 212.806 80.4642Z" fill="#080201"/>
<path d="M232.028 115.526L215.876 106.169C209.806 102.651 207.716 94.8067 211.234 88.7358L216.51 79.6277C218.577 76.06 223.188 74.832 226.756 76.8992L250.454 90.6291C253.88 92.6136 255.059 97.0399 253.074 100.465L246.596 111.646C243.657 116.72 237.102 118.466 232.028 115.526Z" fill="#B7CDFF"/>
<path d="M233.089 107.454L229.294 105.286C227.992 104.543 227.536 102.869 228.279 101.567L228.337 101.467C229.08 100.165 230.754 99.7083 232.056 100.452L235.85 102.619C237.152 103.363 237.609 105.037 236.865 106.339L236.808 106.439C236.064 107.741 234.391 108.197 233.089 107.454Z" fill="#698EFF"/>
<path d="M219.243 99.5451L215.448 97.3776C214.146 96.6339 213.69 94.9604 214.433 93.6585L214.491 93.5578C215.234 92.2562 216.908 91.7995 218.21 92.5431L222.005 94.7107C223.307 95.4543 223.763 97.1278 223.02 98.4298L222.962 98.5305C222.218 99.8319 220.545 100.289 219.243 99.5451Z" fill="#698EFF"/>
<path d="M228.68 232.102L113.652 201.281L135.38 120.191L249.427 150.7L228.68 232.102Z" fill="#EC4144"/>
<path d="M263.797 241.451L227.7 231.778L249.428 150.689L287.439 153.187L263.797 241.451Z" fill="#C02A32"/>
<path d="M199.609 162.484C195.033 161.258 190.33 163.973 189.104 168.549C187.878 173.124 190.594 177.827 195.169 179.053C199.744 180.279 204.447 177.564 205.673 172.988C206.899 168.413 204.184 163.71 199.609 162.484Z" fill="#F9C3C3"/>
<path d="M266.131 191.457C270.746 192.526 275.354 189.652 276.423 185.038C277.492 180.423 274.619 175.815 270.004 174.746C267.689 174.209 265.375 174.666 263.51 175.837L260.779 187.62C261.939 189.492 263.816 190.92 266.131 191.457Z" fill="#F9C3C3"/>
<path d="M156.509 148.271C150.799 146.741 144.93 150.13 143.4 155.839C141.87 161.549 145.258 167.418 150.968 168.948C156.678 170.478 162.547 167.09 164.077 161.38C165.607 155.67 162.218 149.801 156.509 148.271Z" fill="#F9C3C3"/>
<path d="M228.012 175.756C222.728 174.341 217.298 177.476 215.882 182.76C214.466 188.043 217.602 193.474 222.885 194.889C228.169 196.305 233.599 193.17 235.015 187.886C236.43 182.603 233.295 177.172 228.012 175.756Z" fill="#F9C3C3"/>
<path d="M202.289 144.299C206.026 145.301 209.846 143.672 211.79 140.549L195.936 136.301C196.057 139.977 198.552 143.298 202.289 144.299Z" fill="#F9C3C3"/>
<path d="M163.976 134.033C167.713 135.035 171.534 133.406 173.477 130.283L157.623 126.035C157.745 129.711 160.239 133.032 163.976 134.033Z" fill="#F9C3C3"/>
<path d="M205.283 192.909C202.482 192.159 199.602 193.821 198.852 196.622C198.101 199.423 199.764 202.302 202.565 203.053C205.366 203.804 208.245 202.141 208.996 199.34C209.747 196.539 208.084 193.66 205.283 192.909Z" fill="#F9C3C3"/>
<path d="M169.75 172.769C166.949 172.018 164.069 173.681 163.319 176.482C162.568 179.283 164.231 182.162 167.032 182.913C169.833 183.663 172.712 182.001 173.463 179.2C174.213 176.399 172.551 173.519 169.75 172.769Z" fill="#F9C3C3"/>
<path d="M133.381 171.754C130.579 171.004 127.7 172.666 126.95 175.467C126.199 178.268 127.861 181.147 130.663 181.898C133.464 182.649 136.343 180.986 137.094 178.185C137.844 175.384 136.182 172.505 133.381 171.754Z" fill="#F9C3C3"/>
<path d="M243.949 198.289C241.148 197.538 238.268 199.2 237.518 202.002C236.767 204.802 238.43 207.682 241.231 208.432C244.032 209.183 246.911 207.521 247.662 204.72C248.413 201.918 246.75 199.039 243.949 198.289Z" fill="#F9C3C3"/>
<path d="M221.445 156.162C218.644 155.411 215.764 157.074 215.014 159.875C214.263 162.676 215.926 165.555 218.727 166.306C221.528 167.056 224.407 165.394 225.158 162.593C225.909 159.792 224.246 156.912 221.445 156.162Z" fill="#F9C3C3"/>
<path d="M148.381 131.12C145.579 130.37 142.7 132.032 141.949 134.834C141.199 137.635 142.861 140.514 145.663 141.264C148.464 142.015 151.343 140.353 152.094 137.552C152.844 134.751 151.182 131.871 148.381 131.12Z" fill="#F9C3C3"/>
<path d="M262.183 159.562C259.382 158.811 256.503 160.474 255.752 163.275C255.002 166.076 256.664 168.955 259.465 169.706C262.266 170.457 265.146 168.794 265.896 165.993C266.647 163.192 264.985 160.313 262.183 159.562Z" fill="#F9C3C3"/>
<path d="M183.849 195.668C177.994 194.099 171.976 197.573 170.407 203.428C168.839 209.283 172.313 215.301 178.168 216.87C184.023 218.439 190.041 214.965 191.61 209.11C193.179 203.255 189.704 197.237 183.849 195.668Z" fill="#F9C3C3"/>
<path d="M265.156 212.531C260.58 211.305 255.877 214.021 254.651 218.596C253.425 223.172 256.141 227.874 260.716 229.1C263.012 229.715 265.339 229.338 267.244 228.232L270.374 216.548C269.278 214.637 267.451 213.147 265.156 212.531Z" fill="#EBBBBD"/>
<path d="M143.888 188.846C139.313 187.62 134.61 190.335 133.384 194.911C132.158 199.486 134.873 204.189 139.448 205.415C144.024 206.641 148.727 203.926 149.953 199.35C151.179 194.775 148.463 190.072 143.888 188.846Z" fill="#F9C3C3"/>
<path d="M220.446 209.086C216.926 208.143 213.308 210.232 212.365 213.752C211.421 217.272 213.51 220.89 217.03 221.833C220.55 222.776 224.168 220.687 225.111 217.167C226.054 213.647 223.966 210.029 220.446 209.086Z" fill="#F9C3C3"/>
<path d="M180.847 219.17L159.69 213.501L181.418 132.411L202.574 138.08L180.847 219.17Z" fill="#FDE65B"/>
<path d="M253.124 238.537L243.262 235.894L265.863 151.558L276.213 152.303L253.124 238.537Z" fill="#FDE65B"/>
<path d="M231.556 154.386C231.556 154.386 252.473 165.794 258.848 162.346C260.708 161.34 264.311 151.892 259.67 145.987" stroke="#688DFF" stroke-width="28.0508" stroke-linecap="round"/>
<path d="M230.851 138.402C228.67 137.378 226.492 136.349 225.186 135.718C221.808 134.086 212.509 131.831 207.28 140.126C202.052 148.422 206.883 155.962 215.34 160.86C216.318 161.426 217.387 162.035 218.533 162.661" fill="#C02A32"/>
<path d="M241.778 143.601L231.239 167.087C230.258 169.285 227.65 170.294 225.444 169.329L219.46 165.957C217.867 165.26 217.144 163.391 217.853 161.805L228.273 138.864C228.982 137.277 230.865 136.549 232.457 137.246L238.933 139.126C241.139 140.091 242.76 141.403 241.778 143.601Z" fill="#FEE75C"/>
<mask id="mask2_645_251866" style="mask-type:luminance" maskUnits="userSpaceOnUse" x="4" y="-49" width="370" height="437">
<path d="M101.381 -48.9839L373.917 24.0419L276.549 387.423L4.01314 314.397L101.381 -48.9839Z" fill="white"/>
</mask>
<g mask="url(#mask2_645_251866)">
<path d="M80.2515 206.939L79.5713 206.26C79.4666 206.155 79.3152 206.106 79.1662 206.127L78.1981 206.268C77.8229 206.322 77.5398 205.944 77.7192 205.627L78.1816 204.811C78.2528 204.686 78.2541 204.534 78.1846 204.406L77.7339 203.574C77.5592 203.251 77.8476 202.883 78.222 202.95L79.1879 203.125C79.3365 203.152 79.4889 203.107 79.595 203.007L80.2846 202.352C80.5518 202.098 81.0132 202.249 81.0653 202.607L81.1997 203.531C81.2204 203.673 81.3135 203.797 81.4484 203.863L82.3252 204.291C82.665 204.456 82.6615 204.918 82.3195 205.072L81.4367 205.468C81.3008 205.53 81.2063 205.65 81.1835 205.792L81.0357 206.711C80.9785 207.067 80.5151 207.202 80.2515 206.939Z" fill="white"/>
</g>
</g>
</g>
<g clip-path="url(#clip2_645_251866)">
<mask id="mask3_645_251866" style="mask-type:luminance" maskUnits="userSpaceOnUse" x="301" y="113" width="299" height="209">
<path d="M339.047 113.424L599.146 183.117L561.948 321.943L301.849 252.25L339.047 113.424Z" fill="white"/>
</mask>
<g mask="url(#mask3_645_251866)">
<path d="M584.628 179.873L479.98 151.832L468.069 148.641L352.62 117.706C345.293 115.743 337.69 120.132 335.727 127.46L313.662 209.807L312.587 213.818L305.93 238.664C303.966 245.992 308.356 253.593 315.683 255.557L380.596 272.95L420.431 283.624C422.202 284.255 423.965 284.829 425.699 285.353C425.715 285.358 425.731 285.362 425.747 285.367L425.897 285.406L454.673 292.799L547.691 317.723C548.648 317.98 549.609 318.125 550.562 318.173C556.908 318.488 562.877 314.341 564.584 307.97L572.709 277.649L578.81 254.88L594.381 196.766C596.345 189.438 591.956 181.836 584.628 179.873Z" fill="url(#paint1_radial_645_251866)"/>
<g opacity="0.42">
<path d="M523.773 190.895L504.836 224.941L513.077 224.809L496.346 249.538L507.608 248.781L490.466 274.382L554.598 275.078L538.916 248.793L548.785 248.914L533.461 225.312L540.87 224.959L523.773 190.895Z" fill="#244942"/>
</g>
<g opacity="0.42">
<path d="M458.217 202.016L428.239 216.759L434.342 220.613L410.386 229.896L418.999 234.759L394.329 244.456L441.007 275.652L441.94 249.76L449.117 254.571L449.045 230.726L454.642 234.027L458.217 202.016Z" fill="#244942"/>
</g>
<g opacity="0.42">
<path d="M377.584 159.552L355.936 179.025L361.795 180.931L343.966 194.353L352.111 196.55L333.781 210.489L378.948 226.542L374.24 204.156L381.187 206.637L376.082 186.233L381.405 187.781L377.584 159.552Z" fill="#244942"/>
</g>
<path d="M420.432 283.624C422.203 284.255 423.966 284.829 425.7 285.353C425.716 285.358 425.732 285.362 425.748 285.367L425.898 285.406L454.674 292.799L547.692 317.723C548.649 317.98 549.61 318.125 550.563 318.173C556.909 318.488 562.878 314.341 564.585 307.97L572.71 277.649L576.675 262.85C565.131 256.818 536.42 246.646 475.936 248.464C390.864 251.021 361.373 263.763 332.929 249.622C332.929 249.622 333.071 254.385 333.4 260.304L380.597 272.95L420.432 283.624Z" fill="#58998C"/>
<path d="M420.432 283.624C422.203 284.255 423.966 284.829 425.7 285.353C425.716 285.358 425.732 285.362 425.748 285.367L425.898 285.406L454.674 292.799L547.692 317.723C548.649 317.98 549.61 318.125 550.563 318.173C556.909 318.488 562.878 314.341 564.585 307.97L572.71 277.649L576.675 262.85C565.131 256.818 536.42 246.646 475.936 248.464C390.864 251.021 361.373 263.763 332.929 249.622C332.929 249.622 333.071 254.385 333.4 260.304L380.597 272.95L420.432 283.624Z" fill="url(#paint2_linear_645_251866)"/>
<path d="M432.731 146.585L393.76 173.085L402.738 177.422L371.214 195.051L383.797 200.355L351.355 218.704L420.283 254.317L417.624 217.386L428.224 222.882L424.493 189.046L432.691 192.691L432.731 146.585Z" fill="#244942"/>
<path d="M305.931 238.664C303.967 245.992 308.356 253.593 315.684 255.557L380.597 272.95L420.432 283.624C422.203 284.255 423.966 284.829 425.7 285.353C425.716 285.358 425.732 285.362 425.748 285.367L425.898 285.406L454.674 292.799L546.913 317.515C502.81 298.352 446.242 269.861 411.562 241.356C371.362 208.312 329.88 208.721 313.471 210.524L312.588 213.818L305.931 238.664Z" fill="#58998C"/>
<path d="M305.931 238.664C303.967 245.992 308.356 253.593 315.684 255.557L380.597 272.95L420.432 283.624C422.203 284.255 423.966 284.829 425.7 285.353C425.716 285.358 425.732 285.362 425.748 285.367L425.898 285.406L454.674 292.799L546.913 317.515C502.81 298.352 446.242 269.861 411.562 241.356C371.362 208.312 329.88 208.721 313.471 210.524L312.588 213.818L305.931 238.664Z" fill="url(#paint3_linear_645_251866)"/>
<path d="M350.146 229.97L348.691 165.113L364.427 178.022L368.29 121.905L352.62 117.706C345.293 115.743 337.69 120.132 335.727 127.46L313.662 209.807L312.587 213.818L305.93 238.664C303.966 245.992 308.356 253.593 315.683 255.557L331.115 259.692L330.668 217.507L350.146 229.97Z" fill="#244942"/>
<path d="M419.7 158.077C419.476 158.913 418.612 159.408 417.771 159.182C416.93 158.957 416.429 158.096 416.653 157.261C416.877 156.425 417.741 155.93 418.582 156.155C419.423 156.381 419.924 157.241 419.7 158.077Z" fill="#EFEB70"/>
<path d="M434.387 168.999C434.163 169.835 433.3 170.329 432.458 170.104C431.617 169.879 431.117 169.018 431.341 168.183C431.565 167.347 432.428 166.852 433.269 167.077C434.111 167.303 434.611 168.163 434.387 168.999Z" fill="#EFEB70"/>
<path d="M410.93 172.436C410.706 173.272 409.842 173.767 409.001 173.541C408.16 173.316 407.66 172.456 407.883 171.62C408.107 170.784 408.971 170.289 409.812 170.514C410.654 170.74 411.154 171.6 410.93 172.436Z" fill="#EFEB70"/>
<path d="M428.631 209.946C428.407 210.782 427.544 211.276 426.702 211.051C425.861 210.826 425.361 209.965 425.585 209.129C425.809 208.294 426.672 207.798 427.513 208.024C428.355 208.249 428.855 209.11 428.631 209.946Z" fill="#EFEB70"/>
<path d="M381.752 193.941C381.528 194.776 380.665 195.271 379.824 195.046C378.982 194.82 378.482 193.96 378.706 193.124C378.93 192.288 379.793 191.794 380.635 192.019C381.476 192.244 381.976 193.105 381.752 193.941Z" fill="#EFEB70"/>
<path d="M399.151 210.902C398.927 211.738 398.063 212.233 397.222 212.007C396.381 211.782 395.88 210.922 396.104 210.086C396.328 209.25 397.192 208.755 398.033 208.981C398.874 209.206 399.375 210.066 399.151 210.902Z" fill="#EFEB70"/>
<path d="M414.262 192.32C414.038 193.155 413.175 193.651 412.333 193.425C411.492 193.2 410.992 192.339 411.216 191.503C411.44 190.667 412.303 190.173 413.144 190.398C413.986 190.623 414.486 191.484 414.262 192.32Z" fill="#EFEB70"/>
<path d="M375.856 214.107C375.632 214.943 374.768 215.437 373.927 215.212C373.086 214.987 372.585 214.126 372.809 213.291C373.033 212.455 373.897 211.96 374.738 212.185C375.579 212.41 376.08 213.271 375.856 214.107Z" fill="#EFEB70"/>
<path d="M333.136 201.945C332.426 204.596 329.688 206.165 327.02 205.45C324.352 204.735 322.765 202.007 323.476 199.357C324.186 196.706 326.924 195.137 329.592 195.851C332.26 196.566 333.847 199.295 333.136 201.945Z" fill="#EFEB70"/>
<path d="M343.82 157.072C343.11 159.723 340.371 161.292 337.704 160.577C335.036 159.862 333.449 157.134 334.159 154.484C334.87 151.833 337.608 150.264 340.275 150.979C342.943 151.694 344.53 154.422 343.82 157.072Z" fill="#EFEB70"/>
<path d="M354.648 185.883C353.938 188.533 351.199 190.103 348.532 189.388C345.864 188.673 344.277 185.945 344.987 183.294C345.698 180.644 348.436 179.074 351.104 179.789C353.771 180.504 355.358 183.232 354.648 185.883Z" fill="#EFEB70"/>
</g>
<path d="M481.135 244.257L386.877 219L394.658 197.579L406.538 189.792L481.472 209.871L486.455 221.98L481.135 244.257Z" fill="#96593E"/>
<path d="M432.269 212.688L415.01 208.064" stroke="#B2755D" stroke-width="0.857382" stroke-linecap="round" stroke-linejoin="round"/>
<path d="M392.812 209.548L404.216 212.603" stroke="#B2755D" stroke-width="0.857382" stroke-linecap="round" stroke-linejoin="round"/>
<path d="M449.584 204.776L465.918 209.152" stroke="#B2755D" stroke-width="0.857382" stroke-linecap="round" stroke-linejoin="round"/>
<path d="M402.029 193.024L418.364 197.401" stroke="#B2755D" stroke-width="0.857382" stroke-linecap="round" stroke-linejoin="round"/>
<path d="M391.139 217.326L394.344 218.185C394.344 218.185 393.435 213.422 398.883 200.597C401.573 194.267 406.63 190.19 406.63 190.19L408.355 190.162C408.355 190.162 408.006 188.719 407.182 188.13C406.359 187.541 403.159 188.033 399.029 194.288C394.9 200.543 391.139 217.326 391.139 217.326Z" fill="#BC973B"/>
<path d="M392.14 217.716C392.14 217.716 392.835 210.541 396.289 201.774C398.826 195.332 403.892 188.966 406.321 188.144C406.321 188.144 400.483 186.58 395.595 188.338C394.018 188.905 386.407 197.9 383.638 215.561L392.14 217.716Z" fill="#E0B848"/>
<path d="M480.83 241.358L477.625 240.5C477.625 240.5 480.793 236.829 482.487 222.999C483.323 216.172 480.982 210.113 480.982 210.113L479.502 209.226C479.502 209.226 480.526 208.15 481.534 208.052C482.542 207.954 485.066 209.98 485.515 217.462C485.964 224.944 480.83 241.358 480.83 241.358Z" fill="#BC973B"/>
<path d="M479.769 241.196C479.769 241.196 482.753 234.635 484.146 225.316C485.17 218.468 483.966 210.422 482.273 208.496C482.273 208.496 488.111 210.06 491.466 214.026C492.548 215.306 494.641 226.901 488.209 243.581L479.769 241.196Z" fill="#E0B848"/>
<path d="M486.47 249.445L383.024 221.727C381.506 221.32 380.597 219.745 381.004 218.226L381.858 215.038C382.265 213.519 383.84 212.61 385.358 213.017L488.804 240.735C490.322 241.142 491.231 242.717 490.824 244.235L489.97 247.424C489.563 248.942 487.988 249.852 486.47 249.445Z" fill="#FFD85A"/>
<path d="M441.655 231.682L434.08 229.652C432.561 229.246 431.652 227.67 432.059 226.152L439.292 199.159C439.698 197.641 441.274 196.731 442.792 197.138L450.367 199.168C451.885 199.575 452.794 201.15 452.388 202.668L445.155 229.661C444.748 231.18 443.173 232.089 441.655 231.682Z" fill="#E0B848"/>
<path d="M511.595 219.245C511.595 219.245 495.947 238.229 498.709 257.49C500.719 271.508 526.466 280.395 539.05 279.767C554.603 278.99 558.423 263.487 559.491 248.108C560.559 232.728 557.365 223.129 557.365 223.129C557.365 223.129 515.316 212.955 511.595 219.245Z" fill="#698EFF"/>
<path d="M498.266 209.021L502.546 209.615C507.761 210.339 512.705 206.422 513.532 200.91L514.984 191.238C515.812 185.727 512.222 180.625 507.007 179.901L502.726 179.307C497.511 178.583 492.567 182.5 491.74 188.012L490.288 197.684C489.461 203.196 493.051 208.297 498.266 209.021Z" fill="#698EFF"/>
</g>
<g clip-path="url(#clip3_645_251866)">
<mask id="mask4_645_251866" style="mask-type:luminance" maskUnits="userSpaceOnUse" x="70" y="-229" width="317" height="274">
<path d="M386.917 -157.789L124.156 -228.195L70.0631 -26.3167L332.824 44.0899L386.917 -157.789Z" fill="white"/>
</mask>
<g mask="url(#mask4_645_251866)">
</g>
<g clip-path="url(#clip4_645_251866)">
<mask id="mask5_645_251866" style="mask-type:luminance" maskUnits="userSpaceOnUse" x="56" y="-222" width="339" height="269">
<path d="M394.651 -144.328L107.771 -221.197L56.5253 -29.9439L343.405 46.9253L394.651 -144.328Z" fill="white"/>
</mask>
<g mask="url(#mask5_645_251866)">
<mask id="mask6_645_251866" style="mask-type:luminance" maskUnits="userSpaceOnUse" x="69" y="-165" width="298" height="209">
<path d="M107.096 -164.495L366.881 -94.8854L329.728 43.7733L69.9422 -25.8361L107.096 -164.495Z" fill="white"/>
</mask>
<g mask="url(#mask6_645_251866)">
<g opacity="0.99">
<path d="M315.741 39.3613L84.0122 -22.7302C76.6933 -24.6913 72.3097 -32.2843 74.2708 -39.6033L104.032 -150.673C105.993 -157.992 113.586 -162.376 120.905 -160.415L352.633 -98.3236C359.952 -96.3625 364.336 -88.7694 362.375 -81.4505L332.614 29.6196C330.653 36.9385 323.06 41.3224 315.741 39.3613Z" fill="url(#paint4_linear_645_251866)"/>
<g opacity="0.32">
<path d="M334.304 23.3095L75.9375 -45.9197L77.6699 -52.3854L336.037 16.8438L334.304 23.3095Z" fill="#7F005B"/>
</g>
<path d="M181.893 -17.4037L176.722 1.89282" stroke="white" stroke-width="0.33" stroke-miterlimit="10"/>
<path d="M193.752 -14.2263L188.581 5.07019" stroke="white" stroke-width="0.33" stroke-miterlimit="10"/>
<path d="M205.607 -11.0493L200.437 8.24725" stroke="white" stroke-width="0.33" stroke-miterlimit="10"/>
<path d="M217.465 -7.87213L212.294 11.4244" stroke="white" stroke-width="0.33" stroke-miterlimit="10"/>
<path d="M229.322 -4.69525L224.152 14.6013" stroke="white" stroke-width="0.33" stroke-miterlimit="10"/>
<path d="M241.178 -1.51819L236.007 17.7783" stroke="white" stroke-width="0.33" stroke-miterlimit="10"/>
<path d="M253.037 1.65942L247.867 20.9559" stroke="white" stroke-width="0.33" stroke-miterlimit="10"/>
<path d="M264.895 4.83655L259.724 24.1331" stroke="white" stroke-width="0.33" stroke-miterlimit="10"/>
<path d="M276.75 8.01343L271.58 27.3099" stroke="white" stroke-width="0.33" stroke-miterlimit="10"/>
<path d="M288.607 11.1905L283.437 30.487" stroke="white" stroke-width="0.33" stroke-miterlimit="10"/>
<path d="M300.465 14.3676L295.294 33.6641" stroke="white" stroke-width="0.33" stroke-miterlimit="10"/>
<path d="M312.324 17.5455L307.154 36.842" stroke="white" stroke-width="0.33" stroke-miterlimit="10"/>
<path d="M324.18 20.7218L319.009 40.0183" stroke="white" stroke-width="0.33" stroke-miterlimit="10"/>
</g>
</g>
<path d="M280.748 -38.7474C280.748 -38.7474 265.873 -42.733 250.999 -46.7186C245.401 -48.2184 241.045 -47.4581 237.789 -45.9261C233.484 -43.9001 230.356 -39.9944 229.124 -35.398L220.833 -4.45542C218.48 4.32884 223.693 13.3579 232.477 15.7116L279.611 28.3412C288.395 30.6949 297.424 25.482 299.778 16.6977L308.072 -14.2573C309.252 -18.6599 308.618 -23.3949 306.145 -27.2235C304.129 -30.3448 300.68 -33.4065 294.785 -34.986C279.911 -38.9716 265.037 -42.9572 265.037 -42.9572" fill="#698EFF"/>
<path d="M221.386 -9.65559C221.386 -9.65559 236.45 -9.83436 239.15 -19.9118C241.851 -29.9893 245.09 -42.0781 245.09 -42.0781L254.31 -39.6077L251.268 -28.2561C251.268 -28.2561 250.772 -24.4377 253.967 -23.5816C257.162 -22.7254 269.818 -19.3342 269.818 -19.3342L258.63 24.0149L231.794 16.8243C231.794 16.8243 212.62 12.9342 221.386 -9.65559Z" fill="white"/>
<path d="M300.391 11.5139C300.391 11.5139 287.434 3.82702 290.134 -6.25044C292.835 -16.3279 296.074 -28.4167 296.074 -28.4167L286.854 -30.8871L283.813 -19.5356C283.813 -19.5356 282.333 -15.9806 279.138 -16.8368C275.942 -17.6929 263.287 -21.0841 263.287 -21.0841L251.302 22.0516L278.137 29.2422C278.137 29.2422 296.688 35.4605 300.391 11.5139Z" fill="white"/>
<path d="M255.184 -45.8479C255.184 -45.8479 250.742 -52.8286 236.03 -50.7835C223.694 -49.0685 203.114 -41.3736 198.879 -23.6968C196.645 -14.3705 204.665 -10.4485 204.665 -10.4485C204.665 -10.4485 194.376 -0.499501 206.484 5.28611C218.593 11.0717 225.082 5.82213 226.453 -0.481002C227.824 -6.78414 223.903 -17.0464 223.903 -17.0464L249.347 -30.676C249.347 -30.676 259.619 -35.2088 255.184 -45.8479Z" fill="#698EFF"/>
<path d="M219.141 -26.5791C219.141 -26.5791 233.334 -13.1226 222.209 5.79977" stroke="#3D58D9" stroke-width="2.7093" stroke-linecap="round" stroke-linejoin="round"/>
<path d="M286.484 -37.4611C286.484 -37.4611 295.575 -43.1734 305.54 -32.1582C314.757 -21.9707 328.509 -4.72224 323.743 10.6197C320.897 19.7782 312.536 18.4554 312.536 18.4554C312.536 18.4554 316.472 32.2161 303.093 31.1723C289.714 30.1285 286.719 22.3378 288.683 16.1935C290.647 10.0492 299.174 3.12192 299.174 3.12192L283.954 -21.4032C283.954 -21.4032 277.324 -30.4646 286.484 -37.4611Z" fill="#698EFF"/>
<path d="M308.066 -2.75134C308.066 -2.75134 289.047 1.80571 289.22 23.7554" stroke="#3D58D9" stroke-width="2.7093" stroke-linecap="round" stroke-linejoin="round"/>
<path d="M311.482 19.5186C311.482 19.5186 307.383 20.3199 305.148 19.3367" stroke="#3D58D9" stroke-width="2.7093" stroke-linecap="round" stroke-linejoin="round"/>
<path d="M334.773 22.3867C334.773 22.3867 207.606 -11.6876 184.846 -17.7862C162.085 -23.8849 154.543 -5.15619 154.543 -5.15619L154.119 -3.57325C154.119 -3.57325 289.207 32.6235 311.967 38.7221C318.021 40.3442 320.401 40.6953 323.539 39.5616C331.832 36.5645 332.754 29.9224 332.754 29.9224L334.773 22.3867Z" fill="#443995"/>
<path d="M290.137 -6.24974C292.838 -16.3272 296.914 -31.5411 296.914 -31.5411L287.694 -34.0115L283.815 -19.5349C283.815 -19.5349 282.336 -15.9799 279.14 -16.8361C275.945 -17.6922 263.289 -21.0834 263.289 -21.0834C263.289 -21.0834 287.437 3.82772 290.137 -6.24974Z" fill="white"/>
<path d="M285.351 26.4243L224.777 10.1936C220.881 9.14976 218.299 5.45811 218.653 1.44046L219.756 -11.0443C219.972 -13.4947 222.347 -15.1562 224.723 -14.5196L297.755 5.0493C300.131 5.68595 301.357 8.31237 300.319 10.5426L295.031 21.9058C293.329 25.5625 289.247 27.4682 285.351 26.4243Z" fill="#8E5D39"/>
<path d="M262.131 -1.32513L257.505 15.9403" stroke="#684127" stroke-width="2.51262" stroke-linecap="round" stroke-linejoin="round"/>
<path d="M252.059 -4.0238L247.432 13.2416" stroke="#684127" stroke-width="2.51262" stroke-linecap="round" stroke-linejoin="round"/>
<path d="M241.986 -6.72272L237.36 10.5427" stroke="#684127" stroke-width="2.51262" stroke-linecap="round" stroke-linejoin="round"/>
<path d="M231.916 -9.42108L227.29 7.84431" stroke="#684127" stroke-width="2.51262" stroke-linecap="round" stroke-linejoin="round"/>
<path d="M292.344 6.77051L287.718 24.0359" stroke="#684127" stroke-width="2.51262" stroke-linecap="round" stroke-linejoin="round"/>
<path d="M282.273 4.07214L277.647 21.3375" stroke="#684127" stroke-width="2.51262" stroke-linecap="round" stroke-linejoin="round"/>
<path d="M272.199 1.37299L267.573 18.6384" stroke="#684127" stroke-width="2.51262" stroke-linecap="round" stroke-linejoin="round"/>
<path d="M302.955 4.90661C304.58 5.34204 305.796 3.43349 304.718 2.1414C303.729 0.954944 302.687 -0.506653 301.651 -2.30156C298.142 -8.3794 293.727 -13.9054 288.208 -18.2792C280.521 -24.3713 271.237 -27.6 261.677 -29.4048C249.291 -31.7432 236.817 -28.7991 226.021 -22.5664C224.227 -21.5301 222.593 -20.7854 221.143 -20.2525C219.564 -19.6722 219.663 -17.4113 221.288 -16.9759L302.955 4.90661Z" fill="#FEE75C"/>
<path d="M308.689 9.07506C307.699 12.7717 302.139 14.4937 296.272 12.9215C290.404 11.3492 286.45 7.07813 287.441 3.38152C288.431 -0.315088 293.991 -2.03721 299.858 -0.464985C305.726 1.10724 309.68 5.37845 308.689 9.07506Z" fill="#D6BE45"/>
<path d="M290.416 4.17851C289.426 7.87512 283.866 9.59724 277.998 8.02501C272.131 6.45278 268.177 2.18158 269.167 -1.51502C270.158 -5.21163 275.718 -6.93368 281.585 -5.36145C287.453 -3.78922 291.407 0.481903 290.416 4.17851Z" fill="#D6BE45"/>
<path d="M272.143 -0.717848C271.152 2.97876 265.592 4.70079 259.725 3.12857C253.857 1.55634 249.904 -2.71478 250.894 -6.41139C251.885 -10.108 257.444 -11.8301 263.312 -10.2579C269.179 -8.68566 273.133 -4.41446 272.143 -0.717848Z" fill="#D6BE45"/>
<path d="M253.865 -5.61494C252.875 -1.91834 247.315 -0.196206 241.448 -1.76844C235.58 -3.34066 231.626 -7.61187 232.617 -11.3085C233.607 -15.0051 239.167 -16.7271 245.035 -15.1549C250.902 -13.5827 254.856 -9.31155 253.865 -5.61494Z" fill="#D6BE45"/>
<path d="M197.237 2.07977L167.302 -5.9412C166.601 -6.1291 166.181 -6.8566 166.369 -7.55786L166.611 -8.46344C166.799 -9.16471 167.527 -9.58472 168.228 -9.39682L198.163 -1.37586C198.864 -1.18795 199.284 -0.46046 199.096 0.240806L198.854 1.14639C198.666 1.84765 197.938 2.26767 197.237 2.07977Z" fill="#E5CC4E"/>
<path d="M163.031 -15.5642C162.307 -12.8589 163.912 -10.0782 166.617 -9.35334L198.629 -0.775842C201.334 -0.050964 204.115 -1.65638 204.84 -4.36166L206.586 -10.8773L164.777 -22.0798L163.031 -15.5642Z" fill="#FEE75C"/>
</g>
</g>
</g>
<g clip-path="url(#clip5_645_251866)">
<mask id="mask7_645_251866" style="mask-type:luminance" maskUnits="userSpaceOnUse" x="355" y="-152" width="318" height="273">
<path d="M672.833 -81.1781L410.072 -151.585L355.979 50.2938L618.74 120.7L672.833 -81.1781Z" fill="white"/>
</mask>
<g mask="url(#mask7_645_251866)">
<mask id="mask8_645_251866" style="mask-type:luminance" maskUnits="userSpaceOnUse" x="342" y="-145" width="339" height="269">
<path d="M680.567 -67.7175L393.688 -144.587L342.441 46.6665L629.321 123.536L680.567 -67.7175Z" fill="white"/>
</mask>
<g mask="url(#mask8_645_251866)">
<mask id="mask9_645_251866" style="mask-type:luminance" maskUnits="userSpaceOnUse" x="355" y="-88" width="298" height="209">
<path d="M393.014 -87.8843L652.799 -18.2749L615.646 120.384L355.86 50.7744L393.014 -87.8843Z" fill="white"/>
</mask>
<g mask="url(#mask9_645_251866)">
<path d="M601.797 116.213L370.069 54.1216C362.75 52.1605 358.366 44.5678 360.327 37.2488L390.089 -73.8213C392.05 -81.1402 399.643 -85.5241 406.962 -83.563L638.69 -21.4716C646.009 -19.5104 650.393 -11.9174 648.432 -4.59844L618.671 106.472C616.709 113.791 609.116 118.174 601.797 116.213Z" fill="url(#paint5_linear_645_251866)"/>
<path d="M435.944 14.2421C435.787 15.3041 435.031 21.5039 438.418 22.9863C434.743 22.5716 432.297 28.3291 431.903 29.3214C432.057 28.2648 432.818 22.0557 429.427 20.577C433.102 20.987 435.547 15.2398 435.944 14.2421Z" fill="#FEE75C"/>
<path d="M391.401 26.2595C391.288 27.0252 390.743 31.4937 393.185 32.562C390.535 32.2631 388.773 36.4128 388.489 37.1281C388.599 36.3665 389.148 31.8913 386.704 30.8255C389.352 31.1211 391.115 26.9788 391.401 26.2595Z" fill="#FEE75C"/>
<g opacity="0.37">
<path d="M603 116.473C543.226 100.457 445.349 74.425 445.349 74.425C445.349 74.425 458.56 64.3778 475.904 65.0803C493.247 65.7829 484.893 74.0631 484.893 74.0631C484.893 74.0631 528.578 53.3352 548.725 58.2953C568.872 63.2554 568.469 81.1173 568.469 81.1173C568.469 81.1173 595.752 70.8961 613.408 83.5163C617.767 86.6315 620.618 89.9546 622.247 93.0649L618.315 107.64C618.315 107.64 617.897 108.991 616.755 110.617C614.642 113.623 610.144 117.717 603 116.473Z" fill="#062000"/>
</g>
<path d="M415.521 44.2545C415.464 44.6373 415.192 46.8715 416.413 47.4056C415.088 47.2559 414.206 49.331 414.065 49.6887C414.12 49.3079 414.394 47.0702 413.172 46.5374C414.497 46.6852 415.378 44.6142 415.521 44.2545Z" fill="white"/>
<path d="M433.34 -21.9331C432.941 -22.1189 432.544 -22.3073 432.146 -22.4936C420.67 -17.5295 408.818 -13.4364 396.645 -10.5459C388.558 -8.62603 380.332 -7.2471 372.052 -6.50865L371.782 -5.49755C378.179 -6.0513 384.546 -6.98225 390.841 -8.25677C405.461 -11.2169 419.68 -15.9631 433.34 -21.9331Z" fill="black"/>
<path d="M587.955 27.6433C561.334 22.3192 535.031 15.4113 509.23 6.9661C483.784 -1.36286 458.83 -11.1897 434.544 -22.4638C434.143 -22.2861 433.741 -22.1091 433.339 -21.9333C454.848 -11.9169 476.886 -3.03224 499.323 4.68353C525.114 13.5529 551.436 20.878 578.1 26.6087C597.7 30.8209 617.487 34.1682 637.382 36.6382L637.639 35.6787C620.986 33.6149 604.41 30.9341 587.955 27.6433Z" fill="black"/>
<path d="M383.654 2.05149C382.989 4.53205 380.426 6.00017 377.93 5.33123C375.433 4.6623 373.948 2.10964 374.613 -0.370918C375.278 -2.85147 377.84 -4.31991 380.337 -3.65098C382.833 -2.98205 384.318 -0.429067 383.654 2.05149Z" fill="#EFEB70"/>
<path d="M382.964 0.131377C382.848 0.564245 382.437 0.83047 382.048 0.726011C381.658 0.621552 381.436 0.185878 381.552 -0.24699C381.668 -0.67986 382.078 -0.946406 382.468 -0.841947C382.858 -0.737488 383.08 -0.301493 382.964 0.131377Z" fill="white"/>
<path d="M408.192 -2.67156C407.528 -0.191003 404.965 1.27752 402.469 0.608591C399.972 -0.0603425 398.487 -2.61332 399.152 -5.09388C399.817 -7.57443 402.379 -9.04287 404.876 -8.37394C407.372 -7.70501 408.857 -5.15211 408.192 -2.67156Z" fill="#EFEB70"/>
<path d="M468.744 3.3904C466.758 4.59246 464.163 3.96286 462.948 1.98436C461.733 0.00585939 462.358 -2.57246 464.344 -3.77452C466.33 -4.97657 468.924 -4.34697 470.139 -2.36847C471.355 -0.389972 470.73 2.18835 468.744 3.3904Z" fill="#EFEB70"/>
<path d="M470.142 -0.0756062C470.026 0.357264 469.615 0.623805 469.225 0.519349C468.836 0.41489 468.613 -0.0211032 468.729 -0.453973C468.845 -0.886843 469.256 -1.15307 469.645 -1.04861C470.035 -0.944153 470.258 -0.508476 470.142 -0.0756062Z" fill="white"/>
</g>
<path d="M539.959 -57.8418C539.959 -57.8418 524.95 -68.2004 519.286 -63.181C513.621 -58.1614 519.007 -53.2528 519.007 -53.2528C487.505 -54.6327 486.48 -33.1444 486.48 -33.1444C472.418 -33.2239 470.112 -20.8493 470.112 -20.8493C469.446 -21.1244 466.378 -20.8269 464.367 -17.2822C462.356 -13.7379 462.996 -10.1904 462.996 -10.1904C462.996 -10.1904 596.906 30.4788 601.343 30.3209C605.779 30.163 610.036 28.6086 610.674 23.4932C611.312 18.3777 608.153 14.9489 607.195 13.665C606.238 12.3812 606.409 10.9165 606.409 10.9165C612.928 -18.7522 589.957 -20.1249 589.957 -20.1249C590.119 -39.7583 568.594 -45.594 568.594 -45.594C568.594 -45.594 577.693 -51.8999 568.831 -60.5799C567.486 -61.8977 565.885 -62.7517 564.135 -63.2535C554.356 -66.0567 539.959 -57.8418 539.959 -57.8418Z" fill="url(#paint6_linear_645_251866)"/>
<path d="M476.101 -4.34784C476.268 -4.59983 481.57 -8.5192 490.922 -7.99118C500.274 -7.46316 509.452 -0.751462 510.01 6.02351L476.101 -4.34784Z" fill="#F5D9A3"/>
<path d="M477.305 74.6374C477.494 74.8054 503.958 81.8247 514.157 84.5254C524.34 87.286 550.769 94.4392 551.017 94.3885C566.861 91.1462 575.671 79.78 581.026 68.7514L464.135 37.4306C463.258 49.659 465.204 63.9074 477.305 74.6374Z" fill="white"/>
<path d="M606.941 29.9035C607.016 27.4539 604.331 27.1708 604.331 27.1708L537.261 9.19941L531.811 7.73923L464.741 -10.2321C464.741 -10.2321 462.275 -11.3294 461.115 -9.17037C459.955 -7.01136 461.609 -6.132 462.998 -3.72568C464.387 -1.31959 469.583 7.48185 466.811 20.5405C465.851 25.0585 464.598 30.9619 464.134 37.4302L581.025 68.751C583.858 62.9173 585.724 57.1784 587.152 52.786C591.28 40.0905 600.181 35.0663 602.587 33.6772C604.994 32.2879 606.865 32.353 606.941 29.9035Z" fill="#E8449B"/>
<path d="M475.85 49.3045C475.451 50.7957 473.918 51.6808 472.427 51.2813C470.936 50.8817 470.051 49.3487 470.45 47.8576C470.85 46.3664 472.383 45.4817 473.874 45.8812C475.365 46.2808 476.25 47.8134 475.85 49.3045Z" fill="#E9459C"/>
<path d="M495.889 62.2708C495.49 63.762 493.957 64.6467 492.466 64.2472C490.975 63.8476 490.09 62.315 490.489 60.8239C490.889 59.3328 492.422 58.4476 493.913 58.8472C495.404 59.2467 496.289 60.7797 495.889 62.2708Z" fill="#E9459C"/>
<path d="M480.784 65.0957C480.384 66.5869 478.852 67.4719 477.36 67.0724C475.869 66.6728 474.984 65.1399 475.384 63.6488C475.784 62.1576 477.316 61.2728 478.807 61.6723C480.298 62.0719 481.184 63.6046 480.784 65.0957Z" fill="#E9459C"/>
<path d="M490.409 52.1206C490.009 53.6117 488.477 54.4965 486.985 54.0969C485.494 53.6974 484.609 52.1648 485.009 50.6736C485.408 49.1825 486.941 48.2973 488.432 48.6969C489.923 49.0964 490.809 50.6294 490.409 52.1206Z" fill="#E9459C"/>
<path d="M506.4 21.2217L502.696 20.2784L505.11 18.8851L505.245 18.3805L504.552 17.1137L503.931 17.0457L499.692 19.4735L492.709 17.6515L498.542 14.2253L503.175 15.4665L503.917 15.1737L504.23 14.0042L504.003 13.4762L501.142 12.6856L504.665 10.7293L504.972 9.9512L504.288 8.834L503.478 8.73984L500.168 10.7285L500.77 8.11242L500.549 7.56189L499.225 7.18253L498.592 7.52873L497.418 12.2772L491.49 15.506L493.327 8.64953L497.635 6.2401L497.915 5.65174L497.245 4.39069L496.609 4.19572L494.15 5.57672L495.109 1.99965L494.883 1.3738L493.674 1.02518L492.994 1.35931L491.987 5.11999L490.691 2.70837L490.201 2.42931L488.853 3.14972L488.664 3.76259L491.156 7.94517L489.349 15.0554L485.906 9.19269L487.206 4.52694L486.984 3.97641L485.702 3.53433L485.128 3.7493L484.409 6.43227L482.454 3.18041L481.897 2.78495L480.623 3.50086L480.395 4.07848L482.272 7.53074L479.714 6.89465L479.178 7.24273L478.847 8.48078L479.101 9.08982L483.975 10.3465L487.293 16.1264L480.372 14.3458L477.835 10.0533L477.304 9.83701L475.955 10.5571L475.922 11.1382L477.357 13.4888L473.528 12.4627L473.052 12.6792L472.656 13.9742L472.939 14.5664L476.596 15.5951L474.431 16.9813L474.156 17.5466L474.834 18.6869L475.505 18.8421L479.727 16.3852L486.726 18.3339L480.881 21.7081L476.141 20.4133L475.682 20.6592L475.269 21.9247L475.484 22.4985L478.125 23.2801L474.767 25.0835L474.592 25.5529L475.185 26.9161L475.96 27.05L479.273 25.2343L478.631 27.8148L478.898 28.378L480.228 28.7343L480.757 28.4092L482.102 23.7557L487.867 20.3111L486.047 27.1966L481.742 29.779L481.57 30.4213L482.249 31.4635L482.897 31.6126L485.205 30.3382L484.234 33.9615L484.513 34.4788L485.791 34.8459L486.39 34.5392L487.4 30.951L488.774 33.1627L489.329 33.3848L490.463 32.7303L490.58 31.926L488.219 27.8032L490.076 20.7804L493.438 26.6701L492.264 31.4187L492.611 32.0523L493.78 32.3657L494.362 32.0299L495.09 29.497L497.005 32.7136L497.862 33.0909L498.876 32.4284L499.085 31.6487L497.081 28.2116L499.637 28.9456L500.217 28.7078L500.619 27.3899L500.213 26.8878L495.483 25.645L492.098 19.7487L499.052 21.5879L501.497 25.8558L502.247 26.0815L503.265 25.4939L503.484 24.7663L502.158 22.4691L505.673 23.3863L506.444 23.077L506.734 21.9013L506.4 21.2217Z" fill="white"/>
<path d="M473.852 39.6065L473.518 38.927L469.814 37.9837L472.227 36.5904L472.362 36.0858L471.669 34.8188L471.048 34.7509L466.809 37.1787L464.094 36.5082L465.66 31.9305L470.292 33.1717L471.034 32.8789L471.347 31.7094L471.12 31.1818L468.259 30.3907L471.782 28.4345L472.089 27.6564L471.405 26.5392L470.595 26.445L467.285 28.4337L467.887 25.8179L467.666 25.2671L466.342 24.8878L465.709 25.2342L464.898 31.5754L464.886 31.5903L464.862 31.5881L464.838 31.5963L464.834 31.5937L464.814 31.5754L464.898 31.5665L464.827 31.5517L464.805 31.5556L464.82 31.5529L464.802 31.5662L464.833 31.5754L464.849 31.5949L464.822 31.5844L464.849 31.616L464.797 31.5883L464.834 31.5963L464.858 31.6145L464.901 31.5886L464.802 31.6251L464.864 31.5681L464.904 31.5872L464.964 31.5701L464.811 31.5933L464.89 31.6215L464.897 31.6186L464.878 31.5873L464.879 31.5779L464.845 31.5931L464.862 31.5836L464.881 31.5718L464.876 31.5791L464.907 31.566L464.853 31.6091L464.886 31.5805L464.895 31.5771L464.853 31.6675L464.926 31.5644L464.813 31.5667L464.902 31.5061L464.88 31.6476L464.855 31.5837L464.878 31.5946L464.778 31.6639L463.998 37.5674L473.716 40.157L473.852 39.6065Z" fill="white"/>
<path d="M585.116 102.646C585.04 100.932 583.537 100.886 583.537 100.886L527.984 86.0007L527.076 85.7575L445.666 63.9435C445.666 63.9435 444.342 63.2317 443.419 64.678C442.497 66.1244 444.231 67.3021 446.803 68.3479C449.374 69.3933 457.993 73.4849 464.666 76.5206C471.338 79.5562 475.062 81.6237 476.231 82.9173L514.06 93.0537L535.609 98.8277L547.58 102.035C549.239 101.499 553.498 101.571 560.794 102.278C568.091 102.986 577.6 103.751 580.35 104.132C583.1 104.512 585.191 104.359 585.116 102.646Z" fill="#E8449B"/>
<path d="M460.062 -0.169563C450.49 3.44057 447.204 17.0912 445.246 25.7969C444.399 29.56 443.126 37.4506 444.323 44.1353C447.511 61.9229 467.611 65.0027 477.348 65.2998C480.75 65.4036 482.943 64.9647 483.155 61.689C483.31 59.2705 481.47 57.8751 477.139 57.2069C474.152 56.7459 461.061 53.36 457.537 47.4264C454.013 41.4925 454.886 31.2491 456.686 24.9957C458.487 18.7423 461.067 9.57967 468.923 8.19203C476.779 6.8044 484.016 9.79123 487.464 10.9791C491.164 12.254 493.417 12.3631 494.29 10.1138C495.436 7.15964 493.665 5.6159 490.123 4.01867C482.483 0.574004 468.884 -3.49708 460.062 -0.169563Z" fill="white"/>
<path d="M460.062 -0.169563C450.49 3.44057 447.204 17.0912 445.246 25.7969C444.399 29.56 443.126 37.4506 444.323 44.1353C447.511 61.9229 467.611 65.0027 477.348 65.2998C480.75 65.4036 482.943 64.9647 483.155 61.689C483.31 59.2705 481.47 57.8751 477.139 57.2069C474.152 56.7459 461.061 53.36 457.537 47.4264C454.013 41.4925 454.886 31.2491 456.686 24.9957C458.487 18.7423 461.067 9.57967 468.923 8.19203C476.779 6.8044 484.016 9.79123 487.464 10.9791C491.164 12.254 493.417 12.3631 494.29 10.1138C495.436 7.15964 493.665 5.6159 490.123 4.01867C482.483 0.574004 468.884 -3.49708 460.062 -0.169563Z" fill="white"/>
<path d="M451.364 56.5921C453.657 56.039 457.079 54.2044 460.346 50.4749C459.094 49.5216 458.094 48.4822 457.413 47.3364C457.029 46.6907 456.762 45.9229 456.478 45.1858C454.155 46.1242 449.765 47.4788 444.9 46.8427C446.258 50.7459 448.456 54.1977 451.364 56.5921Z" fill="#E9459C"/>
<path d="M470.1 -1.12474C466.83 -1.38508 463.642 -1.28279 460.929 -0.562844C463.694 0.36124 466.356 2.91938 466.876 8.77004C467.593 8.46295 468.57 8.23915 469.399 8.09259C470.738 7.85601 471.947 7.84721 473.235 7.8343C473.191 3.76424 471.574 0.677986 470.1 -1.12474Z" fill="#E9459C"/>
<path d="M460.847 62.3125C463.928 63.4687 467.54 64.3001 470.783 64.7181C473.346 61.4162 473.501 58.1781 473.085 56.3211C471.119 55.7543 468.785 54.9671 466.507 53.9676C465.98 55.981 464.217 60.1926 460.847 62.3125Z" fill="#E9459C"/>
<path d="M445.158 26.3445C444.661 28.7258 444.028 32.1916 443.884 36.0118C446.873 36.9414 450.837 37.7983 455.176 37.4485C455.075 34.6816 455.355 31.815 455.779 29.2337C452.877 28.4637 448.498 27.3258 445.158 26.3445Z" fill="#E9459C"/>
<path d="M451.613 7.30724C449.932 10.1965 448.57 13.507 447.599 16.7952C449.984 17.3269 453.499 18.4341 457.85 21.2658C458.6 18.8891 459.659 16.5453 460.952 14.3362C458.862 11.6478 455.506 8.17601 451.613 7.30724Z" fill="#E8449B"/>
<path d="M487.223 10.7753C487.681 6.99422 487.393 4.09403 487.058 2.56932C484.886 1.84757 482.01 0.990861 478.848 0.271351C479.809 2.92807 479.72 6.15026 479.428 8.52846C482.644 9.18861 485.378 10.123 487.223 10.7753Z" fill="#E8449B"/>
<path d="M456.147 6.72748L457.657 7.08645C457.852 7.13256 458.055 7.07473 458.194 6.93107C458.67 6.4403 459.894 5.26344 461.497 4.33744L463.056 3.43751C463.531 3.16278 463.381 2.44053 462.835 2.37972C462.376 2.32877 461.835 2.32423 461.254 2.43029C459.776 2.70032 457.559 4.01552 455.861 5.787C455.56 6.10156 455.723 6.62694 456.147 6.72748Z" fill="#EEFCFF"/>
</g>
</g>
</g>
</g>
<defs>
<linearGradient id="paint0_linear_645_251866" x1="322.76" y1="182.692" x2="-101.671" y2="70.7338" gradientUnits="userSpaceOnUse">
<stop offset="0.21" stop-color="#001F8E"/>
<stop offset="0.58" stop-color="#0E83BD"/>
<stop offset="0.77" stop-color="#1BE6ED"/>
</linearGradient>
<radialGradient id="paint1_radial_645_251866" cx="0" cy="0" r="1" gradientUnits="userSpaceOnUse" gradientTransform="translate(470.14 162.404) rotate(15) scale(107.796 107.796)">
<stop offset="0.26" stop-color="#58998C"/>
<stop offset="0.63" stop-color="#58998C"/>
<stop offset="1" stop-color="#58998C"/>
</radialGradient>
<linearGradient id="paint2_linear_645_251866" x1="438.397" y1="172.369" x2="474.406" y2="366.289" gradientUnits="userSpaceOnUse">
<stop stop-color="#EAFFF2"/>
<stop offset="0.5" stop-color="#8EBBA8"/>
<stop offset="1" stop-color="#31775E"/>
</linearGradient>
<linearGradient id="paint3_linear_645_251866" x1="457.166" y1="209.551" x2="405.8" y2="312.288" gradientUnits="userSpaceOnUse">
<stop stop-color="#EAFFF2"/>
<stop offset="0.5" stop-color="#8EBBA8"/>
<stop offset="1" stop-color="#31775E"/>
</linearGradient>
<linearGradient id="paint4_linear_645_251866" x1="124.283" y1="-181.926" x2="296.192" y2="40.3054" gradientUnits="userSpaceOnUse">
<stop stop-color="#FF16A6"/>
<stop offset="0.42" stop-color="#FE4B72"/>
<stop offset="0.64" stop-color="#FE803F"/>
<stop offset="0.82" stop-color="#FEB44E"/>
<stop offset="1" stop-color="#FEE75C"/>
</linearGradient>
<linearGradient id="paint5_linear_645_251866" x1="525.893" y1="-64.066" x2="456.67" y2="194.277" gradientUnits="userSpaceOnUse">
<stop stop-color="#7F539D"/>
<stop offset="0.38" stop-color="#653C90"/>
<stop offset="0.75" stop-color="#4C2583"/>
</linearGradient>
<linearGradient id="paint6_linear_645_251866" x1="539.09" y1="-51.8682" x2="530.744" y2="-1.5027" gradientUnits="userSpaceOnUse">
<stop offset="0.02" stop-color="#F1AA4B"/>
<stop offset="0.09" stop-color="#F2B868"/>
<stop offset="0.16" stop-color="#F4C585"/>
<stop offset="0.58" stop-color="#FAE2C2"/>
<stop offset="1" stop-color="white"/>
</linearGradient>
<clipPath id="clip0_645_251866">
<rect width="490" height="215" fill="white"/>
</clipPath>
<clipPath id="clip1_645_251866">
<rect width="275" height="209" fill="white" transform="translate(66.1855 -27.3558) rotate(15)"/>
</clipPath>
<clipPath id="clip2_645_251866">
<rect width="275" height="209" fill="white" transform="translate(354.998 50.0311) rotate(15)"/>
</clipPath>
<clipPath id="clip3_645_251866">
<rect width="275" height="209" fill="white" transform="translate(120.279 -229.234) rotate(15)"/>
</clipPath>
<clipPath id="clip4_645_251866">
<rect width="297" height="198" fill="white" transform="translate(107.771 -221.197) rotate(15)"/>
</clipPath>
<clipPath id="clip5_645_251866">
<rect width="275" height="209" fill="white" transform="translate(409.092 -151.847) rotate(15)"/>
</clipPath>
</defs>
</svg>
