<svg fill="none" height="30" viewBox="0 0 50 30" width="50" xmlns="http://www.w3.org/2000/svg" xmlns:xlink="http://www.w3.org/1999/xlink"><filter id="a" color-interpolation-filters="sRGB" filterUnits="userSpaceOnUse" height="6.75006" width="6.66064" x="21.93" y="12.21"><feFlood flood-opacity="0" result="BackgroundImageFix"/><feBlend in="SourceGraphic" in2="BackgroundImageFix" mode="normal" result="shape"/><feColorMatrix in="SourceAlpha" result="hardAlpha" type="matrix" values="0 0 0 0 0 0 0 0 0 0 0 0 0 0 0 0 0 0 127 0"/><feOffset dx="1" dy="1"/><feGaussianBlur stdDeviation="1"/><feComposite in2="hardAlpha" k2="-1" k3="1" operator="arithmetic"/><feColorMatrix type="matrix" values="0 0 0 0 0 0 0 0 0 0 0 0 0 0 0 0 0 0 0.5 0"/><feBlend in2="shape" mode="normal" result="effect1_innerShadow_104_665"/></filter><g clip-rule="evenodd" fill-rule="evenodd"><path d="m3 0h43.65c.7957 0 1.5587.31607 2.1213.87868s.8787 1.32567.8787 2.12132v24c0 .7956-.3161 1.5587-.8787 2.1213s-1.3256.8787-2.1213.8787h-43.65c-.79565 0-1.55871-.3161-2.12132-.8787s-.87868-1.3257-.87868-2.1213v-24c0-.79565.31607-1.55871.87868-2.12132s1.32567-.87868 2.12132-.87868z" fill="#fff"/><path d="m49.4 16.85c0 5.64-.34 9.07-.34 12.17-2.26.6-18.15.3-35.7.97 15.32-3.14 26.38-7.43 36.03-13.14z" fill="#f58220"/><path d="m2 .5c-.83 0-1.5.67-1.5 1.5v26c0 .83.67 1.5 1.5 1.5h46c.83 0 1.5-.67 1.5-1.5v-26c0-.83-.67-1.5-1.5-1.5z" stroke="#e4e4e4"/><path d="m40.78 12.68c0-.1-.07-.16-.2-.16h-.16v.5h.12v-.2l.15.2h.15l-.17-.2c.07-.02.11-.07.11-.14zm-.21.07h-.03v-.13h.03c.06 0 .09.02.09.06s-.03.07-.1.07z" fill="#231f20"/><path d="m40.6 12.34c-.23 0-.41.19-.41.43s.18.43.4.43c.23 0 .4-.2.4-.43 0-.24-.17-.43-.4-.43zm0 .78c-.19 0-.33-.16-.33-.35 0-.2.14-.35.32-.35s.33.16.33.35c0 .2-.15.35-.33.35z" fill="#231f20"/><path d="m40.02 13.9c0-1.04-.69-1.64-1.88-1.64h-1.54v5.57h1.03v-2.23h.14l1.43 2.24h1.28l-1.68-2.34c.79-.17 1.22-.73 1.22-1.58zm-2.08.93h-.3v-1.7h.31c.65 0 1 .3 1 .83 0 .56-.35.87-1.01.87zm-4.97 3h2.94v-.93h-1.9v-1.5h1.83v-.95h-1.83v-1.25h1.9v-.94h-2.94v5.58m-3.03-1.84-1.42-3.74h-1.13l2.25 5.72h.56l2.3-5.72h-1.13l-1.42 3.75" fill="#231f20"/></g><path d="m21.93 15.02c0 1.68 1.21 2.94 2.83 2.94.3772-.0012.7504-.0776 1.0978-.2246.3474-.1471.662-.3619.9254-.6319.2635-.2699.4705-.5897.609-.9405.1386-.3509.2058-.7258.1978-1.103.0026-.3716-.068-.7401-.2077-1.0845-.1398-.3443-.3461-.6578-.607-.9224-.261-.2647-.5715-.4753-.9138-.62-.3424-.1446-.7098-.2204-1.0815-.2231-.3716-.0026-.7401.068-1.0845.2078-.3443.1398-.6578.346-.9224.607-.2647.2609-.4754.5714-.62.9138-.1446.3423-.2205.7098-.2231 1.0814z" fill="#f48027"/><g filter="url(#a)"><path d="m21.93 15.02c0 1.68 1.21 2.94 2.83 2.94.3772-.0012.7504-.0776 1.0978-.2246.3474-.1471.662-.3619.9254-.6319.2635-.2699.4705-.5897.609-.9405.1386-.3509.2058-.7258.1978-1.103.0026-.3716-.068-.7401-.2077-1.0845-.1398-.3443-.3461-.6578-.607-.9224-.261-.2647-.5715-.4753-.9138-.62-.3424-.1446-.7098-.2204-1.0815-.2231-.3716-.0026-.7401.068-1.0845.2078-.3443.1398-.6578.346-.9224.607-.2647.2609-.4754.5714-.62.9138-.1446.3423-.2205.7098-.2231 1.0814z" fill="#000"/></g><path clip-rule="evenodd" d="m17.43 15.05c-.0117.4882.1035.971.3344 1.4012.231.4302.5696.7932.9829 1.0532.4133.2601.887.4084 1.3748.4304s.9729-.083 1.4079-.3048v-1.27c-.41.43-.78.6-1.25.6-1.04 0-1.78-.79-1.78-1.92 0-1.07.76-1.91 1.73-1.91.5 0 .87.18 1.3.62v-1.27c-.3854-.2259-.8233-.3466-1.27-.35-.3781.0039-.7518.0827-1.0992.232-.3475.1492-.662.3659-.9251.6374-.2632.2716-.47.5926-.6082.9446-.1383.352-.2054.7279-.1975 1.106zm-1.86-.65c-.62-.24-.8-.4-.8-.7 0-.35.32-.62.77-.62.3 0 .56.13.84.45l.54-.74c-.4236-.4017-.9862-.6239-1.57-.62-.2143-.0067-.4277.0297-.6276.1071-.2.0774-.3823.1942-.5362.3435-.1539.1492-.2763.3279-.3598.5253-.0835.1975-.1265.4097-.1264.6241 0 .76.33 1.16 1.3 1.52.41.15.62.25.72.32.2.14.31.34.31.58 0 .45-.34.78-.8.78-.5 0-.9-.25-1.14-.74l-.66.68c.47.73 1.05 1.06 1.84 1.06 1.07 0 1.83-.75 1.83-1.83 0-.89-.35-1.29-1.53-1.74zm-3.57-2.14h1.04v5.58h-1.05zm-3.32999 0h-1.53v5.57h1.52c.8 0 1.37999-.2 1.89999-.64.6-.53.96-1.32.96-2.14 0-1.65-1.17-2.79-2.84999-2.79zm1.2 4.19c-.32.3-.74.44-1.41.44h-.28v-3.69h.28c.67 0 1.07.13 1.42.45.35999.34.56999.86.56999 1.4 0 .53-.21 1.06-.56999 1.4z" fill="#231f20" fill-rule="evenodd"/></svg>